<?xml version="1.0" encoding="UTF-8"?>
<!DOCTYPE svg PUBLIC "-//W3C//DTD SVG 1.1//EN" "http://www.w3.org/Graphics/SVG/1.1/DTD/svg11.dtd">
<!-- Creator: CorelDRAW (Evaluation Version) -->
<svg xmlns="http://www.w3.org/2000/svg" xml:space="preserve" width="49.9999mm" height="27.6659mm" version="1.1" style="shape-rendering:geometricPrecision; text-rendering:geometricPrecision; image-rendering:optimizeQuality; fill-rule:evenodd; clip-rule:evenodd"
viewBox="0 0 3587.26 1984.9"
 xmlns:xlink="http://www.w3.org/1999/xlink"
 xmlns:xodm="http://www.corel.com/coreldraw/odm/2003">
 <defs>
  <style type="text/css">
   <![CDATA[
    .fil0 {fill:#818382;fill-rule:nonzero}
    .fil1 {fill:#299C5C;fill-rule:nonzero}
   ]]>
  </style>
 </defs>
 <g id="Layer_x0020_1">
  <metadata id="CorelCorpID_0Corel-Layer"/>
  <g id="_1913962543536">
   <path class="fil0" d="M608.97 780.5l-155.63 0 0 -72.19 -2.28 0c-6.76,9.8 -15.61,19.72 -26.5,29.9 -10.91,10.14 -23.69,19.36 -38.37,27.61 -14.63,8.31 -30.83,15.04 -48.5,20.3 -17.66,5.27 -35.89,7.92 -54.67,7.92 -40.62,0 -77.47,-6.96 -110.55,-20.86 -33.1,-13.92 -61.48,-33.46 -85.17,-58.67 -23.69,-25.18 -41.91,-55.08 -54.72,-89.7 -12.76,-34.55 -19.16,-72.53 -19.16,-113.9 0,-38.34 5.83,-75.02 17.49,-109.97 11.64,-34.98 28.2,-65.98 49.63,-93.04 21.44,-27.08 47.56,-48.7 78.39,-64.87 30.82,-16.14 65.8,-24.24 104.88,-24.24 35.33,0 68.26,5.44 98.71,16.35 30.48,10.93 55.43,29.53 75,55.83l2.27 0 0 -290.96 169.18 0 0 780.49zm-155.63 -274.09c0,-41.35 -11.85,-74.82 -35.56,-100.4 -23.66,-25.54 -56.94,-38.35 -99.8,-38.35 -42.88,0 -76.13,12.81 -99.82,38.35 -23.72,25.58 -35.54,59.05 -35.54,100.4 0,41.36 11.82,74.84 35.54,100.38 23.69,25.57 56.94,38.35 99.82,38.35 42.85,0 76.14,-12.78 99.8,-38.35 23.72,-25.53 35.56,-59.02 35.56,-100.38z"/>
   <path class="fil1" d="M1134.6 711.7l-2.25 0c-18.83,29.34 -43.84,50.37 -75.02,63.17 -31.21,12.76 -64.13,19.16 -98.71,19.16 -25.56,0 -50.19,-3.59 -73.88,-10.7 -23.66,-7.14 -44.55,-17.87 -62.56,-32.15 -18.07,-14.3 -32.37,-31.94 -42.88,-53.02 -10.56,-21.06 -15.8,-45.49 -15.8,-73.32 0,-31.56 5.83,-58.26 17.49,-80.08 11.64,-21.8 27.44,-39.84 47.35,-54.14 19.92,-14.28 42.67,-25.38 68.24,-33.28 25.56,-7.87 52.07,-13.7 79.53,-17.46 27.44,-3.75 54.89,-6.03 82.33,-6.79 27.46,-0.71 52.83,-1.11 76.16,-1.11 0,-30.07 -10.7,-53.96 -32.14,-71.63 -21.44,-17.64 -46.8,-26.52 -76.16,-26.52 -27.82,0 -53.2,5.85 -76.13,17.52 -22.96,11.67 -43.43,27.61 -61.48,47.93l-90.23 -92.51c31.59,-29.31 68.42,-51.33 110.55,-65.96 42.09,-14.68 85.73,-22.02 130.81,-22.02 49.65,0 90.43,6.2 122.43,18.6 31.89,12.43 57.5,30.66 76.66,54.7 19.19,24.09 32.53,53.58 40.09,88.56 7.5,34.95 11.24,75.4 11.24,121.26l0 278.59 -155.64 0 0 -68.8zm-41.73 -171.45c-12.81,0 -28.75,0.58 -47.93,1.69 -19.16,1.14 -37.64,4.33 -55.28,9.59 -17.69,5.27 -32.73,13.17 -45.11,23.67 -12.43,10.53 -18.63,25.2 -18.63,43.99 0,20.33 8.63,35.38 25.94,45.16 17.31,9.74 35.36,14.63 54.14,14.63 16.55,0 32.5,-2.25 47.91,-6.76 15.44,-4.53 29.13,-10.88 41.2,-19.16 12.05,-8.27 21.62,-18.78 28.78,-31.58 7.14,-12.79 10.7,-27.82 10.7,-45.13l0 -36.09 -41.73 0z"/>
   <path class="fil1" d="M1501.13 453.43l-111.66 0 0 -135.35 111.66 0 0 -96.99c0,-30.07 2.63,-58.47 7.9,-85.14 5.27,-26.7 15.41,-50.19 30.45,-70.52 15.03,-20.3 36.68,-36.27 64.87,-47.96 28.2,-11.62 65.22,-17.46 111.11,-17.46 17.28,0 34.19,0.73 50.75,2.25 16.52,1.52 32.72,4.15 48.49,7.9l-7.9 143.25c-9.79,-3.75 -18.8,-6.58 -27.06,-8.45 -8.3,-1.87 -17.66,-2.83 -28.22,-2.83 -27.06,0 -47.36,5.84 -60.9,17.48 -13.52,11.67 -20.33,35.54 -20.33,71.63l0 86.84 125.23 0 0 135.35 -125.23 0 0 340.63 -169.18 0 0 -340.63z"/>
   <path class="fil1" d="M2424.9 685.74c-27.08,34.62 -61.3,61.3 -102.65,80.08 -41.38,18.8 -84.21,28.22 -128.58,28.22 -42.11,0 -81.78,-6.78 -119,-20.3 -37.21,-13.54 -69.56,-32.9 -96.99,-58.11 -27.46,-25.18 -49.07,-55.43 -64.86,-90.81 -15.8,-35.33 -23.67,-74.79 -23.67,-118.43 0,-43.56 7.87,-83.05 23.67,-118.42 15.79,-35.33 37.41,-65.58 64.86,-90.79 27.44,-25.19 59.79,-44.58 96.99,-58.09 37.23,-13.54 76.89,-20.3 119,-20.3 39.11,0 74.62,6.76 106.58,20.3 31.94,13.52 59.05,32.9 81.22,58.09 22.17,25.2 39.25,55.45 51.33,90.79 12.02,35.38 18.02,74.87 18.02,118.42l0 53.03 -392.51 0c6.76,32.34 21.44,58.09 44.02,77.27 22.52,19.16 50.37,28.76 83.42,28.76 27.82,0 51.33,-6.21 70.52,-18.6 19.16,-12.4 35.89,-28.38 50.19,-47.94l118.45 86.84zm-143.25 -241.38c0.73,-28.55 -8.66,-52.98 -28.2,-73.3 -19.59,-20.3 -44.78,-30.45 -75.58,-30.45 -18.83,0 -35.33,3.01 -49.63,9.01 -14.3,6.03 -26.5,13.75 -36.65,23.11 -10.15,9.44 -18.07,20.3 -23.69,32.72 -5.65,12.4 -8.86,25.39 -9.59,38.91l223.34 0z"/>
   <polygon class="fil1" points="2297.1,1984.9 3587.26,1984.9 3587.26,1786.42 2297.1,1786.42 "/>
   <polygon class="fil1" points="3488.02,1687.15 3587.26,1687.15 3587.26,1488.67 3488.02,1488.67 "/>
   <polygon class="fil1" points="2892.55,1389.43 3587.26,1389.43 3587.26,1190.94 2892.55,1190.94 "/>
   <polygon class="fil1" points="2892.55,1091.7 3587.26,1091.7 3587.26,893.22 2892.55,893.22 "/>
   <polygon class="fil1" points="14.97,1493.48 141.68,1493.48 141.68,1531.92 56.58,1531.92 56.58,1570.32 135.27,1570.32 135.27,1608.72 56.58,1608.72 56.58,1682.34 14.97,1682.34 "/>
   <path class="fil1" d="M171.26 1587.91c0,-15.09 2.55,-28.83 7.62,-41.08 5.06,-12.28 12.12,-22.73 21.21,-31.31 9.06,-8.65 19.82,-15.28 32.27,-19.89 12.43,-4.61 26.04,-6.94 40.8,-6.94 14.78,0 28.37,2.32 40.82,6.94 12.43,4.61 23.21,11.24 32.27,19.89 9.08,8.58 16.12,19.03 21.18,31.31 5.12,12.25 7.62,25.99 7.62,41.08 0,15.13 -2.5,28.83 -7.62,41.07 -5.06,12.28 -12.1,22.73 -21.18,31.36 -9.06,8.63 -19.84,15.24 -32.27,19.84 -12.45,4.66 -26.04,6.94 -40.82,6.94 -14.76,0 -28.38,-2.28 -40.8,-6.94 -12.45,-4.61 -23.21,-11.21 -32.27,-19.84 -9.09,-8.63 -16.15,-19.08 -21.21,-31.36 -5.07,-12.25 -7.62,-25.94 -7.62,-41.07zm43.23 0c0,8.91 1.37,17.03 4.13,24.42 2.76,7.37 6.71,13.77 11.9,19.18 5.14,5.42 11.31,9.64 18.5,12.68 7.21,3.01 15.26,4.53 24.15,4.53 8.9,0 16.95,-1.52 24.14,-4.53 7.21,-3.04 13.37,-7.27 18.55,-12.68 5.14,-5.42 9.11,-11.82 11.85,-19.18 2.76,-7.39 4.15,-15.51 4.15,-24.42 0,-8.68 -1.39,-16.78 -4.15,-24.27 -2.73,-7.47 -6.71,-13.93 -11.85,-19.34 -5.19,-5.41 -11.34,-9.64 -18.55,-12.65 -7.19,-3.04 -15.24,-4.56 -24.14,-4.56 -8.89,0 -16.94,1.51 -24.15,4.56 -7.19,3.01 -13.37,7.24 -18.5,12.65 -5.19,5.42 -9.13,11.87 -11.9,19.34 -2.76,7.49 -4.13,15.59 -4.13,24.27z"/>
   <path class="fil1" d="M413.2 1493.48l73.1 0c9.56,0 18.7,0.96 27.31,2.81 8.63,1.87 16.2,4.99 22.71,9.34 6.48,4.35 11.62,10.25 15.46,17.59 3.82,7.39 5.72,16.58 5.72,27.64 0,13.34 -3.44,24.68 -10.37,33.99 -6.96,9.34 -17.11,15.24 -30.42,17.74l48.01 79.75 -49.86 0 -39.48 -75.5 -20.56 0 0 75.5 -41.61 0 0 -188.86zm41.61 78.18l24.55 0c3.69,0 7.67,-0.15 11.87,-0.43 4.18,-0.25 7.94,-1.06 11.31,-2.38 3.39,-1.34 6.18,-3.42 8.43,-6.27 2.2,-2.86 3.31,-6.87 3.31,-12 0,-4.83 -0.96,-8.63 -2.93,-11.49 -1.97,-2.83 -4.43,-5.01 -7.47,-6.53 -3.01,-1.52 -6.5,-2.53 -10.4,-3.06 -3.92,-0.53 -7.75,-0.81 -11.47,-0.81l-27.21 0 0 42.98z"/>
   <polygon class="fil1" points="597.52,1493.48 725.81,1493.48 725.81,1531.92 639.12,1531.92 639.12,1567.1 721.03,1567.1 721.03,1605.52 639.12,1605.52 639.12,1643.94 730.62,1643.94 730.62,1682.34 597.52,1682.34 "/>
   <path class="fil1" d="M867.17 1539.63c-3.36,-4.25 -7.94,-7.42 -13.72,-9.47 -5.8,-2.02 -11.26,-3.06 -16.4,-3.06 -3.03,0 -6.15,0.36 -9.36,1.06 -3.19,0.71 -6.23,1.82 -9.03,3.34 -2.86,1.52 -5.19,3.52 -6.94,6.03 -1.79,2.45 -2.68,5.49 -2.68,9.03 0,5.72 2.12,10.07 6.41,13.09 4.25,3.01 9.64,5.62 16.12,7.72 6.5,2.15 13.49,4.3 20.96,6.41 7.44,2.15 14.45,5.19 20.93,9.08 6.51,3.9 11.87,9.16 16.15,15.74 4.25,6.58 6.4,15.37 6.4,26.4 0,10.47 -1.97,19.67 -5.87,27.46 -3.92,7.82 -9.21,14.33 -15.87,19.49 -6.68,5.16 -14.4,8.96 -23.23,11.46 -8.76,2.48 -18.1,3.72 -27.87,3.72 -12.25,0 -23.67,-1.84 -34.14,-5.59 -10.48,-3.72 -20.28,-9.77 -29.34,-18.12l29.61 -32.55c4.25,5.7 9.64,10.1 16.13,13.19 6.5,3.14 13.24,4.68 20.17,4.68 3.36,0 6.79,-0.38 10.27,-1.19 3.44,-0.81 6.54,-2 9.32,-3.59 2.76,-1.62 4.96,-3.67 6.66,-6.15 1.69,-2.5 2.53,-5.42 2.53,-8.81 0,-5.7 -2.17,-10.17 -6.5,-13.47 -4.38,-3.29 -9.85,-6.1 -16.4,-8.4 -6.61,-2.3 -13.72,-4.63 -21.37,-6.96 -7.64,-2.28 -14.75,-5.42 -21.34,-9.31 -6.58,-3.92 -12.07,-9.06 -16.4,-15.47 -4.35,-6.4 -6.53,-14.86 -6.53,-25.33 0,-10.15 2,-19.03 6,-26.67 4,-7.65 9.34,-14.05 16,-19.21 6.68,-5.14 14.35,-9.01 23.08,-11.59 8.68,-2.6 17.69,-3.87 26.93,-3.87 10.65,0 21.01,1.49 30.93,4.51 9.99,3.03 18.96,8.09 26.95,15.21l-28.55 31.21z"/>
   <polygon class="fil1" points="973.33,1530.31 919.45,1530.31 919.45,1493.48 1068.83,1493.48 1068.83,1530.31 1014.95,1530.31 1014.95,1682.34 973.33,1682.34 "/>
   <path class="fil1" d="M1137.4 1493.48l34.42 0 82.13 188.86 -46.95 0 -16.25 -40.01 -73.37 0 -15.74 40.01 -45.86 0 81.62 -188.86zm15.99 54.94l-22.93 58.69 46.14 0 -23.21 -58.69z"/>
   <polygon class="fil1" points="1284.37,1493.48 1325.98,1493.48 1325.98,1643.94 1403.07,1643.94 1403.07,1682.34 1284.37,1682.34 "/>
   <polygon class="fil1" points="1435.32,1493.47 1476.93,1493.47 1476.93,1682.34 1435.32,1682.34 "/>
   <polygon class="fil1" points="1529.74,1639.12 1568.16,1639.12 1544.14,1714.34 1510,1714.34 "/>
   <path class="fil1" d="M1764.48 1493.48l34.42 0 82.13 188.86 -46.95 0 -16.25 -40.01 -73.35 0 -15.77 40.01 -45.86 0 81.62 -188.86zm15.99 54.94l-22.93 58.69 46.14 0 -23.21 -58.69z"/>
   <polygon class="fil1" points="1911.42,1493.48 1953.03,1493.48 1953.03,1643.94 2030.13,1643.94 2030.13,1682.34 1911.42,1682.34 "/>
   <polygon class="fil1" points="2062.38,1493.47 2103.98,1493.47 2103.98,1682.34 2062.38,1682.34 "/>
   <polygon class="fil1" points="2151.73,1493.48 2214.7,1493.48 2258.16,1616.74 2258.69,1616.74 2302.45,1493.48 2365.12,1493.48 2365.12,1682.34 2323.51,1682.34 2323.51,1537.52 2322.98,1537.52 2273.37,1682.34 2241.63,1682.34 2193.89,1537.52 2193.34,1537.52 2193.34,1682.34 2151.73,1682.34 "/>
   <polygon class="fil1" points="2415.02,1493.48 2543.31,1493.48 2543.31,1531.92 2456.62,1531.92 2456.62,1567.1 2538.51,1567.1 2538.51,1605.52 2456.62,1605.52 2456.62,1643.94 2548.12,1643.94 2548.12,1682.34 2415.02,1682.34 "/>
   <polygon class="fil1" points="2591.32,1493.48 2647.88,1493.48 2728.17,1624.74 2728.7,1624.74 2728.7,1493.48 2770.29,1493.48 2770.29,1682.34 2715.87,1682.34 2633.46,1547.89 2632.92,1547.89 2632.92,1682.34 2591.32,1682.34 "/>
   <polygon class="fil1" points="2855.14,1530.31 2801.25,1530.31 2801.25,1493.48 2950.61,1493.48 2950.61,1530.31 2896.73,1530.31 2896.73,1682.34 2855.14,1682.34 "/>
   <path class="fil1" d="M3019.14 1493.48l34.42 0 82.13 188.86 -46.95 0 -16.25 -40.01 -73.35 0 -15.77 40.01 -45.86 0 81.62 -188.86zm15.99 54.94l-22.93 58.69 46.14 0 -23.21 -58.69z"/>
   <path class="fil1" d="M3164.51 1493.48l73.09 0c9.59,0 18.7,0.96 27.36,2.81 8.58,1.87 16.15,4.99 22.66,9.34 6.48,4.35 11.62,10.25 15.46,17.59 3.82,7.39 5.72,16.58 5.72,27.64 0,13.34 -3.44,24.68 -10.37,33.99 -6.96,9.34 -17.06,15.24 -30.4,17.74l47.99 79.75 -49.86 0 -39.48 -75.5 -20.56 0 0 75.5 -41.61 0 0 -188.86zm41.61 78.18l24.55 0c3.75,0 7.7,-0.15 11.87,-0.43 4.18,-0.25 7.94,-1.06 11.34,-2.38 3.36,-1.34 6.15,-3.42 8.4,-6.27 2.23,-2.86 3.32,-6.87 3.32,-12 0,-4.83 -0.97,-8.63 -2.94,-11.49 -1.92,-2.83 -4.43,-5.01 -7.44,-6.53 -3.03,-1.52 -6.53,-2.53 -10.42,-3.06 -3.9,-0.53 -7.75,-0.81 -11.46,-0.81l-27.21 0 0 42.98z"/>
   <polygon class="fil1" points="3346.66,1493.47 3388.27,1493.47 3388.27,1682.34 3346.66,1682.34 "/>
   <polygon class="fil1" points="15.74,1791.22 144.01,1791.22 144.01,1829.64 57.32,1829.64 57.32,1864.84 139.23,1864.84 139.23,1903.26 57.32,1903.26 57.32,1941.68 148.85,1941.68 148.85,1980.08 15.74,1980.08 "/>
   <path class="fil1" d="M376.62 1791.22l34.42 0 82.16 188.86 -46.95 0 -16.27 -40.01 -73.37 0 -15.75 40.01 -45.86 0 81.62 -188.86zm16.02 54.95l-22.96 58.69 46.15 0 -23.19 -58.69z"/>
   <polygon class="fil1" points="538.81,1791.22 601.75,1791.22 645.23,1914.47 645.77,1914.47 689.5,1791.22 752.19,1791.22 752.19,1980.08 710.59,1980.08 710.59,1835.25 710.06,1835.25 660.44,1980.08 628.68,1980.08 580.97,1835.25 580.41,1835.25 580.41,1980.08 538.81,1980.08 "/>
   <path class="fil1" d="M817.27 1791.22l70.42 0c8.17,0 16.4,0.58 24.67,1.74 8.28,1.14 15.69,3.47 22.28,6.94 6.58,3.47 11.9,8.32 16.02,14.53 4.08,6.23 6.12,14.5 6.12,24.8 0,10.68 -2.98,19.54 -8.93,26.55 -5.95,7.03 -13.85,12.05 -23.61,15.08l0 0.53c6.23,0.89 11.87,2.61 16.95,5.22 5.04,2.55 9.39,5.85 13.06,9.84 3.62,4 6.43,8.66 8.4,14 1.95,5.34 2.93,11.03 2.93,17.08 0,9.95 -2.15,18.27 -6.4,24.96 -4.28,6.66 -9.8,12.02 -16.56,16.12 -6.75,4.08 -14.35,7.04 -22.8,8.78 -8.45,1.8 -16.86,2.68 -25.21,2.68l-77.35 0 0 -188.86zm41.61 75.5l30.15 0c3.21,0 6.35,-0.35 9.46,-1.06 3.11,-0.73 5.92,-1.9 8.38,-3.47 2.5,-1.6 4.51,-3.75 6.02,-6.41 1.52,-2.68 2.25,-5.87 2.25,-9.61 0,-3.9 -0.83,-7.14 -2.53,-9.72 -1.69,-2.58 -3.85,-4.61 -6.5,-6.03 -2.68,-1.39 -5.72,-2.42 -9.09,-3.06 -3.39,-0.6 -6.65,-0.93 -9.86,-0.93l-28.27 0 0 40.29zm0 78.13l37.33 0c3.22,0 6.44,-0.35 9.75,-1.06 3.31,-0.68 6.28,-1.92 8.93,-3.72 2.68,-1.8 4.86,-4.08 6.56,-6.94 1.67,-2.83 2.53,-6.3 2.53,-10.37 0,-4.48 -1.13,-8.08 -3.34,-10.81 -2.23,-2.78 -5.04,-4.86 -8.4,-6.3 -3.39,-1.42 -7.02,-2.38 -10.96,-2.91 -3.9,-0.53 -7.54,-0.81 -10.91,-0.81l-31.49 0 0 42.93z"/>
   <polygon class="fil1" points="1016.26,1791.22 1057.86,1791.22 1057.86,1980.09 1016.26,1980.09 "/>
   <polygon class="fil1" points="1124,1791.22 1252.3,1791.22 1252.3,1829.64 1165.61,1829.64 1165.61,1864.84 1247.49,1864.84 1247.49,1903.26 1165.61,1903.26 1165.61,1941.68 1257.11,1941.68 1257.11,1980.08 1124,1980.08 "/>
   <polygon class="fil1" points="1317.12,1791.22 1373.69,1791.22 1453.97,1922.47 1454.5,1922.47 1454.5,1791.22 1496.09,1791.22 1496.09,1980.08 1441.67,1980.08 1359.26,1845.63 1358.73,1845.63 1358.73,1980.08 1317.12,1980.08 "/>
   <polygon class="fil1" points="1597.73,1828.04 1543.84,1828.04 1543.84,1791.21 1693.2,1791.21 1693.2,1828.04 1639.32,1828.04 1639.32,1980.08 1597.73,1980.08 "/>
   <path class="fil1" d="M1778.59 1791.22l34.42 0 82.13 188.86 -46.95 0 -16.25 -40.01 -73.35 0 -15.77 40.01 -45.87 0 81.63 -188.86zm15.99 54.95l-22.93 58.69 46.14 0 -23.21 -58.69z"/>
   <polygon class="fil1" points="1942.35,1791.22 1983.97,1791.22 1983.97,1941.68 2061.06,1941.68 2061.06,1980.08 1942.35,1980.08 "/>
   <polygon class="fil1" points="2110.11,1791.22 2151.72,1791.22 2151.72,1980.09 2110.11,1980.09 "/>
   <path class="fil1" d="M107.5 1241.89c-3.36,-4.25 -7.95,-7.41 -13.72,-9.46 -5.78,-2.02 -11.26,-3.06 -16.4,-3.06 -3.04,0 -6.15,0.35 -9.37,1.06 -3.19,0.71 -6.22,1.82 -9.03,3.34 -2.86,1.51 -5.19,3.52 -6.94,6.02 -1.79,2.46 -2.68,5.5 -2.68,9.04 0,5.72 2.15,10.07 6.4,13.06 4.25,3.03 9.64,5.65 16.12,7.75 6.51,2.15 13.5,4.3 20.96,6.4 7.44,2.15 14.46,5.19 20.94,9.09 6.5,3.9 11.9,9.16 16.14,15.74 4.25,6.58 6.41,15.36 6.41,26.4 0,10.48 -1.97,19.67 -5.87,27.46 -3.92,7.82 -9.22,14.33 -15.87,19.49 -6.69,5.17 -14.41,8.96 -23.21,11.47 -8.79,2.48 -18.12,3.72 -27.87,3.72 -12.28,0 -23.69,-1.84 -34.17,-5.6 -10.47,-3.72 -20.28,-9.76 -29.34,-18.12l29.62 -32.55c4.25,5.7 9.64,10.09 16.15,13.19 6.48,3.14 13.21,4.68 20.15,4.68 3.36,0 6.78,-0.37 10.27,-1.18 3.44,-0.81 6.53,-2 9.31,-3.62 2.76,-1.59 4.96,-3.64 6.66,-6.13 1.69,-2.5 2.53,-5.41 2.53,-8.8 0,-5.7 -2.18,-10.17 -6.51,-13.47 -4.38,-3.29 -9.82,-6.1 -16.4,-8.4 -6.58,-2.3 -13.72,-4.63 -21.36,-6.96 -7.65,-2.28 -14.76,-5.42 -21.34,-9.32 -6.58,-3.92 -12.05,-9.06 -16.4,-15.46 -4.35,-6.41 -6.53,-14.86 -6.53,-25.33 0,-10.15 1.99,-19.03 6,-26.68 4,-7.64 9.33,-14.05 15.99,-19.21 6.69,-5.14 14.35,-9.01 23.09,-11.62 8.68,-2.58 17.69,-3.85 26.93,-3.85 10.68,0 21.01,1.49 30.93,4.51 10,3.04 18.96,8.1 26.95,15.21l-28.55 31.21z"/>
   <path class="fil1" d="M317.44 1244.84c-4.1,-4.96 -9.11,-8.81 -15.06,-11.46 -6,-2.68 -12.86,-4.02 -20.71,-4.02 -7.82,0 -15.06,1.52 -21.72,4.56 -6.68,3.01 -12.45,7.24 -17.33,12.66 -4.91,5.42 -8.71,11.9 -11.49,19.36 -2.73,7.47 -4.13,15.57 -4.13,24.25 0,8.91 1.39,17.03 4.13,24.42 2.78,7.4 6.56,13.78 11.34,19.21 4.81,5.42 10.45,9.64 16.96,12.68 6.48,2.99 13.47,4.51 20.91,4.51 8.55,0 16.12,-1.77 22.7,-5.31 6.59,-3.57 12,-8.56 16.28,-14.96l34.65 25.89c-7.97,11.21 -18.12,19.46 -30.4,24.77 -12.25,5.37 -24.87,8.03 -37.86,8.03 -14.76,0 -28.38,-2.31 -40.8,-6.94 -12.45,-4.63 -23.23,-11.24 -32.27,-19.87 -9.08,-8.63 -16.17,-19.08 -21.24,-31.34 -5.06,-12.28 -7.59,-25.96 -7.59,-41.1 0,-15.08 2.53,-28.81 7.59,-41.07 5.07,-12.25 12.15,-22.71 21.24,-31.31 9.04,-8.63 19.82,-15.29 32.27,-19.89 12.43,-4.61 26.04,-6.94 40.8,-6.94 5.34,0 10.88,0.51 16.68,1.47 5.77,0.98 11.46,2.53 17.05,4.66 5.6,2.15 10.98,4.99 16.13,8.55 5.16,3.54 9.79,7.93 13.87,13.06l-31.99 26.14z"/>
   <polygon class="fil1" points="402.79,1195.75 444.4,1195.75 444.4,1384.61 402.79,1384.61 "/>
   <polygon class="fil1" points="510.55,1195.74 638.83,1195.74 638.83,1234.19 552.14,1234.19 552.14,1269.38 634.04,1269.38 634.04,1307.8 552.14,1307.8 552.14,1346.22 643.66,1346.22 643.66,1384.61 510.55,1384.61 "/>
   <polygon class="fil1" points="703.64,1195.74 760.21,1195.74 840.5,1327 841.03,1327 841.03,1195.74 882.66,1195.74 882.66,1384.61 828.22,1384.61 745.81,1250.16 745.25,1250.16 745.25,1384.61 703.64,1384.61 "/>
   <polygon class="fil1" points="937.85,1346.21 1033.59,1232.56 941.33,1232.56 941.33,1195.74 1084.01,1195.74 1084.01,1232.56 990.16,1346.21 1087.23,1346.21 1087.23,1384.6 937.85,1384.6 "/>
   <polygon class="fil1" points="1144.04,1195.74 1272.35,1195.74 1272.35,1234.19 1185.64,1234.19 1185.64,1269.38 1267.52,1269.38 1267.52,1307.8 1185.64,1307.8 1185.64,1346.22 1277.14,1346.22 1277.14,1384.61 1144.04,1384.61 "/>
   <path class="fil1" d="M1504.94 1195.74l34.42 0 82.13 188.87 -46.95 0 -16.25 -40.02 -73.35 0 -15.76 40.02 -45.87 0 81.62 -188.87zm16 54.95l-22.93 58.69 46.14 0 -23.21 -58.69z"/>
   <path class="fil1" d="M1838.07 1371.28c-12.28,6.4 -25.05,11.01 -38.39,13.87 -13.34,2.83 -26.96,4.25 -40.83,4.25 -14.75,0 -28.35,-2.27 -40.8,-6.93 -12.45,-4.61 -23.2,-11.21 -32.26,-19.84 -9.06,-8.63 -16.15,-19.08 -21.22,-31.36 -5.06,-12.25 -7.59,-25.94 -7.59,-41.07 0,-15.09 2.53,-28.83 7.59,-41.08 5.07,-12.28 12.15,-22.73 21.22,-31.33 9.06,-8.63 19.82,-15.27 32.26,-19.87 12.45,-4.63 26.05,-6.93 40.8,-6.93 15.14,0 29.04,1.79 41.76,5.47 12.73,3.64 23.89,9.92 33.46,18.78l-29.34 32.04c-5.7,-5.9 -12.1,-10.32 -19.21,-13.34 -7.12,-3.03 -16,-4.56 -26.68,-4.56 -8.85,0 -16.93,1.52 -24.14,4.56 -7.17,3.01 -13.37,7.24 -18.5,12.66 -5.19,5.42 -9.11,11.87 -11.9,19.34 -2.76,7.5 -4.13,15.59 -4.13,24.28 0,8.9 1.36,17.03 4.13,24.39 2.78,7.39 6.71,13.8 11.9,19.21 5.14,5.42 11.34,9.64 18.5,12.68 7.21,3.01 15.29,4.53 24.14,4.53 9.09,0 16.91,-1.01 23.49,-3.06 6.58,-2.05 11.82,-4.15 15.72,-6.28l0 -30.68 -33.84 0 0 -38.39 73.85 0 0 98.69z"/>
   <path class="fil1" d="M1901.3 1195.74l73.09 0c9.61,0 18.7,0.96 27.36,2.81 8.58,1.87 16.15,4.99 22.66,9.34 6.48,4.35 11.64,10.25 15.46,17.59 3.82,7.39 5.73,16.57 5.73,27.64 0,13.31 -3.44,24.67 -10.38,33.99 -6.93,9.33 -17.06,15.23 -30.4,17.74l47.99 79.75 -49.86 0 -39.48 -75.5 -20.56 0 0 75.5 -41.61 0 0 -188.87zm41.61 78.19l24.55 0c3.75,0 7.7,-0.15 11.87,-0.43 4.18,-0.26 7.95,-1.06 11.34,-2.38 3.36,-1.34 6.18,-3.42 8.4,-6.28 2.23,-2.86 3.34,-6.86 3.34,-12 0,-4.84 -0.98,-8.63 -2.96,-11.49 -1.92,-2.83 -4.43,-5.01 -7.44,-6.53 -3.03,-1.51 -6.53,-2.53 -10.42,-3.06 -3.9,-0.53 -7.75,-0.8 -11.46,-0.8l-27.21 0 0 42.98z"/>
   <path class="fil1" d="M2162.98 1195.74l34.42 0 82.13 188.87 -46.95 0 -16.25 -40.02 -73.35 0 -15.76 40.02 -45.87 0 81.62 -188.87zm16 54.95l-22.93 58.69 46.14 0 -23.21 -58.69z"/>
   <path class="fil1" d="M2325.14 1195.74l73.1 0c9.59,0 18.7,0.96 27.36,2.81 8.58,1.87 16.15,4.99 22.66,9.34 6.48,4.35 11.62,10.25 15.46,17.59 3.82,7.39 5.72,16.57 5.72,27.64 0,13.31 -3.44,24.67 -10.37,33.99 -6.94,9.33 -17.06,15.23 -30.4,17.74l47.99 79.75 -49.86 0 -39.48 -75.5 -20.56 0 0 75.5 -41.61 0 0 -188.87zm41.61 78.19l24.55 0c3.75,0 7.7,-0.15 11.87,-0.43 4.18,-0.26 7.94,-1.06 11.34,-2.38 3.36,-1.34 6.15,-3.42 8.4,-6.28 2.23,-2.86 3.31,-6.86 3.31,-12 0,-4.84 -0.96,-8.63 -2.93,-11.49 -1.92,-2.83 -4.43,-5.01 -7.44,-6.53 -3.03,-1.51 -6.53,-2.53 -10.42,-3.06 -3.9,-0.53 -7.75,-0.8 -11.47,-0.8l-27.21 0 0 42.98z"/>
   <polygon class="fil1" points="2524.14,1195.75 2565.74,1195.75 2565.74,1384.61 2524.14,1384.61 "/>
   <polygon class="fil1" points="2631.89,1195.74 2760.19,1195.74 2760.19,1234.19 2673.5,1234.19 2673.5,1269.38 2755.38,1269.38 2755.38,1307.8 2673.5,1307.8 2673.5,1346.22 2765,1346.22 2765,1384.61 2631.89,1384.61 "/>
   <path class="fil0" d="M14.13 898.01l62.44 0c15.11,0 29.47,1.69 43.05,5.09 13.62,3.36 25.48,8.86 35.61,16.4 10.14,7.57 18.19,17.39 24.14,29.49 5.95,12.07 8.93,26.75 8.93,43.99 0,15.32 -2.88,28.76 -8.65,40.42 -5.77,11.64 -13.6,21.42 -23.34,29.34 -9.79,7.92 -21.08,13.92 -33.89,18.02 -12.81,4.08 -26.22,6.12 -40.27,6.12l-68.04 0 0 -188.86zm41.61 150.47l21.62 0c9.59,0 18.55,-0.99 26.8,-2.96 8.27,-1.92 15.43,-5.22 21.49,-9.74 6.05,-4.51 10.8,-10.45 14.25,-17.84 3.47,-7.39 5.21,-16.4 5.21,-27.11 0,-9.21 -1.74,-17.26 -5.21,-24.09 -3.44,-6.86 -8.13,-12.51 -13.98,-16.96 -5.9,-4.46 -12.78,-7.79 -20.7,-9.99 -7.92,-2.23 -16.23,-3.31 -24.93,-3.31l-24.55 0 0 112.02z"/>
   <polygon class="fil0" points="242.75,898.03 284.36,898.03 284.36,1086.89 242.75,1086.89 "/>
   <path class="fil0" d="M348.9 898.01l70.13 0c9.79,0 19.03,0.89 27.74,2.68 8.73,1.77 16.32,4.86 22.8,9.19 6.51,4.35 11.64,10.25 15.49,17.58 3.82,7.4 5.75,16.68 5.75,27.92 0,11.01 -1.79,20.27 -5.37,27.74 -3.54,7.44 -8.43,13.42 -14.63,17.87 -6.25,4.43 -13.62,7.59 -22.15,9.46 -8.55,1.87 -17.79,2.78 -27.77,2.78l-30.4 0 0 73.63 -41.61 0 0 -188.86zm41.61 80.03l27.72 0c3.77,0 7.37,-0.35 10.81,-1.09 3.49,-0.68 6.58,-1.89 9.36,-3.57 2.73,-1.7 4.96,-4.02 6.66,-6.94 1.69,-2.93 2.53,-6.63 2.53,-11.06 0,-4.84 -1.09,-8.68 -3.34,-11.62 -2.23,-2.96 -5.04,-5.21 -8.53,-6.83 -3.47,-1.57 -7.31,-2.61 -11.59,-3.06 -4.28,-0.41 -8.35,-0.66 -12.3,-0.66l-21.32 0 0 44.83z"/>
   <path class="fil0" d="M586.02 898.01l34.42 0 82.16 188.86 -46.95 0 -16.28 -40.01 -73.35 0 -15.77 40.01 -45.86 0 81.62 -188.86zm16.02 54.95l-22.96 58.69 46.14 0 -23.18 -58.69z"/>
   <path class="fil0" d="M748.21 898.01l73.09 0c9.57,0 18.7,0.96 27.31,2.81 8.63,1.87 16.2,4.99 22.7,9.33 6.48,4.35 11.62,10.25 15.47,17.59 3.82,7.39 5.72,16.58 5.72,27.64 0,13.34 -3.44,24.67 -10.37,33.99 -6.97,9.34 -17.11,15.24 -30.43,17.74l48.01 79.75 -49.86 0 -39.49 -75.5 -20.55 0 0 75.5 -41.61 0 0 -188.86zm41.61 78.18l24.55 0c3.69,0 7.67,-0.15 11.87,-0.43 4.18,-0.25 7.95,-1.06 11.31,-2.37 3.39,-1.34 6.18,-3.42 8.43,-6.28 2.2,-2.86 3.31,-6.86 3.31,-12 0,-4.84 -0.96,-8.63 -2.93,-11.49 -1.97,-2.83 -4.43,-5.01 -7.47,-6.53 -3.01,-1.52 -6.51,-2.53 -10.4,-3.06 -3.92,-0.53 -7.74,-0.81 -11.46,-0.81l-27.21 0 0 42.98z"/>
   <polygon class="fil0" points="979.47,934.84 925.58,934.84 925.58,898.01 1074.96,898.01 1074.96,934.84 1021.07,934.84 1021.07,1086.88 979.47,1086.88 "/>
   <polygon class="fil0" points="1122.15,898.03 1163.77,898.03 1163.77,1086.89 1122.15,1086.89 "/>
   <polygon class="fil0" points="1228.34,898.01 1291.32,898.01 1334.77,1021.27 1335.3,1021.27 1379.07,898.01 1441.73,898.01 1441.73,1086.88 1400.12,1086.88 1400.12,942.05 1399.59,942.05 1349.98,1086.88 1318.24,1086.88 1270.51,942.05 1269.95,942.05 1269.95,1086.88 1228.34,1086.88 "/>
   <polygon class="fil0" points="1508.42,898.01 1636.72,898.01 1636.72,936.46 1550.04,936.46 1550.04,971.64 1631.91,971.64 1631.91,1010.07 1550.04,1010.07 1550.04,1048.49 1641.53,1048.49 1641.53,1086.88 1508.42,1086.88 "/>
   <polygon class="fil0" points="1701.54,898.01 1758.11,898.01 1838.4,1029.27 1838.93,1029.27 1838.93,898.01 1880.51,898.01 1880.51,1086.88 1826.1,1086.88 1743.71,952.43 1743.15,952.43 1743.15,1086.88 1701.54,1086.88 "/>
   <polygon class="fil0" points="1982.15,934.84 1928.27,934.84 1928.27,898.01 2077.62,898.01 2077.62,934.84 2023.74,934.84 2023.74,1086.88 1982.15,1086.88 "/>
   <path class="fil0" d="M2115.26 992.45c0,-15.08 2.53,-28.83 7.59,-41.07 5.07,-12.28 12.15,-22.73 21.19,-31.34 9.08,-8.63 19.84,-15.26 32.27,-19.87 12.48,-4.63 26.07,-6.94 40.82,-6.94 14.76,0 28.38,2.3 40.82,6.94 12.43,4.61 23.21,11.24 32.27,19.87 9.06,8.61 16.12,19.06 21.22,31.34 5.06,12.25 7.59,25.99 7.59,41.07 0,15.14 -2.53,28.83 -7.59,41.08 -5.09,12.28 -12.15,22.73 -21.22,31.36 -9.06,8.63 -19.84,15.23 -32.27,19.84 -12.45,4.66 -26.07,6.94 -40.82,6.94 -14.76,0 -28.35,-2.27 -40.82,-6.94 -12.43,-4.61 -23.19,-11.21 -32.27,-19.84 -9.04,-8.63 -16.12,-19.08 -21.19,-31.36 -5.07,-12.25 -7.59,-25.94 -7.59,-41.08zm43.21 0c0,8.91 1.36,17.03 4.13,24.4 2.78,7.39 6.71,13.8 11.87,19.21 5.17,5.42 11.36,9.64 18.53,12.68 7.21,3.01 15.28,4.53 24.14,4.53 8.91,0 16.93,-1.51 24.15,-4.53 7.21,-3.03 13.39,-7.26 18.55,-12.68 5.14,-5.42 9.11,-11.82 11.87,-19.21 2.73,-7.37 4.13,-15.49 4.13,-24.4 0,-8.68 -1.39,-16.78 -4.13,-24.27 -2.76,-7.47 -6.73,-13.92 -11.87,-19.34 -5.16,-5.42 -11.34,-9.64 -18.55,-12.66 -7.22,-3.03 -15.24,-4.56 -24.15,-4.56 -8.86,0 -16.93,1.52 -24.14,4.56 -7.17,3.01 -13.37,7.24 -18.53,12.66 -5.16,5.42 -9.08,11.87 -11.87,19.34 -2.76,7.49 -4.13,15.59 -4.13,24.27z"/>
   <path class="fil0" d="M2479.62 898.01l62.44 0c15.08,0 29.46,1.69 43.05,5.09 13.62,3.36 25.46,8.86 35.61,16.4 10.12,7.57 18.2,17.39 24.15,29.49 5.95,12.07 8.93,26.75 8.93,43.99 0,15.32 -2.88,28.76 -8.65,40.42 -5.78,11.64 -13.6,21.42 -23.34,29.34 -9.79,7.92 -21.09,13.92 -33.89,18.02 -12.81,4.08 -26.22,6.12 -40.26,6.12l-68.04 0 0 -188.86zm41.61 150.47l21.61 0c9.59,0 18.53,-0.99 26.8,-2.96 8.28,-1.92 15.42,-5.22 21.47,-9.74 6.05,-4.51 10.8,-10.45 14.27,-17.84 3.47,-7.39 5.19,-16.4 5.19,-27.11 0,-9.21 -1.72,-17.26 -5.19,-24.09 -3.47,-6.86 -8.15,-12.51 -13.99,-16.96 -5.88,-4.46 -12.76,-7.79 -20.68,-9.99 -7.92,-2.23 -16.22,-3.31 -24.92,-3.31l-24.55 0 0 112.02z"/>
   <polygon class="fil0" points="2708.21,898.03 2749.83,898.03 2749.83,1086.89 2708.21,1086.89 "/>
  </g>
 </g>
</svg>
