<?xml version="1.0" encoding="UTF-8"?>
<!DOCTYPE svg PUBLIC "-//W3C//DTD SVG 1.1//EN" "http://www.w3.org/Graphics/SVG/1.1/DTD/svg11.dtd">
<!--Risorse grafiche UNIBAS - bit.ly/unibasbrand -->
<svg xmlns="http://www.w3.org/2000/svg" xml:space="preserve" width="49.7978mm" height="27.6656mm" version="1.1" style="shape-rendering:geometricPrecision; text-rendering:geometricPrecision; image-rendering:optimizeQuality; fill-rule:evenodd; clip-rule:evenodd"
viewBox="0 0 3537.8 1965.46"
 xmlns:xlink="http://www.w3.org/1999/xlink"
 xmlns:xodm="http://www.corel.com/coreldraw/odm/2003">
 <defs>
  <style type="text/css">
   <![CDATA[
    .fil1 {fill:#C32728;fill-rule:nonzero}
    .fil0 {fill:#818382;fill-rule:nonzero}
   ]]>
  </style>
 </defs>
 <g id="Layer_x0020_1">
  <metadata id="CorelCorpID_0Corel-Layer"/>
  <g id="_1913877175536">
   <path class="fil0" d="M589.69 772.86l-154.11 0 0 -71.48 -2.25 0c-6.69,9.7 -15.44,19.54 -26.21,29.6 -10.81,10.05 -23.49,19.17 -37.97,27.34 -14.54,8.22 -30.55,14.88 -48.07,20.1 -17.5,5.24 -35.54,7.84 -54.13,7.84 -40.22,0 -76.72,-6.89 -109.48,-20.65 -32.78,-13.78 -60.88,-33.13 -84.34,-58.07 -23.43,-24.96 -41.5,-54.53 -54.16,-88.82 -12.66,-34.24 -18.98,-71.85 -18.98,-112.81 0,-37.97 5.74,-74.28 17.3,-108.87 11.52,-34.66 27.92,-65.37 49.15,-92.16 21.23,-26.82 47.09,-48.2 77.61,-64.24 30.53,-15.98 65.16,-24.01 103.86,-24.01 35.01,0 67.6,5.39 97.75,16.19 30.17,10.83 54.88,29.25 74.28,55.31l2.23 0 0 -288.14 167.51 0 0 772.85zm-154.11 -271.4c0,-40.96 -11.73,-74.09 -35.21,-99.43 -23.44,-25.29 -56.39,-37.97 -98.8,-37.97 -42.46,0 -75.41,12.68 -98.87,37.97 -23.48,25.33 -35.19,58.47 -35.19,99.43 0,40.97 11.71,74.11 35.19,99.4 23.46,25.31 56.42,37.97 98.87,37.97 42.41,0 75.36,-12.65 98.8,-37.97 23.48,-25.29 35.21,-58.43 35.21,-99.4z"/>
   <path class="fil0" d="M758.34 97.19c0,-26.81 9.5,-49.69 28.5,-68.72 19,-18.97 41.88,-28.47 68.7,-28.47 26.79,0 49.7,9.5 68.7,28.47 18.97,19.03 28.47,41.91 28.47,68.72 0,26.8 -9.5,49.7 -28.47,68.7 -19,18.98 -41.91,28.47 -68.7,28.47 -26.82,0 -49.7,-9.5 -68.7,-28.47 -19,-19 -28.5,-41.9 -28.5,-68.7zm13.41 132.84l167.51 0 0 542.83 -167.51 0 0 -542.83z"/>
   <path class="fil1" d="M1411.7 389.75c-24.54,-30.5 -56.94,-45.79 -97.17,-45.79 -14.14,0 -27.9,3.36 -41.33,10.05 -13.38,6.69 -20.1,18.24 -20.1,34.63 0,13.38 6.89,23.28 20.7,29.6 13.73,6.32 31.25,11.94 52.46,16.74 21.23,4.84 43.93,10.07 68.17,15.64 24.16,5.59 46.87,14.36 68.1,26.26 21.23,11.91 38.73,28.1 52.53,48.57 13.74,20.5 20.63,47.85 20.63,82.1 0,34.99 -7.59,63.86 -22.86,86.54 -15.28,22.73 -34.86,40.95 -58.67,54.71 -23.84,13.8 -50.65,23.48 -80.43,29.04 -29.77,5.62 -59.19,8.4 -88.19,8.4 -37.97,0 -76.36,-5.41 -115.09,-16.21 -38.67,-10.78 -71.45,-29.95 -98.29,-57.5l101.65 -112.83c15.69,19.37 32.96,34.09 51.93,44.13 19,10.05 41.18,15.07 66.46,15.07 19.4,0 36.89,-2.78 52.54,-8.38 15.61,-5.56 23.46,-15.79 23.46,-30.73 0,-14.11 -6.89,-24.74 -20.7,-31.81 -13.79,-7.06 -31.23,-13.03 -52.46,-17.89 -21.23,-4.84 -43.98,-10.05 -68.17,-15.62 -24.16,-5.61 -46.87,-13.99 -68.1,-25.14 -21.23,-11.15 -38.73,-26.99 -52.54,-47.46 -13.78,-20.45 -20.62,-47.82 -20.62,-82.1 0,-31.98 6.49,-59.55 19.5,-82.63 13.03,-23.08 30.2,-42.06 51.43,-56.99 21.23,-14.89 45.56,-25.85 73.15,-32.91 27.54,-7.1 55.41,-10.63 83.71,-10.63 35.79,0 71.88,5.21 108.37,15.64 36.52,10.43 67.39,29.02 92.68,55.87l-102.76 101.6z"/>
   <path class="fil1" d="M1974.63 389.75c-24.53,-30.5 -56.94,-45.79 -97.17,-45.79 -14.14,0 -27.89,3.36 -41.33,10.05 -13.38,6.69 -20.1,18.24 -20.1,34.63 0,13.38 6.89,23.28 20.69,29.6 13.74,6.32 31.26,11.94 52.46,16.74 21.23,4.84 43.93,10.07 68.17,15.64 24.15,5.59 46.87,14.36 68.1,26.26 21.23,11.91 38.72,28.1 52.53,48.57 13.73,20.5 20.62,47.85 20.62,82.1 0,34.99 -7.59,63.86 -22.88,86.54 -15.26,22.73 -34.83,40.95 -58.65,54.71 -23.84,13.8 -50.65,23.48 -80.42,29.04 -29.77,5.62 -59.2,8.4 -88.2,8.4 -37.97,0 -76.36,-5.41 -115.08,-16.21 -38.67,-10.78 -71.46,-29.95 -98.3,-57.5l101.66 -112.83c15.69,19.37 32.96,34.09 51.93,44.13 19,10.05 41.16,15.07 66.47,15.07 19.39,0 36.89,-2.78 52.53,-8.38 15.62,-5.56 23.46,-15.79 23.46,-30.73 0,-14.11 -6.89,-24.74 -20.7,-31.81 -13.78,-7.06 -31.25,-13.03 -52.45,-17.89 -21.23,-4.84 -43.99,-10.05 -68.17,-15.62 -24.16,-5.61 -46.87,-13.99 -68.1,-25.14 -21.23,-11.15 -38.72,-26.99 -52.53,-47.46 -13.79,-20.45 -20.63,-47.82 -20.63,-82.1 0,-31.98 6.47,-59.55 19.5,-82.63 13.03,-23.08 30.2,-42.06 51.43,-56.99 21.23,-14.89 45.57,-25.85 73.16,-32.91 27.54,-7.1 55.41,-10.63 83.7,-10.63 35.79,0 71.88,5.21 108.37,15.64 36.49,10.43 67.4,29.02 92.68,55.87l-102.76 101.6z"/>
   <polygon class="fil1" points="2260.26,1965.46 3537.8,1965.46 3537.8,1768.91 2260.26,1768.91 "/>
   <polygon class="fil1" points="1375.81,1670.65 3537.8,1670.65 3537.8,1474.11 1375.81,1474.11 "/>
   <polygon class="fil1" points="2849.89,1375.82 3537.8,1375.82 3537.8,1179.28 2849.89,1179.28 "/>
   <polygon class="fil1" points="1072.16,1081.01 3537.8,1081.01 3537.8,884.47 1072.16,884.47 "/>
   <polygon class="fil0" points="0.5,1081.01 938.22,1081.01 938.22,884.47 0.5,884.47 "/>
   <path class="fil1" d="M106.92 1524.55c-3.34,-4.21 -7.87,-7.34 -13.59,-9.37 -5.71,-2 -11.13,-3.03 -16.24,-3.03 -3.01,0 -6.09,0.36 -9.27,1.05 -3.13,0.7 -6.12,1.8 -8.94,3.31 -2.83,1.51 -5.14,3.48 -6.87,5.97 -1.78,2.43 -2.63,5.43 -2.63,8.94 0,5.66 2.1,9.97 6.32,12.93 4.23,3.01 9.55,5.59 15.96,7.67 6.44,2.13 13.36,4.26 20.75,6.34 7.37,2.13 14.31,5.14 20.72,9 6.44,3.86 11.78,9.07 16.02,15.59 4.18,6.51 6.32,15.22 6.32,26.14 0,10.37 -1.95,19.47 -5.82,27.19 -3.86,7.74 -9.12,14.19 -15.71,19.3 -6.61,5.11 -14.26,8.87 -22.98,11.35 -8.7,2.45 -17.95,3.68 -27.59,3.68 -12.16,0 -23.41,-1.83 -33.78,-5.53 -10.43,-3.69 -20.13,-9.68 -29.07,-17.95l29.3 -32.23c4.23,5.64 9.55,10 15.98,13.06 6.42,3.11 13.09,4.64 19.95,4.64 3.34,0 6.74,-0.38 10.18,-1.18 3.4,-0.8 6.46,-1.98 9.24,-3.59 2.71,-1.58 4.89,-3.61 6.62,-6.06 1.63,-2.49 2.45,-5.36 2.45,-8.72 0,-5.64 -2.1,-10.07 -6.44,-13.33 -4.33,-3.25 -9.73,-6.04 -16.24,-8.32 -6.51,-2.28 -13.58,-4.59 -21.16,-6.89 -7.57,-2.26 -14.59,-5.36 -21.13,-9.22 -6.49,-3.89 -11.9,-8.97 -16.21,-15.32 -4.33,-6.34 -6.49,-14.71 -6.49,-25.09 0,-10.07 1.98,-18.85 5.97,-26.41 3.94,-7.59 9.22,-13.9 15.81,-19.02 6.61,-5.09 14.26,-8.92 22.85,-11.5 8.6,-2.56 17.52,-3.84 26.67,-3.84 10.6,0 20.8,1.51 30.65,4.49 9.88,3.01 18.75,8.01 26.69,15.06l-28.29 30.89z"/>
   <path class="fil1" d="M314.8 1527.47c-4.06,-4.94 -9.02,-8.72 -14.91,-11.35 -5.89,-2.66 -12.73,-3.99 -20.45,-3.99 -7.79,0 -14.96,1.51 -21.55,4.51 -6.62,2.98 -12.33,7.17 -17.17,12.53 -4.86,5.36 -8.62,11.76 -11.35,19.17 -2.73,7.4 -4.11,15.42 -4.11,24.01 0,8.82 1.38,16.87 4.11,24.18 2.74,7.3 6.46,13.63 11.2,19.03 4.79,5.36 10.35,9.55 16.82,12.55 6.42,2.96 13.31,4.46 20.68,4.46 8.5,0 15.96,-1.75 22.48,-5.26 6.51,-3.53 11.91,-8.47 16.11,-14.81l34.34 25.64c-7.92,11.1 -17.97,19.27 -30.13,24.54 -12.13,5.31 -24.64,7.94 -37.49,7.94 -14.61,0 -28.1,-2.28 -40.4,-6.86 -12.33,-4.59 -22.98,-11.13 -31.96,-19.68 -9,-8.55 -16.01,-18.9 -21.03,-31.02 -5.01,-12.16 -7.52,-25.72 -7.52,-40.7 0,-14.94 2.51,-28.52 7.52,-40.68 5.02,-12.13 12.03,-22.48 21.03,-31 8.97,-8.55 19.62,-15.14 31.96,-19.7 12.3,-4.56 25.79,-6.86 40.4,-6.86 5.29,0 10.8,0.5 16.51,1.45 5.72,0.95 11.35,2.51 16.92,4.62 5.53,2.12 10.85,4.94 15.98,8.47 5.07,3.51 9.65,7.84 13.74,12.93l-31.74 25.88z"/>
   <polygon class="fil1" points="399.33,1478.87 440.53,1478.87 440.53,1665.88 399.33,1665.88 "/>
   <polygon class="fil1" points="506.03,1478.87 633.05,1478.87 633.05,1516.9 547.21,1516.9 547.21,1551.76 628.34,1551.76 628.34,1589.81 547.21,1589.81 547.21,1627.86 637.83,1627.86 637.83,1665.87 506.03,1665.87 "/>
   <polygon class="fil1" points="697.26,1478.87 753.25,1478.87 832.75,1608.83 833.27,1608.83 833.27,1478.87 874.48,1478.87 874.48,1665.87 820.59,1665.87 739.01,1532.74 738.47,1532.74 738.47,1665.87 697.26,1665.87 "/>
   <polygon class="fil1" points="929.15,1627.84 1023.95,1515.31 932.61,1515.31 932.61,1478.86 1073.88,1478.86 1073.88,1515.31 980.95,1627.84 1077.07,1627.84 1077.07,1665.87 929.15,1665.87 "/>
   <polygon class="fil1" points="1133.32,1478.87 1260.36,1478.87 1260.36,1516.9 1174.52,1516.9 1174.52,1551.76 1255.6,1551.76 1255.6,1589.81 1174.52,1589.81 1174.52,1627.86 1265.15,1627.86 1265.15,1665.87 1133.32,1665.87 "/>
   <path class="fil1" d="M0.5 1773.67l61.83 0c14.96,0 29.18,1.68 42.63,5.04 13.48,3.34 25.21,8.75 35.27,16.24 10.05,7.5 18.02,17.22 23.91,29.2 5.89,11.96 8.84,26.49 8.84,43.56 0,15.17 -2.86,28.47 -8.57,40.03 -5.76,11.53 -13.46,21.21 -23.11,29.05 -9.7,7.84 -20.87,13.78 -33.55,17.85 -12.68,4.04 -25.97,6.07 -39.88,6.07l-67.37 0 0 -187.02zm41.21 149l21.38 0c9.53,0 18.39,-0.98 26.57,-2.93 8.19,-1.9 15.28,-5.16 21.25,-9.65 6.02,-4.46 10.73,-10.35 14.14,-17.67 3.43,-7.32 5.14,-16.24 5.14,-26.84 0,-9.12 -1.71,-17.09 -5.14,-23.86 -3.41,-6.79 -8.07,-12.38 -13.84,-16.77 -5.84,-4.43 -12.68,-7.74 -20.5,-9.92 -7.84,-2.2 -16.07,-3.28 -24.69,-3.28l-24.31 0 0 110.93z"/>
   <polygon class="fil1" points="228.99,1773.67 356.01,1773.67 356.01,1811.75 270.16,1811.75 270.16,1846.59 351.27,1846.59 351.27,1884.63 270.16,1884.63 270.16,1922.67 360.76,1922.67 360.76,1960.7 228.99,1960.7 "/>
   <polygon class="fil1" points="421.78,1773.67 462.98,1773.67 462.98,1922.67 539.33,1922.67 539.33,1960.7 421.78,1960.7 "/>
   <polygon class="fil1" points="590.05,1773.67 631.23,1773.67 631.23,1922.67 707.54,1922.67 707.54,1960.7 590.05,1960.7 "/>
   <path class="fil1" d="M818.25 1773.67l34.06 0 81.35 187.02 -46.46 0 -16.12 -39.63 -72.63 0 -15.62 39.63 -45.41 0 80.83 -187.02zm15.84 54.41l-22.71 58.12 45.69 0 -22.98 -58.12z"/>
   <path class="fil1" d="M1175.85 1819.37c-3.3,-4.21 -7.84,-7.35 -13.56,-9.38 -5.71,-2 -11.15,-3.03 -16.27,-3.03 -3.01,0 -6.09,0.35 -9.27,1.05 -3.1,0.7 -6.12,1.8 -8.94,3.3 -2.83,1.51 -5.14,3.49 -6.92,5.97 -1.71,2.43 -2.58,5.43 -2.58,8.94 0,5.67 2.13,9.97 6.32,12.94 4.23,3.01 9.55,5.58 15.96,7.67 6.44,2.13 13.33,4.26 20.75,6.34 7.37,2.13 14.34,5.14 20.75,8.99 6.44,3.86 11.73,9.07 15.99,15.59 4.18,6.52 6.32,15.22 6.32,26.14 0,10.37 -1.96,19.47 -5.79,27.2 -3.89,7.74 -9.15,14.18 -15.74,19.3 -6.61,5.12 -14.26,8.87 -23,11.35 -8.72,2.46 -17.92,3.69 -27.59,3.69 -12.13,0 -23.39,-1.83 -33.76,-5.54 -10.45,-3.69 -20.13,-9.68 -29.08,-17.95l29.3 -32.23c4.24,5.64 9.56,10 15.99,13.06 6.42,3.11 13.09,4.64 19.93,4.64 3.35,0 6.76,-0.38 10.2,-1.18 3.4,-0.8 6.46,-1.98 9.24,-3.58 2.71,-1.58 4.89,-3.61 6.59,-6.07 1.66,-2.48 2.48,-5.36 2.48,-8.72 0,-5.63 -2.1,-10.07 -6.42,-13.33 -4.36,-3.26 -9.8,-6.05 -16.26,-8.33 -6.57,-2.28 -13.58,-4.58 -21.13,-6.89 -7.59,-2.25 -14.61,-5.36 -21.16,-9.22 -6.49,-3.89 -11.9,-8.97 -16.21,-15.31 -4.36,-6.34 -6.49,-14.71 -6.49,-25.09 0,-10.05 2,-18.85 5.97,-26.41 3.94,-7.57 9.25,-13.91 15.86,-19.03 6.59,-5.09 14.19,-8.92 22.8,-11.5 8.6,-2.56 17.52,-3.81 26.72,-3.81 10.55,0 20.75,1.48 30.58,4.46 9.85,3.01 18.77,8.02 26.71,15.06l-28.3 30.9z"/>
   <path class="fil1" d="M1323.01 1773.67l34.09 0 81.3 187.02 -46.46 0 -16.09 -39.63 -72.63 0 -15.64 39.63 -45.39 0 80.83 -187.02zm15.79 54.41l-22.68 58.12 45.69 0 -23 -58.12z"/>
   <polygon class="fil1" points="1485.15,1773.67 1526.35,1773.67 1526.35,1922.67 1602.72,1922.67 1602.72,1960.7 1485.15,1960.7 "/>
   <path class="fil1" d="M1809.47 1888.59c0,11.08 -1.66,21.3 -5.01,30.63 -3.36,9.35 -8.32,17.44 -14.91,24.31 -6.62,6.86 -14.86,12.25 -24.72,16.11 -9.85,3.86 -21.23,5.79 -34.08,5.79 -13.01,0 -24.47,-1.93 -34.31,-5.79 -9.83,-3.86 -18.09,-9.25 -24.69,-16.11 -6.61,-6.87 -11.55,-14.96 -14.91,-24.31 -3.38,-9.33 -5.01,-19.55 -5.01,-30.63l0 -114.91 41.2 0 0 113.31c0,5.81 0.88,11.2 2.76,16.14 1.83,4.91 4.44,9.2 7.79,12.78 3.36,3.64 7.37,6.44 12.03,8.47 4.66,2.03 9.73,3.03 15.14,3.03 5.48,0 10.5,-1 15.11,-3.03 4.53,-2.02 8.55,-4.83 11.85,-8.47 3.36,-3.58 5.95,-7.87 7.77,-12.78 1.88,-4.94 2.78,-10.33 2.78,-16.14l0 -113.31 41.2 0 0 114.91z"/>
   <polygon class="fil1" points="1910.11,1810.14 1856.75,1810.14 1856.75,1773.67 2004.67,1773.67 2004.67,1810.14 1951.32,1810.14 1951.32,1960.69 1910.11,1960.69 "/>
   <polygon class="fil1" points="2053.56,1773.67 2180.6,1773.67 2180.6,1811.75 2094.76,1811.75 2094.76,1846.59 2175.84,1846.59 2175.84,1884.63 2094.76,1884.63 2094.76,1922.67 2185.33,1922.67 2185.33,1960.7 2053.56,1960.7 "/>
   <path class="fil0" d="M0.5 1184.04l61.78 0c14.99,0 29.2,1.68 42.68,5.04 13.46,3.34 25.21,8.77 35.27,16.24 10.02,7.5 18,17.22 23.88,29.2 5.89,11.96 8.84,26.49 8.84,43.56 0,15.16 -2.83,28.47 -8.55,40.02 -5.76,11.53 -13.46,21.21 -23.11,29.05 -9.75,7.84 -20.87,13.78 -33.55,17.85 -12.68,4.04 -25.99,6.07 -39.91,6.07l-67.34 0 0 -187.02zm41.21 149l21.38 0c9.53,0 18.37,-0.98 26.57,-2.93 8.19,-1.9 15.26,-5.16 21.25,-9.62 5.99,-4.49 10.7,-10.38 14.11,-17.7 3.44,-7.32 5.16,-16.24 5.16,-26.84 0,-9.12 -1.73,-17.09 -5.16,-23.86 -3.41,-6.79 -8.04,-12.38 -13.83,-16.79 -5.84,-4.41 -12.66,-7.72 -20.47,-9.9 -7.84,-2.2 -16.09,-3.28 -24.69,-3.28l-24.31 0 0 110.93z"/>
   <polygon class="fil0" points="226.85,1184.04 268.05,1184.04 268.05,1371.06 226.85,1371.06 "/>
   <path class="fil0" d="M331.96 1184.04l69.45 0c9.7,0 18.87,0.88 27.47,2.66 8.65,1.78 16.17,4.82 22.58,9.1 6.44,4.31 11.55,10.15 15.34,17.42 3.78,7.32 5.68,16.51 5.68,27.64 0,10.9 -1.78,20.08 -5.29,27.47 -3.53,7.37 -8.37,13.29 -14.51,17.7 -6.16,4.38 -13.48,7.52 -21.92,9.37 -8.48,1.85 -17.62,2.76 -27.44,2.76l-30.15 0 0 72.91 -41.21 0 0 -187.02zm41.21 79.25l27.49 0c3.68,0 7.24,-0.35 10.65,-1.08 3.46,-0.67 6.54,-1.88 9.27,-3.53 2.71,-1.68 4.94,-3.99 6.59,-6.87 1.68,-2.91 2.54,-6.56 2.54,-10.95 0,-4.79 -1.11,-8.6 -3.29,-11.5 -2.25,-2.93 -5.04,-5.16 -8.5,-6.74 -3.43,-1.58 -7.24,-2.61 -11.47,-3.06 -4.21,-0.4 -8.27,-0.65 -12.16,-0.65l-21.13 0 0 44.39z"/>
   <path class="fil0" d="M566.79 1184.04l34.06 0 81.35 187.02 -46.49 0 -16.09 -39.63 -72.63 0 -15.64 39.63 -45.38 0 80.83 -187.02zm15.84 54.41l-22.73 58.12 45.69 0 -22.96 -58.12z"/>
   <path class="fil0" d="M727.36 1184.04l72.38 0c9.48,0 18.52,0.95 27.05,2.78 8.57,1.85 16.03,4.94 22.48,9.25 6.42,4.31 11.55,10.14 15.31,17.41 3.79,7.32 5.67,16.42 5.67,27.37 0,13.21 -3.41,24.43 -10.28,33.66 -6.86,9.24 -16.89,15.08 -30.1,17.57l47.52 78.97 -49.38 0 -39.1 -74.77 -20.35 0 0 74.77 -41.21 0 0 -187.02zm41.21 77.42l24.3 0c3.69,0 7.62,-0.16 11.76,-0.43 4.13,-0.26 7.87,-1.06 11.2,-2.36 3.36,-1.33 6.14,-3.38 8.35,-6.22 2.2,-2.83 3.3,-6.79 3.3,-11.88 0,-4.76 -0.97,-8.55 -2.93,-11.38 -1.96,-2.81 -4.39,-4.96 -7.37,-6.46 -3.01,-1.5 -6.42,-2.51 -10.32,-3.03 -3.89,-0.53 -7.67,-0.8 -11.35,-0.8l-26.94 0 0 42.56z"/>
   <polygon class="fil0" points="956.38,1220.51 903.02,1220.51 903.02,1184.04 1050.94,1184.04 1050.94,1220.51 997.58,1220.51 997.58,1371.06 956.38,1371.06 "/>
   <polygon class="fil0" points="1097.64,1184.04 1138.85,1184.04 1138.85,1371.06 1097.64,1371.06 "/>
   <polygon class="fil0" points="1202.83,1184.04 1265.15,1184.04 1308.18,1306.1 1308.72,1306.1 1352.05,1184.04 1414.12,1184.04 1414.12,1371.06 1372.93,1371.06 1372.93,1227.66 1372.4,1227.66 1323.27,1371.06 1291.84,1371.06 1244.58,1227.66 1244.02,1227.66 1244.02,1371.06 1202.83,1371.06 "/>
   <polygon class="fil0" points="1480.17,1184.04 1607.21,1184.04 1607.21,1222.12 1521.37,1222.12 1521.37,1256.95 1602.45,1256.95 1602.45,1295 1521.37,1295 1521.37,1333.04 1611.94,1333.04 1611.94,1371.06 1480.17,1371.06 "/>
   <polygon class="fil0" points="1671.36,1184.04 1727.38,1184.04 1806.9,1314.02 1807.43,1314.02 1807.43,1184.04 1848.58,1184.04 1848.58,1371.06 1794.7,1371.06 1713.12,1237.93 1712.57,1237.93 1712.57,1371.06 1671.36,1371.06 "/>
   <polygon class="fil0" points="1949.24,1220.51 1895.88,1220.51 1895.88,1184.04 2043.79,1184.04 2043.79,1220.51 1990.43,1220.51 1990.43,1371.06 1949.24,1371.06 "/>
   <path class="fil0" d="M2081.06 1277.55c0,-14.93 2.48,-28.55 7.5,-40.67 5.01,-12.16 12.03,-22.51 20.97,-31 9.02,-8.57 19.65,-15.14 31.96,-19.7 12.38,-4.56 25.84,-6.87 40.45,-6.87 14.61,0 28.07,2.31 40.37,6.87 12.33,4.56 23.01,11.13 31.96,19.7 9.02,8.5 15.99,18.85 21.06,31 5.01,12.13 7.49,25.74 7.49,40.67 0,14.99 -2.48,28.55 -7.49,40.68 -5.07,12.16 -12.03,22.51 -21.06,31.05 -8.94,8.55 -19.62,15.08 -31.96,19.64 -12.3,4.61 -25.76,6.87 -40.37,6.87 -14.61,0 -28.07,-2.26 -40.45,-6.87 -12.3,-4.56 -22.93,-11.1 -31.96,-19.64 -8.94,-8.55 -15.96,-18.9 -20.97,-31.05 -5.02,-12.13 -7.5,-25.69 -7.5,-40.68zm42.75 0c0,8.82 1.36,16.87 4.11,24.16 2.71,7.32 6.61,13.66 11.73,19.02 5.14,5.36 11.27,9.56 18.34,12.56 7.14,2.98 15.16,4.48 23.93,4.48 8.77,0 16.74,-1.5 23.88,-4.48 7.12,-3.01 13.26,-7.2 18.39,-12.56 5.07,-5.36 9.02,-11.7 11.73,-19.02 2.71,-7.3 4.11,-15.34 4.11,-24.16 0,-8.6 -1.41,-16.62 -4.11,-24.03 -2.71,-7.4 -6.66,-13.78 -11.73,-19.15 -5.14,-5.36 -11.27,-9.55 -18.39,-12.53 -7.14,-3.01 -15.11,-4.51 -23.88,-4.51 -8.77,0 -16.79,1.51 -23.93,4.51 -7.07,2.98 -13.21,7.17 -18.34,12.53 -5.12,5.36 -9.02,11.75 -11.73,19.15 -2.76,7.42 -4.11,15.44 -4.11,24.03z"/>
   <path class="fil0" d="M2441.82 1184.04l61.86 0c14.91,0 29.17,1.68 42.63,5.04 13.48,3.34 25.21,8.77 35.24,16.24 10.02,7.5 18.04,17.22 23.93,29.2 5.91,11.96 8.84,26.49 8.84,43.56 0,15.16 -2.88,28.47 -8.6,40.02 -5.71,11.53 -13.46,21.21 -23.11,29.05 -9.67,7.84 -20.87,13.78 -33.55,17.85 -12.68,4.04 -25.95,6.07 -39.85,6.07l-67.4 0 0 -187.02zm41.21 149l21.41 0c9.5,0 18.34,-0.98 26.54,-2.93 8.19,-1.9 15.26,-5.16 21.28,-9.62 5.96,-4.49 10.68,-10.38 14.16,-17.7 3.41,-7.32 5.12,-16.24 5.12,-26.84 0,-9.12 -1.71,-17.09 -5.12,-23.86 -3.48,-6.79 -8.1,-12.38 -13.91,-16.79 -5.79,-4.41 -12.63,-7.72 -20.47,-9.9 -7.84,-2.2 -16.04,-3.28 -24.69,-3.28l-24.31 0 0 110.93z"/>
   <polygon class="fil0" points="2668.24,1184.04 2709.44,1184.04 2709.44,1371.06 2668.24,1371.06 "/>
  </g>
 </g>
</svg>
