<?xml version="1.0" encoding="UTF-8"?>
<!DOCTYPE svg PUBLIC "-//W3C//DTD SVG 1.1//EN" "http://www.w3.org/Graphics/SVG/1.1/DTD/svg11.dtd">
<!--Risorse grafiche UNIBAS - bit.ly/unibasbrand -->
<svg xmlns="http://www.w3.org/2000/svg" xml:space="preserve" width="49.8125mm" height="27.6657mm" version="1.1" style="shape-rendering:geometricPrecision; text-rendering:geometricPrecision; image-rendering:optimizeQuality; fill-rule:evenodd; clip-rule:evenodd"
viewBox="0 0 3541.37 1966.87"
 xmlns:xlink="http://www.w3.org/1999/xlink"
 xmlns:xodm="http://www.corel.com/coreldraw/odm/2003">
 <defs>
  <style type="text/css">
   <![CDATA[
    .fil0 {fill:#818382;fill-rule:nonzero}
    .fil1 {fill:#158591;fill-rule:nonzero}
   ]]>
  </style>
 </defs>
 <g id="Layer_x0020_1">
  <metadata id="CorelCorpID_0Corel-Layer"/>
  <g id="_1913962504896">
   <path class="fil0" d="M590.12 773.42l-154.22 0 0 -71.53 -2.25 0c-6.7,9.71 -15.45,19.54 -26.23,29.62 -10.81,10.05 -23.5,19.19 -38,27.36 -14.55,8.23 -30.57,14.89 -48.1,20.11 -17.5,5.22 -35.56,7.85 -54.17,7.85 -40.25,0 -76.77,-6.9 -109.55,-20.67 -32.81,-13.79 -60.9,-33.16 -84.4,-58.13 -23.45,-24.95 -41.53,-54.55 -54.17,-88.89 -12.69,-34.23 -19.01,-71.88 -19.01,-112.86 0,-37.99 5.74,-74.34 17.3,-108.97 11.54,-34.66 27.94,-65.39 49.18,-92.19 21.24,-26.84 47.12,-48.25 77.67,-64.28 30.55,-16 65.21,-24.02 103.93,-24.02 35.04,0 67.65,5.39 97.82,16.2 30.19,10.83 54.93,29.27 74.34,55.33l2.23 0 0 -288.32 167.64 0 0 773.4zm-154.22 -271.6c0,-40.98 -11.74,-74.14 -35.23,-99.49 -23.45,-25.31 -56.43,-38 -98.87,-38 -42.49,0 -75.47,12.69 -98.94,38 -23.5,25.35 -35.18,58.51 -35.18,99.49 0,41.01 11.69,74.17 35.18,99.47 23.48,25.33 56.46,37.99 98.94,37.99 42.44,0 75.42,-12.66 98.87,-37.99 23.5,-25.31 35.23,-58.47 35.23,-99.47z"/>
   <path class="fil0" d="M758.89 97.26c0,-26.84 9.51,-49.74 28.52,-68.77 19.01,-18.99 41.91,-28.49 68.75,-28.49 26.81,0 49.73,9.51 68.74,28.49 18.99,19.03 28.49,41.93 28.49,68.77 0,26.81 -9.51,49.74 -28.49,68.75 -19.01,18.98 -41.93,28.49 -68.74,28.49 -26.84,0 -49.74,-9.51 -68.75,-28.49 -19.01,-19.01 -28.52,-41.94 -28.52,-68.75zm13.42 132.95l167.64 0 0 543.22 -167.64 0 0 -543.22z"/>
   <path class="fil1" d="M1413.81 390.04c-24.55,-30.53 -56.98,-45.82 -97.24,-45.82 -14.15,0 -27.91,3.36 -41.36,10.05 -13.39,6.7 -20.11,18.26 -20.11,34.69 0,13.37 6.9,23.28 20.72,29.6 13.74,6.32 31.27,11.94 52.49,16.78 21.24,4.81 43.96,10.06 68.22,15.63 24.17,5.59 46.9,14.37 68.14,26.28 21.24,11.92 38.75,28.11 52.57,48.61 13.74,20.51 20.64,47.87 20.64,82.16 0,35.01 -7.6,63.9 -22.9,86.6 -15.27,22.75 -34.86,40.98 -58.69,54.78 -23.85,13.79 -50.68,23.48 -80.48,29.04 -29.8,5.62 -59.24,8.4 -88.26,8.4 -38,0 -76.43,-5.42 -115.17,-16.23 -38.7,-10.78 -71.51,-29.97 -98.37,-57.53l101.73 -112.92c15.7,19.39 32.98,34.11 51.96,44.17 19.01,10.06 41.18,15.07 66.52,15.07 19.41,0 36.92,-2.76 52.57,-8.37 15.63,-5.57 23.48,-15.8 23.48,-30.75 0,-14.12 -6.9,-24.75 -20.72,-31.83 -13.79,-7.07 -31.27,-13.04 -52.49,-17.91 -21.24,-4.84 -44.02,-10.05 -68.22,-15.63 -24.18,-5.62 -46.9,-13.99 -68.14,-25.15 -21.24,-11.16 -38.77,-27.01 -52.57,-47.51 -13.79,-20.46 -20.65,-47.85 -20.65,-82.16 0,-32 6.48,-59.59 19.52,-82.69 13.04,-23.1 30.22,-42.08 51.47,-57 21.24,-14.9 45.6,-25.89 73.21,-32.96 27.56,-7.1 55.45,-10.64 83.76,-10.64 35.82,0 71.93,5.22 108.45,15.65 36.51,10.43 67.44,29.04 92.74,55.9l-102.83 101.68z"/>
   <path class="fil1" d="M1685.45 0.01l167.69 0 0 288.34 2.18 0c19.41,-26.08 44.19,-44.51 74.34,-55.35 30.2,-10.78 62.78,-16.2 97.82,-16.2 38.7,0 73.4,8.03 103.95,24.02 30.5,16.05 56.41,37.47 77.65,64.28 21.24,26.81 37.64,57.56 49.21,92.22 11.51,34.63 17.28,70.97 17.28,108.97 0,40.96 -6.32,78.6 -18.98,112.86 -12.69,34.31 -30.75,63.93 -54.17,88.88 -23.48,24.95 -51.61,44.34 -84.42,58.11 -32.8,13.77 -69.27,20.67 -109.5,20.67 -19.41,0 -37.64,-2.61 -54.75,-7.83 -17.18,-5.24 -33.01,-11.89 -47.55,-20.13 -14.52,-8.15 -27.21,-17.31 -37.99,-27.36 -10.81,-10.06 -19.54,-19.91 -26.26,-29.62l-2.25 0 0 71.53 -154.22 0 0 -773.4zm154.22 501.8c0,41.01 11.74,74.17 35.23,99.47 23.48,25.33 56.46,37.99 98.94,37.99 42.41,0 75.4,-12.66 98.87,-37.99 23.5,-25.31 35.23,-58.47 35.23,-99.47 0,-40.98 -11.74,-74.14 -35.23,-99.47 -23.48,-25.33 -56.46,-37.99 -98.87,-37.99 -42.49,0 -75.47,12.66 -98.94,37.99 -23.5,25.33 -35.23,58.49 -35.23,99.47z"/>
   <path class="fil1" d="M2760.67 705.24l-2.23 0c-18.66,29.07 -43.44,49.91 -74.29,62.6 -30.98,12.64 -63.56,18.99 -97.84,18.99 -25.36,0 -49.74,-3.56 -73.21,-10.61 -23.48,-7.07 -44.11,-17.71 -61.99,-31.86 -17.89,-14.17 -32.06,-31.65 -42.49,-52.54 -10.44,-20.87 -15.63,-45.07 -15.63,-72.66 0,-31.27 5.72,-57.74 17.28,-79.36 11.57,-21.59 27.19,-39.48 46.95,-53.65 19.71,-14.15 42.32,-25.15 67.62,-32.98 25.31,-7.8 51.56,-13.57 78.83,-17.3 27.14,-3.71 54.35,-5.97 81.54,-6.73 27.21,-0.7 52.39,-1.1 75.47,-1.1 0,-29.8 -10.61,-53.47 -31.85,-70.97 -21.24,-17.48 -46.37,-26.29 -75.42,-26.29 -27.61,0 -52.74,5.79 -75.47,17.36 -22.78,11.56 -42.99,27.36 -60.95,47.5l-89.39 -91.67c31.27,-29.04 67.8,-50.86 109.53,-65.36 41.76,-14.55 84.94,-21.82 129.66,-21.82 49.16,0 89.56,6.14 121.24,18.43 31.7,12.31 57,30.37 76.07,54.2 18.98,23.88 32.2,53.09 39.65,87.78 7.42,34.62 11.13,74.69 11.13,120.13l0 276.07 -154.22 0 0 -68.17zm-41.36 -169.89c-12.69,0 -28.49,0.58 -47.51,1.68 -18.98,1.13 -37.3,4.29 -54.75,9.51 -17.53,5.22 -32.38,13.05 -44.72,23.45 -12.26,10.43 -18.41,24.98 -18.41,43.59 0,20.14 8.55,35.06 25.66,44.75 17.18,9.65 35.06,14.5 53.7,14.5 16.35,0 32.21,-2.23 47.51,-6.7 15.22,-4.46 28.84,-10.78 40.76,-18.99 11.91,-8.2 21.41,-18.61 28.52,-31.3 7.07,-12.67 10.61,-27.56 10.61,-44.72l0 -35.77 -41.36 0z"/>
   <polygon class="fil1" points="2074.77,1966.87 3541.37,1966.87 3541.37,1770.19 2074.77,1770.19 "/>
   <polygon class="fil1" points="2754.88,1671.84 3541.37,1671.84 3541.37,1475.17 2754.88,1475.17 "/>
   <polygon class="fil1" points="2852.97,1376.82 3541.37,1376.82 3541.37,1180.14 2852.97,1180.14 "/>
   <polygon class="fil1" points="1074.04,1081.77 3541.37,1081.77 3541.37,885.1 1074.04,885.1 "/>
   <polygon class="fil0" points="1.55,1081.77 939.93,1081.77 939.93,885.1 1.55,885.1 "/>
   <path class="fil1" d="M107.49 1525.65c-3.36,-4.22 -7.9,-7.35 -13.62,-9.38 -5.72,-2.01 -11.13,-3.04 -16.22,-3.04 -3.01,0 -6.07,0.35 -9.28,1.05 -3.19,0.7 -6.15,1.81 -8.96,3.31 -2.83,1.5 -5.14,3.48 -6.9,5.96 -1.78,2.43 -2.63,5.45 -2.63,8.96 0,5.67 2.08,9.98 6.34,12.94 4.22,3.01 9.56,5.6 15.97,7.67 6.45,2.13 13.34,4.27 20.77,6.35 7.38,2.13 14.3,5.14 20.72,9 6.45,3.87 11.82,9.09 16.03,15.61 4.21,6.52 6.34,15.22 6.34,26.16 0,10.39 -1.96,19.49 -5.84,27.21 -3.86,7.75 -9.08,14.2 -15.7,19.31 -6.6,5.12 -14.28,8.88 -23,11.36 -8.75,2.46 -17.96,3.69 -27.61,3.69 -12.16,0 -23.45,-1.83 -33.86,-5.55 -10.41,-3.68 -20.06,-9.68 -29.06,-17.96l29.34 -32.25c4.22,5.64 9.56,10 16,13.07 6.42,3.11 13.09,4.64 19.93,4.64 3.36,0 6.75,-0.38 10.21,-1.18 3.41,-0.8 6.47,-1.98 9.23,-3.58 2.74,-1.58 4.92,-3.61 6.6,-6.07 1.68,-2.48 2.51,-5.37 2.51,-8.72 0,-5.64 -2.15,-10.09 -6.47,-13.34 -4.32,-3.26 -9.76,-6.04 -16.23,-8.33 -6.54,-2.28 -13.56,-4.59 -21.19,-6.9 -7.55,-2.25 -14.6,-5.36 -21.11,-9.23 -6.52,-3.89 -11.94,-8.98 -16.25,-15.32 -4.34,-6.35 -6.47,-14.72 -6.47,-25.11 0,-10.05 1.96,-18.85 5.94,-26.43 3.96,-7.6 9.23,-13.92 15.83,-19.03 6.62,-5.1 14.25,-8.93 22.9,-11.52 8.6,-2.55 17.53,-3.83 26.66,-3.83 10.61,0 20.84,1.5 30.7,4.49 9.83,3.01 18.76,8.03 26.68,15.07l-28.29 30.93z"/>
   <path class="fil1" d="M315.53 1528.57c-4.06,-4.91 -9.03,-8.73 -14.92,-11.36 -5.94,-2.66 -12.74,-3.99 -20.52,-3.99 -7.75,0 -14.94,1.51 -21.54,4.51 -6.62,2.99 -12.34,7.17 -17.18,12.54 -4.84,5.37 -8.6,11.79 -11.37,19.19 -2.73,7.39 -4.09,15.42 -4.09,24.02 0,8.83 1.36,16.88 4.09,24.21 2.77,7.32 6.48,13.64 11.24,19.03 4.76,5.37 10.33,9.56 16.81,12.57 6.42,2.96 13.34,4.46 20.71,4.46 8.48,0 15.95,-1.75 22.5,-5.26 6.47,-3.54 11.89,-8.48 16.1,-14.82l34.36 25.66c-7.93,11.1 -17.96,19.29 -30.12,24.55 -12.14,5.32 -24.66,7.96 -37.52,7.96 -14.62,0 -28.14,-2.28 -40.47,-6.87 -12.32,-4.59 -22.98,-11.13 -31.98,-19.69 -8.96,-8.55 -15.98,-18.91 -20.99,-31.05 -5.02,-12.16 -7.55,-25.73 -7.55,-40.73 0,-14.94 2.53,-28.54 7.55,-40.7 5.01,-12.14 12.04,-22.5 20.99,-31.03 9,-8.55 19.66,-15.15 31.98,-19.71 12.33,-4.56 25.86,-6.87 40.47,-6.87 5.25,0 10.76,0.5 16.53,1.46 5.72,0.95 11.31,2.51 16.91,4.61 5.55,2.13 10.88,4.94 15.97,8.47 5.12,3.51 9.7,7.86 13.74,12.95l-31.7 25.91z"/>
   <polygon class="fil1" points="400.08,1479.93 441.31,1479.93 441.31,1667.08 400.08,1667.08 "/>
   <polygon class="fil1" points="506.87,1479.93 634,1479.93 634,1518 548.1,1518 548.1,1552.89 629.26,1552.89 629.26,1590.96 548.1,1590.96 548.1,1629.03 638.79,1629.03 638.79,1667.08 506.87,1667.08 "/>
   <polygon class="fil1" points="698.24,1479.93 754.27,1479.93 833.84,1610 834.37,1610 834.37,1479.93 875.63,1479.93 875.63,1667.08 821.68,1667.08 740.02,1533.85 739.46,1533.85 739.46,1667.08 698.24,1667.08 "/>
   <polygon class="fil1" points="930.31,1629.02 1025.19,1516.41 933.72,1516.41 933.72,1479.92 1075.15,1479.92 1075.15,1516.41 982.1,1629.02 1078.33,1629.02 1078.33,1667.06 930.31,1667.06 "/>
   <polygon class="fil1" points="1134.63,1479.93 1261.76,1479.93 1261.76,1518 1175.86,1518 1175.86,1552.89 1256.99,1552.89 1256.99,1590.96 1175.86,1590.96 1175.86,1629.03 1266.5,1629.03 1266.5,1667.08 1134.63,1667.08 "/>
   <path class="fil1" d="M1430.63 1479.93l61.9 0c14.92,0 29.19,1.68 42.66,5.04 13.49,3.33 25.23,8.75 35.26,16.25 10.03,7.49 18.06,17.23 23.95,29.21 5.92,11.97 8.85,26.51 8.85,43.59 0,15.17 -2.89,28.49 -8.6,40.05 -5.72,11.53 -13.47,21.21 -23.13,29.06 -9.68,7.85 -20.89,13.8 -33.58,17.86 -12.69,4.04 -25.96,6.07 -39.88,6.07l-67.45 0 0 -187.15zm41.23 149.1l21.42 0c9.51,0 18.36,-0.97 26.56,-2.94 8.2,-1.91 15.27,-5.16 21.29,-9.63 5.96,-4.49 10.69,-10.41 14.17,-17.71 3.41,-7.32 5.12,-16.25 5.12,-26.86 0,-9.13 -1.71,-17.11 -5.12,-23.88 -3.48,-6.8 -8.1,-12.38 -13.92,-16.8 -5.79,-4.41 -12.64,-7.73 -20.49,-9.91 -7.85,-2.2 -16.05,-3.31 -24.71,-3.31l-24.33 0 0 111.03z"/>
   <polygon class="fil1" points="1657.19,1479.93 1698.42,1479.93 1698.42,1667.08 1657.19,1667.08 "/>
   <path class="fil1" d="M1867.05 1479.93l69.8 0c8.08,0 16.23,0.58 24.43,1.73 8.2,1.13 15.5,3.43 22.07,6.87 6.47,3.43 11.79,8.25 15.85,14.39 4.02,6.17 6.09,14.38 6.09,24.58 0,10.61 -2.96,19.36 -8.85,26.3 -5.89,6.97 -13.69,11.94 -23.43,14.95l0 0.53c6.19,0.87 11.79,2.58 16.81,5.17 5.01,2.53 9.33,5.79 12.94,9.75 3.59,3.96 6.42,8.58 8.3,13.87 1.96,5.29 2.96,10.93 2.96,16.93 0,9.86 -2.13,18.11 -6.37,24.73 -4.24,6.59 -9.68,11.91 -16.4,15.97 -6.68,4.04 -14.22,6.97 -22.6,8.7 -8.37,1.78 -16.7,2.66 -24.95,2.66l-76.65 0 0 -187.15zm41.23 74.81l29.87 0c3.19,0 6.3,-0.36 9.38,-1.05 3.06,-0.73 5.84,-1.88 8.3,-3.44 2.48,-1.58 4.44,-3.71 5.96,-6.34 1.48,-2.66 2.23,-5.79 2.23,-9.53 0,-3.86 -0.82,-7.07 -2.53,-9.63 -1.66,-2.56 -3.84,-4.54 -6.42,-5.97 -2.66,-1.38 -5.67,-2.41 -9.03,-3.04 -3.31,-0.6 -6.63,-0.92 -9.73,-0.92l-28.04 0 0 39.93zm0 77.42l36.99 0c3.19,0 6.37,-0.35 9.63,-1.05 3.31,-0.68 6.24,-1.91 8.85,-3.69 2.66,-1.78 4.84,-4.04 6.48,-6.87 1.73,-2.81 2.55,-6.25 2.55,-10.29 0,-4.44 -1.12,-8 -3.31,-10.71 -2.26,-2.76 -5.02,-4.81 -8.33,-6.24 -3.36,-1.41 -6.95,-2.36 -10.86,-2.89 -3.89,-0.53 -7.47,-0.8 -10.86,-0.8l-31.15 0 0 42.54z"/>
   <path class="fil1" d="M2126.36 1479.93l34.1 0 81.36 187.15 -46.5 0 -16.1 -39.66 -72.68 0 -15.65 39.66 -45.42 0 80.89 -187.15zm15.8 54.44l-22.7 58.16 45.73 0 -23.03 -58.16z"/>
   <path class="fil1" d="M2379.53 1525.65c-3.31,-4.22 -7.85,-7.35 -13.56,-9.38 -5.72,-2.01 -11.16,-3.04 -16.28,-3.04 -3.01,0 -6.09,0.35 -9.28,1.05 -3.11,0.7 -6.12,1.81 -8.96,3.31 -2.83,1.5 -5.14,3.48 -6.92,5.96 -1.71,2.43 -2.59,5.45 -2.59,8.96 0,5.67 2.13,9.98 6.32,12.94 4.24,3.01 9.56,5.6 15.97,7.67 6.45,2.13 13.34,4.27 20.77,6.35 7.38,2.13 14.35,5.14 20.77,9 6.45,3.87 11.74,9.09 16,15.61 4.19,6.52 6.32,15.22 6.32,26.16 0,10.39 -1.96,19.49 -5.79,27.21 -3.89,7.75 -9.15,14.2 -15.75,19.31 -6.63,5.12 -14.27,8.88 -23.03,11.36 -8.72,2.46 -17.93,3.69 -27.61,3.69 -12.14,0 -23.4,-1.83 -33.78,-5.55 -10.46,-3.68 -20.13,-9.68 -29.09,-17.96l29.32 -32.25c4.24,5.64 9.56,10 16,13.07 6.42,3.11 13.09,4.64 19.93,4.64 3.36,0 6.78,-0.38 10.21,-1.18 3.41,-0.8 6.47,-1.98 9.26,-3.58 2.71,-1.58 4.89,-3.61 6.6,-6.07 1.66,-2.48 2.48,-5.37 2.48,-8.72 0,-5.64 -2.1,-10.09 -6.42,-13.34 -4.37,-3.26 -9.8,-6.04 -16.28,-8.33 -6.57,-2.28 -13.59,-4.59 -21.14,-6.9 -7.59,-2.25 -14.62,-5.36 -21.16,-9.23 -6.5,-3.89 -11.92,-8.98 -16.22,-15.32 -4.37,-6.35 -6.5,-14.72 -6.5,-25.11 0,-10.05 2,-18.85 5.96,-26.43 3.94,-7.6 9.26,-13.92 15.88,-19.03 6.59,-5.1 14.19,-8.93 22.82,-11.52 8.6,-2.55 17.53,-3.83 26.73,-3.83 10.56,0 20.77,1.5 30.6,4.49 9.86,3.01 18.79,8.03 26.74,15.07l-28.32 30.93z"/>
   <polygon class="fil1" points="2466.79,1479.93 2593.92,1479.93 2593.92,1518 2508.02,1518 2508.02,1552.89 2589.15,1552.89 2589.15,1590.96 2508.02,1590.96 2508.02,1629.03 2598.66,1629.03 2598.66,1667.08 2466.79,1667.08 "/>
   <polygon class="fil1" points="2.27,1774.96 129.38,1774.96 129.38,1813.03 43.47,1813.03 43.47,1847.91 124.66,1847.91 124.66,1885.99 43.47,1885.99 43.47,1924.06 134.17,1924.06 134.17,1962.1 2.27,1962.1 "/>
   <path class="fil1" d="M359.9 1774.96l34.06 0 81.43 187.15 -46.52 0 -16.1 -39.65 -72.68 0 -15.65 39.65 -45.42 0 80.88 -187.15zm15.85 54.45l-22.74 58.16 45.72 0 -22.98 -58.16z"/>
   <path class="fil1" d="M520.59 1774.96l69.52 0c9.68,0 18.83,0.88 27.51,2.66 8.6,1.76 16.15,4.81 22.59,9.11 6.43,4.31 11.49,10.15 15.3,17.43 3.82,7.32 5.69,16.52 5.69,27.66 0,10.91 -1.78,20.08 -5.32,27.48 -3.51,7.37 -8.35,13.29 -14.5,17.68 -6.19,4.41 -13.49,7.53 -21.97,9.41 -8.42,1.86 -17.61,2.76 -27.49,2.76l-30.12 0 0 72.96 -41.23 0 0 -187.15zm41.23 79.31l27.46 0c3.73,0 7.29,-0.35 10.73,-1.08 3.44,-0.68 6.5,-1.88 9.26,-3.53 2.74,-1.68 4.92,-3.99 6.6,-6.87 1.68,-2.91 2.51,-6.57 2.51,-10.96 0,-4.79 -1.08,-8.6 -3.31,-11.52 -2.18,-2.93 -5.01,-5.16 -8.42,-6.77 -3.46,-1.56 -7.3,-2.58 -11.51,-3.04 -4.24,-0.4 -8.28,-0.65 -12.14,-0.65l-21.16 0 0 44.42z"/>
   <path class="fil1" d="M713.54 1774.96l69.5 0c9.68,0 18.86,0.88 27.48,2.66 8.63,1.76 16.18,4.81 22.6,9.11 6.44,4.31 11.53,10.15 15.35,17.43 3.78,7.32 5.67,16.52 5.67,27.66 0,10.91 -1.78,20.08 -5.29,27.48 -3.51,7.37 -8.35,13.29 -14.55,17.68 -6.15,4.41 -13.44,7.53 -21.95,9.41 -8.43,1.86 -17.58,2.76 -27.46,2.76l-30.12 0 0 72.96 -41.23 0 0 -187.15zm41.23 79.31l27.46 0c3.68,0 7.29,-0.35 10.71,-1.08 3.44,-0.68 6.52,-1.88 9.28,-3.53 2.71,-1.68 4.92,-3.99 6.6,-6.87 1.66,-2.91 2.51,-6.57 2.51,-10.96 0,-4.79 -1.08,-8.6 -3.31,-11.52 -2.2,-2.93 -5.04,-5.16 -8.45,-6.77 -3.44,-1.56 -7.25,-2.58 -11.52,-3.04 -4.21,-0.4 -8.25,-0.65 -12.16,-0.65l-21.11 0 0 44.42z"/>
   <polygon class="fil1" points="908.07,1774.96 949.3,1774.96 949.3,1924.06 1025.72,1924.06 1025.72,1962.1 908.07,1962.1 "/>
   <polygon class="fil1" points="1074.34,1774.95 1115.57,1774.95 1115.57,1962.1 1074.34,1962.1 "/>
   <path class="fil1" d="M1301.89 1823.6c-4.07,-4.91 -9.03,-8.72 -14.92,-11.36 -5.89,-2.66 -12.74,-3.99 -20.47,-3.99 -7.8,0 -14.92,1.51 -21.54,4.51 -6.6,2.99 -12.34,7.17 -17.23,12.54 -4.84,5.37 -8.6,11.79 -11.33,19.19 -2.76,7.4 -4.12,15.43 -4.12,24.03 0,8.82 1.36,16.88 4.12,24.2 2.73,7.32 6.49,13.64 11.21,19.03 4.78,5.37 10.38,9.56 16.83,12.57 6.42,2.96 13.32,4.46 20.69,4.46 8.5,0 16,-1.76 22.5,-5.27 6.54,-3.53 11.91,-8.47 16.1,-14.82l34.39 25.66c-7.95,11.11 -17.98,19.29 -30.14,24.56 -12.14,5.32 -24.66,7.95 -37.52,7.95 -14.62,0 -28.09,-2.28 -40.48,-6.87 -12.31,-4.59 -22.95,-11.13 -31.98,-19.69 -8.95,-8.55 -15.97,-18.91 -20.99,-31.05 -5.02,-12.16 -7.5,-25.74 -7.5,-40.73 0,-14.95 2.48,-28.54 7.5,-40.71 5.01,-12.14 12.04,-22.49 20.99,-31.03 9.03,-8.55 19.66,-15.15 31.98,-19.71 12.39,-4.56 25.86,-6.87 40.48,-6.87 5.32,0 10.81,0.5 16.53,1.45 5.72,0.95 11.39,2.51 16.93,4.61 5.55,2.13 10.86,4.94 16,8.48 5.06,3.51 9.65,7.85 13.74,12.94l-31.75 25.91z"/>
   <path class="fil1" d="M1448.63 1774.96l34.1 0 81.36 187.15 -46.5 0 -16.1 -39.65 -72.68 0 -15.65 39.65 -45.42 0 80.89 -187.15zm15.8 54.45l-22.7 58.16 45.73 0 -23.03 -58.16z"/>
   <polygon class="fil1" points="1621.2,1811.45 1567.8,1811.45 1567.8,1774.96 1715.83,1774.96 1715.83,1811.45 1662.44,1811.45 1662.44,1962.1 1621.2,1962.1 "/>
   <polygon class="fil1" points="1764.75,1774.96 1891.88,1774.96 1891.88,1813.03 1805.98,1813.03 1805.98,1847.91 1887.11,1847.91 1887.11,1885.99 1805.98,1885.99 1805.98,1924.06 1896.62,1924.06 1896.62,1962.1 1764.75,1962.1 "/>
   <path class="fil0" d="M0.7 1184.9l61.82 0c15,0 29.22,1.68 42.74,5.04 13.44,3.33 25.2,8.75 35.26,16.25 10.03,7.5 18.01,17.23 23.9,29.22 5.89,11.97 8.85,26.51 8.85,43.59 0,15.17 -2.84,28.49 -8.55,40.05 -5.77,11.54 -13.47,21.21 -23.13,29.07 -9.75,7.85 -20.89,13.79 -33.58,17.85 -12.69,4.04 -26.01,6.07 -39.93,6.07l-67.4 0 0 -187.15zm41.23 149.1l21.39 0c9.53,0 18.38,-0.97 26.59,-2.93 8.2,-1.91 15.27,-5.17 21.26,-9.63 5.99,-4.49 10.71,-10.38 14.12,-17.71 3.44,-7.32 5.17,-16.25 5.17,-26.86 0,-9.13 -1.73,-17.11 -5.17,-23.87 -3.41,-6.8 -8.05,-12.39 -13.84,-16.81 -5.84,-4.41 -12.66,-7.72 -20.49,-9.9 -7.85,-2.21 -16.1,-3.31 -24.71,-3.31l-24.33 0 0 111.03z"/>
   <polygon class="fil0" points="227.2,1184.91 268.43,1184.91 268.43,1372.06 227.2,1372.06 "/>
   <path class="fil0" d="M332.4 1184.9l69.5 0c9.7,0 18.88,0.87 27.48,2.66 8.65,1.76 16.18,4.81 22.6,9.1 6.44,4.32 11.56,10.16 15.35,17.43 3.78,7.32 5.69,16.53 5.69,27.66 0,10.91 -1.78,20.09 -5.3,27.49 -3.53,7.37 -8.37,13.29 -14.52,17.7 -6.17,4.39 -13.49,7.5 -21.95,9.38 -8.48,1.86 -17.63,2.76 -27.49,2.76l-30.14 0 0 72.96 -41.23 0 0 -187.15zm41.23 79.31l27.51 0c3.69,0 7.25,-0.36 10.66,-1.08 3.46,-0.68 6.58,-1.88 9.28,-3.53 2.71,-1.68 4.94,-3.99 6.59,-6.87 1.68,-2.91 2.54,-6.57 2.54,-10.96 0,-4.78 -1.11,-8.6 -3.28,-11.51 -2.26,-2.94 -5.05,-5.17 -8.5,-6.75 -3.44,-1.58 -7.25,-2.61 -11.49,-3.06 -4.22,-0.41 -8.28,-0.65 -12.16,-0.65l-21.14 0 0 44.42z"/>
   <path class="fil0" d="M567.4 1184.9l34.08 0 81.41 187.15 -46.52 0 -16.1 -39.65 -72.68 0 -15.65 39.65 -45.42 0 80.89 -187.15zm15.85 54.45l-22.75 58.16 45.73 0 -22.98 -58.16z"/>
   <path class="fil0" d="M728.09 1184.9l72.43 0c9.48,0 18.53,0.95 27.06,2.78 8.55,1.86 16.05,4.94 22.5,9.26 6.42,4.32 11.56,10.16 15.32,17.43 3.79,7.32 5.67,16.43 5.67,27.39 0,13.22 -3.41,24.46 -10.29,33.68 -6.87,9.26 -16.91,15.1 -30.12,17.58l47.55 79.03 -49.41 0 -39.12 -74.81 -20.37 0 0 74.81 -41.23 0 0 -187.15zm41.23 77.47l24.33 0c3.69,0 7.63,-0.15 11.77,-0.43 4.14,-0.25 7.88,-1.05 11.21,-2.35 3.36,-1.33 6.14,-3.39 8.35,-6.22 2.21,-2.84 3.31,-6.8 3.31,-11.89 0,-4.79 -0.97,-8.55 -2.94,-11.39 -1.96,-2.81 -4.39,-4.97 -7.37,-6.47 -3.01,-1.51 -6.42,-2.51 -10.33,-3.04 -3.89,-0.53 -7.68,-0.8 -11.36,-0.8l-26.97 0 0 42.59z"/>
   <polygon class="fil0" points="957.27,1221.39 903.88,1221.39 903.88,1184.9 1051.9,1184.9 1051.9,1221.39 998.51,1221.39 998.51,1372.04 957.27,1372.04 "/>
   <polygon class="fil0" points="1098.65,1184.91 1139.88,1184.91 1139.88,1372.06 1098.65,1372.06 "/>
   <polygon class="fil0" points="1203.89,1184.9 1266.26,1184.9 1309.33,1307.04 1309.86,1307.04 1353.22,1184.9 1415.35,1184.9 1415.35,1372.04 1374.11,1372.04 1374.11,1228.53 1373.59,1228.53 1324.43,1372.04 1292.98,1372.04 1245.68,1228.53 1245.13,1228.53 1245.13,1372.04 1203.89,1372.04 "/>
   <polygon class="fil0" points="1481.43,1184.9 1608.58,1184.9 1608.58,1222.97 1522.66,1222.97 1522.66,1257.85 1603.8,1257.85 1603.8,1295.92 1522.66,1295.92 1522.66,1334 1613.3,1334 1613.3,1372.04 1481.43,1372.04 "/>
   <polygon class="fil0" points="1672.77,1184.9 1728.82,1184.9 1808.4,1314.96 1808.93,1314.96 1808.93,1184.9 1850.11,1184.9 1850.11,1372.04 1796.19,1372.04 1714.55,1238.82 1714,1238.82 1714,1372.04 1672.77,1372.04 "/>
   <polygon class="fil0" points="1950.84,1221.39 1897.44,1221.39 1897.44,1184.9 2045.46,1184.9 2045.46,1221.39 1992.06,1221.39 1992.06,1372.04 1950.84,1372.04 "/>
   <path class="fil0" d="M2082.76 1278.47c0,-14.95 2.48,-28.57 7.5,-40.71 5.01,-12.16 12.04,-22.52 20.99,-31.05 9.03,-8.55 19.66,-15.12 31.98,-19.69 12.39,-4.59 25.86,-6.87 40.48,-6.87 14.65,0 28.09,2.28 40.4,6.87 12.34,4.56 23.03,11.13 31.98,19.69 9.03,8.52 16,18.88 21.07,31.05 5.01,12.14 7.5,25.76 7.5,40.71 0,15 -2.49,28.57 -7.5,40.71 -5.07,12.16 -12.04,22.52 -21.07,31.07 -8.95,8.55 -19.64,15.1 -31.98,19.66 -12.31,4.61 -25.76,6.87 -40.4,6.87 -14.62,0 -28.09,-2.26 -40.48,-6.87 -12.31,-4.56 -22.95,-11.11 -31.98,-19.66 -8.95,-8.55 -15.97,-18.9 -20.99,-31.07 -5.02,-12.14 -7.5,-25.71 -7.5,-40.71zm42.78 0c0,8.83 1.36,16.88 4.12,24.2 2.71,7.3 6.62,13.64 11.74,19.01 5.14,5.37 11.28,9.56 18.36,12.57 7.15,2.99 15.15,4.49 23.95,4.49 8.8,0 16.76,-1.5 23.9,-4.49 7.12,-3.01 13.27,-7.2 18.41,-12.57 5.06,-5.37 9.03,-11.71 11.74,-19.01 2.71,-7.32 4.14,-15.37 4.14,-24.2 0,-8.6 -1.43,-16.63 -4.14,-24.05 -2.71,-7.4 -6.68,-13.79 -11.74,-19.16 -5.15,-5.37 -11.29,-9.56 -18.41,-12.54 -7.14,-3.01 -15.1,-4.51 -23.9,-4.51 -8.8,0 -16.8,1.5 -23.95,4.51 -7.07,2.99 -13.22,7.17 -18.36,12.54 -5.12,5.37 -9.03,11.76 -11.74,19.16 -2.76,7.42 -4.12,15.45 -4.12,24.05z"/>
   <path class="fil0" d="M2443.77 1184.9l61.9 0c14.92,0 29.19,1.68 42.66,5.04 13.49,3.33 25.23,8.75 35.26,16.25 10.03,7.5 18.06,17.23 23.95,29.22 5.92,11.97 8.85,26.51 8.85,43.59 0,15.17 -2.89,28.49 -8.6,40.05 -5.72,11.54 -13.47,21.21 -23.12,29.07 -9.68,7.85 -20.89,13.79 -33.58,17.85 -12.69,4.04 -25.96,6.07 -39.88,6.07l-67.45 0 0 -187.15zm41.23 149.1l21.42 0c9.51,0 18.36,-0.97 26.56,-2.93 8.2,-1.91 15.27,-5.17 21.29,-9.63 5.96,-4.49 10.69,-10.38 14.17,-17.71 3.41,-7.32 5.12,-16.25 5.12,-26.86 0,-9.13 -1.71,-17.11 -5.12,-23.87 -3.48,-6.8 -8.1,-12.39 -13.92,-16.81 -5.79,-4.41 -12.64,-7.72 -20.49,-9.9 -7.85,-2.21 -16.05,-3.31 -24.71,-3.31l-24.33 0 0 111.03z"/>
   <polygon class="fil0" points="2670.34,1184.91 2711.56,1184.91 2711.56,1372.06 2670.34,1372.06 "/>
  </g>
 </g>
</svg>
