<?xml version="1.0" encoding="UTF-8"?>
<!DOCTYPE svg PUBLIC "-//W3C//DTD SVG 1.1//EN" "http://www.w3.org/Graphics/SVG/1.1/DTD/svg11.dtd">
<!-- Creator: CorelDRAW (Evaluation Version) -->
<svg xmlns="http://www.w3.org/2000/svg" xml:space="preserve" width="49.7978mm" height="27.6658mm" version="1.1" style="shape-rendering:geometricPrecision; text-rendering:geometricPrecision; image-rendering:optimizeQuality; fill-rule:evenodd; clip-rule:evenodd"
viewBox="0 0 3537.8 1965.47"
 xmlns:xlink="http://www.w3.org/1999/xlink"
 xmlns:xodm="http://www.corel.com/coreldraw/odm/2003">
 <defs>
  <style type="text/css">
   <![CDATA[
    .fil0 {fill:black;fill-rule:nonzero}
   ]]>
  </style>
 </defs>
 <g id="Layer_x0020_1">
  <metadata id="CorelCorpID_0Corel-Layer"/>
  <g id="_1913838121968">
   <path class="fil0" d="M589.73 772.87l-154.14 0 0 -71.48 -2.26 0c-6.69,9.7 -15.44,19.52 -26.24,29.6 -10.78,10.05 -23.46,19.17 -37.97,27.34 -14.51,8.23 -30.53,14.89 -48.02,20.11 -17.49,5.24 -35.56,7.84 -54.18,7.84 -40.2,0 -76.69,-6.89 -109.45,-20.65 -32.78,-13.78 -60.88,-33.13 -84.34,-58.07 -23.43,-24.96 -41.5,-54.53 -54.16,-88.82 -12.68,-34.24 -18.98,-71.85 -18.98,-112.81 0,-37.97 5.74,-74.28 17.29,-108.9 11.53,-34.63 27.92,-65.34 49.15,-92.13 21.23,-26.82 47.07,-48.22 77.62,-64.24 30.53,-15.99 65.13,-24.01 103.88,-24.01 34.99,0 67.57,5.39 97.72,16.19 30.15,10.83 54.92,29.24 74.29,55.29l2.2 0 0 -288.12 167.57 0 0 772.86zm-154.14 -271.41c0,-40.95 -11.76,-74.08 -35.19,-99.42 -23.46,-25.29 -56.42,-37.97 -98.85,-37.97 -42.43,0 -75.38,12.68 -98.82,37.97 -23.48,25.33 -35.21,58.47 -35.21,99.42 0,40.98 11.73,74.11 35.21,99.4 23.44,25.31 56.39,37.97 98.82,37.97 42.43,0 75.39,-12.66 98.85,-37.97 23.43,-25.28 35.19,-58.42 35.19,-99.4z"/>
   <path class="fil0" d="M758.34 97.19c0,-26.82 9.5,-49.7 28.5,-68.72 19,-18.98 41.88,-28.47 68.7,-28.47 26.79,0 49.7,9.5 68.7,28.47 18.97,19.02 28.47,41.9 28.47,68.72 0,26.79 -9.5,49.69 -28.47,68.69 -19,18.98 -41.91,28.47 -68.7,28.47 -26.82,0 -49.7,-9.5 -68.7,-28.47 -19,-19 -28.5,-41.9 -28.5,-68.69zm13.41 132.86l167.51 0 0 542.83 -167.51 0 0 -542.83z"/>
   <path class="fil0" d="M1094.52 97.19c0,-26.82 9.5,-49.7 28.47,-68.72 19,-18.98 41.9,-28.47 68.7,-28.47 26.81,0 49.69,9.5 68.72,28.47 18.97,19.02 28.47,41.9 28.47,68.72 0,26.79 -9.5,49.69 -28.47,68.69 -19.03,18.98 -41.91,28.47 -68.72,28.47 -26.8,0 -49.7,-9.5 -68.7,-28.47 -18.98,-19 -28.47,-41.9 -28.47,-68.69zm13.41 132.86l167.51 0 0 542.83 -167.51 0 0 -542.83z"/>
   <path class="fil0" d="M1441.87 230.04l160.83 0 0 73.74 2.25 0c5.19,-10.43 12.63,-20.85 22.31,-31.28 9.68,-10.42 21.23,-19.72 34.63,-27.92 13.41,-8.19 28.67,-14.88 45.79,-20.1 17.11,-5.19 35.76,-7.82 55.86,-7.82 42.46,0 76.66,6.51 102.76,19.55 26.04,13.03 46.34,31.1 60.85,54.13 14.54,23.13 24.39,50.28 29.6,81.55 5.21,31.28 7.84,65.17 7.84,101.66l0 299.32 -167.57 0 0 -265.81c0,-15.67 -0.53,-31.83 -1.66,-48.57 -1.1,-16.79 -4.48,-32.23 -10.05,-46.39 -5.59,-14.11 -14.14,-25.67 -25.72,-34.61 -11.55,-8.92 -28.12,-13.41 -49.69,-13.41 -21.6,0 -39.07,3.94 -52.51,11.73 -13.36,7.81 -23.64,18.24 -30.68,31.27 -7.09,13.04 -11.73,27.75 -13.96,44.11 -2.26,16.39 -3.38,33.51 -3.38,51.38l0 270.3 -167.52 0 0 -542.83z"/>
   <path class="fil0" d="M2698.39 727.08c0,102.74 -25.89,180.73 -77.62,233.99 -51.76,53.23 -130.5,79.85 -236.24,79.85 -48.42,0 -96.04,-5.39 -142.95,-16.19 -46.92,-10.8 -90.1,-31.83 -129.55,-63.11l92.68 -138.49c26.07,21.58 53.43,38.7 82.1,51.38 28.64,12.65 60.12,19 94.38,19 51.38,0 89.15,-12.48 113.34,-37.42 24.21,-24.96 36.34,-56.82 36.34,-95.52l0 -52.5 -2.25 0c-19.37,26.09 -43.39,44.51 -72.06,55.31 -28.64,10.78 -55.63,16.19 -80.98,16.19 -40.2,0 -76.69,-6.87 -109.45,-20.68 -32.76,-13.76 -60.88,-33.11 -84.31,-58.07 -23.46,-24.94 -41.53,-54.53 -54.18,-88.8 -12.68,-34.21 -18.98,-71.82 -18.98,-112.8 0,-35.74 5.74,-70.73 17.29,-104.99 11.56,-34.24 27.95,-64.41 49.15,-90.47 21.23,-26.04 47.09,-47.07 77.64,-63.11 30.51,-15.96 65.17,-23.98 103.87,-23.98 23.81,0 45.59,2.63 65.36,7.79 19.7,5.24 37.39,11.93 53.03,20.13 15.64,8.19 29.02,17.29 40.2,27.34 11.18,10.05 20.11,19.93 26.82,29.6l2.2 0 0 -71.48 154.16 0 0 497.04zm-422.2 -228.97c0,17.87 3.36,34.81 10.05,50.8 6.71,16.04 16.21,30.15 28.5,42.46 12.28,12.28 26.44,22.16 42.43,29.6 16.01,7.44 33.71,11.15 53.06,11.15 18.63,0 36.12,-3.72 52.51,-11.15 16.37,-7.45 30.7,-17.32 42.98,-29.6 12.3,-12.3 21.78,-26.41 28.47,-42.46 6.74,-15.98 10.05,-32.93 10.05,-50.8 0,-17.9 -3.3,-34.82 -10.05,-50.8 -6.69,-16.01 -16.17,-30.18 -28.47,-42.46 -12.28,-12.3 -26.61,-22.16 -42.98,-29.6 -16.39,-7.44 -33.88,-11.18 -52.51,-11.18 -19.35,0 -37.04,3.74 -53.06,11.18 -15.99,7.45 -30.15,17.3 -42.43,29.6 -12.28,12.28 -21.78,26.44 -28.5,42.46 -6.69,15.98 -10.05,32.91 -10.05,50.8z"/>
   <polygon class="fil0" points="0.01,1965.47 3537.8,1965.47 3537.8,1768.93 0.01,1768.93 "/>
   <polygon class="fil0" points="2063.73,1670.63 3537.8,1670.63 3537.8,1474.1 2063.73,1474.1 "/>
   <polygon class="fil0" points="2849.89,1375.82 3537.8,1375.82 3537.8,1179.28 2849.89,1179.28 "/>
   <polygon class="fil0" points="2751.61,1081.02 3537.8,1081.02 3537.8,884.47 2751.61,884.47 "/>
   <polygon class="fil0" points="1106.87,1081.02 2063.7,1081.02 2063.7,884.47 1106.87,884.47 "/>
   <polygon class="fil0" points="0.5,1081.02 938.22,1081.02 938.22,884.47 0.5,884.47 "/>
   <polygon class="fil0" points="0.01,1478.86 41.21,1478.86 41.21,1665.87 0.01,1665.87 "/>
   <polygon class="fil0" points="105.12,1478.87 161.11,1478.87 240.61,1608.84 241.14,1608.84 241.14,1478.87 282.34,1478.87 282.34,1665.89 228.46,1665.89 146.88,1532.75 146.33,1532.75 146.33,1665.89 105.12,1665.89 "/>
   <path class="fil0" d="M516.12 1652.67c-12.16,6.34 -24.87,10.91 -38.07,13.73 -13.21,2.81 -26.64,4.21 -40.37,4.21 -14.61,0 -28.1,-2.25 -40.43,-6.87 -12.3,-4.56 -22.98,-11.1 -31.96,-19.64 -8.97,-8.55 -15.98,-18.9 -21,-31.05 -5.01,-12.13 -7.52,-25.69 -7.52,-40.68 0,-14.93 2.51,-28.55 7.52,-40.67 5.02,-12.16 12.03,-22.51 21,-31.03 8.97,-8.55 19.65,-15.11 31.96,-19.67 12.33,-4.59 25.82,-6.87 40.43,-6.87 14.93,0 28.74,1.78 41.33,5.41 12.58,3.61 23.64,9.83 33.13,18.6l-29.02 31.73c-5.67,-5.84 -12.01,-10.22 -19.03,-13.21 -7.04,-3.01 -15.86,-4.51 -26.41,-4.51 -8.82,0 -16.77,1.51 -23.91,4.51 -7.14,2.98 -13.26,7.17 -18.37,12.53 -5.09,5.36 -9.02,11.75 -11.75,19.15 -2.71,7.42 -4.08,15.44 -4.08,24.03 0,8.82 1.38,16.87 4.08,24.16 2.73,7.32 6.66,13.66 11.75,19.02 5.12,5.36 11.23,9.56 18.37,12.56 7.15,2.98 15.09,4.48 23.91,4.48 8.97,0 16.72,-1 23.23,-3.03 6.51,-2.03 11.7,-4.11 15.59,-6.22l0 -30.38 -33.53 0 0 -38.02 73.16 0 0 97.72z"/>
   <polygon class="fil0" points="580.3,1478.87 707.34,1478.87 707.34,1516.94 621.5,1516.94 621.5,1551.78 702.6,1551.78 702.6,1589.82 621.5,1589.82 621.5,1627.86 712.1,1627.86 712.1,1665.89 580.3,1665.89 "/>
   <path class="fil0" d="M940.83 1652.67c-12.16,6.34 -24.82,10.91 -38.02,13.73 -13.21,2.81 -26.69,4.21 -40.42,4.21 -14.61,0 -28.1,-2.25 -40.43,-6.87 -12.3,-4.56 -22.95,-11.1 -31.96,-19.64 -8.97,-8.55 -15.96,-18.9 -20.97,-31.05 -5.02,-12.13 -7.54,-25.69 -7.54,-40.68 0,-14.93 2.53,-28.55 7.54,-40.67 5.01,-12.16 12.01,-22.51 20.97,-31.03 9,-8.55 19.65,-15.11 31.96,-19.67 12.33,-4.59 25.82,-6.87 40.43,-6.87 14.98,0 28.74,1.78 41.33,5.41 12.58,3.61 23.64,9.83 33.16,18.6l-29.07 31.73c-5.61,-5.84 -11.96,-10.22 -19,-13.21 -7.04,-3.01 -15.84,-4.51 -26.41,-4.51 -8.82,0 -16.77,1.51 -23.91,4.51 -7.14,2.98 -13.23,7.17 -18.34,12.53 -5.12,5.36 -9.05,11.75 -11.76,19.15 -2.73,7.42 -4.08,15.44 -4.08,24.03 0,8.82 1.36,16.87 4.08,24.16 2.71,7.32 6.64,13.66 11.76,19.02 5.12,5.36 11.2,9.56 18.34,12.56 7.15,2.98 15.09,4.48 23.91,4.48 8.99,0 16.74,-1 23.25,-3.03 6.52,-2.03 11.71,-4.11 15.57,-6.22l0 -30.38 -33.53 0 0 -38.02 73.16 0 0 97.72z"/>
   <polygon class="fil0" points="1003.43,1478.87 1059.45,1478.87 1138.94,1608.84 1139.47,1608.84 1139.47,1478.87 1180.65,1478.87 1180.65,1665.89 1126.77,1665.89 1045.19,1532.75 1044.63,1532.75 1044.63,1665.89 1003.43,1665.89 "/>
   <polygon class="fil0" points="1246.7,1478.87 1373.76,1478.87 1373.76,1516.94 1287.89,1516.94 1287.89,1551.78 1368.98,1551.78 1368.98,1589.82 1287.89,1589.82 1287.89,1627.86 1378.5,1627.86 1378.5,1665.89 1246.7,1665.89 "/>
   <path class="fil0" d="M1437.92 1478.87l72.38 0c9.53,0 18.52,0.95 27.1,2.78 8.5,1.85 15.98,4.94 22.43,9.25 6.42,4.31 11.53,10.14 15.32,17.41 3.78,7.32 5.66,16.42 5.66,27.37 0,13.21 -3.41,24.43 -10.28,33.66 -6.89,9.24 -16.89,15.08 -30.09,17.57l47.51 78.97 -49.37 0 -39.1 -74.77 -20.35 0 0 74.77 -41.21 0 0 -187.02zm41.21 77.42l24.31 0c3.71,0 7.62,-0.16 11.75,-0.43 4.13,-0.26 7.87,-1.06 11.23,-2.36 3.33,-1.33 6.11,-3.38 8.32,-6.22 2.2,-2.83 3.28,-6.79 3.28,-11.88 0,-4.79 -0.95,-8.55 -2.91,-11.38 -1.9,-2.81 -4.39,-4.96 -7.37,-6.46 -3.01,-1.5 -6.47,-2.51 -10.33,-3.03 -3.86,-0.53 -7.67,-0.8 -11.35,-0.8l-26.94 0 0 42.56z"/>
   <polygon class="fil0" points="1634.95,1478.86 1676.16,1478.86 1676.16,1665.87 1634.95,1665.87 "/>
   <path class="fil0" d="M1801.64 1478.87l34.09 0 81.32 187.02 -46.49 0 -16.09 -39.63 -72.66 0 -15.59 39.63 -45.41 0 80.83 -187.02zm15.84 54.41l-22.71 58.12 45.69 0 -22.98 -58.12z"/>
   <path class="fil0" d="M-0 1184.05l61.83 0c14.94,0 29.17,1.68 42.65,5.04 13.46,3.33 25.19,8.75 35.24,16.24 10.03,7.5 18,17.22 23.91,29.2 5.89,11.96 8.84,26.49 8.84,43.56 0,15.17 -2.86,28.47 -8.57,40.03 -5.77,11.53 -13.46,21.21 -23.11,29.05 -9.7,7.84 -20.88,13.78 -33.56,17.85 -12.68,4.04 -25.99,6.06 -39.87,6.06l-67.37 0 0 -187.01zm41.21 149l21.38 0c9.52,0 18.37,-0.98 26.56,-2.93 8.2,-1.9 15.27,-5.16 21.26,-9.65 5.99,-4.46 10.7,-10.38 14.14,-17.67 3.43,-7.32 5.14,-16.24 5.14,-26.85 0,-9.12 -1.71,-17.09 -5.14,-23.86 -3.44,-6.79 -8.07,-12.38 -13.86,-16.79 -5.82,-4.41 -12.66,-7.72 -20.47,-9.9 -7.85,-2.21 -16.07,-3.31 -24.69,-3.31l-24.31 0 0 110.96z"/>
   <polygon class="fil0" points="226.34,1184.05 267.55,1184.05 267.55,1371.06 226.34,1371.06 "/>
   <path class="fil0" d="M331.47 1184.05l69.47 0c9.67,0 18.85,0.87 27.49,2.66 8.6,1.75 16.14,4.81 22.58,9.1 6.42,4.31 11.5,10.14 15.29,17.41 3.81,7.32 5.69,16.52 5.69,27.64 0,10.91 -1.78,20.08 -5.29,27.47 -3.54,7.37 -8.38,13.29 -14.51,17.67 -6.17,4.41 -13.48,7.52 -21.95,9.4 -8.43,1.85 -17.6,2.76 -27.44,2.76l-30.13 0 0 72.9 -41.2 0 0 -187.01zm41.2 79.25l27.49 0c3.69,0 7.25,-0.38 10.68,-1.08 3.43,-0.67 6.51,-1.88 9.25,-3.53 2.73,-1.68 4.94,-3.99 6.59,-6.87 1.68,-2.91 2.53,-6.56 2.53,-10.95 0,-4.78 -1.1,-8.6 -3.28,-11.5 -2.23,-2.93 -5.07,-5.16 -8.48,-6.76 -3.45,-1.56 -7.27,-2.59 -11.5,-3.03 -4.21,-0.4 -8.27,-0.65 -12.13,-0.65l-21.16 0 0 44.39z"/>
   <path class="fil0" d="M566.29 1184.05l34.06 0 81.35 187.01 -46.49 0 -16.09 -39.62 -72.66 0 -15.59 39.62 -45.41 0 80.83 -187.01zm15.84 54.41l-22.71 58.12 45.69 0 -22.98 -58.12z"/>
   <path class="fil0" d="M726.87 1184.05l72.38 0c9.5,0 18.52,0.95 27.1,2.78 8.5,1.85 15.98,4.94 22.43,9.24 6.42,4.31 11.55,10.15 15.32,17.42 3.78,7.32 5.68,16.42 5.68,27.37 0,13.19 -3.43,24.44 -10.3,33.66 -6.89,9.25 -16.89,15.09 -30.09,17.57l47.54 78.97 -49.4 0 -39.1 -74.76 -20.35 0 0 74.76 -41.21 0 0 -187.01zm41.21 77.42l24.31 0c3.71,0 7.62,-0.15 11.75,-0.43 4.11,-0.25 7.87,-1.05 11.23,-2.35 3.33,-1.33 6.09,-3.39 8.32,-6.22 2.2,-2.83 3.28,-6.79 3.28,-11.88 0,-4.79 -0.95,-8.55 -2.88,-11.38 -1.95,-2.81 -4.41,-4.96 -7.39,-6.46 -3.01,-1.51 -6.42,-2.51 -10.33,-3.03 -3.86,-0.53 -7.67,-0.8 -11.35,-0.8l-26.94 0 0 42.55z"/>
   <polygon class="fil0" points="955.88,1220.52 902.53,1220.52 902.53,1184.05 1050.45,1184.05 1050.45,1220.52 997.09,1220.52 997.09,1371.06 955.88,1371.06 "/>
   <polygon class="fil0" points="1097.16,1184.05 1138.37,1184.05 1138.37,1371.06 1097.16,1371.06 "/>
   <polygon class="fil0" points="1202.32,1184.05 1264.68,1184.05 1307.72,1306.1 1308.24,1306.1 1351.57,1184.05 1413.63,1184.05 1413.63,1371.06 1372.43,1371.06 1372.43,1227.66 1371.9,1227.66 1322.78,1371.06 1291.35,1371.06 1244.08,1227.66 1243.53,1227.66 1243.53,1371.06 1202.32,1371.06 "/>
   <polygon class="fil0" points="1479.67,1184.05 1606.71,1184.05 1606.71,1222.09 1520.87,1222.09 1520.87,1256.95 1601.95,1256.95 1601.95,1295 1520.87,1295 1520.87,1333.05 1611.47,1333.05 1611.47,1371.06 1479.67,1371.06 "/>
   <polygon class="fil0" points="1670.9,1184.05 1726.91,1184.05 1806.41,1314.02 1806.94,1314.02 1806.94,1184.05 1848.11,1184.05 1848.11,1371.06 1794.23,1371.06 1712.65,1237.94 1712.1,1237.94 1712.1,1371.06 1670.9,1371.06 "/>
   <polygon class="fil0" points="1948.77,1220.52 1895.41,1220.52 1895.41,1184.05 2043.3,1184.05 2043.3,1220.52 1989.94,1220.52 1989.94,1371.06 1948.77,1371.06 "/>
   <path class="fil0" d="M2080.57 1277.56c0,-14.94 2.51,-28.55 7.52,-40.68 5.02,-12.16 12.03,-22.51 20.98,-31.02 8.99,-8.55 19.65,-15.11 31.96,-19.67 12.35,-4.59 25.81,-6.87 40.42,-6.87 14.61,0 28.1,2.28 40.42,6.87 12.31,4.56 22.98,11.13 31.93,19.67 8.99,8.52 15.99,18.87 21.03,31.02 5.01,12.13 7.52,25.74 7.52,40.68 0,14.98 -2.51,28.55 -7.52,40.67 -5.04,12.16 -12.03,22.51 -21.03,31.05 -8.95,8.55 -19.62,15.09 -31.93,19.65 -12.33,4.61 -25.81,6.87 -40.42,6.87 -14.61,0 -28.07,-2.26 -40.42,-6.87 -12.3,-4.56 -22.96,-11.1 -31.96,-19.65 -8.94,-8.55 -15.96,-18.9 -20.98,-31.05 -5.01,-12.13 -7.52,-25.69 -7.52,-40.67zm42.78 0c0,8.82 1.35,16.87 4.08,24.16 2.73,7.32 6.64,13.65 11.75,19.02 5.12,5.36 11.23,9.55 18.35,12.56 7.14,2.98 15.11,4.48 23.91,4.48 8.82,0 16.77,-1.51 23.91,-4.48 7.12,-3.01 13.26,-7.2 18.37,-12.56 5.09,-5.36 9.02,-11.7 11.75,-19.02 2.71,-7.3 4.08,-15.34 4.08,-24.16 0,-8.62 -1.38,-16.62 -4.08,-24.03 -2.73,-7.4 -6.66,-13.79 -11.75,-19.15 -5.12,-5.36 -11.25,-9.55 -18.37,-12.52 -7.15,-3.01 -15.09,-4.51 -23.91,-4.51 -8.8,0 -16.77,1.5 -23.91,4.51 -7.12,2.98 -13.24,7.16 -18.35,12.52 -5.11,5.36 -9.02,11.76 -11.75,19.15 -2.74,7.42 -4.08,15.41 -4.08,24.03z"/>
   <path class="fil0" d="M2441.36 1184.05l61.83 0c14.93,0 29.17,1.68 42.63,5.04 13.48,3.33 25.21,8.75 35.27,16.24 10.02,7.5 18.02,17.22 23.91,29.2 5.89,11.96 8.84,26.49 8.84,43.56 0,15.17 -2.86,28.47 -8.57,40.03 -5.71,11.53 -13.46,21.21 -23.1,29.05 -9.7,7.84 -20.88,13.78 -33.56,17.85 -12.68,4.04 -25.97,6.06 -39.88,6.06l-67.36 0 0 -187.01zm41.2 149l21.41 0c9.5,0 18.34,-0.98 26.54,-2.93 8.2,-1.9 15.26,-5.16 21.26,-9.65 5.99,-4.46 10.7,-10.38 14.16,-17.67 3.41,-7.32 5.11,-16.24 5.11,-26.85 0,-9.12 -1.7,-17.09 -5.11,-23.86 -3.46,-6.79 -8.1,-12.38 -13.89,-16.79 -5.81,-4.41 -12.63,-7.72 -20.47,-9.9 -7.84,-2.21 -16.06,-3.31 -24.69,-3.31l-24.31 0 0 110.96z"/>
   <polygon class="fil0" points="2667.73,1184.05 2708.94,1184.05 2708.94,1371.06 2667.73,1371.06 "/>
  </g>
 </g>
</svg>
