<?xml version="1.0" encoding="UTF-8"?>
<!DOCTYPE svg PUBLIC "-//W3C//DTD SVG 1.1//EN" "http://www.w3.org/Graphics/SVG/1.1/DTD/svg11.dtd">
<!--Risorse grafiche UNIBAS - bit.ly/unibasbrand -->
<svg xmlns="http://www.w3.org/2000/svg" xml:space="preserve" width="49.803mm" height="27.6653mm" version="1.1" style="shape-rendering:geometricPrecision; text-rendering:geometricPrecision; image-rendering:optimizeQuality; fill-rule:evenodd; clip-rule:evenodd"
viewBox="0 0 3539.06 1965.93"
 xmlns:xlink="http://www.w3.org/1999/xlink"
 xmlns:xodm="http://www.corel.com/coreldraw/odm/2003">
 <defs>
  <style type="text/css">
   <![CDATA[
    .fil0 {fill:white;fill-rule:nonzero}
   ]]>
  </style>
 </defs>
 <g id="Layer_x0020_1">
  <metadata id="CorelCorpID_0Corel-Layer"/>
  <g id="_1913845228560">
   <path class="fil0" d="M339.99 389.83c-24.59,-30.51 -56.96,-45.8 -97.19,-45.8 -14.14,0 -27.93,3.36 -41.34,10.05 -13.41,6.69 -20.1,18.26 -20.1,34.65 0,13.39 6.87,23.29 20.69,29.6 13.76,6.32 31.28,11.93 52.49,16.75 21.2,4.84 43.94,10.08 68.16,15.64 24.17,5.59 46.9,14.36 68.13,26.27 21.23,11.91 38.71,28.1 52.52,48.58 13.76,20.51 20.66,47.85 20.66,82.13 0,35 -7.67,63.88 -22.92,86.56 -15.26,22.74 -34.82,40.97 -58.63,54.75 -23.86,13.79 -50.67,23.46 -80.45,29.03 -29.8,5.61 -59.21,8.4 -88.24,8.4 -38.01,0 -76.39,-5.41 -115.09,-16.22 -38.71,-10.78 -71.5,-29.96 -98.32,-57.51l101.67 -112.86c15.62,19.38 32.97,34.1 51.97,44.14 18.98,10.06 41.12,15.06 66.46,15.06 19.37,0 36.85,-2.76 52.51,-8.37 15.62,-5.56 23.44,-15.79 23.44,-30.73 0,-14.11 -6.87,-24.74 -20.69,-31.81 -13.76,-7.07 -31.26,-13.03 -52.46,-17.9 -21.23,-4.83 -43.97,-10.05 -68.16,-15.61 -24.25,-5.62 -46.93,-13.99 -68.16,-25.15 -21.21,-11.16 -38.74,-27 -52.5,-47.48 -13.79,-20.46 -20.65,-47.83 -20.65,-82.13 0,-31.99 6.52,-59.56 19.53,-82.65 13.01,-23.09 30.18,-42.07 51.41,-56.98 21.18,-14.89 45.6,-25.87 73.15,-32.94 27.53,-7.09 55.48,-10.62 83.81,-10.62 35.72,0 71.84,5.21 108.35,15.64 36.48,10.43 67.41,29.03 92.73,55.88l-102.78 101.63z"/>
   <path class="fil0" d="M903.07 389.83c-24.59,-30.51 -57.01,-45.8 -97.22,-45.8 -14.16,0 -27.93,3.36 -41.34,10.05 -13.39,6.69 -20.11,18.26 -20.11,34.65 0,13.39 6.9,23.29 20.66,29.6 13.79,6.32 31.29,11.93 52.52,16.75 21.23,4.84 43.94,10.08 68.14,15.64 24.21,5.59 46.95,14.36 68.16,26.27 21.23,11.91 38.7,28.1 52.51,48.58 13.79,20.51 20.69,47.85 20.69,82.13 0,35 -7.67,63.88 -22.94,86.56 -15.27,22.74 -34.82,40.97 -58.64,54.75 -23.84,13.79 -50.66,23.46 -80.44,29.03 -29.78,5.61 -59.22,8.4 -88.24,8.4 -37.98,0 -76.36,-5.41 -115.07,-16.22 -38.76,-10.78 -71.49,-29.96 -98.32,-57.51l101.66 -112.86c15.64,19.38 32.97,34.1 51.94,44.14 19,10.06 41.17,15.06 66.46,15.06 19.38,0 36.9,-2.76 52.52,-8.37 15.67,-5.56 23.49,-15.79 23.49,-30.73 0,-14.11 -6.91,-24.74 -20.68,-31.81 -13.79,-7.07 -31.29,-13.03 -52.52,-17.9 -21.23,-4.83 -43.92,-10.05 -68.13,-15.61 -24.22,-5.62 -46.91,-13.99 -68.14,-25.15 -21.23,-11.16 -38.76,-27 -52.51,-47.48 -13.81,-20.46 -20.69,-47.83 -20.69,-82.13 0,-31.99 6.52,-59.56 19.56,-82.65 13.03,-23.09 30.16,-42.07 51.39,-56.98 21.23,-14.89 45.62,-25.87 73.2,-32.94 27.52,-7.09 55.45,-10.62 83.75,-10.62 35.77,0 71.9,5.21 108.4,15.64 36.48,10.43 67.39,29.03 92.73,55.88l-102.78 101.63z"/>
   <path class="fil0" d="M1174.51 0l167.61 0 0 288.2 2.2 0c19.38,-26.07 44.15,-44.5 74.31,-55.31 30.16,-10.8 62.75,-16.19 97.74,-16.19 38.73,0 73.35,8.02 103.91,24 30.54,16.04 56.41,37.45 77.64,64.25 21.23,26.8 37.6,57.53 49.16,92.18 11.53,34.62 17.3,70.94 17.3,108.92 0,40.96 -6.35,78.59 -18.98,112.81 -12.68,34.29 -30.73,63.9 -54.17,88.84 -23.46,24.95 -51.59,44.33 -84.36,58.09 -32.79,13.79 -69.26,20.69 -109.48,20.69 -19.38,0 -37.63,-2.64 -54.72,-7.85 -17.18,-5.22 -32.97,-11.89 -47.5,-20.11 -14.52,-8.17 -27.2,-17.32 -37.98,-27.37 -10.8,-10.06 -19.56,-19.9 -26.24,-29.6l-2.23 0 0 71.52 -154.2 0 0 -773.05zm154.2 501.56c0,40.98 11.73,74.12 35.2,99.42 23.44,25.34 56.4,37.98 98.87,37.98 42.42,0 75.38,-12.63 98.87,-37.98 23.44,-25.3 35.17,-58.44 35.17,-99.42 0,-40.97 -11.73,-74.11 -35.17,-99.43 -23.49,-25.29 -56.46,-37.98 -98.87,-37.98 -42.47,0 -75.43,12.68 -98.87,37.98 -23.46,25.32 -35.2,58.46 -35.2,99.43z"/>
   <path class="fil0" d="M2249.24 704.9l-2.23 0c-18.65,29.05 -43.42,49.89 -74.28,62.57 -30.93,12.63 -63.52,18.98 -97.79,18.98 -25.32,0 -49.71,-3.56 -73.15,-10.61 -23.46,-7.06 -44.15,-17.69 -62,-31.84 -17.87,-14.16 -32.03,-31.64 -42.47,-52.52 -10.45,-20.86 -15.64,-45.05 -15.64,-72.62 0,-31.26 5.76,-57.7 17.32,-79.31 11.53,-21.59 27.17,-39.46 46.9,-53.62 19.73,-14.14 42.29,-25.15 67.61,-32.97 25.29,-7.8 51.54,-13.57 78.76,-17.3 27.15,-3.71 54.35,-5.96 81.52,-6.72 27.2,-0.7 52.34,-1.1 75.43,-1.1 0,-29.78 -10.6,-53.45 -31.84,-70.95 -21.23,-17.47 -46.35,-26.27 -75.41,-26.27 -27.57,0 -52.72,5.79 -75.43,17.35 -22.71,11.56 -42.99,27.35 -60.89,47.48l-89.37 -91.63c31.28,-29.03 67.76,-50.84 109.5,-65.33 41.71,-14.54 84.91,-21.81 129.58,-21.81 49.16,0 89.54,6.15 121.21,18.43 31.66,12.31 56.98,30.36 76.01,54.18 18.98,23.86 32.19,53.07 39.66,87.71 7.42,34.62 11.14,74.69 11.14,120.11l0 275.93 -154.15 0 0 -68.13zm-41.34 -169.82c-12.68,0 -28.48,0.58 -47.48,1.68 -18.97,1.13 -37.27,4.28 -54.75,9.5 -17.5,5.22 -32.37,13.03 -44.68,23.44 -12.31,10.43 -18.43,24.97 -18.43,43.57 0,20.13 8.55,35.05 25.67,44.72 17.15,9.66 35.02,14.49 53.64,14.49 16.37,0 32.19,-2.23 47.48,-6.69 15.24,-4.46 28.83,-10.77 40.76,-18.97 11.93,-8.2 21.41,-18.6 28.5,-31.29 7.07,-12.66 10.6,-27.55 10.6,-44.7l0 -35.74 -41.34 0z"/>
   <polygon class="fil0" points="0.38,1965.93 3539.06,1965.93 3539.06,1769.34 0.38,1769.34 "/>
   <polygon class="fil0" points="3244.18,1671.05 3539.06,1671.05 3539.06,1474.46 3244.18,1474.46 "/>
   <polygon class="fil0" points="3440.77,1376.17 3539.06,1376.17 3539.06,1179.57 3440.77,1179.57 "/>
   <polygon class="fil0" points="1769.71,1081.28 3539.06,1081.28 3539.06,884.69 1769.71,884.69 "/>
   <path class="fil0" d="M0.37 1479.23l69.74 0c8.1,0 16.24,0.6 24.45,1.73 8.19,1.12 15.54,3.43 22.06,6.86 6.52,3.43 11.78,8.25 15.87,14.39 4.04,6.17 6.07,14.37 6.07,24.57 0,10.58 -2.96,19.36 -8.85,26.3 -5.89,6.97 -13.71,11.93 -23.39,14.94l0 0.53c6.17,0.87 11.78,2.58 16.8,5.16 4.99,2.54 9.3,5.79 12.93,9.76 3.59,3.96 6.37,8.57 8.33,13.86 1.93,5.29 2.91,10.93 2.91,16.92 0,9.85 -2.13,18.1 -6.35,24.72 -4.24,6.59 -9.7,11.91 -16.39,15.97 -6.69,4.04 -14.21,6.97 -22.58,8.7 -8.38,1.78 -16.7,2.66 -24.97,2.66l-76.61 0 0 -187.06zm41.22 74.78l29.85 0c3.18,0 6.3,-0.36 9.38,-1.06 3.08,-0.72 5.86,-1.88 8.29,-3.43 2.49,-1.58 4.46,-3.71 5.97,-6.34 1.51,-2.66 2.23,-5.82 2.23,-9.53 0,-3.86 -0.82,-7.07 -2.51,-9.63 -1.68,-2.53 -3.81,-4.56 -6.44,-5.96 -2.66,-1.38 -5.67,-2.41 -9,-3.03 -3.36,-0.6 -6.59,-0.93 -9.78,-0.93l-28 0 0 39.92zm0 77.39l36.97 0c3.18,0 6.37,-0.36 9.65,-1.05 3.29,-0.68 6.22,-1.91 8.85,-3.69 2.66,-1.76 4.81,-4.04 6.49,-6.87 1.63,-2.81 2.51,-6.24 2.51,-10.28 0,-4.43 -1.13,-7.99 -3.31,-10.7 -2.2,-2.76 -4.99,-4.82 -8.32,-6.25 -3.35,-1.4 -6.94,-2.35 -10.85,-2.88 -3.87,-0.53 -7.48,-0.8 -10.81,-0.8l-31.18 0 0 42.52z"/>
   <polygon class="fil0" points="199.58,1479.23 326.63,1479.23 326.63,1517.28 240.77,1517.28 240.77,1552.15 321.89,1552.15 321.89,1590.21 240.77,1590.21 240.77,1628.26 331.42,1628.26 331.42,1666.29 199.58,1666.29 "/>
   <polygon class="fil0" points="390.83,1479.23 446.85,1479.23 526.37,1609.23 526.9,1609.23 526.9,1479.23 568.14,1479.23 568.14,1666.29 514.21,1666.29 432.59,1533.13 432.04,1533.13 432.04,1666.29 390.83,1666.29 "/>
   <polygon class="fil0" points="632.06,1479.22 673.27,1479.22 673.27,1666.29 632.06,1666.29 "/>
   <path class="fil0" d="M903.39 1479.23l34.07 0 81.37 187.06 -46.5 0 -16.1 -39.63 -72.67 0 -15.59 39.63 -45.42 0 80.85 -187.06zm15.84 54.43l-22.71 58.14 45.7 0 -22.99 -58.14z"/>
   <path class="fil0" d="M1064.01 1479.23l72.4 0c9.5,0 18.53,0.95 27.1,2.79 8.5,1.85 16,4.94 22.44,9.25 6.42,4.31 11.5,10.15 15.31,17.42 3.79,7.32 5.67,16.42 5.67,27.38 0,13.18 -3.41,24.44 -10.28,33.66 -6.89,9.25 -16.9,15.09 -30.11,17.57l47.53 78.99 -49.39 0 -39.11 -74.78 -20.36 0 0 74.78 -41.21 0 0 -187.06zm41.21 77.44l24.3 0c3.73,0 7.65,-0.15 11.78,-0.43 4.11,-0.25 7.87,-1.05 11.23,-2.35 3.33,-1.33 6.1,-3.38 8.33,-6.22 2.2,-2.84 3.28,-6.79 3.28,-11.88 0,-4.79 -0.95,-8.55 -2.91,-11.38 -1.93,-2.81 -4.38,-4.96 -7.37,-6.47 -3.01,-1.51 -6.47,-2.51 -10.33,-3.03 -3.86,-0.53 -7.67,-0.8 -11.36,-0.8l-26.95 0 0 42.57z"/>
   <path class="fil0" d="M1383.99 1527.85c-4.06,-4.92 -9.05,-8.73 -14.94,-11.36 -5.91,-2.66 -12.71,-3.99 -20.48,-3.99 -7.75,0 -14.92,1.5 -21.51,4.51 -6.62,2.98 -12.33,7.17 -17.2,12.54 -4.84,5.36 -8.6,11.75 -11.36,19.17 -2.73,7.4 -4.09,15.42 -4.09,24.02 0,8.83 1.36,16.87 4.09,24.19 2.76,7.32 6.49,13.64 11.23,19.03 4.76,5.37 10.35,9.55 16.79,12.56 6.42,2.96 13.32,4.46 20.74,4.46 8.45,0 15.94,-1.76 22.46,-5.27 6.52,-3.53 11.88,-8.47 16.1,-14.82l34.34 25.65c-7.92,11.11 -17.95,19.28 -30.11,24.54 -12.14,5.32 -24.67,7.94 -37.53,7.94 -14.62,0 -28.08,-2.28 -40.44,-6.86 -12.31,-4.59 -22.96,-11.14 -31.96,-19.68 -8.95,-8.55 -15.97,-18.9 -20.98,-31.03 -5.02,-12.16 -7.53,-25.72 -7.53,-40.71 0,-14.94 2.51,-28.53 7.53,-40.69 5.01,-12.13 12.03,-22.48 20.98,-31.01 9,-8.55 19.66,-15.14 31.96,-19.7 12.36,-4.56 25.82,-6.87 40.44,-6.87 5.32,0 10.8,0.5 16.51,1.46 5.72,0.97 11.38,2.5 16.93,4.61 5.54,2.13 10.88,4.94 15.97,8.47 5.12,3.51 9.68,7.85 13.76,12.93l-31.71 25.9z"/>
   <polygon class="fil0" points="1469.06,1479.23 1510.27,1479.23 1510.27,1548.99 1590.34,1548.99 1590.34,1479.23 1631.55,1479.23 1631.55,1666.29 1590.34,1666.29 1590.34,1585.44 1510.27,1585.44 1510.27,1666.29 1469.06,1666.29 "/>
   <polygon class="fil0" points="1697.61,1479.23 1824.68,1479.23 1824.68,1517.28 1738.82,1517.28 1738.82,1552.15 1819.92,1552.15 1819.92,1590.21 1738.82,1590.21 1738.82,1628.26 1829.44,1628.26 1829.44,1666.29 1697.61,1666.29 "/>
   <path class="fil0" d="M1878.86 1572.76c0,-14.94 2.51,-28.55 7.53,-40.69 5.01,-12.16 12.03,-22.51 20.98,-31.03 9,-8.55 19.65,-15.11 31.96,-19.68 12.36,-4.59 25.82,-6.87 40.44,-6.87 14.61,0 28.1,2.28 40.43,6.87 12.31,4.56 22.99,11.13 31.96,19.68 8.98,8.52 15.97,18.87 21.01,31.03 5.02,12.14 7.53,25.75 7.53,40.69 0,14.99 -2.51,28.55 -7.53,40.69 -5.04,12.15 -12.03,22.51 -21.01,31.05 -8.98,8.55 -19.66,15.09 -31.96,19.66 -12.34,4.61 -25.82,6.87 -40.43,6.87 -14.62,0 -28.08,-2.26 -40.44,-6.87 -12.31,-4.56 -22.96,-11.11 -31.96,-19.66 -8.95,-8.55 -15.97,-18.9 -20.98,-31.05 -5.02,-12.14 -7.53,-25.7 -7.53,-40.69zm42.79 0c0,8.83 1.36,16.87 4.09,24.17 2.74,7.32 6.64,13.66 11.76,19.02 5.12,5.37 11.26,9.55 18.35,12.56 7.15,2.98 15.11,4.48 23.92,4.48 8.83,0 16.77,-1.5 23.91,-4.48 7.12,-3.01 13.26,-7.2 18.38,-12.56 5.09,-5.37 9.02,-11.7 11.76,-19.02 2.71,-7.3 4.09,-15.34 4.09,-24.17 0,-8.63 -1.38,-16.62 -4.09,-24.04 -2.74,-7.4 -6.67,-13.79 -11.76,-19.15 -5.12,-5.37 -11.26,-9.56 -18.38,-12.54 -7.14,-3.01 -15.09,-4.51 -23.91,-4.51 -8.8,0 -16.77,1.5 -23.92,4.51 -7.09,2.98 -13.23,7.17 -18.35,12.54 -5.12,5.37 -9.02,11.75 -11.76,19.15 -2.73,7.42 -4.09,15.41 -4.09,24.04z"/>
   <polygon class="fil0" points="2136.71,1479.23 2177.93,1479.23 2177.93,1628.26 2254.29,1628.26 2254.29,1666.29 2136.71,1666.29 "/>
   <path class="fil0" d="M2293.38 1572.76c0,-14.94 2.5,-28.55 7.52,-40.69 5.01,-12.16 12.03,-22.51 20.98,-31.03 9,-8.55 19.65,-15.11 31.96,-19.68 12.36,-4.59 25.82,-6.87 40.43,-6.87 14.64,0 28.1,2.28 40.43,6.87 12.31,4.56 22.99,11.13 31.96,19.68 8.98,8.52 15.97,18.87 21.01,31.03 5.02,12.14 7.53,25.75 7.53,40.69 0,14.99 -2.51,28.55 -7.53,40.69 -5.04,12.15 -12.03,22.51 -21.01,31.05 -8.98,8.55 -19.66,15.09 -31.96,19.66 -12.33,4.61 -25.8,6.87 -40.43,6.87 -14.62,0 -28.08,-2.26 -40.43,-6.87 -12.31,-4.56 -22.97,-11.11 -31.96,-19.66 -8.95,-8.55 -15.97,-18.9 -20.98,-31.05 -5.02,-12.14 -7.52,-25.7 -7.52,-40.69zm42.79 0c0,8.83 1.35,16.87 4.09,24.17 2.76,7.32 6.64,13.66 11.78,19.02 5.09,5.37 11.23,9.55 18.32,12.56 7.15,2.98 15.14,4.48 23.92,4.48 8.83,0 16.77,-1.5 23.91,-4.48 7.15,-3.01 13.27,-7.2 18.38,-12.56 5.09,-5.37 9.02,-11.7 11.76,-19.02 2.71,-7.3 4.11,-15.34 4.11,-24.17 0,-8.63 -1.4,-16.62 -4.11,-24.04 -2.74,-7.4 -6.67,-13.79 -11.76,-19.15 -5.11,-5.37 -11.23,-9.56 -18.38,-12.54 -7.14,-3.01 -15.09,-4.51 -23.91,-4.51 -8.78,0 -16.77,1.5 -23.92,4.51 -7.09,2.98 -13.23,7.17 -18.32,12.54 -5.14,5.37 -9.02,11.75 -11.78,19.15 -2.74,7.42 -4.09,15.41 -4.09,24.04z"/>
   <path class="fil0" d="M2718.98 1653.08c-12.16,6.34 -24.81,10.91 -38.02,13.74 -13.21,2.81 -26.7,4.21 -40.44,4.21 -14.61,0 -28.08,-2.26 -40.43,-6.87 -12.31,-4.56 -22.96,-11.11 -31.93,-19.66 -8.98,-8.55 -16,-18.9 -21.01,-31.05 -5.02,-12.14 -7.53,-25.7 -7.53,-40.69 0,-14.94 2.51,-28.55 7.53,-40.69 5.01,-12.16 12.03,-22.51 21.01,-31.03 8.98,-8.55 19.63,-15.11 31.93,-19.68 12.36,-4.59 25.82,-6.87 40.43,-6.87 14.99,0 28.76,1.78 41.36,5.41 12.61,3.61 23.67,9.83 33.14,18.6l-29.06 31.74c-5.64,-5.84 -11.98,-10.23 -19.02,-13.21 -7.05,-3.01 -15.85,-4.51 -26.43,-4.51 -8.77,0 -16.77,1.5 -23.91,4.51 -7.09,2.98 -13.24,7.17 -18.33,12.54 -5.14,5.37 -9.02,11.75 -11.78,19.15 -2.73,7.42 -4.09,15.44 -4.09,24.04 0,8.83 1.36,16.87 4.09,24.17 2.76,7.32 6.64,13.66 11.78,19.02 5.09,5.37 11.23,9.55 18.33,12.56 7.14,2.98 15.14,4.48 23.91,4.48 9,0 16.75,-1 23.27,-3.03 6.52,-2.03 11.71,-4.11 15.57,-6.22l0 -30.38 -33.52 0 0 -38.03 73.15 0 0 97.74z"/>
   <polygon class="fil0" points="2781.08,1479.22 2822.3,1479.22 2822.3,1666.29 2781.08,1666.29 "/>
   <path class="fil0" d="M3008.57 1527.85c-4.06,-4.92 -9.05,-8.73 -14.94,-11.36 -5.92,-2.66 -12.71,-3.99 -20.48,-3.99 -7.75,0 -14.92,1.5 -21.51,4.51 -6.62,2.98 -12.34,7.17 -17.2,12.54 -4.84,5.36 -8.63,11.75 -11.36,19.17 -2.74,7.4 -4.09,15.42 -4.09,24.02 0,8.83 1.35,16.87 4.09,24.19 2.73,7.32 6.49,13.64 11.23,19.03 4.76,5.37 10.35,9.55 16.8,12.56 6.42,2.96 13.31,4.46 20.71,4.46 8.47,0 15.97,-1.76 22.48,-5.27 6.52,-3.53 11.88,-8.47 16.1,-14.82l34.34 25.65c-7.92,11.11 -17.95,19.28 -30.11,24.54 -12.13,5.32 -24.67,7.94 -37.53,7.94 -14.64,0 -28.08,-2.28 -40.43,-6.86 -12.31,-4.59 -22.97,-11.14 -31.96,-19.68 -8.95,-8.55 -15.97,-18.9 -20.98,-31.03 -5.02,-12.16 -7.52,-25.72 -7.52,-40.71 0,-14.94 2.5,-28.53 7.52,-40.69 5.01,-12.13 12.03,-22.48 20.98,-31.01 9,-8.55 19.65,-15.14 31.96,-19.7 12.36,-4.56 25.8,-6.87 40.43,-6.87 5.32,0 10.8,0.5 16.52,1.46 5.71,0.97 11.38,2.5 16.92,4.61 5.54,2.13 10.88,4.94 15.97,8.47 5.12,3.51 9.68,7.85 13.74,12.93l-31.69 25.9z"/>
   <polygon class="fil0" points="3093.12,1479.22 3134.33,1479.22 3134.33,1666.29 3093.12,1666.29 "/>
   <path class="fil0" d="M106.46 1230.03c-3.35,-4.21 -7.89,-7.34 -13.61,-9.37 -5.74,-2 -11.14,-3.03 -16.27,-3.03 -2.96,0 -6.07,0.35 -9.22,1.05 -3.18,0.7 -6.17,1.8 -8.98,3.31 -2.81,1.51 -5.12,3.48 -6.89,5.94 -1.76,2.46 -2.61,5.46 -2.61,8.98 0,5.66 2.08,9.98 6.35,12.93 4.21,3.01 9.55,5.59 15.97,7.67 6.44,2.13 13.33,4.26 20.73,6.34 7.4,2.13 14.29,5.14 20.74,9 6.42,3.86 11.75,9.07 16.02,15.59 4.21,6.52 6.34,15.21 6.34,26.15 0,10.37 -1.95,19.48 -5.84,27.2 -3.86,7.75 -9.12,14.19 -15.71,19.31 -6.62,5.11 -14.29,8.87 -22.99,11.36 -8.73,2.45 -17.93,3.68 -27.63,3.68 -12.13,0 -23.41,-1.83 -33.79,-5.54 -10.41,-3.69 -20.08,-9.68 -29.06,-17.95l29.33 -32.24c4.21,5.64 9.55,10.01 15.97,13.06 6.44,3.11 13.08,4.64 19.95,4.64 3.35,0 6.74,-0.38 10.15,-1.18 3.46,-0.8 6.52,-1.98 9.28,-3.59 2.71,-1.58 4.91,-3.61 6.59,-6.06 1.66,-2.49 2.51,-5.37 2.51,-8.73 0,-5.64 -2.15,-10.08 -6.49,-13.34 -4.29,-3.25 -9.73,-6.04 -16.24,-8.35 -6.52,-2.25 -13.57,-4.56 -21.13,-6.86 -7.55,-2.26 -14.6,-5.37 -21.11,-9.22 -6.52,-3.89 -11.96,-8.98 -16.24,-15.32 -4.33,-6.34 -6.49,-14.72 -6.49,-25.09 0,-10.08 1.98,-18.85 5.96,-26.43 3.94,-7.59 9.22,-13.91 15.82,-19.02 6.62,-5.09 14.24,-8.93 22.87,-11.5 8.62,-2.56 17.55,-3.84 26.67,-3.84 10.58,0 20.79,1.51 30.66,4.48 9.85,3.01 18.77,8.02 26.7,15.07l-28.28 30.9z"/>
   <path class="fil0" d="M192.06 1184.33l69.46 0c9.71,0 18.85,0.88 27.48,2.66 8.65,1.78 16.17,4.81 22.58,9.1 6.45,4.31 11.53,10.15 15.34,17.45 3.79,7.3 5.69,16.49 5.69,27.63 0,10.9 -1.78,20.07 -5.32,27.47 -3.51,7.37 -8.34,13.29 -14.49,17.7 -6.19,4.38 -13.49,7.52 -21.96,9.37 -8.45,1.85 -17.6,2.76 -27.48,2.76l-30.1 0 0 72.92 -41.22 0 0 -187.06zm41.22 79.27l27.44 0c3.74,0 7.3,-0.35 10.71,-1.08 3.46,-0.68 6.52,-1.88 9.27,-3.53 2.71,-1.68 4.92,-3.99 6.59,-6.87 1.68,-2.91 2.51,-6.57 2.51,-10.95 0,-4.79 -1.08,-8.6 -3.31,-11.51 -2.2,-2.93 -5.02,-5.16 -8.45,-6.74 -3.43,-1.58 -7.24,-2.61 -11.48,-3.06 -4.24,-0.4 -8.27,-0.65 -12.18,-0.65l-21.11 0 0 44.4z"/>
   <polygon class="fil0" points="386.5,1184.33 513.57,1184.33 513.57,1222.41 427.71,1222.41 427.71,1257.25 508.83,1257.25 508.83,1295.31 427.71,1295.31 427.71,1333.37 518.34,1333.37 518.34,1371.39 386.5,1371.39 "/>
   <path class="fil0" d="M700.08 1232.96c-4.04,-4.94 -9.02,-8.73 -14.92,-11.36 -5.89,-2.66 -12.73,-3.99 -20.45,-3.99 -7.77,0 -14.97,1.51 -21.56,4.51 -6.62,2.98 -12.34,7.17 -17.18,12.54 -4.84,5.37 -8.65,11.75 -11.36,19.18 -2.73,7.39 -4.09,15.41 -4.09,24.01 0,8.83 1.36,16.87 4.09,24.2 2.71,7.29 6.47,13.64 11.23,19.02 4.76,5.37 10.33,9.55 16.79,12.56 6.42,2.96 13.31,4.46 20.74,4.46 8.45,0 15.92,-1.75 22.46,-5.26 6.49,-3.54 11.88,-8.48 16.09,-14.82l34.34 25.62c-7.92,11.13 -17.94,19.3 -30.13,24.57 -12.13,5.32 -24.64,7.95 -37.51,7.95 -14.61,0 -28.1,-2.28 -40.41,-6.87 -12.34,-4.59 -22.99,-11.13 -31.96,-19.68 -9,-8.55 -16,-18.9 -21.01,-31.04 -5.02,-12.16 -7.55,-25.72 -7.55,-40.71 0,-14.94 2.53,-28.52 7.55,-40.68 5.01,-12.14 12,-22.49 21.01,-31.01 8.98,-8.55 19.63,-15.14 31.96,-19.71 12.31,-4.56 25.8,-6.87 40.41,-6.87 5.29,0 10.81,0.5 16.52,1.46 5.72,0.95 11.36,2.51 16.93,4.61 5.54,2.13 10.85,4.94 15.97,8.47 5.11,3.51 9.67,7.85 13.76,12.94l-31.74 25.89z"/>
   <polygon class="fil0" points="784.63,1184.34 825.84,1184.34 825.84,1371.4 784.63,1371.4 "/>
   <path class="fil0" d="M951.33 1184.33l34.1 0 81.37 187.06 -46.5 0 -16.12 -39.63 -72.65 0 -15.62 39.63 -45.43 0 80.85 -187.06zm15.88 54.43l-22.74 58.14 45.7 0 -22.96 -58.14z"/>
   <polygon class="fil0" points="1113.57,1184.33 1154.79,1184.33 1154.79,1333.37 1231.14,1333.37 1231.14,1371.39 1113.57,1371.39 "/>
   <polygon class="fil0" points="1279.74,1184.34 1320.95,1184.34 1320.95,1371.4 1279.74,1371.4 "/>
   <polygon class="fil0" points="1375.11,1333.36 1469.95,1220.8 1378.52,1220.8 1378.52,1184.32 1519.89,1184.32 1519.89,1220.8 1426.88,1333.36 1523.05,1333.36 1523.05,1371.39 1375.11,1371.39 "/>
   <polygon class="fil0" points="1567.99,1333.36 1662.82,1220.8 1571.4,1220.8 1571.4,1184.32 1712.76,1184.32 1712.76,1220.8 1619.76,1333.36 1715.92,1333.36 1715.92,1371.39 1567.99,1371.39 "/>
   <path class="fil0" d="M1832.19 1184.33l34.09 0 81.35 187.06 -46.5 0 -16.1 -39.63 -72.65 0 -15.62 39.63 -45.42 0 80.85 -187.06zm15.84 54.43l-22.71 58.14 45.7 0 -22.99 -58.14z"/>
   <polygon class="fil0" points="1983.04,1333.36 2077.87,1220.8 1986.45,1220.8 1986.45,1184.32 2127.81,1184.32 2127.81,1220.8 2034.8,1333.36 2130.97,1333.36 2130.97,1371.39 1983.04,1371.39 "/>
   <polygon class="fil0" points="2185.15,1184.34 2226.36,1184.34 2226.36,1371.4 2185.15,1371.4 "/>
   <path class="fil0" d="M2280.26 1277.86c0,-14.94 2.5,-28.55 7.52,-40.68 5.01,-12.16 12.03,-22.51 20.98,-31.01 9,-8.58 19.65,-15.14 31.96,-19.71 12.36,-4.56 25.82,-6.87 40.43,-6.87 14.62,0 28.1,2.31 40.43,6.87 12.31,4.56 22.99,11.13 31.96,19.71 8.98,8.5 15.97,18.85 21.01,31.01 5.02,12.13 7.53,25.75 7.53,40.68 0,14.99 -2.51,28.55 -7.53,40.69 -5.04,12.16 -12.03,22.51 -21.01,31.06 -8.98,8.55 -19.66,15.09 -31.96,19.66 -12.34,4.61 -25.82,6.86 -40.43,6.86 -14.62,0 -28.08,-2.25 -40.43,-6.86 -12.31,-4.57 -22.97,-11.11 -31.96,-19.66 -8.95,-8.55 -15.97,-18.9 -20.98,-31.06 -5.02,-12.14 -7.52,-25.7 -7.52,-40.69zm42.79 0c0,8.83 1.36,16.87 4.09,24.2 2.76,7.29 6.64,13.64 11.76,19 5.12,5.37 11.26,9.55 18.35,12.56 7.15,2.98 15.12,4.49 23.92,4.49 8.83,0 16.77,-1.51 23.91,-4.49 7.15,-3.01 13.27,-7.19 18.38,-12.56 5.09,-5.37 9.02,-11.71 11.76,-19 2.71,-7.33 4.09,-15.37 4.09,-24.2 0,-8.6 -1.38,-16.62 -4.09,-24.04 -2.74,-7.4 -6.67,-13.79 -11.76,-19.15 -5.11,-5.37 -11.23,-9.55 -18.38,-12.54 -7.14,-3.01 -15.09,-4.51 -23.91,-4.51 -8.8,0 -16.77,1.51 -23.92,4.51 -7.09,2.98 -13.23,7.17 -18.35,12.54 -5.12,5.37 -9,11.75 -11.76,19.15 -2.73,7.42 -4.09,15.44 -4.09,24.04z"/>
   <polygon class="fil0" points="2536.52,1184.33 2592.56,1184.33 2672.07,1314.33 2672.6,1314.33 2672.6,1184.33 2713.79,1184.33 2713.79,1371.39 2659.89,1371.39 2578.29,1238.23 2577.74,1238.23 2577.74,1371.39 2536.52,1371.39 "/>
   <polygon class="fil0" points="2779.85,1184.33 2906.95,1184.33 2906.95,1222.41 2821.06,1222.41 2821.06,1257.25 2902.16,1257.25 2902.16,1295.31 2821.06,1295.31 2821.06,1333.37 2911.69,1333.37 2911.69,1371.39 2779.85,1371.39 "/>
   <polygon class="fil0" points="3075.22,1184.34 3116.43,1184.34 3116.43,1371.4 3075.22,1371.4 "/>
   <polygon class="fil0" points="3180.36,1184.33 3236.39,1184.33 3315.9,1314.33 3316.43,1314.33 3316.43,1184.33 3357.64,1184.33 3357.64,1371.39 3303.72,1371.39 3222.12,1238.23 3221.57,1238.23 3221.57,1371.39 3180.36,1371.39 "/>
   <path class="fil0" d="M106.85 935.14c-3.36,-4.21 -7.9,-7.35 -13.62,-9.38 -5.74,-2 -11.13,-3.03 -16.27,-3.03 -2.96,0 -6.06,0.36 -9.22,1.06 -3.18,0.7 -6.17,1.8 -8.98,3.3 -2.81,1.51 -5.11,3.49 -6.86,5.97 -1.78,2.43 -2.64,5.44 -2.64,8.95 0,5.67 2.08,9.98 6.35,12.94 4.21,3.01 9.55,5.59 15.97,7.67 6.45,2.13 13.34,4.26 20.73,6.35 7.4,2.13 14.32,5.14 20.74,9 6.42,3.86 11.75,9.07 16.02,15.59 4.21,6.52 6.35,15.22 6.35,26.15 0,10.37 -1.95,19.48 -5.84,27.2 -3.87,7.75 -9.12,14.18 -15.72,19.3 -6.62,5.12 -14.29,8.88 -22.97,11.36 -8.75,2.46 -17.95,3.69 -27.65,3.69 -12.13,0 -23.41,-1.83 -33.79,-5.54 -10.4,-3.69 -20.08,-9.68 -29.06,-17.95l29.33 -32.24c4.21,5.64 9.55,10.01 15.99,13.06 6.42,3.11 13.06,4.64 19.93,4.64 3.36,0 6.74,-0.38 10.15,-1.18 3.45,-0.8 6.52,-1.98 9.27,-3.58 2.71,-1.58 4.91,-3.61 6.59,-6.07 1.66,-2.48 2.51,-5.37 2.51,-8.73 0,-5.64 -2.16,-10.08 -6.49,-13.34 -4.28,-3.25 -9.73,-6.04 -16.24,-8.32 -6.49,-2.28 -13.57,-4.58 -21.13,-6.89 -7.55,-2.25 -14.59,-5.37 -21.11,-9.22 -6.52,-3.89 -11.94,-8.98 -16.24,-15.32 -4.34,-6.34 -6.49,-14.71 -6.49,-25.09 0,-10.06 1.98,-18.85 5.96,-26.42 3.94,-7.58 9.23,-13.91 15.82,-19.03 6.62,-5.09 14.24,-8.93 22.87,-11.5 8.62,-2.56 17.55,-3.81 26.67,-3.81 10.61,0 20.81,1.48 30.68,4.46 9.83,3.01 18.75,8.02 26.68,15.06l-28.28 30.91z"/>
   <path class="fil0" d="M314.75 938.06c-4.04,-4.91 -9.02,-8.72 -14.92,-11.36 -5.89,-2.66 -12.73,-3.99 -20.45,-3.99 -7.77,0 -14.97,1.51 -21.56,4.51 -6.62,2.98 -12.34,7.17 -17.18,12.54 -4.84,5.37 -8.62,11.78 -11.36,19.18 -2.74,7.4 -4.09,15.42 -4.09,24.02 0,8.82 1.35,16.87 4.09,24.19 2.74,7.32 6.47,13.66 11.26,19.02 4.74,5.37 10.3,9.56 16.77,12.56 6.42,2.96 13.31,4.46 20.74,4.46 8.44,0 15.92,-1.76 22.46,-5.27 6.49,-3.53 11.89,-8.47 16.1,-14.82l34.34 25.65c-7.92,11.11 -17.95,19.28 -30.13,24.54 -12.14,5.32 -24.64,7.94 -37.51,7.94 -14.61,0 -28.1,-2.28 -40.41,-6.87 -12.34,-4.58 -22.99,-11.13 -31.96,-19.68 -9,-8.55 -16,-18.9 -21.01,-31.03 -5.01,-12.16 -7.54,-25.72 -7.54,-40.71 0,-14.94 2.53,-28.53 7.54,-40.69 5.02,-12.13 12.01,-22.48 21.01,-31.01 8.98,-8.55 19.63,-15.14 31.96,-19.71 12.31,-4.56 25.8,-6.86 40.41,-6.86 5.29,0 10.81,0.5 16.52,1.45 5.72,0.98 11.36,2.51 16.92,4.61 5.54,2.13 10.86,4.94 16,8.48 5.09,3.51 9.65,7.85 13.74,12.93l-31.74 25.89z"/>
   <path class="fil0" d="M557.55 1004.38c0,11.08 -1.66,21.3 -5.02,30.63 -3.33,9.34 -8.32,17.45 -14.92,24.32 -6.62,6.86 -14.84,12.26 -24.72,16.12 -9.86,3.86 -21.23,5.79 -34.1,5.79 -13.01,0 -24.47,-1.93 -34.32,-5.79 -9.87,-3.86 -18.1,-9.25 -24.69,-16.12 -6.62,-6.87 -11.61,-14.97 -14.92,-24.32 -3.36,-9.33 -5.07,-19.56 -5.07,-30.63l0 -114.94 41.24 0 0 113.34c0,5.81 0.9,11.21 2.76,16.15 1.85,4.91 4.46,9.2 7.82,12.78 3.33,3.63 7.35,6.45 12.01,8.47 4.66,2.03 9.72,3.03 15.16,3.03 5.46,0 10.5,-1 15.09,-3.03 4.56,-2.03 8.55,-4.84 11.88,-8.47 3.36,-3.59 5.94,-7.87 7.8,-12.78 1.83,-4.94 2.79,-10.33 2.79,-16.15l0 -113.34 41.19 0 0 114.94z"/>
   <path class="fil0" d="M611.98 982.97c0,-14.94 2.53,-28.55 7.54,-40.69 5.02,-12.16 12.01,-22.51 21.01,-31.03 8.98,-8.55 19.63,-15.11 31.96,-19.68 12.31,-4.59 25.8,-6.87 40.41,-6.87 14.65,0 28.1,2.28 40.44,6.87 12.31,4.56 22.99,11.13 31.96,19.68 9,8.52 15.97,18.87 20.98,31.03 5.04,12.14 7.55,25.75 7.55,40.69 0,14.99 -2.51,28.55 -7.55,40.69 -5.01,12.16 -11.98,22.51 -20.98,31.05 -8.98,8.55 -19.66,15.09 -31.96,19.66 -12.34,4.61 -25.8,6.87 -40.44,6.87 -14.61,0 -28.1,-2.26 -40.41,-6.87 -12.34,-4.56 -22.99,-11.11 -31.96,-19.66 -9,-8.55 -16,-18.9 -21.01,-31.05 -5.01,-12.14 -7.54,-25.7 -7.54,-40.69zm42.81 0c0,8.83 1.36,16.87 4.09,24.17 2.74,7.32 6.64,13.66 11.78,19.02 5.09,5.37 11.21,9.55 18.33,12.56 7.14,2.98 15.09,4.48 23.91,4.48 8.83,0 16.8,-1.5 23.92,-4.48 7.14,-3.01 13.24,-7.2 18.38,-12.56 5.09,-5.37 9.02,-11.7 11.73,-19.02 2.73,-7.3 4.11,-15.34 4.11,-24.17 0,-8.6 -1.38,-16.62 -4.11,-24.04 -2.71,-7.4 -6.64,-13.79 -11.73,-19.15 -5.14,-5.37 -11.23,-9.55 -18.38,-12.54 -7.12,-3.01 -15.09,-4.51 -23.92,-4.51 -8.82,0 -16.77,1.5 -23.91,4.51 -7.12,2.98 -13.24,7.17 -18.33,12.54 -5.14,5.37 -9.05,11.75 -11.78,19.15 -2.73,7.42 -4.09,15.44 -4.09,24.04z"/>
   <polygon class="fil0" points="869.83,889.44 911.05,889.44 911.05,1038.47 987.41,1038.47 987.41,1076.5 869.83,1076.5 "/>
   <path class="fil0" d="M1098.12 889.44l34.1 0 81.35 187.06 -46.5 0 -16.1 -39.63 -72.65 0 -15.61 39.63 -45.43 0 80.85 -187.06zm15.85 54.43l-22.71 58.14 45.7 0 -22.99 -58.14z"/>
   <path class="fil0" d="M1363.35 889.44l61.82 0c14.97,0 29.21,1.68 42.67,5.04 13.49,3.33 25.22,8.78 35.27,16.24 10.03,7.5 18.02,17.22 23.91,29.21 5.89,11.96 8.85,26.5 8.85,43.57 0,15.16 -2.86,28.48 -8.58,40.04 -5.71,11.53 -13.46,21.2 -23.11,29.06 -9.71,7.85 -20.88,13.79 -33.57,17.84 -12.68,4.04 -25.97,6.07 -39.89,6.07l-67.38 0 0 -187.06zm41.21 149.03l21.41 0c9.5,0 18.35,-0.97 26.55,-2.93 8.19,-1.9 15.26,-5.17 21.25,-9.63 6,-4.48 10.71,-10.37 14.14,-17.7 3.43,-7.32 5.14,-16.24 5.14,-26.85 0,-9.12 -1.71,-17.1 -5.14,-23.86 -3.43,-6.79 -8.07,-12.39 -13.89,-16.8 -5.79,-4.41 -12.61,-7.72 -20.46,-9.9 -7.85,-2.21 -16.07,-3.28 -24.69,-3.28l-24.32 0 0 110.95z"/>
   <polygon class="fil0" points="1589.76,889.42 1630.98,889.42 1630.98,1076.49 1589.76,1076.49 "/>
  </g>
 </g>
</svg>
