<?xml version="1.0" encoding="UTF-8"?>
<!DOCTYPE svg PUBLIC "-//W3C//DTD SVG 1.1//EN" "http://www.w3.org/Graphics/SVG/1.1/DTD/svg11.dtd">
<!--Risorse grafiche UNIBAS - bit.ly/unibasbrand -->
<svg xmlns="http://www.w3.org/2000/svg" xml:space="preserve" width="49.798mm" height="27.6655mm" version="1.1" style="shape-rendering:geometricPrecision; text-rendering:geometricPrecision; image-rendering:optimizeQuality; fill-rule:evenodd; clip-rule:evenodd"
viewBox="0 0 3537.84 1965.46"
 xmlns:xlink="http://www.w3.org/1999/xlink"
 xmlns:xodm="http://www.corel.com/coreldraw/odm/2003">
 <defs>
  <style type="text/css">
   <![CDATA[
    .fil0 {fill:black;fill-rule:nonzero}
   ]]>
  </style>
 </defs>
 <g id="Layer_x0020_1">
  <metadata id="CorelCorpID_0Corel-Layer"/>
  <g id="_1913554130000">
   <path class="fil0" d="M589.74 772.79l-154.12 0 0 -71.48 -2.25 0c-6.69,9.7 -15.47,19.52 -26.24,29.58 -10.8,10.07 -23.46,19.2 -37.99,27.37 -14.49,8.22 -30.53,14.89 -48.02,20.11 -17.49,5.21 -35.54,7.84 -54.14,7.84 -40.22,0 -76.72,-6.89 -109.47,-20.65 -32.79,-13.78 -60.88,-33.13 -84.34,-58.09 -23.46,-24.94 -41.5,-54.54 -54.19,-88.83 -12.63,-34.21 -18.98,-71.83 -18.98,-112.78 0,-37.97 5.76,-74.28 17.32,-108.9 11.53,-34.63 27.92,-65.34 49.15,-92.13 21.23,-26.82 47.07,-48.22 77.62,-64.24 30.51,-15.99 65.14,-24.01 103.86,-24.01 34.99,0 67.6,5.39 97.75,16.18 30.15,10.83 54.89,29.25 74.26,55.29l2.25 0 0 -288.05 167.52 0 0 772.78zm-154.12 -271.4c0,-40.95 -11.73,-74.08 -35.21,-99.43 -23.44,-25.28 -56.39,-37.97 -98.85,-37.97 -42.43,0 -75.36,12.68 -98.82,37.97 -23.48,25.34 -35.19,58.48 -35.19,99.43 0,40.96 11.71,74.11 35.19,99.4 23.46,25.31 56.39,37.97 98.82,37.97 42.46,0 75.41,-12.66 98.85,-37.97 23.48,-25.28 35.21,-58.44 35.21,-99.4z"/>
   <path class="fil0" d="M758.39 97.2c0,-26.82 9.51,-49.7 28.47,-68.73 19,-18.97 41.9,-28.47 68.7,-28.47 26.81,0 49.7,9.5 68.67,28.47 19,19.03 28.5,41.91 28.5,68.73 0,26.79 -9.5,49.7 -28.5,68.69 -18.98,18.98 -41.86,28.47 -68.67,28.47 -26.8,0 -49.7,-9.5 -68.7,-28.47 -18.97,-19 -28.47,-41.9 -28.47,-68.69zm13.41 132.75l167.52 0 0 542.83 -167.52 0 0 -542.83z"/>
   <path class="fil0" d="M1628.44 772.79l-160.83 0 0 -73.73 -2.26 0c-5.94,10.45 -13.58,20.87 -22.9,31.27 -9.3,10.46 -20.65,19.75 -34.04,27.92 -13.41,8.22 -28.69,14.89 -45.82,20.11 -17.14,5.21 -35.74,7.84 -55.83,7.84 -42.46,0 -76.87,-6.54 -103.33,-19.55 -26.44,-13.03 -46.9,-31.1 -61.43,-54.19 -14.49,-23.08 -24.18,-50.25 -29.02,-81.53 -4.84,-31.27 -7.27,-65.13 -7.27,-101.65l0 -299.33 167.54 0 0 265.84c0,15.64 0.55,31.86 1.68,48.6 1.11,16.74 4.49,32.2 10.05,46.34 5.59,14.13 14.14,25.69 25.71,34.63 11.51,8.92 28.1,13.38 49.7,13.38 21.58,0 39.07,-3.91 52.46,-11.71 13.41,-7.84 23.66,-18.24 30.73,-31.27 7.07,-13.04 11.73,-27.74 13.96,-44.14 2.25,-16.36 3.33,-33.48 3.33,-51.38l0 -270.3 167.57 0 0 542.83z"/>
   <path class="fil0" d="M2099.75 389.68c-24.56,-30.51 -56.96,-45.79 -97.17,-45.79 -14.14,0 -27.92,3.36 -41.33,10.05 -13.41,6.69 -20.11,18.24 -20.11,34.63 0,13.38 6.87,23.29 20.65,29.6 13.79,6.32 31.28,11.93 52.51,16.74 21.23,4.84 43.93,10.07 68.12,15.64 24.2,5.59 46.92,14.37 68.15,26.27 21.23,11.9 38.69,28.09 52.5,48.57 13.76,20.5 20.65,47.85 20.65,82.11 0,34.99 -7.64,63.86 -22.9,86.55 -15.27,22.73 -34.81,40.95 -58.63,54.74 -23.86,13.78 -50.65,23.46 -80.42,29.02 -29.77,5.58 -59.2,8.39 -88.22,8.39 -37.97,0 -76.34,-5.41 -115.06,-16.21 -38.73,-10.78 -71.46,-29.95 -98.3,-57.5l101.66 -112.83c15.64,19.37 32.96,34.09 51.93,44.14 19,10.05 41.13,15.06 66.47,15.06 19.35,0 36.86,-2.78 52.48,-8.37 15.64,-5.57 23.48,-15.79 23.48,-30.73 0,-14.12 -6.91,-24.74 -20.67,-31.81 -13.78,-7.07 -31.28,-13.04 -52.51,-17.9 -21.23,-4.84 -43.93,-10.05 -68.12,-15.62 -24.21,-5.61 -46.9,-13.98 -68.12,-25.14 -21.23,-11.15 -38.75,-27 -52.5,-47.47 -13.81,-20.47 -20.68,-47.82 -20.68,-82.11 0,-31.98 6.51,-59.55 19.55,-82.63 13.03,-23.08 30.17,-42.06 51.4,-56.99 21.21,-14.89 45.59,-25.84 73.16,-32.91 27.52,-7.09 55.44,-10.63 83.73,-10.63 35.76,0 71.85,5.21 108.35,15.64 36.49,10.43 67.39,29.03 92.71,55.87l-102.76 101.61z"/>
   <path class="fil0" d="M2662.69 389.68c-24.57,-30.51 -56.97,-45.79 -97.17,-45.79 -14.13,0 -27.92,3.36 -41.33,10.05 -13.41,6.69 -20.1,18.24 -20.1,34.63 0,13.38 6.86,23.29 20.65,29.6 13.78,6.32 31.27,11.93 52.5,16.74 21.23,4.84 43.94,10.07 68.12,15.64 24.21,5.59 46.92,14.37 68.15,26.27 21.23,11.9 38.7,28.09 52.51,48.57 13.75,20.5 20.65,47.85 20.65,82.11 0,34.99 -7.64,63.86 -22.91,86.55 -15.26,22.73 -34.81,40.95 -58.62,54.74 -23.86,13.78 -50.65,23.46 -80.43,29.02 -29.77,5.58 -59.2,8.39 -88.22,8.39 -37.97,0 -76.34,-5.41 -115.06,-16.21 -38.72,-10.78 -71.45,-29.95 -98.3,-57.5l101.66 -112.83c15.64,19.37 32.96,34.09 51.93,44.14 19,10.05 41.13,15.06 66.46,15.06 19.35,0 36.87,-2.78 52.48,-8.37 15.64,-5.57 23.49,-15.79 23.49,-30.73 0,-14.12 -6.92,-24.74 -20.68,-31.81 -13.78,-7.07 -31.27,-13.04 -52.5,-17.9 -21.23,-4.84 -43.93,-10.05 -68.12,-15.62 -24.21,-5.61 -46.89,-13.98 -68.12,-25.14 -21.23,-11.15 -38.75,-27 -52.51,-47.47 -13.81,-20.47 -20.67,-47.82 -20.67,-82.11 0,-31.98 6.51,-59.55 19.54,-82.63 13.04,-23.08 30.15,-42.06 51.38,-56.99 21.23,-14.89 45.62,-25.84 73.18,-32.91 27.52,-7.09 55.44,-10.63 83.74,-10.63 35.76,0 71.85,5.21 108.34,15.64 36.5,10.43 67.39,29.03 92.71,55.87l-102.76 101.61z"/>
   <polygon class="fil0" points="2063.75,1670.66 3537.83,1670.66 3537.83,1474.12 2063.75,1474.12 "/>
   <polygon class="fil0" points="2555.1,1375.85 3537.83,1375.85 3537.83,1179.31 2555.1,1179.31 "/>
   <polygon class="fil0" points="3046.48,1081.01 3537.83,1081.01 3537.83,884.47 3046.48,884.47 "/>
   <path class="fil0" d="M106.46 1819.39c-3.34,-4.21 -7.87,-7.35 -13.58,-9.37 -5.72,-2.01 -11.15,-3.03 -16.24,-3.03 -3.01,0 -6.1,0.35 -9.28,1.05 -3.13,0.7 -6.17,1.8 -8.94,3.31 -2.83,1.5 -5.14,3.48 -6.87,5.94 -1.78,2.45 -2.66,5.46 -2.66,8.97 0,5.66 2.13,9.97 6.34,12.93 4.21,3.01 9.55,5.59 15.96,7.67 6.44,2.13 13.36,4.26 20.75,6.34 7.37,2.13 14.31,5.14 20.72,8.99 6.44,3.86 11.79,9.08 15.99,15.59 4.21,6.51 6.34,15.21 6.34,26.14 0,10.38 -1.95,19.47 -5.82,27.2 -3.89,7.74 -9.12,14.19 -15.71,19.3 -6.61,5.12 -14.26,8.87 -22.98,11.35 -8.7,2.46 -17.95,3.69 -27.59,3.69 -12.16,0 -23.46,-1.83 -33.83,-5.54 -10.38,-3.68 -20.08,-9.67 -29.05,-17.95l29.33 -32.23c4.21,5.63 9.55,10 15.98,13.06 6.42,3.1 13.09,4.63 19.95,4.63 3.34,0 6.72,-0.38 10.18,-1.18 3.4,-0.8 6.46,-1.98 9.22,-3.58 2.73,-1.58 4.91,-3.61 6.59,-6.07 1.68,-2.48 2.51,-5.36 2.51,-8.72 0,-5.64 -2.16,-10.08 -6.44,-13.33 -4.33,-3.26 -9.73,-6.04 -16.24,-8.35 -6.51,-2.25 -13.58,-4.56 -21.16,-6.87 -7.57,-2.25 -14.61,-5.36 -21.12,-9.22 -6.52,-3.89 -11.94,-8.97 -16.24,-15.31 -4.31,-6.34 -6.47,-14.71 -6.47,-25.09 0,-10.07 1.98,-18.84 5.94,-26.41 3.96,-7.57 9.25,-13.91 15.84,-19.02 6.61,-5.09 14.21,-8.92 22.85,-11.51 8.6,-2.55 17.52,-3.83 26.67,-3.83 10.58,0 20.8,1.5 30.65,4.48 9.88,3.01 18.75,8.02 26.67,15.06l-28.27 30.9z"/>
   <path class="fil0" d="M311.16 1822.3c-4.04,-4.91 -9.02,-8.72 -14.91,-11.35 -5.89,-2.66 -12.73,-3.99 -20.45,-3.99 -7.77,0 -14.96,1.51 -21.55,4.51 -6.61,2.98 -12.33,7.17 -17.16,12.53 -4.84,5.36 -8.62,11.78 -11.35,19.17 -2.74,7.4 -4.09,15.42 -4.09,24.03 0,8.8 1.35,16.84 4.09,24.16 2.73,7.32 6.46,13.65 11.25,19.02 4.74,5.36 10.3,9.56 16.77,12.56 6.42,2.96 13.31,4.46 20.72,4.46 8.45,0 15.92,-1.75 22.46,-5.26 6.49,-3.53 11.88,-8.47 16.09,-14.81l34.34 25.64c-7.92,11.1 -17.95,19.27 -30.12,24.54 -12.13,5.31 -24.64,7.94 -37.5,7.94 -14.61,0 -28.09,-2.28 -40.4,-6.87 -12.33,-4.58 -22.98,-11.13 -31.95,-19.67 -9,-8.55 -15.99,-18.9 -21.01,-31.02 -5.01,-12.16 -7.54,-25.72 -7.54,-40.68 0,-14.96 2.54,-28.55 7.54,-40.7 5.02,-12.13 12.01,-22.48 21.01,-31 8.97,-8.55 19.62,-15.11 31.95,-19.7 12.31,-4.56 25.8,-6.86 40.4,-6.86 5.29,0 10.81,0.5 16.52,1.45 5.71,0.98 11.35,2.51 16.92,4.61 5.54,2.13 10.86,4.94 15.99,8.48 5.09,3.51 9.65,7.84 13.73,12.93l-31.73 25.89z"/>
   <polygon class="fil0" points="392.52,1773.69 433.72,1773.69 433.72,1960.71 392.52,1960.71 "/>
   <polygon class="fil0" points="496.06,1773.69 623.1,1773.69 623.1,1811.77 537.25,1811.77 537.25,1846.6 618.36,1846.6 618.36,1884.65 537.25,1884.65 537.25,1922.69 627.86,1922.69 627.86,1960.71 496.06,1960.71 "/>
   <polygon class="fil0" points="684.1,1773.69 740.11,1773.69 819.61,1903.67 820.14,1903.67 820.14,1773.69 861.37,1773.69 861.37,1960.71 807.46,1960.71 725.85,1827.58 725.3,1827.58 725.3,1960.71 684.1,1960.71 "/>
   <polygon class="fil0" points="958.81,1810.16 905.46,1810.16 905.46,1773.69 1053.38,1773.69 1053.38,1810.16 1000.02,1810.16 1000.02,1960.71 958.81,1960.71 "/>
   <polygon class="fil0" points="1096.96,1773.69 1138.16,1773.69 1138.16,1960.71 1096.96,1960.71 "/>
   <polygon class="fil0" points="1200.49,1773.69 1325.95,1773.69 1325.95,1811.77 1241.69,1811.77 1241.69,1849.78 1319.61,1849.78 1319.61,1887.8 1241.69,1887.8 1241.69,1960.71 1200.49,1960.71 "/>
   <polygon class="fil0" points="1378.26,1773.69 1419.46,1773.69 1419.46,1960.71 1378.26,1960.71 "/>
   <path class="fil0" d="M1602.49 1822.3c-4.06,-4.91 -9.04,-8.72 -14.93,-11.35 -5.92,-2.66 -12.71,-3.99 -20.47,-3.99 -7.75,0 -14.91,1.51 -21.5,4.51 -6.62,2.98 -12.33,7.17 -17.19,12.53 -4.84,5.36 -8.62,11.78 -11.35,19.17 -2.74,7.4 -4.09,15.42 -4.09,24.03 0,8.8 1.35,16.84 4.09,24.16 2.73,7.32 6.49,13.65 11.22,19.02 4.76,5.36 10.35,9.56 16.79,12.56 6.42,2.96 13.31,4.46 20.7,4.46 8.47,0 15.96,-1.75 22.48,-5.26 6.51,-3.53 11.88,-8.47 16.09,-14.81l34.34 25.64c-7.92,11.1 -17.95,19.27 -30.1,24.54 -12.13,5.31 -24.66,7.94 -37.52,7.94 -14.64,0 -28.07,-2.28 -40.42,-6.87 -12.3,-4.58 -22.96,-11.13 -31.96,-19.67 -8.95,-8.55 -15.96,-18.9 -20.98,-31.02 -5.02,-12.16 -7.52,-25.72 -7.52,-40.68 0,-14.96 2.5,-28.55 7.52,-40.7 5.02,-12.13 12.03,-22.48 20.98,-31 8.99,-8.55 19.65,-15.11 31.96,-19.7 12.35,-4.56 25.79,-6.86 40.42,-6.86 5.31,0 10.78,0.5 16.52,1.45 5.71,0.98 11.37,2.51 16.92,4.61 5.54,2.13 10.88,4.94 15.96,8.48 5.12,3.51 9.68,7.84 13.73,12.93l-31.68 25.89z"/>
   <path class="fil0" d="M1745.94 1773.69l34.08 0 81.33 187.02 -46.49 0 -16.09 -39.62 -72.66 0 -15.59 39.62 -45.42 0 80.83 -187.02zm15.81 54.41l-22.68 58.12 45.69 0 -23 -58.12z"/>
   <polygon class="fil0" points="2006.35,1773.69 2133.4,1773.69 2133.4,1811.77 2047.56,1811.77 2047.56,1846.6 2128.64,1846.6 2128.64,1884.65 2047.56,1884.65 2047.56,1922.69 2138.16,1922.69 2138.16,1960.71 2006.35,1960.71 "/>
   <path class="fil0" d="M2389.39 1819.39c-3.34,-4.21 -7.87,-7.35 -13.58,-9.37 -5.72,-2.01 -11.15,-3.03 -16.24,-3.03 -3.01,0 -6.1,0.35 -9.28,1.05 -3.13,0.7 -6.14,1.8 -8.97,3.31 -2.81,1.5 -5.11,3.48 -6.86,5.94 -1.75,2.45 -2.64,5.46 -2.64,8.97 0,5.66 2.13,9.97 6.34,12.93 4.21,3.01 9.55,5.59 15.96,7.67 6.44,2.13 13.33,4.26 20.73,6.34 7.39,2.13 14.33,5.14 20.75,8.99 6.44,3.86 11.73,9.08 15.98,15.59 4.21,6.51 6.34,15.21 6.34,26.14 0,10.38 -1.95,19.47 -5.82,27.2 -3.88,7.74 -9.12,14.19 -15.71,19.3 -6.61,5.12 -14.26,8.87 -23,11.35 -8.72,2.46 -17.92,3.69 -27.57,3.69 -12.16,0 -23.43,-1.83 -33.83,-5.54 -10.4,-3.68 -20.08,-9.67 -29.05,-17.95l29.33 -32.23c4.21,5.63 9.55,10 15.98,13.06 6.42,3.1 13.06,4.63 19.93,4.63 3.36,0 6.74,-0.38 10.15,-1.18 3.46,-0.8 6.51,-1.98 9.27,-3.58 2.71,-1.58 4.91,-3.61 6.59,-6.07 1.68,-2.48 2.51,-5.36 2.51,-8.72 0,-5.64 -2.16,-10.08 -6.44,-13.33 -4.33,-3.26 -9.78,-6.04 -16.29,-8.35 -6.49,-2.25 -13.56,-4.56 -21.11,-6.87 -7.57,-2.25 -14.61,-5.36 -21.12,-9.22 -6.52,-3.89 -11.94,-8.97 -16.24,-15.31 -4.34,-6.34 -6.49,-14.71 -6.49,-25.09 0,-10.07 2,-18.84 5.96,-26.41 3.94,-7.57 9.25,-13.91 15.84,-19.02 6.61,-5.09 14.21,-8.92 22.85,-11.51 8.6,-2.55 17.52,-3.83 26.67,-3.83 10.58,0 20.77,1.5 30.63,4.48 9.85,3.01 18.77,8.02 26.69,15.06l-28.27 30.9z"/>
   <path class="fil0" d="M2461.76 1867.2c0,-14.93 2.51,-28.55 7.52,-40.67 5.02,-12.16 12.03,-22.51 20.98,-31.03 8.99,-8.55 19.65,-15.11 31.96,-19.67 12.35,-4.59 25.81,-6.87 40.42,-6.87 14.61,0 28.1,2.28 40.42,6.87 12.31,4.56 22.98,11.13 31.96,19.67 8.97,8.53 15.97,18.88 21.01,31.03 5.01,12.13 7.52,25.74 7.52,40.67 0,14.96 -2.51,28.55 -7.52,40.68 -5.04,12.16 -12.03,22.51 -21.01,31.05 -8.97,8.55 -19.64,15.09 -31.96,19.65 -12.33,4.61 -25.81,6.86 -40.42,6.86 -14.61,0 -28.07,-2.25 -40.42,-6.86 -12.3,-4.56 -22.96,-11.1 -31.96,-19.65 -8.95,-8.55 -15.96,-18.9 -20.98,-31.05 -5.01,-12.13 -7.52,-25.72 -7.52,-40.68zm42.78 0c0,8.82 1.35,16.87 4.09,24.16 2.73,7.32 6.64,13.66 11.75,19.03 5.12,5.36 11.25,9.55 18.35,12.55 7.14,2.98 15.11,4.49 23.91,4.49 8.82,0 16.77,-1.51 23.91,-4.49 7.14,-3.01 13.26,-7.19 18.36,-12.55 5.09,-5.36 9.02,-11.71 11.76,-19.03 2.71,-7.3 4.09,-15.34 4.09,-24.16 0,-8.62 -1.38,-16.62 -4.09,-24.03 -2.74,-7.4 -6.66,-13.78 -11.76,-19.15 -5.11,-5.36 -11.22,-9.55 -18.36,-12.53 -7.15,-3.01 -15.09,-4.51 -23.91,-4.51 -8.8,0 -16.77,1.51 -23.91,4.51 -7.1,2.98 -13.24,7.17 -18.35,12.53 -5.11,5.36 -9.02,11.75 -11.75,19.15 -2.74,7.42 -4.09,15.42 -4.09,24.03z"/>
   <path class="fil0" d="M2837.11 1822.3c-4.06,-4.91 -9.05,-8.72 -14.94,-11.35 -5.91,-2.66 -12.7,-3.99 -20.47,-3.99 -7.74,0 -14.91,1.51 -21.5,4.51 -6.61,2.98 -12.33,7.17 -17.19,12.53 -4.84,5.36 -8.6,11.78 -11.35,19.17 -2.73,7.4 -4.09,15.42 -4.09,24.03 0,8.8 1.36,16.84 4.09,24.16 2.76,7.32 6.49,13.65 11.23,19.02 4.76,5.36 10.35,9.56 16.79,12.56 6.42,2.96 13.31,4.46 20.7,4.46 8.48,0 15.96,-1.75 22.49,-5.26 6.51,-3.53 11.88,-8.47 16.08,-14.81l34.34 25.64c-7.91,11.1 -17.94,19.27 -30.09,24.54 -12.13,5.31 -24.67,7.94 -37.52,7.94 -14.61,0 -28.08,-2.28 -40.43,-6.87 -12.3,-4.58 -22.95,-11.13 -31.96,-19.67 -8.94,-8.55 -15.96,-18.9 -20.97,-31.02 -5.02,-12.16 -7.52,-25.72 -7.52,-40.68 0,-14.96 2.51,-28.55 7.52,-40.7 5.01,-12.13 12.03,-22.48 20.97,-31 9,-8.55 19.65,-15.11 31.96,-19.7 12.35,-4.56 25.82,-6.86 40.43,-6.86 5.31,0 10.8,0.5 16.51,1.45 5.72,0.98 11.38,2.51 16.92,4.61 5.53,2.13 10.88,4.94 15.96,8.48 5.11,3.51 9.68,7.84 13.73,12.93l-31.68 25.89z"/>
   <polygon class="fil0" points="2918.44,1773.69 2959.64,1773.69 2959.64,1960.71 2918.44,1960.71 "/>
   <path class="fil0" d="M3081.96 1773.69l34.09 0 81.33 187.02 -46.49 0 -16.09 -39.62 -72.64 0 -15.62 39.62 -45.41 0 80.83 -187.02zm15.84 54.41l-22.71 58.12 45.69 0 -22.98 -58.12z"/>
   <polygon class="fil0" points="3240.95,1773.69 3282.15,1773.69 3282.15,1922.69 3358.5,1922.69 3358.5,1960.71 3240.95,1960.71 "/>
   <polygon class="fil0" points="3406.03,1773.69 3533.1,1773.69 3533.1,1811.77 3447.24,1811.77 3447.24,1846.6 3528.31,1846.6 3528.31,1884.65 3447.24,1884.65 3447.24,1922.69 3537.84,1922.69 3537.84,1960.71 3406.03,1960.71 "/>
   <path class="fil0" d="M157.69 1593.78c0,11.08 -1.68,21.31 -5.01,30.63 -3.36,9.35 -8.32,17.45 -14.91,24.31 -6.62,6.89 -14.86,12.26 -24.72,16.12 -9.88,3.86 -21.23,5.79 -34.08,5.79 -13.01,0 -24.46,-1.93 -34.34,-5.79 -9.85,-3.86 -18.09,-9.23 -24.69,-16.12 -6.62,-6.86 -11.58,-14.96 -14.94,-24.31 -3.3,-9.32 -5.01,-19.54 -5.01,-30.63l0 -114.91 41.23 0 0 113.31c0,5.81 0.9,11.2 2.76,16.13 1.83,4.92 4.43,9.2 7.79,12.79 3.33,3.63 7.35,6.44 12.03,8.47 4.67,2.03 9.73,3.03 15.17,3.03 5.46,0 10.47,-1 15.08,-3.03 4.56,-2.03 8.5,-4.84 11.89,-8.47 3.3,-3.59 5.91,-7.87 7.77,-12.79 1.85,-4.93 2.78,-10.32 2.78,-16.13l0 -113.31 41.2 0 0 114.91z"/>
   <polygon class="fil0" points="222.13,1478.88 284.49,1478.88 327.52,1600.93 328.04,1600.93 371.38,1478.88 433.44,1478.88 433.44,1665.89 392.26,1665.89 392.26,1522.48 391.74,1522.48 342.59,1665.89 311.16,1665.89 263.89,1522.48 263.34,1522.48 263.34,1665.89 222.13,1665.89 "/>
   <path class="fil0" d="M559.43 1478.88l34.09 0 81.35 187.02 -46.49 0 -16.11 -39.63 -72.66 0 -15.59 39.63 -45.42 0 80.83 -187.02zm15.86 54.41l-22.73 58.12 45.69 0 -22.96 -58.12z"/>
   <polygon class="fil0" points="720.04,1478.88 776.03,1478.88 855.52,1608.85 856.05,1608.85 856.05,1478.88 897.25,1478.88 897.25,1665.89 843.37,1665.89 761.79,1532.76 761.24,1532.76 761.24,1665.89 720.04,1665.89 "/>
   <polygon class="fil0" points="961.17,1478.88 1002.42,1478.88 1002.42,1665.9 961.17,1665.9 "/>
   <path class="fil0" d="M1158.75 1524.56c-3.34,-4.21 -7.87,-7.34 -13.58,-9.37 -5.72,-2 -11.15,-3.03 -16.24,-3.03 -3.01,0 -6.07,0.35 -9.28,1.05 -3.13,0.7 -6.14,1.8 -8.97,3.31 -2.81,1.51 -5.11,3.48 -6.86,5.97 -1.75,2.43 -2.64,5.43 -2.64,8.94 0,5.66 2.13,9.97 6.34,12.93 4.21,3.03 9.55,5.59 15.96,7.67 6.44,2.13 13.33,4.26 20.72,6.34 7.4,2.13 14.34,5.14 20.75,9 6.44,3.86 11.73,9.07 15.99,15.59 4.21,6.51 6.34,15.21 6.34,26.14 0,10.37 -1.95,19.47 -5.82,27.19 -3.89,7.74 -9.12,14.19 -15.71,19.3 -6.61,5.11 -14.26,8.87 -22.98,11.35 -8.75,2.45 -17.95,3.68 -27.59,3.68 -12.16,0 -23.43,-1.83 -33.83,-5.53 -10.4,-3.69 -20.08,-9.68 -29.05,-17.95l29.33 -32.23c4.21,5.64 9.55,10 15.98,13.06 6.42,3.1 13.06,4.64 19.93,4.64 3.36,0 6.74,-0.38 10.15,-1.18 3.45,-0.8 6.51,-1.98 9.27,-3.59 2.71,-1.58 4.91,-3.61 6.59,-6.06 1.68,-2.49 2.51,-5.36 2.51,-8.72 0,-5.64 -2.16,-10.07 -6.44,-13.33 -4.33,-3.25 -9.78,-6.04 -16.29,-8.32 -6.49,-2.28 -13.56,-4.59 -21.11,-6.89 -7.57,-2.26 -14.61,-5.36 -21.12,-9.22 -6.52,-3.89 -11.94,-8.97 -16.24,-15.32 -4.34,-6.34 -6.49,-14.71 -6.49,-25.09 0,-10.05 2,-18.85 5.96,-26.41 3.94,-7.57 9.25,-13.91 15.84,-19.03 6.61,-5.09 14.21,-8.92 22.85,-11.48 8.6,-2.58 17.52,-3.84 26.69,-3.84 10.56,0 20.75,1.48 30.63,4.46 9.83,3.01 18.75,8.02 26.67,15.07l-28.27 30.9z"/>
   <polygon class="fil0" points="1280.52,1515.34 1227.16,1515.34 1227.16,1478.88 1375.06,1478.88 1375.06,1515.34 1321.7,1515.34 1321.7,1665.89 1280.52,1665.89 "/>
   <polygon class="fil0" points="1421.82,1478.88 1463.02,1478.88 1463.02,1665.9 1421.82,1665.9 "/>
   <path class="fil0" d="M1649.25 1527.48c-4.06,-4.91 -9.04,-8.72 -14.93,-11.35 -5.92,-2.66 -12.71,-3.99 -20.47,-3.99 -7.74,0 -14.91,1.51 -21.5,4.51 -6.62,2.98 -12.33,7.17 -17.19,12.53 -4.84,5.36 -8.62,11.78 -11.35,19.17 -2.74,7.39 -4.09,15.41 -4.09,24.03 0,8.8 1.35,16.84 4.09,24.16 2.73,7.32 6.49,13.65 11.22,19.02 4.76,5.36 10.35,9.55 16.79,12.56 6.42,2.96 13.31,4.45 20.7,4.45 8.47,0 15.96,-1.75 22.48,-5.26 6.51,-3.54 11.88,-8.48 16.09,-14.81l34.34 25.64c-7.92,11.1 -17.95,19.27 -30.1,24.53 -12.13,5.31 -24.66,7.95 -37.52,7.95 -14.61,0 -28.07,-2.28 -40.42,-6.87 -12.3,-4.59 -22.96,-11.13 -31.96,-19.67 -8.95,-8.55 -15.96,-18.9 -20.98,-31.03 -5.01,-12.16 -7.52,-25.71 -7.52,-40.67 0,-14.96 2.51,-28.55 7.52,-40.7 5.02,-12.13 12.03,-22.49 20.98,-31 8.99,-8.55 19.65,-15.14 31.96,-19.7 12.35,-4.56 25.81,-6.87 40.42,-6.87 5.31,0 10.78,0.5 16.52,1.46 5.71,0.98 11.37,2.51 16.92,4.61 5.54,2.13 10.88,4.94 15.96,8.47 5.12,3.51 9.68,7.85 13.74,12.94l-31.69 25.89z"/>
   <path class="fil0" d="M1795.84 1478.88l34.09 0 81.32 187.02 -46.49 0 -16.08 -39.63 -72.64 0 -15.62 39.63 -45.41 0 80.83 -187.02zm15.84 54.41l-22.71 58.12 45.7 0 -22.98 -58.12z"/>
   <polygon class="fil0" points="0.01,1184.07 41.21,1184.07 41.21,1333.07 117.55,1333.07 117.55,1371.09 0.01,1371.09 "/>
   <polygon class="fil0" points="133.67,1258.56 99.86,1258.56 119.4,1184.07 157.43,1184.07 "/>
   <polygon class="fil0" points="212.64,1184.07 253.85,1184.07 253.85,1371.09 212.64,1371.09 "/>
   <polygon class="fil0" points="317.76,1184.07 373.75,1184.07 453.25,1314.05 453.78,1314.05 453.78,1184.07 494.98,1184.07 494.98,1371.09 441.1,1371.09 359.52,1237.95 358.97,1237.95 358.97,1371.09 317.76,1371.09 "/>
   <polygon class="fil0" points="559.43,1184.07 615.45,1184.07 694.95,1314.05 695.48,1314.05 695.48,1184.07 736.7,1184.07 736.7,1371.09 682.79,1371.09 601.17,1237.95 600.64,1237.95 600.64,1371.09 559.43,1371.09 "/>
   <path class="fil0" d="M791.08 1277.57c0,-14.93 2.53,-28.55 7.54,-40.67 5.02,-12.16 12.01,-22.51 21,-31.03 8.97,-8.54 19.63,-15.11 31.96,-19.67 12.3,-4.58 25.79,-6.86 40.4,-6.86 14.64,0 28.1,2.28 40.42,6.86 12.3,4.56 22.98,11.13 31.96,19.67 8.97,8.53 15.96,18.88 21,31.03 5.02,12.13 7.52,25.74 7.52,40.67 0,14.99 -2.51,28.55 -7.52,40.68 -5.04,12.16 -12.03,22.51 -21,31.05 -8.97,8.55 -19.65,15.09 -31.96,19.65 -12.33,4.61 -25.79,6.86 -40.42,6.86 -14.61,0 -28.1,-2.25 -40.4,-6.86 -12.33,-4.56 -22.98,-11.1 -31.96,-19.65 -8.99,-8.55 -15.98,-18.9 -21,-31.05 -5.02,-12.13 -7.54,-25.69 -7.54,-40.68zm42.81 0c0,8.82 1.35,16.87 4.09,24.16 2.71,7.32 6.64,13.66 11.78,19.03 5.09,5.36 11.2,9.55 18.32,12.55 7.15,2.98 15.09,4.49 23.91,4.49 8.82,0 16.77,-1.51 23.91,-4.49 7.15,-3.01 13.24,-7.19 18.37,-12.55 5.09,-5.36 9.02,-11.71 11.73,-19.03 2.74,-7.29 4.09,-15.34 4.09,-24.16 0,-8.62 -1.35,-16.61 -4.09,-24.03 -2.71,-7.39 -6.64,-13.78 -11.73,-19.15 -5.14,-5.36 -11.22,-9.55 -18.37,-12.53 -7.14,-3.01 -15.08,-4.51 -23.91,-4.51 -8.82,0 -16.77,1.51 -23.91,4.51 -7.11,2.98 -13.23,7.17 -18.32,12.53 -5.14,5.36 -9.07,11.76 -11.78,19.15 -2.74,7.42 -4.09,15.42 -4.09,24.03z"/>
   <polygon class="fil0" points="1028.83,1184.07 1075.85,1184.07 1122.07,1306.65 1122.59,1306.65 1169.64,1184.07 1213.72,1184.07 1136.6,1371.09 1103.59,1371.09 "/>
   <path class="fil0" d="M1306.67 1184.07l34.09 0 81.32 187.02 -46.49 0 -16.09 -39.62 -72.66 0 -15.59 39.62 -45.41 0 80.83 -187.02zm15.84 54.41l-22.71 58.12 45.69 0 -22.98 -58.12z"/>
   <polygon class="fil0" points="1457.48,1333.06 1552.3,1220.53 1460.89,1220.53 1460.89,1184.06 1602.22,1184.06 1602.22,1220.53 1509.24,1333.06 1605.38,1333.06 1605.38,1371.07 1457.48,1371.07 "/>
   <polygon class="fil0" points="1659.54,1184.07 1700.74,1184.07 1700.74,1371.09 1659.54,1371.09 "/>
   <path class="fil0" d="M1754.63 1277.57c0,-14.93 2.51,-28.55 7.52,-40.67 5.01,-12.16 12.03,-22.51 20.97,-31.03 9,-8.54 19.65,-15.11 31.96,-19.67 12.36,-4.58 25.82,-6.86 40.43,-6.86 14.61,0 28.09,2.28 40.42,6.86 12.3,4.56 22.98,11.13 31.96,19.67 8.97,8.53 15.96,18.88 21,31.03 5.02,12.13 7.52,25.74 7.52,40.67 0,14.99 -2.5,28.55 -7.52,40.68 -5.04,12.16 -12.03,22.51 -21,31.05 -8.97,8.55 -19.65,15.09 -31.96,19.65 -12.33,4.61 -25.82,6.86 -40.42,6.86 -14.61,0 -28.07,-2.25 -40.43,-6.86 -12.3,-4.56 -22.95,-11.1 -31.96,-19.65 -8.94,-8.55 -15.96,-18.9 -20.97,-31.05 -5.02,-12.13 -7.52,-25.69 -7.52,-40.68zm42.78 0c0,8.82 1.36,16.87 4.09,24.16 2.76,7.32 6.64,13.66 11.76,19.03 5.11,5.36 11.25,9.55 18.34,12.55 7.15,2.98 15.14,4.49 23.91,4.49 8.82,0 16.77,-1.51 23.91,-4.49 7.15,-3.01 13.26,-7.19 18.37,-12.55 5.09,-5.36 9.02,-11.71 11.76,-19.03 2.71,-7.29 4.09,-15.34 4.09,-24.16 0,-8.62 -1.38,-16.61 -4.09,-24.03 -2.74,-7.39 -6.67,-13.78 -11.76,-19.15 -5.12,-5.36 -11.22,-9.55 -18.37,-12.53 -7.14,-3.01 -15.09,-4.51 -23.91,-4.51 -8.77,0 -16.77,1.51 -23.91,4.51 -7.09,2.98 -13.24,7.17 -18.34,12.53 -5.12,5.36 -9,11.76 -11.76,19.15 -2.73,7.42 -4.09,15.42 -4.09,24.03z"/>
   <polygon class="fil0" points="2010.84,1184.07 2066.86,1184.07 2146.35,1314.05 2146.88,1314.05 2146.88,1184.07 2188.06,1184.07 2188.06,1371.09 2134.17,1371.09 2052.59,1237.95 2052.04,1237.95 2052.04,1371.09 2010.84,1371.09 "/>
   <polygon class="fil0" points="2254.1,1184.07 2381.17,1184.07 2381.17,1222.12 2295.3,1222.12 2295.3,1256.98 2376.38,1256.98 2376.38,1295.02 2295.3,1295.02 2295.3,1333.07 2385.91,1333.07 2385.91,1371.09 2254.1,1371.09 "/>
   <path class="fil0" d="M0.01 889.25l61.83 0c14.96,0 29.17,1.68 42.65,5.04 13.46,3.33 25.21,8.77 35.24,16.24 10.05,7.5 18.02,17.21 23.91,29.2 5.89,11.95 8.84,26.49 8.84,43.56 0,15.16 -2.86,28.47 -8.57,40.03 -5.72,11.53 -13.46,21.2 -23.11,29.04 -9.7,7.85 -20.88,13.81 -33.56,17.85 -12.68,4.04 -25.96,6.07 -39.87,6.07l-67.37 0 0 -187.02zm41.21 148.99l21.4 0c9.5,0 18.37,-0.97 26.54,-2.93 8.2,-1.91 15.29,-5.16 21.28,-9.63 6,-4.49 10.71,-10.38 14.12,-17.7 3.43,-7.32 5.16,-16.24 5.16,-26.84 0,-9.12 -1.73,-17.09 -5.16,-23.86 -3.41,-6.79 -8.05,-12.38 -13.84,-16.77 -5.84,-4.43 -12.65,-7.74 -20.5,-9.92 -7.85,-2.2 -16.07,-3.28 -24.69,-3.28l-24.31 0 0 110.93z"/>
   <polygon class="fil0" points="226.38,889.26 267.58,889.26 267.58,1076.28 226.38,1076.28 "/>
   <path class="fil0" d="M331.5 889.25l69.45 0c9.7,0 18.85,0.87 27.47,2.66 8.65,1.78 16.17,4.81 22.58,9.09 6.44,4.31 11.53,10.15 15.34,17.42 3.79,7.32 5.69,16.52 5.69,27.64 0,10.91 -1.78,20.08 -5.31,27.47 -3.51,7.37 -8.35,13.28 -14.49,17.69 -6.2,4.39 -13.48,7.52 -21.93,9.38 -8.47,1.85 -17.62,2.76 -27.49,2.76l-30.1 0 0 72.91 -41.2 0 0 -187.02zm41.2 79.24l27.47 0c3.71,0 7.27,-0.35 10.67,-1.07 3.46,-0.67 6.52,-1.88 9.28,-3.54 2.71,-1.68 4.91,-3.99 6.59,-6.86 1.68,-2.91 2.5,-6.57 2.5,-10.95 0,-4.79 -1.07,-8.6 -3.3,-11.5 -2.21,-2.93 -4.99,-5.16 -8.45,-6.74 -3.43,-1.58 -7.25,-2.61 -11.48,-3.05 -4.23,-0.4 -8.27,-0.63 -12.16,-0.63l-21.13 0 0 44.36z"/>
   <path class="fil0" d="M566.3 889.25l34.09 0 81.35 187.02 -46.49 0 -16.12 -39.62 -72.66 0 -15.59 39.62 -45.41 0 80.83 -187.02zm15.86 54.41l-22.73 58.12 45.69 0 -22.95 -58.12z"/>
   <path class="fil0" d="M726.91 889.25l72.38 0c9.48,0 18.52,0.95 27.05,2.78 8.55,1.85 16.03,4.94 22.48,9.25 6.42,4.31 11.53,10.15 15.31,17.42 3.79,7.32 5.67,16.41 5.67,27.37 0,13.21 -3.41,24.44 -10.28,33.66 -6.86,9.25 -16.94,15.09 -30.12,17.57l47.54 78.97 -49.38 0 -39.1 -74.76 -20.35 0 0 74.76 -41.21 0 0 -187.02zm41.21 77.42l24.31 0c3.68,0 7.59,-0.15 11.75,-0.43 4.13,-0.25 7.87,-1.05 11.2,-2.36 3.36,-1.33 6.14,-3.38 8.35,-6.22 2.18,-2.83 3.28,-6.79 3.28,-11.88 0,-4.76 -0.95,-8.55 -2.91,-11.37 -1.96,-2.81 -4.39,-4.97 -7.4,-6.46 -2.98,-1.51 -6.44,-2.51 -10.3,-3.03 -3.89,-0.53 -7.67,-0.78 -11.35,-0.78l-26.94 0 0 42.53z"/>
   <polygon class="fil0" points="955.89,925.71 902.54,925.71 902.54,889.25 1050.46,889.25 1050.46,925.71 997.1,925.71 997.1,1076.26 955.89,1076.26 "/>
   <polygon class="fil0" points="1097.23,889.26 1138.43,889.26 1138.43,1076.28 1097.23,1076.28 "/>
   <polygon class="fil0" points="1202.34,889.25 1264.7,889.25 1307.73,1011.3 1308.26,1011.3 1351.59,889.25 1413.64,889.25 1413.64,1076.26 1372.45,1076.26 1372.45,932.85 1371.91,932.85 1322.79,1076.26 1291.36,1076.26 1244.1,932.85 1243.54,932.85 1243.54,1076.26 1202.34,1076.26 "/>
   <polygon class="fil0" points="1479.69,889.25 1606.73,889.25 1606.73,927.31 1520.89,927.31 1520.89,962.15 1601.97,962.15 1601.97,1000.2 1520.89,1000.2 1520.89,1038.24 1611.49,1038.24 1611.49,1076.26 1479.69,1076.26 "/>
   <polygon class="fil0" points="1670.91,889.25 1726.93,889.25 1806.43,1019.22 1806.96,1019.22 1806.96,889.25 1848.13,889.25 1848.13,1076.26 1794.25,1076.26 1712.67,943.13 1712.12,943.13 1712.12,1076.26 1670.91,1076.26 "/>
   <polygon class="fil0" points="1948.79,925.71 1895.43,925.71 1895.43,889.25 2043.32,889.25 2043.32,925.71 1989.96,925.71 1989.96,1076.26 1948.79,1076.26 "/>
   <path class="fil0" d="M2080.59 982.76c0,-14.94 2.51,-28.55 7.52,-40.68 5.02,-12.16 12.03,-22.51 20.98,-31 8.99,-8.57 19.65,-15.13 31.96,-19.69 12.35,-4.57 25.81,-6.87 40.42,-6.87 14.61,0 28.1,2.3 40.42,6.87 12.31,4.56 22.98,11.13 31.93,19.69 8.99,8.5 15.99,18.85 21.03,31 5.01,12.13 7.52,25.74 7.52,40.68 0,14.98 -2.51,28.55 -7.52,40.67 -5.04,12.16 -12.03,22.51 -21.03,31.05 -8.95,8.55 -19.62,15.09 -31.93,19.65 -12.33,4.61 -25.81,6.87 -40.42,6.87 -14.61,0 -28.07,-2.26 -40.42,-6.87 -12.3,-4.56 -22.96,-11.1 -31.96,-19.65 -8.94,-8.55 -15.96,-18.9 -20.98,-31.05 -5.01,-12.13 -7.52,-25.69 -7.52,-40.67zm42.78 0c0,8.82 1.35,16.87 4.09,24.18 2.73,7.3 6.64,13.63 11.75,19 5.12,5.36 11.23,9.55 18.35,12.56 7.14,2.98 15.11,4.48 23.91,4.48 8.82,0 16.77,-1.51 23.91,-4.48 7.12,-3.01 13.26,-7.2 18.37,-12.56 5.09,-5.36 9.02,-11.7 11.75,-19 2.71,-7.32 4.09,-15.36 4.09,-24.18 0,-8.6 -1.38,-16.62 -4.09,-24.03 -2.73,-7.4 -6.66,-13.79 -11.75,-19.15 -5.12,-5.36 -11.25,-9.55 -18.37,-12.53 -7.15,-3.01 -15.09,-4.51 -23.91,-4.51 -8.8,0 -16.77,1.5 -23.91,4.51 -7.12,2.98 -13.24,7.16 -18.35,12.53 -5.11,5.36 -9.02,11.76 -11.75,19.15 -2.74,7.42 -4.09,15.44 -4.09,24.03z"/>
   <path class="fil0" d="M2441.38 889.25l69.47 0c9.67,0 18.85,0.87 27.44,2.66 8.65,1.78 16.16,4.81 22.63,9.09 6.42,4.31 11.5,10.15 15.29,17.42 3.81,7.32 5.69,16.52 5.69,27.64 0,10.91 -1.78,20.08 -5.29,27.47 -3.54,7.37 -8.38,13.28 -14.51,17.69 -6.17,4.39 -13.48,7.52 -21.93,9.38 -8.47,1.85 -17.62,2.76 -27.49,2.76l-30.1 0 0 72.91 -41.2 0 0 -187.02zm41.2 79.24l27.49 0c3.69,0 7.25,-0.35 10.71,-1.07 3.4,-0.67 6.49,-1.88 9.22,-3.54 2.73,-1.68 4.91,-3.99 6.59,-6.86 1.68,-2.91 2.51,-6.57 2.51,-10.95 0,-4.79 -1.08,-8.6 -3.31,-11.5 -2.18,-2.93 -4.99,-5.16 -8.42,-6.74 -3.46,-1.58 -7.27,-2.61 -11.51,-3.05 -4.23,-0.4 -8.27,-0.63 -12.13,-0.63l-21.16 0 0 44.36z"/>
   <polygon class="fil0" points="2635.8,889.25 2762.86,889.25 2762.86,927.31 2676.99,927.31 2676.99,962.15 2758.08,962.15 2758.08,1000.2 2676.99,1000.2 2676.99,1038.24 2767.6,1038.24 2767.6,1076.26 2635.8,1076.26 "/>
   <path class="fil0" d="M2827.03 889.25l72.38 0c9.5,0 18.52,0.95 27.09,2.78 8.5,1.85 15.99,4.94 22.44,9.25 6.42,4.31 11.5,10.15 15.31,17.42 3.79,7.32 5.67,16.41 5.67,27.37 0,13.21 -3.41,24.44 -10.28,33.66 -6.89,9.25 -16.89,15.09 -30.1,17.57l47.52 78.97 -49.38 0 -39.1 -74.76 -20.35 0 0 74.76 -41.2 0 0 -187.02zm41.2 77.42l24.31 0c3.71,0 7.62,-0.15 11.76,-0.43 4.13,-0.25 7.87,-1.05 11.22,-2.36 3.33,-1.33 6.1,-3.38 8.32,-6.22 2.21,-2.83 3.29,-6.79 3.29,-11.88 0,-4.76 -0.95,-8.55 -2.91,-11.37 -1.9,-2.81 -4.38,-4.97 -7.37,-6.46 -3.01,-1.51 -6.46,-2.51 -10.32,-3.03 -3.86,-0.53 -7.67,-0.78 -11.35,-0.78l-26.95 0 0 42.53z"/>
  </g>
 </g>
</svg>
