<?xml version="1.0" encoding="UTF-8"?>
<!DOCTYPE svg PUBLIC "-//W3C//DTD SVG 1.1//EN" "http://www.w3.org/Graphics/SVG/1.1/DTD/svg11.dtd">
<!-- Creator: CorelDRAW (Evaluation Version) -->
<svg xmlns="http://www.w3.org/2000/svg" xml:space="preserve" width="59.9995mm" height="29.9997mm" version="1.1" style="shape-rendering:geometricPrecision; text-rendering:geometricPrecision; image-rendering:optimizeQuality; fill-rule:evenodd; clip-rule:evenodd"
viewBox="0 0 2311.83 1155.91"
 xmlns:xlink="http://www.w3.org/1999/xlink"
 xmlns:xodm="http://www.corel.com/coreldraw/odm/2003">
 <defs>
  <style type="text/css">
   <![CDATA[
    .fil0 {fill:#293B5B;fill-rule:nonzero}
   ]]>
  </style>
 </defs>
 <g id="Layer_x0020_1">
  <metadata id="CorelCorpID_0Corel-Layer"/>
  <path class="fil0" d="M235.69 266.31c0,16.58 -2.5,31.85 -7.5,45.79 -5,13.96 -12.44,26.06 -22.31,36.32 -9.87,10.26 -22.17,18.29 -36.9,24.09 -14.75,5.78 -31.73,8.68 -50.93,8.68 -19.48,0 -36.59,-2.91 -51.33,-8.68 -14.73,-5.79 -27.03,-13.82 -36.9,-24.09 -9.87,-10.26 -17.32,-22.36 -22.31,-36.32 -5,-13.94 -7.5,-29.21 -7.5,-45.79l0 -171.73 61.59 0 0 169.37c0,8.69 1.38,16.72 4.15,24.07 2.76,7.38 6.64,13.76 11.64,19.15 5,5.39 11,9.61 17.97,12.63 6.97,3.03 14.55,4.54 22.7,4.54 8.16,0 15.66,-1.51 22.5,-4.54 6.85,-3.02 12.76,-7.23 17.77,-12.63 5,-5.4 8.89,-11.77 11.65,-19.15 2.77,-7.35 4.15,-15.39 4.15,-24.07l0 -169.37 61.59 0 0 171.73zm56.85 -171.73l83.69 0 118.83 194.24 0.81 0 0 -194.24 61.57 0 0 279.51 -80.54 0 -121.98 -198.97 -0.79 0 0 198.97 -61.59 0 0 -279.51zm320.95 0l61.59 0 0 279.51 -61.59 0 0 -279.51zm90.01 -0l70.28 0 69.08 183.18 0.8 0 70.26 -183.18 65.93 0 -115.27 279.51 -49.35 0 -111.72 -279.51zm307.93 0l189.89 0 0 56.84 -128.3 0 0 52.12 121.19 0 0 56.84 -121.19 0 0 56.86 135.41 0 0 56.85 -197 0 0 -279.51zm246.34 0l108.17 0c14.22,0 27.69,1.39 40.47,4.15 12.77,2.76 23.95,7.37 33.56,13.82 9.6,6.44 17.22,15.13 22.89,26.04 5.66,10.93 8.5,24.55 8.5,40.87 0,19.74 -5.14,36.51 -15.4,50.33 -10.26,13.81 -25.27,22.56 -45,26.25l71.06 118.04 -73.83 0 -58.44 -111.72 -30.39 0 0 111.72 -61.59 0 0 -279.51zm61.59 115.67l36.32 0c5.52,0 11.37,-0.2 17.56,-0.6 6.19,-0.39 11.79,-1.58 16.79,-3.55 4.99,-1.97 9.14,-5.07 12.43,-9.28 3.29,-4.2 4.93,-10.13 4.93,-17.77 0,-7.09 -1.44,-12.75 -4.33,-16.98 -2.9,-4.2 -6.58,-7.42 -11.05,-9.66 -4.48,-2.23 -9.61,-3.75 -15.4,-4.54 -5.79,-0.79 -11.45,-1.18 -16.98,-1.18l-40.26 0 0 63.56zm332.41 -47.37c-5.01,-6.32 -11.79,-10.99 -20.34,-14.02 -8.55,-3.02 -16.65,-4.54 -24.27,-4.54 -4.47,0 -9.08,0.53 -13.81,1.58 -4.74,1.06 -9.23,2.7 -13.43,4.94 -4.22,2.24 -7.64,5.21 -10.26,8.89 -2.64,3.68 -3.95,8.16 -3.95,13.42 0,8.43 3.17,14.87 9.47,19.34 6.32,4.48 14.28,8.29 23.9,11.46 9.59,3.15 19.92,6.31 30.97,9.47 11.07,3.15 21.38,7.63 30.99,13.42 9.61,5.79 17.57,13.57 23.89,23.3 6.31,9.73 9.47,22.77 9.47,39.08 0,15.54 -2.91,29.09 -8.68,40.65 -5.79,11.6 -13.62,21.19 -23.49,28.83 -9.87,7.63 -21.33,13.28 -34.35,16.96 -13.03,3.68 -26.79,5.53 -41.25,5.53 -18.16,0 -35.02,-2.76 -50.54,-8.29 -15.54,-5.52 -30,-14.46 -43.43,-26.84l43.83 -48.16c6.32,8.43 14.27,14.94 23.88,19.55 9.61,4.61 19.55,6.9 29.81,6.9 5.01,0 10.07,-0.6 15.2,-1.78 5.14,-1.18 9.75,-2.96 13.82,-5.33 4.08,-2.37 7.37,-5.39 9.87,-9.08 2.5,-3.68 3.75,-8.02 3.75,-13.02 0,-8.43 -3.22,-15.06 -9.68,-19.94 -6.44,-4.87 -14.55,-9.01 -24.27,-12.44 -9.75,-3.41 -20.27,-6.84 -31.58,-10.26 -11.32,-3.43 -21.86,-8.02 -31.59,-13.82 -9.73,-5.78 -17.83,-13.41 -24.28,-22.89 -6.45,-9.47 -9.68,-21.98 -9.68,-37.5 0,-15.01 2.96,-28.17 8.89,-39.49 5.91,-11.31 13.81,-20.78 23.68,-28.42 9.88,-7.63 21.26,-13.35 34.16,-17.17 12.89,-3.82 26.18,-5.72 39.87,-5.72 15.8,0 31.06,2.23 45.8,6.7 14.73,4.48 28.03,11.99 39.88,22.51l-42.25 46.19zm87.63 -68.3l61.59 0 0 279.51 -61.59 0 0 -279.51zm171.74 54.48l-79.75 0 0 -54.48 221.09 0 0 54.48 -79.75 0 0 225.03 -61.59 0 0 -225.03zm228.18 -54.48l50.93 0 121.59 279.51 -69.49 0 -24.07 -59.23 -108.57 0 -23.3 59.23 -67.9 0 120.8 -279.51zm23.69 81.33l-33.96 86.86 68.29 0 -34.33 -86.86zm-2163 357.49l55.95 0c13.56,0 26.42,1.52 38.62,4.54 12.19,3.03 22.83,7.94 31.92,14.71 9.09,6.78 16.3,15.58 21.64,26.42 5.34,10.83 8.01,23.99 8.01,39.45 0,13.71 -2.58,25.78 -7.76,36.22 -5.19,10.44 -12.17,19.21 -20.93,26.3 -8.75,7.1 -18.88,12.48 -30.35,16.14 -11.49,3.67 -23.52,5.51 -36.11,5.51l-60.96 0 0 -169.29zm37.3 134.85l19.37 0c8.6,0 16.61,-0.87 24.03,-2.64 7.41,-1.74 13.82,-4.66 19.25,-8.72 5.41,-4.07 9.68,-9.39 12.79,-16.01 3.1,-6.62 4.66,-14.71 4.66,-24.28 0,-8.28 -1.56,-15.49 -4.66,-21.62 -3.11,-6.15 -7.3,-11.2 -12.56,-15.19 -5.26,-3.98 -11.43,-6.97 -18.53,-8.97 -7.09,-2 -14.54,-2.99 -22.36,-2.99l-21.99 0 0 100.42zm145.61 -134.85l115.01 0 0 34.43 -77.71 0 0 31.56 73.4 0 0 34.43 -73.4 0 0 34.43 82.02 0 0 34.43 -119.32 0 0 -169.29zm302.46 157.33c-11,5.73 -22.47,9.88 -34.43,12.44 -11.95,2.54 -24.15,3.82 -36.58,3.82 -13.24,0 -25.43,-2.07 -36.59,-6.21 -11.16,-4.15 -20.8,-10.09 -28.93,-17.82 -8.13,-7.72 -14.46,-17.09 -19,-28.09 -4.55,-11.01 -6.82,-23.28 -6.82,-36.82 0,-13.56 2.27,-25.83 6.82,-36.82 4.54,-11 10.88,-20.36 19,-28.1 8.13,-7.73 17.77,-13.67 28.93,-17.82 11.16,-4.13 23.35,-6.21 36.59,-6.21 13.54,0 26.02,1.63 37.42,4.9 11.39,3.26 21.4,8.88 30,16.86l-26.3 28.69c-5.1,-5.26 -10.83,-9.24 -17.21,-11.96 -6.37,-2.7 -14.35,-4.07 -23.91,-4.07 -7.98,0 -15.18,1.36 -21.64,4.07 -6.46,2.72 -12,6.5 -16.63,11.36 -4.62,4.85 -8.17,10.63 -10.64,17.33 -2.46,6.69 -3.7,13.94 -3.7,21.76 0,7.96 1.24,15.26 3.7,21.87 2.47,6.62 6.02,12.36 10.64,17.22 4.62,4.85 10.17,8.64 16.63,11.35 6.46,2.72 13.66,4.07 21.64,4.07 8.13,0 15.14,-0.91 21.04,-2.75 5.89,-1.83 10.59,-3.71 14.09,-5.63l0 -27.48 -30.35 0 0 -34.43 66.22 0 0 88.46zm34.19 -157.33l37.3 0 0 134.85 69.11 0 0 34.43 -106.4 0 0 -169.29zm126.48 -0.01l37.3 0 0 169.29 -37.3 0 0 -169.29zm225.71 41.37c-3.03,-3.82 -7.14,-6.65 -12.31,-8.48 -5.18,-1.83 -10.08,-2.76 -14.71,-2.76 -2.7,0 -5.49,0.32 -8.36,0.96 -2.87,0.64 -5.59,1.63 -8.15,2.99 -2.54,1.35 -4.62,3.14 -6.21,5.37 -1.59,2.24 -2.39,4.95 -2.39,8.13 0,5.11 1.92,9.01 5.74,11.72 3.83,2.72 8.65,5.03 14.48,6.93 5.82,1.92 12.07,3.83 18.76,5.75 6.7,1.9 12.95,4.62 18.77,8.13 5.82,3.51 10.65,8.21 14.48,14.11 3.82,5.9 5.74,13.78 5.74,23.67 0,9.41 -1.75,17.62 -5.26,24.63 -3.51,7.02 -8.25,12.83 -14.23,17.45 -5.98,4.62 -12.91,8.05 -20.8,10.28 -7.9,2.23 -16.23,3.34 -24.98,3.34 -11.01,0 -21.21,-1.67 -30.61,-5.02 -9.41,-3.34 -18.17,-8.77 -26.3,-16.26l26.55 -29.17c3.82,5.1 8.64,9.05 14.46,11.84 5.82,2.79 11.83,4.17 18.05,4.17 3.03,0 6.09,-0.35 9.2,-1.08 3.11,-0.72 5.9,-1.79 8.38,-3.22 2.46,-1.44 4.46,-3.26 5.98,-5.51 1.51,-2.23 2.27,-4.85 2.27,-7.88 0,-5.1 -1.96,-9.12 -5.86,-12.07 -3.91,-2.95 -8.81,-5.46 -14.71,-7.54 -5.9,-2.07 -12.27,-4.13 -19.12,-6.21 -6.87,-2.07 -13.24,-4.87 -19.14,-8.38 -5.9,-3.49 -10.79,-8.13 -14.7,-13.86 -3.91,-5.74 -5.86,-13.31 -5.86,-22.71 0,-9.08 1.79,-17.06 5.37,-23.91 3.59,-6.85 8.37,-12.59 14.36,-17.21 5.98,-4.62 12.87,-8.09 20.67,-10.41 7.82,-2.3 15.86,-3.46 24.16,-3.46 9.57,0 18.81,1.36 27.73,4.07 8.93,2.72 16.98,7.26 24.16,13.63l-25.58 27.97zm86.31 -8.37l-48.29 0 0 -32.99 133.89 0 0 32.99 -48.29 0 0 136.28 -37.3 0 0 -136.28zm247.23 71.02c0,10.04 -1.52,19.29 -4.54,27.73 -3.03,8.46 -7.53,15.78 -13.51,22.01 -5.98,6.21 -13.43,11.08 -22.36,14.58 -8.93,3.51 -19.21,5.26 -30.84,5.26 -11.8,0 -22.16,-1.75 -31.09,-5.26 -8.93,-3.51 -16.38,-8.37 -22.35,-14.58 -5.98,-6.23 -10.49,-13.55 -13.51,-22.01 -3.03,-8.44 -4.54,-17.68 -4.54,-27.73l0 -104.01 37.3 0 0 102.57c0,5.26 0.83,10.13 2.5,14.6 1.68,4.46 4.02,8.32 7.06,11.59 3.03,3.26 6.66,5.82 10.88,7.64 4.22,1.84 8.8,2.76 13.74,2.76 4.94,0 9.49,-0.92 13.63,-2.76 4.15,-1.82 7.72,-4.38 10.75,-7.64 3.03,-3.28 5.38,-7.14 7.06,-11.59 1.67,-4.47 2.51,-9.34 2.51,-14.6l0 -102.57 37.3 0 0 104.01zm34.43 -104.01l55.95 0c13.55,0 26.42,1.52 38.62,4.54 12.2,3.03 22.84,7.94 31.92,14.71 9.1,6.78 16.3,15.58 21.64,26.42 5.34,10.83 8.01,23.99 8.01,39.45 0,13.71 -2.59,25.78 -7.76,36.22 -5.18,10.44 -12.16,19.21 -20.93,26.3 -8.75,7.1 -18.88,12.48 -30.37,16.14 -11.47,3.67 -23.5,5.51 -36.1,5.51l-60.97 0 0 -169.29zm37.3 134.85l19.37 0c8.6,0 16.61,-0.87 24.03,-2.64 7.41,-1.74 13.82,-4.66 19.25,-8.72 5.41,-4.07 9.68,-9.39 12.79,-16.01 3.1,-6.62 4.66,-14.71 4.66,-24.28 0,-8.28 -1.56,-15.49 -4.66,-21.62 -3.11,-6.15 -7.3,-11.2 -12.56,-15.19 -5.26,-3.98 -11.43,-6.97 -18.53,-8.97 -7.1,-2 -14.55,-2.99 -22.36,-2.99l-21.99 0 0 100.42zm143.69 -134.86l37.3 0 0 169.29 -37.3 0 0 -169.29zm142.02 0.01l55.95 0c13.55,0 26.42,1.52 38.62,4.54 12.19,3.03 22.84,7.94 31.92,14.71 9.09,6.78 16.3,15.58 21.64,26.42 5.34,10.83 8.01,23.99 8.01,39.45 0,13.71 -2.58,25.78 -7.76,36.22 -5.19,10.44 -12.16,19.21 -20.93,26.3 -8.77,7.1 -18.88,12.48 -30.37,16.14 -11.47,3.67 -23.5,5.51 -36.1,5.51l-60.96 0 0 -169.29zm37.3 134.85l19.37 0c8.6,0 16.61,-0.87 24.03,-2.64 7.41,-1.74 13.82,-4.66 19.25,-8.72 5.41,-4.07 9.68,-9.39 12.79,-16.01 3.1,-6.62 4.66,-14.71 4.66,-24.28 0,-8.28 -1.56,-15.49 -4.66,-21.62 -3.11,-6.15 -7.3,-11.2 -12.56,-15.19 -5.26,-3.98 -11.43,-6.97 -18.53,-8.97 -7.1,-2 -14.55,-2.99 -22.36,-2.99l-21.99 0 0 100.42zm145.61 -134.85l115.01 0 0 34.43 -77.71 0 0 31.56 73.4 0 0 34.43 -73.4 0 0 34.43 82.02 0 0 34.43 -119.32 0 0 -169.29zm150.63 0l37.3 0 0 134.85 69.11 0 0 34.43 -106.4 0 0 -169.29zm128.39 0l37.3 0 0 134.85 69.11 0 0 34.43 -106.4 0 0 -169.29zm182.67 0l30.84 0 73.65 169.29 -42.08 0 -14.58 -35.87 -65.75 0 -14.11 35.87 -41.13 0 73.17 -169.29zm14.34 49.26l-20.55 52.59 41.36 0 -20.81 -52.59zm-2221.69 272.36l109.42 0c12.7,0 25.48,0.9 38.33,2.69 12.85,1.81 24.39,5.4 34.61,10.78 10.22,5.38 18.51,12.91 24.86,22.59 6.36,9.68 9.54,22.53 9.54,38.55 0,16.57 -4.64,30.32 -13.89,41.23 -9.26,10.93 -21.48,18.73 -36.67,23.42l0 0.83c9.66,1.39 18.44,4.08 26.32,8.09 7.87,4.01 14.64,9.12 20.31,15.34 5.66,6.21 10.02,13.47 13.07,21.76 3.03,8.28 4.55,17.13 4.55,26.52 0,15.48 -3.31,28.4 -9.95,38.75 -6.63,10.36 -15.2,18.72 -25.69,25.08 -10.51,6.36 -22.32,10.91 -35.44,13.67 -13.13,2.76 -26.18,4.15 -39.17,4.15l-120.19 0 0 -293.44zm64.65 117.29l46.84 0c4.97,0 9.87,-0.54 14.71,-1.66 4.84,-1.1 9.19,-2.9 13.06,-5.38 3.86,-2.49 6.97,-5.81 9.32,-9.95 2.34,-4.15 3.52,-9.12 3.52,-14.92 0,-6.08 -1.31,-11.12 -3.94,-15.13 -2.62,-4 -6.01,-7.11 -10.15,-9.32 -4.13,-2.2 -8.84,-3.79 -14.08,-4.75 -5.26,-0.97 -10.37,-1.46 -15.34,-1.46l-43.94 0 0 62.58zm0 121.44l58.03 0c4.97,0 10.02,-0.55 15.13,-1.66 5.11,-1.1 9.74,-3.04 13.89,-5.81 4.15,-2.76 7.52,-6.35 10.15,-10.78 2.62,-4.42 3.93,-9.8 3.93,-16.16 0,-6.9 -1.73,-12.49 -5.18,-16.78 -3.45,-4.28 -7.8,-7.52 -13.05,-9.73 -5.26,-2.22 -10.93,-3.74 -16.99,-4.57 -6.09,-0.83 -11.76,-1.24 -17,-1.24l-48.91 0 0 66.73zm300.49 -238.73l53.48 0 127.65 293.44 -72.95 0 -25.28 -62.18 -113.98 0 -24.45 62.18 -71.28 0 126.82 -293.44zm24.86 85.38l-35.64 91.18 71.7 0 -36.06 -91.18zm330.75 -13.67c-5.25,-6.63 -12.37,-11.54 -21.34,-14.72 -8.99,-3.17 -17.48,-4.76 -25.48,-4.76 -4.7,0 -9.54,0.56 -14.52,1.66 -4.97,1.1 -9.66,2.84 -14.08,5.18 -4.43,2.35 -8.02,5.47 -10.78,9.32 -2.77,3.88 -4.15,8.57 -4.15,14.1 0,8.85 3.32,15.61 9.95,20.31 6.64,4.7 14.98,8.7 25.06,12.02 10.09,3.32 20.93,6.63 32.54,9.95 11.61,3.32 22.44,8.02 32.54,14.09 10.07,6.08 18.43,14.23 25.07,24.44 6.63,10.24 9.95,23.91 9.95,41.04 0,16.31 -3.04,30.54 -9.12,42.7 -6.08,12.15 -14.3,22.24 -24.66,30.25 -10.36,8.01 -22.39,13.95 -36.06,17.82 -13.67,3.86 -28.11,5.79 -43.3,5.79 -19.07,0 -36.75,-2.89 -53.05,-8.7 -16.31,-5.8 -31.5,-15.18 -45.59,-28.18l46.01 -50.56c6.62,8.85 14.98,15.69 25.06,20.51 10.09,4.84 20.53,7.26 31.29,7.26 5.25,0 10.58,-0.62 15.96,-1.86 5.39,-1.25 10.22,-3.11 14.5,-5.6 4.28,-2.49 7.73,-5.65 10.37,-9.53 2.62,-3.87 3.93,-8.43 3.93,-13.69 0,-8.84 -3.38,-15.81 -10.15,-20.92 -6.77,-5.11 -15.27,-9.46 -25.49,-13.06 -10.22,-3.59 -21.27,-7.18 -33.15,-10.78 -11.88,-3.59 -22.95,-8.42 -33.15,-14.5 -10.24,-6.08 -18.73,-14.08 -25.5,-24.03 -6.77,-9.95 -10.15,-23.07 -10.15,-39.38 0,-15.76 3.11,-29.56 9.32,-41.44 6.22,-11.88 14.51,-21.82 24.87,-29.84 10.36,-8.02 22.31,-14.03 35.85,-18.04 13.54,-4 27.5,-6.01 41.87,-6.01 16.58,0 32.59,2.35 48.07,7.04 15.47,4.7 29.43,12.59 41.85,23.64l-44.34 48.48zm92 -71.69l64.66 0 0 293.44 -64.66 0 0 -293.44zm125.99 -0.01l64.66 0 0 233.76 119.77 0 0 59.69 -184.43 0 0 -293.44zm219.25 0.01l64.66 0 0 293.44 -64.66 0 0 -293.44zm315.39 76.25c-6.36,-7.73 -14.16,-13.67 -23.42,-17.82 -9.26,-4.15 -19.97,-6.22 -32.12,-6.22 -12.16,0 -23.41,2.35 -33.78,7.04 -10.36,4.7 -19.34,11.25 -26.94,19.68 -7.6,8.43 -13.54,18.44 -17.82,30.05 -4.28,11.61 -6.42,24.18 -6.42,37.72 0,13.81 2.13,26.46 6.42,37.91 4.28,11.47 10.15,21.42 17.62,29.85 7.46,8.43 16.23,15 26.31,19.69 10.09,4.7 20.93,7.04 32.54,7.04 13.25,0 25,-2.76 35.22,-8.28 10.22,-5.53 18.65,-13.27 25.28,-23.22l53.88 40.21c-12.44,17.4 -28.18,30.26 -47.25,38.54 -19.06,8.29 -38.68,12.44 -58.86,12.44 -22.93,0 -44.07,-3.59 -63.41,-10.78 -19.34,-7.18 -36.05,-17.47 -50.14,-30.87 -14.09,-13.4 -25.08,-29.63 -32.95,-48.7 -7.87,-19.06 -11.81,-40.34 -11.81,-63.82 0,-23.49 3.94,-44.76 11.81,-63.83 7.87,-19.07 18.85,-35.3 32.95,-48.7 14.1,-13.4 30.8,-23.69 50.14,-30.87 19.34,-7.19 40.48,-10.78 63.41,-10.78 8.29,0 16.92,0.76 25.91,2.27 8.99,1.54 17.82,3.94 26.54,7.26 8.7,3.32 17.06,7.73 25.06,13.27 8.02,5.53 15.2,12.3 21.56,20.31l-49.74 40.62zm188.57 -76.26l53.46 0 127.66 293.44 -72.95 0 -25.28 -62.18 -113.97 0 -24.46 62.18 -71.28 0 126.82 -293.44zm24.86 85.38l-35.64 91.18 71.7 0 -36.06 -91.18zm204.34 -28.18l-83.72 0 0 -57.2 232.09 0 0 57.2 -83.73 0 0 236.24 -64.65 0 0 -236.24zm239.56 -57.2l53.46 0 127.65 293.44 -72.94 0 -25.28 -62.18 -113.97 0 -24.46 62.18 -71.28 0 126.82 -293.44zm24.86 85.38l-35.64 91.18 71.7 0 -36.06 -91.18zm35.63 -883.74l-51.94 0 -68.07 -56.66 80.26 0 39.74 56.66z"/>
 </g>
</svg>
