<?xml version="1.0" encoding="UTF-8"?>
<!DOCTYPE svg PUBLIC "-//W3C//DTD SVG 1.1//EN" "http://www.w3.org/Graphics/SVG/1.1/DTD/svg11.dtd">
<!-- Creator: CorelDRAW (Evaluation Version) -->
<svg xmlns="http://www.w3.org/2000/svg" xml:space="preserve" width="40.0001mm" height="8.8891mm" version="1.1" style="shape-rendering:geometricPrecision; text-rendering:geometricPrecision; image-rendering:optimizeQuality; fill-rule:evenodd; clip-rule:evenodd"
viewBox="0 0 1178.92 261.99"
 xmlns:xlink="http://www.w3.org/1999/xlink"
 xmlns:xodm="http://www.corel.com/coreldraw/odm/2003">
 <defs>
  <style type="text/css">
   <![CDATA[
    .fil0 {fill:white;fill-rule:nonzero}
   ]]>
  </style>
 </defs>
 <g id="Layer_x0020_1">
  <metadata id="CorelCorpID_0Corel-Layer"/>
  <path class="fil0" d="M174.19 257.52l-53.6 0 0 -24.57 -0.74 0c-1.98,3.47 -4.53,6.96 -7.63,10.42 -3.11,3.48 -6.88,6.58 -11.35,9.31 -4.46,2.74 -9.56,4.96 -15.26,6.7 -5.72,1.74 -11.91,2.62 -18.61,2.62 -14.15,0 -25.63,-2.18 -34.43,-6.52 -8.82,-4.34 -15.64,-10.36 -20.47,-18.05 -4.83,-7.7 -8.07,-16.75 -9.68,-27.17 -1.61,-10.43 -2.42,-21.72 -2.42,-33.87l0 -99.74 55.83 0 0 88.59c0,5.2 0.19,10.6 0.55,16.19 0.37,5.57 1.49,10.73 3.36,15.44 1.86,4.71 4.71,8.57 8.56,11.54 3.85,2.97 9.36,4.46 16.56,4.46 7.2,0 13.03,-1.3 17.5,-3.9 4.46,-2.61 7.87,-6.08 10.22,-10.43 2.36,-4.34 3.92,-9.24 4.66,-14.7 0.75,-5.45 1.12,-11.16 1.12,-17.12l0 -90.06 55.82 0 0 180.88z"/>
  <path class="fil0" d="M229.48 76.63l53.6 0 0 24.57 0.74 0c1.74,-3.47 4.22,-6.95 7.44,-10.43 3.22,-3.46 7.08,-6.57 11.54,-9.29 4.46,-2.74 9.54,-4.96 15.26,-6.71 5.7,-1.72 11.9,-2.6 18.61,-2.6 14.14,0 25.55,2.17 34.24,6.52 8.67,4.34 15.44,10.36 20.27,18.04 4.85,7.7 8.12,16.75 9.87,27.17 1.74,10.43 2.61,21.72 2.61,33.87l0 99.74 -55.83 0 0 -88.57c0,-5.22 -0.18,-10.6 -0.55,-16.19 -0.37,-5.59 -1.5,-10.73 -3.35,-15.45 -1.87,-4.71 -4.72,-8.56 -8.57,-11.53 -3.86,-2.99 -9.38,-4.47 -16.56,-4.47 -7.19,0 -13.03,1.3 -17.49,3.91 -4.47,2.6 -7.88,6.08 -10.24,10.42 -2.36,4.35 -3.91,9.24 -4.64,14.7 -0.75,5.46 -1.11,11.17 -1.11,17.13l0 90.06 -55.83 0 0 -180.88z"/>
  <path class="fil0" d="M454.65 32.39c0,-8.94 3.16,-16.56 9.49,-22.89 6.32,-6.33 13.95,-9.49 22.89,-9.49 8.94,0 16.56,3.16 22.89,9.49 6.33,6.33 9.49,13.95 9.49,22.89 0,8.93 -3.16,16.56 -9.49,22.89 -6.33,6.33 -13.95,9.49 -22.89,9.49 -8.93,0 -16.56,-3.16 -22.89,-9.49 -6.33,-6.32 -9.49,-13.96 -9.49,-22.89zm4.47 43.87l55.82 0 0 180.88 -55.82 0 0 -180.88z"/>
  <path class="fil0" d="M575.6 0l55.83 0 0 95.99 0.74 0c6.45,-8.68 14.7,-14.82 24.75,-18.42 10.04,-3.6 20.9,-5.4 32.56,-5.4 12.89,0 24.43,2.67 34.61,8 10.17,5.34 18.8,12.48 25.87,21.41 7.07,8.93 12.53,19.16 16.38,30.7 3.83,11.54 5.77,23.64 5.77,36.29 0,13.65 -2.12,26.18 -6.33,37.59 -4.22,11.43 -10.23,21.29 -18.05,29.6 -7.82,8.31 -17.19,14.77 -28.09,19.35 -10.93,4.58 -23.08,6.88 -36.48,6.88 -6.45,0 -12.53,-0.87 -18.23,-2.61 -5.72,-1.74 -10.98,-3.96 -15.83,-6.69 -4.83,-2.73 -9.05,-5.77 -12.65,-9.12 -3.6,-3.35 -6.51,-6.63 -8.74,-9.87l-0.75 0 0 23.83 -51.36 0 0 -257.52zm51.36 167.07c0,13.65 3.91,24.7 11.73,33.13 7.81,8.43 18.8,12.64 32.94,12.64 14.14,0 25.12,-4.21 32.94,-12.64 7.81,-8.43 11.72,-19.48 11.72,-33.13 0,-13.65 -3.91,-24.68 -11.72,-33.12 -7.82,-8.43 -18.8,-12.65 -32.94,-12.65 -14.14,0 -25.13,4.22 -32.94,12.65 -7.82,8.44 -11.73,19.47 -11.73,33.12z"/>
  <path class="fil0" d="M933.65 234.81l-0.75 0c-6.21,9.68 -14.46,16.63 -24.75,20.85 -10.3,4.21 -21.16,6.32 -32.58,6.32 -8.43,0 -16.56,-1.18 -24.37,-3.54 -7.82,-2.36 -14.7,-5.89 -20.66,-10.6 -5.94,-4.72 -10.67,-10.54 -14.14,-17.5 -3.48,-6.95 -5.21,-15.01 -5.21,-24.19 0,-10.41 1.91,-19.23 5.77,-26.42 3.84,-7.2 9.06,-13.14 15.63,-17.86 6.57,-4.71 14.09,-8.38 22.52,-10.98 8.43,-2.61 17.18,-4.52 26.24,-5.77 9.05,-1.24 18.1,-1.99 27.16,-2.24 9.06,-0.24 17.44,-0.36 25.13,-0.36 0,-9.93 -3.54,-17.81 -10.62,-23.63 -7.07,-5.83 -15.44,-8.75 -25.11,-8.75 -9.19,0 -17.56,1.92 -25.13,5.77 -7.58,3.86 -14.32,9.12 -20.29,15.81l-29.78 -30.52c10.43,-9.67 22.57,-16.94 36.47,-21.77 13.9,-4.83 28.29,-7.26 43.18,-7.26 16.38,0 29.83,2.05 40.38,6.15 10.53,4.1 18.97,10.11 25.32,18.04 6.32,7.95 10.72,17.69 13.2,29.23 2.48,11.53 3.71,24.87 3.71,40.01l0 91.93 -51.35 0 0 -22.71zm-13.78 -56.57c-4.22,0 -9.48,0.19 -15.82,0.56 -6.32,0.37 -12.41,1.42 -18.24,3.16 -5.83,1.74 -10.79,4.35 -14.89,7.81 -4.1,3.48 -6.13,8.33 -6.13,14.52 0,6.7 2.85,11.67 8.56,14.89 5.71,3.22 11.66,4.83 17.86,4.83 5.46,0 10.73,-0.75 15.82,-2.23 5.08,-1.49 9.62,-3.59 13.59,-6.32 3.97,-2.74 7.13,-6.2 9.49,-10.43 2.35,-4.21 3.54,-9.17 3.54,-14.89l0 -11.91 -13.78 0z"/>
  <path class="fil0" d="M1137.6 129.85c-8.18,-10.17 -18.98,-15.25 -32.38,-15.25 -4.71,0 -9.3,1.11 -13.78,3.35 -4.46,2.23 -6.7,6.08 -6.7,11.54 0,4.46 2.29,7.75 6.88,9.87 4.6,2.1 10.43,3.96 17.5,5.57 7.07,1.61 14.64,3.35 22.71,5.21 8.06,1.86 15.62,4.78 22.7,8.75 7.07,3.97 12.89,9.36 17.5,16.19 4.58,6.82 6.88,15.94 6.88,27.35 0,11.67 -2.55,21.27 -7.63,28.84 -5.1,7.57 -11.6,13.64 -19.54,18.24 -7.95,4.59 -16.88,7.81 -26.81,9.67 -9.92,1.87 -19.72,2.8 -29.4,2.8 -12.64,0 -25.43,-1.81 -38.34,-5.4 -12.9,-3.6 -23.81,-9.98 -32.75,-19.17l33.86 -37.59c5.22,6.45 10.99,11.35 17.31,14.7 6.33,3.35 13.7,5.02 22.15,5.02 6.46,0 12.29,-0.93 17.5,-2.79 5.2,-1.86 7.81,-5.27 7.81,-10.24 0,-4.71 -2.29,-8.25 -6.88,-10.6 -4.59,-2.36 -10.42,-4.35 -17.49,-5.97 -7.08,-1.61 -14.65,-3.35 -22.71,-5.21 -8.06,-1.86 -15.63,-4.65 -22.7,-8.38 -7.08,-3.71 -12.91,-8.98 -17.5,-15.82 -4.6,-6.81 -6.88,-15.93 -6.88,-27.35 0,-10.66 2.18,-19.84 6.51,-27.53 4.34,-7.69 10.05,-14.01 17.12,-18.98 7.07,-4.97 15.19,-8.62 24.38,-10.98 9.17,-2.36 18.47,-3.53 27.9,-3.53 11.92,0 23.95,1.74 36.1,5.21 12.16,3.47 22.46,9.68 30.9,18.61l-34.25 33.86z"/>
 </g>
</svg>
