<?xml version="1.0" encoding="UTF-8"?>
<!DOCTYPE svg PUBLIC "-//W3C//DTD SVG 1.1//EN" "http://www.w3.org/Graphics/SVG/1.1/DTD/svg11.dtd">
<!--Risorse grafiche UNIBAS - bit.ly/unibasbrand -->
<svg xmlns="http://www.w3.org/2000/svg" xml:space="preserve" width="53.9999mm" height="30mm" version="1.1" style="shape-rendering:geometricPrecision; text-rendering:geometricPrecision; image-rendering:optimizeQuality; fill-rule:evenodd; clip-rule:evenodd"
viewBox="0 0 1947.65 1082.03"
 xmlns:xlink="http://www.w3.org/1999/xlink"
 xmlns:xodm="http://www.corel.com/coreldraw/odm/2003">
 <defs>
  <style type="text/css">
   <![CDATA[
    .fil0 {fill:black;fill-rule:nonzero}
   ]]>
  </style>
 </defs>
 <g id="Layer_x0020_1">
  <metadata id="CorelCorpID_0Corel-Layer"/>
  <g id="_1913530987792">
   <polygon class="fil0" points="33.01,513.98 12.36,532.15 0.01,517.91 33.6,489.54 53.94,489.54 53.94,592.5 33.01,592.5 "/>
   <path class="fil0" d="M136.12 555.71c-1.17,0.29 -2.33,0.53 -3.49,0.72 -1.17,0.21 -2.38,0.29 -3.64,0.29 -4.85,0 -9.26,-0.88 -13.23,-2.61 -3.97,-1.76 -7.37,-4.12 -10.18,-7.12 -2.81,-3.02 -5,-6.57 -6.55,-10.69 -1.54,-4.12 -2.33,-8.51 -2.33,-13.17 0,-5.32 1,-10.15 2.99,-14.45 1.98,-4.33 4.69,-8.04 8.14,-11.13 3.44,-3.11 7.48,-5.51 12.14,-7.19 4.66,-1.71 9.69,-2.55 15.13,-2.55 5.33,0 10.34,0.84 15.05,2.55 4.69,1.68 8.76,4.08 12.21,7.19 3.44,3.09 6.16,6.81 8.14,11.13 1.97,4.3 2.98,9.14 2.98,14.45 0,3.69 -0.35,7.06 -1.02,10.12 -0.69,3.05 -1.58,5.94 -2.69,8.65 -1.11,2.71 -2.42,5.31 -3.92,7.77 -1.5,2.48 -3.08,5.01 -4.73,7.64l-22.54 35.18 -26.61 0 24.14 -36.79zm-17.6 -31.69c0,4.66 1.53,8.5 4.58,11.55 3.05,3.05 7.05,4.58 12,4.58 4.94,0 8.93,-1.53 12,-4.58 3.05,-3.05 4.58,-6.9 4.58,-11.55 0,-4.66 -1.53,-8.5 -4.58,-11.56 -3.07,-3.07 -7.06,-4.59 -12,-4.59 -4.95,0 -8.94,1.53 -12,4.59 -3.05,3.05 -4.58,6.9 -4.58,11.56z"/>
   <path class="fil0" d="M200.97 516.16c0,-4.76 0.9,-8.89 2.7,-12.43 1.79,-3.54 4.26,-6.49 7.42,-8.88 3.14,-2.37 6.81,-4.14 10.97,-5.31 4.17,-1.15 8.62,-1.73 13.37,-1.73 4.76,0 9.21,0.58 13.38,1.73 4.16,1.17 7.8,2.94 10.91,5.31 3.11,2.39 5.57,5.34 7.42,8.88 1.85,3.54 2.76,7.67 2.76,12.43 0,5.61 -1.53,10.42 -4.58,14.39 -3.05,3.98 -7.34,6.8 -12.87,8.45l0 0.29c6.2,1.63 10.96,4.62 14.25,8.93 3.29,4.32 4.94,9.68 4.94,16.07 0,4.94 -0.99,9.3 -2.98,13.08 -1.99,3.78 -4.66,6.91 -8,9.38 -3.35,2.47 -7.2,4.34 -11.55,5.6 -4.36,1.27 -8.92,1.91 -13.68,1.91 -4.75,0 -9.3,-0.63 -13.65,-1.91 -4.38,-1.26 -8.23,-3.13 -11.57,-5.6 -3.35,-2.47 -6.02,-5.6 -8,-9.38 -1.98,-3.78 -2.98,-8.14 -2.98,-13.08 0,-6.39 1.64,-11.74 4.95,-16.07 3.3,-4.31 8.04,-7.3 14.25,-8.93l0 -0.29c-5.53,-1.65 -9.82,-4.47 -12.88,-8.45 -3.05,-3.97 -4.58,-8.78 -4.58,-14.39zm20.06 45.08c0,3.59 1.31,6.64 3.93,9.16 2.62,2.51 6.11,3.78 10.46,3.78 4.38,0 7.86,-1.27 10.48,-3.78 2.61,-2.52 3.92,-5.57 3.92,-9.16 0,-3.68 -1.31,-6.78 -3.92,-9.32 -2.62,-2.52 -6.11,-3.78 -10.48,-3.78 -4.35,0 -7.84,1.26 -10.46,3.78 -2.62,2.53 -3.93,5.64 -3.93,9.32zm1.75 -42.03c0,3.19 1.17,5.92 3.48,8.14 2.33,2.23 5.38,3.35 9.16,3.35 3.79,0 6.85,-1.12 9.16,-3.35 2.33,-2.23 3.5,-4.95 3.5,-8.14 0,-3.11 -1.17,-5.77 -3.5,-8 -2.32,-2.23 -5.37,-3.35 -9.16,-3.35 -3.78,0 -6.83,1.12 -9.16,3.35 -2.32,2.24 -3.48,4.9 -3.48,8z"/>
   <path class="fil0" d="M300.14 569.37l39.99 -35.92c2.03,-1.83 4.07,-3.92 6.11,-6.25 2.04,-2.32 3.05,-5.04 3.05,-8.14 0,-3.48 -1.26,-6.23 -3.78,-8.21 -2.53,-1.99 -5.48,-2.99 -8.87,-2.99 -4.08,0 -7.25,1.27 -9.53,3.78 -2.28,2.53 -3.56,5.63 -3.86,9.31l-21.81 -1.61c0.29,-5.32 1.4,-9.96 3.34,-13.89 1.94,-3.91 4.5,-7.19 7.7,-9.8 3.21,-2.64 6.96,-4.6 11.27,-5.89 4.31,-1.31 9,-1.96 14.03,-1.96 4.66,0 9.01,0.65 13.09,1.96 4.07,1.3 7.61,3.25 10.61,5.8 3,2.57 5.36,5.8 7.05,9.68 1.69,3.88 2.55,8.38 2.55,13.51 0,3.3 -0.35,6.29 -1.02,8.94 -0.67,2.67 -1.63,5.09 -2.83,7.26 -1.21,2.19 -2.64,4.21 -4.29,6.04 -1.66,1.85 -3.45,3.63 -5.38,5.38l-31.26 26.9 45.67 0 0 19.2 -71.84 0 0 -23.13z"/>
   <path class="fil0" d="M287.76 425.43l-88.53 0 0 -40.59 -1.23 0c-3.29,5.74 -7.48,11.49 -12.61,17.22 -5.13,5.75 -11.38,10.88 -18.76,15.37 -7.38,4.53 -15.78,8.19 -25.21,11.07 -9.44,2.88 -19.67,4.31 -30.74,4.31 -23.38,0 -42.33,-3.6 -56.88,-10.75 -14.56,-7.17 -25.83,-17.12 -33.82,-29.84 -7.99,-12.7 -13.32,-27.66 -15.98,-44.89 -2.67,-17.22 -4.01,-35.86 -4.01,-55.95l0 -164.79 92.24 0 0 146.35c0,8.6 0.3,17.52 0.92,26.75 0.62,9.21 2.47,17.73 5.53,25.51 3.08,7.79 7.79,14.15 14.15,19.06 6.35,4.93 15.46,7.37 27.36,7.37 11.9,0 21.53,-2.14 28.91,-6.44 7.38,-4.31 13,-10.04 16.9,-17.22 3.89,-7.18 6.46,-15.27 7.7,-24.29 1.22,-9.01 1.85,-18.43 1.85,-28.3l0 -148.79 92.22 0 0 298.83z"/>
   <path class="fil0" d="M379.11 126.59l88.55 0 0 40.59 1.22 0c2.86,-5.73 6.97,-11.48 12.31,-17.22 5.32,-5.74 11.68,-10.87 19.06,-15.37 7.38,-4.52 15.78,-8.19 25.22,-11.07 9.42,-2.86 19.67,-4.3 30.74,-4.3 23.38,0 42.21,3.59 56.57,10.75 14.33,7.17 25.51,17.12 33.5,29.81 7.99,12.72 13.41,27.67 16.29,44.89 2.87,17.23 4.31,35.89 4.31,55.96l0 164.79 -92.24 0 0 -146.34c0,-8.62 -0.29,-17.52 -0.92,-26.73 -0.61,-9.24 -2.47,-17.75 -5.54,-25.54 -3.08,-7.78 -7.79,-14.14 -14.15,-19.05 -6.36,-4.93 -15.49,-7.39 -27.36,-7.39 -11.9,0 -21.53,2.16 -28.9,6.46 -7.38,4.3 -13.02,10.05 -16.91,17.22 -3.91,7.18 -6.46,15.28 -7.69,24.28 -1.23,9.03 -1.84,18.46 -1.84,28.3l0 148.79 -92.24 0 0 -298.84z"/>
   <path class="fil0" d="M751.11 53.51c0,-14.77 5.23,-27.36 15.68,-37.83 10.45,-10.45 23.07,-15.68 37.82,-15.68 14.77,0 27.36,5.23 37.83,15.68 10.45,10.47 15.68,23.05 15.68,37.83 0,14.75 -5.23,27.37 -15.68,37.82 -10.47,10.45 -23.05,15.68 -37.83,15.68 -14.75,0 -27.37,-5.23 -37.82,-15.68 -10.45,-10.45 -15.68,-23.07 -15.68,-37.82zm7.38 72.47l92.24 0 0 298.84 -92.24 0 0 -298.84z"/>
   <polygon class="fil0" points="433.36,595.11 865.61,595.11 865.61,486.91 433.36,486.91 "/>
   <polygon class="fil0" points="1568.94,1082.03 1947.65,1082.03 1947.65,973.83 1568.94,973.83 "/>
   <polygon class="fil0" points="1082.02,919.73 1947.64,919.73 1947.64,811.52 1082.02,811.52 "/>
   <polygon class="fil0" points="1027.92,757.42 1947.64,757.42 1947.64,649.21 1027.92,649.21 "/>
   <polygon class="fil0" points="919.73,595.11 1947.65,595.11 1947.65,486.91 919.73,486.91 "/>
   <path class="fil0" d="M0 976.45l34.04 0c8.23,0 16.06,0.93 23.47,2.77 7.42,1.83 13.88,4.82 19.42,8.94 5.52,4.12 9.9,9.48 13.16,16.07 3.24,6.58 4.87,14.58 4.87,23.99 0,8.34 -1.58,15.68 -4.74,22.04 -3.16,6.35 -7.39,11.67 -12.71,15.98 -5.35,4.31 -11.49,7.6 -18.47,9.82 -6.97,2.23 -14.3,3.35 -21.96,3.35l-37.08 0 0 -102.96zm22.69 82.02l11.77 0c5.24,0 10.12,-0.53 14.62,-1.6 4.52,-1.06 8.41,-2.84 11.7,-5.31 3.3,-2.47 5.89,-5.71 7.79,-9.73 1.88,-4.03 2.82,-8.94 2.82,-14.77 0,-5.02 -0.94,-9.41 -2.82,-13.14 -1.9,-3.74 -4.44,-6.82 -7.64,-9.24 -3.21,-2.43 -6.96,-4.25 -11.27,-5.45 -4.33,-1.22 -8.84,-1.82 -13.6,-1.82l-13.37 0 0 61.06z"/>
   <polygon class="fil0" points="123.83,976.45 193.78,976.45 193.78,997.41 146.51,997.41 146.51,1016.59 191.16,1016.59 191.16,1037.54 146.51,1037.54 146.51,1058.47 196.4,1058.47 196.4,1079.42 123.83,1079.42 "/>
   <polygon class="fil0" points="228.24,976.45 250.91,976.45 250.91,1058.47 292.93,1058.47 292.93,1079.42 228.24,1079.42 "/>
   <polygon class="fil0" points="319.12,976.45 341.79,976.45 341.79,1058.47 383.82,1058.47 383.82,1079.42 319.12,1079.42 "/>
   <path class="fil0" d="M443.01 976.45l18.76 0 44.79 102.96 -25.59 0 -8.87 -21.82 -39.99 0 -8.59 21.82 -25 0 44.49 -102.96zm8.73 29.95l-12.51 31.99 25.15 0 -12.65 -31.99z"/>
   <path class="fil0" d="M585.5 976.45l38.4 0c4.44,0 8.93,0.33 13.44,0.96 4.5,0.62 8.55,1.88 12.15,3.78 3.57,1.88 6.49,4.53 8.71,7.93 2.23,3.38 3.35,7.9 3.35,13.51 0,5.83 -1.63,10.65 -4.87,14.48 -3.25,3.83 -7.53,6.55 -12.87,8.21l0 0.29c3.39,0.5 6.48,1.44 9.23,2.85 2.76,1.39 5.15,3.2 7.13,5.37 2,2.17 3.53,4.72 4.59,7.62 1.07,2.93 1.61,6.02 1.61,9.32 0,5.42 -1.17,9.97 -3.49,13.6 -2.34,3.64 -5.36,6.55 -9.03,8.79 -3.69,2.23 -7.82,3.83 -12.43,4.8 -4.61,0.97 -9.19,1.46 -13.73,1.46l-42.18 0 0 -102.96zm22.69 41.16l16.43 0c1.76,0 3.47,-0.21 5.15,-0.59 1.71,-0.39 3.23,-1.03 4.59,-1.88 1.35,-0.88 2.45,-2.05 3.27,-3.5 0.83,-1.45 1.23,-3.19 1.23,-5.24 0,-2.12 -0.46,-3.9 -1.38,-5.31 -0.92,-1.39 -2.11,-2.5 -3.55,-3.27 -1.46,-0.76 -3.1,-1.33 -4.95,-1.68 -1.83,-0.32 -3.64,-0.49 -5.37,-0.49l-15.42 0 0 21.96zm0 42.6l20.35 0c1.75,0 3.52,-0.21 5.32,-0.59 1.8,-0.38 3.42,-1.05 4.86,-2.03 1.46,-0.97 2.65,-2.21 3.57,-3.78 0.93,-1.54 1.37,-3.43 1.37,-5.66 0,-2.43 -0.6,-4.4 -1.82,-5.89 -1.21,-1.51 -2.74,-2.65 -4.57,-3.42 -1.86,-0.78 -3.83,-1.3 -5.95,-1.59 -2.15,-0.29 -4.12,-0.44 -5.98,-0.44l-17.15 0 0 23.41z"/>
   <path class="fil0" d="M726.42 976.45l18.76 0 44.77 102.96 -25.59 0 -8.85 -21.82 -39.99 0 -8.59 21.82 -25 0 44.49 -102.96zm8.72 29.95l-12.5 31.99 25.16 0 -12.66 -31.99z"/>
   <path class="fil0" d="M863.97 1001.61c-1.83,-2.32 -4.34,-4.04 -7.48,-5.16 -3.14,-1.09 -6.13,-1.67 -8.94,-1.67 -1.66,0 -3.33,0.19 -5.09,0.58 -1.74,0.4 -3.4,0.99 -4.95,1.82 -1.54,0.83 -2.81,1.91 -3.78,3.28 -0.97,1.33 -1.45,2.99 -1.45,4.92 0,3.12 1.17,5.49 3.48,7.13 2.33,1.65 5.27,3.07 8.79,4.22 3.55,1.17 7.34,2.33 11.41,3.49 4.07,1.17 7.89,2.82 11.43,4.95 3.54,2.12 6.46,5 8.79,8.59 2.33,3.59 3.5,8.37 3.5,14.39 0,5.71 -1.07,10.71 -3.21,14.96 -2.14,4.26 -5.01,7.81 -8.64,10.62 -3.64,2.81 -7.86,4.89 -12.66,6.26 -4.81,1.33 -9.88,2.02 -15.2,2.02 -6.69,0 -12.9,-1.01 -18.61,-3.05 -5.72,-2.02 -11.05,-5.32 -16.01,-9.89l16.15 -17.73c2.33,3.1 5.27,5.51 8.8,7.19 3.54,1.7 7.19,2.56 10.97,2.56 1.85,0 3.71,-0.22 5.6,-0.65 1.89,-0.45 3.59,-1.1 5.09,-1.97 1.5,-0.88 2.71,-2 3.64,-3.33 0.93,-1.37 1.38,-2.96 1.38,-4.81 0,-3.1 -1.2,-5.55 -3.56,-7.34 -2.38,-1.8 -5.37,-3.32 -8.96,-4.6 -3.59,-1.24 -7.47,-2.51 -11.62,-3.78 -4.17,-1.24 -8.05,-2.95 -11.64,-5.07 -3.57,-2.14 -6.56,-4.95 -8.93,-8.44 -2.39,-3.49 -3.57,-8.09 -3.57,-13.82 0,-5.54 1.11,-10.37 3.28,-14.53 2.18,-4.17 5.09,-7.66 8.73,-10.47 3.64,-2.81 7.83,-4.93 12.57,-6.33 4.75,-1.41 9.64,-2.11 14.69,-2.11 5.8,0 11.43,0.83 16.86,2.47 5.42,1.66 10.32,4.41 14.68,8.28l-15.56 17.01z"/>
   <polygon class="fil0" points="909.04,976.46 931.73,976.46 931.73,1079.42 909.04,1079.42 "/>
   <polygon class="fil0" points="966.05,976.45 988.74,976.45 988.74,1058.47 1030.75,1058.47 1030.75,1079.42 966.05,1079.42 "/>
   <polygon class="fil0" points="1055.74,976.46 1078.43,976.46 1078.43,1079.42 1055.74,1079.42 "/>
   <path class="fil0" d="M1179.22 1003.22c-2.24,-2.71 -4.98,-4.81 -8.23,-6.25 -3.24,-1.46 -6.98,-2.19 -11.26,-2.19 -4.26,0 -8.21,0.83 -11.84,2.48 -3.64,1.64 -6.78,3.95 -9.45,6.9 -2.67,2.95 -4.75,6.48 -6.26,10.55 -1.5,4.07 -2.25,8.49 -2.25,13.23 0,4.85 0.75,9.28 2.25,13.29 1.51,4.04 3.57,7.52 6.19,10.47 2.62,2.95 5.7,5.26 9.24,6.91 3.54,1.64 7.34,2.47 11.41,2.47 4.66,0 8.78,-0.97 12.37,-2.9 3.59,-1.94 6.54,-4.66 8.86,-8.14l18.91 14.1c-4.36,6.12 -9.89,10.61 -16.57,13.51 -6.69,2.93 -13.59,4.38 -20.66,4.38 -8.06,0 -15.45,-1.26 -22.24,-3.79 -6.8,-2.51 -12.65,-6.11 -17.6,-10.81 -4.94,-4.71 -8.79,-10.41 -11.55,-17.09 -2.76,-6.69 -4.14,-14.16 -4.14,-22.39 0,-8.23 1.37,-15.71 4.14,-22.41 2.76,-6.68 6.61,-12.38 11.55,-17.06 4.95,-4.71 10.8,-8.34 17.6,-10.84 6.8,-2.52 14.19,-3.79 22.24,-3.79 2.93,0 5.94,0.28 9.08,0.8 3.16,0.53 6.28,1.37 9.33,2.55 3.04,1.17 5.98,2.71 8.79,4.66 2.8,1.93 5.32,4.32 7.56,7.12l-17.44 14.25z"/>
   <path class="fil0" d="M1258.17 976.45l18.76 0 44.78 102.96 -25.59 0 -8.85 -21.82 -39.99 0 -8.59 21.82 -25 0 44.49 -102.96zm8.72 29.95l-12.49 31.99 25.15 0 -12.66 -31.99z"/>
   <polygon class="fil0" points="1351.39,996.53 1322.01,996.53 1322.01,976.45 1403.43,976.45 1403.43,996.53 1374.06,996.53 1374.06,1079.41 1351.39,1079.41 "/>
   <path class="fil0" d="M1448.21 976.45l18.76 0 44.77 102.96 -25.59 0 -8.86 -21.82 -39.99 0 -8.59 21.82 -25 0 44.5 -102.96zm8.71 29.95l-12.49 31.99 25.16 0 -12.66 -31.99z"/>
   <path class="fil0" d="M0 814.15l34.04 0c8.23,0 16.06,0.93 23.47,2.77 7.42,1.83 13.88,4.82 19.42,8.94 5.52,4.12 9.9,9.48 13.16,16.07 3.24,6.58 4.87,14.58 4.87,23.99 0,8.34 -1.58,15.68 -4.74,22.04 -3.16,6.34 -7.39,11.67 -12.71,15.98 -5.35,4.31 -11.49,7.6 -18.47,9.82 -6.97,2.23 -14.3,3.35 -21.96,3.35l-37.08 0 0 -102.96zm22.69 82.02l11.77 0c5.24,0 10.12,-0.53 14.62,-1.61 4.52,-1.06 8.41,-2.83 11.7,-5.31 3.3,-2.47 5.89,-5.71 7.79,-9.73 1.88,-4.03 2.82,-8.94 2.82,-14.77 0,-5.03 -0.94,-9.42 -2.82,-13.14 -1.9,-3.74 -4.44,-6.82 -7.64,-9.24 -3.21,-2.43 -6.96,-4.25 -11.27,-5.45 -4.33,-1.22 -8.84,-1.82 -13.6,-1.82l-13.37 0 0 61.06z"/>
   <polygon class="fil0" points="125.78,814.15 195.73,814.15 195.73,835.11 148.47,835.11 148.47,854.28 193.11,854.28 193.11,875.24 148.47,875.24 148.47,896.17 198.35,896.17 198.35,917.11 125.78,917.11 "/>
   <path class="fil0" d="M324.26 909.84c-6.69,3.49 -13.68,6.01 -20.94,7.56 -7.27,1.54 -14.68,2.33 -22.24,2.33 -8.05,0 -15.46,-1.26 -22.25,-3.79 -6.78,-2.51 -12.65,-6.11 -17.59,-10.82 -4.95,-4.71 -8.8,-10.41 -11.56,-17.09 -2.76,-6.69 -4.15,-14.15 -4.15,-22.39 0,-8.23 1.38,-15.71 4.15,-22.39 2.76,-6.69 6.61,-12.39 11.56,-17.08 4.94,-4.71 10.81,-8.33 17.59,-10.84 6.8,-2.52 14.2,-3.78 22.25,-3.78 8.23,0 15.82,0.98 22.75,2.98 6.93,1.99 13.02,5.41 18.24,10.24l-15.99 17.46c-3.11,-3.21 -6.59,-5.62 -10.46,-7.26 -3.88,-1.66 -8.73,-2.48 -14.54,-2.48 -4.86,0 -9.24,0.83 -13.17,2.48 -3.92,1.64 -7.29,3.95 -10.09,6.9 -2.82,2.95 -4.97,6.48 -6.47,10.55 -1.5,4.07 -2.27,8.49 -2.27,13.23 0,4.85 0.76,9.28 2.27,13.31 1.5,4.02 3.65,7.51 6.47,10.46 2.8,2.95 6.17,5.26 10.09,6.92 3.93,1.63 8.31,2.46 13.17,2.46 4.94,0 9.21,-0.54 12.8,-1.67 3.57,-1.12 6.44,-2.25 8.58,-3.42l0 -16.72 -18.48 0 0 -20.93 40.28 0 0 53.79z"/>
   <polygon class="fil0" points="359.6,814.15 382.27,814.15 382.27,896.17 424.3,896.17 424.3,917.11 359.6,917.11 "/>
   <polygon class="fil0" points="451.06,814.16 473.74,814.16 473.74,917.12 451.06,917.12 "/>
   <path class="fil0" d="M617.4 839.31c-1.83,-2.32 -4.34,-4.05 -7.48,-5.16 -3.15,-1.1 -6.14,-1.67 -8.94,-1.67 -1.66,0 -3.35,0.19 -5.09,0.59 -1.75,0.39 -3.4,0.99 -4.95,1.82 -1.54,0.83 -2.81,1.91 -3.78,3.27 -0.97,1.35 -1.45,3 -1.45,4.94 0,3.12 1.17,5.48 3.49,7.12 2.33,1.66 5.27,3.07 8.8,4.22 3.54,1.17 7.33,2.33 11.4,3.49 4.07,1.17 7.89,2.82 11.43,4.95 3.54,2.12 6.46,5 8.79,8.59 2.33,3.59 3.5,8.37 3.5,14.39 0,5.71 -1.07,10.72 -3.21,14.96 -2.14,4.26 -5.01,7.81 -8.64,10.63 -3.64,2.81 -7.87,4.88 -12.66,6.26 -4.81,1.34 -9.87,2.02 -15.19,2.02 -6.69,0 -12.9,-1 -18.61,-3.05 -5.72,-2.02 -11.05,-5.32 -16.01,-9.89l16.15 -17.74c2.33,3.11 5.27,5.51 8.8,7.19 3.54,1.71 7.19,2.56 10.97,2.56 1.85,0 3.71,-0.22 5.6,-0.65 1.9,-0.44 3.59,-1.09 5.09,-1.97 1.5,-0.88 2.71,-1.99 3.64,-3.33 0.93,-1.37 1.39,-2.96 1.39,-4.81 0,-3.11 -1.2,-5.55 -3.56,-7.34 -2.38,-1.79 -5.37,-3.32 -8.96,-4.59 -3.59,-1.25 -7.47,-2.51 -11.62,-3.78 -4.17,-1.25 -8.05,-2.95 -11.63,-5.08 -3.59,-2.14 -6.58,-4.95 -8.94,-8.44 -2.39,-3.48 -3.57,-8.09 -3.57,-13.82 0,-5.53 1.11,-10.37 3.28,-14.53 2.17,-4.17 5.09,-7.66 8.73,-10.47 3.64,-2.81 7.83,-4.92 12.57,-6.32 4.75,-1.41 9.64,-2.11 14.69,-2.11 5.8,0 11.43,0.83 16.86,2.47 5.42,1.65 10.32,4.41 14.68,8.28l-15.56 17.01z"/>
   <polygon class="fil0" points="684.45,834.23 655.07,834.23 655.07,814.15 736.48,814.15 736.48,834.23 707.12,834.23 707.12,917.11 684.45,917.11 "/>
   <path class="fil0" d="M849.33 877.41c0,6.11 -0.93,11.73 -2.76,16.86 -1.85,5.15 -4.58,9.6 -8.21,13.4 -3.64,3.78 -8.18,6.73 -13.6,8.85 -5.43,2.12 -11.68,3.19 -18.77,3.19 -7.17,0 -13.46,-1.07 -18.9,-3.19 -5.42,-2.12 -9.95,-5.08 -13.59,-8.85 -3.64,-3.79 -6.37,-8.25 -8.23,-13.4 -1.83,-5.13 -2.76,-10.75 -2.76,-16.86l0 -63.26 22.7 0 0 62.39c0,3.2 0.49,6.17 1.53,8.88 1.02,2.71 2.44,5.06 4.27,7.04 1.86,2 4.06,3.54 6.63,4.66 2.56,1.12 5.36,1.68 8.35,1.68 3,0 5.76,-0.56 8.3,-1.68 2.52,-1.12 4.71,-2.66 6.54,-4.66 1.83,-1.97 3.28,-4.32 4.29,-7.04 1.02,-2.71 1.53,-5.68 1.53,-8.88l0 -62.39 22.69 0 0 63.26z"/>
   <path class="fil0" d="M884.81 814.15l34.04 0c8.22,0 16.06,0.93 23.48,2.77 7.42,1.83 13.88,4.82 19.42,8.94 5.51,4.12 9.91,9.48 13.16,16.07 3.24,6.58 4.87,14.58 4.87,23.99 0,8.34 -1.58,15.68 -4.72,22.04 -3.16,6.34 -7.4,11.67 -12.72,15.98 -5.34,4.31 -11.49,7.6 -18.47,9.82 -6.97,2.23 -14.3,3.35 -21.96,3.35l-37.08 0 0 -102.96zm22.69 82.02l11.78 0c5.23,0 10.09,-0.53 14.61,-1.61 4.52,-1.06 8.41,-2.83 11.7,-5.31 3.3,-2.47 5.89,-5.71 7.79,-9.73 1.88,-4.03 2.82,-8.94 2.82,-14.77 0,-5.03 -0.94,-9.42 -2.82,-13.14 -1.89,-3.74 -4.45,-6.82 -7.65,-9.24 -3.19,-2.43 -6.95,-4.25 -11.26,-5.45 -4.31,-1.22 -8.84,-1.82 -13.6,-1.82l-13.37 0 0 61.06z"/>
   <polygon class="fil0" points="1009.43,814.16 1032.12,814.16 1032.12,917.12 1009.43,917.12 "/>
   <path class="fil0" d="M86.81 715.11c0,6.11 -0.92,11.73 -2.76,16.86 -1.84,5.15 -4.57,9.61 -8.21,13.4 -3.64,3.78 -8.18,6.73 -13.6,8.85 -5.44,2.12 -11.68,3.2 -18.77,3.2 -7.16,0 -13.46,-1.07 -18.9,-3.2 -5.42,-2.12 -9.96,-5.07 -13.6,-8.85 -3.62,-3.79 -6.36,-8.25 -8.21,-13.4 -1.85,-5.13 -2.76,-10.75 -2.76,-16.86l0 -63.26 22.69 0 0 62.38c0,3.2 0.5,6.17 1.53,8.88 1,2.71 2.44,5.06 4.29,7.04 1.83,2 4.04,3.53 6.61,4.66 2.56,1.12 5.36,1.68 8.35,1.68 3.02,0 5.78,-0.56 8.3,-1.68 2.52,-1.12 4.7,-2.66 6.54,-4.66 1.84,-1.97 3.27,-4.33 4.3,-7.04 1.01,-2.71 1.53,-5.69 1.53,-8.88l0 -62.38 22.68 0 0 63.26z"/>
   <polygon class="fil0" points="122.29,651.85 153.13,651.85 196.89,723.39 197.19,723.39 197.19,651.85 219.87,651.85 219.87,754.8 190.2,754.8 145.27,681.52 144.98,681.52 144.98,754.8 122.29,754.8 "/>
   <polygon class="fil0" points="255.06,651.85 277.74,651.85 277.74,754.8 255.06,754.8 "/>
   <polygon class="fil0" points="302.75,651.85 328.63,651.85 354.08,719.32 354.37,719.32 380.25,651.85 404.54,651.85 362.07,754.8 343.9,754.8 "/>
   <polygon class="fil0" points="430.72,651.85 500.66,651.85 500.66,672.8 453.39,672.8 453.39,691.98 498.04,691.98 498.04,712.94 453.39,712.94 453.39,733.87 503.28,733.87 503.28,754.8 430.72,754.8 "/>
   <path class="fil0" d="M535.98 651.85l39.85 0c5.23,0 10.19,0.52 14.9,1.53 4.71,1.02 8.83,2.72 12.37,5.09 3.54,2.38 6.32,5.59 8.44,9.59 2.07,4.02 3.12,9.05 3.12,15.07 0,7.26 -1.88,13.45 -5.69,18.52 -3.77,5.1 -9.27,8.31 -16.55,9.68l26.16 43.47 -27.19 0 -21.53 -41.15 -11.2 0 0 41.15 -22.68 0 0 -102.95zm22.68 42.61l13.37 0c2.05,0 4.22,-0.08 6.5,-0.23 2.27,-0.14 4.31,-0.57 6.16,-1.3 1.86,-0.72 3.39,-1.86 4.58,-3.42 1.24,-1.55 1.82,-3.73 1.82,-6.54 0,-2.62 -0.52,-4.71 -1.59,-6.26 -1.07,-1.54 -2.43,-2.72 -4.06,-3.55 -1.65,-0.83 -3.57,-1.39 -5.67,-1.68 -2.15,-0.29 -4.22,-0.43 -6.27,-0.43l-14.83 0 0 23.41z"/>
   <path class="fil0" d="M695.66 677c-1.83,-2.32 -4.33,-4.05 -7.48,-5.16 -3.14,-1.1 -6.13,-1.67 -8.94,-1.67 -1.65,0 -3.33,0.19 -5.09,0.59 -1.74,0.39 -3.4,0.99 -4.95,1.82 -1.54,0.83 -2.81,1.91 -3.78,3.27 -0.97,1.35 -1.45,3 -1.45,4.94 0,3.12 1.17,5.48 3.49,7.12 2.33,1.66 5.27,3.07 8.8,4.22 3.54,1.17 7.33,2.33 11.4,3.49 4.07,1.17 7.89,2.82 11.43,4.95 3.54,2.12 6.46,5 8.79,8.59 2.33,3.59 3.5,8.37 3.5,14.39 0,5.71 -1.07,10.72 -3.21,14.96 -2.14,4.26 -5.01,7.81 -8.64,10.63 -3.64,2.81 -7.86,4.88 -12.66,6.26 -4.81,1.34 -9.87,2.02 -15.19,2.02 -6.69,0 -12.92,-1 -18.63,-3.05 -5.72,-2.02 -11.04,-5.32 -15.99,-9.89l16.15 -17.74c2.32,3.11 5.26,5.51 8.8,7.19 3.54,1.71 7.19,2.56 10.97,2.56 1.84,0 3.71,-0.22 5.6,-0.65 1.9,-0.44 3.59,-1.09 5.09,-1.97 1.5,-0.88 2.71,-1.99 3.64,-3.34 0.93,-1.36 1.39,-2.95 1.39,-4.8 0,-3.11 -1.18,-5.55 -3.56,-7.34 -2.38,-1.79 -5.37,-3.32 -8.96,-4.59 -3.59,-1.25 -7.47,-2.51 -11.62,-3.78 -4.17,-1.25 -8.05,-2.95 -11.64,-5.08 -3.59,-2.14 -6.58,-4.95 -8.94,-8.44 -2.38,-3.48 -3.57,-8.1 -3.57,-13.82 0,-5.53 1.11,-10.37 3.28,-14.53 2.18,-4.17 5.1,-7.66 8.73,-10.47 3.64,-2.81 7.83,-4.92 12.58,-6.32 4.75,-1.41 9.64,-2.11 14.7,-2.11 5.8,0 11.43,0.83 16.86,2.47 5.42,1.65 10.32,4.41 14.68,8.28l-15.56 17.01z"/>
   <polygon class="fil0" points="742.48,651.85 765.17,651.85 765.17,754.8 742.48,754.8 "/>
   <polygon class="fil0" points="820.28,671.92 790.9,671.92 790.9,651.84 872.32,651.84 872.32,671.92 842.95,671.92 842.95,754.81 820.28,754.81 "/>
   <path class="fil0" d="M918.87 651.85l18.76 0 44.77 102.95 -25.59 0 -8.86 -21.81 -39.99 0 -8.59 21.81 -25 0 44.5 -102.95zm24.43 -7.56l-19.2 0 -25.16 -20.94 29.66 0 14.69 20.94zm-15.71 37.51l-12.49 31.99 25.16 0 -12.66 -31.99z"/>
   <path class="fil0" d="M950.93 0l92.25 0 0 158.59 1.21 0c10.67,-14.35 24.3,-24.49 40.91,-30.45 16.59,-5.94 34.53,-8.92 53.8,-8.92 21.3,0 40.37,4.41 57.18,13.22 16.81,8.83 31.05,20.61 42.74,35.36 11.68,14.75 20.69,31.66 27.05,50.73 6.35,19.05 9.53,39.05 9.53,59.94 0,22.55 -3.5,43.26 -10.46,62.09 -6.97,18.88 -16.91,35.17 -29.81,48.9 -12.91,13.73 -28.4,24.39 -46.43,31.98 -18.04,7.58 -38.12,11.38 -60.26,11.38 -10.66,0 -20.7,-1.44 -30.12,-4.31 -9.44,-2.88 -18.15,-6.54 -26.15,-11.07 -7.98,-4.49 -14.96,-9.53 -20.9,-15.06 -5.93,-5.54 -10.75,-10.96 -14.44,-16.29l-1.23 0 0 39.35 -84.86 0 0 -425.43zm84.86 276.02c0,22.56 6.46,40.79 19.38,54.73 12.91,13.93 31.05,20.89 54.42,20.89 23.35,0 41.49,-6.96 54.42,-20.89 12.9,-13.93 19.35,-32.17 19.35,-54.73 0,-22.55 -6.45,-40.79 -19.35,-54.73 -12.93,-13.93 -31.07,-20.9 -54.42,-20.9 -23.38,0 -41.52,6.97 -54.42,20.9 -12.91,13.93 -19.38,32.18 -19.38,54.73z"/>
   <path class="fil0" d="M1542.46 387.93l-1.23 0c-10.25,15.98 -23.88,27.46 -40.88,34.44 -17.02,6.96 -34.95,10.45 -53.81,10.45 -13.94,0 -27.37,-1.96 -40.27,-5.84 -12.92,-3.9 -24.29,-9.75 -34.13,-17.53 -9.84,-7.79 -17.62,-17.41 -23.37,-28.9 -5.74,-11.48 -8.6,-24.8 -8.6,-39.98 0,-17.2 3.17,-31.76 9.53,-43.66 6.35,-11.87 14.96,-21.71 25.82,-29.51 10.87,-7.79 23.27,-13.84 37.22,-18.14 13.92,-4.3 28.36,-7.46 43.35,-9.52 14.94,-2.05 29.9,-3.28 44.86,-3.7 14.96,-0.39 28.81,-0.6 41.52,-0.6 0,-16.39 -5.84,-29.43 -17.53,-39.05 -11.68,-9.62 -25.51,-14.46 -41.49,-14.46 -15.17,0 -29.01,3.18 -41.51,9.54 -12.52,6.36 -23.67,15.05 -33.51,26.12l-49.19 -50.42c17.22,-15.98 37.29,-27.98 60.25,-35.96 22.96,-8 46.75,-12 71.33,-12 27.05,0 49.29,3.37 66.73,10.14 17.41,6.77 31.35,16.71 41.81,29.81 10.46,13.13 17.72,29.21 21.84,48.29 4.08,19.05 6.13,41.08 6.13,66.1l0 151.87 -84.84 0 0 -37.51zm-22.75 -93.45c-6.98,0 -15.68,0.3 -26.13,0.92 -10.45,0.62 -20.51,2.35 -30.13,5.23 -9.63,2.87 -17.83,7.17 -24.6,12.9 -6.76,5.75 -10.14,13.74 -10.14,23.99 0,11.07 4.71,19.27 14.13,24.61 9.43,5.32 19.26,7.98 29.52,7.98 9.01,0 17.72,-1.23 26.13,-3.68 8.38,-2.47 15.87,-5.94 22.44,-10.46 6.55,-4.5 11.78,-10.24 15.68,-17.22 3.89,-6.96 5.84,-15.16 5.84,-24.61l0 -19.66 -22.75 0z"/>
   <path class="fil0" d="M1879.38 214.52c-13.51,-16.8 -31.35,-25.21 -53.49,-25.21 -7.79,0 -15.37,1.86 -22.75,5.54 -7.38,3.69 -11.07,10.05 -11.07,19.07 0,7.37 3.78,12.8 11.38,16.28 7.58,3.47 17.22,6.57 28.91,9.23 11.68,2.66 24.18,5.54 37.5,8.6 13.32,3.08 25.83,7.9 37.51,14.45 11.68,6.57 21.31,15.47 28.91,26.75 7.57,11.29 11.38,26.34 11.38,45.19 0,19.26 -4.21,35.16 -12.61,47.65 -8.41,12.51 -19.17,22.55 -32.28,30.12 -13.13,7.6 -27.88,12.93 -44.28,16 -16.39,3.08 -32.58,4.62 -48.57,4.62 -20.9,0 -42.02,-2.98 -63.34,-8.92 -21.31,-5.94 -39.34,-16.49 -54.12,-31.67l55.96 -62.11c8.62,10.67 18.15,18.76 28.59,24.31 10.46,5.52 22.65,8.28 36.58,8.28 10.67,0 20.31,-1.53 28.91,-4.61 8.6,-3.07 12.91,-8.7 12.91,-16.91 0,-7.78 -3.79,-13.62 -11.38,-17.51 -7.6,-3.89 -17.22,-7.17 -28.91,-9.85 -11.68,-2.67 -24.19,-5.54 -37.5,-8.6 -13.32,-3.09 -25.82,-7.7 -37.51,-13.84 -11.68,-6.15 -21.32,-14.85 -28.89,-26.13 -7.6,-11.26 -11.38,-26.33 -11.38,-45.2 0,-17.61 3.59,-32.77 10.75,-45.49 7.17,-12.71 16.6,-23.16 28.28,-31.38 11.69,-8.19 25.12,-14.23 40.28,-18.12 15.15,-3.89 30.52,-5.85 46.11,-5.85 19.68,0 39.54,2.87 59.63,8.61 20.09,5.74 37.1,15.98 51.04,30.75l-56.57 55.93z"/>
  </g>
 </g>
</svg>
