<?xml version="1.0" encoding="UTF-8"?>
<!DOCTYPE svg PUBLIC "-//W3C//DTD SVG 1.1//EN" "http://www.w3.org/Graphics/SVG/1.1/DTD/svg11.dtd">
<!--Risorse grafiche UNIBAS - bit.ly/unibasbrand -->
<svg xmlns="http://www.w3.org/2000/svg" xml:space="preserve" width="86.6666mm" height="40.0001mm" version="1.1" style="shape-rendering:geometricPrecision; text-rendering:geometricPrecision; image-rendering:optimizeQuality; fill-rule:evenodd; clip-rule:evenodd"
viewBox="0 0 1046989.07 483227.3"
 xmlns:xlink="http://www.w3.org/1999/xlink"
 xmlns:xodm="http://www.corel.com/coreldraw/odm/2003">
 <defs>
  <style type="text/css">
   <![CDATA[
    .fil0 {fill:white;fill-rule:nonzero}
   ]]>
  </style>
 </defs>
 <g id="Layer_x0020_1">
  <metadata id="CorelCorpID_0Corel-Layer"/>
  <g id="_1913531683312">
   <path class="fil0" d="M103208.64 420144.55c883.1,-1252.76 1884.58,-2271.16 3000.83,-3060.03 1121.08,-788.87 2326.73,-1308.33 3613.32,-1555.99 1291.42,-251.28 2651.7,-204.16 4069.97,141.34 1424.31,345.51 2860.7,1031.69 4309.17,2050.09 1470.22,1035.31 2608.21,2164.85 3413.99,3387.41 805.78,1218.94 1308.33,2481.37 1508.87,3780.04 199.33,1299.88 118.39,2608.21 -247.65,3929.84 -362.42,1316.79 -984.57,2604.59 -1866.46,3857.35l-9129.35 12968.58 -4653.47 -3273.86 9004.92 -12788.58c460.27,-657.19 784.03,-1338.54 967.66,-2041.63 183.63,-703.09 230.74,-1394.11 136.51,-2067 -89.4,-669.27 -320.14,-1308.33 -682.56,-1909.95 -366.04,-596.78 -856.52,-1111.42 -1473.84,-1546.32 -618.53,-434.9 -1266.05,-716.38 -1938.94,-852.89 -677.72,-136.51 -1351.82,-131.68 -2016.26,8.46 -664.44,141.34 -1295.05,417.99 -1896.66,827.52 -600.41,408.33 -1133.17,941.08 -1593.44,1598.27l-9004.92 12793.41 -4649.84 -3277.48 9128.14 -12968.58z"/>
   <polygon class="fil0" points="80339.96,421741.61 74854.14,416295.66 79712.98,395834.66 79662.24,395779.08 67017.42,408509.68 62981.27,404498.9 81174.74,386185.84 86450.36,391427.63 81494.87,412404.48 81545.61,412455.22 94497.28,399418.98 98533.42,403424.93 "/>
   <polygon class="fil0" points="52210.16,391349.11 48741.81,386844.23 69184.69,371085.02 72657.88,375589.9 "/>
   <polygon class="fil0" points="40234.61,375372.45 36936.59,369780.31 48264.62,355687.02 48225.96,355626.62 30361.1,358635.91 27262.41,353389.28 54908.98,349438.91 57222.43,353363.91 "/>
   <polygon class="fil0" points="20852.41,339656 14327.65,323376.11 19198.57,321423.88 23609.22,332423.31 28075.44,330632.96 23912.44,320243.6 28783.36,318286.53 32951.19,328677.1 37822.11,326724.87 33168.64,315116.57 38044.39,313160.71 44811.97,330049.46 "/>
   <path class="fil0" d="M9053.24 306836.49l-2309.82 -9721.3c-306.85,-1274.51 -468.73,-2518.82 -494.1,-3724.47 -25.37,-1206.86 148.59,-2309.82 524.3,-3307.68 374.5,-1001.49 993.03,-1874.92 1849.55,-2616.67 864.97,-741.75 2028.34,-1286.59 3494.93,-1636.93 1772.23,-421.61 3387.41,-318.93 4849.17,311.68 1461.76,625.78 2565.93,1785.52 3319.76,3481.64l9087.07 -8907.06 1580.15 6631.07 -8791.09 7637.39 651.15 2731.44 10036.61 -2385.93 1316.79 5531.73 -25114.47 5975.09zm9077.4 -8008.26l-775.58 -3260.57c-119.6,-497.72 -263.36,-1018.4 -430.07,-1568.07 -166.71,-546.05 -392.62,-1023.23 -677.72,-1431.56 -285.1,-404.7 -652.36,-711.55 -1099.34,-916.92 -448.19,-209 -1014.77,-225.91 -1700.96,-64.03 -639.07,149.8 -1116.25,401.08 -1431.56,750.21 -320.14,353.96 -527.92,750.21 -635.44,1202.02 -106.31,451.82 -131.68,942.29 -76.11,1478.67 50.74,541.21 136.51,1057.06 254.9,1551.16l861.35 3618.16 5710.52 -1359.07z"/>
   <path class="fil0" d="M7226.65 258588.78c-537.59,512.22 -912.09,1173.03 -1116.25,1982.44 -209,814.24 -277.86,1568.07 -213.83,2267.54 38.66,413.16 123.22,831.15 259.73,1256.39 136.51,426.45 323.76,822.69 567.79,1189.94 237.99,366.04 541.21,655.98 902.42,868.6 362.42,209 785.24,294.77 1266.05,247.65 775.58,-68.86 1342.16,-413.16 1700.96,-1031.69 357.59,-617.32 642.69,-1380.82 851.69,-2288.08 209,-908.47 413.16,-1879.75 613.7,-2923.52 196.91,-1040.14 520.68,-2024.72 972.49,-2958.55 451.82,-929 1099.34,-1725.12 1938.94,-2385.93 843.23,-660.81 2015.05,-1061.89 3515.47,-1197.19 1427.93,-128.05 2702.44,25.37 3815.07,455.44 1111.42,434.9 2062.17,1073.97 2846.2,1913.58 788.87,843.23 1402.56,1844.72 1849.55,3012.91 448.19,1163.37 736.92,2407.67 856.52,3737.75 153.42,1665.92 38.66,3235.2 -335.84,4705.41 -379.33,1473.84 -1078.8,2876.4 -2105.66,4210.11l-4798.44 -3613.32c723.63,-652.36 1256.39,-1436.39 1597.06,-2356.94 341.88,-920.55 469.94,-1854.38 384.16,-2791.84 -42.28,-460.27 -140.14,-920.55 -289.94,-1380.82 -153.42,-465.11 -353.96,-869.81 -605.24,-1223.77 -256.11,-357.59 -558.13,-630.61 -920.55,-829.94 -357.59,-200.54 -767.12,-277.86 -1231.02,-234.36 -771.95,67.65 -1355.45,421.61 -1751.69,1052.22 -392.62,635.44 -703.09,1411.02 -937.46,2335.19 -234.36,920.55 -460.27,1918.41 -677.72,2983.92 -222.28,1065.51 -558.13,2070.62 -1006.32,3012.91 -451.82,941.08 -1086.05,1751.69 -1905.12,2419.75 -814.24,674.1 -1938.94,1073.97 -3366.88,1202.02 -1380.82,128.05 -2616.67,-33.83 -3702.72,-480.81 -1092.09,-451.82 -2029.55,-1095.72 -2817.21,-1935.32 -784.03,-843.23 -1406.19,-1841.09 -1866.46,-2991.17 -456.65,-1151.29 -746.58,-2356.94 -861.35,-3609.7 -131.68,-1449.68 -55.57,-2869.15 234.36,-4262.05 285.1,-1389.28 864.97,-2672.24 1734.78,-3848.9l4602.73 3490.1z"/>
   <polygon class="fil0" points="-0,239716.38 114.77,234031.23 25925.08,234551.91 25809.11,240240.69 "/>
   <polygon class="fil0" points="7119.13,213189.69 6147.84,220491.23 1157.33,219825.59 3854.94,199586.87 8840.62,200251.31 7869.34,207551.65 28470.47,210296.37 27720.26,215934.41 "/>
   <path class="fil0" d="M8115.78 173777.77l-1274.51 4641.39 -6728.92 4696.96 1964.31 -7173.49 6039.12 -2164.85zm209 6409.99l1244.31 -4538.7 27864.02 -4002.32 -1696.12 6188.92 -5860.32 698.26 -2655.33 9670.56 4709.04 3520.3 -1662.3 6047.57 -21943.3 -17584.6zm7824.64 -123.22l6904.09 5143.94 1670.75 -6081.4 -8574.85 937.46z"/>
   <path class="fil0" d="M27042.54 130914.41l4269.3 -7384.9c1031.69,-1790.35 2216.8,-3375.33 3545.67,-4752.53 1330.08,-1380.82 2791.84,-2412.51 4378.03,-3093.86 1588.61,-681.35 3302.85,-962.83 5139.11,-839.61 1841.09,123.22 3780.04,771.95 5821.67,1952.23 1807.27,1048.6 3205,2309.82 4189.57,3792.12 979.74,1479.88 1606.73,3068.49 1874.92,4769.44 268.19,1696.12 204.16,3442.99 -187.25,5241.8 -392.62,1793.98 -1065.51,3520.3 -2028.34,5187.43l-4654.68 8045.71 -22348 -12917.84zm20648.25 5366.23l1478.67 -2557.47c655.98,-1133.17 1154.91,-2259.08 1487.13,-3370.5 337.05,-1112.63 438.53,-2182.97 315.31,-3209.83 -119.6,-1022.02 -498.93,-1994.52 -1138,-2910.23 -635.44,-916.92 -1584.98,-1739.61 -2846.2,-2468.08 -1095.72,-630.61 -2166.06,-976.12 -3213.45,-1035.31 -1048.6,-60.4 -2033.17,106.31 -2962.18,498.93 -929,391.41 -1793.98,979.74 -2599.76,1760.15 -800.95,784.03 -1504.04,1696.12 -2100.83,2726.6l-1675.59 2902.98 13254.89 7662.76z"/>
   <polygon class="fil0" points="48494.15,96962.94 59518.96,83320.26 63602.22,86619.49 56152.08,95838.23 59898.29,98863.23 66930.44,90156.7 71017.32,93455.93 63981.55,102162.45 68063.6,105460.47 75926.9,95735.55 80010.16,99033.56 68574.62,113187.26 "/>
   <path class="fil0" d="M104847.98 72574.52c-657.19,1772.23 -1534.24,3417.62 -2625.13,4926.49 -1090.88,1508.87 -2340.02,2901.77 -3746.21,4172.66 -1500.42,1350.62 -3090.23,2365.39 -4777.9,3033.45 -1682.83,674.1 -3383.79,989.41 -5093.2,942.29 -1713.04,-42.28 -3383.79,-451.82 -5024.34,-1231.02 -1636.93,-785.24 -3149.43,-1940.15 -4533.87,-3474.4 -1385.65,-1529.41 -2382.3,-3153.05 -2992.38,-4862.46 -613.7,-1708.2 -851.69,-3413.99 -724.84,-5122.2 132.89,-1704.58 618.53,-3363.25 1453.3,-4973.6 839.61,-1606.73 2007.8,-3090.23 3508.22,-4440.85 1529.41,-1385.65 3110.77,-2476.53 4734.41,-3272.65 1620.02,-793.7 3328.22,-1181.49 5118.57,-1159.74l-42.28 5936.43c-1117.46,-72.48 -2174.52,64.03 -3171.17,404.7 -1001.49,345.51 -2041.63,1006.32 -3124.06,1986.06 -898.8,814.24 -1576.53,1704.58 -2033.17,2672.24 -451.82,967.66 -689.81,1960.69 -720.01,2983.92 -25.37,1022.02 166.71,2040.42 571.41,3051.57 404.7,1009.94 1005.11,1955.86 1802.43,2837.75 817.86,903.63 1700.96,1603.1 2658.95,2097.2 955.58,497.72 1940.15,784.03 2962.18,860.14 1018.4,77.32 2033.17,-59.2 3043.12,-413.16 1006.32,-353.96 1960.69,-937.46 2864.32,-1751.69 920.55,-831.15 1618.81,-1653.84 2095.99,-2463.25 482.02,-809.4 822.69,-1500.42 1023.23,-2075.46l-2808.75 -3110.77 -3439.36 3102.31 -3520.3 -3894.8 7497.25 -6772.41 9043.58 10011.24z"/>
   <polygon class="fil0" points="102720.58,44392.77 107459.82,41248.18 118825.3,58389.42 127609.14,52562.92 130510.91,56939.74 116989.04,65907.21 "/>
   <polygon class="fil0" points="128858.28,28433.02 133916.45,25828.43 145734.95,48778.05 140675.57,51382.64 "/>
   <path class="fil0" d="M183404.84 14024.43c-600.41,-438.53 -1321.62,-684.97 -2156.4,-745.38 -835.98,-55.57 -1594.65,8.46 -2271.16,200.54 -401.08,111.14 -797.32,268.19 -1189.94,482.02 -396.25,207.79 -753.83,468.73 -1073.97,770.75 -318.93,303.22 -549.67,652.36 -694.64,1043.77 -140.14,392.62 -148.59,822.69 -16.91,1291.42 209,750.21 647.52,1244.31 1321.62,1488.34 672.89,242.82 1473.84,382.96 2407.67,425.24 933.83,43.49 1930.49,68.86 2991.17,77.32 1061.89,8.46 2093.58,148.59 3090.23,426.45 997.86,280.27 1901.49,775.58 2702.44,1482.3 800.95,711.55 1406.19,1790.35 1810.89,3243.66 384.16,1380.82 460.27,2658.95 230.74,3835.61 -225.91,1171.82 -686.18,2220.42 -1377.19,3144.59 -686.18,920.55 -1564.44,1709.41 -2633.58,2356.94 -1070.35,652.36 -2245.79,1154.91 -3533.59,1513.71 -1615.18,451.82 -3183.25,622.15 -4704.21,514.64 -1517.33,-106.31 -3026.2,-544.84 -4526.62,-1316.79l2706.07 -5369.85c771.95,596.78 1641.76,976.12 2608.21,1151.29 972.49,170.34 1913.58,128.05 2825.66,-123.22 443.36,-124.43 878.26,-303.22 1308.33,-532.76 426.45,-234.36 792.49,-507.39 1095.72,-819.07 306.85,-310.47 524.3,-660.81 655.98,-1052.22 128.05,-387.79 132.89,-805.78 8.46,-1252.76 -209,-746.58 -655.98,-1261.22 -1350.62,-1534.24 -694.64,-273.02 -1517.33,-439.74 -2468.08,-503.76 -954.37,-62.82 -1977.6,-109.93 -3068.49,-131.68 -1090.88,-25.37 -2139.48,-175.17 -3149.43,-451.82 -1009.94,-273.02 -1917.2,-750.21 -2726.6,-1436.39 -810.61,-681.35 -1407.4,-1713.04 -1790.35,-3093.86 -370.88,-1338.54 -434.9,-2582.84 -183.63,-3732.92 242.82,-1154.91 711.55,-2195.05 1402.56,-3115.6 689.81,-925.38 1559.61,-1717.87 2611.84,-2373.85 1053.43,-660.81 2191.43,-1159.74 3410.37,-1495.58 1401.36,-392.62 2816,-571.41 4240.31,-537.59 1418.27,33.83 2787.01,370.88 4103.8,1014.77l-2616.67 5156.02z"/>
   <polygon class="fil0" points="206965.74,8023.97 199669.02,9013.37 198991.3,4026.48 219226.39,1286.59 219899.28,6272.27 212603.78,7261.68 215390.78,27854.36 209756.37,28617.86 "/>
   <path class="fil0" d="M255781.24 16212.24c-25.37,1529.41 -276.65,2936.81 -762.29,4218.56 -482.02,1279.34 -1185.11,2387.14 -2114.11,3320.97 -925.38,932.63 -2075.46,1657.47 -3444.19,2168.48 -1367.53,512.22 -2940.43,755.04 -4717.49,724.84 -1793.98,-30.2 -3370.5,-323.76 -4722.33,-878.26 -1354.24,-558.13 -2480.16,-1316.79 -3375.33,-2279.62 -893.97,-962.83 -1563.24,-2092.37 -2002.97,-3388.62 -443.36,-1295.05 -651.15,-2706.07 -625.78,-4240.31l254.9 -15858.27 5689.99 94.23 -251.28 15640.82c-16.91,800.95 97.85,1542.7 345.51,2228.88 242.82,686.18 591.95,1278.13 1043.77,1785.52 455.44,507.39 1001.49,903.63 1640.55,1193.57 639.07,289.94 1338.54,438.53 2088.74,451.82 753.83,12.08 1448.47,-115.97 2087.54,-384.16 635.44,-268.19 1189.94,-652.36 1658.67,-1141.62 468.73,-490.47 839.61,-1073.97 1102.96,-1748.07 269.4,-677.72 404.7,-1418.27 422.82,-2220.42l251.28 -15640.82 5685.15 94.23 -256.11 15858.27z"/>
   <path class="fil0" d="M273648.52 2286.87l8394.85 1508.87c2038.01,362.42 3925,937.46 5676.7,1721.49 1748.07,784.03 3213.45,1807.27 4393.73,3068.49 1181.49,1261.22 2024.72,2778.55 2536.94,4547.16 511.01,1773.44 553.29,3818.69 140.14,6136.97 -370.88,2058.54 -1087.26,3801.78 -2144.32,5229.71 -1060.68,1427.93 -2343.65,2552.64 -3847.69,3383.79 -1508.87,826.32 -3171.17,1363.91 -4995.35,1601.89 -1819.35,242.82 -3673.73,192.08 -5565.56,-144.97l-9149.89 -1644.18 4560.45 -25409.24zm1964.31 21245.04l2906.6 524.3c1291.42,229.53 2518.82,315.31 3677.35,251.28 1159.74,-64.03 2199.89,-328.59 3124.06,-792.49 925.38,-460.27 1709.41,-1151.29 2353.31,-2058.54 642.69,-908.47 1094.51,-2080.29 1350.62,-3516.68 225.91,-1244.31 187.25,-2369.02 -114.77,-3375.33 -303.22,-1001.49 -793.7,-1874.92 -1475.05,-2616.67 -681.35,-736.92 -1529.41,-1354.24 -2540.56,-1844.72 -1009.94,-490.47 -2100.83,-839.61 -3272.65,-1048.6l-3302.85 -596.78 -2706.07 15074.24z"/>
   <polygon class="fil0" points="312032.38,10835.14 317452.97,12553.01 309658.53,37160.09 304237.94,35447.05 "/>
   <path class="fil0" d="M353181.5 27363.89l7377.65 4287.42c1785.52,1035.31 3366.88,2220.42 4742.86,3554.13 1377.19,1333.7 2404.05,2795.46 3085.4,4385.28 677.72,1589.81 955.58,3302.85 827.52,5140.32 -123.22,1841.09 -780.41,3780.04 -1964.31,5816.83 -1053.43,1807.27 -2319.49,3201.37 -3801.78,4181.11 -1483.5,979.74 -3073.32,1601.89 -4773.07,1866.46 -1700.96,264.57 -3444.19,195.71 -5238.17,-200.54 -1793.98,-391.41 -3523.93,-1073.97 -5182.6,-2036.8l-8042.09 -4670.38 12968.58 -22323.84zm-5412.13 20639.79l2552.64 1483.5c1138,660.81 2259.08,1158.53 3371.71,1491.96 1111.42,335.84 2181.77,446.98 3208.62,323.76 1023.23,-119.6 1994.52,-498.93 2911.44,-1129.54 915.71,-635.44 1742.03,-1586.19 2475.33,-2847.41 635.44,-1090.88 980.95,-2160.02 1044.98,-3208.62 59.2,-1044.98 -107.52,-2033.17 -495.31,-2962.18 -387.79,-929 -976.12,-1798.81 -1755.32,-2603.38 -784.03,-805.78 -1687.67,-1508.87 -2719.35,-2105.66l-2901.77 -1684.04 -7692.96 13241.6z"/>
   <polygon class="fil0" points="387083.43,48886.78 400704.37,59941.78 397393.06,64015.38 388192.43,56549.53 385161.4,60287.29 393852.22,67339.97 390544.54,71414.78 381850.09,64360.88 378543.62,68439.31 388251.63,76319.52 384945.16,80397.95 370816.83,68933.41 "/>
   <polygon class="fil0" points="413302.07,71861.76 417188.42,76012.67 402174.58,90067.3 409377.07,97760.26 405541.46,101348.22 394456.25,89500.72 "/>
   <polygon class="fil0" points="433865.76,95481.85 437185.52,100101.49 420484.02,112102.41 426633.07,120655.52 422371.02,123720.38 412902.2,110546.43 "/>
   <path class="fil0" d="M455305.29 129150.63l2157.6 4181.11 -17788.76 21820.07 -2941.64 -5702.07 3840.44 -4487.96 -4599.1 -8907.06 -5847.04 596.78 -2876.4 -5574.01 28054.9 -1926.86zm-5671.87 5391.6l-8566.39 890.34 2894.52 5604.21 5671.87 -6494.56z"/>
   <path class="fil0" d="M474784.13 177914.18l2186.6 9370.96c251.28,1090.88 430.07,2203.51 532.76,3341.51 102.69,1138 25.37,2195.05 -230.74,3179.63 -259.73,984.57 -736.92,1844.72 -1440.01,2582.84 -699.47,736.92 -1738.41,1264.84 -3110.77,1584.98 -1419.48,332.22 -2689.15,209 -3810.24,-367.25 -1121.08,-575.04 -2033.17,-1465.38 -2739.89,-2671.03l-68.86 16.91c72.48,851.69 16.91,1657.47 -170.34,2416.13 -183.63,753.83 -485.64,1436.39 -907.26,2045.25 -417.99,605.24 -950.75,1125.92 -1603.1,1551.16 -647.52,426.45 -1375.99,733.3 -2181.77,920.55 -1325.25,311.68 -2497.07,281.48 -3516.68,-76.11 -1022.02,-362.42 -1908.74,-929 -2662.58,-1700.96 -755.04,-775.58 -1380.82,-1696.12 -1879.75,-2765.26 -498.93,-1070.35 -878.26,-2161.23 -1138,-3273.86l-2399.22 -10296.34 25139.84 -5859.12zm-19161.12 10304.8l1159.74 4973.6c97.85,425.24 246.45,848.06 443.36,1261.22 195.71,417.99 455.44,775.58 775.58,1073.97 315.31,302.02 694.64,519.47 1124.71,655.98 430.07,136.51 916.92,141.34 1461.76,13.29 591.95,-136.51 1035.31,-396.25 1333.7,-780.41 298.39,-379.33 490.47,-817.86 576.25,-1311.96 84.56,-495.31 101.48,-1006.32 50.74,-1542.7 -50.74,-541.21 -128.05,-1036.52 -234.36,-1483.5l-976.12 -4189.57 -5715.36 1330.08zm10403.86 -2425.79l937.46 4015.61c97.85,425.24 242.82,834.77 434.9,1227.39 190.87,391.41 430.07,728.46 720.01,1009.94 289.94,281.48 639.07,480.81 1038.94,600.41 401.08,119.6 852.89,119.6 1346.99,4.83 524.3,-124.43 929,-337.05 1218.94,-640.27 289.94,-306.85 490.47,-655.98 596.78,-1055.85 106.31,-401.08 149.8,-835.98 128.05,-1304.71 -21.75,-468.73 -85.77,-915.71 -183.63,-1342.16l-877.06 -3763.12 -5361.39 1247.93z"/>
   <path class="fil0" d="M482343 221621.98l345.51 4692.13 -24927.22 13083.35 -468.73 -6400.33 5293.74 -2616.67 -733.3 -9997.95 -5612.67 -1748.07 -456.65 -6256.57 26559.31 9244.12zm-7329.33 2731.44l-8230.55 -2544.19 460.27 6295.23 7770.28 -3751.04z"/>
   <path class="fil0" d="M475945.09 264515.55c617.32,-417.99 1094.51,-1009.94 1431.56,-1777.06 337.05,-767.12 532.76,-1500.42 583.5,-2203.51 30.2,-413.16 13.29,-839.61 -50.74,-1282.97 -64.03,-443.36 -183.63,-868.6 -362.42,-1269.68 -173.96,-404.7 -426.45,-741.75 -745.38,-1009.94 -323.76,-268.19 -724.84,-417.99 -1210.48,-451.82 -775.58,-59.2 -1389.28,187.25 -1845.92,736.92 -455.44,549.67 -860.14,1257.6 -1217.73,2122.57 -358.8,861.35 -721.21,1790.35 -1087.26,2787.01 -366.04,997.86 -848.06,1918.41 -1449.68,2761.64 -600.41,844.44 -1371.15,1525.79 -2309.82,2041.63 -941.08,515.84 -2160.02,716.38 -3664.06,601.62 -1432.77,-107.52 -2660.16,-465.11 -3687.02,-1078.8 -1026.86,-613.7 -1858,-1402.56 -2493.45,-2360.56 -634.23,-964.04 -1073.97,-2058.54 -1325.25,-3282.31 -251.28,-1222.56 -323.76,-2505.53 -225.91,-3835.61 128.05,-1674.38 494.1,-3205 1112.63,-4597.9 613.7,-1394.11 1537.87,-2663.78 2770.09,-3815.07l4137.62 4368.36c-821.48,524.3 -1478.67,1210.48 -1964.31,2063.38 -494.1,851.69 -770.75,1751.69 -843.23,2697.61 -35.03,460.27 -13.29,933.83 59.2,1414.64 72.48,477.19 204.16,916.92 396.25,1308.33 187.25,392.62 443.36,716.38 767.12,972.49 323.76,251.28 711.55,399.87 1176.66,433.7 770.75,55.57 1406.19,-195.71 1900.29,-753.83 494.1,-562.96 929,-1278.13 1313.17,-2152.77 382.96,-873.43 770.75,-1819.35 1163.37,-2837.75 391.41,-1018.4 886.72,-1955.86 1487.13,-2812.38 600.41,-857.73 1359.07,-1552.36 2275.99,-2080.29 920.55,-527.92 2092.37,-736.92 3523.93,-630.61 1380.82,102.69 2570.76,463.9 3575.87,1090.88 997.86,622.15 1815.72,1414.64 2451.16,2373.85 634.23,962.83 1086.05,2050.09 1345.78,3264.19 264.57,1215.31 350.34,2451.16 256.11,3712.38 -111.14,1453.3 -421.61,2847.41 -933.83,4172.66 -514.64,1325.25 -1295.05,2500.7 -2347.27,3515.47l-3963.66 -4206.48z"/>
   <polygon class="fil0" points="479460.55,284312.11 478398.67,289899.41 453037.75,285087.69 454098.43,279500.39 "/>
   <polygon class="fil0" points="474587.22,306236.08 472916.47,311673.58 453256.41,305630.84 450162.56,315701.27 445141.84,314158.57 449911.28,298649.43 "/>
   <polygon class="fil0" points="464487.79,335158.37 462225.09,340378.42 438537.35,330112.28 440801.26,324891.02 "/>
   <path class="fil0" d="M440649.04 366708.2c869.81,-136.51 1667.13,-463.9 2395.59,-979.74 728.46,-520.68 1359.07,-1240.68 1905.12,-2161.23 541.21,-920.55 864.97,-1879.75 971.28,-2876.4 102.69,-993.03 8.46,-1969.15 -293.56,-2919.89 -298.39,-954.37 -792.49,-1849.55 -1483.5,-2692.78 -689.81,-839.61 -1546.32,-1564.44 -2574.39,-2169.69 -1047.39,-613.7 -2100.83,-1014.77 -3161.51,-1202.02 -1061.89,-187.25 -2075.46,-182.42 -3047.95,4.83 -971.28,192.08 -1858,561.75 -2662.58,1116.25 -810.61,558.13 -1470.22,1274.51 -1986.06,2156.4 -593.16,1006.32 -908.47,2019.89 -942.29,3038.28 -38.66,1023.23 175.17,2007.8 630.61,2953.72l-5450.79 2292.91c-767.12,-1717.87 -1035.31,-3486.48 -814.24,-5300.99 222.28,-1815.72 780.41,-3486.48 1679.21,-5017.09 1023.23,-1738.41 2237.34,-3183.25 3643.52,-4329.71 1407.4,-1146.45 2933.18,-1955.86 4577.36,-2424.59 1645.38,-473.56 3366.88,-579.87 5160.85,-328.59 1798.81,251.28 3589.16,903.63 5369.85,1952.23 1781.9,1043.77 3218.29,2292.91 4314,3741.38 1094.51,1444.85 1836.26,3004.46 2224.05,4671.59 384.16,1665.92 421.61,3392.25 102.69,5177.77 -315.31,1785.52 -984.57,3550.5 -2011.43,5288.91 -367.25,630.61 -810.61,1249.14 -1326.46,1862.84 -514.64,613.7 -1094.51,1175.45 -1733.57,1687.67 -639.07,514.64 -1346.99,949.54 -2122.57,1311.96 -775.58,362.42 -1611.56,605.24 -2501.9,728.46l-861.35 -5582.47z"/>
   <path class="fil0" d="M429542.09 393590.07l-2996 3626.61 -27058.25 -7769.07 4088.09 -4951.86 5633.21 1768.61 6384.62 -7735.24 -2851.03 -5140.32 3992.66 -4837.09 12806.7 25038.36zm-7185.57 -3093.86l-4188.36 -7522.62 -4014.4 4862.46 8202.76 2660.16z"/>
   <polygon class="fil0" points="404422.79,413381.8 409826.47,408378 413244.08,412068.64 398264.07,425940.85 394846.46,422250.21 400250.13,417247.61 386126.64,401998.2 390302.92,398132.4 "/>
   <path class="fil0" d="M382485.53 438032.37l-3847.69 2706.07 -24036.87 -14652.62 5246.63 -3690.64 4968.77 3191.71 8200.35 -5769.72 -1389.28 -5710.52 5130.65 -3609.7 5727.44 27535.43zm-6110.39 -4884.21l-2050.09 -8365.85 -5160.85 3630.24 7210.94 4735.62z"/>
   <path class="fil0" d="M214763.8 195468.58l0 72987.68c0,22241.69 -18027.96,40269.65 -40269.65,40269.65 -3410.37,0 -6721.67,-426.45 -9883.18,-1223.77 -17461.37,-4405.81 -30386.46,-20213.35 -30386.46,-39045.88l0 -107380.09 3.62 0 80535.67 34392.41z"/>
   <path class="fil0" d="M187919.38 147652.15c0,7415.1 -6008.92,13424.02 -13425.23,13424.02 -7410.27,0 -13420.4,-6008.92 -13420.4,-13424.02 0,-7411.48 6010.12,-13420.4 13420.4,-13420.4 7416.31,0 13425.23,6008.92 13425.23,13420.4z"/>
   <path class="fil0" d="M348995.55 281883.9c0,47335.62 -35002.48,86492.64 -80539.29,93000.49 -4385.28,630.61 -8864.78,958 -13425.23,958l-13420.4 -5731.06 -26849.25 -11469.37 -27599.46 -11787.09 -38032.31 -16242.44c7829.47,3196.54 16395.86,4961.52 25370.58,4961.52 1125.92,0 2245.79,-30.2 3358.42,-82.15 13808.19,-681.35 26525.49,-5535.35 36902.77,-13329.79 16092.64,-12086.69 26576.23,-31230.9 26849.25,-52838.36 4.83,-285.1 4.83,-575.04 4.83,-864.97 0,-289.94 0,-579.87 -4.83,-864.97l0 -160213.61 26845.63 0c29653.17,0 53690.04,24045.33 53690.04,53694.88 0,16138.54 -7117.92,30612.37 -18390.38,40456.9 15649.28,9499.02 28294.1,23448.55 36196.05,40082.4 5799.92,12205.08 9043.58,25856.22 9043.58,40269.65z"/>
   <polygon class="fil0" points="196622.28,458714.45 190630.28,462136.9 188315.63,458011.36 197998.27,452742.98 202997.24,453774.67 197794.1,479059.48 192653.79,477998.8 "/>
   <path class="fil0" d="M226352.77 473578.49c-298.39,55.57 -593.16,94.23 -886.72,123.22 -293.56,30.2 -596.78,35.03 -912.09,13.29 -1214.11,-80.94 -2301.36,-375.71 -3269.02,-873.43 -967.66,-507.39 -1772.23,-1154.91 -2429.42,-1957.07 -651.15,-796.11 -1138,-1725.12 -1456.93,-2782.17 -320.14,-1053.43 -438.53,-2164.85 -362.42,-3328.22 89.4,-1334.91 417.99,-2523.65 984.57,-3572.25 571.41,-1043.77 1313.17,-1925.66 2224.05,-2645.66 912.09,-721.21 1965.52,-1253.97 3159.09,-1598.27 1192.36,-350.34 2466.87,-477.19 3825.94,-384.16 1334.91,85.77 2574.39,384.16 3720.84,886.72 1151.29,502.56 2127.4,1171.82 2936.81,2002.97 809.4,834.77 1427.93,1807.27 1853.17,2919.89 422.82,1111.42 593.16,2335.19 503.76,3668.89 -60.4,920.55 -200.54,1760.15 -422.82,2510.36 -221.08,753.83 -494.1,1461.76 -817.86,2122.57 -323.76,659.6 -694.64,1286.59 -1112.63,1878.54 -416.78,593.16 -851.69,1202.02 -1308.33,1832.63l-6226.37 8426.26 -6656.44 -443.36 6652.82 -8800.76zm-3874.27 -8225.72c-76.11,1168.2 239.2,2156.4 954.37,2970.63 711.55,814.24 1687.67,1261.22 2923.52,1346.99 1235.85,80.94 2263.91,-234.36 3076.94,-945.92 819.07,-716.38 1262.43,-1653.84 1338.54,-2817.21 77.32,-1163.37 -237.99,-2152.77 -950.75,-2970.63 -715.17,-814.24 -1691.29,-1261.22 -2927.14,-1346.99 -1235.85,-80.94 -2262.71,234.36 -3076.94,950.75 -814.24,711.55 -1261.22,1649.01 -1338.54,2812.38z"/>
   <path class="fil0" d="M248236.87 464235.31c-80.94,-1189.94 76.11,-2237.34 463.9,-3154.26 392.62,-915.71 959.2,-1696.12 1709.41,-2343.65 750.21,-647.52 1636.93,-1151.29 2658.95,-1512.5 1023.23,-358.8 2127.4,-579.87 3316.14,-657.19 1188.74,-80.94 2314.65,-8.46 3375.33,213.83 1065.51,221.08 2002.97,605.24 2817.21,1146.45 817.86,541.21 1483.5,1239.47 2002.97,2092.37 524.3,856.52 822.69,1878.54 898.8,3068.49 94.23,1406.19 -209,2628.75 -903.63,3677.35 -698.26,1044.98 -1725.12,1820.55 -3080.57,2323.11l3.62 72.48c1581.36,310.47 2817.21,976.12 3717.22,1998.14 893.97,1028.06 1397.73,2340.02 1504.04,3938.29 80.94,1240.68 -94.23,2348.48 -529.13,3324.6 -433.7,979.74 -1047.39,1806.06 -1844.72,2480.16 -792.49,672.89 -1726.33,1205.65 -2795.46,1593.44 -1070.35,387.79 -2203.51,622.15 -3388.62,699.47 -1188.74,80.94 -2340.02,0 -3451.44,-242.82 -1112.63,-242.82 -2110.49,-648.73 -2987.55,-1206.86 -878.26,-561.75 -1598.27,-1303.5 -2156.4,-2215.59 -562.96,-912.09 -883.1,-1986.06 -964.04,-3221.91 -106.31,-1603.1 213.83,-2970.63 967.66,-4103.8 755.04,-1134.37 1891.83,-1960.69 3417.62,-2476.53l-3.62 -72.48c-1411.02,-320.14 -2532.1,-950.75 -3363.25,-1896.66 -829.94,-941.08 -1290.21,-2117.74 -1384.44,-3523.93zm5506.36 399.87c55.57,802.16 391.41,1461.76 1009.94,1982.44 617.32,515.84 1402.56,745.38 2348.48,681.35 945.92,-64.03 1691.29,-391.41 2237.34,-988.2 544.84,-596.78 787.66,-1296.25 736.92,-2097.2 -50.74,-775.58 -387.79,-1423.1 -1005.11,-1943.78 -623.36,-519.47 -1402.56,-745.38 -2348.48,-681.35 -945.92,64.03 -1692.5,392.62 -2237.34,988.2 -546.05,596.78 -793.7,1282.97 -741.75,2058.54zm264.57 10543.99c59.2,898.8 438.53,1640.55 1136.79,2228.88 694.64,583.5 1589.81,844.44 2680.7,767.12 1092.09,-72.48 1943.78,-443.36 2557.47,-1116.25 613.7,-677.72 890.34,-1461.76 826.32,-2361.77 -59.2,-920.55 -438.53,-1674.38 -1133.17,-2262.71 -698.26,-583.5 -1593.44,-843.23 -2684.32,-770.75 -1092.09,72.48 -1943.78,446.98 -2557.47,1119.88 -610.07,677.72 -886.72,1475.05 -826.32,2395.59z"/>
   <path class="fil0" d="M280614.23 474194.6l8008.26 -10841.18c404.7,-554.5 800.95,-1171.82 1180.28,-1845.92 384.16,-672.89 498.93,-1389.28 340.67,-2151.56 -178.79,-856.52 -625.78,-1466.59 -1342.16,-1829.01 -720.01,-362.42 -1495.58,-455.44 -2331.57,-285.1 -1001.49,209 -1716.66,677.72 -2147.94,1411.02 -430.07,736.92 -591.95,1559.61 -477.19,2480.16l-5437.5 711.55c-196.91,-1325.25 -158.26,-2518.82 119.6,-3579.5 276.65,-1061.89 745.38,-1994.52 1397.73,-2800.3 651.15,-805.78 1478.67,-1475.05 2471.7,-2016.26 993.03,-541.21 2109.28,-937.46 3345.13,-1193.57 1142.83,-234.36 2245.79,-293.56 3311.31,-178.79 1070.35,115.97 2036.8,414.37 2902.98,895.18 868.6,477.19 1610.35,1151.29 2220.42,2016.26 613.7,868.6 1047.39,1930.49 1311.96,3191.71 166.71,809.4 230.74,1559.61 200.54,2250.63 -33.83,686.18 -141.34,1328.87 -332.22,1925.66 -183.63,596.78 -434.9,1163.37 -746.58,1700.96 -310.47,536.38 -659.6,1065.51 -1047.39,1593.44l-6320.6 8187.06 11212.05 -2304.99 972.49 4709.04 -17643.79 3630.24 -1168.2 -5676.7z"/>
   <path class="fil0" d="M325669.02 453278.16c0,1859.21 1504.04,3358.42 3358.42,3358.42 1858,0 3362.05,-1499.21 3362.05,-3358.42 0,-1853.17 -1504.04,-3357.21 -3362.05,-3357.21 -1854.38,0 -3358.42,1504.04 -3358.42,3357.21z"/>
   <path class="fil0" d="M151171.24 453269.7c0,1859.21 1504.04,3358.42 3357.21,3358.42 1859.21,0 3363.25,-1499.21 3363.25,-3358.42 0,-1853.17 -1504.04,-3357.21 -3363.25,-3357.21 -1853.17,0 -3357.21,1504.04 -3357.21,3357.21z"/>
   <path class="fil0" d="M635160.83 293475.29l-21969.87 0 0 -10070.43 -302.02 0c-814.24,1423.1 -1859.21,2851.03 -3128.89,4270.51 -1274.51,1427.93 -2820.83,2697.61 -4653.47,3813.86 -1829.01,1125.92 -3916.55,2033.17 -6251.74,2744.72 -2344.85,716.38 -4884.21,1073.97 -7628.93,1073.97 -5799.92,0 -10505.34,-895.18 -14111.41,-2672.24 -3613.32,-1777.06 -6408.79,-4245.14 -8391.22,-7398.19 -1981.23,-3154.26 -3306.47,-6865.43 -3967.29,-11135.95 -660.81,-4275.34 -993.03,-8903.44 -993.03,-13885.5l0 -40883.34 22885.59 0 0 36310.82c0,2131.03 76.11,4346.62 225.91,6635.9 153.42,2284.45 608.86,4397.36 1375.99,6329.05 763.5,1930.49 1931.7,3510.64 3508.22,4729.58 1576.53,1218.94 3835.61,1829.01 6789.33,1829.01 2948.89,0 5339.65,-532.76 7172.28,-1598.27 1827.8,-1070.35 3225.53,-2493.45 4189.57,-4274.13 966.45,-1778.27 1606.73,-3789.7 1908.74,-6027.04 306.85,-2232.5 460.27,-4572.53 460.27,-7018.86l0 -36916.06 22881.96 0 0 74142.59z"/>
   <path class="fil0" d="M657824.14 219331.49l21968.67 0 0 10070.43 303.22 0c710.34,-1424.31 1728.74,-2847.41 3050.36,-4275.34 1320.42,-1418.27 2901.77,-2692.78 4730.78,-3809.03 1827.8,-1121.08 3911.72,-2033.17 6255.36,-2749.56 2336.4,-706.72 4880.58,-1065.51 7628.93,-1065.51 5796.3,0 10471.51,890.34 14034.09,2672.24 3554.13,1777.06 6329.05,4245.14 8310.28,7394.57 1986.06,3157.88 3328.22,6865.43 4044.6,11135.95 711.55,4274.13 1070.35,8902.23 1070.35,13884.29l0 40883.34 -22886.8 0 0 -36305.98c0,-2139.48 -72.48,-4346.62 -225.91,-6635.9 -153.42,-2291.7 -613.7,-4397.36 -1372.36,-6332.68 -767.12,-1930.49 -1934.11,-3507.01 -3510.64,-4725.95 -1581.36,-1223.77 -3844.06,-1832.63 -6789.33,-1832.63 -2948.89,0 -5339.65,532.76 -7168.66,1601.89 -1832.63,1065.51 -3230.37,2493.45 -4198.03,4270.51 -967.66,1781.9 -1601.89,3788.49 -1905.12,6025.83 -306.85,2238.54 -455.44,4577.36 -455.44,7020.07l0 36914.85 -22884.38 0 0 -74141.38z"/>
   <path class="fil0" d="M750117.91 201198.43c0,-3665.27 1295.05,-6788.12 3891.18,-9384.25 2591.3,-2594.92 5718.98,-3891.18 9380.63,-3891.18 3664.06,0 6788.12,1296.25 9384.25,3891.18 2594.92,2596.13 3891.18,5718.98 3891.18,9384.25 0,3661.65 -1296.25,6789.33 -3891.18,9380.63 -2596.13,2594.92 -5720.19,3891.18 -9384.25,3891.18 -3661.65,0 -6789.33,-1296.25 -9380.63,-3891.18 -2596.13,-2591.3 -3891.18,-5718.98 -3891.18,-9380.63zm1832.63 17980.84l22881.96 0 0 74142.59 -22881.96 0 0 -74142.59z"/>
   <path class="fil0" d="M799696.9 187921.8l22885.59 0 0 39344.27 302.02 0c2646.87,-3558.96 6027.04,-6072.94 10147.75,-7551.62 4117.09,-1475.05 8566.39,-2211.97 13347.91,-2211.97 5284.08,0 10014.86,1094.51 14187.52,3277.48 4167.83,2190.22 7705.04,5113.74 10603.19,8774.18 2898.15,3661.65 5135.49,7854.84 6712.01,12585.62 1572.9,4730.78 2365.39,9691.1 2365.39,14873.7 0,5595.76 -868.6,10731.24 -2594.92,15406.46 -1729.95,4683.67 -4194.4,8728.27 -7398.19,12132.6 -3205,3405.54 -7045.44,6052.41 -11515.28,7932.16 -4479.51,1878.54 -9461.57,2820.83 -14954.64,2820.83 -2643.25,0 -5135.49,-357.59 -7471.88,-1070.35 -2343.65,-711.55 -4500.04,-1623.64 -6486.1,-2743.52 -1981.23,-1117.46 -3712.38,-2365.39 -5186.22,-3737.75 -1475.05,-1372.36 -2668.62,-2719.35 -3584.33,-4044.6l-306.85 0 0 9768.42 -21052.95 0 0 -105555.91zm21052.95 68481.59c0,5595.76 1601.89,10122.38 4806.89,13578.65 3201.37,3456.27 7705.04,5182.6 13501.34,5182.6 5796.3,0 10296.34,-1726.33 13501.34,-5182.6 3201.37,-3456.27 4803.27,-7982.9 4803.27,-13578.65 0,-5595.76 -1601.89,-10117.55 -4803.27,-13577.45 -3205,-3456.27 -7705.04,-5186.22 -13501.34,-5186.22 -5796.3,0 -10299.96,1729.95 -13501.34,5186.22 -3205,3459.9 -4806.89,7981.69 -4806.89,13577.45z"/>
   <path class="fil0" d="M946458.71 284169.56l-306.85 0c-2544.19,3967.29 -5927.98,6814.7 -10142.92,8544.65 -4223.4,1726.33 -8672.7,2591.3 -13352.75,2591.3 -3456.27,0 -6788.12,-485.64 -9989.49,-1448.47 -3205,-967.66 -6025.83,-2417.34 -8467.33,-4347.83 -2437.88,-1934.11 -4373.2,-4321.25 -5796.3,-7172.28 -1427.93,-2847.41 -2135.86,-6153.88 -2135.86,-9917.01 0,-4266.89 785.24,-7880.21 2365.39,-10829.1 1572.9,-2950.1 3712.38,-5386.76 6406.37,-7322.08 2692.78,-1930.49 5774.55,-3434.53 9230.83,-4500.04 3456.27,-1070.35 7040.6,-1854.38 10756.61,-2365.39 3707.55,-507.39 7419.94,-814.24 11131.11,-916.92 3712.38,-97.85 7148.12,-148.59 10301.17,-148.59 0,-4069.97 -1448.47,-7300.34 -4351.45,-9687.48 -2898.15,-2390.76 -6329.05,-3587.95 -10291.51,-3587.95 -3767.96,0 -7198.86,787.66 -10301.17,2365.39 -3107.14,1580.15 -5868.78,3737.75 -8315.11,6481.27l-12205.08 -12508.31c4274.13,-3962.45 9252.57,-6941.54 14949.81,-8923.98 5698.44,-1981.23 11596.22,-2974.26 17699.36,-2974.26 6712.01,0 12226.83,839.61 16552.91,2518.82 4317.63,1679.21 7777.52,4142.46 10377.28,7393.36 2591.3,3260.57 4393.73,7249.6 5412.13,11980.38 1014.77,4725.95 1522.16,10193.65 1522.16,16399.49l0 37683.18 -21049.33 0 0 -9308.14zm-5646.5 -23188.81c-1729.95,0 -3887.55,77.32 -6482.48,230.74 -2591.3,153.42 -5088.37,583.5 -7475.51,1295.05 -2390.76,711.55 -4423.93,1781.9 -6101.94,3201.37 -1679.21,1426.73 -2515.19,3412.78 -2515.19,5953.35 0,2744.72 1168.2,4781.52 3508.22,6103.15 2338.81,1320.42 4776.69,1981.23 7320.88,1981.23 2237.34,0 4398.57,-306.85 6482.48,-915.71 2083.91,-610.07 3941.92,-1471.42 5570.39,-2591.3 1627.26,-1121.08 2923.52,-2540.56 3891.18,-4275.34 962.83,-1725.12 1448.47,-3758.29 1448.47,-6101.94l0 -4880.58 -5646.5 0z"/>
   <path class="fil0" d="M1030051.99 241146.73c-3353.59,-4167.83 -7777.52,-6251.74 -13270.6,-6251.74 -1930.49,0 -3813.86,455.44 -5646.5,1372.36 -1829.01,912.09 -2744.72,2492.24 -2744.72,4729.58 0,1829.01 937.46,3176 2820.83,4044.6 1883.37,861.35 4274.13,1623.64 7172.28,2284.45 2898.15,660.81 6000.46,1372.36 9308.14,2135.86 3302.85,762.29 6401.54,1959.48 9303.31,3587.95 2898.15,1628.47 5285.29,3835.61 7172.28,6635.9 1879.75,2795.46 2822.04,6533.22 2822.04,11212.05 0,4782.73 -1044.98,8719.81 -3128.89,11822.13 -2087.54,3103.52 -4756.15,5592.13 -8007.06,7475.51 -3260.57,1883.37 -6921.01,3201.37 -10987.35,3963.66 -4065.14,767.12 -8084.37,1146.45 -12051.66,1146.45 -5182.6,0 -10424.39,-741.75 -15713.3,-2211.97 -5288.91,-1475.05 -9759.96,-4091.72 -13425.23,-7858.46l13880.67 -15406.46c2139.48,2642.04 4504.88,4653.47 7096.18,6025.83 2594.92,1372.36 5616.3,2058.54 9077.4,2058.54 2646.87,0 5037.63,-379.33 7172.28,-1141.62 2131.03,-763.5 3201.37,-2161.23 3201.37,-4198.03 0,-1930.49 -937.46,-3380.17 -2822.04,-4342.99 -1883.37,-967.66 -4270.51,-1781.9 -7167.45,-2446.33 -2902.98,-660.81 -6005.29,-1372.36 -9308.14,-2134.65 -3302.85,-763.5 -6405.16,-1905.12 -9303.31,-3435.74 -2902.98,-1520.95 -5293.74,-3682.18 -7173.49,-6482.48 -1883.37,-2790.63 -2820.83,-6528.38 -2820.83,-11212.05 0,-4368.36 890.34,-8131.49 2667.41,-11285.75 1781.9,-3153.05 4121.92,-5744.35 7020.07,-7781.15 2898.15,-2038.01 6226.37,-3533.59 9993.12,-4501.25 3759.5,-967.66 7573.36,-1448.47 11439.17,-1448.47 4884.21,0 9814.32,711.55 14796.38,2134.65 4986.89,1424.31 9205.46,3968.49 12666.56,7628.93l-14038.93 13880.67z"/>
  </g>
 </g>
</svg>
