<?xml version="1.0" encoding="UTF-8"?>
<!DOCTYPE svg PUBLIC "-//W3C//DTD SVG 1.1//EN" "http://www.w3.org/Graphics/SVG/1.1/DTD/svg11.dtd">
<!-- Creator: CorelDRAW (Evaluation Version) -->
<svg xmlns="http://www.w3.org/2000/svg" xml:space="preserve" width="91.111mm" height="40mm" version="1.1" style="shape-rendering:geometricPrecision; text-rendering:geometricPrecision; image-rendering:optimizeQuality; fill-rule:evenodd; clip-rule:evenodd"
viewBox="0 0 44766.89 19653.78"
 xmlns:xlink="http://www.w3.org/1999/xlink"
 xmlns:xodm="http://www.corel.com/coreldraw/odm/2003">
 <defs>
  <style type="text/css">
   <![CDATA[
    .fil0 {fill:#293B5B;fill-rule:nonzero}
   ]]>
  </style>
 </defs>
 <g id="Layer_x0020_1">
  <metadata id="CorelCorpID_0Corel-Layer"/>
  <g id="_1913875876448">
   <path class="fil0" d="M4197.75 17088.13c35.87,-51 76.6,-92.42 122,-124.46 45.6,-32.08 94.63,-53.21 147.01,-63.29 52.52,-10.22 107.8,-8.3 165.53,5.7 57.68,14.05 116.1,41.96 175.21,83.38 59.8,42.11 106.08,88.05 138.85,137.82 32.77,49.58 53.21,100.87 61.37,153.74 8.16,52.87 4.67,106.08 -10.07,159.83 -14.74,53.56 -40.04,105.88 -75.91,156.84l-371.26 527.46 -189.32 -133.11 366.25 -520.19c18.72,-26.68 31.94,-54.44 39.36,-83.04 7.47,-28.6 9.38,-56.65 5.55,-84.07 -3.64,-27.22 -12.97,-53.21 -27.71,-77.63 -14.94,-24.27 -35.03,-45.25 -59.99,-62.94 -25.11,-17.69 -51.49,-29.09 -79.06,-34.64 -27.56,-5.55 -54.74,-5.4 -81.81,0.34 -27.02,5.7 -52.67,16.95 -77.14,33.61 -24.42,16.66 -46.09,38.32 -64.81,65l-366.25 520.33 -189.12 -133.25 371.31 -527.46z"/>
   <polygon class="fil0" points="3267.54,17153.03 3044.47,16931.54 3242.04,16099.35 3239.98,16097.09 2725.68,16614.86 2561.53,16451.74 3301.49,15706.91 3516.11,15920.1 3314.51,16773.27 3316.58,16775.34 3843.35,16245.13 4007.5,16408.06 "/>
   <polygon class="fil0" points="2123.49,15916.96 1982.23,15733.74 2813.88,15092.73 2955.19,15275.95 "/>
   <polygon class="fil0" points="1636.47,15267.11 1502.34,15039.71 1963.02,14466.66 1961.5,14464.05 1234.7,14586.4 1108.82,14373.06 2233.26,14212.39 2327.4,14372.02 "/>
   <polygon class="fil0" points="848.06,13814.45 582.69,13152.31 780.8,13072.91 960.23,13520.28 1141.88,13447.51 972.52,13024.9 1170.63,12945.36 1340.19,13367.91 1538.3,13288.56 1349.04,12816.38 1547.29,12736.83 1822.54,13423.73 "/>
   <path class="fil0" d="M368.21 12479.61l-93.95 -395.38c-12.48,-51.84 -19.11,-102.45 -20.15,-151.48 -1.03,-49.09 6.09,-93.95 21.32,-134.53 15.28,-40.73 40.39,-76.26 75.42,-106.43 34.98,-30.17 82.35,-52.33 141.95,-66.58 72.13,-17.15 137.82,-12.82 197.27,12.68 59.45,25.45 104.31,72.62 135.02,141.61l369.74 -362.27 64.12 269.7 -357.6 310.63 26.53 111.09 408.21 -97.04 53.56 224.99 -1021.46 243.02zm369.2 -325.71l-31.54 -132.61c-4.86,-20.24 -10.56,-41.42 -17.54,-63.78 -6.73,-22.16 -15.92,-41.62 -27.56,-58.22 -11.6,-16.46 -26.48,-28.94 -44.71,-37.29 -18.18,-8.5 -41.22,-9.19 -69.13,-2.6 -25.99,6.09 -45.45,16.31 -58.27,30.51 -12.82,14.4 -21.47,30.51 -25.8,48.89 -4.18,18.38 -5.4,38.32 -3.14,60.14 2.11,22.01 5.55,42.99 10.42,63.09l35.03 147.16 232.26 -55.28z"/>
   <path class="fil0" d="M293.87 10517.77c-21.82,20.78 -37.1,47.86 -45.4,80.78 -8.5,33.12 -11.25,63.97 -8.65,92.37 1.38,16.8 5.01,33.8 10.56,51.15 5.55,17.49 13.17,33.61 23.04,48.54 9.73,15.08 22.01,26.88 36.75,35.33 14.74,8.7 31.89,11.99 51.49,10.27 31.54,-2.8 54.59,-16.85 69.13,-42.16 14.59,-25.11 26.19,-56.16 34.69,-93.26 8.5,-36.9 16.8,-76.6 24.76,-119.05 8.16,-42.5 21.32,-82.5 39.7,-120.48 18.38,-37.98 44.71,-70.36 79.06,-97.43 34.15,-26.83 81.81,-43.14 142.83,-48.69 58.22,-5.36 109.86,0.88 155.12,18.57 45.4,17.64 83.87,43.68 115.96,77.98 31.89,34.34 56.85,75.22 75.22,122.74 18.23,47.46 29.82,98.27 34.69,152.37 6.24,67.95 1.72,131.88 -13.71,191.87 -15.43,59.94 -43.88,117.19 -85.64,171.58l-195.16 -147.5c29.48,-26.34 51.15,-58.42 65,-96.01 13.86,-37.44 19.06,-75.42 15.58,-113.7 -1.72,-18.72 -5.7,-37.64 -11.74,-56.36 -6.24,-18.72 -14.4,-35.38 -24.62,-49.92 -10.42,-14.4 -22.75,-25.65 -37.44,-33.8 -14.59,-7.96 -31.2,-11.25 -49.92,-9.53 -31.54,2.95 -55.33,17.15 -71.44,42.99 -15.92,25.84 -28.6,57.54 -38.13,95.17 -9.53,37.59 -18.72,78.17 -27.56,121.51 -8.99,43.68 -22.55,84.56 -40.88,122.89 -18.38,38.47 -44.22,71.39 -77.34,98.81 -33.26,27.37 -79.06,43.68 -137.09,48.89 -56.16,5.16 -106.28,-1.42 -150.65,-19.6 -44.37,-18.38 -82.5,-44.71 -114.39,-79.06 -32.08,-34.3 -57.19,-74.88 -75.91,-121.85 -18.72,-46.78 -30.51,-96.01 -35.23,-147.16 -5.36,-59.11 -2.06,-116.99 9.53,-173.69 11.79,-56.5 35.23,-108.83 70.56,-156.84l187.2 142.29z"/>
   <polygon class="fil0" points="-0,9749.75 4.67,9518.52 1054.43,9539.65 1049.71,9771.07 "/>
   <polygon class="fil0" points="289.5,8670.81 250,8967.73 47.22,8940.7 156.74,8117.5 359.71,8144.53 320.01,8441.5 1157.95,8553.08 1127.44,8782.44 "/>
   <path class="fil0" d="M330.09 7067.84l-51.84 188.77 -273.68 191.03 79.89 -291.76 245.62 -88.05zm8.5 260.71l50.61 -184.6 1133.29 -162.78 -68.98 251.72 -238.5 28.4 -107.85 393.32 191.53 143.18 -67.56 245.97 -892.53 -715.2zm318.24 -5.01l280.8 209.21 67.76 -247.34 -348.56 38.13z"/>
   <path class="fil0" d="M1099.83 5324.5l173.69 -300.36c42.11,-72.82 90.11,-137.28 144.21,-193.29 54.1,-56.16 113.55,-98.07 178.01,-125.83 64.66,-27.71 134.33,-39.16 209.02,-34.15 74.88,5.01 153.79,31.54 236.78,79.4 73.7,42.65 130.35,93.95 170.4,154.28 39.9,60.14 65.35,124.8 76.26,193.93 10.96,68.98 8.35,140.08 -7.62,213.19 -15.92,72.96 -43.34,143.18 -82.5,210.98l-189.27 327.24 -908.99 -525.39zm840 218.26l60.14 -104.02c26.53,-46.09 46.78,-91.88 60.29,-137.09 13.71,-45.25 18.03,-88.79 12.82,-130.55 -4.82,-41.57 -20.24,-81.12 -46.24,-118.36 -25.84,-37.29 -64.51,-70.75 -115.81,-100.38 -44.56,-25.65 -88.05,-39.7 -130.7,-42.11 -42.65,-2.41 -82.69,4.32 -120.48,20.29 -37.78,15.92 -72.96,39.85 -105.74,71.59 -32.58,31.89 -61.17,68.98 -85.25,110.9l-68.3 118.07 539.25 311.66z"/>
   <polygon class="fil0" points="1972.36,3943.63 2420.61,3388.8 2586.83,3522.94 2283.82,3897.89 2436.18,4020.92 2722.2,3666.81 2888.42,3800.99 2602.26,4155.1 2768.28,4289.24 3087.95,3893.71 3254.17,4027.85 2789.12,4603.51 "/>
   <path class="fil0" d="M4264.38 2951.7c-26.88,72.08 -62.4,139 -106.77,200.37 -44.37,61.37 -95.17,118.02 -152.51,169.71 -60.88,54.93 -125.49,96.21 -194.13,123.38 -68.64,27.42 -137.63,40.24 -207.15,38.52 -69.67,-1.92 -137.63,-18.57 -204.35,-50.26 -66.77,-31.94 -128.09,-78.91 -184.45,-141.31 -56.31,-62.2 -96.89,-128.24 -121.85,-197.77 -24.76,-69.48 -34.49,-138.85 -29.28,-208.33 5.36,-69.33 24.96,-136.79 59.11,-202.29 34.15,-65.35 81.61,-125.69 142.49,-180.62 62.4,-56.36 126.52,-100.73 192.56,-133.11 66.04,-32.28 135.56,-48.05 208.18,-47.17l-1.72 241.45c-45.25,-2.95 -88.25,2.6 -128.78,16.46 -40.78,14.05 -83.04,40.93 -127.06,80.78 -36.61,33.12 -64.17,69.33 -82.69,108.69 -18.38,39.36 -28.1,79.75 -29.28,121.36 -1.03,41.57 6.73,83.04 23.19,124.11 16.51,41.08 40.93,79.55 73.36,115.42 33.26,36.75 69.13,65.2 107.95,85.3 39.01,20.29 79.06,31.89 120.67,34.98 41.42,3.14 82.69,-2.41 123.77,-16.8 40.88,-14.4 79.7,-38.13 116.45,-71.24 37.44,-33.8 65.89,-67.22 85.3,-100.19 19.6,-32.92 33.46,-61.02 41.62,-84.41l-114.43 -126.52 -139.69 126.18 -143.18 -158.41 304.88 -275.45 367.82 407.18z"/>
   <polygon class="fil0" points="4177.8,1805.54 4370.56,1677.65 4832.82,2374.62 5190.07,2137.84 5308.09,2315.85 4758.13,2680.53 "/>
   <polygon class="fil0" points="5240.93,1156.38 5446.65,1050.49 5927.33,1983.9 5721.56,2089.79 "/>
   <path class="fil0" d="M7459.45 570.35c-24.42,-17.84 -53.75,-27.91 -87.7,-30.32 -33.95,-2.26 -64.81,0.34 -92.37,8.16 -16.31,4.47 -32.43,11.06 -48.54,19.56 -15.97,8.5 -30.51,19.06 -43.53,31.4 -12.97,12.28 -22.36,26.53 -28.25,42.45 -5.7,15.97 -6.04,33.46 -0.69,52.52 8.5,30.51 26.39,50.61 53.75,60.48 27.37,9.88 59.99,15.62 97.92,17.34 37.98,1.92 78.52,2.75 121.71,3.14 43.14,0.34 85.1,6.24 125.64,17.49 40.59,11.25 77.14,31.35 109.91,60.14 32.58,28.94 57.19,72.96 73.65,131.93 15.62,56.31 18.72,108.14 9.38,156 -9.19,47.66 -27.91,90.31 -56.01,127.9 -27.91,37.64 -63.58,69.53 -107.11,96.01 -43.48,26.39 -91.34,47.02 -143.87,61.57 -65.69,18.18 -129.47,25.11 -191.18,20.78 -61.71,-4.32 -123.08,-22.16 -184.11,-53.36l110.11 -218.4c31.35,24.08 66.72,39.65 106.08,46.63 39.31,6.93 77.63,5.36 114.88,-5.06 18.03,-5.01 35.72,-12.28 53.07,-21.67 17.49,-9.53 32.43,-20.59 44.71,-33.26 12.48,-12.68 21.32,-26.88 26.53,-42.8 5.36,-15.77 5.55,-32.77 0.49,-50.81 -8.45,-30.51 -26.83,-51.3 -55.08,-62.6 -28.1,-11.06 -61.71,-17.84 -100.38,-20.44 -38.67,-2.6 -80.24,-4.52 -124.6,-5.36 -44.42,-1.03 -87.21,-7.12 -128.09,-18.23 -41.13,-11.25 -78.22,-30.66 -110.95,-58.57 -32.97,-27.71 -57.19,-69.67 -72.82,-125.83 -15.08,-54.44 -17.69,-105.05 -7.62,-151.83 10.02,-47.02 29.14,-89.28 57.19,-126.72 28.1,-37.64 63.43,-69.67 106.28,-96.55 42.8,-26.73 89.08,-47.17 138.66,-60.88 57,-15.92 114.58,-23.19 172.46,-21.82 57.73,1.38 113.35,15.08 166.91,41.27l-106.43 209.71z"/>
   <polygon class="fil0" points="8417.71,326.3 8120.8,366.54 8093.38,163.72 8916.38,52.28 8943.8,255.11 8647.03,295.3 8760.38,1133.04 8531.07,1164.04 "/>
   <path class="fil0" d="M10403.14 659.34c-1.03,62.25 -11.45,119.45 -31,171.63 -19.6,51.98 -48.2,97.04 -85.99,135.02 -37.59,37.98 -84.41,67.27 -140.03,88.25 -55.82,20.78 -119.64,30.66 -191.92,29.43 -73.11,-1.18 -137.09,-13.17 -192.21,-35.67 -54.93,-22.7 -100.73,-53.56 -137.09,-92.77 -36.41,-39.16 -63.63,-85.1 -81.66,-137.77 -17.84,-52.72 -26.34,-110.06 -25.3,-172.46l10.42 -644.99 231.37 3.78 -10.37 636c-0.54,32.72 4.13,62.89 14.2,90.8 9.88,27.91 24.08,52.03 42.45,72.62 18.57,20.49 40.73,36.75 66.72,48.54 25.99,11.79 54.24,17.88 84.95,18.38 30.66,0.54 58.91,-4.67 84.76,-15.58 25.99,-11.1 48.54,-26.53 67.61,-46.48 19.06,-19.9 34.15,-43.68 44.91,-71.05 10.71,-27.56 16.46,-57.73 16.95,-90.31l10.42 -636.14 231.23 3.83 -10.42 644.94z"/>
   <path class="fil0" d="M11129.84 92.96l341.48 61.37c82.84,14.74 159.64,38.13 230.88,70.02 71.05,31.94 130.7,73.51 178.7,124.8 48,51.35 82.35,113.06 103.13,184.99 20.64,72.08 22.55,155.26 5.55,249.6 -14.89,83.68 -44.02,154.58 -87.02,212.65 -43.14,58.08 -95.32,104.02 -156.54,137.63 -61.32,33.66 -128.93,55.47 -203.12,65.2 -74.05,9.88 -149.61,7.76 -226.36,-5.9l-372.34 -66.92 185.63 -1033.44zm79.89 864.08l118.22 21.32c52.52,9.38 102.45,12.82 149.61,10.22 47.12,-2.6 89.42,-13.32 127.06,-32.23 37.59,-18.72 69.48,-46.63 95.66,-83.73 26.19,-36.9 44.56,-84.56 54.93,-142.98 9.19,-50.61 7.66,-96.4 -4.67,-137.28 -12.28,-40.73 -32.23,-76.26 -59.94,-106.43 -27.76,-29.97 -62.25,-55.13 -103.33,-75.08 -41.08,-19.9 -85.44,-34.15 -133.11,-42.65l-134.33 -24.22 -110.11 613.05z"/>
   <polygon class="fil0" points="12690.94,440.64 12911.45,510.51 12594.39,1511.33 12373.92,1441.51 "/>
   <path class="fil0" d="M14364.65 1112.94l300.01 174.33c72.67,42.16 136.94,90.31 192.95,144.6 55.96,54.24 97.78,113.7 125.29,178.36 27.76,64.66 39.01,134.33 33.8,209.02 -5.16,74.88 -31.69,153.59 -79.89,236.63 -42.8,73.46 -94.29,130.16 -154.63,170.01 -60.29,39.9 -124.95,65.2 -194.13,75.96 -69.13,10.56 -140.23,7.96 -213,-8.16 -73.16,-16.12 -143.37,-43.68 -210.79,-83.04l-327.09 -189.81 527.46 -907.91zm-220.12 839.46l103.82 60.29c46.28,26.68 91.83,46.97 137.09,60.68 45.25,13.71 88.74,18.18 130.55,13.17 41.57,-4.86 81.12,-20.29 118.36,-45.94 37.29,-25.8 70.9,-64.46 100.73,-115.76 25.8,-44.37 39.85,-87.9 42.3,-130.55 2.55,-42.65 -4.18,-82.69 -19.95,-120.48 -15.77,-37.78 -39.7,-73.11 -71.44,-105.88 -31.89,-32.77 -68.79,-61.37 -110.55,-85.64l-118.07 -68.44 -312.84 538.56z"/>
   <polygon class="fil0" points="15743.51,1988.32 16297.31,2437.76 16162.78,2603.63 15788.57,2299.98 15665.14,2452.01 16018.77,2738.85 15884.09,2904.58 15530.66,2617.69 15396.13,2783.57 15790.98,3104.07 15656.5,3269.95 15081.87,2803.51 "/>
   <polygon class="fil0" points="16809.78,2922.71 16967.85,3091.54 16357.2,3663.22 16650.14,3976.06 16494.14,4122.04 16043.28,3640.18 "/>
   <polygon class="fil0" points="17646.2,3883.39 17781.27,4071.28 17101.93,4559.38 17352.08,4907.25 17178.73,5031.91 16793.57,4496.1 "/>
   <path class="fil0" d="M18518.19 5252.82l87.7 170.01 -723.5 887.52 -119.59 -231.96 156.15 -182.49 -187.01 -362.27 -237.81 24.22 -116.99 -226.71 1141.05 -78.32zm-230.74 219.24l-348.36 36.21 117.68 227.98 230.69 -264.2z"/>
   <path class="fil0" d="M19310.48 7236.08l88.88 381.33c10.27,44.22 17.54,89.42 21.67,135.71 4.18,46.28 1.08,89.28 -9.34,129.32 -10.56,40.04 -29.97,75.08 -58.57,105.05 -28.65,29.97 -70.75,51.49 -126.57,64.46 -57.73,13.51 -109.37,8.5 -154.97,-14.89 -45.55,-23.39 -82.64,-59.65 -111.44,-108.69l-2.95 0.69c3.14,34.69 0.88,67.41 -6.78,98.27 -7.42,30.71 -19.75,58.42 -36.9,83.23 -17,24.62 -38.82,45.74 -65.15,63.09 -26.39,17.34 -56.01,29.82 -88.79,37.44 -53.9,12.63 -101.56,11.45 -143.18,-3.14 -41.42,-14.74 -77.44,-37.78 -108.14,-69.13 -30.66,-31.54 -56.16,-68.98 -76.45,-112.52 -20.24,-43.48 -35.67,-87.85 -46.28,-133.11l-97.58 -418.77 1022.54 -238.35zm-779.52 419.12l47.17 202.29c4.13,17.34 10.02,34.49 18.18,51.3 8.01,17 18.38,31.54 31.4,43.68 12.97,12.33 28.25,21.18 45.94,26.73 17.49,5.5 37.24,5.7 59.45,0.49 24.08,-5.55 42.11,-16.12 54.24,-31.69 12.14,-15.43 19.95,-33.31 23.39,-53.41 3.49,-20.1 4.18,-40.93 2.06,-62.74 -2.06,-22.01 -5.16,-42.11 -9.53,-60.34l-39.65 -170.35 -232.65 54.05zm423.29 -98.61l37.98 163.27c4.13,17.34 10.02,33.95 17.84,49.92 7.62,15.97 17.49,29.63 29.28,41.08 11.79,11.45 25.84,19.6 42.3,24.47 16.31,4.82 34.69,4.82 54.78,0.15 21.13,-5.01 37.78,-13.71 49.58,-25.99 11.79,-12.48 19.9,-26.68 24.27,-42.99 4.32,-16.31 6.04,-33.95 5.16,-53.02 -1.03,-19.11 -3.44,-37.29 -7.42,-54.64l-35.72 -153.05 -218.06 50.81z"/>
   <path class="fil0" d="M19617.86 9013.76l14.05 190.84 -1013.84 532.18 -19.06 -260.36 215.26 -106.43 -29.82 -406.64 -228.28 -71.1 -18.52 -254.47 1080.22 375.98zm-298.15 111.14l-334.7 -103.53 18.72 256.04 315.98 -152.51z"/>
   <path class="fil0" d="M19357.6 10758.33c25.11,-16.95 44.56,-41.08 58.22,-72.28 13.71,-31.2 21.67,-61.02 23.78,-89.62 1.18,-16.8 0.49,-34.15 -2.11,-52.18 -2.6,-17.98 -7.42,-35.33 -14.74,-51.64 -7.08,-16.46 -17.3,-30.17 -30.32,-41.08 -13.17,-10.91 -29.48,-17 -49.23,-18.38 -31.54,-2.41 -56.5,7.47 -75.03,29.97 -18.57,22.41 -35.03,51.15 -49.58,86.18 -14.59,35.18 -29.33,72.96 -44.22,113.5 -14.89,40.59 -34.49,78.03 -58.91,112.32 -24.47,34.34 -55.82,62.06 -93.95,83.04 -38.32,20.98 -87.9,29.14 -149.07,24.47 -58.27,-4.37 -108.19,-18.92 -149.96,-43.88 -41.76,-24.96 -75.57,-57.05 -101.41,-96.01 -25.8,-39.21 -43.68,-83.73 -53.9,-133.5 -10.02,-49.72 -13.17,-101.9 -9.19,-156 5.21,-68.1 20.29,-130.35 45.25,-187.01 25.16,-56.7 62.6,-108.34 112.67,-155.12l168.33 177.62c-33.46,21.32 -59.99,49.23 -79.94,83.92 -19.9,34.64 -31.35,71.24 -34.3,109.72 -1.38,18.72 -0.54,37.98 2.41,57.54 2.95,19.41 8.3,37.29 16.12,53.21 7.62,15.97 18.23,29.14 31.2,39.55 13.17,10.37 28.94,16.26 47.86,17.64 31.35,2.26 57.19,-7.96 77.29,-30.66 20.1,-22.9 37.78,-51.98 53.41,-87.56 15.58,-35.52 31.35,-74 47.32,-115.42 15.92,-41.42 36.21,-79.55 60.68,-114.39 24.27,-34.84 55.08,-63.09 92.37,-84.41 37.44,-21.67 85.1,-30.17 143.33,-25.84 56.16,4.18 104.56,19.06 145.44,44.37 40.73,25.3 74.05,57.54 99.69,96.75 25.99,38.96 44.17,83.18 54.74,132.56 10.76,49.43 14.25,99.69 10.42,150.99 -4.52,59.11 -17.15,115.81 -37.93,169.71 -20.98,53.9 -52.72,101.76 -95.52,142.98l-161.21 -171.09z"/>
   <polygon class="fil0" points="19500.58,11563.5 19457.44,11790.75 18425.91,11595.04 18469.05,11367.8 "/>
   <polygon class="fil0" points="19302.37,12455.19 19234.42,12676.35 18435,12430.57 18308.97,12840.16 18104.82,12777.41 18298.75,12146.63 "/>
   <polygon class="fil0" points="18891.66,13631.52 18799.58,13843.83 17836.2,13426.28 17928.23,13213.93 "/>
   <path class="fil0" d="M17922.14 14914.91c35.38,-5.55 67.95,-18.87 97.43,-39.85 29.63,-20.98 55.42,-50.26 77.44,-87.7 22.06,-37.44 35.23,-76.45 39.55,-116.84 4.32,-40.54 0.34,-80.09 -11.79,-118.71 -12.33,-38.67 -32.43,-75.22 -60.48,-109.37 -27.91,-34.34 -62.94,-63.63 -104.56,-88.05 -42.8,-25.16 -85.59,-41.47 -128.78,-49.09 -42.99,-7.62 -84.41,-7.47 -123.92,0.34 -39.5,7.62 -75.57,22.7 -108.34,45.4 -32.92,22.55 -59.8,51.69 -80.78,87.36 -24.08,40.93 -36.9,82.2 -38.28,123.62 -1.57,41.57 6.93,81.61 25.65,119.94l-221.69 93.26c-31.2,-69.87 -42.3,-141.61 -33.12,-215.45 8.84,-73.85 31.69,-141.8 68.3,-203.86 41.57,-70.7 91,-129.27 148.19,-175.9 57.19,-46.63 119.45,-79.4 186.17,-98.66 66.92,-19.06 136.94,-23.58 210.1,-13.17 72.96,10.22 145.73,36.61 218.21,79.2 72.47,42.5 130.85,93.26 175.41,152.02 44.56,58.76 74.73,122.05 90.51,189.81 15.77,67.76 17.15,137.82 4.32,210.44 -13.02,72.62 -40.24,144.21 -81.81,214.91 -15.08,25.65 -33.12,50.81 -54.1,75.77 -20.98,24.96 -44.37,47.86 -70.36,68.64 -26.19,20.78 -54.98,38.47 -86.53,53.21 -31.54,14.54 -65.35,24.42 -101.71,29.63l-35.03 -226.9z"/>
   <path class="fil0" d="M17470.34 16008.1l-121.85 147.5 -1100.51 -316.18 166.22 -201.21 229.16 71.93 259.63 -314.61 -115.96 -209.07 162.44 -196.73 520.87 1018.36zm-292.25 -125.83l-170.4 -306.11 -163.27 197.91 333.67 108.19z"/>
   <polygon class="fil0" points="16448.69,16813.02 16668.47,16609.56 16807.52,16759.66 16198.2,17323.87 16059.2,17173.77 16278.98,16970.25 15704.55,16350.08 15874.46,16192.85 "/>
   <path class="fil0" d="M15556.46 17815.56l-156.54 110.06 -977.58 -595.95 213.34 -150.11 202.14 129.81 333.48 -234.67 -56.5 -232.26 208.72 -146.67 232.95 1119.77zm-248.57 -198.65l-83.38 -340.26 -209.9 147.65 293.28 192.61z"/>
   <path class="fil0" d="M8734.83 7950.05l0 2968.75c0,904.42 -733.18,1637.65 -1637.85,1637.65 -138.66,0 -273.19,-17.15 -401.97,-49.72 -709.99,-179.24 -1235.88,-822.17 -1235.88,-1587.93l0 -4367.56 0.34 0 3275.35 1398.81z"/>
   <path class="fil0" d="M7643.01 6005.26c0,301.59 -244.39,545.98 -545.98,545.98 -301.44,0 -545.83,-244.39 -545.83,-545.98 0,-301.44 244.39,-545.83 545.83,-545.83 301.59,0 545.98,244.39 545.98,545.83z"/>
   <path class="fil0" d="M14194.35 11464.74c0,1925.24 -1423.57,3517.83 -3275.7,3782.52 -178.36,25.65 -360.55,39.01 -545.98,39.01l-545.83 -233.14 -1092.01 -466.48 -1122.53 -479.26 -1546.85 -660.76c318.44,130.01 666.8,201.8 1031.68,201.8 45.94,0 91.54,-1.23 136.79,-3.29 561.61,-27.76 1078.85,-225.18 1500.91,-542.2 654.52,-491.59 1080.91,-1270.22 1092.01,-2149.04 0.15,-11.6 0.15,-23.39 0.15,-35.18 0,-11.79 0,-23.58 -0.15,-35.18l0 -6516.21 1091.82 0c1206.1,0 2183.68,977.97 2183.68,2183.88 0,656.39 -289.45,1244.87 -747.92,1645.46 636.49,386.34 1150.78,953.7 1472.12,1630.23 235.94,496.26 367.82,1051.62 367.82,1637.85z"/>
   <polygon class="fil0" points="7996.98,18656.79 7753.27,18795.99 7659.13,18628.2 8052.99,18413.92 8256.31,18455.88 8044.64,19484.12 7835.62,19441.13 "/>
   <path class="fil0" d="M9206.18 19261.34c-11.94,2.26 -24.08,3.83 -36.06,5.01 -11.94,1.23 -24.22,1.42 -37.05,0.54 -49.43,-3.29 -93.6,-15.08 -132.96,-35.72 -39.36,-20.44 -72.13,-46.78 -98.81,-79.35 -26.53,-32.43 -46.28,-70.21 -59.31,-113.21 -12.97,-42.8 -17.84,-88.05 -14.69,-135.37 3.64,-54.29 16.95,-102.64 40.19,-145.29 23.04,-42.45 53.21,-78.32 90.31,-107.6 37.1,-29.33 79.89,-51 128.44,-65 48.54,-14.25 100.38,-19.41 155.66,-15.62 54.24,3.49 104.71,15.62 151.33,36.06 46.78,20.44 86.48,47.51 119.4,81.46 32.97,34 58.08,73.51 75.42,118.76 17.15,45.2 24.08,94.98 20.44,149.22 -2.41,37.44 -8.16,71.59 -17.15,102.1 -8.99,30.66 -20.1,59.45 -33.26,86.33 -13.17,26.88 -28.25,52.33 -45.25,76.4 -17,24.13 -34.69,48.89 -53.21,74.54l-253.24 342.71 -270.78 -18.03 270.58 -357.94zm-157.57 -334.56c-3.1,47.51 9.73,87.75 38.87,120.82 28.94,33.12 68.64,51.35 118.91,54.78 50.41,3.29 92.03,-9.53 125.15,-38.47 33.26,-29.14 51.3,-67.27 54.44,-114.58 3.29,-47.32 -9.73,-87.51 -38.67,-120.82 -29.14,-33.12 -68.64,-51.3 -119.1,-54.78 -50.26,-3.29 -92.03,9.53 -125.15,38.52 -33.12,29.09 -51.3,67.22 -54.44,114.53z"/>
   <path class="fil0" d="M10096.25 18881.39c-3.29,-48.35 3.14,-91.19 18.92,-128.29 15.92,-37.24 39.01,-68.98 69.53,-95.32 30.46,-26.34 66.53,-46.78 108.14,-61.52 41.62,-14.59 86.48,-23.58 134.82,-26.88 48.4,-3.14 94.14,-0.34 137.48,8.65 43.14,9.19 81.32,24.62 114.39,46.83 33.31,22.01 60.53,50.41 81.66,85.1 21.13,34.84 33.26,76.45 36.41,124.6 3.78,57.39 -8.35,107.16 -36.75,149.61 -28.45,42.65 -70.21,74.19 -125.34,94.63l0.34 2.95c64.17,12.63 114.43,39.7 150.99,81.27 36.41,41.62 56.85,95.17 61.17,160.18 3.29,50.26 -3.78,95.32 -21.47,135.22 -17.69,39.85 -42.65,73.51 -74.88,100.87 -32.43,27.37 -70.36,49.04 -113.89,64.81 -43.48,15.77 -89.62,25.3 -137.77,28.45 -48.4,3.29 -95.17,-0.2 -140.43,-9.88 -45.25,-9.88 -85.79,-26.34 -121.51,-49.23 -35.72,-22.9 -65,-52.87 -87.7,-89.97 -22.7,-37.1 -35.87,-80.78 -39.16,-131.19 -4.32,-65 8.84,-120.67 39.36,-166.76 30.66,-46.14 76.94,-79.75 139,-100.73l-0.2 -2.95c-57.34,-12.97 -102.94,-38.67 -136.74,-77.14 -33.8,-38.28 -52.52,-86.13 -56.36,-143.33zm223.95 16.26c2.26,32.63 15.97,59.45 41.08,80.43 25.3,21.18 57.05,30.51 95.52,27.91 38.47,-2.6 68.84,-15.92 91,-40.19 22.21,-24.27 32.23,-52.72 30.02,-85.3 -2.11,-31.54 -15.77,-57.88 -40.93,-79.01 -25.3,-21.18 -57.05,-30.37 -95.52,-27.76 -38.47,2.41 -68.79,15.97 -91,40.24 -22.16,24.22 -32.23,52.13 -30.17,83.68zm10.76 428.85c2.41,36.41 17.84,66.72 46.28,90.51 28.25,23.93 64.66,34.3 109.03,31.35 44.37,-2.95 79.06,-18.03 104.02,-45.6 24.96,-27.37 36.21,-59.26 33.76,-95.81 -2.55,-37.44 -17.98,-68.15 -46.24,-92.08 -28.45,-23.93 -64.86,-34.3 -109.23,-31.35 -44.37,2.95 -79.06,18.18 -103.82,45.6 -24.96,27.37 -36.21,59.94 -33.8,97.38z"/>
   <path class="fil0" d="M11413.15 19286.45l325.52 -440.98c16.66,-22.5 32.63,-47.66 48.2,-75.03 15.62,-27.42 20.1,-56.5 13.86,-87.56 -7.27,-34.84 -25.45,-59.6 -54.74,-74.34 -29.33,-14.74 -60.88,-18.57 -94.68,-11.64 -40.73,8.5 -69.82,27.56 -87.36,57.39 -17.64,29.97 -24.08,63.43 -19.41,100.87l-221.15 28.94c-7.96,-53.9 -6.44,-102.45 4.86,-145.59 11.25,-43.14 30.32,-81.27 56.85,-113.89 26.53,-32.72 59.94,-60.14 100.33,-81.96 40.59,-22.01 85.84,-38.13 136.25,-48.54 46.48,-9.53 91.34,-11.99 134.68,-7.27 43.34,4.67 82.69,16.8 118.07,36.41 35.33,19.41 65.5,46.78 90.31,81.96 24.96,35.38 42.65,78.52 53.21,129.86 6.73,32.92 9.53,63.43 8.3,91.49 -1.38,27.91 -5.9,54.1 -13.51,78.37 -7.62,24.27 -17.69,47.32 -30.32,69.13 -12.68,21.86 -26.88,43.34 -42.65,64.86l-257.07 332.98 456.07 -93.95 39.5 191.67 -717.61 147.7 -47.51 -230.88z"/>
   <path class="fil0" d="M13245.57 18435.74c0,75.57 61.22,136.54 136.79,136.54 75.37,0 136.59,-60.98 136.59,-136.54 0,-75.42 -61.22,-136.59 -136.59,-136.59 -75.57,0 -136.79,61.17 -136.79,136.59z"/>
   <path class="fil0" d="M6148.39 18435.39c0,75.57 61.17,136.59 136.74,136.59 75.42,0 136.59,-61.02 136.59,-136.59 0,-75.42 -61.17,-136.59 -136.59,-136.59 -75.57,0 -136.74,61.17 -136.74,136.59z"/>
   <path class="fil0" d="M25155.76 6883.1c0,156.69 -23.58,300.9 -70.9,432.63 -47.17,131.78 -117.33,246.16 -210.59,343.06 -93.26,96.89 -209.56,172.81 -348.76,227.39 -139.2,54.78 -299.52,82.01 -481.03,82.01 -184.06,0 -345.61,-27.22 -484.81,-82.01 -139.2,-54.59 -255.5,-130.5 -348.56,-227.39 -93.26,-96.89 -163.67,-211.28 -210.79,-343.06 -47.32,-131.73 -70.9,-275.94 -70.9,-432.63l0 -1622.08 581.7 0 0 1599.72c0,82.01 13.17,157.92 39.21,227.39 26.14,69.72 62.74,130.01 110.06,180.96 47.12,51 103.82,90.65 169.66,119.3 65.89,28.6 137.28,42.94 214.42,42.94 76.99,0 147.85,-14.35 212.51,-42.94 64.66,-28.65 120.67,-68.3 167.79,-119.3 47.32,-50.95 83.92,-111.24 110.06,-180.96 26.19,-69.48 39.21,-145.39 39.21,-227.39l0 -1599.72 581.7 0 0 1622.08z"/>
   <polygon class="fil0" points="25692.75,5260.97 26483.32,5260.97 27605.85,7095.7 27613.27,7095.7 27613.27,5260.97 28195.02,5260.97 28195.02,7901.21 27434.22,7901.21 26281.87,6021.72 26274.45,6021.72 26274.45,7901.21 25692.75,7901.21 "/>
   <polygon class="fil0" points="28724.44,5260.97 29306.2,5260.97 29306.2,7901.21 28724.44,7901.21 "/>
   <polygon class="fil0" points="29574.67,5260.97 30238.37,5260.97 30890.98,6991.19 30898.45,6991.19 31562.3,5260.97 32185.08,5260.97 31096.21,7901.21 30629.93,7901.21 "/>
   <polygon class="fil0" points="32483.33,5260.97 34276.98,5260.97 34276.98,5797.96 33065.03,5797.96 33065.03,6290.24 34209.91,6290.24 34209.91,6827.23 33065.03,6827.23 33065.03,7364.22 34344.05,7364.22 34344.05,7901.21 32483.33,7901.21 "/>
   <path class="fil0" d="M34810.29 5260.97l1021.8 0c134.19,0 261.54,12.97 382.22,39.16 120.48,25.99 226.22,69.67 316.87,130.5 90.8,60.88 162.93,143.03 216.29,246.16 53.56,103.13 80.29,231.72 80.29,385.85 0,186.51 -48.54,344.92 -145.44,475.42 -97.09,130.7 -238.7,213.24 -425.21,248.08l671.32 1115.06 -697.32 0 -552.07 -1055.46 -287.04 0 0 1055.46 -581.7 0 0 -2640.24zm581.7 1092.5l343.01 0c52.18,0 107.65,-1.72 166.07,-5.55 58.42,-3.64 111.09,-14.89 158.41,-33.41 47.17,-18.72 86.33,-47.86 117.53,-87.75 31.05,-39.65 46.63,-95.66 46.63,-167.75 0,-67.12 -13.66,-120.67 -41.08,-160.37 -27.37,-39.65 -62.2,-70.16 -104.36,-91.34 -42.26,-21.13 -90.8,-35.52 -145.39,-42.99 -54.78,-7.42 -108.19,-11.06 -160.52,-11.06l-380.3 0 0 600.23z"/>
   <path class="fil0" d="M38531.93 5906.11c-47.32,-59.65 -111.29,-103.82 -192.07,-132.42 -80.78,-28.45 -157.23,-42.85 -229.31,-42.85 -42.3,0 -85.84,5.01 -130.55,14.94 -44.71,9.88 -87.16,25.45 -126.87,46.63 -39.7,21.13 -72.13,49.04 -96.89,83.87 -24.81,34.84 -37.29,76.94 -37.29,126.72 0,79.75 29.82,140.57 89.47,182.88 59.6,42.11 134.82,78.17 225.67,108.14 90.65,29.63 188.23,59.6 292.74,89.42 104.36,29.82 201.94,72.13 292.79,126.72 90.65,54.78 165.88,128.09 225.48,219.97 59.65,92.03 89.47,215.11 89.47,369.2 0,146.81 -27.42,274.71 -82.01,384.13 -54.78,109.37 -128.63,200.17 -221.89,272.3 -93.26,72.08 -201.4,125.49 -324.48,160.33 -123.03,34.84 -252.9,52.18 -389.64,52.18 -171.63,0 -330.72,-26.19 -477.39,-78.37 -146.62,-52.18 -283.36,-136.59 -410.08,-253.58l413.91 -454.84c59.65,79.55 134.87,141.11 225.67,184.6 90.65,43.53 184.45,65.2 281.49,65.2 47.17,0 95.03,-5.55 143.52,-16.85 48.54,-11.06 91.88,-27.91 130.55,-50.26 38.47,-22.36 69.48,-50.95 93.26,-85.79 23.58,-34.84 35.33,-75.72 35.33,-123.08 0,-79.55 -30.46,-142.29 -91.34,-188.23 -61.02,-46.09 -137.43,-85.25 -229.31,-117.53 -92.03,-32.23 -191.53,-64.61 -298.3,-96.89 -106.97,-32.38 -206.46,-75.91 -298.34,-130.5 -92.03,-54.78 -168.48,-126.87 -229.31,-216.34 -61.02,-89.62 -91.54,-207.64 -91.54,-354.26 0,-141.8 28.1,-266.11 84.07,-372.88 55.82,-106.92 130.55,-196.39 223.61,-268.47 93.26,-72.13 200.91,-126.18 322.57,-162.24 121.9,-36.06 247.39,-54.1 376.66,-54.1 149.27,0 293.28,21.13 432.68,63.43 139.15,42.16 264.69,113.01 376.66,212.51l-399.02 436.31z"/>
   <polygon class="fil0" points="39359.65,5260.97 39941.35,5260.97 39941.35,7901.21 39359.65,7901.21 "/>
   <polygon class="fil0" points="40981.82,5775.56 40228.49,5775.56 40228.49,5260.92 42316.85,5260.92 42316.85,5775.56 41563.52,5775.56 41563.52,7901.16 40981.82,7901.16 "/>
   <path class="fil0" d="M43137.2 5260.97l480.98 0 1148.71 2640.24 -656.44 0 -227.39 -559.35 -1025.63 0 -219.97 559.35 -641.35 0 1141.1 -2640.24zm223.76 768.22l-320.65 820.4 645.14 0 -324.48 -820.4z"/>
   <path class="fil0" d="M22929.48 9405.91l528.49 0c127.9,0 249.6,14.4 364.68,42.99 115.27,28.6 215.8,74.88 301.64,138.8 85.79,63.97 153.89,147.16 204.35,249.6 50.46,102.45 75.77,226.56 75.77,372.68 0,129.47 -24.62,243.56 -73.51,342.17 -48.89,98.61 -114.78,181.5 -197.62,248.37 -82.84,67.07 -178.36,117.87 -286.85,152.56 -108.34,34.49 -222.04,51.79 -340.94,51.79l-576 0 0 -1598.98zm352.39 1273.81l182.88 0c81.27,0 157.03,-8.3 227.05,-24.76 70.02,-16.66 130.5,-44.22 181.85,-82.5 51.1,-38.32 91.34,-88.79 120.77,-151.33 29.33,-62.4 44.02,-138.85 44.02,-229.31 0,-78.17 -14.69,-146.32 -44.02,-204.4 -29.43,-57.88 -68.98,-105.74 -118.71,-143.33 -49.58,-37.64 -108,-65.89 -174.92,-84.76 -67.07,-18.72 -137.43,-28.25 -211.28,-28.25l-207.64 0 0 948.64z"/>
   <polygon class="fil0" points="24657.19,9405.91 25743.51,9405.91 25743.51,9731.08 25009.58,9731.08 25009.58,10029.23 25702.92,10029.23 25702.92,10354.55 25009.58,10354.55 25009.58,10679.72 25784.24,10679.72 25784.24,11004.89 24657.19,11004.89 "/>
   <path class="fil0" d="M27514.21 10892.03c-103.82,54.24 -212.31,93.45 -325.17,117.38 -113.01,24.08 -228.08,36.21 -345.61,36.21 -125,0 -240.07,-19.6 -345.46,-58.76 -105.39,-39.01 -196.59,-95.17 -273.33,-168.14 -76.8,-73.16 -136.59,-161.55 -179.59,-265.38 -42.85,-104.02 -64.32,-219.97 -64.32,-347.87 0,-127.95 21.47,-243.9 64.32,-347.92 42.99,-103.82 102.79,-192.21 179.59,-265.38 76.75,-72.96 167.94,-128.93 273.33,-168.14 105.39,-39.16 220.47,-58.72 345.46,-58.72 127.9,0 245.77,15.43 353.42,46.24 107.65,30.86 202.09,83.92 283.55,159.29l-248.57 270.93c-48.15,-49.58 -102.25,-87.16 -162.59,-112.81 -60.14,-25.65 -135.51,-38.47 -225.82,-38.47 -75.22,0 -143.37,12.82 -204.4,38.47 -60.98,25.65 -113.35,61.37 -157.03,107.11 -43.68,46.09 -77.14,100.73 -100.33,163.81 -23.44,63.24 -35.03,131.88 -35.03,205.58 0,75.22 11.6,144.21 35.03,206.61 23.19,62.55 56.65,116.65 100.33,162.59 43.68,45.94 96.06,81.81 157.03,107.31 61.02,25.65 129.17,38.47 204.4,38.47 76.75,0 142.98,-8.7 198.8,-25.99 55.62,-17.34 100.04,-35.03 133.3,-53.07l0 -259.82 -286.9 0 0 -325.17 625.58 0 0 835.63z"/>
   <polygon class="fil0" points="27837.17,9405.91 28189.57,9405.91 28189.57,10679.72 28842.22,10679.72 28842.22,11004.89 27837.17,11004.89 "/>
   <polygon class="fil0" points="29031.98,9405.96 29384.17,9405.96 29384.17,11004.99 29031.98,11004.99 "/>
   <path class="fil0" d="M31163.92 9796.67c-28.6,-36.06 -67.41,-62.94 -116.3,-80.29 -48.89,-17.15 -95.17,-25.99 -138.85,-25.99 -25.65,0 -51.98,3.14 -79.06,9.19 -27.17,5.9 -52.67,15.43 -76.75,28.25 -24.13,12.68 -43.68,29.63 -58.76,50.81 -15.08,20.98 -22.55,46.63 -22.55,76.8 0,48.15 18.03,85.1 54.1,110.55 36.21,25.7 81.61,47.51 136.59,65.55 55.13,18.03 114.19,36.06 177.33,54.24 63.24,18.03 122.34,43.68 177.33,76.8 54.93,33.12 100.53,77.49 136.54,133.3 36.26,55.62 54.29,130.16 54.29,223.41 0,88.93 -16.51,166.42 -49.58,232.6 -33.31,66.38 -78.03,121.36 -134.53,165.04 -56.31,43.68 -121.85,75.91 -196.39,97.04 -74.54,21.18 -153.2,31.54 -236.09,31.54 -103.82,0 -200.17,-15.77 -289.11,-47.32 -88.74,-31.69 -171.63,-82.84 -248.37,-153.55l250.63 -275.6c36.21,48.15 81.81,85.44 136.74,111.78 54.98,26.34 111.83,39.5 170.59,39.5 28.4,0 57.54,-3.29 86.82,-10.02 29.28,-6.93 55.62,-17 79.06,-30.71 23.39,-13.51 42.11,-30.66 56.5,-51.84 14.2,-21.13 21.47,-45.89 21.47,-74.49 0,-48.2 -18.52,-86.18 -55.47,-114.09 -36.75,-27.91 -83.18,-51.64 -138.8,-71.24 -55.67,-19.41 -116.01,-38.96 -180.62,-58.57 -64.86,-19.6 -125.15,-45.94 -180.81,-79.06 -55.62,-33.12 -101.9,-76.8 -138.85,-131.04 -36.9,-54.24 -55.28,-125.64 -55.28,-214.57 0,-85.79 16.8,-161.01 50.81,-225.87 33.8,-64.66 79.01,-118.91 135.51,-162.59 56.36,-43.68 121.51,-76.45 195.36,-98.27 73.65,-21.86 149.76,-32.77 228.13,-32.77 90.31,0 177.67,12.82 261.89,38.47 84.41,25.65 160.33,68.49 228.13,128.78l-241.64 264.2z"/>
   <polygon class="fil0" points="31979.26,9717.62 31523.04,9717.62 31523.04,9405.96 32787.86,9405.96 32787.86,9717.62 32331.5,9717.62 32331.5,11004.99 31979.26,11004.99 "/>
   <path class="fil0" d="M34314.57 10388.35c0,94.83 -14.4,182.19 -42.99,261.94 -28.6,79.89 -71.1,149.22 -127.6,207.79 -56.5,58.76 -126.87,104.71 -211.13,137.82 -84.41,33.12 -181.45,49.77 -291.37,49.77 -111.44,0 -209.36,-16.66 -293.63,-49.77 -84.22,-33.12 -154.63,-79.06 -211.13,-137.82 -56.5,-58.57 -98.96,-127.9 -127.55,-207.79 -28.79,-79.75 -42.99,-167.11 -42.99,-261.94l0 -982.44 352.39 0 0 968.93c0,49.58 7.81,95.66 23.73,137.82 15.77,42.11 37.98,78.66 66.58,109.52 28.6,30.86 62.74,54.93 102.79,72.28 39.85,17.34 83.18,25.99 129.81,25.99 46.63,0 89.62,-8.65 128.78,-25.99 39.01,-17.34 73.01,-41.42 101.61,-72.28 28.6,-30.86 50.76,-67.41 66.53,-109.52 15.97,-42.16 23.78,-88.25 23.78,-137.82l0 -968.93 352.39 0 0 982.44z"/>
   <path class="fil0" d="M34639.74 9405.91l528.54 0c127.9,0 249.6,14.4 364.68,42.99 115.27,28.6 215.65,74.88 301.59,138.8 85.84,63.97 153.94,147.16 204.4,249.6 50.41,102.45 75.57,226.56 75.57,372.68 0,129.47 -24.47,243.56 -73.31,342.17 -49.09,98.61 -114.78,181.5 -197.62,248.37 -82.84,67.07 -178.36,117.87 -286.9,152.56 -108.29,34.49 -222.04,51.79 -340.94,51.79l-576 0 0 -1598.98zm352.24 1273.81l183.03 0c81.32,0 157.03,-8.3 226.9,-24.76 70.21,-16.66 130.7,-44.22 181.85,-82.5 51.1,-38.32 91.49,-88.79 120.97,-151.33 29.28,-62.4 43.88,-138.85 43.88,-229.31 0,-78.17 -14.59,-146.32 -43.88,-204.4 -29.48,-57.88 -68.98,-105.74 -118.71,-143.33 -49.58,-37.64 -108,-65.89 -174.92,-84.76 -67.07,-18.72 -137.43,-28.25 -211.28,-28.25l-207.84 0 0 948.64z"/>
   <polygon class="fil0" points="36349.47,9405.96 36701.86,9405.96 36701.86,11004.99 36349.47,11004.99 "/>
   <path class="fil0" d="M37690.94 9405.91l528.49 0c127.95,0 249.6,14.4 364.73,42.99 115.27,28.6 215.8,74.88 301.59,138.8 85.79,63.97 153.94,147.16 204.35,249.6 50.46,102.45 75.77,226.56 75.77,372.68 0,129.47 -24.62,243.56 -73.51,342.17 -48.89,98.61 -114.73,181.5 -197.57,248.37 -82.89,67.07 -178.36,117.87 -286.9,152.56 -108.34,34.49 -222.04,51.79 -340.94,51.79l-576 0 0 -1598.98zm352.39 1273.81l182.88 0c81.32,0 157.03,-8.3 227.05,-24.76 70.07,-16.66 130.55,-44.22 181.85,-82.5 51.15,-38.32 91.34,-88.79 120.82,-151.33 29.28,-62.4 44.02,-138.85 44.02,-229.31 0,-78.17 -14.74,-146.32 -44.02,-204.4 -29.48,-57.88 -68.98,-105.74 -118.76,-143.33 -49.58,-37.64 -107.95,-65.89 -174.87,-84.76 -67.07,-18.72 -137.48,-28.25 -211.33,-28.25l-207.64 0 0 948.64z"/>
   <polygon class="fil0" points="39418.71,9405.91 40505.02,9405.91 40505.02,9731.08 39771.1,9731.08 39771.1,10029.23 40464.48,10029.23 40464.48,10354.55 39771.1,10354.55 39771.1,10679.72 40545.75,10679.72 40545.75,11004.89 39418.71,11004.89 "/>
   <polygon class="fil0" points="40841.54,9405.91 41193.93,9405.91 41193.93,10679.72 41846.54,10679.72 41846.54,11004.89 40841.54,11004.89 "/>
   <polygon class="fil0" points="42054.33,9405.91 42406.72,9405.91 42406.72,10679.72 43059.32,10679.72 43059.32,11004.89 42054.33,11004.89 "/>
   <path class="fil0" d="M43779.83 9405.91l291.37 0 695.6 1598.98 -397.45 0 -137.82 -338.68 -621.06 0 -133.3 338.68 -388.41 0 691.08 -1598.98zm135.56 465.21l-194.33 496.95 390.86 0 -196.54 -496.95z"/>
   <path class="fil0" d="M22929.48 12443.94l1033.59 0c119.94,0 240.76,8.5 362.07,25.45 121.36,17 230.39,50.81 326.94,101.76 96.55,50.95 174.87,122.05 234.86,213.39 59.99,91.34 90.11,212.65 90.11,364.18 0,156.49 -43.83,286.36 -131.19,389.49 -87.56,103.13 -202.97,176.79 -346.5,221.15l0 7.81c91.34,13.17 174.18,38.47 248.57,76.45 74.34,37.78 138.31,86.13 191.87,144.7 53.36,58.76 94.63,127.26 123.23,205.58 28.79,78.37 43.19,161.9 43.19,250.63 0,146.13 -31.4,268.18 -93.95,365.95 -62.79,97.92 -143.72,176.93 -242.87,236.93 -99.15,59.99 -210.79,103.13 -334.7,129.13 -123.92,26.19 -247.2,39.16 -369.88,39.16l-1135.35 0 0 -2771.77zm610.64 1107.93l442.36 0c47.17,0 93.4,-5.21 139,-15.58 45.79,-10.56 86.87,-27.42 123.43,-50.95 36.56,-23.44 65.89,-54.78 88.05,-93.95 22.21,-39.21 33.26,-86.18 33.26,-140.92 0,-57.39 -12.48,-105.05 -37.24,-143.03 -24.76,-37.78 -56.7,-67.07 -95.86,-88.05 -39.16,-20.78 -83.53,-35.72 -133.11,-44.91 -49.58,-9.19 -97.78,-13.86 -144.9,-13.86l-414.99 0 0 591.23zm0 1147.14l548.09 0c46.97,0 94.63,-5.36 142.98,-15.77 48.2,-10.42 92.08,-28.6 131.04,-54.78 39.21,-25.99 71.24,-59.94 96.06,-101.71 24.76,-41.81 37.1,-92.77 37.1,-152.71 0,-65.2 -16.31,-118.07 -48.89,-158.61 -32.77,-40.39 -73.85,-71.1 -123.23,-92.08 -49.77,-20.78 -103.13,-35.18 -160.52,-42.94 -57.54,-7.81 -111.09,-11.79 -160.52,-11.79l-462.11 0 0 630.4z"/>
   <path class="fil0" d="M26378.52 12443.94l505.1 0 1205.71 2771.77 -689.01 0 -238.84 -587.25 -1076.59 0 -231.03 587.25 -673.24 0 1197.9 -2771.77zm234.86 806.54l-336.62 861.28 677.22 0 -340.6 -861.28z"/>
   <path class="fil0" d="M29737.55 13121.26c-49.58,-62.6 -116.84,-108.88 -201.6,-139.05 -84.9,-29.97 -165.19,-45.06 -240.76,-45.06 -44.37,0 -90.11,5.36 -137.09,15.77 -46.97,10.42 -91.39,26.68 -133.15,48.89 -41.76,22.16 -75.72,51.64 -101.76,88.05 -26.14,36.56 -39.16,80.92 -39.16,133.11 0,83.58 31.4,147.5 93.95,191.92 62.74,44.37 141.61,82.15 236.98,113.5 95.12,31.4 197.57,62.6 307.29,93.95 109.57,31.4 212.02,75.77 307.34,133.15 95.17,57.34 174.23,134.48 236.78,230.88 62.74,96.7 93.95,225.82 93.95,387.72 0,153.94 -28.74,288.47 -86.13,403.2 -57.39,114.93 -135.02,210.1 -232.95,285.82 -97.78,75.57 -211.33,131.73 -340.45,168.33 -129.32,36.56 -265.72,54.74 -409.24,54.74 -180.08,0 -347.04,-27.37 -501.12,-82.15 -153.94,-54.93 -297.46,-143.52 -430.57,-266.21l434.55 -477.73c62.6,83.73 141.46,148.19 236.78,193.98 95.32,45.55 193.79,68.44 295.74,68.44 49.38,0 99.64,-5.9 150.6,-17.69 50.95,-11.79 96.55,-29.28 137.13,-52.87 40.39,-23.39 72.96,-53.36 97.73,-89.97 24.81,-36.56 37.29,-79.55 37.29,-129.27 0,-83.58 -32.08,-149.27 -95.86,-197.62 -64.12,-48.35 -144.41,-89.42 -240.96,-123.43 -96.55,-33.8 -200.86,-67.76 -313.04,-101.76 -112.32,-33.95 -216.68,-79.55 -313.23,-136.89 -96.7,-57.39 -176.93,-133.15 -240.91,-227.1 -63.78,-94.09 -95.86,-218.06 -95.86,-371.95 0,-148.93 29.48,-279.28 88.25,-391.6 58.57,-112.12 136.94,-206.07 234.86,-281.84 97.73,-75.57 210.59,-132.42 338.54,-170.2 127.9,-37.98 259.63,-56.85 395.53,-56.85 156.54,0 307.83,22.16 453.95,66.53 146.32,44.37 278.05,118.76 395.58,223.12l-418.97 458.13z"/>
   <polygon class="fil0" points="30606.74,12443.99 31217.38,12443.99 31217.38,15215.81 30606.74,15215.81 "/>
   <polygon class="fil0" points="31796.72,12443.94 32407.37,12443.94 32407.37,14652.04 33538.88,14652.04 33538.88,15215.71 31796.72,15215.71 "/>
   <polygon class="fil0" points="33867.69,12443.99 34478.33,12443.99 34478.33,15215.81 33867.69,15215.81 "/>
   <path class="fil0" d="M36846.91 13164.3c-59.99,-72.96 -133.79,-129.13 -221.15,-168.29 -87.56,-39.21 -188.63,-58.76 -303.55,-58.76 -114.73,0 -220.96,22.16 -318.93,66.53 -97.92,44.42 -182.68,106.47 -254.42,186.02 -71.93,79.55 -127.95,174.18 -168.48,283.75 -40.39,109.72 -60.53,228.43 -60.53,356.37 0,130.5 20.15,249.75 60.53,358.09 40.54,108.34 96.01,202.29 166.37,281.84 70.56,79.75 153.4,141.65 248.57,186.02 95.32,44.37 197.77,66.53 307.48,66.53 125.15,0 236.09,-25.99 332.64,-78.32 96.55,-52.18 176.29,-125.15 238.84,-219.09l508.93 379.76c-117.33,164.31 -266.26,285.67 -446.14,363.99 -180.27,78.37 -365.61,117.38 -556.1,117.38 -216.63,0 -416.32,-33.8 -598.85,-101.76 -182.88,-67.76 -340.6,-165.04 -473.71,-291.56 -133.15,-126.72 -236.98,-279.92 -311.32,-460.05 -74.39,-180.08 -111.49,-380.99 -111.49,-602.83 0,-221.89 37.1,-422.95 111.49,-603.03 74.34,-179.93 178.16,-333.33 311.32,-459.85 133.11,-126.72 290.83,-223.81 473.71,-291.76 182.53,-67.76 382.22,-101.76 598.85,-101.76 78.37,0 159.83,7.12 244.79,21.52 84.76,14.4 168.29,37.1 250.44,68.44 82.35,31.4 161.21,73.16 236.98,125.34 75.57,52.18 143.52,116.15 203.47,191.72l-469.73 383.74z"/>
   <path class="fil0" d="M38628.18 12443.94l505.1 0 1205.71 2771.77 -689.01 0 -238.84 -587.25 -1076.59 0 -230.88 587.25 -673.44 0 1197.95 -2771.77zm234.86 806.54l-336.62 861.28 677.22 0 -340.6 -861.28z"/>
   <polygon class="fil0" points="40793.19,12984.17 40002.42,12984.17 40002.42,12443.89 42194.75,12443.89 42194.75,12984.17 41403.84,12984.17 41403.84,15215.71 40793.19,15215.71 "/>
   <path class="fil0" d="M43055.98 12443.94l505.1 0 1205.71 2771.77 -689.01 0 -238.84 -587.25 -1076.59 0 -230.88 587.25 -673.44 0 1197.95 -2771.77zm234.86 806.54l-336.62 861.28 677.22 0 -340.6 -861.28z"/>
   <polygon class="fil0" points="43627.46,4902.68 43136.91,4902.68 42493.83,4367.61 43252.03,4367.61 "/>
  </g>
 </g>
</svg>
