<?xml version="1.0" encoding="UTF-8"?>
<!DOCTYPE svg PUBLIC "-//W3C//DTD SVG 1.1//EN" "http://www.w3.org/Graphics/SVG/1.1/DTD/svg11.dtd">
<!--Risorse grafiche UNIBAS - bit.ly/unibasbrand -->
<svg xmlns="http://www.w3.org/2000/svg" xml:space="preserve" width="77.4996mm" height="25mm" version="1.1" style="shape-rendering:geometricPrecision; text-rendering:geometricPrecision; image-rendering:optimizeQuality; fill-rule:evenodd; clip-rule:evenodd"
viewBox="0 0 71082.51 22929.96"
 xmlns:xlink="http://www.w3.org/1999/xlink"
 xmlns:xodm="http://www.corel.com/coreldraw/odm/2003">
 <defs>
  <style type="text/css">
   <![CDATA[
    .fil0 {fill:black;fill-rule:nonzero}
   ]]>
  </style>
 </defs>
 <g id="Layer_x0020_1">
  <metadata id="CorelCorpID_0Corel-Layer"/>
  <path class="fil0" d="M6879.08 7523.6l0 6234.2c0,1899.98 -1539.88,3439.49 -3439.49,3439.49 -291.21,0 -574.07,-36.23 -844.19,-104.84 -1491,-375.96 -2595.4,-1725.89 -2595.4,-3334.66l0 -9171.89 0.37 0 6878.71 2937.69zm-2292.9 -4084.19c0,633.6 -513.17,1146.77 -1146.68,1146.77 -632.87,0 -1146.04,-513.17 -1146.04,-1146.77 0,-632.87 513.17,-1146.04 1146.04,-1146.04 633.51,0 1146.68,513.17 1146.68,1146.04zm13758.07 11465.07c0,4043.01 -2989.79,7387.67 -6879.08,7943.58 -374.4,53.75 -757.15,81.54 -1146.68,81.54l-1146.13 -489.23 -2293.09 -979.75 -2357.84 -1006.63 -3247.98 -1387.08c668.45,272.77 1400.1,423.2 2166.61,423.2 96.12,0 192.24,-2.29 286.99,-6.79 1179.43,-58.24 2265.66,-472.72 3152.23,-1138.61 1374.15,-1032.22 2269.79,-2667.21 2293.09,-4512.8 0.37,-24.58 0.37,-49.25 0.37,-74.11 0,-24.58 0,-49.16 -0.37,-73.83l0 -13683.96 2292.81 0c2532.84,0 4585.63,2053.42 4585.63,4585.9 0,1378.46 -607.74,2614.47 -1570.34,3455.45 1336.36,811.81 2416.73,2002.89 3091.42,3423.63 495.38,1042.21 772.37,2208.34 772.37,3439.49zm11554.04 -9621.5c0,329.09 -49.8,631.95 -148.86,908.58 -99.33,276.72 -246.54,516.75 -442.64,720.28 -195.73,203.89 -439.7,363.03 -731.83,477.95 -292.59,114.56 -629.38,172.07 -1010.57,172.07 -386.32,0 -725.78,-57.51 -1017.91,-172.07 -292.49,-114.92 -536.47,-274.06 -732.2,-477.95 -195.82,-203.53 -343.31,-443.56 -442.64,-720.28 -99.06,-276.63 -148.59,-579.49 -148.59,-908.58l0 -3406.48 1221.52 0 0 3359.61c0,172.16 27.52,331.66 82.18,477.59 54.94,146.2 131.98,273.05 231.04,379.81 99.33,107.13 218.02,190.59 356.52,250.76 138.22,59.89 288.28,89.98 450.07,89.98 161.79,0 310.66,-30.08 446.58,-89.98 135.56,-60.17 252.96,-143.63 352.3,-250.76 99.33,-106.76 176.38,-233.61 231.04,-379.81 55.03,-145.93 82.18,-305.43 82.18,-477.59l0 -3359.61 1221.8 0 0 3406.48zm1127.7 -3406.66l1660.22 0 2357.2 3853.06 15.87 0 0 -3853.06 1221.43 0 0 5544.65 -1597.48 0 -2419.94 -3946.8 -15.5 0 0 3946.8 -1221.8 0 0 -5544.65zm6366.64 -0.09l1221.8 0 0 5544.65 -1221.8 0 0 -5544.65zm1785.51 0.09l1393.96 0 1370.57 3633.67 15.59 0 1393.87 -3633.67 1307.92 0 -2286.67 5544.65 -978.83 0 -2216.41 -5544.65zm6108.45 0l3766.84 0 0 1127.7 -2545.13 0 0 1033.77 2404.07 0 0 1127.6 -2404.07 0 0 1127.7 2685.92 0 0 1127.88 -3907.63 0 0 -5544.65zm4886.47 0l2145.97 0c281.76,0 549.4,27.52 802.73,82.27 253.06,54.94 475.02,146.2 665.61,274.06 190.59,128.13 341.66,300.2 453.92,517.02 112.27,216.46 168.58,486.67 168.58,810.53 0,391.55 -101.9,724.5 -305.43,998.55 -203.53,274.06 -501.25,447.5 -892.71,520.6l1409.46 2341.61 -1464.49 0 -1158.97 -2216.41 -602.87 0 0 2216.41 -1221.8 0 0 -5544.65zm1221.8 2294.74l720.28 0c109.7,0 225.91,-4.13 348.54,-11.92 122.63,-7.8 233.61,-31.37 332.94,-70.53 98.97,-39.16 181.51,-100.34 246.54,-183.81 65.3,-83.47 98.05,-200.96 98.05,-352.66 0,-140.79 -28.8,-253.06 -86.12,-336.52 -57.6,-83.47 -130.7,-147.58 -219.3,-191.88 -89.06,-44.3 -190.59,-74.38 -305.52,-90.25 -114.83,-15.59 -227.1,-23.3 -336.8,-23.3l-798.6 0 0 1260.87zm6593.83 -939.85c-99.33,-125.2 -233.61,-217.74 -403.11,-277.91 -169.96,-59.89 -330.37,-90.34 -481.8,-90.34 -88.97,0 -180.23,10.73 -274.06,31.46 -93.83,21 -182.89,53.66 -266.35,97.96 -83.47,44.39 -151.43,103.28 -203.53,176.1 -52.37,73.38 -78.24,162.07 -78.24,266.26 0,167.3 62.37,295.06 187.93,383.76 125.29,88.97 283.14,164.73 473.73,227.1 190.59,62.83 395.4,125.29 614.8,188.03 219.39,62.74 424.2,151.43 614.71,266.26 190.59,114.92 348.54,268.92 473.73,462.08 125.2,193.16 188.03,451.72 188.03,775.31 0,308 -57.6,576.92 -172.16,806.58 -115.2,229.76 -270.48,420.35 -466.3,571.78 -195.73,151.43 -422.83,263.69 -681.02,336.52 -258.56,73.1 -531.33,109.7 -818.32,109.7 -360.46,0 -694.69,-54.67 -1002.77,-164.36 -308,-109.7 -594.99,-286.99 -861.34,-532.62l869.41 -955.17c125.29,166.93 283.14,296.07 473.73,387.61 190.59,91.26 387.61,136.85 591.13,136.85 99.33,0 199.67,-11.65 301.57,-35.22 101.9,-23.3 193.16,-58.61 274.06,-105.84 80.9,-46.87 146.29,-106.76 195.82,-179.86 49.44,-73.1 74.38,-159.23 74.38,-258.56 0,-166.93 -64.11,-298.64 -191.88,-395.4 -127.86,-96.76 -288.28,-178.95 -481.44,-246.82 -193.16,-67.69 -402.19,-135.65 -626.45,-203.53 -224.53,-67.69 -433.56,-159.23 -626.72,-274.06 -193.25,-114.92 -353.67,-266.35 -481.53,-454.29 -128.13,-188.03 -191.88,-435.85 -191.88,-743.94 0,-297.63 58.61,-558.48 176.01,-783.01 117.49,-224.53 274.43,-412.56 470.16,-563.99 195.73,-151.43 421.27,-264.98 677.26,-340.74 255.9,-75.39 519.59,-113.55 791.08,-113.55 313.22,0 615.81,44.67 908.3,133.36 292.49,88.6 556.19,237.46 791.08,446.13l-838.04 916.37zm1738.46 -1354.98l1221.71 0 0 5544.65 -1221.71 0 0 -5544.65zm3406.57 1080.92l-1581.89 0 0 -1080.73 4385.58 0 0 1080.73 -1581.89 0 0 4463.91 -1221.8 0 0 -4463.91zm4526.47 -1080.83l1010.2 0 2412.14 5544.65 -1378.37 0 -477.59 -1174.84 -2153.67 0 -462.08 1174.84 -1347 0 2396.36 -5544.65zm469.79 1613.35l-673.32 1722.68 1354.79 0 -681.48 -1722.68zm-42906.91 7091.32l1109.81 0c268.56,0 524.18,30.18 765.86,90.34 242.05,59.8 453,157.21 633.23,291.49 180.23,134.64 323.22,309 429.34,524.18 105.84,214.9 158.86,476.03 158.86,782.74 0,271.77 -51.36,511.25 -154.27,718.35 -102.63,207.01 -241.04,381.1 -414.85,521.89 -174.08,140.7 -374.68,247.18 -602.51,320.01 -227.47,72.83 -466.21,109.05 -716.06,109.05l-1209.42 0 0 -3358.05zm740 2675.01l384.03 0c170.87,0 329.73,-17.15 476.67,-52.1 147.21,-34.67 274.33,-92.55 381.74,-173.17 107.5,-80.53 192.24,-186.37 253.7,-317.72 61.82,-131.07 92.55,-291.85 92.55,-481.44 0,-164.36 -30.73,-307.44 -92.55,-429.07 -61.45,-121.71 -144.64,-222.33 -248.84,-301.3 -104.47,-78.88 -226.82,-138.41 -367.52,-177.94 -140.79,-39.44 -288.64,-59.16 -443.65,-59.16l-436.13 0 0 1991.88zm2888.26 -2675.01l2281.53 0 0 683.13 -1541.54 0 0 626.08 1456.05 0 0 683.04 -1456.05 0 0 682.76 1626.93 0 0 683.04 -2366.92 0 0 -3358.05zm5999.95 3120.95c-218.11,113.92 -445.94,196.1 -683.13,246.54 -237.1,50.54 -478.87,76.04 -725.69,76.04 -262.41,0 -504.18,-41.09 -725.5,-123.27 -221.6,-82.18 -412.83,-199.95 -573.98,-353.58 -161.15,-153.08 -286.99,-339.18 -376.97,-557.2 -90.25,-218.11 -135.2,-461.44 -135.2,-730.27 0,-268.92 44.94,-512.26 135.2,-730.64 89.98,-218.11 215.82,-403.84 376.97,-557.2 161.15,-153.36 352.39,-271.12 573.98,-353.3 221.32,-82.18 463.09,-123.27 725.5,-123.27 268.83,0 516.38,32.29 742.2,97.04 226.18,65.03 424.57,176.38 595.35,334.59l-521.52 569.12c-101.35,-104.56 -215.17,-183.44 -341.75,-237.19 -126.48,-53.75 -284.42,-80.53 -474.28,-80.53 -157.94,0 -300.93,26.78 -429.07,80.53 -128.13,53.75 -238.2,128.77 -329.73,225.17 -91.9,96.49 -162.07,211.05 -210.96,343.95 -49.16,132.72 -73.47,276.72 -73.47,431.73 0,158.22 24.31,302.86 73.47,433.83 48.89,131.43 119.05,244.98 210.96,341.38 91.54,96.76 201.6,171.79 329.73,225.54 128.13,53.75 271.12,80.53 429.07,80.53 161.43,0 300.57,-18.07 417.33,-54.67 117.22,-36.23 210.41,-73.47 279.93,-111.26l0 -545.55 -602.14 0 0 -683.04 1313.7 0 0 1754.97zm678.18 -3120.95l740 0 0 2675.01 1370.66 0 0 683.04 -2110.66 0 0 -3358.05zm2509.09 -0.09l740 0 0 3357.96 -740 0 0 -3357.96zm4477.3 820.71c-60.17,-75.76 -141.43,-132.08 -244.34,-168.31 -102.82,-36.6 -199.95,-54.67 -291.49,-54.67 -54.02,0 -109.42,6.42 -166.29,19.08 -56.68,12.66 -110.71,32.38 -161.15,59.25 -50.54,26.78 -91.63,62.37 -123.27,106.76 -31.74,44.3 -47.6,98.05 -47.6,161.15 0,101.26 38.16,178.58 113.92,232.33 76.04,54.02 171.52,99.61 286.99,137.76 115.48,37.88 239.48,75.76 372.38,113.64 132.72,38.16 257,91.9 372.11,161.43 115.57,69.52 211.32,162.71 287.08,279.93 76.04,116.76 113.82,273.42 113.82,469.42 0,186.37 -34.95,349.45 -104.19,488.59 -69.52,139.14 -163.72,254.34 -282.41,346.24 -118.5,91.54 -255.99,159.5 -412.56,203.89 -156.66,44.3 -321.66,66.31 -495.75,66.31 -218.11,0 -420.63,-33.02 -607,-99.7 -186.65,-66.31 -360.46,-173.72 -521.61,-322.3l526.47 -578.84c75.67,101.26 171.52,179.59 286.72,234.89 115.48,55.4 234.89,82.91 358.17,82.91 60.17,0 120.98,-7.15 182.8,-21.37 61.45,-14.22 116.85,-35.59 166.01,-64.11 48.79,-28.16 88.33,-64.66 118.41,-109.05 30.08,-43.93 44.94,-96.4 44.94,-156.29 0,-101.26 -38.52,-181.15 -116.12,-239.76 -77.32,-58.24 -174.73,-108.05 -291.58,-149.14 -117.13,-41.09 -243.61,-82.18 -379.54,-123.64 -135.84,-40.72 -262.41,-96.03 -379.54,-165.65 -116.76,-69.52 -214.17,-161.43 -291.49,-275.34 -77.69,-113.92 -116.21,-264.06 -116.21,-450.44 0,-180.23 35.59,-338.45 106.76,-474.28 70.9,-135.93 166.01,-249.84 284.42,-341.75 118.41,-91.54 255.35,-160.14 410.26,-206.09 155.01,-45.95 314.51,-68.88 478.96,-68.88 189.86,0 373.02,26.87 550.32,80.53 177.02,54.02 336.89,144 478.87,270.48l-507.3 555zm1712.13 -166.01l-958.11 0 0 -654.6 2656.21 0 0 654.6 -958.11 0 0 2703.35 -740 0 0 -2703.35zm4904.17 1408.63c0,199.31 -30.18,382.84 -90.34,550.14 -59.8,167.85 -149.14,313.13 -267.91,436.49 -118.41,123.27 -266.26,219.67 -443.28,289.19 -177.29,69.62 -381.1,104.56 -611.86,104.56 -234.25,0 -439.61,-34.95 -616.63,-104.56 -176.93,-69.52 -324.87,-165.92 -443.28,-289.19 -118.69,-123.36 -208.02,-268.65 -268.19,-436.49 -59.89,-167.3 -89.98,-350.83 -89.98,-550.14l0 -2063.05 740 0 0 2034.62c0,104.19 16.51,200.96 49.53,289.28 33.29,88.6 79.89,165.28 140.06,230.03 59.89,65.03 132.08,115.48 215.73,151.7 83.83,36.6 174.73,54.76 272.77,54.76 98.05,0 188.03,-18.16 270.21,-54.76 82.18,-36.23 153.36,-86.68 213.52,-151.7 59.89,-64.75 106.76,-141.43 139.78,-230.03 33.39,-88.33 49.9,-185.09 49.9,-289.28l0 -2034.62 740 0 0 2063.05zm682.95 -2063.24l1109.81 0c268.56,0 524.18,30.18 765.95,90.34 241.96,59.8 452.91,157.21 633.14,291.49 180.23,134.64 323.31,309 429.43,524.18 105.75,214.9 158.86,476.03 158.86,782.74 0,271.77 -51.45,511.25 -154.36,718.35 -102.54,207.01 -241.04,381.1 -414.76,521.89 -174.08,140.7 -374.77,247.18 -602.51,320.01 -227.47,72.83 -466.3,109.05 -716.06,109.05l-1209.51 0 0 -3358.05zm740 2675.01l384.03 0c170.87,0 329.73,-17.15 476.67,-52.1 147.21,-34.67 274.33,-92.55 381.83,-173.17 107.4,-80.53 192.15,-186.37 253.61,-317.72 61.82,-131.07 92.55,-291.85 92.55,-481.44 0,-164.36 -30.73,-307.44 -92.55,-429.07 -61.45,-121.71 -144.55,-222.33 -248.74,-301.3 -104.56,-78.88 -226.82,-138.41 -367.61,-177.94 -140.79,-39.44 -288.64,-59.16 -443.65,-59.16l-436.13 0 0 1991.88zm2850.47 -2675.1l740 0 0 3357.96 -740 0 0 -3357.96zm2817.27 0.09l1109.81 0c268.56,0 524.18,30.18 765.86,90.34 242.05,59.8 453,157.21 633.23,291.49 180.23,134.64 323.22,309 429.34,524.18 105.84,214.9 158.95,476.03 158.95,782.74 0,271.77 -51.45,511.25 -154.36,718.35 -102.63,207.01 -241.04,381.1 -414.85,521.89 -174.08,140.7 -374.68,247.18 -602.51,320.01 -227.47,72.83 -466.21,109.05 -716.06,109.05l-1209.42 0 0 -3358.05zm740 2675.01l384.03 0c170.87,0 329.73,-17.15 476.67,-52.1 147.21,-34.67 274.33,-92.55 381.74,-173.17 107.5,-80.53 192.24,-186.37 253.7,-317.72 61.82,-131.07 92.55,-291.85 92.55,-481.44 0,-164.36 -30.73,-307.44 -92.55,-429.07 -61.45,-121.71 -144.64,-222.33 -248.84,-301.3 -104.47,-78.88 -226.82,-138.41 -367.52,-177.94 -140.79,-39.44 -288.64,-59.16 -443.65,-59.16l-436.13 0 0 1991.88zm2888.26 -2675.01l2281.53 0 0 683.13 -1541.54 0 0 626.08 1456.05 0 0 683.04 -1456.05 0 0 682.76 1626.93 0 0 683.04 -2366.92 0 0 -3358.05zm2988.14 0l740 0 0 2675.01 1370.57 0 0 683.04 -2110.57 0 0 -3358.05zm2546.88 0l740 0 0 2675.01 1370.66 0 0 683.04 -2110.66 0 0 -3358.05zm3623.58 0l611.95 0 1460.82 3358.05 -834.74 0 -289.28 -711.2 -1304.35 0 -279.84 711.2 -815.76 0 1451.19 -3358.05zm284.79 977.18l-408.06 1043.5 820.62 0 -412.56 -1043.5zm-44071.39 5402.85l2170.46 0c252.05,0 505.74,17.79 760.36,53.38 254.98,35.86 483.73,107.13 686.61,213.89 202.61,106.76 367.25,256.27 493.45,448.14 125.84,191.88 188.94,446.49 188.94,764.58 0,328.72 -91.9,601.5 -275.34,817.96 -183.81,216.46 -426.5,371.47 -727.71,464.65l0 16.14c191.88,27.52 365.96,81.26 521.89,160.51 156.29,79.61 290.57,180.87 403.2,304.14 112.27,123.27 198.39,267.27 258.83,431.63 60.17,164.36 90.34,339.73 90.34,526.11 0,307.08 -65.76,563.34 -197.11,768.8 -131.71,205.54 -301.57,371.47 -509.96,497.4 -208.39,126.11 -442.64,216.46 -702.76,271.4 -260.48,54.76 -519.32,82.18 -776.87,82.18l-2384.35 0 0 -5820.91zm1282.61 2326.75l928.94 0c98.69,0 195.73,-11.01 291.85,-33.02 95.76,-21.65 182.16,-57.6 258.83,-106.76 76.68,-49.53 138.5,-115.2 185.09,-197.38 46.59,-82.18 69.89,-180.87 69.89,-296.07 0,-120.34 -25.86,-220.31 -77.96,-299.92 -52.46,-79.25 -119.42,-141.07 -201.6,-185.09 -82.18,-43.66 -175.37,-75.03 -279.56,-94.47 -104.19,-19.08 -205.45,-28.8 -304.14,-28.8l-871.34 0 0 1241.52zm0 2408.93l1150.9 0c98.69,0 198.67,-11.01 299.92,-33.02 101.63,-21.65 193.53,-60.17 275.71,-115.11 82.18,-54.76 149.14,-125.93 201.23,-213.62 52.1,-87.68 78.33,-194.45 78.33,-320.65 0,-136.85 -34.3,-248.19 -102.91,-332.94 -68.61,-85.12 -155.01,-149.5 -258.83,-193.16 -104.19,-44.03 -216.83,-74.11 -337.16,-90.62 -120.7,-16.51 -232.97,-24.58 -337.16,-24.58l-970.03 0 0 1323.7zm5960.51 -4735.68l1060.65 0 2532.2 5820.91 -1446.97 0 -501.52 -1233.36 -2261.08 0 -485.01 1233.36 -1414.04 0 2515.78 -5820.91zm493.36 1693.52l-707.25 1808.72 1422.39 0 -715.14 -1808.72zm6560.72 -271.12c-104.19,-131.71 -245.26,-228.84 -423.47,-291.94 -178.03,-62.74 -346.61,-94.47 -505.47,-94.47 -93.46,0 -189.31,11.01 -288,32.74 -98.69,22.01 -191.88,56.32 -279.56,102.91 -87.68,46.59 -158.86,108.32 -213.52,185 -55.03,76.68 -82.18,169.87 -82.18,279.56 0,175.37 65.67,309.65 197.38,402.83 131.34,93.19 296.99,172.53 497.3,238.47 199.95,65.76 415.12,131.43 645.25,197.11 230.31,66.04 445.48,159.23 645.43,279.56 200.04,120.7 365.96,282.5 497.4,485.01 131.62,202.88 197.38,474.38 197.38,814.11 0,323.59 -60.54,605.72 -180.87,846.76 -120.7,241.41 -283.78,441.36 -489.23,600.21 -205.54,158.86 -444.02,276.63 -715.14,353.67 -271.49,76.68 -557.84,114.83 -859.41,114.83 -377.89,0 -728.99,-57.6 -1052.21,-172.43 -323.59,-115.2 -624.8,-301.57 -904.36,-559.12l912.43 -1003.05c131.71,175.37 297.36,311.3 497.67,407.05 199.95,95.76 406.69,143.63 620.58,143.63 104.19,0 209.67,-12.29 316.43,-36.87 107.13,-24.58 202.88,-61.45 288,-110.98 84.75,-49.16 153.36,-112.27 205.45,-188.94 52.1,-76.68 78.05,-167.3 78.05,-271.49 0,-175.37 -67.05,-313.5 -201.33,-415.12 -134.28,-101.26 -302.86,-187.66 -505.74,-258.83 -202.88,-71.17 -421.91,-142.72 -657.81,-213.89 -235.54,-71.17 -454.93,-167.3 -657.45,-287.63 -202.88,-120.7 -371.47,-279.56 -505.74,-476.94 -134.28,-197.38 -201.6,-457.59 -201.6,-781.09 0,-312.58 61.82,-586.36 185.09,-822.27 123.27,-235.54 287.63,-432.92 493.45,-591.78 205.45,-158.86 442.27,-278.28 711.2,-357.89 268.28,-79.25 545.18,-119.05 830.25,-119.05 328.72,0 646.53,46.59 953.61,139.78 306.99,93.19 583.71,249.48 830.52,468.5l-879.78 962.05zm1825.04 -1422.48l1282.7 0 0 5821 -1282.7 0 0 -5821zm2499.37 0.09l1282.61 0 0 4636.99 2375.82 0 0 1183.92 -3658.43 0 0 -5820.91zm4348.9 -0.09l1282.61 0 0 5821 -1282.61 0 0 -5821zm6256.67 1512.83c-126.21,-153.36 -280.85,-271.49 -464.65,-353.3 -183.44,-82.55 -396.05,-123.64 -637.09,-123.64 -241.41,0 -464.29,46.96 -670.11,139.78 -205.45,93.55 -383.76,223.61 -534.18,390.54 -151.15,167.3 -268.92,365.96 -353.67,596 -85.12,230.4 -127.49,479.88 -127.49,748.43 0,274.06 42.37,524.82 127.49,752.29 84.75,227.47 201.6,424.85 349.45,591.87 147.85,167.21 321.94,297.36 521.89,390.54 200.32,93.19 415.12,139.78 645.52,139.78 263.05,0 496.02,-54.76 698.91,-164.45 202.52,-109.61 369.81,-263.05 501.52,-460.43l1068.72 797.6c-246.54,345.33 -559.12,599.94 -937.38,764.67 -377.89,164.36 -767.51,246.54 -1167.41,246.54 -454.93,0 -874.27,-71.17 -1257.66,-213.89 -383.76,-142.35 -715.41,-346.52 -994.98,-612.51 -279.56,-265.71 -497.3,-587.92 -653.6,-965.9 -156.29,-378.25 -234.25,-800.16 -234.25,-1266.1 0,-465.94 77.96,-888.21 234.25,-1266.1 156.29,-378.25 374.03,-700.19 653.6,-966.18 279.56,-265.62 611.22,-469.79 994.98,-612.51 383.39,-142.35 802.73,-213.89 1257.66,-213.89 164.36,0 335.88,15.23 513.81,45.31 178.3,30.45 353.67,78.33 526.11,144 172.8,65.67 338.45,153.36 497.67,263.05 158.86,109.7 301.21,243.97 427.41,402.83l-986.54 805.67zm3740.79 -1512.74l1060.65 0 2532.2 5820.91 -1446.97 0 -501.52 -1233.36 -2261.08 0 -485.01 1233.36 -1414.04 0 2515.78 -5820.91zm493.45 1693.52l-707.34 1808.72 1422.39 0 -715.05 -1808.72zm4053.1 -558.94l-1660.86 0 0 -1134.39 4603.97 0 0 1134.39 -1660.5 0 0 4686.24 -1282.61 0 0 -4686.24zm4752.01 -1134.57l1060.65 0 2532.29 5820.91 -1446.97 0 -501.62 -1233.36 -2261.08 0 -485.01 1233.36 -1413.95 0 2515.69 -5820.91zm493.45 1693.52l-707.34 1808.72 1422.48 0 -715.14 -1808.72zm706.61 -17530.51l-1030.2 0 -1350.3 -1124.03 1592.26 0 788.24 1124.03z"/>
 </g>
</svg>
