<?xml version="1.0" encoding="UTF-8"?>
<!DOCTYPE svg PUBLIC "-//W3C//DTD SVG 1.1//EN" "http://www.w3.org/Graphics/SVG/1.1/DTD/svg11.dtd">
<!--Risorse grafiche UNIBAS - bit.ly/unibasbrand -->
<svg xmlns="http://www.w3.org/2000/svg" xml:space="preserve" width="210mm" height="90mm" version="1.1" style="shape-rendering:geometricPrecision; text-rendering:geometricPrecision; image-rendering:optimizeQuality; fill-rule:evenodd; clip-rule:evenodd"
viewBox="0 0 11211.52 4804.94"
 xmlns:xlink="http://www.w3.org/1999/xlink"
 xmlns:xodm="http://www.corel.com/coreldraw/odm/2003">
 <defs>
  <style type="text/css">
   <![CDATA[
    .fil0 {fill:white;fill-rule:nonzero}
   ]]>
  </style>
 </defs>
 <g id="Layer_x0020_1">
  <metadata id="CorelCorpID_0Corel-Layer"/>
  <g id="_1913552098032">
   <path class="fil0" d="M7207.49 2117.44l-209.34 0 0 -97.08 -3 0c-9.1,13.17 -21.03,26.49 -35.65,40.17 -14.64,13.68 -31.87,26.04 -51.59,37.13 -19.72,11.18 -41.48,20.23 -65.27,27.34 -23.78,7.06 -48.26,10.62 -73.5,10.62 -54.65,0 -104.2,-9.32 -148.66,-28.01 -44.53,-18.71 -82.73,-45.04 -114.58,-78.88 -31.82,-33.91 -56.35,-74.08 -73.52,-120.68 -17.23,-46.45 -25.82,-97.52 -25.82,-153.18 0,-51.54 7.8,-100.86 23.5,-147.86 15.66,-47.07 37.91,-88.78 66.74,-125.15 28.86,-36.39 63.95,-65.49 105.42,-87.24 41.48,-21.7 88.49,-32.61 141.09,-32.61 47.52,0 91.76,7.35 132.73,21.97 40.97,14.7 74.59,39.72 100.92,75.15l3 0 0 -391.39 227.53 0 0 1049.72zm-209.34 -368.63c0,-55.59 -15.94,-100.63 -47.81,-135.03 -31.81,-34.29 -76.56,-51.52 -134.19,-51.52 -57.64,0 -102.39,17.23 -134.25,51.52 -31.87,34.4 -47.81,79.44 -47.81,135.03 0,55.66 15.94,100.63 47.81,134.99 31.86,34.42 76.61,51.59 134.25,51.59 57.63,0 102.38,-17.17 134.19,-51.59 31.87,-34.36 47.81,-79.33 47.81,-134.99z"/>
   <path class="fil0" d="M7436.54 1199.76c0,-36.44 12.89,-67.51 38.71,-93.34 25.82,-25.75 56.84,-38.65 93.28,-38.65 36.39,0 67.53,12.89 93.3,38.65 25.82,25.83 38.7,56.91 38.7,93.34 0,36.39 -12.88,67.46 -38.7,93.3 -25.77,25.75 -56.91,38.65 -93.3,38.65 -36.44,0 -67.46,-12.89 -93.28,-38.65 -25.81,-25.83 -38.71,-56.91 -38.71,-93.3zm18.19 180.41l227.54 0 0 737.25 -227.54 0 0 -737.25z"/>
   <path class="fil0" d="M8323.89 1597.1c-33.33,-41.42 -77.34,-62.21 -131.99,-62.21 -19.2,0 -37.85,4.58 -56.11,13.68 -18.19,9.1 -27.29,24.81 -27.29,47.07 0,18.13 9.39,31.58 28.09,40.17 18.64,8.58 42.43,16.21 71.24,22.76 28.88,6.57 59.68,13.63 92.61,21.19 32.83,7.64 63.63,19.49 92.5,35.72 28.81,16.16 52.61,38.14 71.31,65.94 18.71,27.85 28.03,65.03 28.03,111.54 0,47.52 -10.28,86.73 -31.07,117.51 -20.74,30.91 -47.3,55.61 -79.67,74.3 -32.32,18.77 -68.77,31.87 -109.23,39.5 -40.39,7.58 -80.4,11.36 -119.77,11.36 -51.54,0 -103.69,-7.34 -156.29,-21.97 -52.55,-14.69 -97.08,-40.68 -133.51,-78.14l138.09 -153.23c21.29,26.33 44.75,46.27 70.5,59.95 25.82,13.68 55.88,20.45 90.24,20.45 26.4,0 50.18,-3.78 71.37,-11.36 21.24,-7.58 31.86,-21.48 31.86,-41.71 0,-19.2 -9.37,-33.62 -28.08,-43.21 -18.76,-9.61 -42.43,-17.7 -71.31,-24.3 -28.81,-6.57 -59.73,-13.68 -92.56,-21.25 -32.82,-7.56 -63.67,-18.93 -92.5,-34.13 -28.81,-15.14 -52.6,-36.61 -71.31,-64.47 -18.76,-27.79 -28.08,-64.91 -28.08,-111.47 0,-43.45 8.81,-80.92 26.56,-112.28 17.68,-31.3 40.97,-57.11 69.78,-77.34 28.88,-20.23 61.92,-35.16 99.38,-44.75 37.41,-9.61 75.26,-14.41 113.75,-14.41 48.59,0 97.57,7.06 147.13,21.25 49.6,14.13 91.53,39.43 125.89,75.87l-139.57 137.98z"/>
   <path class="fil0" d="M9088.45 1597.1c-33.33,-41.42 -77.34,-62.21 -131.99,-62.21 -19.2,0 -37.85,4.58 -56.11,13.68 -18.19,9.1 -27.29,24.81 -27.29,47.07 0,18.13 9.39,31.58 28.09,40.17 18.64,8.58 42.43,16.21 71.24,22.76 28.88,6.57 59.66,13.63 92.61,21.19 32.83,7.64 63.62,19.49 92.5,35.72 28.81,16.16 52.6,38.14 71.31,65.94 18.71,27.85 28.03,65.03 28.03,111.54 0,47.52 -10.35,86.73 -31.07,117.51 -20.74,30.91 -47.3,55.61 -79.68,74.3 -32.31,18.77 -68.76,31.87 -109.22,39.5 -40.39,7.58 -80.4,11.36 -119.79,11.36 -51.52,0 -103.67,-7.34 -156.27,-21.97 -52.55,-14.69 -97.08,-40.68 -133.53,-78.14l138.09 -153.23c21.3,26.33 44.75,46.27 70.52,59.95 25.77,13.68 55.88,20.45 90.24,20.45 26.38,0 50.12,-3.78 71.35,-11.36 21.25,-7.58 31.87,-21.48 31.87,-41.71 0,-19.2 -9.39,-33.62 -28.08,-43.21 -18.76,-9.61 -42.44,-17.7 -71.31,-24.3 -28.81,-6.57 -59.73,-13.68 -92.56,-21.25 -32.82,-7.56 -63.68,-18.93 -92.5,-34.13 -28.81,-15.14 -52.6,-36.61 -71.35,-64.47 -18.71,-27.79 -28.03,-64.91 -28.03,-111.47 0,-43.45 8.81,-80.92 26.56,-112.28 17.68,-31.3 40.97,-57.11 69.78,-77.34 28.86,-20.23 61.92,-35.16 99.38,-44.75 37.4,-9.61 75.26,-14.41 113.75,-14.41 48.58,0 97.57,7.06 147.13,21.25 49.6,14.13 91.53,39.43 125.89,75.87l-139.57 137.98z"/>
   <path class="fil0" d="M1026.25 4177.7c8.76,-12.48 18.71,-22.6 29.84,-30.45 11.13,-7.8 23.11,-13.01 35.92,-15.49 12.89,-2.48 26.33,-2.03 40.46,1.41 14.13,3.46 28.43,10.28 42.83,20.4 14.64,10.28 25.99,21.53 33.95,33.68 8.02,12.14 13.01,24.63 15.04,37.56 1.97,12.94 1.12,25.95 -2.48,39.11 -3.62,13.1 -9.79,25.87 -18.53,38.36l-90.81 128.93 -46.21 -32.55 89.5 -127.19c4.56,-6.55 7.78,-13.28 9.59,-20.28 1.81,-7 2.32,-13.84 1.36,-20.57 -0.85,-6.66 -3.17,-13.01 -6.77,-18.93 -3.62,-5.99 -8.54,-11.13 -14.64,-15.42 -6.17,-4.36 -12.6,-7.13 -19.32,-8.47 -6.73,-1.36 -13.41,-1.3 -20,0.11 -6.61,1.41 -12.89,4.12 -18.88,8.18 -5.99,4.07 -11.24,9.39 -15.87,15.89l-89.5 127.19 -46.27 -32.55 90.8 -128.95z"/>
   <polygon class="fil0" points="798.84,4193.57 744.32,4139.44 792.62,3935.92 792.06,3935.47 666.4,4061.97 626.23,4022.13 807.15,3840.03 859.64,3892.13 810.32,4100.73 810.82,4101.24 939.59,3971.57 979.76,4011.47 "/>
   <polygon class="fil0" points="519.16,3891.36 484.63,3846.54 687.92,3689.87 722.44,3734.67 "/>
   <polygon class="fil0" points="400.08,3732.51 367.24,3676.9 479.92,3536.77 479.52,3536.16 301.88,3566.1 271.08,3513.95 545.97,3474.67 569.02,3513.66 "/>
   <polygon class="fil0" points="207.33,3377.34 142.47,3215.46 190.9,3196.08 234.74,3305.41 279.15,3287.62 237.73,3184.28 286.21,3164.9 327.63,3268.17 376.11,3248.75 329.83,3133.36 378.26,3113.92 445.61,3281.85 "/>
   <path class="fil0" d="M90.01 3050.99l-23 -96.63c-3,-12.7 -4.63,-25.02 -4.92,-37.06 -0.22,-11.98 1.54,-22.94 5.25,-32.88 3.73,-9.99 9.83,-18.64 18.42,-25.99 8.54,-7.4 20.12,-12.83 34.71,-16.27 17.62,-4.23 33.73,-3.16 48.24,3.06 14.53,6.21 25.55,17.79 32.99,34.63l90.35 -88.59 15.71 65.99 -87.4 75.93 6.44 27.18 99.83 -23.78 13.12 55.03 -249.74 59.39zm90.24 -79.62l-7.69 -32.43c-1.19,-4.92 -2.59,-10.11 -4.29,-15.54 -1.63,-5.48 -3.89,-10.22 -6.73,-14.24 -2.82,-4.07 -6.44,-7.11 -10.91,-9.15 -4.45,-2.03 -10.11,-2.26 -16.95,-0.69 -6.33,1.54 -11.07,4.07 -14.24,7.53 -3.17,3.49 -5.25,7.45 -6.28,11.92 -1.07,4.47 -1.3,9.39 -0.78,14.75 0.51,5.3 1.36,10.44 2.55,15.42l8.52 35.99 56.79 -13.57z"/>
   <path class="fil0" d="M71.85 2571.27c-5.37,5.09 -9.05,11.71 -11.13,19.73 -2.03,8.07 -2.77,15.58 -2.1,22.54 0.35,4.07 1.25,8.25 2.61,12.49 1.35,4.18 3.22,8.14 5.59,11.8 2.43,3.67 5.43,6.55 8.99,8.65 3.62,2.08 7.8,2.88 12.6,2.48 7.74,-0.74 13.33,-4.12 16.95,-10.28 3.56,-6.17 6.37,-13.68 8.41,-22.71 2.1,-9.05 4.13,-18.76 6.1,-29.1 1.99,-10.35 5.21,-20.16 9.67,-29.37 4.52,-9.27 10.96,-17.19 19.32,-23.8 8.36,-6.55 20.07,-10.51 34.98,-11.85 14.17,-1.31 26.84,0.22 37.91,4.52 11.08,4.34 20.52,10.68 28.3,19.04 7.8,8.36 13.97,18.35 18.37,29.93 4.47,11.53 7.35,23.96 8.54,37.19 1.52,16.55 0.38,32.15 -3.33,46.78 -3.8,14.62 -10.75,28.59 -20.97,41.87l-47.7 -35.94c7.18,-6.5 12.49,-14.29 15.89,-23.45 3.38,-9.15 4.68,-18.42 3.84,-27.8 -0.46,-4.52 -1.43,-9.1 -2.95,-13.73 -1.47,-4.58 -3.51,-8.65 -5.99,-12.14 -2.55,-3.51 -5.59,-6.28 -9.15,-8.25 -3.57,-1.99 -7.64,-2.72 -12.2,-2.32 -7.75,0.67 -13.52,4.18 -17.46,10.46 -3.91,6.33 -7.02,14 -9.34,23.22 -2.31,9.15 -4.56,19.03 -6.71,29.66 -2.21,10.62 -5.54,20.61 -10.01,30 -4.52,9.32 -10.8,17.35 -18.93,24.01 -8.14,6.73 -19.32,10.68 -33.51,11.98 -13.73,1.25 -25.98,-0.34 -36.84,-4.8 -10.84,-4.47 -20.16,-10.84 -27.96,-19.27 -7.8,-8.36 -14.01,-18.24 -18.6,-29.71 -4.52,-11.42 -7.4,-23.4 -8.52,-35.94 -1.36,-14.35 -0.58,-28.48 2.31,-42.32 2.83,-13.85 8.6,-26.56 17.23,-38.26l45.78 34.69z"/>
   <polygon class="fil0" points="-0,2383.62 1.14,2327.11 257.77,2332.25 256.63,2388.81 "/>
   <polygon class="fil0" points="70.79,2119.83 61.12,2192.44 11.52,2185.83 38.36,1984.57 87.9,1991.18 78.24,2063.78 283.12,2091.08 275.61,2147.12 "/>
   <path class="fil0" d="M80.71 1727.95l-12.67 46.16 -66.95 46.67 19.6 -71.35 60.01 -21.48zm2.08 63.75l12.38 -45.1 277.02 -39.83 -16.83 61.54 -58.3 6.95 -26.4 96.16 46.85 34.98 -16.51 60.17 -218.21 -174.87zm77.74 -1.25l68.71 51.14 16.56 -60.46 -85.27 9.32z"/>
   <path class="fil0" d="M268.88 1301.74l42.44 -73.45c10.28,-17.81 22.02,-33.57 35.32,-47.25 13.21,-13.66 27.74,-23.94 43.5,-30.74 15.76,-6.77 32.83,-9.59 51.08,-8.36 18.31,1.19 37.57,7.69 57.92,19.44 17.97,10.39 31.87,22.94 41.64,37.69 9.77,14.69 15.98,30.51 18.64,47.41 2.66,16.88 2.03,34.23 -1.86,52.09 -3.91,17.86 -10.63,35.03 -20.18,51.59l-46.27 80 -222.23 -128.42zm205.33 53.4l14.69 -25.43c6.57,-11.36 11.48,-22.49 14.82,-33.55 3.33,-11.08 4.34,-21.7 3.16,-31.94 -1.23,-10.17 -5.03,-19.83 -11.36,-28.93 -6.33,-9.1 -15.76,-17.23 -28.3,-24.52 -10.91,-6.28 -21.53,-9.72 -31.92,-10.28 -10.46,-0.62 -20.29,1.07 -29.5,4.92 -9.21,3.89 -17.79,9.77 -25.82,17.52 -8.02,7.85 -14.98,16.83 -20.9,27.12l-16.67 28.88 131.82 76.22z"/>
   <polygon class="fil0" points="482.19,964.14 591.81,828.48 632.38,861.32 558.37,952.96 595.6,983.03 665.55,896.46 706.12,929.29 636.17,1015.84 676.79,1048.68 754.94,951.94 795.55,984.77 681.88,1125.46 "/>
   <path class="fil0" d="M1042.54 721.62c-6.55,17.62 -15.25,33.95 -26.09,48.98 -10.86,14.98 -23.29,28.81 -37.3,41.48 -14.86,13.44 -30.67,23.5 -47.46,30.18 -16.79,6.66 -33.68,9.82 -50.69,9.37 -16.95,-0.45 -33.62,-4.52 -49.89,-12.32 -16.32,-7.74 -31.34,-19.2 -45.13,-34.47 -13.73,-15.25 -23.67,-31.36 -29.73,-48.37 -6.1,-16.99 -8.47,-33.95 -7.18,-50.9 1.3,-16.95 6.1,-33.46 14.41,-49.44 8.36,-15.98 19.94,-30.74 34.85,-44.19 15.26,-13.77 30.98,-24.57 47.07,-32.55 16.16,-7.85 33.11,-11.74 50.92,-11.52l-0.4 59.04c-11.13,-0.74 -21.64,0.62 -31.54,4.07 -9.95,3.4 -20.28,10.01 -31.07,19.72 -8.92,8.09 -15.71,16.96 -20.16,26.56 -4.53,9.61 -6.9,19.51 -7.18,29.68 -0.29,10.17 1.63,20.28 5.64,30.27 4.02,10.06 10.01,19.49 17.97,28.25 8.09,8.99 16.9,15.94 26.4,20.92 9.48,4.85 19.32,7.74 29.49,8.52 10.12,0.74 20.23,-0.62 30.24,-4.12 9.99,-3.51 19.49,-9.32 28.48,-17.41 9.15,-8.25 16.1,-16.43 20.9,-24.52 4.74,-8.02 8.14,-14.91 10.11,-20.63l-27.9 -30.96 -34.2 30.85 -34.96 -38.7 74.46 -67.35 89.95 99.56z"/>
   <polygon class="fil0" points="1021.39,441.41 1068.51,410.18 1181.52,580.58 1268.87,522.67 1297.73,566.18 1163.26,655.35 "/>
   <polygon class="fil0" points="1281.28,282.72 1331.58,256.86 1449.11,485.06 1398.81,510.94 "/>
   <path class="fil0" d="M1823.68 139.49c-5.99,-4.36 -13.12,-6.84 -21.43,-7.4 -8.3,-0.58 -15.87,0.11 -22.6,1.97 -3.96,1.07 -7.91,2.71 -11.85,4.8 -3.91,2.08 -7.46,4.63 -10.68,7.69 -3.17,3 -5.43,6.44 -6.9,10.33 -1.41,3.91 -1.46,8.2 -0.16,12.89 2.08,7.4 6.44,12.32 13.17,14.74 6.66,2.43 14.62,3.84 23.96,4.29 9.26,0.4 19.14,0.62 29.71,0.74 10.57,0.06 20.79,1.47 30.74,4.24 9.9,2.77 18.88,7.69 26.84,14.75 8.02,7.06 14.01,17.79 18.02,32.21 3.84,13.77 4.58,26.44 2.32,38.14 -2.26,11.63 -6.84,22.09 -13.68,31.3 -6.89,9.16 -15.58,16.95 -26.22,23.45 -10.62,6.44 -22.37,11.47 -35.14,15.04 -16.1,4.45 -31.7,6.15 -46.78,5.08 -15.09,-1.07 -30.11,-5.43 -45.04,-13.05l26.96 -53.4c7.62,5.88 16.27,9.72 25.93,11.42 9.61,1.7 19,1.3 28.09,-1.25 4.4,-1.23 8.76,-3 12.99,-5.3 4.24,-2.32 7.91,-5.03 10.91,-8.09 3.06,-3.11 5.21,-6.6 6.5,-10.44 1.3,-3.91 1.35,-8.09 0.11,-12.49 -2.03,-7.46 -6.55,-12.49 -13.45,-15.25 -6.89,-2.72 -15.09,-4.36 -24.52,-5.03 -9.5,-0.62 -19.67,-1.07 -30.51,-1.31 -10.84,-0.22 -21.3,-1.68 -31.3,-4.45 -10.06,-2.72 -19.11,-7.46 -27.13,-14.3 -8.07,-6.77 -13.95,-17.06 -17.79,-30.74 -3.67,-13.33 -4.29,-25.71 -1.86,-37.17 2.48,-11.42 7.11,-21.75 13.95,-30.96 6.89,-9.16 15.54,-17.01 25.99,-23.62 10.51,-6.5 21.75,-11.47 33.91,-14.86 13.95,-3.84 28.01,-5.65 42.14,-5.3 14.13,0.34 27.74,3.67 40.79,10.11l-25.98 51.25z"/>
   <polygon class="fil0" points="2057.94,79.78 1985.4,89.61 1978.67,40.01 2179.87,12.77 2186.55,62.38 2114,72.22 2141.74,276.97 2085.7,284.6 "/>
   <path class="fil0" d="M2543.35 161.19c-0.22,15.26 -2.77,29.21 -7.58,41.93 -4.79,12.77 -11.8,23.78 -21.01,33.06 -9.21,9.26 -20.63,16.43 -34.24,21.53 -13.61,5.08 -29.26,7.51 -46.9,7.22 -17.91,-0.27 -33.55,-3.22 -47.01,-8.7 -13.44,-5.59 -24.63,-13.1 -33.55,-22.71 -8.87,-9.55 -15.55,-20.79 -19.96,-33.68 -4.34,-12.88 -6.44,-26.89 -6.15,-42.14l2.55 -157.7 56.55 0.96 -2.55 155.49c-0.11,7.98 1.03,15.38 3.44,22.15 2.43,6.84 5.94,12.77 10.39,17.79 4.53,4.98 9.95,8.99 16.34,11.87 6.39,2.88 13.28,4.36 20.79,4.47 7.46,0.16 14.41,-1.14 20.74,-3.84 6.33,-2.66 11.8,-6.44 16.5,-11.31 4.63,-4.85 8.31,-10.67 10.96,-17.39 2.66,-6.73 4.02,-14.13 4.18,-22.1l2.5 -155.49 56.55 0.9 -2.55 157.7z"/>
   <path class="fil0" d="M2721 22.73l83.51 15.02c20.23,3.62 39.05,9.32 56.39,17.12 17.41,7.8 31.98,17.97 43.72,30.46 11.76,12.59 20.12,27.63 25.21,45.25 5.08,17.63 5.54,37.98 1.36,61.02 -3.68,20.47 -10.75,37.81 -21.3,51.99 -10.52,14.19 -23.29,25.43 -38.26,33.62 -14.98,8.25 -31.52,13.61 -49.67,15.98 -18.08,2.39 -36.55,1.92 -55.3,-1.46l-91.04 -16.34 45.37 -252.68zm19.56 211.26l28.88 5.21c12.88,2.32 25.02,3.16 36.61,2.48 11.52,-0.62 21.86,-3.22 31.01,-7.85 9.21,-4.58 17.01,-11.42 23.4,-20.45 6.44,-9.05 10.91,-20.74 13.44,-34.98 2.26,-12.38 1.87,-23.56 -1.12,-33.57 -3,-9.99 -7.91,-18.64 -14.69,-25.98 -6.79,-7.4 -15.2,-13.5 -25.26,-18.37 -10.06,-4.85 -20.92,-8.36 -32.55,-10.44l-32.83 -5.94 -26.89 149.9z"/>
   <polygon class="fil0" points="3102.68,107.73 3156.57,124.8 3079.05,369.5 3025.16,352.44 "/>
   <path class="fil0" d="M3511.85 272.07l73.34 42.6c17.79,10.35 33.51,22.15 47.18,35.38 13.68,13.28 23.9,27.79 30.67,43.61 6.73,15.82 9.5,32.83 8.25,51.14 -1.3,18.24 -7.78,37.51 -19.54,57.8 -10.46,17.97 -23.05,31.86 -37.8,41.58 -14.75,9.72 -30.58,15.94 -47.47,18.53 -16.88,2.66 -34.29,1.99 -52.09,-1.97 -17.86,-3.91 -35.03,-10.68 -51.52,-20.29l-79.95 -46.45 128.93 -221.94zm-53.78 205.22l25.37 14.82c11.29,6.49 22.42,11.47 33.51,14.8 11.07,3.33 21.69,4.4 31.86,3.22 10.23,-1.19 19.89,-4.98 28.99,-11.24 9.1,-6.33 17.35,-15.76 24.63,-28.25 6.28,-10.91 9.72,-21.53 10.35,-31.92 0.62,-10.46 -1.03,-20.23 -4.92,-29.5 -3.84,-9.21 -9.66,-17.84 -17.46,-25.87 -7.75,-7.98 -16.79,-14.98 -27.02,-20.92l-28.86 -16.77 -76.45 131.64z"/>
   <polygon class="fil0" points="3848.95,486.12 3984.38,596 3951.45,636.53 3859.97,562.27 3829.79,599.46 3916.25,669.58 3883.37,710.15 3796.91,639.97 3764.03,680.54 3860.59,758.91 3827.65,799.41 3687.18,685.39 "/>
   <polygon class="fil0" points="4109.65,714.56 4148.29,755.86 3999.01,895.59 4070.6,972.09 4032.46,1007.74 3922.22,889.94 "/>
   <polygon class="fil0" points="4314.13,949.42 4347.12,995.29 4181.06,1114.68 4242.2,1199.78 4199.82,1230.24 4105.69,1099.21 "/>
   <path class="fil0" d="M4527.31 1284.22l21.48 41.53 -176.92 216.96 -29.26 -56.67 38.18 -44.57 -45.71 -88.65 -58.14 5.97 -28.59 -55.42 278.96 -19.16zm-56.39 53.56l-85.21 8.87 28.83 55.77 56.38 -64.64z"/>
   <path class="fil0" d="M4721 1769.07l21.75 93.23c2.5,10.8 4.29,21.93 5.32,33.17 1.01,11.36 0.22,21.86 -2.32,31.63 -2.59,9.79 -7.34,18.37 -14.29,25.66 -7.02,7.34 -17.3,12.6 -30.96,15.76 -14.13,3.33 -26.8,2.1 -37.93,-3.62 -11.13,-5.7 -20.16,-14.57 -27.23,-26.6l-0.67 0.16c0.74,8.54 0.16,16.56 -1.65,24.02 -1.86,7.51 -4.85,14.29 -9.03,20.39 -4.18,6.05 -9.5,11.2 -15.98,15.42 -6.45,4.24 -13.68,7.29 -21.65,9.16 -13.21,3.04 -24.86,2.82 -35.03,-0.8 -10.11,-3.56 -18.93,-9.21 -26.44,-16.88 -7.51,-7.69 -13.73,-16.9 -18.69,-27.52 -4.98,-10.63 -8.71,-21.48 -11.31,-32.5l-23.85 -102.44 249.97 -58.25zm-190.52 102.49l11.52 49.44c0.96,4.24 2.43,8.42 4.4,12.54 1.92,4.13 4.53,7.69 7.69,10.68 3.17,3 6.9,5.14 11.2,6.5 4.29,1.36 9.15,1.41 14.57,0.16 5.88,-1.41 10.28,-3.96 13.28,-7.74 2.93,-3.78 4.85,-8.14 5.7,-13.05 0.85,-4.92 1.03,-10.06 0.51,-15.36 -0.51,-5.37 -1.3,-10.28 -2.32,-14.75l-9.72 -41.64 -56.83 13.21zm103.45 -24.12l9.26 39.9c1.03,4.23 2.43,8.3 4.36,12.25 1.92,3.84 4.29,7.24 7.18,10.01 2.88,2.82 6.33,4.79 10.35,5.99 4,1.19 8.47,1.19 13.39,0 5.19,-1.2 9.21,-3.28 12.09,-6.34 2.93,-3.04 4.92,-6.55 5.93,-10.51 1.07,-3.96 1.52,-8.3 1.3,-12.94 -0.22,-4.68 -0.85,-9.1 -1.81,-13.33l-8.74 -37.46 -53.29 12.43z"/>
   <path class="fil0" d="M4796.14 2203.7l3.4 46.67 -247.82 130.07 -4.68 -63.63 52.65 -26.04 -7.29 -99.45 -55.82 -17.35 -4.52 -62.21 264.08 91.93zm-72.87 27.12l-81.83 -25.26 4.58 62.54 77.25 -37.29z"/>
   <path class="fil0" d="M4732.53 2630.21c6.17,-4.18 10.86,-10.06 14.24,-17.63 3.33,-7.69 5.32,-14.98 5.83,-21.97 0.27,-4.07 0.11,-8.36 -0.51,-12.77 -0.62,-4.36 -1.87,-8.6 -3.62,-12.6 -1.75,-4.02 -4.24,-7.35 -7.4,-10.01 -3.22,-2.71 -7.24,-4.18 -12.04,-4.52 -7.74,-0.62 -13.84,1.81 -18.35,7.35 -4.52,5.48 -8.58,12.49 -12.16,21.08 -3.49,8.58 -7.11,17.86 -10.78,27.74 -3.62,9.88 -8.42,19.04 -14.41,27.45 -5.93,8.42 -13.61,15.15 -22.94,20.29 -9.39,5.08 -21.53,7.11 -36.45,5.99 -14.24,-1.07 -26.44,-4.63 -36.66,-10.73 -10.23,-6.1 -18.48,-13.9 -24.75,-23.51 -6.33,-9.55 -10.75,-20.45 -13.23,-32.61 -2.48,-12.2 -3.22,-24.91 -2.26,-38.14 1.25,-16.67 4.98,-31.86 11.08,-45.71 6.1,-13.9 15.31,-26.49 27.56,-37.96l41.08 43.44c-8.14,5.21 -14.64,12.04 -19.49,20.52 -4.92,8.47 -7.69,17.46 -8.36,26.84 -0.35,4.56 -0.18,9.26 0.56,14.06 0.74,4.74 2.03,9.1 3.96,12.99 1.86,3.91 4.4,7.13 7.62,9.67 3.17,2.53 7.06,3.96 11.64,4.34 7.74,0.58 14.06,-1.92 18.93,-7.51 4.92,-5.59 9.26,-12.72 13.05,-21.41 3.78,-8.65 7.67,-18.08 11.58,-28.19 3.89,-10.12 8.81,-19.44 14.8,-27.96 5.99,-8.54 13.5,-15.44 22.66,-20.69 9.1,-5.25 20.73,-7.34 34.96,-6.26 13.74,1.01 25.59,4.63 35.54,10.84 10.01,6.17 18.15,14.08 24.41,23.62 6.33,9.55 10.8,20.39 13.39,32.43 2.66,12.09 3.46,24.41 2.55,36.89 -1.07,14.46 -4.18,28.32 -9.26,41.53 -5.14,13.17 -12.94,24.81 -23.34,34.98l-39.45 -41.87z"/>
   <polygon class="fil0" points="4767.49,2827.02 4756.92,2882.56 4504.76,2834.77 4515.31,2779.16 "/>
   <polygon class="fil0" points="4719.03,3045.03 4702.42,3099.1 4506.98,3039.04 4476.18,3139.16 4426.23,3123.85 4473.7,2969.6 "/>
   <polygon class="fil0" points="4618.6,3332.62 4596.11,3384.49 4360.61,3282.45 4383.1,3230.52 "/>
   <path class="fil0" d="M4381.59 3646.34c8.65,-1.36 16.61,-4.63 23.85,-9.72 7.22,-5.19 13.5,-12.32 18.92,-21.53 5.37,-9.15 8.6,-18.64 9.67,-28.59 1.01,-9.88 0.05,-19.54 -2.95,-29.04 -3,-9.43 -7.85,-18.37 -14.75,-26.73 -6.82,-8.41 -15.36,-15.58 -25.59,-21.57 -10.39,-6.17 -20.9,-10.12 -31.41,-11.98 -10.57,-1.87 -20.68,-1.81 -30.35,0.05 -9.66,1.92 -18.47,5.59 -26.49,11.13 -8.02,5.48 -14.57,12.65 -19.72,21.41 -5.88,10.01 -9.05,20.07 -9.39,30.24 -0.4,10.11 1.7,19.94 6.28,29.37l-54.18 22.78c-7.64,-17.12 -10.35,-34.64 -8.14,-52.73 2.19,-18.02 7.78,-34.69 16.72,-49.89 10.17,-17.28 22.26,-31.63 36.28,-43.05 13.95,-11.4 29.15,-19.43 45.47,-24.12 16.4,-4.69 33.46,-5.77 51.36,-3.22 17.86,2.48 35.65,8.99 53.33,19.38 17.75,10.39 32.05,22.82 42.89,37.17 10.91,14.41 18.26,29.89 22.15,46.45 3.84,16.61 4.18,33.73 1.01,51.52 -3.16,17.75 -9.82,35.32 -19.99,52.61 -3.68,6.21 -8.09,12.43 -13.17,18.53 -5.14,6.1 -10.91,11.69 -17.23,16.77 -6.39,5.09 -13.39,9.45 -21.14,13.01 -7.74,3.62 -15.98,5.99 -24.86,7.22l-8.58 -55.48z"/>
   <path class="fil0" d="M4271.14 3913.65l-29.77 36.04 -269.08 -77.23 40.63 -49.22 56.04 17.52 63.46 -76.85 -28.3 -51.14 39.66 -48.08 127.36 248.96zm-71.48 -30.75l-41.64 -74.86 -39.95 48.37 81.59 26.49z"/>
   <polygon class="fil0" points="4021.35,4110.43 4075.08,4060.67 4109.1,4097.39 3960.1,4235.31 3926.15,4198.63 3979.88,4148.86 3839.42,3997.26 3880.95,3958.79 "/>
   <path class="fil0" d="M3803.22 4355.55l-38.25 26.89 -239 -145.67 52.15 -36.73 49.38 31.76 81.54 -57.4 -13.79 -56.73 51.01 -35.88 56.95 273.75zm-60.73 -48.55l-20.39 -83.22 -51.32 36.1 71.71 47.12z"/>
   <path class="fil0" d="M2135.49 1943.61l0 725.79c0,221.14 -179.24,400.43 -400.44,400.43 -33.89,0 -66.79,-4.24 -98.26,-12.2 -173.57,-43.79 -302.12,-200.97 -302.12,-388.22l0 -1067.74 0.06 0 800.76 341.95z"/>
   <path class="fil0" d="M1868.56 1468.18c0,73.74 -59.77,133.47 -133.51,133.47 -73.68,0 -133.4,-59.73 -133.4,-133.47 0,-73.68 59.73,-133.47 133.4,-133.47 73.74,0 133.51,59.79 133.51,133.47z"/>
   <path class="fil0" d="M3470.21 2802.88c0,470.66 -348.05,860.08 -800.81,924.77 -43.61,6.28 -88.14,9.5 -133.51,9.5l-133.4 -56.95 -266.98 -114.09 -274.49 -117.18 -378.12 -161.49c77.81,31.81 163.02,49.28 252.23,49.28 11.2,0 22.37,-0.29 33.39,-0.8 137.31,-6.77 263.76,-55.03 366.99,-132.55 159.96,-120.12 264.21,-310.48 266.98,-525.36 0,-2.88 0,-5.77 0,-8.6 0,-2.87 0,-5.75 0,-8.63l0 -1593.03 266.91 0c294.83,0 533.84,239.06 533.84,533.89 0,160.45 -70.74,304.38 -182.84,402.24 155.55,94.53 281.33,233.18 359.86,398.62 57.69,121.31 89.95,257.03 89.95,400.38z"/>
   <polygon class="fil0" points="1955.1,4561.2 1895.53,4595.2 1872.48,4554.18 1968.76,4501.87 2018.49,4512.04 1966.79,4763.53 1915.65,4752.96 "/>
   <path class="fil0" d="M2250.71 4709.1c-2.93,0.56 -5.86,0.96 -8.81,1.25 -2.93,0.27 -5.93,0.34 -9.1,0.11 -12.03,-0.8 -22.89,-3.73 -32.48,-8.71 -9.61,-4.97 -17.63,-11.47 -24.14,-19.38 -6.49,-7.91 -11.36,-17.12 -14.51,-27.63 -3.17,-10.51 -4.36,-21.53 -3.62,-33.11 0.9,-13.21 4.18,-25.08 9.83,-35.48 5.65,-10.35 13.05,-19.16 22.09,-26.28 9.1,-7.18 19.56,-12.43 31.42,-15.87 11.85,-3.44 24.52,-4.69 38.02,-3.84 13.28,0.9 25.59,3.84 37.06,8.87 11.42,4.97 21.13,11.58 29.15,19.89 8.09,8.3 14.19,17.91 18.42,28.97 4.24,11.08 5.94,23.18 5.03,36.45 -0.61,9.15 -2.03,17.46 -4.18,24.97 -2.19,7.46 -4.92,14.46 -8.14,21.01 -3.22,6.57 -6.95,12.83 -11.07,18.71 -4.13,5.88 -8.47,11.92 -13.01,18.19l-61.92 83.69 -66.23 -4.42 66.16 -87.4zm-38.52 -81.7c-0.74,11.58 2.42,21.41 9.48,29.49 7.13,8.14 16.79,12.56 29.1,13.39 12.32,0.8 22.49,-2.31 30.58,-9.43 8.14,-7.06 12.54,-16.38 13.33,-27.96 0.78,-11.53 -2.37,-21.35 -9.5,-29.49 -7.06,-8.09 -16.77,-12.49 -29.09,-13.34 -12.27,-0.85 -22.49,2.32 -30.58,9.43 -8.07,7.06 -12.54,16.38 -13.33,27.92z"/>
   <path class="fil0" d="M2468.33 4616.09c-0.8,-11.8 0.72,-22.26 4.63,-31.36 3.89,-9.1 9.55,-16.88 17.01,-23.27 7.4,-6.44 16.21,-11.47 26.38,-15.02 10.17,-3.62 21.19,-5.77 32.99,-6.57 11.82,-0.78 23,-0.11 33.57,2.1 10.57,2.19 19.94,5.99 28.03,11.4 8.14,5.38 14.74,12.33 19.94,20.85 5.14,8.47 8.14,18.64 8.92,30.46 0.91,13.95 -2.08,26.15 -9.03,36.55 -6.89,10.39 -17.12,18.15 -30.62,23.11l0.05 0.74c15.71,3.04 28.03,9.72 36.97,19.89 8.92,10.17 13.89,23.22 14.96,39.14 0.8,12.32 -0.94,23.34 -5.25,33.06 -4.34,9.72 -10.44,17.97 -18.35,24.7 -7.91,6.66 -17.19,11.98 -27.8,15.82 -10.68,3.83 -21.86,6.15 -33.67,6.94 -11.87,0.8 -23.29,0 -34.36,-2.42 -11.08,-2.43 -20.97,-6.39 -29.66,-11.98 -8.76,-5.65 -15.89,-12.94 -21.48,-22.04 -5.59,-9.1 -8.76,-19.78 -9.61,-32.03 -1.01,-15.94 2.15,-29.55 9.67,-40.86 7.45,-11.24 18.8,-19.43 33.95,-24.57l-0.06 -0.74c-14.01,-3.17 -25.15,-9.43 -33.39,-18.82 -8.25,-9.39 -12.81,-21.08 -13.77,-35.09zm54.74 4.02c0.56,7.91 3.89,14.51 10.06,19.65 6.17,5.14 13.95,7.42 23.34,6.84 9.43,-0.67 16.83,-3.96 22.26,-9.88 5.37,-5.93 7.85,-12.88 7.29,-20.79 -0.51,-7.75 -3.84,-14.19 -9.99,-19.38 -6.17,-5.14 -13.9,-7.4 -23.34,-6.79 -9.39,0.62 -16.85,3.91 -22.21,9.83 -5.41,5.94 -7.91,12.77 -7.4,20.52zm2.66 104.81c0.56,8.92 4.34,16.32 11.29,22.15 6.9,5.81 15.78,8.36 26.68,7.67 10.84,-0.72 19.32,-4.45 25.35,-11.18 6.1,-6.66 8.87,-14.46 8.26,-23.4 -0.58,-9.15 -4.36,-16.66 -11.31,-22.54 -6.89,-5.81 -15.82,-8.36 -26.67,-7.62 -10.84,0.67 -19.33,4.4 -25.43,11.13 -6.04,6.71 -8.81,14.62 -8.18,23.78z"/>
   <path class="fil0" d="M2790.28 4715.13l79.62 -107.81c4.07,-5.53 7.96,-11.63 11.74,-18.31 3.84,-6.71 4.92,-13.89 3.4,-21.46 -1.75,-8.54 -6.21,-14.57 -13.39,-18.13 -7.13,-3.62 -14.86,-4.53 -23.16,-2.83 -9.95,2.03 -17.07,6.73 -21.37,14.01 -4.29,7.29 -5.88,15.54 -4.69,24.7l-54.07 7c-1.97,-13.17 -1.59,-25.03 1.19,-35.59 2.77,-10.57 7.35,-19.84 13.85,-27.8 6.49,-8.02 14.69,-14.69 24.57,-20.05 9.88,-5.38 20.97,-9.34 33.28,-11.87 11.36,-2.32 22.37,-2.95 32.95,-1.76 10.62,1.14 20.23,4.07 28.86,8.87 8.65,4.76 16,11.42 22.1,20.07 6.04,8.58 10.39,19.16 12.99,31.74 1.63,8.02 2.32,15.49 1.99,22.33 -0.29,6.89 -1.36,13.28 -3.24,19.2 -1.86,5.94 -4.34,11.58 -7.45,16.9 -3.11,5.32 -6.61,10.57 -10.46,15.82l-62.83 81.41 111.54 -22.94 9.61 46.83 -175.38 36.17 -11.64 -56.51z"/>
   <path class="fil0" d="M3238.27 4507.14c0,18.48 14.98,33.39 33.39,33.39 18.47,0 33.44,-14.91 33.44,-33.39 0,-18.42 -14.98,-33.39 -33.44,-33.39 -18.42,0 -33.39,14.98 -33.39,33.39z"/>
   <path class="fil0" d="M1503.16 4507.08c0,18.43 14.98,33.39 33.39,33.39 18.47,0 33.39,-14.96 33.39,-33.39 0,-18.47 -14.93,-33.38 -33.39,-33.38 -18.42,0 -33.39,14.91 -33.39,33.38z"/>
   <polygon class="fil0" points="5585.23,4804.91 5626.18,4804.91 5626.18,0 5585.23,0 "/>
   <polygon class="fil0" points="9476.37,3737.18 11211.52,3737.18 11211.52,3470.21 9476.37,3470.21 "/>
   <polygon class="fil0" points="8275.14,3336.76 11211.45,3336.76 11211.45,3069.83 8275.14,3069.83 "/>
   <polygon class="fil0" points="10277.24,2936.38 11211.52,2936.38 11211.52,2669.4 10277.24,2669.4 "/>
   <polygon class="fil0" points="7862.78,2535.93 11211.52,2535.93 11211.52,2268.97 7862.78,2268.97 "/>
   <polygon class="fil0" points="6407.27,2535.93 7680.83,2535.93 7680.83,2268.97 6407.27,2268.97 "/>
   <path class="fil0" d="M6551.79 3138.36c-4.52,-5.77 -10.68,-9.99 -18.47,-12.77 -7.75,-2.66 -15.09,-4.07 -22.04,-4.07 -4.07,0 -8.25,0.45 -12.6,1.41 -4.23,0.96 -8.3,2.48 -12.14,4.52 -3.84,2.03 -6.95,4.69 -9.32,8.09 -2.43,3.27 -3.57,7.4 -3.57,12.14 0,7.69 2.83,13.5 8.54,17.57 5.77,4.07 12.99,7.58 21.75,10.41 8.7,2.88 18.08,5.75 28.14,8.58 9.99,2.93 19.44,7 28.14,12.25 8.76,5.25 15.98,12.32 21.75,21.19 5.7,8.83 8.58,20.63 8.58,35.49 0,14.13 -2.66,26.44 -7.91,36.95 -5.25,10.51 -12.36,19.2 -21.3,26.15 -8.97,6.95 -19.38,12.09 -31.23,15.42 -11.82,3.33 -24.36,5.03 -37.46,5.03 -16.5,0 -31.81,-2.48 -45.89,-7.51 -14.17,-5.03 -27.34,-13.1 -39.5,-24.41l39.78 -43.72c5.77,7.62 12.99,13.55 21.69,17.73 8.76,4.18 17.81,6.28 27.13,6.28 4.52,0 9.15,-0.51 13.84,-1.63 4.63,-1.07 8.76,-2.66 12.54,-4.8 3.68,-2.21 6.66,-4.92 8.99,-8.25 2.21,-3.4 3.33,-7.29 3.33,-11.87 0,-7.62 -2.88,-13.68 -8.76,-18.08 -5.86,-4.47 -13.21,-8.2 -22.02,-11.36 -8.87,-3.06 -18.42,-6.17 -28.7,-9.32 -10.35,-3.06 -19.84,-7.29 -28.72,-12.54 -8.81,-5.25 -16.21,-12.2 -22.02,-20.81 -5.88,-8.58 -8.83,-19.99 -8.83,-34.07 0,-13.68 2.66,-25.59 8.09,-35.88 5.37,-10.28 12.54,-18.93 21.53,-25.82 8.92,-6.95 19.32,-12.16 31.02,-15.65 11.69,-3.46 23.78,-5.14 36.21,-5.14 14.35,0 28.25,2.03 41.58,6.04 13.45,4.07 25.48,10.91 36.28,20.45l-38.42 41.98z"/>
   <path class="fil0" d="M6834.14 3142.32c-5.54,-6.66 -12.27,-11.8 -20.29,-15.38 -7.96,-3.6 -17.28,-5.41 -27.74,-5.41 -10.57,0 -20.34,2.03 -29.26,6.1 -8.99,4.07 -16.79,9.71 -23.34,17.06 -6.61,7.24 -11.71,15.94 -15.44,25.99 -3.67,10.06 -5.59,20.97 -5.59,32.66 0,11.92 1.92,22.89 5.59,32.82 3.73,9.9 8.83,18.48 15.26,25.83 6.5,7.29 14.01,12.94 22.82,17.01 8.7,4.07 18.08,6.1 28.09,6.1 11.52,0 21.64,-2.43 30.51,-7.18 8.86,-4.8 16.14,-11.48 21.91,-20.12l46.62 34.8c-10.75,15.09 -24.41,26.22 -40.91,33.33 -16.51,7.24 -33.46,10.8 -50.92,10.8 -19.89,0 -38.2,-3.06 -54.92,-9.32 -16.72,-6.21 -31.18,-15.09 -43.39,-26.73 -12.2,-11.58 -21.75,-25.64 -28.54,-42.16 -6.84,-16.5 -10.22,-34.92 -10.22,-55.19 0,-20.34 3.38,-38.76 10.22,-55.26 6.79,-16.5 16.34,-30.58 28.54,-42.16 12.2,-11.64 26.67,-20.52 43.39,-26.73 16.72,-6.21 35.03,-9.32 54.92,-9.32 7.13,0 14.64,0.62 22.37,1.92 7.8,1.36 15.42,3.44 23,6.33 7.51,2.88 14.75,6.68 21.7,11.47 6.89,4.76 13.17,10.63 18.64,17.59l-43.05 35.14z"/>
   <polygon class="fil0" points="6948.92,3330.3 7004.91,3330.3 7004.91,3076.28 6948.92,3076.28 "/>
   <polygon class="fil0" points="7093.85,3076.3 7266.36,3076.3 7266.36,3128 7149.8,3128 7149.8,3175.28 7259.97,3175.28 7259.97,3226.98 7149.8,3226.98 7149.8,3278.68 7272.85,3278.68 7272.85,3330.33 7093.85,3330.33 "/>
   <polygon class="fil0" points="7353.57,3076.3 7429.63,3076.3 7537.6,3252.86 7538.28,3252.86 7538.28,3076.3 7594.28,3076.3 7594.28,3330.33 7521.1,3330.33 7410.25,3149.46 7409.57,3149.46 7409.57,3330.33 7353.57,3330.33 "/>
   <polygon class="fil0" points="7668.51,3278.65 7797.27,3125.82 7673.19,3125.82 7673.19,3076.27 7865.08,3076.27 7865.08,3125.82 7738.86,3278.65 7869.43,3278.65 7869.43,3330.3 7668.51,3330.3 "/>
   <polygon class="fil0" points="7945.81,3076.3 8118.37,3076.3 8118.37,3128 8001.8,3128 8001.8,3175.28 8111.87,3175.28 8111.87,3226.98 8001.8,3226.98 8001.8,3278.68 8124.86,3278.68 8124.86,3330.33 7945.81,3330.33 "/>
   <path class="fil0" d="M6407.26 3476.72l83.96 0c20.34,0 39.61,2.31 57.92,6.84 18.31,4.52 34.24,11.92 47.92,22.09 13.61,10.11 24.46,23.34 32.43,39.61 8.02,16.21 12.03,35.99 12.03,59.15 0,20.63 -3.89,38.71 -11.64,54.42 -7.8,15.65 -18.24,28.75 -31.41,39.38 -13.17,10.67 -28.32,18.76 -45.55,24.23 -17.23,5.48 -35.25,8.25 -54.18,8.25l-91.47 0 0 -253.97zm55.99 202.34l28.99 0c12.93,0 25.02,-1.31 36.1,-3.96 11.13,-2.61 20.74,-7.02 28.88,-13.12 8.14,-6.1 14.57,-14.06 19.2,-24.01 4.63,-9.95 6.95,-22.04 6.95,-36.44 0,-12.38 -2.32,-23.22 -6.95,-32.43 -4.63,-9.21 -10.96,-16.79 -18.82,-22.78 -7.96,-5.99 -17.23,-10.51 -27.85,-13.45 -10.62,-3 -21.81,-4.45 -33.51,-4.45l-32.99 0 0 150.63z"/>
   <polygon class="fil0" points="6717.57,3476.72 6890.09,3476.72 6890.09,3528.43 6773.52,3528.43 6773.52,3575.71 6883.65,3575.71 6883.65,3627.41 6773.52,3627.41 6773.52,3679.06 6896.53,3679.06 6896.53,3730.7 6717.57,3730.7 "/>
   <polygon class="fil0" points="6979.43,3476.72 7035.42,3476.72 7035.42,3679.06 7139.05,3679.06 7139.05,3730.7 6979.43,3730.7 "/>
   <polygon class="fil0" points="7207.97,3476.72 7263.9,3476.72 7263.9,3679.06 7367.59,3679.06 7367.59,3730.7 7207.97,3730.7 "/>
   <path class="fil0" d="M7517.9 3476.72l46.21 0 110.53 253.97 -63.12 0 -21.86 -53.78 -98.66 0 -21.19 53.78 -61.69 0 109.79 -253.97zm21.46 73.9l-30.78 78.93 62.03 0 -31.25 -78.93z"/>
   <path class="fil0" d="M8003.58 3538.77c-4.47,-5.7 -10.62,-9.95 -18.42,-12.72 -7.74,-2.71 -15.14,-4.12 -22.09,-4.12 -4.07,0 -8.25,0.45 -12.6,1.46 -4.24,0.91 -8.31,2.43 -12.16,4.47 -3.83,2.03 -6.94,4.69 -9.37,8.07 -2.32,3.35 -3.51,7.42 -3.51,12.16 0,7.69 2.88,13.57 8.54,17.57 5.77,4.07 12.99,7.58 21.75,10.46 8.7,2.82 18.08,5.77 28.14,8.58 9.99,2.88 19.49,6.95 28.19,12.2 8.76,5.25 15.94,12.32 21.7,21.19 5.7,8.87 8.58,20.68 8.58,35.48 0,14.13 -2.66,26.44 -7.85,36.95 -5.32,10.52 -12.43,19.22 -21.37,26.22 -8.99,6.9 -19.38,12.04 -31.25,15.42 -11.85,3.28 -24.35,4.98 -37.46,4.98 -16.5,0 -31.81,-2.48 -45.87,-7.51 -14.19,-4.98 -27.36,-13.12 -39.5,-24.41l39.78 -43.74c5.75,7.62 12.99,13.57 21.69,17.75 8.76,4.18 17.79,6.26 27.07,6.26 4.58,0 9.21,-0.5 13.9,-1.57 4.63,-1.07 8.76,-2.72 12.54,-4.87 3.67,-2.15 6.66,-4.92 8.99,-8.25 2.19,-3.38 3.33,-7.29 3.33,-11.87 0,-7.62 -2.88,-13.66 -8.7,-18.07 -5.94,-4.42 -13.28,-8.2 -22.1,-11.37 -8.92,-3.04 -18.42,-6.15 -28.7,-9.32 -10.28,-3.04 -19.83,-7.29 -28.7,-12.48 -8.81,-5.32 -16.21,-12.27 -22.04,-20.85 -5.93,-8.58 -8.81,-19.94 -8.81,-34.07 0,-13.68 2.71,-25.59 8.07,-35.88 5.38,-10.28 12.6,-18.88 21.54,-25.83 8.97,-6.89 19.32,-12.14 31.01,-15.58 11.71,-3.51 23.8,-5.21 36.28,-5.21 14.3,0 28.2,2.03 41.53,6.1 13.39,4.07 25.48,10.86 36.28,20.4l-38.42 41.98z"/>
   <path class="fil0" d="M8203.45 3476.72l46.27 0 110.4 253.97 -63.06 0 -21.86 -53.78 -98.65 0 -21.25 53.78 -61.65 0 109.79 -253.97zm21.46 73.9l-30.85 78.93 62.1 0 -31.25 -78.93z"/>
   <polygon class="fil0" points="8423.66,3476.72 8479.65,3476.72 8479.65,3679.06 8583.33,3679.06 8583.33,3730.7 8423.66,3730.7 "/>
   <path class="fil0" d="M8864.14 3632.79c0,15.02 -2.26,28.93 -6.77,41.59 -4.58,12.65 -11.31,23.72 -20.29,33.04 -8.99,9.32 -20.16,16.61 -33.55,21.88 -13.41,5.19 -28.83,7.85 -46.29,7.85 -17.68,0 -33.22,-2.66 -46.61,-7.85 -13.34,-5.27 -24.59,-12.56 -33.57,-21.88 -8.92,-9.32 -15.65,-20.39 -20.23,-33.04 -4.56,-12.67 -6.82,-26.57 -6.82,-41.59l0 -156.06 55.99 0 0 153.85c0,7.91 1.19,15.26 3.78,21.93 2.48,6.68 5.99,12.49 10.57,17.41 4.56,4.92 9.99,8.7 16.32,11.47 6.33,2.77 13.23,4.12 20.57,4.12 7.46,0 14.24,-1.35 20.52,-4.12 6.15,-2.77 11.58,-6.55 16.1,-11.47 4.53,-4.92 8.09,-10.73 10.57,-17.41 2.55,-6.66 3.73,-14.01 3.73,-21.93l0 -153.85 55.99 0 0 156.06z"/>
   <polygon class="fil0" points="9000.83,3526.25 8928.34,3526.25 8928.34,3476.74 9129.26,3476.74 9129.26,3526.25 9056.82,3526.25 9056.82,3730.73 9000.83,3730.73 "/>
   <polygon class="fil0" points="9195.65,3476.72 9368.21,3476.72 9368.21,3528.43 9251.65,3528.43 9251.65,3575.71 9361.71,3575.71 9361.71,3627.41 9251.65,3627.41 9251.65,3679.06 9374.59,3679.06 9374.59,3730.7 9195.65,3730.7 "/>
   <path class="fil0" d="M6407.26 2675.89l83.91 0c20.34,0 39.66,2.32 57.96,6.84 18.26,4.52 34.24,11.93 47.92,22.1 13.61,10.11 24.41,23.34 32.43,39.61 7.96,16.27 11.96,35.99 11.96,59.15 0,20.63 -3.83,38.71 -11.58,54.41 -7.8,15.66 -18.24,28.77 -31.41,39.38 -13.23,10.68 -28.32,18.77 -45.55,24.25 -17.23,5.48 -35.3,8.25 -54.23,8.25l-91.42 0 0 -253.99zm55.99 202.34l28.99 0c12.93,0 24.97,-1.3 36.1,-3.96 11.13,-2.59 20.74,-7 28.88,-13.1 8.07,-6.1 14.51,-14.06 19.14,-24.01 4.64,-9.95 7.02,-22.04 7.02,-36.45 0,-12.36 -2.37,-23.22 -7.02,-32.43 -4.63,-9.21 -10.89,-16.77 -18.8,-22.76 -7.91,-5.99 -17.19,-10.52 -27.8,-13.45 -10.62,-3 -21.86,-4.47 -33.51,-4.47l-32.99 0 0 150.63z"/>
   <polygon class="fil0" points="6714.64,2929.87 6770.59,2929.87 6770.59,2675.9 6714.64,2675.9 "/>
   <path class="fil0" d="M6857.43 2675.89l94.3 0c13.21,0 25.66,1.19 37.35,3.62 11.69,2.37 21.93,6.5 30.67,12.38 8.71,5.81 15.66,13.73 20.81,23.67 5.14,9.88 7.74,22.37 7.74,37.46 0,14.8 -2.43,27.29 -7.18,37.35 -4.8,9.99 -11.36,18.02 -19.72,24.01 -8.36,5.99 -18.31,10.23 -29.77,12.72 -11.53,2.53 -23.96,3.78 -37.3,3.78l-40.91 0 0 99 -55.99 0 0 -253.99zm55.99 107.65l37.29 0c5.03,0 9.83,-0.51 14.53,-1.47 4.63,-0.9 8.87,-2.55 12.54,-4.8 3.68,-2.26 6.73,-5.41 8.99,-9.32 2.26,-3.96 3.44,-8.92 3.44,-14.91 0,-6.5 -1.52,-11.64 -4.52,-15.6 -3.04,-3.96 -6.84,-7 -11.53,-9.15 -4.63,-2.15 -9.82,-3.57 -15.54,-4.13 -5.77,-0.56 -11.29,-0.9 -16.55,-0.9l-28.65 0 0 60.29z"/>
   <path class="fil0" d="M7176.37 2675.89l46.22 0 110.51 253.99 -63.1 0 -21.86 -53.8 -98.66 0 -21.24 53.8 -61.65 0 109.78 -253.99zm21.53 73.92l-30.9 78.93 62.1 0 -31.2 -78.93z"/>
   <path class="fil0" d="M7394.45 2675.89l98.32 0c12.88,0 25.15,1.25 36.73,3.73 11.64,2.55 21.81,6.79 30.51,12.6 8.76,5.88 15.71,13.79 20.85,23.67 5.08,9.95 7.67,22.33 7.67,37.13 0,17.97 -4.68,33.22 -14.01,45.76 -9.32,12.54 -22.94,20.52 -40.84,23.85l64.53 107.25 -67.08 0 -53.05 -101.54 -27.64 0 0 101.54 -55.99 0 0 -253.99zm55.99 105.16l33 0c4.97,0 10.33,-0.24 15.94,-0.58 5.59,-0.38 10.67,-1.46 15.2,-3.22 4.56,-1.81 8.36,-4.63 11.36,-8.41 3,-3.84 4.45,-9.27 4.45,-16.16 0,-6.5 -1.3,-11.64 -3.96,-15.49 -2.64,-3.78 -5.93,-6.73 -9.99,-8.76 -4.07,-2.03 -8.7,-3.38 -14.01,-4.12 -5.25,-0.69 -10.39,-1.07 -15.42,-1.07l-36.56 0 0 57.8z"/>
   <polygon class="fil0" points="7705.51,2725.41 7633.01,2725.41 7633.01,2675.92 7833.93,2675.92 7833.93,2725.41 7761.51,2725.41 7761.51,2929.89 7705.51,2929.89 "/>
   <polygon class="fil0" points="7897.36,2929.87 7953.35,2929.87 7953.35,2675.9 7897.36,2675.9 "/>
   <polygon class="fil0" points="8040.21,2675.89 8124.86,2675.89 8183.33,2841.67 8184.02,2841.67 8242.9,2675.89 8327.19,2675.89 8327.19,2929.87 8271.26,2929.87 8271.26,2735.11 8270.53,2735.11 8203.78,2929.87 8161.13,2929.87 8096.89,2735.11 8096.2,2735.11 8096.2,2929.87 8040.21,2929.87 "/>
   <polygon class="fil0" points="8416.88,2675.89 8589.45,2675.89 8589.45,2727.59 8472.88,2727.59 8472.88,2774.88 8582.94,2774.88 8582.94,2826.58 8472.88,2826.58 8472.88,2878.22 8595.82,2878.22 8595.82,2929.87 8416.88,2929.87 "/>
   <polygon class="fil0" points="8676.57,2675.89 8752.62,2675.89 8860.65,2852.4 8861.39,2852.4 8861.39,2675.89 8917.27,2675.89 8917.27,2929.87 8844.11,2929.87 8733.24,2749.06 8732.57,2749.06 8732.57,2929.87 8676.57,2929.87 "/>
   <polygon class="fil0" points="9053.95,2725.41 8981.46,2725.41 8981.46,2675.92 9182.39,2675.92 9182.39,2725.41 9109.95,2725.41 9109.95,2929.89 9053.95,2929.89 "/>
   <path class="fil0" d="M9233 2802.88c0,-20.28 3.4,-38.76 10.17,-55.26 6.79,-16.5 16.34,-30.58 28.54,-42.09 12.2,-11.64 26.6,-20.57 43.39,-26.78 16.79,-6.23 35.03,-9.34 54.92,-9.34 19.83,0 38.09,3.11 54.87,9.34 16.72,6.21 31.18,15.14 43.39,26.78 12.25,11.52 21.7,25.59 28.59,42.09 6.77,16.5 10.17,34.98 10.17,55.26 0,20.34 -3.4,38.76 -10.17,55.26 -6.89,16.5 -16.34,30.58 -28.59,42.16 -12.2,11.64 -26.67,20.52 -43.39,26.73 -16.79,6.21 -35.04,9.32 -54.87,9.32 -19.89,0 -38.14,-3.11 -54.92,-9.32 -16.79,-6.21 -31.18,-15.09 -43.39,-26.73 -12.2,-11.58 -21.75,-25.66 -28.54,-42.16 -6.77,-16.5 -10.17,-34.92 -10.17,-55.26zm58.09 0c0,11.98 1.81,22.89 5.59,32.83 3.67,9.95 8.92,18.53 15.94,25.82 6.95,7.29 15.25,12.99 24.86,17.06 9.72,4.07 20.63,6.1 32.55,6.1 11.92,0 22.71,-2.03 32.43,-6.1 9.66,-4.07 18.02,-9.77 24.97,-17.06 6.9,-7.29 12.27,-15.87 15.94,-25.82 3.67,-9.95 5.59,-20.85 5.59,-32.83 0,-11.69 -1.92,-22.55 -5.59,-32.66 -3.67,-9.99 -9.03,-18.71 -15.94,-25.99 -6.95,-7.29 -15.31,-12.99 -24.97,-17.01 -9.72,-4.12 -20.52,-6.15 -32.43,-6.15 -11.92,0 -22.82,2.03 -32.55,6.15 -9.61,4.02 -17.91,9.72 -24.86,17.01 -7.02,7.29 -12.27,16 -15.94,25.99 -3.78,10.11 -5.59,20.97 -5.59,32.66z"/>
   <path class="fil0" d="M9722.98 2675.89l84.02 0c20.23,0 39.61,2.32 57.87,6.84 18.35,4.52 34.29,11.93 47.91,22.1 13.61,10.11 24.47,23.34 32.5,39.61 8.02,16.27 12.03,35.99 12.03,59.15 0,20.63 -3.96,38.71 -11.69,54.41 -7.8,15.66 -18.26,28.77 -31.42,39.38 -13.1,10.68 -28.3,18.77 -45.53,24.25 -17.23,5.48 -35.25,8.25 -54.14,8.25l-91.53 0 0 -253.99zm55.99 202.34l29.05 0c12.88,0 24.91,-1.3 36.04,-3.96 11.13,-2.59 20.74,-7 28.88,-13.1 8.14,-6.1 14.53,-14.06 19.27,-24.01 4.63,-9.95 6.95,-22.04 6.95,-36.45 0,-12.36 -2.32,-23.22 -6.95,-32.43 -4.74,-9.21 -11.02,-16.77 -18.93,-22.76 -7.85,-5.99 -17.12,-10.52 -27.79,-13.45 -10.63,-3 -21.77,-4.47 -33.51,-4.47l-33.01 0 0 150.63z"/>
   <polygon class="fil0" points="10030.49,2929.87 10086.44,2929.87 10086.44,2675.9 10030.49,2675.9 "/>
  </g>
 </g>
</svg>
