<?xml version="1.0" encoding="UTF-8"?>
<!DOCTYPE svg PUBLIC "-//W3C//DTD SVG 1.1//EN" "http://www.w3.org/Graphics/SVG/1.1/DTD/svg11.dtd">
<!-- Creator: CorelDRAW (Evaluation Version) -->
<svg xmlns="http://www.w3.org/2000/svg" xml:space="preserve" width="24.0002mm" height="29.9999mm" version="1.1" style="shape-rendering:geometricPrecision; text-rendering:geometricPrecision; image-rendering:optimizeQuality; fill-rule:evenodd; clip-rule:evenodd"
viewBox="0 0 929.81 1162.25"
 xmlns:xlink="http://www.w3.org/1999/xlink"
 xmlns:xodm="http://www.corel.com/coreldraw/odm/2003">
 <defs>
  <style type="text/css">
   <![CDATA[
    .fil0 {fill:#293B5B;fill-rule:nonzero}
   ]]>
  </style>
 </defs>
 <g id="Layer_x0020_1">
  <metadata id="CorelCorpID_0Corel-Layer"/>
  <g id="_1913699718736">
   <path class="fil0" d="M348.68 381.36l0 316c0,96.29 -78.04,174.34 -174.34,174.34 -14.76,0 -29.08,-1.85 -42.78,-5.32 -75.59,-19.06 -131.56,-87.49 -131.56,-169.02l0 -464.89 0.03 0 348.65 148.89z"/>
   <path class="fil0" d="M232.46 174.34c0,32.1 -26.01,58.12 -58.11,58.12 -32.09,0 -58.1,-26.02 -58.1,-58.12 0,-32.08 26.01,-58.1 58.1,-58.1 32.11,0 58.11,26.02 58.11,58.1z"/>
   <path class="fil0" d="M929.81 755.47c0,204.93 -151.54,374.47 -348.68,402.64 -18.98,2.72 -38.38,4.14 -58.11,4.14l-58.1 -24.81 -116.24 -49.66 -119.51 -51.03 -164.63 -70.32c33.89,13.85 70.97,21.47 109.81,21.47 4.89,0 9.75,-0.12 14.56,-0.35 59.79,-2.95 114.83,-23.96 159.77,-57.71 69.66,-52.32 115.05,-135.21 116.24,-228.75 0.01,-1.24 0.01,-2.5 0.01,-3.76 0,-1.24 0,-2.49 -0.01,-3.75l0 -693.6 116.21 0c128.38,0 232.44,104.08 232.44,232.46 0,69.87 -30.8,132.52 -79.6,175.14 67.73,41.14 122.49,101.52 156.68,173.53 25.12,52.84 39.16,111.94 39.16,174.34z"/>
  </g>
 </g>
</svg>
