<?xml version="1.0" encoding="UTF-8"?>
<!DOCTYPE svg PUBLIC "-//W3C//DTD SVG 1.1//EN" "http://www.w3.org/Graphics/SVG/1.1/DTD/svg11.dtd">
<!-- Creator: CorelDRAW (Evaluation Version) -->
<svg xmlns="http://www.w3.org/2000/svg" xml:space="preserve" width="210mm" height="90.0002mm" version="1.1" style="shape-rendering:geometricPrecision; text-rendering:geometricPrecision; image-rendering:optimizeQuality; fill-rule:evenodd; clip-rule:evenodd"
viewBox="0 0 11211.5 4804.95"
 xmlns:xlink="http://www.w3.org/1999/xlink"
 xmlns:xodm="http://www.corel.com/coreldraw/odm/2003">
 <defs>
  <style type="text/css">
   <![CDATA[
    .fil1 {fill:#802723;fill-rule:nonzero}
    .fil0 {fill:#818382;fill-rule:nonzero}
   ]]>
  </style>
 </defs>
 <g id="Layer_x0020_1">
  <metadata id="CorelCorpID_0Corel-Layer"/>
  <g id="_1913871658128">
   <path class="fil0" d="M7207.52 2117.42l-209.35 0 0 -97.12 -3.04 0c-9.1,13.21 -20.97,26.56 -35.65,40.23 -14.64,13.66 -31.87,26.04 -51.52,37.17 -19.78,11.13 -41.48,20.16 -65.27,27.29 -23.78,7.06 -48.31,10.62 -73.56,10.62 -54.65,0 -104.19,-9.39 -148.66,-28.03 -44.53,-18.71 -82.66,-45.02 -114.53,-78.88 -31.86,-33.89 -56.38,-74.07 -73.56,-120.61 -17.23,-46.51 -25.75,-97.59 -25.75,-153.25 0,-51.52 7.78,-100.86 23.5,-147.86 15.65,-47.01 37.91,-88.76 66.72,-125.15 28.83,-36.39 63.91,-65.43 105.39,-87.24 41.53,-21.7 88.47,-32.59 141.14,-32.59 47.52,0 91.76,7.34 132.73,21.97 40.91,14.69 74.59,39.72 100.86,75.15l3 0 0 -391.35 227.59 0 0 1049.65zm-209.35 -368.61c0,-55.61 -15.92,-100.63 -47.79,-135.05 -31.87,-34.29 -76.62,-51.52 -134.25,-51.52 -57.63,0 -102.38,17.23 -134.2,51.52 -31.86,34.42 -47.79,79.44 -47.79,135.05 0,55.66 15.94,100.63 47.79,134.99 31.82,34.4 76.57,51.57 134.2,51.57 57.63,0 102.38,-17.17 134.25,-51.57 31.87,-34.36 47.79,-79.33 47.79,-134.99z"/>
   <path class="fil0" d="M7436.54 1199.76c0,-36.45 12.88,-67.53 38.69,-93.34 25.82,-25.77 56.84,-38.65 93.3,-38.65 36.37,0 67.51,12.88 93.28,38.65 25.82,25.82 38.7,56.89 38.7,93.34 0,36.39 -12.88,67.51 -38.7,93.28 -25.77,25.77 -56.91,38.65 -93.28,38.65 -36.45,0 -67.48,-12.88 -93.3,-38.65 -25.81,-25.77 -38.69,-56.89 -38.69,-93.28zm18.19 180.41l227.52 0 0 737.23 -227.52 0 0 -737.23z"/>
   <path class="fil1" d="M7893.11 1199.76c0,-36.45 12.88,-67.53 38.7,-93.34 25.77,-25.77 56.84,-38.65 93.3,-38.65 36.39,0 67.46,12.88 93.28,38.65 25.82,25.82 38.71,56.89 38.71,93.34 0,36.39 -12.89,67.51 -38.71,93.28 -25.82,25.77 -56.89,38.65 -93.28,38.65 -36.45,0 -67.53,-12.88 -93.3,-38.65 -25.82,-25.77 -38.7,-56.89 -38.7,-93.28zm18.19 180.41l227.53 0 0 737.23 -227.53 0 0 -737.23z"/>
   <path class="fil1" d="M8364.86 1380.17l218.45 0 0 100.12 3.04 0c7.06,-14.13 17.19,-28.3 30.29,-42.48 13.17,-14.13 28.81,-26.8 47.07,-37.93 18.19,-11.13 38.92,-20.23 62.14,-27.29 23.29,-7.06 48.59,-10.62 75.89,-10.62 57.69,0 104.14,8.87 139.57,26.56 35.36,17.68 62.94,42.27 82.66,73.56 19.72,31.36 33.11,68.26 40.17,110.75 7.13,42.49 10.68,88.47 10.68,138.03l0 406.54 -227.59 0 0 -360.99c0,-21.3 -0.74,-43.29 -2.26,-66 -1.47,-22.76 -6.05,-43.79 -13.61,-62.99 -7.64,-19.16 -19.22,-34.87 -34.92,-47.01 -15.71,-12.09 -38.2,-18.19 -67.53,-18.19 -29.33,0 -53.06,5.3 -71.31,15.94 -18.19,10.62 -32.1,24.79 -41.64,42.48 -9.66,17.7 -15.94,37.69 -18.98,59.9 -3.06,22.26 -4.58,45.53 -4.58,69.78l0 367.09 -227.55 0 0 -737.25z"/>
   <path class="fil1" d="M10071.42 2055.23c0,139.5 -35.14,245.45 -105.44,317.78 -70.28,72.31 -177.24,108.48 -320.81,108.48 -65.78,0 -130.47,-7.35 -194.15,-21.97 -63.73,-14.7 -122.43,-43.29 -176,-85.72l125.89 -188.1c35.43,29.26 72.6,52.55 111.54,69.78 38.87,17.17 81.65,25.75 128.2,25.75 69.78,0 121.04,-16.95 153.92,-50.79 32.88,-33.91 49.33,-77.18 49.33,-129.73l0 -71.31 -3.06 0c-26.27,35.43 -58.92,60.46 -97.86,75.1 -38.87,14.69 -75.53,21.97 -109.95,21.97 -54.63,0 -104.19,-9.32 -148.65,-28.03 -44.48,-18.71 -82.68,-44.97 -114.53,-78.88 -31.87,-33.89 -56.39,-74.07 -73.56,-120.63 -17.23,-46.43 -25.77,-97.51 -25.77,-153.17 0,-48.55 7.8,-96.07 23.51,-142.61 15.65,-46.51 37.91,-87.47 66.72,-122.85 28.81,-35.43 63.95,-63.95 105.44,-85.7 41.47,-21.7 88.47,-32.61 141.09,-32.61 32.31,0 61.92,3.56 88.76,10.57 26.78,7.11 50.79,16.21 71.98,27.34 21.3,11.13 39.43,23.51 54.63,37.13 15.15,13.68 27.29,27.07 36.45,40.23l3 0 0 -97.14 209.34 0 0 675.09zm-573.39 -310.99c0,24.3 4.53,47.3 13.63,69 9.15,21.81 22.02,40.95 38.7,57.69 16.67,16.66 35.88,30.11 57.63,40.17 21.77,10.11 45.78,15.2 72.04,15.2 25.32,0 49.11,-5.09 71.37,-15.2 22.2,-10.06 41.64,-23.51 58.36,-40.17 16.67,-16.74 29.55,-35.88 38.65,-57.69 9.16,-21.7 13.68,-44.7 13.68,-69 0,-24.3 -4.52,-47.28 -13.68,-68.98 -9.1,-21.75 -21.97,-40.97 -38.65,-57.69 -16.72,-16.67 -36.17,-30.06 -58.36,-40.17 -22.26,-10.06 -46.05,-15.2 -71.37,-15.2 -26.27,0 -50.28,5.14 -72.04,15.2 -21.75,10.11 -40.95,23.5 -57.63,40.17 -16.67,16.72 -29.55,35.94 -38.7,57.69 -9.1,21.7 -13.63,44.69 -13.63,68.98z"/>
   <path class="fil1" d="M1026.25 4177.68c8.76,-12.43 18.71,-22.6 29.84,-30.46 11.13,-7.8 23.11,-12.99 35.92,-15.42 12.89,-2.55 26.33,-2.03 40.46,1.41 14.13,3.46 28.43,10.23 42.83,20.4 14.64,10.28 25.99,21.46 33.97,33.62 8.01,12.14 12.99,24.7 15.02,37.57 1.97,12.94 1.12,25.99 -2.48,39.1 -3.62,13.12 -9.79,25.88 -18.53,38.36l-90.81 128.95 -46.21 -32.55 89.5 -127.19c4.56,-6.5 7.8,-13.28 9.59,-20.29 1.81,-7 2.32,-13.84 1.36,-20.5 -0.85,-6.73 -3.16,-13.05 -6.77,-19 -3.62,-5.93 -8.54,-11.07 -14.64,-15.42 -6.15,-4.29 -12.6,-7.11 -19.32,-8.47 -6.73,-1.35 -13.41,-1.3 -20,0.11 -6.61,1.41 -12.89,4.13 -18.88,8.2 -5.97,4.07 -11.24,9.37 -15.81,15.87l-89.56 127.25 -46.27 -32.55 90.8 -129z"/>
   <polygon class="fil1" points="798.85,4193.55 744.32,4139.37 792.64,3935.9 792.06,3935.4 666.41,4061.96 626.23,4022.13 807.15,3840.02 859.65,3892.11 810.32,4100.72 810.83,4101.23 939.59,3971.61 979.77,4011.45 "/>
   <polygon class="fil1" points="519.16,3891.35 484.63,3846.56 687.92,3689.87 722.45,3734.68 "/>
   <polygon class="fil1" points="400.08,3732.49 367.26,3676.89 479.92,3536.77 479.53,3536.14 301.88,3566.03 271.09,3513.94 545.97,3474.67 569.03,3513.65 "/>
   <polygon class="fil1" points="207.35,3377.32 142.48,3215.44 190.9,3196.06 234.75,3305.41 279.15,3287.6 237.73,3184.26 286.21,3164.88 327.63,3268.17 376.11,3248.73 329.84,3133.34 378.26,3113.91 445.61,3281.83 "/>
   <path class="fil1" d="M90.01 3050.99l-22.98 -96.61c-3,-12.72 -4.64,-25.08 -4.92,-37.06 -0.22,-11.98 1.52,-22.95 5.25,-32.88 3.73,-10.01 9.83,-18.66 18.42,-25.99 8.54,-7.4 20.12,-12.83 34.69,-16.27 17.63,-4.24 33.73,-3.17 48.26,3.04 14.51,6.21 25.53,17.75 32.99,34.64l90.35 -88.6 15.71 66 -87.42 75.93 6.44 27.12 99.85 -23.72 13.1 55.03 -249.74 59.37zm90.24 -79.6l-7.67 -32.43c-1.2,-4.98 -2.61,-10.12 -4.31,-15.6 -1.63,-5.43 -3.89,-10.17 -6.71,-14.17 -2.83,-4.07 -6.45,-7.13 -10.91,-9.16 -4.47,-2.03 -10.12,-2.26 -16.96,-0.67 -6.33,1.52 -11.07,4 -14.24,7.51 -3.16,3.44 -5.25,7.46 -6.26,11.92 -1.07,4.47 -1.3,9.39 -0.8,14.75 0.51,5.32 1.36,10.46 2.55,15.42l8.54 35.94 56.78 -13.5z"/>
   <path class="fil1" d="M71.85 2571.37c-5.37,5.08 -9.03,11.69 -11.13,19.78 -2.03,8.07 -2.77,15.58 -2.08,22.6 0.34,4.07 1.23,8.25 2.59,12.48 1.36,4.24 3.22,8.2 5.59,11.87 2.43,3.67 5.43,6.55 8.99,8.65 3.62,2.08 7.8,2.93 12.6,2.48 7.74,-0.74 13.33,-4.12 16.95,-10.28 3.57,-6.15 6.39,-13.73 8.42,-22.82 2.08,-9.05 4.12,-18.76 6.1,-29.1 1.97,-10.39 5.19,-20.23 9.66,-29.49 4.52,-9.27 10.97,-17.19 19.33,-23.8 8.36,-6.55 20.05,-10.55 34.96,-11.92 14.19,-1.3 26.84,0.22 37.91,4.52 11.08,4.36 20.52,10.73 28.32,19.11 7.8,8.36 13.95,18.35 18.35,30 4.47,11.58 7.35,24.01 8.54,37.24 1.52,16.61 0.4,32.26 -3.33,46.94 -3.78,14.64 -10.73,28.65 -20.97,41.93l-47.68 -36.05c7.18,-6.44 12.48,-14.29 15.87,-23.45 3.4,-9.21 4.69,-18.47 3.84,-27.85 -0.45,-4.58 -1.41,-9.16 -2.95,-13.73 -1.46,-4.64 -3.49,-8.65 -5.97,-12.2 -2.55,-3.57 -5.61,-6.28 -9.16,-8.25 -3.56,-1.99 -7.62,-2.77 -12.2,-2.39 -7.74,0.74 -13.5,4.24 -17.46,10.52 -3.89,6.33 -7,14.06 -9.32,23.22 -2.32,9.21 -4.58,19.14 -6.73,29.77 -2.21,10.62 -5.54,20.61 -9.99,30.05 -4.53,9.39 -10.8,17.41 -18.93,24.07 -8.14,6.73 -19.33,10.75 -33.51,12.04 -13.73,1.23 -25.99,-0.4 -36.84,-4.87 -10.86,-4.45 -20.18,-10.91 -27.96,-19.27 -7.8,-8.41 -14.01,-18.31 -18.6,-29.82 -4.52,-11.47 -7.4,-23.45 -8.54,-36.01 -1.35,-14.4 -0.56,-28.53 2.32,-42.43 2.82,-13.84 8.58,-26.6 17.23,-38.31l45.76 34.76z"/>
   <polygon class="fil1" points="-0,2383.6 1.14,2327.04 257.77,2332.3 256.65,2388.8 "/>
   <polygon class="fil1" points="70.79,2119.84 61.12,2192.44 11.52,2185.83 38.36,1984.56 87.91,1991.18 78.24,2063.78 283.12,2091.07 275.61,2147.13 "/>
   <path class="fil1" d="M80.71 1727.95l-12.65 46.16 -66.96 46.67 19.62 -71.31 60 -21.53zm2.1 63.73l12.36 -45.09 277.04 -39.83 -16.83 61.52 -58.32 6.95 -26.4 96.18 46.85 34.96 -16.5 60.17 -218.21 -174.86zm77.74 -1.25l68.71 51.14 16.55 -60.46 -85.26 9.32z"/>
   <path class="fil1" d="M268.88 1301.74l42.44 -73.45c10.28,-17.79 22.04,-33.57 35.32,-47.23 13.21,-13.74 27.74,-23.96 43.5,-30.75 15.76,-6.82 32.83,-9.59 51.08,-8.36 18.31,1.19 37.57,7.69 57.92,19.44 17.97,10.39 31.87,22.94 41.64,37.69 9.77,14.69 15.98,30.51 18.64,47.41 2.66,16.9 2.03,34.24 -1.86,52.09 -3.91,17.86 -10.62,35.04 -20.18,51.59l-46.27 80.02 -222.23 -128.44zm205.33 53.4l14.7 -25.48c6.55,-11.31 11.47,-22.44 14.8,-33.51 3.33,-11.08 4.34,-21.7 3.16,-31.94 -1.23,-10.17 -5.03,-19.83 -11.36,-28.93 -6.33,-9.1 -15.76,-17.28 -28.3,-24.52 -10.91,-6.26 -21.53,-9.72 -31.92,-10.28 -10.46,-0.62 -20.29,1.07 -29.5,4.92 -9.21,3.89 -17.79,9.77 -25.82,17.52 -8.02,7.8 -14.98,16.83 -20.9,27.12l-16.67 28.88 131.82 76.22z"/>
   <polygon class="fil1" points="482.21,964.14 591.82,828.48 632.39,861.32 558.37,952.96 595.6,983.01 665.55,896.46 706.12,929.29 636.17,1015.84 676.79,1048.68 754.94,951.94 795.57,984.77 681.88,1125.46 "/>
   <path class="fil1" d="M1042.54 721.64c-6.55,17.63 -15.25,33.95 -26.09,48.99 -10.86,15.02 -23.29,28.81 -37.3,41.47 -14.86,13.45 -30.67,23.5 -47.46,30.18 -16.79,6.73 -33.62,9.83 -50.68,9.37 -16.96,-0.38 -33.62,-4.52 -49.89,-12.25 -16.34,-7.74 -31.36,-19.27 -45.15,-34.53 -13.73,-15.2 -23.67,-31.36 -29.73,-48.35 -6.1,-16.96 -8.47,-33.97 -7.18,-50.92 1.3,-16.95 6.1,-33.44 14.41,-49.44 8.36,-15.98 20,-30.74 34.85,-44.17 15.26,-13.79 30.98,-24.65 47.07,-32.55 16.16,-7.91 33.11,-11.76 50.92,-11.53l-0.4 58.99c-11.13,-0.67 -21.64,0.62 -31.54,4.07 -9.95,3.44 -20.28,10.06 -31.07,19.72 -8.92,8.14 -15.71,17.01 -20.16,26.62 -4.53,9.59 -6.9,19.49 -7.18,29.66 -0.29,10.17 1.63,20.28 5.64,30.29 4.02,10.06 10.01,19.49 17.97,28.24 8.09,8.99 16.9,15.94 26.4,20.92 9.48,4.92 19.32,7.74 29.49,8.52 10.12,0.8 20.23,-0.61 30.24,-4.12 9.99,-3.51 19.49,-9.32 28.48,-17.41 9.15,-8.3 16.1,-16.43 20.9,-24.52 4.74,-8.02 8.14,-14.91 10.11,-20.61l-27.9 -30.98 -34.2 30.86 -34.96 -38.71 74.46 -67.35 89.95 99.56z"/>
   <polygon class="fil1" points="1021.39,441.43 1068.51,410.18 1181.52,580.6 1268.87,522.68 1297.75,566.18 1163.28,655.35 "/>
   <polygon class="fil1" points="1281.28,282.72 1331.58,256.84 1449.11,485.06 1398.81,510.93 "/>
   <path class="fil1" d="M1823.68 139.46c-5.99,-4.34 -13.12,-6.82 -21.41,-7.4 -8.31,-0.56 -15.89,0.06 -22.62,1.99 -3.96,1.07 -7.9,2.66 -11.85,4.8 -3.91,2.08 -7.46,4.63 -10.68,7.62 -3.17,3 -5.43,6.5 -6.9,10.39 -1.41,3.89 -1.46,8.2 -0.16,12.83 2.08,7.46 6.44,12.36 13.17,14.8 6.66,2.43 14.64,3.84 23.96,4.24 9.26,0.45 19.16,0.67 29.71,0.78 10.57,0.06 20.79,1.47 30.74,4.24 9.9,2.77 18.88,7.67 26.84,14.74 8.02,7.06 14.01,17.81 18.02,32.21 3.84,13.79 4.58,26.44 2.32,38.15 -2.26,11.69 -6.84,22.09 -13.68,31.3 -6.89,9.15 -15.58,17.01 -26.22,23.45 -10.62,6.44 -22.37,11.47 -35.14,15.02 -16.1,4.47 -31.7,6.17 -46.78,5.09 -15.09,-1.07 -30.11,-5.37 -45.02,-13.05l26.94 -53.4c7.64,5.88 16.27,9.72 25.95,11.42 9.59,1.7 18.98,1.3 28.08,-1.25 4.4,-1.19 8.76,-3 12.99,-5.3 4.24,-2.27 7.91,-4.98 10.91,-8.09 3.06,-3.11 5.21,-6.61 6.5,-10.46 1.3,-3.89 1.35,-8.02 0.11,-12.48 -2.03,-7.46 -6.55,-12.54 -13.45,-15.26 -6.89,-2.71 -15.09,-4.4 -24.52,-5.03 -9.5,-0.61 -19.67,-1.07 -30.51,-1.3 -10.84,-0.22 -21.3,-1.75 -31.3,-4.47 -10.06,-2.71 -19.11,-7.45 -27.13,-14.29 -8.07,-6.77 -13.95,-17.06 -17.79,-30.8 -3.67,-13.28 -4.29,-25.64 -1.86,-37.11 2.48,-11.48 7.11,-21.77 13.95,-30.98 6.9,-9.15 15.54,-17.06 25.99,-23.61 10.51,-6.5 21.75,-11.47 33.91,-14.86 13.95,-3.89 28.01,-5.65 42.14,-5.32 14.13,0.34 27.74,3.68 40.79,10.12l-25.98 51.24z"/>
   <polygon class="fil1" points="2057.94,79.78 1985.4,89.61 1978.67,40.01 2179.87,12.77 2186.55,62.38 2114,72.22 2141.74,276.97 2085.7,284.55 "/>
   <path class="fil1" d="M2543.35 161.21c-0.22,15.25 -2.77,29.21 -7.58,41.93 -4.8,12.77 -11.8,23.72 -21.01,33.04 -9.21,9.27 -20.63,16.45 -34.24,21.53 -13.61,5.09 -29.26,7.53 -46.9,7.24 -17.91,-0.29 -33.57,-3.22 -47.01,-8.76 -13.45,-5.54 -24.63,-13.05 -33.51,-22.65 -8.94,-9.56 -15.6,-20.81 -19.94,-33.68 -4.42,-12.88 -6.5,-26.89 -6.23,-42.16l2.55 -157.7 56.57 0.91 -2.55 155.55c-0.11,7.96 1.01,15.36 3.44,22.15 2.43,6.82 5.93,12.7 10.39,17.79 4.52,4.97 9.95,8.92 16.34,11.8 6.37,2.95 13.28,4.4 20.79,4.52 7.46,0.11 14.4,-1.12 20.74,-3.84 6.33,-2.64 11.8,-6.44 16.5,-11.29 4.63,-4.92 8.3,-10.68 10.96,-17.41 2.66,-6.73 4.02,-14.13 4.18,-22.09l2.48 -155.5 56.57 0.91 -2.55 157.7z"/>
   <path class="fil1" d="M2721 22.73l83.51 14.98c20.23,3.68 39.05,9.39 56.39,17.19 17.41,7.74 31.98,17.91 43.74,30.45 11.74,12.54 20.1,27.63 25.19,45.26 5.08,17.57 5.54,37.98 1.36,61.02 -3.68,20.45 -10.75,37.8 -21.3,51.99 -10.52,14.17 -23.29,25.42 -38.26,33.62 -14.98,8.25 -31.52,13.55 -49.67,15.98 -18.07,2.37 -36.55,1.92 -55.3,-1.47l-91.04 -16.32 45.37 -252.69zm19.56 211.27l28.88 5.19c12.88,2.32 25.02,3.11 36.61,2.5 11.52,-0.62 21.86,-3.24 31.01,-7.86 9.21,-4.58 17.01,-11.4 23.4,-20.45 6.44,-9.03 10.91,-20.74 13.44,-34.98 2.27,-12.36 1.87,-23.56 -1.12,-33.55 -3,-9.99 -7.91,-18.64 -14.69,-26.04 -6.79,-7.35 -15.2,-13.45 -25.26,-18.31 -10.06,-4.87 -20.92,-8.36 -32.55,-10.46l-32.83 -5.93 -26.89 149.9z"/>
   <polygon class="fil1" points="3102.68,107.74 3156.59,124.8 3079.05,369.52 3025.16,352.44 "/>
   <path class="fil1" d="M3511.85 272.09l73.34 42.6c17.79,10.33 33.51,22.15 47.18,35.36 13.66,13.28 23.9,27.8 30.67,43.63 6.73,15.81 9.5,32.82 8.25,51.12 -1.3,18.26 -7.8,37.53 -19.54,57.8 -10.46,17.97 -23.06,31.87 -37.81,41.59 -14.74,9.71 -30.56,15.92 -47.46,18.53 -16.9,2.66 -34.29,1.97 -52.09,-1.99 -17.86,-3.89 -35.04,-10.67 -51.54,-20.28l-79.95 -46.45 128.95 -221.94zm-53.8 205.22l25.37 14.75c11.31,6.55 22.44,11.52 33.51,14.85 11.08,3.33 21.7,4.4 31.87,3.22 10.22,-1.19 19.89,-4.97 28.99,-11.24 9.1,-6.33 17.35,-15.76 24.63,-28.3 6.26,-10.84 9.72,-21.48 10.33,-31.92 0.62,-10.39 -1.01,-20.23 -4.92,-29.44 -3.83,-9.21 -9.66,-17.86 -17.46,-25.88 -7.74,-8.02 -16.77,-14.98 -27,-20.97l-28.88 -16.72 -76.45 131.66z"/>
   <polygon class="fil1" points="3848.95,486.1 3984.38,596 3951.45,636.51 3859.97,562.27 3829.79,599.45 3916.25,669.57 3883.37,710.14 3796.91,639.97 3764.03,680.52 3860.59,758.91 3827.65,799.41 3687.18,685.44 "/>
   <polygon class="fil1" points="4109.63,714.54 4148.28,755.85 3999.01,895.58 4070.6,972.09 4032.45,1007.74 3922.22,889.92 "/>
   <polygon class="fil1" points="4314.11,949.41 4347.12,995.34 4181.05,1114.68 4242.2,1199.78 4199.82,1230.22 4105.68,1099.19 "/>
   <path class="fil1" d="M4527.31 1284.2l21.46 41.59 -176.9 216.91 -29.28 -56.68 38.2 -44.57 -45.71 -88.59 -58.14 5.93 -28.59 -55.43 278.96 -19.16zm-56.39 53.58l-85.14 8.86 28.75 55.77 56.39 -64.63z"/>
   <path class="fil1" d="M4721 1769.07l21.75 93.23c2.48,10.8 4.29,21.86 5.32,33.17 1.01,11.29 0.22,21.86 -2.32,31.63 -2.55,9.79 -7.35,18.31 -14.29,25.66 -7.02,7.35 -17.3,12.6 -30.98,15.75 -14.13,3.28 -26.78,2.1 -37.91,-3.62 -11.13,-5.7 -20.16,-14.57 -27.23,-26.6l-0.69 0.16c0.74,8.54 0.18,16.56 -1.63,24.02 -1.86,7.51 -4.85,14.29 -9.03,20.34 -4.18,6.1 -9.5,11.24 -16,15.47 -6.44,4.24 -13.66,7.29 -21.64,9.16 -13.21,3.04 -24.86,2.77 -35.03,-0.8 -10.11,-3.6 -18.93,-9.21 -26.44,-16.88 -7.51,-7.69 -13.73,-16.9 -18.71,-27.52 -4.97,-10.63 -8.7,-21.47 -11.29,-32.54l-23.85 -102.39 249.97 -58.25zm-190.53 102.51l11.53 49.43c0.96,4.18 2.43,8.42 4.4,12.56 1.92,4.12 4.52,7.67 7.69,10.67 3.16,3 6.89,5.14 11.18,6.5 4.29,1.36 9.16,1.41 14.59,0.18 5.86,-1.43 10.28,-4.02 13.28,-7.75 2.93,-3.84 4.85,-8.18 5.7,-13.1 0.85,-4.92 1.01,-10.01 0.51,-15.38 -0.51,-5.3 -1.31,-10.22 -2.32,-14.69l-9.72 -41.69 -56.84 13.28zm103.47 -24.14l9.26 39.9c1.03,4.23 2.43,8.3 4.36,12.2 1.92,3.89 4.29,7.22 7.18,10.06 2.88,2.82 6.33,4.8 10.33,5.99 4.02,1.19 8.49,1.19 13.39,0 5.21,-1.19 9.23,-3.33 12.09,-6.33 2.95,-3.06 4.92,-6.57 5.94,-10.52 1.07,-3.96 1.52,-8.3 1.3,-12.93 -0.22,-4.69 -0.85,-9.16 -1.81,-13.41l-8.76 -37.4 -53.27 12.43z"/>
   <path class="fil1" d="M4796.14 2203.68l3.4 46.67 -247.82 130.07 -4.69 -63.62 52.66 -26.06 -7.29 -99.43 -55.82 -17.35 -4.53 -62.22 264.1 91.93zm-72.89 27.13l-81.81 -25.26 4.58 62.54 77.23 -37.29z"/>
   <path class="fil1" d="M4732.53 2630.19c6.1,-4.12 10.84,-10.06 14.24,-17.62 3.33,-7.69 5.32,-14.98 5.81,-21.99 0.29,-4.07 0.11,-8.36 -0.5,-12.77 -0.62,-4.4 -1.87,-8.58 -3.62,-12.6 -1.76,-4 -4.24,-7.34 -7.4,-9.99 -3.22,-2.66 -7.24,-4.18 -12.04,-4.52 -7.74,-0.62 -13.84,1.86 -18.35,7.34 -4.53,5.48 -8.6,12.49 -12.16,21.08 -3.51,8.58 -7.11,17.79 -10.8,27.74 -3.6,9.9 -8.41,19.04 -14.4,27.47 -5.94,8.36 -13.61,15.14 -22.94,20.28 -9.39,5.09 -21.54,7.13 -36.45,5.99 -14.24,-1.07 -26.44,-4.63 -36.66,-10.73 -10.23,-6.1 -18.48,-13.9 -24.76,-23.51 -6.33,-9.55 -10.73,-20.39 -13.21,-32.59 -2.48,-12.2 -3.22,-24.92 -2.26,-38.14 1.23,-16.67 4.97,-31.87 11.07,-45.71 6.1,-13.85 15.31,-26.51 27.58,-37.98l41.07 43.45c-8.14,5.19 -14.62,12.03 -19.49,20.5 -4.92,8.49 -7.67,17.46 -8.36,26.84 -0.38,4.58 -0.16,9.27 0.58,14.08 0.72,4.74 2.03,9.08 3.96,12.99 1.86,3.89 4.4,7.11 7.62,9.66 3.16,2.55 7.06,4.02 11.63,4.36 7.75,0.56 14.01,-1.92 18.93,-7.51 4.92,-5.61 9.27,-12.72 13.05,-21.41 3.8,-8.65 7.69,-18.08 11.58,-28.2 3.91,-10.11 8.83,-19.43 14.82,-27.96 5.99,-8.54 13.5,-15.42 22.65,-20.68 9.1,-5.25 20.74,-7.35 34.98,-6.28 13.73,1.03 25.59,4.63 35.54,10.8 9.99,6.21 18.13,14.13 24.41,23.67 6.33,9.55 10.8,20.4 13.39,32.43 2.66,12.09 3.44,24.41 2.55,36.9 -1.07,14.46 -4.18,28.3 -9.27,41.53 -5.14,13.17 -12.94,24.79 -23.34,34.96l-39.43 -41.87z"/>
   <polygon class="fil1" points="4767.48,2827.03 4756.92,2882.56 4504.74,2834.7 4515.31,2779.17 "/>
   <polygon class="fil1" points="4719.03,3045.03 4702.42,3099.1 4506.97,3038.97 4476.17,3139.16 4426.23,3123.84 4473.69,2969.59 "/>
   <polygon class="fil1" points="4618.6,3332.6 4596.12,3384.53 4360.61,3282.44 4383.1,3230.56 "/>
   <path class="fil1" d="M4381.59 3646.32c8.63,-1.35 16.61,-4.63 23.83,-9.77 7.18,-5.14 13.5,-12.25 18.93,-21.41 5.37,-9.21 8.58,-18.76 9.66,-28.64 1.03,-9.9 0.06,-19.56 -2.93,-29.05 -3,-9.43 -7.91,-18.35 -14.75,-26.72 -6.84,-8.42 -15.36,-15.6 -25.59,-21.59 -10.39,-6.1 -20.9,-10.11 -31.41,-11.98 -10.57,-1.86 -20.69,-1.81 -30.35,0.06 -9.66,1.92 -18.47,5.59 -26.49,11.13 -8.02,5.48 -14.59,12.65 -19.73,21.41 -5.86,9.99 -9.03,20.05 -9.37,30.22 -0.4,10.17 1.7,19.94 6.26,29.33l-54.18 22.82c-7.62,-17.12 -10.33,-34.69 -8.14,-52.71 2.21,-18.03 7.8,-34.69 16.74,-49.89 10.17,-17.3 22.25,-31.65 36.26,-43.05 13.97,-11.42 29.17,-19.44 45.49,-24.14 16.38,-4.69 33.46,-5.77 51.36,-3.22 17.86,2.48 35.65,8.99 53.33,19.38 17.75,10.39 32.03,22.82 42.89,37.17 10.91,14.41 18.24,29.9 22.15,46.45 3.84,16.61 4.18,33.73 1.01,51.54 -3.16,17.79 -9.83,35.3 -20,52.6 -3.67,6.21 -8.07,12.43 -13.17,18.53 -5.14,6.1 -10.91,11.69 -17.23,16.79 -6.37,5.08 -13.39,9.43 -21.13,12.99 -7.74,3.62 -15.98,5.99 -24.86,7.29l-8.58 -55.55z"/>
   <path class="fil1" d="M4271.13 3913.63l-29.77 36.05 -269.06 -77.25 40.62 -49.2 56.06 17.51 63.46 -76.85 -28.32 -51.12 39.67 -48.08 127.35 248.94zm-71.47 -30.74l-41.64 -74.86 -39.95 48.35 81.59 26.51z"/>
   <polygon class="fil1" points="4021.35,4110.43 4075.08,4060.65 4109.1,4097.37 3960.1,4235.29 3926.15,4198.63 3979.88,4148.85 3839.42,3997.25 3880.95,3958.77 "/>
   <path class="fil1" d="M3803.22 4355.53l-38.25 26.89 -239.01 -145.65 52.17 -36.73 49.38 31.74 81.52 -57.34 -13.77 -56.79 51.01 -35.88 56.95 273.75zm-60.73 -48.59l-20.4 -83.17 -51.3 36.12 71.71 47.06z"/>
   <path class="fil1" d="M2135.49 1943.63l0 725.76c0,221.16 -179.24,400.44 -400.44,400.44 -33.89,0 -66.79,-4.24 -98.26,-12.2 -173.57,-43.79 -302.12,-200.99 -302.12,-388.24l0 -1067.72 0.06 0 800.76 341.95z"/>
   <path class="fil1" d="M1868.56 1468.16c0,73.74 -59.77,133.47 -133.51,133.47 -73.68,0 -133.4,-59.73 -133.4,-133.47 0,-73.68 59.73,-133.45 133.4,-133.45 73.74,0 133.51,59.77 133.51,133.45z"/>
   <path class="fil1" d="M3470.22 2802.89c0,470.66 -348.07,860.07 -800.82,924.71 -43.61,6.28 -88.14,9.55 -133.51,9.55l-133.4 -56.95 -266.98 -114.07 -274.49 -117.19 -378.1 -161.48c77.79,31.74 163,49.27 252.23,49.27 11.18,0 22.37,-0.29 33.38,-0.78 137.31,-6.79 263.76,-55.03 366.99,-132.57 159.97,-120.12 264.21,-310.48 266.98,-525.36 0,-2.88 0,-5.77 0,-8.65 0,-2.82 0,-5.7 0,-8.58l0 -1593.02 266.91 0c294.83,0 533.84,239.06 533.84,533.89 0,160.47 -70.74,304.38 -182.84,402.23 155.6,94.53 281.33,233.18 359.86,398.57 57.69,121.37 89.96,257.1 89.96,400.44z"/>
   <polygon class="fil1" points="1955.1,4561.19 1895.55,4595.21 1872.48,4554.18 1968.78,4501.81 2018.49,4512.04 1966.79,4763.47 1915.65,4752.96 "/>
   <path class="fil1" d="M2250.73 4708.98c-2.95,0.58 -5.88,0.96 -8.83,1.25 -2.93,0.29 -5.93,0.34 -9.1,0.11 -12.03,-0.78 -22.89,-3.73 -32.48,-8.7 -9.61,-5.03 -17.63,-11.47 -24.14,-19.44 -6.49,-7.91 -11.36,-17.12 -14.51,-27.63 -3.17,-10.51 -4.36,-21.57 -3.62,-33.17 0.9,-13.21 4.18,-25.08 9.83,-35.48 5.65,-10.39 13.05,-19.16 22.09,-26.33 9.1,-7.11 19.56,-12.43 31.42,-15.87 11.85,-3.44 24.52,-4.76 38.02,-3.84 13.28,0.9 25.59,3.84 37.06,8.81 11.42,5.03 21.13,11.64 29.15,19.94 8.09,8.31 14.19,17.97 18.42,29.05 4.24,11.07 5.94,23.22 5.03,36.5 -0.61,9.15 -2.03,17.46 -4.18,24.91 -2.19,7.53 -4.92,14.59 -8.14,21.14 -3.22,6.55 -6.95,12.77 -11.07,18.71 -4.18,5.86 -8.47,11.92 -13.01,18.18l-61.92 83.8 -66.23 -4.4 66.18 -87.53zm-38.54 -81.75c-0.74,11.58 2.42,21.41 9.48,29.49 7.13,8.14 16.79,12.6 29.1,13.39 12.32,0.85 22.49,-2.31 30.58,-9.37 8.14,-7.13 12.54,-16.45 13.33,-28.03 0.8,-11.58 -2.37,-21.41 -9.5,-29.55 -7.06,-8.09 -16.77,-12.54 -29.09,-13.34 -12.27,-0.85 -22.49,2.32 -30.58,9.39 -8.07,7.11 -12.54,16.45 -13.33,28.03z"/>
   <path class="fil1" d="M2468.33 4616.08c-0.8,-11.8 0.74,-22.26 4.63,-31.36 3.89,-9.1 9.55,-16.9 16.95,-23.34 7.46,-6.37 16.27,-11.4 26.44,-14.98 10.17,-3.6 21.19,-5.77 33.01,-6.55 11.8,-0.78 22.98,-0.11 33.55,2.1 10.57,2.19 19.89,5.99 28.03,11.4 8.14,5.37 14.75,12.32 19.94,20.85 5.14,8.47 8.14,18.64 8.92,30.45 0.91,14.01 -2.08,26.17 -9.03,36.57 -6.89,10.39 -17.12,18.13 -30.62,23.11l0.06 0.74c15.7,3.11 28.01,9.71 36.95,19.88 8.92,10.17 13.9,23.22 14.98,39.16 0.78,12.32 -0.96,23.34 -5.27,33.06 -4.34,9.72 -10.44,17.97 -18.35,24.63 -7.91,6.73 -17.19,12.03 -27.8,15.87 -10.67,3.84 -21.86,6.17 -33.73,6.95 -11.8,0.8 -23.22,0 -34.29,-2.42 -11.08,-2.43 -20.97,-6.45 -29.66,-11.98 -8.76,-5.65 -15.89,-12.94 -21.48,-22.04 -5.59,-9.1 -8.76,-19.78 -9.61,-32.03 -1.01,-15.94 2.16,-29.55 9.67,-40.86 7.45,-11.24 18.8,-19.44 33.95,-24.59l-0.06 -0.72c-14.01,-3.17 -25.13,-9.45 -33.39,-18.82 -8.25,-9.39 -12.88,-21.08 -13.77,-35.09zm54.74 4.02c0.56,7.9 3.91,14.51 10.06,19.65 6.17,5.14 13.95,7.46 23.34,6.79 9.43,-0.62 16.83,-3.91 22.26,-9.83 5.37,-5.94 7.85,-12.89 7.29,-20.85 -0.51,-7.69 -3.84,-14.13 -9.99,-19.27 -6.17,-5.21 -13.9,-7.46 -23.34,-6.84 -9.39,0.62 -16.85,3.91 -22.26,9.83 -5.37,5.93 -7.86,12.77 -7.35,20.52zm2.66 104.81c0.56,8.92 4.36,16.32 11.24,22.13 6.95,5.83 15.82,8.42 26.73,7.69 10.84,-0.74 19.32,-4.45 25.37,-11.13 6.1,-6.73 8.86,-14.51 8.25,-23.45 -0.58,-9.21 -4.36,-16.66 -11.31,-22.54 -6.89,-5.83 -15.82,-8.36 -26.67,-7.64 -10.84,0.74 -19.33,4.42 -25.43,11.13 -6.04,6.73 -8.81,14.64 -8.18,23.8z"/>
   <path class="fil1" d="M2790.28 4715.13l79.62 -107.81c4.07,-5.54 7.96,-11.64 11.74,-18.37 3.84,-6.66 4.92,-13.84 3.4,-21.41 -1.75,-8.52 -6.21,-14.57 -13.39,-18.13 -7.13,-3.62 -14.86,-4.52 -23.16,-2.82 -9.95,2.03 -17.07,6.71 -21.37,14 -4.29,7.3 -5.88,15.55 -4.69,24.65l-54.07 7.06c-1.97,-13.17 -1.59,-25.03 1.19,-35.6 2.77,-10.51 7.4,-19.83 13.9,-27.8 6.5,-8.02 14.64,-14.69 24.52,-20.05 9.9,-5.37 20.97,-9.32 33.28,-11.87 11.36,-2.31 22.37,-2.93 32.95,-1.75 10.62,1.12 20.23,4.07 28.86,8.87 8.65,4.74 16,11.47 22.1,20.05 6.1,8.58 10.39,19.2 12.99,31.76 1.63,8.02 2.32,15.47 2.03,22.31 -0.34,6.84 -1.41,13.28 -3.27,19.22 -1.87,5.93 -4.36,11.58 -7.46,16.88 -3.11,5.32 -6.61,10.57 -10.46,15.82l-62.83 81.43 111.54 -22.95 9.61 46.85 -175.38 36.1 -11.64 -56.44z"/>
   <path class="fil1" d="M3238.27 4507.15c0,18.47 14.98,33.38 33.39,33.38 18.47,0 33.44,-14.91 33.44,-33.38 0,-18.48 -14.98,-33.39 -33.44,-33.39 -18.42,0 -33.39,14.91 -33.39,33.39z"/>
   <path class="fil1" d="M1503.16 4507.06c0,18.42 14.98,33.39 33.39,33.39 18.47,0 33.44,-14.98 33.44,-33.39 0,-18.47 -14.98,-33.39 -33.44,-33.39 -18.42,0 -33.39,14.93 -33.39,33.39z"/>
   <polygon class="fil1" points="5585.21,4804.95 5626.17,4804.95 5626.17,0.03 5585.21,0.03 "/>
   <polygon class="fil1" points="6406.58,3737.16 11211.5,3737.16 11211.5,3470.25 6406.58,3470.25 "/>
   <polygon class="fil1" points="9209.44,3336.78 11211.5,3336.78 11211.5,3069.87 9209.44,3069.87 "/>
   <polygon class="fil1" points="10277.23,2936.36 11211.5,2936.36 11211.5,2669.44 10277.23,2669.44 "/>
   <polygon class="fil1" points="10143.72,2535.93 11211.5,2535.93 11211.5,2269 10143.72,2269 "/>
   <polygon class="fil1" points="7909.88,2535.93 9209.44,2535.93 9209.44,2269 7909.88,2269 "/>
   <polygon class="fil0" points="6407.26,2535.93 7680.82,2535.93 7680.82,2269 6407.26,2269 "/>
   <polygon class="fil1" points="6406.52,3330.3 6462.51,3330.3 6462.51,3076.31 6406.52,3076.31 "/>
   <polygon class="fil1" points="6549.35,3076.29 6625.4,3076.29 6733.38,3252.81 6734.06,3252.81 6734.06,3076.29 6790.05,3076.29 6790.05,3330.27 6716.87,3330.27 6606.02,3149.46 6605.35,3149.46 6605.35,3330.27 6549.35,3330.27 "/>
   <path class="fil1" d="M7107.54 3312.36c-16.5,8.58 -33.73,14.8 -51.7,18.64 -17.91,3.78 -36.17,5.7 -54.86,5.7 -19.83,0 -38.14,-3.04 -54.87,-9.32 -16.72,-6.21 -31.25,-15.09 -43.39,-26.67 -12.2,-11.64 -21.75,-25.64 -28.54,-42.16 -6.82,-16.5 -10.22,-34.92 -10.22,-55.26 0,-20.34 3.4,-38.76 10.22,-55.26 6.79,-16.5 16.34,-30.56 28.54,-42.16 12.14,-11.58 26.67,-20.5 43.39,-26.72 16.74,-6.21 35.04,-9.32 54.87,-9.32 20.34,0 39.03,2.42 56.15,7.34 17.07,4.92 32.1,13.34 44.99,25.26l-39.45 43.12c-7.69,-7.91 -16.27,-13.9 -25.82,-17.97 -9.55,-4.07 -21.53,-6.1 -35.88,-6.1 -11.93,0 -22.78,2.03 -32.43,6.1 -9.72,4.07 -18.03,9.77 -24.97,17.01 -6.9,7.34 -12.27,15.98 -15.94,26.04 -3.73,10.06 -5.61,20.97 -5.61,32.66 0,11.93 1.87,22.89 5.61,32.83 3.67,9.88 9.03,18.53 15.94,25.82 6.94,7.29 15.25,12.94 24.97,17.06 9.66,4.02 20.5,6.05 32.43,6.05 12.2,0 22.71,-1.36 31.58,-4.13 8.81,-2.71 15.87,-5.53 21.19,-8.41l0 -41.26 -45.6 0 0 -51.64 99.38 0 0 132.73z"/>
   <polygon class="fil1" points="7194.71,3076.29 7367.27,3076.29 7367.27,3127.99 7250.7,3127.99 7250.7,3175.27 7360.83,3175.27 7360.83,3226.97 7250.7,3226.97 7250.7,3278.63 7373.71,3278.63 7373.71,3330.27 7194.71,3330.27 "/>
   <path class="fil1" d="M7684.36 3312.36c-16.5,8.58 -33.73,14.8 -51.65,18.64 -17.95,3.78 -36.21,5.7 -54.92,5.7 -19.83,0 -38.14,-3.04 -54.86,-9.32 -16.72,-6.21 -31.18,-15.09 -43.39,-26.67 -12.2,-11.64 -21.7,-25.64 -28.54,-42.16 -6.77,-16.5 -10.22,-34.92 -10.22,-55.26 0,-20.34 3.44,-38.76 10.22,-55.26 6.84,-16.5 16.33,-30.56 28.54,-42.16 12.2,-11.58 26.67,-20.5 43.39,-26.72 16.72,-6.21 35.03,-9.32 54.86,-9.32 20.34,0 39.05,2.42 56.17,7.34 17.06,4.92 32.1,13.34 45.04,25.26l-39.5 43.12c-7.62,-7.91 -16.22,-13.9 -25.82,-17.97 -9.56,-4.07 -21.48,-6.1 -35.89,-6.1 -11.92,0 -22.76,2.03 -32.42,6.1 -9.72,4.07 -17.97,9.77 -24.92,17.01 -6.95,7.34 -12.27,15.98 -16,26.04 -3.72,10.06 -5.53,20.97 -5.53,32.66 0,11.93 1.81,22.89 5.53,32.83 3.73,9.88 9.05,18.53 16,25.82 6.95,7.29 15.2,12.94 24.92,17.06 9.66,4.02 20.5,6.05 32.42,6.05 12.27,0 22.78,-1.36 31.65,-4.13 8.81,-2.71 15.87,-5.53 21.13,-8.41l0 -41.26 -45.6 0 0 -51.64 99.4 0 0 132.73z"/>
   <polygon class="fil1" points="7769.4,3076.29 7845.45,3076.29 7953.42,3252.81 7954.15,3252.81 7954.15,3076.29 8010.1,3076.29 8010.1,3330.27 7936.92,3330.27 7826.07,3149.46 7825.4,3149.46 7825.4,3330.27 7769.4,3330.27 "/>
   <polygon class="fil1" points="8099.79,3076.29 8272.35,3076.29 8272.35,3127.99 8155.78,3127.99 8155.78,3175.27 8265.85,3175.27 8265.85,3226.97 8155.78,3226.97 8155.78,3278.63 8278.79,3278.63 8278.79,3330.27 8099.79,3330.27 "/>
   <path class="fil1" d="M8359.51 3076.29l98.31 0c12.94,0 25.15,1.3 36.79,3.78 11.58,2.48 21.75,6.73 30.45,12.54 8.76,5.88 15.65,13.79 20.85,23.67 5.08,9.95 7.69,22.33 7.69,37.13 0,17.97 -4.69,33.23 -14.01,45.78 -9.32,12.54 -22.95,20.5 -40.86,23.83l64.53 107.25 -67.08 0 -53.05 -101.53 -27.63 0 0 101.53 -55.99 0 0 -253.97zm55.99 105.15l32.99 0c5.03,0 10.33,-0.22 15.94,-0.56 5.59,-0.4 10.67,-1.47 15.25,-3.22 4.52,-1.81 8.31,-4.58 11.31,-8.42 3,-3.84 4.45,-9.21 4.45,-16.16 0,-6.5 -1.3,-11.58 -3.94,-15.42 -2.61,-3.84 -5.94,-6.73 -10.01,-8.81 -4.07,-2.03 -8.76,-3.4 -14.01,-4.13 -5.25,-0.67 -10.39,-1.07 -15.42,-1.07l-36.55 0 0 57.8z"/>
   <polygon class="fil1" points="8627.13,3330.3 8683.13,3330.3 8683.13,3076.31 8627.13,3076.31 "/>
   <path class="fil1" d="M8853.49 3076.29l46.27 0 110.47 253.97 -63.12 0 -21.86 -53.78 -98.66 0 -21.19 53.78 -61.7 0 109.79 -253.97zm21.53 73.9l-30.86 78.93 62.05 0 -31.18 -78.93z"/>
   <path class="fil0" d="M6406.57 2675.88l83.96 0c20.29,0 39.61,2.31 57.92,6.84 18.31,4.52 34.24,11.92 47.92,22.09 13.61,10.17 24.41,23.4 32.43,39.61 8.02,16.27 12.03,35.99 12.03,59.16 0,20.61 -3.89,38.7 -11.63,54.41 -7.8,15.65 -18.26,28.77 -31.42,39.43 -13.17,10.62 -28.3,18.71 -45.53,24.18 -17.23,5.54 -35.32,8.25 -54.18,8.25l-91.49 0 0 -253.97zm55.99 202.34l28.99 0c12.94,0 24.97,-1.3 36.1,-3.96 11.13,-2.59 20.74,-7.02 28.88,-13.12 8.14,-6.04 14.53,-14.06 19.2,-24.01 4.64,-9.95 6.95,-22.04 6.95,-36.44 0,-12.38 -2.31,-23.22 -6.95,-32.43 -4.68,-9.21 -10.96,-16.79 -18.87,-22.78 -7.91,-5.99 -17.17,-10.46 -27.8,-13.45 -10.62,-3 -21.8,-4.45 -33.51,-4.45l-32.99 0 0 150.63z"/>
   <polygon class="fil0" points="6714.02,2929.85 6769.95,2929.85 6769.95,2675.88 6714.02,2675.88 "/>
   <path class="fil0" d="M6856.74 2675.88l94.37 0c13.17,0 25.59,1.19 37.35,3.62 11.63,2.37 21.91,6.49 30.62,12.36 8.76,5.83 15.65,13.79 20.79,23.67 5.21,9.9 7.74,22.37 7.74,37.46 0,14.86 -2.42,27.29 -7.18,37.35 -4.8,10.01 -11.36,18.02 -19.72,24.01 -8.36,5.99 -18.31,10.23 -29.77,12.78 -11.47,2.48 -23.96,3.73 -37.29,3.73l-40.92 0 0 98.98 -55.99 0 0 -253.97zm55.99 107.63l37.3 0c5.03,0 9.83,-0.5 14.51,-1.46 4.64,-0.91 8.87,-2.55 12.56,-4.8 3.72,-2.26 6.71,-5.43 8.99,-9.32 2.26,-3.96 3.44,-8.94 3.44,-14.93 0,-6.44 -1.54,-11.63 -4.53,-15.58 -2.98,-3.96 -6.82,-7.02 -11.47,-9.16 -4.68,-2.15 -9.88,-3.51 -15.58,-4.12 -5.77,-0.58 -11.24,-0.91 -16.5,-0.91l-28.72 0 0 60.29z"/>
   <path class="fil0" d="M7175.69 2675.88l46.21 0 110.53 253.97 -63.12 0 -21.86 -53.78 -98.66 0 -21.17 53.78 -61.71 0 109.79 -253.97zm21.53 73.9l-30.85 78.93 62.03 0 -31.18 -78.93z"/>
   <path class="fil0" d="M7393.77 2675.88l98.3 0c12.89,0 25.15,1.3 36.79,3.78 11.58,2.48 21.75,6.73 30.45,12.54 8.76,5.88 15.71,13.79 20.85,23.69 5.08,9.93 7.69,22.31 7.69,37.11 0,17.97 -4.69,33.23 -14.01,45.78 -9.32,12.54 -22.94,20.5 -40.86,23.83l64.59 107.25 -67.12 0 -53.06 -101.53 -27.62 0 0 101.53 -55.99 0 0 -253.97zm55.99 105.15l32.94 0c5.08,0 10.39,-0.22 15.98,-0.56 5.59,-0.4 10.68,-1.47 15.25,-3.22 4.53,-1.81 8.31,-4.58 11.31,-8.42 3,-3.84 4.47,-9.21 4.47,-16.16 0,-6.5 -1.3,-11.58 -3.91,-15.42 -2.66,-3.84 -5.99,-6.73 -10.06,-8.81 -4.07,-2.03 -8.7,-3.4 -14.01,-4.13 -5.25,-0.67 -10.39,-1.07 -15.42,-1.07l-36.54 0 0 57.8z"/>
   <polygon class="fil0" points="7704.82,2725.4 7632.32,2725.4 7632.32,2675.9 7833.24,2675.9 7833.24,2725.4 7760.82,2725.4 7760.82,2929.89 7704.82,2929.89 "/>
   <polygon class="fil0" points="7896.72,2929.85 7952.71,2929.85 7952.71,2675.88 7896.72,2675.88 "/>
   <polygon class="fil0" points="8039.52,2675.88 8124.23,2675.88 8182.64,2841.65 8183.38,2841.65 8242.26,2675.88 8326.5,2675.88 8326.5,2929.85 8270.57,2929.85 8270.57,2735.09 8269.84,2735.09 8203.1,2929.85 8160.45,2929.85 8096.2,2735.09 8095.51,2735.09 8095.51,2929.85 8039.52,2929.85 "/>
   <polygon class="fil0" points="8416.2,2675.88 8588.76,2675.88 8588.76,2727.58 8472.19,2727.58 8472.19,2774.88 8582.25,2774.88 8582.25,2826.56 8472.19,2826.56 8472.19,2878.22 8595.2,2878.22 8595.2,2929.85 8416.2,2929.85 "/>
   <polygon class="fil0" points="8675.92,2675.88 8751.98,2675.88 8859.95,2852.4 8860.68,2852.4 8860.68,2675.88 8916.63,2675.88 8916.63,2929.85 8843.45,2929.85 8732.6,2749.04 8731.91,2749.04 8731.91,2929.85 8675.92,2929.85 "/>
   <polygon class="fil0" points="9053.31,2725.4 8980.82,2725.4 8980.82,2675.9 9181.69,2675.9 9181.69,2725.4 9109.24,2725.4 9109.24,2929.89 9053.31,2929.89 "/>
   <path class="fil0" d="M9232.31 2802.89c0,-20.29 3.4,-38.76 10.23,-55.27 6.77,-16.5 16.32,-30.56 28.48,-42.09 12.2,-11.64 26.67,-20.57 43.39,-26.78 16.79,-6.21 35.03,-9.32 54.92,-9.32 19.83,0 38.14,3.11 54.87,9.32 16.77,6.21 31.23,15.14 43.39,26.78 12.25,11.53 21.7,25.59 28.59,42.09 6.77,16.51 10.17,34.98 10.17,55.27 0,20.34 -3.4,38.76 -10.17,55.26 -6.89,16.5 -16.34,30.51 -28.59,42.14 -12.16,11.6 -26.62,20.52 -43.39,26.73 -16.74,6.21 -35.04,9.32 -54.87,9.32 -19.89,0 -38.14,-3.11 -54.92,-9.32 -16.72,-6.21 -31.18,-15.14 -43.39,-26.73 -12.16,-11.63 -21.7,-25.64 -28.48,-42.14 -6.84,-16.5 -10.23,-34.92 -10.23,-55.26zm58.09 0c0,11.96 1.86,22.87 5.59,32.82 3.73,9.95 8.99,18.53 15.94,25.82 6.95,7.29 15.25,13.01 24.92,17.07 9.71,4 20.57,6.1 32.48,6.1 11.98,0 22.78,-2.1 32.5,-6.1 9.66,-4.07 17.95,-9.79 24.91,-17.07 6.95,-7.29 12.27,-15.87 16,-25.82 3.67,-9.95 5.53,-20.85 5.53,-32.82 0,-11.71 -1.86,-22.62 -5.53,-32.66 -3.73,-10.01 -9.05,-18.71 -16,-25.99 -6.95,-7.29 -15.25,-13.01 -24.91,-17.01 -9.72,-4.13 -20.52,-6.17 -32.5,-6.17 -11.92,0 -22.78,2.03 -32.48,6.17 -9.67,4 -17.97,9.72 -24.92,17.01 -6.95,7.29 -12.2,15.98 -15.94,25.99 -3.73,10.04 -5.59,20.95 -5.59,32.66z"/>
   <path class="fil0" d="M9722.34 2675.88l83.96 0c20.29,0 39.61,2.31 57.92,6.84 18.31,4.52 34.24,11.92 47.92,22.09 13.61,10.17 24.46,23.4 32.43,39.61 8.02,16.27 12.03,35.99 12.03,59.16 0,20.61 -3.89,38.7 -11.64,54.41 -7.78,15.65 -18.24,28.77 -31.41,39.43 -13.17,10.62 -28.32,18.71 -45.53,24.18 -17.23,5.54 -35.27,8.25 -54.2,8.25l-91.47 0 0 -253.97zm55.99 202.34l29.04 0c12.89,0 24.92,-1.3 36.05,-3.96 11.13,-2.59 20.74,-7.02 28.88,-13.12 8.14,-6.04 14.51,-14.06 19.2,-24.01 4.63,-9.95 6.95,-22.04 6.95,-36.44 0,-12.38 -2.32,-23.22 -6.95,-32.43 -4.69,-9.21 -10.96,-16.79 -18.87,-22.78 -7.91,-5.99 -17.12,-10.46 -27.8,-13.45 -10.62,-3 -21.81,-4.45 -33.51,-4.45l-32.99 0 0 150.63z"/>
   <polygon class="fil0" points="10029.74,2929.85 10085.74,2929.85 10085.74,2675.88 10029.74,2675.88 "/>
  </g>
 </g>
</svg>
