<?xml version="1.0" encoding="UTF-8"?>
<!DOCTYPE svg PUBLIC "-//W3C//DTD SVG 1.1//EN" "http://www.w3.org/Graphics/SVG/1.1/DTD/svg11.dtd">
<!-- Creator: CorelDRAW (Evaluation Version) -->
<svg xmlns="http://www.w3.org/2000/svg" xml:space="preserve" width="207.79mm" height="90.0518mm" version="1.1" style="shape-rendering:geometricPrecision; text-rendering:geometricPrecision; image-rendering:optimizeQuality; fill-rule:evenodd; clip-rule:evenodd"
viewBox="0 0 19928.21 8636.45"
 xmlns:xlink="http://www.w3.org/1999/xlink"
 xmlns:xodm="http://www.corel.com/coreldraw/odm/2003">
 <defs>
  <style type="text/css">
   <![CDATA[
    .fil1 {fill:#818382;fill-rule:nonzero}
    .fil0 {fill:#158591;fill-rule:nonzero}
   ]]>
  </style>
 </defs>
 <g id="Layer_x0020_1">
  <metadata id="CorelCorpID_0Corel-Layer"/>
  <g id="_1913962494144">
   <path class="fil0" d="M1824.15 7508.97c15.62,-22.41 33.29,-40.6 53.08,-54.69 19.79,-14.13 41,-23.36 63.84,-27.82 22.82,-4.46 46.78,-3.65 71.96,2.53 25.06,6.21 50.44,18.47 76.13,36.66 25.98,18.59 46.06,38.67 60.28,60.48 14.33,21.84 23.13,44.37 26.7,67.61 3.54,23.25 2.01,46.58 -4.37,70.23 -6.39,23.56 -17.46,46.49 -32.97,68.94l-161.38 231.81 -82.23 -58.46 159.16 -228.68c8.11,-11.77 13.78,-23.85 17.03,-36.45 3.25,-12.57 4.06,-24.86 2.45,-36.94 -1.52,-11.97 -5.58,-23.33 -12.08,-34.09 -6.5,-10.65 -15.13,-19.88 -26.1,-27.71 -10.85,-7.71 -22.21,-12.8 -34.18,-15.22 -12,-2.45 -23.85,-2.33 -35.65,0.2 -11.77,2.53 -22.93,7.39 -33.58,14.7 -10.56,7.31 -20,16.86 -28.14,28.63l-159.14 228.59 -82.23 -58.46 161.41 -231.84z"/>
   <polygon class="fil0" points="1419.94,7537.54 1323,7440.21 1408.86,7074.49 1407.94,7073.57 1184.44,7300.93 1113.09,7229.37 1434.64,6902.04 1527.92,6995.72 1440.33,7370.67 1441.23,7371.59 1670.13,7138.54 1741.49,7210.21 "/>
   <polygon class="fil0" points="922.76,6994.31 861.36,6913.81 1222.82,6632.16 1284.11,6712.75 "/>
   <polygon class="fil0" points="711.12,6708.78 652.86,6608.91 853.02,6356.99 852.42,6355.87 536.53,6409.67 481.84,6315.87 970.44,6245.33 1011.35,6315.47 "/>
   <polygon class="fil0" points="368.54,6070.45 253.22,5779.46 339.3,5744.64 417.25,5941.12 496.22,5909.16 422.63,5723.52 508.71,5688.51 582.39,5874.26 668.45,5839.33 586.25,5631.86 672.42,5596.96 792,5898.8 "/>
   <path class="fil0" d="M160 5483.86l-40.91 -173.67c-5.29,-22.84 -8.23,-45.09 -8.63,-66.6 -0.52,-21.61 2.65,-41.29 9.24,-59.15 6.59,-17.87 17.55,-33.49 32.77,-46.7 15.13,-13.29 35.73,-23.05 61.63,-29.23 31.36,-7.62 59.99,-5.78 85.77,5.5 25.78,11.16 45.37,31.85 58.67,62.2l160.66 -159.25 27.82 118.54 -155.31 136.63 11.48 48.83 177.43 -42.75 23.25 98.89 -443.86 106.77zm160.46 -143.11l-13.81 -58.26c-2.01,-8.95 -4.57,-18.27 -7.51,-28.01 -2.93,-9.75 -6.99,-18.27 -11.97,-25.58 -5.09,-7.22 -11.48,-12.8 -19.48,-16.46 -7.94,-3.65 -17.98,-4.06 -30.07,-1.09 -11.25,2.73 -19.68,7.19 -25.26,13.49 -5.58,6.19 -9.35,13.41 -11.28,21.41 -1.81,8.03 -2.22,16.85 -1.32,26.37 0.92,9.67 2.45,18.9 4.49,27.74l15.22 64.74 100.99 -24.34z"/>
   <path class="fil0" d="M127.72 4621.61c-9.55,9.12 -16.14,21 -19.79,35.42 -3.65,14.5 -4.89,27.99 -3.77,40.48 0.72,7.31 2.24,14.82 4.69,22.44 2.33,7.62 5.67,14.7 9.93,21.32 4.26,6.59 9.64,11.65 16.05,15.54 6.39,3.74 13.78,5.15 22.33,4.34 13.7,-1.21 23.74,-7.39 30.04,-18.36 6.39,-11.08 11.36,-24.69 15.13,-40.91 3.65,-16.23 7.31,-33.69 10.76,-52.28 3.45,-18.56 9.24,-36.22 17.23,-52.88 7.91,-16.54 19.39,-30.76 34.32,-42.61 14.82,-11.8 35.62,-18.99 62.12,-21.43 25.26,-2.33 47.7,0.4 67.38,8.23 19.71,7.71 36.45,19.19 50.35,34.21 13.9,15.02 24.77,32.97 32.68,53.69 7.91,20.8 12.98,43.13 15.11,66.89 2.65,29.72 0.72,57.86 -5.98,84.13 -6.68,26.3 -19.08,51.36 -37.14,75.21l-84.85 -64.65c12.77,-11.57 22.13,-25.58 28.22,-42.01 6.07,-16.54 8.31,-33.2 6.79,-50.03 -0.72,-8.14 -2.45,-16.34 -5.18,-24.57 -2.65,-8.23 -6.19,-15.54 -10.65,-21.92 -4.49,-6.3 -9.84,-11.28 -16.26,-14.82 -6.39,-3.57 -13.58,-4.89 -21.72,-4.17 -13.7,1.21 -24.05,7.51 -30.96,18.79 -6.99,11.36 -12.49,25.26 -16.63,41.72 -4.06,16.54 -8.11,34.3 -11.97,53.28 -3.88,19.19 -9.87,37.14 -17.78,54 -8.03,16.75 -19.19,31.16 -33.61,43.13 -14.5,12.08 -34.3,19.19 -59.56,21.52 -24.37,2.22 -46.18,-0.6 -65.48,-8.63 -19.28,-8.03 -35.82,-19.48 -49.72,-34.61 -13.93,-15.02 -24.89,-32.89 -33,-53.4 -8.11,-20.6 -13.21,-42.12 -15.22,-64.53 -2.33,-25.89 -1.01,-51.27 4.06,-76.13 5.06,-24.89 15.34,-47.82 30.64,-68.82l81.42 62.43z"/>
   <polygon class="fil0" points="-0,4284.29 2.01,4182.7 458.16,4192.02 456.14,4293.64 "/>
   <polygon class="fil0" points="125.82,3810.19 108.67,3940.62 20.46,3928.76 68.16,3567.02 156.26,3578.99 139.11,3709.41 503.19,3758.43 489.89,3859.22 "/>
   <path class="fil0" d="M143.46 3105.81l-22.56 82.92 -118.94 83.93 34.81 -128.18 106.69 -38.67zm3.65 114.48l22.01 -80.99 492.48 -71.55 -29.95 110.54 -103.64 12.46 -46.9 172.86 83.15 62.92 -29.23 108.12 -387.93 -314.36zm138.22 -2.13l122.11 91.95 29.55 -108.81 -151.66 16.86z"/>
   <path class="fil0" d="M477.93 2339.68l75.41 -132.03c18.27,-31.88 39.19,-60.31 62.75,-84.85 23.54,-24.69 49.31,-43.16 77.34,-55.33 28.11,-12.17 58.35,-17.15 90.83,-15.02 32.6,2.22 66.78,13.9 102.92,34.9 31.99,18.79 56.65,41.32 74,67.81 17.35,26.38 28.43,54.9 33.2,85.16 4.66,30.44 3.65,61.6 -3.37,93.68 -6.91,32.08 -18.87,63.04 -35.82,92.67l-82.23 143.92 -395.03 -230.92zm365 95.92l26.1 -45.66c11.68,-20.31 20.4,-40.4 26.3,-60.31 5.87,-19.88 7.8,-38.99 5.58,-57.34 -2.16,-18.27 -8.83,-35.62 -20.11,-51.96 -11.28,-16.34 -28.02,-31.07 -50.35,-44.16 -19.39,-11.25 -38.27,-17.46 -56.74,-18.47 -18.56,-1.12 -36.02,1.93 -52.36,8.83 -16.46,6.99 -31.76,17.55 -45.98,31.48 -14.21,14.1 -26.58,30.33 -37.06,48.71l-29.72 51.96 234.34 136.92z"/>
   <polygon class="fil0" points="857.08,1732.91 1051.86,1489.13 1124.02,1548.08 992.48,1712.83 1058.65,1766.84 1183,1611.24 1255.16,1670.19 1130.84,1825.9 1203,1884.86 1341.96,1710.99 1414.12,1769.97 1212.03,2022.82 "/>
   <path class="fil0" d="M1853.09 1296.99c-11.65,31.68 -27.1,61.11 -46.38,88.1 -19.28,26.99 -41.4,51.76 -66.26,74.6 -26.5,24.17 -54.61,42.21 -84.36,54.21 -29.84,11.97 -59.87,17.67 -90.03,16.83 -30.24,-0.81 -59.9,-8.11 -88.82,-22.13 -28.92,-13.9 -55.73,-34.5 -80.19,-61.92 -24.46,-27.39 -42.12,-56.42 -52.88,-86.98 -10.76,-30.56 -15.02,-61 -12.77,-91.55 2.33,-30.44 10.85,-60.08 25.66,-88.9 14.82,-28.74 35.53,-55.21 61.92,-79.38 27.1,-24.77 55.01,-44.25 83.75,-58.46 28.71,-14.21 58.87,-21.12 90.43,-20.72l-0.72 106.08c-19.68,-1.32 -38.35,1.12 -56.02,7.31 -17.67,6.19 -36.05,17.95 -55.21,35.42 -15.94,14.62 -27.94,30.44 -35.94,47.7 -8.03,17.35 -12.2,35.13 -12.69,53.4 -0.4,18.27 2.93,36.42 10.04,54.49 7.11,18.07 17.75,35.02 31.88,50.75 14.41,16.14 30.04,28.63 46.98,37.46 16.86,8.92 34.32,14.01 52.36,15.42 18.07,1.41 35.94,-1.12 53.8,-7.42 17.78,-6.27 34.61,-16.75 50.55,-31.25 16.23,-14.93 28.63,-29.63 37.14,-44.05 8.43,-14.53 14.53,-26.9 18.07,-37.14l-49.72 -55.64 -60.71 55.53 -62.23 -69.63 132.46 -121.1 159.85 178.96z"/>
   <polygon class="fil0" points="1815.49,793.35 1899.21,737.13 2100.18,1043.46 2255.38,939.31 2306.65,1017.57 2067.61,1177.82 "/>
   <polygon class="fil0" points="2277.47,508.08 2366.9,461.61 2575.78,871.75 2486.36,918.36 "/>
   <path class="fil0" d="M3241.55 250.63c-10.67,-7.91 -23.36,-12.29 -38.06,-13.29 -14.82,-1.04 -28.22,0.09 -40.19,3.42 -7.11,2.04 -14.13,4.89 -21.03,8.63 -6.99,3.77 -13.38,8.43 -18.96,13.93 -5.7,5.38 -9.75,11.57 -12.29,18.56 -2.53,7.02 -2.65,14.73 -0.32,23.16 3.65,13.29 11.48,22.21 23.36,26.47 11.85,4.37 26.07,6.91 42.52,7.71 16.54,0.72 34.09,1.24 52.88,1.32 18.76,0.12 36.94,2.76 54.61,7.62 17.67,4.98 33.58,13.9 47.79,26.5 14.21,12.77 24.89,32.05 31.99,57.95 6.79,24.77 8.11,47.62 4.14,68.51 -4.06,21 -12.17,39.79 -24.34,56.25 -12.2,16.54 -27.74,30.53 -46.61,42.21 -18.87,11.57 -39.68,20.6 -62.52,27.02 -28.51,8.11 -56.22,11.05 -83.03,9.12 -26.87,-1.81 -53.57,-9.64 -80.07,-23.45l47.9 -95.92c13.61,10.56 28.94,17.46 46.09,20.51 17.15,3.05 33.69,2.33 49.92,-2.24 7.83,-2.22 15.54,-5.38 23.05,-9.52 7.62,-4.17 14.01,-9.03 19.39,-14.53 5.38,-5.67 9.24,-11.85 11.57,-18.87 2.33,-6.99 2.45,-14.41 0.2,-22.33 -3.65,-13.49 -11.65,-22.53 -23.85,-27.51 -12.29,-4.86 -26.9,-7.83 -43.65,-9.03 -16.83,-1.12 -34.9,-1.93 -54.21,-2.33 -19.28,-0.4 -37.83,-3.05 -55.7,-8.03 -17.87,-4.86 -33.92,-13.38 -48.22,-25.66 -14.21,-12.2 -24.77,-30.67 -31.56,-55.33 -6.59,-23.85 -7.71,-46.18 -3.37,-66.78 4.37,-20.6 12.69,-39.07 24.89,-55.62 12.17,-16.54 27.59,-30.67 46.18,-42.44 18.56,-11.77 38.67,-20.72 60.19,-26.7 24.86,-6.99 49.83,-10.24 75.01,-9.64 25.06,0.6 49.31,6.7 72.56,18.15l-46.26 92.18z"/>
   <polygon class="fil0" points="3657.96,143.37 3528.95,161.03 3516.98,71.9 3874.64,22.87 3886.53,112.01 3757.63,129.67 3806.86,497.81 3707.28,511.42 "/>
   <path class="fil0" d="M4520.77 289.67c-0.43,27.39 -4.98,52.57 -13.52,75.41 -8.52,22.84 -20.89,42.73 -37.35,59.38 -16.34,16.63 -36.63,29.52 -60.91,38.67 -24.14,9.24 -51.96,13.49 -83.32,12.98 -31.76,-0.49 -59.59,-5.67 -83.52,-15.62 -23.85,-10.04 -43.76,-23.54 -59.59,-40.8 -15.82,-17.15 -27.71,-37.35 -35.42,-60.51 -7.83,-23.13 -11.48,-48.39 -11.08,-75.81l4.57 -283.37 100.47 1.61 -4.46 279.52c-0.2,14.33 1.84,27.62 6.1,39.91 4.37,12.17 10.56,22.84 18.59,31.88 8,9.03 17.64,16.14 28.92,21.29 11.28,5.18 23.65,7.94 36.94,8.14 13.29,0.2 25.58,-2.04 36.86,-6.91 11.25,-4.78 21,-11.57 29.32,-20.31 8.31,-8.83 14.82,-19.28 19.48,-31.36 4.78,-12.08 7.22,-25.26 7.42,-39.68l4.46 -279.54 100.59 1.73 -4.55 283.4z"/>
   <path class="fil0" d="M4836.53 40.83l148.38 27.02c35.94,6.47 69.43,16.75 100.3,30.73 30.96,14.01 56.82,32.28 77.74,54.81 20.8,22.56 35.73,49.66 44.77,81.31 9.03,31.68 9.84,68.22 2.45,109.73 -6.5,36.74 -19.1,67.9 -37.86,93.36 -18.67,25.58 -41.43,45.69 -68.02,60.51 -26.58,14.82 -56.02,24.34 -88.21,28.63 -32.17,4.34 -65.05,3.45 -98.46,-2.65l-161.67 -29.35 80.59 -454.1zm34.7 379.73l51.36 9.32c22.84,4.17 44.57,5.7 65.08,4.46 20.49,-1.09 38.87,-5.78 55.21,-14.1 16.23,-8.31 30.15,-20.51 41.52,-36.86 11.45,-16.23 19.36,-37.14 23.94,-62.81 3.97,-22.24 3.25,-42.32 -2.01,-60.31 -5.38,-17.95 -14.01,-33.49 -26.1,-46.78 -12.08,-13.21 -26.99,-24.17 -44.97,-33 -17.87,-8.72 -37.14,-15.02 -57.86,-18.76l-58.35 -10.56 -47.82 269.39z"/>
   <polygon class="fil0" points="5514.94,193.58 5610.75,224.33 5473.02,664.13 5377.21,633.38 "/>
   <path class="fil0" d="M6242.23 489l130.45 76.62c31.56,18.5 59.47,39.7 83.84,63.56 24.25,23.85 42.41,49.95 54.38,78.35 12.08,28.43 16.98,58.98 14.73,91.87 -2.24,32.89 -13.81,67.5 -34.73,104.04 -18.56,32.17 -41,57.14 -67.18,74.6 -26.18,17.55 -54.29,28.71 -84.36,33.38 -30.04,4.69 -60.88,3.57 -92.64,-3.54 -31.68,-7.11 -62.23,-19.19 -91.55,-36.42l-142.1 -83.44 229.17 -399zm-95.61 368.85l45.09 26.58c20.08,11.77 39.96,20.6 59.56,26.7 19.71,5.98 38.58,7.91 56.65,5.7 18.15,-2.13 35.33,-8.95 51.56,-20.2 16.14,-11.39 30.76,-28.34 43.73,-50.75 11.16,-19.59 17.38,-38.78 18.39,-57.46 1.12,-18.67 -1.84,-36.34 -8.63,-53 -6.91,-16.54 -17.26,-32.05 -31.04,-46.47 -13.93,-14.41 -29.86,-26.9 -48.13,-37.66l-51.24 -30.04 -135.92 236.59z"/>
   <polygon class="fil0" points="6841.43,873.68 7082.1,1071.2 7023.64,1144.07 6861.02,1010.6 6807.42,1077.41 6961,1203.46 6902.54,1276.34 6748.95,1150.26 6690.49,1223.14 6862.14,1364.03 6803.56,1436.8 6553.88,1231.97 "/>
   <polygon class="fil0" points="7304.79,1284.31 7373.53,1358.51 7108.08,1609.71 7235.37,1747.16 7167.67,1811.29 6971.67,1599.56 "/>
   <polygon class="fil0" points="7668.26,1706.44 7726.93,1788.96 7431.76,2003.45 7540.46,2156.4 7465.05,2211.21 7297.8,1975.63 "/>
   <path class="fil0" d="M8047.19 2308.2l38.18 74.72 -314.44 389.97 -51.99 -101.91 67.81 -80.19 -81.31 -159.25 -103.32 10.65 -50.87 -99.58 495.94 -34.41zm-100.18 96.33l-151.42 15.94 51.16 100.18 100.27 -116.12z"/>
   <path class="fil0" d="M8391.47 3179.69l38.58 167.57c4.57,19.39 7.71,39.39 9.55,59.7 1.73,20.2 0.4,39.16 -4.17,56.74 -4.57,17.64 -13,32.97 -25.38,46.18 -12.49,13.18 -30.76,22.61 -55.01,28.43 -25.18,5.87 -47.62,3.65 -67.41,-6.62 -19.77,-10.24 -35.91,-26.27 -48.39,-47.79l-1.24 0.29c1.32,15.22 0.32,29.63 -2.93,43.16 -3.25,13.49 -8.63,25.66 -16.03,36.63 -7.42,10.88 -16.86,20.11 -28.34,27.71 -11.45,7.62 -24.34,13.09 -38.55,16.46 -23.45,5.47 -44.16,5.06 -62.23,-1.32 -18.07,-6.5 -33.69,-16.66 -47.1,-30.47 -13.29,-13.78 -24.34,-30.24 -33.17,-49.43 -8.83,-19.08 -15.54,-38.55 -20.11,-58.46l-42.41 -183.99 444.35 -104.76zm-338.7 184.22l20.51 88.82c1.73,7.6 4.34,15.11 7.8,22.61 3.57,7.42 8.14,13.81 13.72,19.19 5.67,5.38 12.29,9.24 19.88,11.68 7.62,2.42 16.26,2.53 25.89,0.29 10.44,-2.53 18.36,-7.19 23.65,-13.9 5.18,-6.91 8.63,-14.7 10.04,-23.54 1.52,-8.83 1.81,-18.07 0.92,-27.62 -0.83,-9.64 -2.24,-18.47 -4.06,-26.5l-17.26 -74.89 -101.1 23.85zm183.94 -43.36l16.54 71.79c1.73,7.51 4.26,14.9 7.71,21.92 3.34,6.91 7.6,12.98 12.77,18.07 5.09,4.95 11.16,8.52 18.27,10.65 7.11,2.13 15.13,2.13 23.85,0.12 9.24,-2.16 16.46,-6.01 21.52,-11.48 5.18,-5.38 8.63,-11.68 10.56,-18.87 1.81,-7.11 2.65,-14.93 2.24,-23.25 -0.43,-8.43 -1.44,-16.34 -3.25,-23.97l-15.45 -67.3 -94.77 22.33z"/>
   <path class="fil0" d="M8525.05 3960.93l6.1 83.81 -440.61 233.86 -8.23 -114.37 93.48 -46.81 -12.89 -178.73 -99.15 -31.16 -8.14 -111.86 469.44 165.26zm-129.62 48.71l-145.44 -45.37 8.23 112.47 137.21 -67.1z"/>
   <path class="fil0" d="M8411.98 4727.52c10.85,-7.51 19.28,-18.07 25.26,-31.76 6.01,-13.72 9.44,-26.9 10.36,-39.39 0.6,-7.42 0.2,-15.02 -0.92,-22.93 -1.09,-7.94 -3.22,-15.54 -6.39,-22.76 -3.14,-7.19 -7.51,-13.18 -13.18,-17.95 -5.7,-4.78 -12.8,-7.51 -21.32,-8.11 -13.81,-1.04 -24.66,3.34 -32.68,13.18 -8.03,9.84 -15.22,22.44 -21.52,37.86 -6.3,15.42 -12.69,32.08 -19.19,49.83 -6.5,17.87 -15.02,34.32 -25.66,49.43 -10.56,15.13 -24.17,27.22 -40.8,36.45 -16.66,9.12 -38.18,12.77 -64.76,10.76 -25.29,-1.84 -47.01,-8.34 -65.17,-19.31 -18.18,-10.96 -32.8,-24.94 -44.05,-42.21 -11.28,-17.15 -19.08,-36.74 -23.45,-58.67 -4.37,-21.84 -5.78,-44.65 -3.97,-68.51 2.24,-29.95 8.75,-57.37 19.59,-82.23 10.96,-24.86 27.22,-47.59 49.03,-68.1l73.08 78.06c-14.5,9.32 -26.07,21.61 -34.7,36.83 -8.75,15.25 -13.61,31.36 -14.93,48.22 -0.6,8.23 -0.2,16.66 1.01,25.29 1.32,8.6 3.65,16.31 7.02,23.42 3.34,7.02 7.91,12.8 13.61,17.38 5.67,4.46 12.57,7.11 20.8,7.71 13.7,1.01 24.86,-3.45 33.58,-13.49 8.75,-9.95 16.46,-22.76 23.25,-38.38 6.7,-15.62 13.61,-32.57 20.51,-50.75 6.91,-18.15 15.74,-35.02 26.3,-50.35 10.65,-15.22 24.05,-27.71 40.28,-37.03 16.14,-9.55 36.94,-13.29 62.23,-11.36 24.46,1.81 45.46,8.31 63.12,19.48 17.75,11.16 32.17,25.26 43.45,42.52 11.16,17.15 19.19,36.66 23.74,58.26 4.69,21.72 6.19,43.85 4.49,66.38 -1.96,25.98 -7.42,50.87 -16.46,74.6 -9.12,23.65 -22.93,44.65 -41.52,62.84l-70.03 -75.21z"/>
   <polygon class="fil0" points="8474.1,5081.27 8455.34,5181.13 8007.11,5095.16 8025.89,4995.3 "/>
   <polygon class="fil0" points="8387.99,5473.15 8358.44,5570.29 8010.99,5462.28 7956.3,5642.33 7867.59,5614.74 7951.84,5337.52 "/>
   <polygon class="fil0" points="8209.49,5990.06 8169.49,6083.34 7750.9,5899.84 7790.8,5806.56 "/>
   <path class="fil0" d="M7788.18 6553.9c15.34,-2.45 29.55,-8.31 42.32,-17.55 12.89,-9.24 24.05,-22.13 33.69,-38.58 9.55,-16.43 15.22,-33.61 17.15,-51.36 1.84,-17.75 0.12,-35.22 -5.15,-52.16 -5.29,-17.06 -14.01,-33.09 -26.21,-48.11 -12.17,-15.13 -27.39,-28.02 -45.46,-38.78 -18.59,-11.08 -37.14,-18.15 -55.93,-21.52 -18.79,-3.34 -36.74,-3.34 -53.89,0.12 -17.15,3.34 -32.89,9.93 -47.1,20 -14.3,9.84 -25.98,22.73 -35.13,38.47 -10.44,17.95 -16.03,36.02 -16.63,54.29 -0.6,18.27 3.05,35.82 11.16,52.77l-96.33 41.03c-13.49,-30.76 -18.39,-62.32 -14.41,-94.8 3.86,-32.4 13.81,-62.32 29.75,-89.62 18.07,-31.16 39.47,-56.85 64.33,-77.45 24.89,-20.4 51.88,-34.93 80.91,-43.33 29.12,-8.43 59.59,-10.36 91.23,-5.78 31.79,4.46 63.44,16.11 94.92,34.81 31.48,18.67 56.82,41 76.22,66.87 19.39,25.89 32.48,53.72 39.3,83.44 6.88,29.84 7.51,60.71 1.93,92.59 -5.7,31.97 -17.46,63.41 -35.65,94.57 -6.47,11.19 -14.3,22.36 -23.45,33.32 -9.03,10.96 -19.28,21 -30.53,30.12 -11.39,9.15 -23.88,16.95 -37.58,23.45 -13.81,6.39 -28.51,10.76 -44.25,13l-15.22 -99.78z"/>
   <path class="fil0" d="M7591.85 7034.39l-52.88 64.85 -478.27 -138.94 72.19 -88.5 99.55 31.56 112.87 -138.16 -50.35 -91.84 70.55 -86.49 226.35 447.51zm-126.97 -55.33l-74.09 -134.48 -70.95 86.98 145.04 47.5z"/>
   <polygon class="fil0" points="7147.87,7388.11 7243.39,7298.68 7303.79,7364.66 7039.09,7612.64 6978.58,7546.64 7074.1,7457.21 6824.51,7184.6 6898.31,7115.58 "/>
   <path class="fil0" d="M6760.15 7828.66l-67.99 48.39 -424.9 -261.97 92.79 -65.86 87.78 57.03 144.95 -103.12 -24.57 -102.11 90.66 -64.45 101.28 492.08zm-107.98 -87.29l-36.25 -149.53 -91.23 64.88 127.49 84.65z"/>
   <path class="fil0" d="M3795.78 3493.45l0 1304.59c0,397.48 -318.62,719.63 -711.72,719.63 -60.28,0 -118.74,-7.62 -174.67,-21.92 -308.58,-78.66 -537.05,-361.25 -537.05,-697.7l0 -1919.27 0.12 0 1423.33 614.68z"/>
   <path class="fil0" d="M3321.31 2638.84c0,132.55 -106.17,239.93 -237.31,239.93 -130.91,0 -237.08,-107.38 -237.08,-239.93 0,-132.46 106.17,-239.84 237.08,-239.84 131.14,0 237.31,107.38 237.31,239.84z"/>
   <path class="fil0" d="M6168.23 5037.91c0,845.99 -618.65,1545.83 -1423.42,1662.15 -77.54,11.28 -156.72,17.06 -237.31,17.06l-237.22 -102.31 -474.5 -205.03 -487.79 -210.72 -672.13 -290.19c138.33,57.14 289.67,88.62 448.32,88.62 19.88,0 39.68,-0.52 59.38,-1.52 244.1,-12.2 468.8,-98.86 652.22,-238.23 284.41,-215.99 469.64,-558.13 474.5,-944.25 0.12,-5.18 0.12,-10.36 0.12,-15.54 0,-5.15 0,-10.33 -0.12,-15.51l0 -2863.32 474.53 0c524.05,0 948.92,429.65 948.92,959.68 0,288.38 -125.88,546.98 -325,723 276.5,169.81 500.08,419.09 639.65,716.38 102.51,218.12 159.85,462.13 159.85,719.72z"/>
   <polygon class="fil0" points="3475.12,8198.31 3369.27,8259.42 3328.36,8185.74 3499.49,8091.66 3587.9,8110.01 3495.84,8561.9 3405,8543.03 "/>
   <path class="fil0" d="M4000.6 8464.16c-5.27,0.92 -10.44,1.73 -15.62,2.13 -5.18,0.6 -10.67,0.6 -16.14,0.29 -21.52,-1.5 -40.71,-6.68 -57.74,-15.62 -17.06,-9.03 -31.39,-20.6 -42.96,-34.9 -11.57,-14.21 -20.2,-30.76 -25.78,-49.63 -5.67,-18.9 -7.8,-38.7 -6.39,-59.5 1.52,-23.85 7.31,-45.06 17.46,-63.73 10.04,-18.67 23.13,-34.41 39.27,-47.3 16.03,-12.8 34.73,-22.33 55.82,-28.51 21.03,-6.21 43.56,-8.43 67.61,-6.91 23.54,1.61 45.46,6.91 65.77,15.94 20.28,8.92 37.55,20.89 51.88,35.71 14.3,14.93 25.26,32.28 32.77,52.19 7.51,19.79 10.44,41.6 8.92,65.46 -1.09,16.46 -3.65,31.36 -7.51,44.85 -3.94,13.41 -8.72,26.1 -14.41,37.86 -5.78,11.77 -12.26,22.93 -19.68,33.49 -7.39,10.67 -15.13,21.52 -23.13,32.8l-110.02 150.42 -117.65 -7.91 117.53 -157.12zm-68.51 -146.88c-1.32,20.8 4.26,38.47 16.83,53.08 12.69,14.53 29.86,22.44 51.79,23.97 21.81,1.52 39.99,-4.17 54.38,-16.86 14.41,-12.69 22.24,-29.52 23.65,-50.35 1.32,-20.69 -4.26,-38.47 -16.83,-52.97 -12.6,-14.53 -29.84,-22.53 -51.76,-23.97 -21.84,-1.52 -39.99,4.17 -54.32,16.86 -14.41,12.69 -22.33,29.52 -23.74,50.24z"/>
   <path class="fil0" d="M4387.38 8297c-1.41,-21.2 1.32,-40.11 8.23,-56.45 6.91,-16.34 16.95,-30.24 30.15,-41.81 13.29,-11.57 28.92,-20.6 46.98,-26.99 18.18,-6.5 37.66,-10.36 58.67,-11.88 21.03,-1.32 40.91,-0.12 59.7,3.86 18.76,3.97 35.3,10.76 49.83,20.51 14.41,9.72 26.18,22.13 35.3,37.43 9.24,15.34 14.53,33.49 15.94,54.81 1.64,25.09 -3.65,47.01 -16.03,65.69 -12.29,18.67 -30.44,32.57 -54.41,41.52l0.12 1.29c27.91,5.61 49.72,17.46 65.66,35.85 15.82,18.27 24.66,41.72 26.58,70.35 1.44,22.13 -1.73,41.92 -9.32,59.36 -7.71,17.46 -18.59,32.28 -32.68,44.37 -14.01,12.08 -30.47,21.52 -49.43,28.43 -18.87,6.99 -38.87,11.16 -59.9,12.57 -21,1.44 -41.29,-0.09 -61,-4.37 -19.68,-4.34 -37.26,-11.57 -52.77,-21.61 -15.54,-10.04 -28.22,-23.25 -38.06,-39.59 -9.95,-16.23 -15.62,-35.53 -17.06,-57.66 -1.93,-28.51 3.77,-52.97 17.06,-73.28 13.29,-20.2 33.49,-35.02 60.39,-44.25l-0.12 -1.21c-24.86,-5.78 -44.65,-17.06 -59.36,-33.89 -14.62,-16.86 -22.84,-37.86 -24.48,-63.04zm97.33 7.11c0.92,14.3 6.91,26.18 17.87,35.42 10.96,9.24 24.77,13.29 41.52,12.29 16.66,-1.21 29.84,-7.11 39.5,-17.75 9.64,-10.67 13.98,-23.16 12.98,-37.46 -0.92,-13.93 -6.79,-25.38 -17.75,-34.73 -10.96,-9.24 -24.77,-13.38 -41.52,-12.17 -16.66,1.12 -29.84,6.99 -39.47,17.67 -9.67,10.65 -14.01,22.93 -13.12,36.74zm4.69 188.48c1.01,16.03 7.71,29.32 20.08,39.79 12.29,10.44 28.11,15.11 47.42,13.81 19.28,-1.32 34.3,-8.03 45.17,-20.11 10.85,-11.97 15.71,-26.1 14.62,-42.12 -1.04,-16.43 -7.74,-29.95 -20.11,-40.4 -12.29,-10.44 -28.11,-15.13 -47.39,-13.81 -19.31,1.32 -34.32,8.03 -45.17,20 -10.88,12.08 -15.74,26.38 -14.62,42.84z"/>
   <path class="fil0" d="M4959.65 8475.01l141.5 -193.75c7.22,-9.95 14.21,-20.92 20.92,-33 6.79,-12.08 8.72,-24.86 5.98,-38.47 -3.14,-15.42 -11.08,-26.27 -23.77,-32.68 -12.69,-6.5 -26.38,-8.11 -41.09,-5.06 -17.78,3.65 -30.35,12.08 -37.98,25.18 -7.71,13.18 -10.44,27.91 -8.43,44.34l-96.1 12.69c-3.57,-23.65 -2.85,-44.94 2.13,-64.05 4.86,-18.96 13.09,-35.62 24.66,-49.92 11.57,-14.41 26.1,-26.5 43.65,-36.05 17.55,-9.72 37.26,-16.75 59.18,-21.32 20.2,-4.26 39.68,-5.27 58.55,-3.22 18.79,2.01 35.94,7.39 51.27,15.91 15.31,8.63 28.4,20.63 39.27,36.14 10.76,15.54 18.47,34.53 23.05,57.05 2.93,14.41 4.14,27.91 3.65,40.19 -0.6,12.29 -2.53,23.74 -5.9,34.41 -3.25,10.76 -7.71,20.8 -13.18,30.35 -5.5,9.64 -11.68,19.08 -18.59,28.51l-111.66 146.36 198.24 -41.32 17.15 84.24 -311.91 64.97 -20.6 -101.51z"/>
   <path class="fil0" d="M5755.96 8101.18c0,33.2 26.58,59.99 59.38,59.99 32.77,0 59.36,-26.79 59.36,-59.99 0,-33.17 -26.58,-60.08 -59.36,-60.08 -32.8,0 -59.38,26.9 -59.38,60.08z"/>
   <path class="fil0" d="M2671.82 8101.04c0,33.17 26.58,59.99 59.38,59.99 32.77,0 59.38,-26.82 59.38,-59.99 0,-33.2 -26.61,-60.1 -59.38,-60.1 -32.8,0 -59.38,26.9 -59.38,60.1z"/>
   <polygon class="fil0" points="9927.76,8636.45 10000.55,8636.45 10000.55,0.03 9927.76,0.03 "/>
   <path class="fil1" d="M12808.62 3805.82l-372.1 0 0 -174.47 -5.38 0c-16.14,23.65 -37.23,47.62 -63.33,72.27 -25.98,24.46 -56.65,46.78 -91.67,66.69 -35.1,20.08 -73.68,36.34 -116.01,49.11 -42.21,12.69 -85.77,19.19 -130.74,19.19 -97.02,0 -185.12,-16.86 -264.21,-50.44 -79.15,-33.61 -146.97,-80.91 -203.59,-141.82 -56.65,-60.88 -100.18,-133.15 -130.74,-216.91 -30.64,-83.52 -45.89,-175.28 -45.89,-275.26 0,-92.67 13.93,-181.38 41.83,-265.82 27.79,-84.56 67.38,-159.57 118.65,-224.94 51.24,-65.46 113.56,-117.73 187.36,-156.81 73.68,-39.07 157.24,-58.58 250.72,-58.58 84.53,0 163.19,13.09 235.98,39.5 72.76,26.38 132.46,71.35 179.33,135l5.29 0 0 -703.41 404.47 0 0 1886.67zm-372.1 -662.58c0,-99.98 -28.31,-180.86 -84.96,-242.57 -56.54,-61.83 -136.09,-92.79 -238.52,-92.79 -102.51,0 -181.98,30.96 -238.72,92.79 -56.65,61.72 -84.85,142.59 -84.85,242.57 0,100.1 28.2,180.89 84.85,242.69 56.74,61.8 136.2,92.67 238.72,92.67 102.43,0 181.98,-30.87 238.52,-92.67 56.65,-61.8 84.96,-142.59 84.96,-242.69z"/>
   <path class="fil1" d="M13215.76 2156.4c0,-65.57 22.93,-121.27 68.79,-167.77 45.89,-46.29 101.1,-69.54 165.87,-69.54 64.65,0 119.98,23.25 165.75,69.54 45.86,46.49 68.82,102.2 68.82,167.77 0,65.48 -22.96,121.3 -68.82,167.68 -45.78,46.29 -101.1,69.54 -165.75,69.54 -64.76,0 -119.98,-23.25 -165.87,-69.54 -45.86,-46.38 -68.79,-102.2 -68.79,-167.68zm32.37 324.31l404.47 0 0 1325.16 -404.47 0 0 -1325.16z"/>
   <path class="fil0" d="M14795.7 2870.57c-59.15,-74.49 -137.53,-111.75 -234.55,-111.75 -34.21,0 -67.3,8.23 -99.78,24.57 -32.28,16.34 -48.51,44.57 -48.51,84.56 0,32.68 16.63,56.74 49.92,72.27 33.2,15.31 75.41,29 126.68,40.8 51.24,11.85 106.05,24.54 164.52,38.15 58.38,13.7 113.19,35.13 164.43,64.16 51.27,29.03 93.51,68.51 126.8,118.54 33.17,50.03 49.83,116.84 49.83,200.45 0,85.48 -18.39,155.83 -55.21,211.33 -36.86,55.41 -84.16,99.89 -141.61,133.59 -57.54,33.61 -122.31,57.26 -194.15,70.84 -71.87,13.72 -142.91,20.51 -212.94,20.51 -91.67,0 -184.34,-13.29 -277.82,-39.59 -93.39,-26.3 -172.54,-73.08 -237.31,-140.38l245.42 -275.46c37.86,47.3 79.58,83.24 125.36,107.78 45.89,24.57 99.38,36.74 160.46,36.74 46.81,0 89.02,-6.79 126.8,-20.49 37.75,-13.52 56.62,-38.47 56.62,-74.92 0,-34.5 -16.63,-60.39 -49.95,-77.65 -33.29,-17.23 -75.41,-31.76 -126.65,-43.73 -51.27,-11.77 -106.17,-24.46 -164.54,-38.06 -58.35,-13.7 -113.16,-34.21 -164.43,-61.4 -51.24,-27.22 -93.48,-65.89 -126.77,-115.92 -33.29,-49.83 -49.83,-116.73 -49.83,-200.37 0,-78.06 15.62,-145.35 47.1,-201.78 31.45,-56.33 72.88,-102.63 124.12,-139.05 51.27,-36.34 110.02,-63.12 176.63,-80.39 66.46,-17.26 133.76,-25.89 202.06,-25.89 86.49,0 173.58,12.69 261.68,38.06 88.1,25.49 162.7,70.95 223.7,136.43l-248.07 248.04z"/>
   <path class="fil0" d="M15451 1919.12l404.47 0 0 703.41 5.29 0c46.9,-63.64 106.57,-108.61 179.33,-135 72.88,-26.3 151.45,-39.5 235.98,-39.5 93.39,0 177.03,19.59 250.83,58.58 73.57,39.19 136,91.35 187.25,156.81 51.27,65.48 90.86,140.38 118.77,224.94 27.71,84.53 41.72,173.15 41.72,265.82 0,99.98 -15.22,191.85 -45.89,275.37 -30.56,83.73 -74.09,155.91 -130.62,216.79 -56.65,60.91 -124.55,108.21 -203.7,141.82 -79.18,33.58 -167.08,50.44 -264.21,50.44 -46.78,0 -90.75,-6.39 -132.06,-19.19 -41.4,-12.69 -79.58,-28.92 -114.68,-49.03 -35.02,-20 -65.69,-42.21 -91.67,-66.78 -26.07,-24.57 -47.1,-48.62 -63.33,-72.27l-5.38 0 0 174.47 -372.1 0 0 -1886.67zm372.1 1224.2c0,99.95 28.31,180.86 84.96,242.57 56.62,61.92 136.2,92.67 238.6,92.67 102.43,0 181.89,-30.76 238.63,-92.67 56.65,-61.72 84.96,-142.62 84.96,-242.57 0,-99.98 -28.31,-180.89 -84.96,-242.69 -56.74,-61.72 -136.2,-92.79 -238.63,-92.79 -102.4,0 -181.98,31.07 -238.6,92.79 -56.65,61.8 -84.96,142.71 -84.96,242.69z"/>
   <path class="fil0" d="M18044.85 3639.52l-5.38 0c-44.97,70.95 -104.73,121.79 -179.25,152.66 -74.69,30.96 -153.27,46.38 -235.98,46.38 -61.2,0 -119.98,-8.75 -176.6,-25.89 -56.65,-17.26 -106.48,-43.13 -149.61,-77.74 -43.16,-34.53 -77.25,-77.14 -102.43,-128.09 -25.26,-50.95 -37.75,-110.02 -37.75,-177.32 0,-76.24 13.81,-140.78 41.72,-193.58 27.91,-52.68 65.57,-96.3 113.27,-130.82 47.5,-34.5 102,-61.4 163.11,-80.47 61.11,-19.1 124.44,-33.12 190.21,-42.24 65.46,-9.03 131.03,-14.5 196.6,-16.34 65.69,-1.73 126.48,-2.73 182.1,-2.73 0,-72.68 -25.58,-130.42 -76.82,-173.18 -51.27,-42.61 -111.86,-64.05 -181.89,-64.05 -66.69,0 -127.29,14.13 -182.1,42.24 -54.92,28.31 -103.72,66.89 -147.08,115.92l-215.59 -223.61c75.41,-70.84 163.54,-124.03 264.21,-159.45 100.79,-35.42 204.94,-53.2 312.83,-53.2 118.54,0 216.07,15.02 292.52,44.97 76.42,30.04 137.41,74.09 183.39,132.26 45.89,58.15 77.77,129.5 95.72,214.06 17.87,84.44 26.9,182.18 26.9,293.13l0 673.46 -372.1 0 0 -166.36zm-99.78 -414.43c-30.64,0 -68.71,1.41 -114.6,4.17 -45.78,2.62 -89.91,10.33 -132.03,23.13 -42.32,12.69 -78.17,31.76 -107.89,57.26 -29.63,25.35 -44.45,60.88 -44.45,106.25 0,49.14 20.69,85.57 61.92,109.1 41.4,23.56 84.53,35.45 129.5,35.45 39.47,0 77.74,-5.5 114.6,-16.34 36.74,-10.96 69.63,-26.41 98.34,-46.29 28.83,-20.08 51.67,-45.46 68.82,-76.42 17.06,-30.87 25.58,-67.21 25.58,-109.13l0 -87.18 -99.78 0z"/>
   <polygon class="fil0" points="16390.13,6717.18 19928.21,6717.18 19928.21,6237.39 16390.13,6237.39 "/>
   <polygon class="fil0" points="18030.89,5997.46 19928.21,5997.46 19928.21,5517.66 18030.89,5517.66 "/>
   <polygon class="fil0" points="18267.6,5277.82 19928.21,5277.82 19928.21,4798.04 18267.6,4798.04 "/>
   <polygon class="fil0" points="13976.08,4558.08 19928.21,4558.08 19928.21,4078.2 13976.08,4078.2 "/>
   <polygon class="fil1" points="11388.74,4558.08 13652.49,4558.08 13652.49,4078.2 11388.74,4078.2 "/>
   <path class="fil0" d="M11644.35 5640.83c-8.11,-10.24 -19.08,-17.84 -32.89,-22.93 -13.78,-4.78 -26.79,-7.31 -39.16,-7.31 -7.22,0 -14.62,0.81 -22.36,2.53 -7.6,1.73 -14.82,4.49 -21.61,8.14 -6.79,3.65 -12.37,8.4 -16.66,14.5 -4.26,5.98 -6.27,13.29 -6.27,21.92 0,13.7 4.98,24.25 15.22,31.56 10.24,7.31 23.13,13.49 38.55,18.67 15.54,5.18 32.2,10.36 50.15,15.45 17.78,5.15 34.41,12.57 49.95,22.01 15.54,9.44 28.51,22.13 38.67,38.06 10.16,15.94 15.34,37.14 15.34,63.84 0,25.26 -4.78,47.39 -14.13,66.29 -9.32,18.96 -21.92,34.61 -37.86,47.19 -15.91,12.37 -34.38,21.61 -55.5,27.71 -21.12,5.9 -43.24,8.95 -66.58,8.95 -29.35,0 -56.65,-4.49 -81.71,-13.52 -25.09,-8.92 -48.42,-23.65 -70.15,-43.85l70.84 -78.66c10.16,13.81 23.05,24.48 38.58,31.88 15.54,7.62 31.56,11.36 48.11,11.36 8.11,0 16.26,-1.01 24.57,-2.93 8.31,-1.93 15.74,-4.78 22.33,-8.75 6.59,-3.86 11.88,-8.8 15.94,-14.82 4.06,-5.98 5.98,-13.09 5.98,-21.29 0,-13.72 -5.18,-24.57 -15.62,-32.48 -10.36,-8.03 -23.45,-14.73 -39.1,-20.4 -15.82,-5.5 -32.77,-11.08 -51.16,-16.75 -18.15,-5.5 -35.22,-13.12 -50.95,-22.56 -15.71,-9.44 -28.8,-21.92 -39.16,-37.35 -10.47,-15.54 -15.65,-35.94 -15.65,-61.31 0,-24.54 4.78,-45.98 14.33,-64.45 9.64,-18.47 22.33,-34.01 38.27,-46.38 15.94,-12.49 34.3,-21.81 55.21,-28.11 20.8,-6.3 42.24,-9.35 64.36,-9.35 25.46,0 50.24,3.65 73.97,10.96 23.77,7.31 45.29,19.51 64.36,36.74l-68.22 75.41z"/>
   <path class="fil0" d="M12146.21 5648c-9.84,-12 -21.81,-21.32 -36.02,-27.74 -14.33,-6.47 -30.76,-9.72 -49.43,-9.72 -18.67,0 -36.14,3.65 -52.08,11.05 -15.94,7.31 -29.75,17.46 -41.4,30.56 -11.68,13.09 -20.72,28.74 -27.42,46.78 -6.59,18.07 -9.84,37.66 -9.84,58.69 0,21.49 3.25,41.09 9.84,58.95 6.7,17.87 15.62,33.29 27.1,46.49 11.48,13.09 24.97,23.25 40.51,30.56 15.51,7.31 32.25,10.96 50.03,10.96 20.49,0 38.47,-4.26 54.29,-12.89 15.62,-8.63 28.63,-20.6 38.78,-36.14l82.92 62.61c-19.08,27.1 -43.33,47.01 -72.68,59.9 -29.23,12.98 -59.47,19.39 -90.43,19.39 -35.33,0 -67.9,-5.58 -97.65,-16.75 -29.84,-11.16 -55.53,-27.22 -77.14,-48.02 -21.72,-20.92 -38.58,-46.09 -50.75,-75.81 -12.08,-29.63 -18.15,-62.72 -18.15,-99.26 0,-36.54 6.07,-69.66 18.15,-99.29 12.17,-29.72 29.03,-54.9 50.75,-75.81 21.61,-20.8 47.3,-36.83 77.14,-48.02 29.75,-11.16 62.32,-16.75 97.65,-16.75 12.57,0 25.87,1.24 39.79,3.45 13.78,2.45 27.3,6.21 40.8,11.36 13.41,5.18 26.3,12 38.55,20.63 12.29,8.52 23.45,19.16 33.2,31.56l-76.53 63.24z"/>
   <polygon class="fil0" points="12350.26,5985.86 12449.72,5985.86 12449.72,5529.34 12350.26,5529.34 "/>
   <polygon class="fil0" points="12607.79,5529.34 12914.53,5529.34 12914.53,5622.22 12707.25,5622.22 12707.25,5707.27 12903.05,5707.27 12903.05,5800.14 12707.25,5800.14 12707.25,5893.02 12926,5893.02 12926,5985.89 12607.79,5985.89 "/>
   <polygon class="fil0" points="13069.43,5529.34 13204.54,5529.34 13396.56,5846.64 13397.89,5846.64 13397.89,5529.34 13497.35,5529.34 13497.35,5985.89 13367.25,5985.89 13170.22,5660.89 13168.92,5660.89 13168.92,5985.89 13069.43,5985.89 "/>
   <polygon class="fil0" points="13629.3,5893.02 13858.18,5618.36 13637.53,5618.36 13637.53,5529.34 13978.76,5529.34 13978.76,5618.36 13754.25,5893.02 13986.38,5893.02 13986.38,5985.89 13629.3,5985.89 "/>
   <polygon class="fil0" points="14122.18,5529.34 14428.92,5529.34 14428.92,5622.22 14221.68,5622.22 14221.68,5707.27 14417.35,5707.27 14417.35,5800.14 14221.68,5800.14 14221.68,5893.02 14440.31,5893.02 14440.31,5985.89 14122.18,5985.89 "/>
   <path class="fil0" d="M14836.27 5529.34l149.3 0c36.05,0 70.46,4.06 102.94,12.29 32.57,8.11 60.88,21.41 85.05,39.68 24.25,18.27 43.65,42.04 57.86,71.15 14.21,29.23 21.32,64.76 21.32,106.48 0,36.94 -7.02,69.43 -20.83,97.62 -13.78,28.14 -32.37,51.79 -55.7,70.95 -23.36,19.1 -50.47,33.61 -81.02,43.56 -30.64,9.84 -62.61,14.82 -96.21,14.82l-162.7 0 0 -456.55zm99.46 363.67l51.67 0c22.93,0 44.25,-2.33 64.05,-7.11 19.79,-4.66 36.86,-12.57 51.36,-23.54 14.41,-10.96 25.78,-25.29 34.21,-43.24 8.23,-17.78 12.37,-39.59 12.37,-65.48 0,-22.21 -4.14,-41.72 -12.37,-58.26 -8.43,-16.54 -19.48,-30.24 -33.61,-40.88 -13.9,-10.88 -30.44,-18.9 -49.31,-24.17 -18.99,-5.47 -38.78,-8.11 -59.7,-8.11l-58.67 0 0 270.8z"/>
   <polygon class="fil0" points="15382.87,5985.86 15482.33,5985.86 15482.33,5529.34 15382.87,5529.34 "/>
   <path class="fil0" d="M15889.11 5529.34l168.37 0c19.51,0 39.07,1.41 58.87,4.26 19.79,2.65 37.46,8.31 53.28,16.75 15.65,8.31 28.43,20.11 38.27,35.13 9.67,15.02 14.73,35.02 14.73,59.99 0,25.78 -7.22,47.1 -21.41,64.13 -14.21,16.95 -33,29.15 -56.54,36.45l0 1.21c15.02,2.13 28.51,6.39 40.6,12.57 12.08,6.3 22.53,14.21 31.16,23.85 8.72,9.67 15.54,20.92 20.08,33.81 4.69,13 7.11,26.82 7.11,41.32 0,24.05 -5.06,44.25 -15.31,60.31 -10.27,16.23 -23.36,29.12 -39.59,39.07 -16.14,9.84 -34.32,16.95 -54.52,21.2 -20.2,4.37 -40.28,6.5 -60.19,6.5l-184.92 0 0 -456.55zm99.46 182.5l72.07 0c7.6,0 15.22,-0.81 22.61,-2.65 7.42,-1.73 14.13,-4.46 20,-8.31 5.98,-3.86 10.76,-9.03 14.41,-15.42 3.57,-6.5 5.38,-14.21 5.38,-23.25 0,-9.44 -1.93,-17.26 -6.07,-23.56 -3.97,-6.19 -9.24,-11.05 -15.54,-14.5 -6.39,-3.45 -13.61,-5.98 -21.72,-7.51 -8.03,-1.44 -15.94,-2.24 -23.56,-2.24l-67.58 0 0 97.45zm0 188.89l89.22 0c7.71,0 15.42,-0.92 23.25,-2.65 8,-1.61 15.11,-4.66 21.32,-8.92 6.39,-4.37 11.65,-9.84 15.71,-16.86 4.06,-6.7 6.1,-15.22 6.1,-25.06 0,-10.76 -2.73,-19.48 -8.03,-26.1 -5.38,-6.7 -12.08,-11.77 -20,-15.22 -8.11,-3.45 -16.83,-5.78 -26.18,-6.99 -9.44,-1.32 -18.07,-1.93 -26.18,-1.93l-75.21 0 0 103.72z"/>
   <path class="fil0" d="M16514.63 5529.34l82.32 0 196.22 456.55 -112.18 0 -38.87 -96.73 -175.28 0 -37.78 96.73 -109.62 0 195.19 -456.55zm38.18 132.87l-54.81 141.79 110.34 0 -55.53 -141.79z"/>
   <path class="fil0" d="M17125.39 5640.83c-8.03,-10.24 -18.99,-17.84 -32.77,-22.93 -13.81,-4.78 -26.9,-7.31 -39.3,-7.31 -7.19,0 -14.62,0.81 -22.33,2.53 -7.51,1.73 -14.82,4.49 -21.61,8.14 -6.82,3.65 -12.4,8.4 -16.66,14.5 -4.14,5.98 -6.27,13.29 -6.27,21.92 0,13.7 5.15,24.25 15.22,31.56 10.24,7.31 23.13,13.49 38.55,18.67 15.54,5.18 32.2,10.36 50.15,15.45 17.75,5.15 34.61,12.57 50.15,22.01 15.42,9.44 28.31,22.13 38.55,38.06 10.07,15.94 15.22,37.14 15.22,63.84 0,25.26 -4.75,47.39 -13.98,66.29 -9.35,18.96 -22.04,34.61 -37.98,47.19 -15.94,12.37 -34.41,21.61 -55.5,27.71 -21.12,5.9 -43.24,8.95 -66.61,8.95 -29.32,0 -56.54,-4.49 -81.6,-13.52 -25.18,-8.92 -48.51,-23.65 -70.15,-43.85l70.75 -78.66c10.24,13.81 23.05,24.48 38.58,31.88 15.51,7.62 31.56,11.36 48.11,11.36 8.11,0 16.34,-1.01 24.57,-2.93 8.31,-1.93 15.71,-4.78 22.41,-8.75 6.5,-3.86 11.77,-8.8 15.94,-14.82 3.97,-5.98 5.9,-13.09 5.9,-21.29 0,-13.72 -5.09,-24.57 -15.45,-32.48 -10.53,-8.03 -23.65,-14.73 -39.27,-20.4 -15.82,-5.5 -32.77,-11.08 -50.95,-16.75 -18.36,-5.5 -35.3,-13.12 -51.16,-22.56 -15.62,-9.44 -28.71,-21.92 -39.07,-37.35 -10.56,-15.54 -15.74,-35.94 -15.74,-61.31 0,-24.54 4.89,-45.98 14.41,-64.45 9.55,-18.47 22.33,-34.01 38.27,-46.38 15.94,-12.49 34.32,-21.81 55.13,-28.11 20.8,-6.3 42.21,-9.35 64.45,-9.35 25.46,0 50.15,3.65 73.89,10.96 23.77,7.31 45.29,19.51 64.45,36.74l-68.3 75.41z"/>
   <polygon class="fil0" points="17335.91,5529.34 17642.65,5529.34 17642.65,5622.22 17435.38,5622.22 17435.38,5707.27 17631.05,5707.27 17631.05,5800.14 17435.38,5800.14 17435.38,5893.02 17654.01,5893.02 17654.01,5985.89 17335.91,5985.89 "/>
   <polygon class="fil0" points="11390.49,6249.01 11697.14,6249.01 11697.14,6341.97 11489.87,6341.97 11489.87,6426.93 11685.78,6426.93 11685.78,6519.92 11489.87,6519.92 11489.87,6612.68 11708.71,6612.68 11708.71,6705.56 11390.49,6705.56 "/>
   <path class="fil0" d="M12253.24 6249.01l82.23 0 196.39 456.55 -112.27 0 -38.87 -96.73 -175.28 0 -37.78 96.73 -109.62 0 195.19 -456.55zm38.27 132.87l-54.9 141.9 110.31 0 -55.41 -141.9z"/>
   <path class="fil0" d="M12640.88 6249.01l167.77 0c23.36,0 45.37,2.13 66.29,6.5 20.8,4.26 38.99,11.77 54.49,22.21 15.54,10.56 27.82,24.77 36.97,42.52 9.12,17.87 13.7,40.31 13.7,67.5 0,26.61 -4.26,48.94 -12.8,67.01 -8.4,18.07 -20.08,32.48 -35.02,43.24 -14.9,10.65 -32.48,18.27 -52.88,22.82 -20.4,4.57 -42.52,6.82 -66.38,6.82l-72.68 0 0 177.92 -99.46 0 0 -456.55zm99.46 193.46l66.29 0c8.92,0 17.55,-0.92 25.87,-2.65 8.34,-1.61 15.65,-4.57 22.36,-8.63 6.59,-4.06 11.85,-9.64 15.91,-16.75 4.09,-7.11 6.01,-16.03 6.01,-26.7 0,-11.77 -2.65,-21 -7.94,-28.11 -5.27,-7.11 -12.06,-12.57 -20.4,-16.43 -8.31,-3.86 -17.55,-6.42 -27.71,-7.51 -10.24,-0.92 -20,-1.52 -29.32,-1.52l-51.07 0 0 108.3z"/>
   <path class="fil0" d="M13106.37 6249.01l167.68 0c23.33,0 45.46,2.13 66.29,6.5 20.8,4.26 39.07,11.77 54.49,22.21 15.54,10.56 27.91,24.77 37.06,42.52 9.12,17.87 13.7,40.31 13.7,67.5 0,26.61 -4.26,48.94 -12.8,67.01 -8.4,18.07 -20.08,32.48 -35.1,43.24 -14.82,10.65 -32.4,18.27 -52.88,22.82 -20.4,4.57 -42.44,6.82 -66.29,6.82l-72.68 0 0 177.92 -99.46 0 0 -456.55zm99.46 193.46l66.29 0c8.92,0 17.55,-0.92 25.78,-2.65 8.31,-1.61 15.74,-4.57 22.44,-8.63 6.47,-4.06 11.85,-9.64 15.94,-16.75 3.94,-7.11 5.98,-16.03 5.98,-26.7 0,-11.77 -2.65,-21 -7.91,-28.11 -5.38,-7.11 -12.2,-12.57 -20.51,-16.43 -8.23,-3.86 -17.46,-6.42 -27.71,-7.51 -10.16,-0.92 -19.91,-1.52 -29.35,-1.52l-50.95 0 0 108.3z"/>
   <polygon class="fil0" points="13575.64,6249.01 13675.1,6249.01 13675.1,6612.68 13859.44,6612.68 13859.44,6705.56 13575.64,6705.56 "/>
   <polygon class="fil0" points="13976.69,6705.5 14076.24,6705.5 14076.24,6248.95 13976.69,6248.95 "/>
   <path class="fil0" d="M14525.71 6367.72c-9.84,-12.08 -21.81,-21.32 -36.02,-27.71 -14.21,-6.5 -30.76,-9.75 -49.34,-9.75 -18.76,0 -36.02,3.65 -51.96,11.05 -15.94,7.31 -29.75,17.46 -41.6,30.56 -11.68,13.09 -20.72,28.74 -27.3,46.81 -6.7,18.07 -9.95,37.63 -9.95,58.67 0,21.52 3.25,41.09 9.95,58.95 6.59,17.87 15.62,33.29 26.99,46.49 11.57,13.09 25.06,23.25 40.6,30.56 15.54,7.31 32.2,10.96 49.95,10.96 20.49,0 38.55,-4.26 54.29,-12.89 15.74,-8.63 28.74,-20.6 38.78,-36.14l83.03 62.64c-19.19,27.07 -43.45,46.98 -72.79,59.87 -29.23,13 -59.47,19.39 -90.43,19.39 -35.33,0 -67.81,-5.58 -97.65,-16.75 -29.84,-11.16 -55.41,-27.22 -77.14,-48.02 -21.72,-20.92 -38.55,-46.18 -50.75,-75.81 -12.08,-29.63 -18.07,-62.72 -18.07,-99.26 0,-36.54 5.98,-69.63 18.07,-99.38 12.2,-29.63 29.03,-54.81 50.75,-75.73 21.72,-20.8 47.3,-36.83 77.14,-47.99 29.84,-11.16 62.32,-16.77 97.65,-16.77 12.77,0 25.98,1.24 39.79,3.45 13.81,2.45 27.51,6.21 40.88,11.39 13.32,5.15 26.21,11.97 38.58,20.6 12.17,8.52 23.33,19.16 33.09,31.56l-76.53 63.24z"/>
   <path class="fil0" d="M14879.68 6249.01l82.32 0 196.19 456.55 -112.15 0 -38.87 -96.73 -175.31 0 -37.75 96.73 -109.5 0 195.07 -456.55zm38.15 132.87l-54.81 141.9 110.34 0 -55.53 -141.9z"/>
   <polygon class="fil0" points="15296.01,6338.09 15167.2,6338.09 15167.2,6249.07 15524.28,6249.07 15524.28,6338.09 15395.47,6338.09 15395.47,6705.61 15296.01,6705.61 "/>
   <polygon class="fil0" points="15642.3,6249.01 15949.01,6249.01 15949.01,6341.97 15741.77,6341.97 15741.77,6426.93 15937.44,6426.93 15937.44,6519.92 15741.77,6519.92 15741.77,6612.68 15960.4,6612.68 15960.4,6705.56 15642.3,6705.56 "/>
   <path class="fil1" d="M11386.72 4809.63l149.21 0c36.14,0 70.43,4.06 103.03,12.29 32.48,8.11 60.79,21.41 85.05,39.68 24.25,18.27 43.45,42.04 57.66,71.27 14.3,29.12 21.41,64.65 21.41,106.37 0,36.94 -6.91,69.43 -20.72,97.74 -13.78,28.02 -32.37,51.67 -55.7,70.86 -23.56,19.08 -50.47,33.58 -81.02,43.53 -30.64,9.83 -62.81,14.81 -96.41,14.81l-162.5 0 0 -456.54zm99.46 363.67l51.67 0c22.93,0 44.25,-2.33 64.05,-7.11 19.79,-4.66 36.86,-12.57 51.36,-23.54 14.41,-10.96 25.78,-25.29 34.09,-43.16 8.23,-17.84 12.4,-39.68 12.4,-65.54 0,-22.24 -4.17,-41.72 -12.4,-58.26 -8.31,-16.54 -19.48,-30.27 -33.49,-40.91 -14.1,-10.88 -30.56,-18.87 -49.31,-24.17 -18.99,-5.47 -38.87,-8.11 -59.7,-8.11l-58.67 0 0 270.8z"/>
   <polygon class="fil1" points="11933.07,5266.14 12032.56,5266.14 12032.56,4809.72 11933.07,4809.72 "/>
   <path class="fil1" d="M12186.92 4809.63l167.68 0c23.45,0 45.57,2.13 66.29,6.39 20.89,4.37 39.07,11.8 54.49,22.33 15.54,10.47 27.91,24.77 37.06,42.55 9.12,17.75 13.7,40.28 13.7,67.38 0,26.58 -4.26,49.03 -12.69,67.1 -8.52,17.95 -20.2,32.48 -35.13,43.13 -14.82,10.76 -32.48,18.39 -52.97,22.96 -20.4,4.55 -42.44,6.79 -66.17,6.79l-72.79 0 0 177.91 -99.46 0 0 -456.54zm99.46 193.46l66.38 0c8.83,0 17.46,-0.92 25.69,-2.65 8.31,-1.61 15.82,-4.55 22.44,-8.63 6.47,-4.06 11.85,-9.72 15.91,-16.75 4.09,-7.11 6.1,-16.03 6.1,-26.79 0,-11.68 -2.73,-20.92 -8.03,-28.02 -5.38,-7.11 -12.06,-12.69 -20.49,-16.54 -8.23,-3.74 -17.46,-6.27 -27.62,-7.39 -10.16,-1.01 -20,-1.64 -29.43,-1.64l-50.95 0 0 108.41z"/>
   <path class="fil1" d="M12753.84 4809.63l82.2 0 196.39 456.54 -112.24 0 -38.87 -96.72 -175.31 0 -37.75 96.72 -109.62 0 195.19 -456.54zm38.27 132.87l-54.92 141.79 110.34 0 -55.41 -141.79z"/>
   <path class="fil1" d="M13141.45 4809.63l174.7 0c22.93,0 44.74,2.24 65.37,6.7 20.6,4.57 38.67,12.17 54.18,22.64 15.54,10.56 27.91,24.74 37.06,42.52 9.12,17.87 13.61,40.08 13.61,66.78 0,32.28 -8.23,59.67 -24.77,82.23 -16.66,22.53 -40.8,36.83 -72.68,42.81l114.68 192.85 -119.14 0 -94.4 -182.49 -49.11 0 0 182.49 -99.49 0 0 -456.54zm99.49 189l58.67 0c8.92,0 18.47,-0.4 28.4,-1.01 9.95,-0.72 18.99,-2.65 27.02,-5.81 8.11,-3.22 14.82,-8.31 20.2,-15.11 5.27,-6.91 7.91,-16.66 7.91,-29.03 0,-11.68 -2.33,-20.92 -6.99,-27.82 -4.78,-6.79 -10.67,-12.08 -17.87,-15.74 -7.22,-3.65 -15.45,-6.07 -24.89,-7.39 -9.44,-1.32 -18.47,-2.04 -27.39,-2.04l-65.05 0 0 103.95z"/>
   <polygon class="fil1" points="13694.35,4898.65 13565.54,4898.65 13565.54,4809.63 13922.62,4809.63 13922.62,4898.65 13793.81,4898.65 13793.81,5266.17 13694.35,5266.17 "/>
   <polygon class="fil1" points="14035.35,5266.14 14134.81,5266.14 14134.81,4809.72 14035.35,4809.72 "/>
   <polygon class="fil1" points="14289.29,4809.63 14439.71,4809.63 14543.66,5107.53 14544.87,5107.53 14649.51,4809.63 14799.44,4809.63 14799.44,5266.17 14699.98,5266.17 14699.98,4916 14698.65,4916 14580.08,5266.17 14504.18,5266.17 14390.08,4916 14388.75,4916 14388.75,5266.17 14289.29,5266.17 "/>
   <polygon class="fil1" points="14958.83,4809.63 15265.54,4809.63 15265.54,4902.51 15058.3,4902.51 15058.3,4987.56 15253.97,4987.56 15253.97,5080.43 15058.3,5080.43 15058.3,5173.31 15276.93,5173.31 15276.93,5266.17 14958.83,5266.17 "/>
   <polygon class="fil1" points="15420.39,4809.63 15555.59,4809.63 15747.64,5126.93 15748.96,5126.93 15748.96,4809.63 15848.22,4809.63 15848.22,5266.17 15718.2,5266.17 15521.2,4941.18 15519.88,4941.18 15519.88,5266.17 15420.39,5266.17 "/>
   <polygon class="fil1" points="16091.2,4898.65 15962.39,4898.65 15962.39,4809.63 16319.47,4809.63 16319.47,4898.65 16190.66,4898.65 16190.66,5266.17 16091.2,5266.17 "/>
   <path class="fil1" d="M16409.47 5037.91c0,-36.54 5.98,-69.71 18.07,-99.38 12.08,-29.63 29.03,-54.9 50.64,-75.7 21.84,-20.83 47.42,-36.86 77.14,-48.02 29.95,-11.16 62.43,-16.75 97.65,-16.75 35.33,0 67.81,5.58 97.54,16.75 29.75,11.16 55.53,27.19 77.14,48.02 21.72,20.8 38.58,46.06 50.75,75.7 12.2,29.66 18.18,62.84 18.18,99.38 0,36.54 -5.98,69.63 -18.18,99.26 -12.17,29.75 -29.03,54.92 -50.75,75.84 -21.61,20.8 -47.39,36.83 -77.14,47.98 -29.72,11.16 -62.2,16.75 -97.54,16.75 -35.22,0 -67.7,-5.58 -97.65,-16.75 -29.72,-11.15 -55.3,-27.18 -77.14,-47.98 -21.61,-20.92 -38.55,-46.09 -50.64,-75.84 -12.08,-29.63 -18.07,-62.72 -18.07,-99.26zm103.23 0c0,21.52 3.25,41.11 9.93,58.98 6.5,17.87 15.94,33.38 28.34,46.47 12.37,13 27.19,23.25 44.25,30.56 17.23,7.31 36.54,10.96 57.74,10.96 21.2,0 40.51,-3.65 57.66,-10.96 17.26,-7.31 32.08,-17.55 44.45,-30.56 12.17,-13.09 21.72,-28.6 28.31,-46.47 6.5,-17.87 9.95,-37.46 9.95,-58.98 0,-21 -3.45,-40.6 -9.95,-58.67 -6.59,-18.07 -16.14,-33.69 -28.31,-46.78 -12.37,-13.09 -27.19,-23.36 -44.45,-30.56 -17.15,-7.42 -36.45,-11.08 -57.66,-11.08 -21.2,0 -40.51,3.65 -57.74,11.08 -17.06,7.19 -31.88,17.46 -44.25,30.56 -12.4,13.09 -21.84,28.71 -28.34,46.78 -6.68,18.07 -9.93,37.66 -9.93,58.67z"/>
   <path class="fil1" d="M17280.38 4809.63l149.3 0c36.05,0 70.46,4.06 102.94,12.29 32.57,8.11 60.88,21.41 85.05,39.68 24.25,18.27 43.65,42.04 57.86,71.27 14.21,29.12 21.29,64.65 21.29,106.37 0,36.94 -6.99,69.43 -20.8,97.74 -13.81,28.02 -32.37,51.67 -55.7,70.86 -23.36,19.08 -50.47,33.58 -81.02,43.53 -30.64,9.83 -62.61,14.81 -96.21,14.81l-162.7 0 0 -456.54zm99.46 363.67l51.67 0c22.93,0 44.25,-2.33 64.05,-7.11 19.79,-4.66 36.94,-12.57 51.44,-23.54 14.33,-10.96 25.69,-25.29 34.12,-43.16 8.23,-17.84 12.37,-39.68 12.37,-65.54 0,-22.24 -4.14,-41.72 -12.37,-58.26 -8.43,-16.54 -19.51,-30.27 -33.61,-40.91 -13.9,-10.88 -30.44,-18.87 -49.31,-24.17 -18.99,-5.47 -38.78,-8.11 -59.7,-8.11l-58.67 0 0 270.8z"/>
   <polygon class="fil1" points="17826.87,5266.14 17926.34,5266.14 17926.34,4809.72 17826.87,4809.72 "/>
  </g>
 </g>
</svg>
