<?xml version="1.0" encoding="UTF-8"?>
<!DOCTYPE svg PUBLIC "-//W3C//DTD SVG 1.1//EN" "http://www.w3.org/Graphics/SVG/1.1/DTD/svg11.dtd">
<!--Risorse grafiche UNIBAS - bit.ly/unibasbrand -->
<svg xmlns="http://www.w3.org/2000/svg" xml:space="preserve" width="207.79mm" height="90.0531mm" version="1.1" style="shape-rendering:geometricPrecision; text-rendering:geometricPrecision; image-rendering:optimizeQuality; fill-rule:evenodd; clip-rule:evenodd"
viewBox="0 0 19928.21 8636.57"
 xmlns:xlink="http://www.w3.org/1999/xlink"
 xmlns:xodm="http://www.corel.com/coreldraw/odm/2003">
 <defs>
  <style type="text/css">
   <![CDATA[
    .fil0 {fill:black;fill-rule:nonzero}
   ]]>
  </style>
 </defs>
 <g id="Layer_x0020_1">
  <metadata id="CorelCorpID_0Corel-Layer"/>
  <g id="_1913594260336">
   <path class="fil0" d="M1824.15 7509.1c15.62,-22.44 33.29,-40.6 53.08,-54.72 19.79,-14.1 41,-23.33 63.84,-27.79 22.82,-4.46 46.78,-3.65 71.96,2.53 25.06,6.19 50.44,18.47 76.13,36.63 25.98,18.59 46.06,38.78 60.28,60.51 14.33,21.81 23.13,44.37 26.7,67.61 3.54,23.22 2.01,46.58 -4.37,70.23 -6.39,23.54 -17.46,46.58 -32.97,68.91l-161.38 231.84 -82.23 -58.46 159.16 -228.71c8.11,-11.65 13.78,-23.85 17.03,-36.42 3.25,-12.57 4.06,-24.86 2.45,-36.94 -1.52,-11.97 -5.58,-23.36 -12.08,-34.01 -6.5,-10.76 -15.13,-20 -26.1,-27.71 -10.85,-7.83 -22.21,-12.89 -34.18,-15.34 -12,-2.42 -23.85,-2.33 -35.65,0.2 -11.77,2.56 -22.93,7.42 -33.58,14.82 -10.56,7.22 -20,16.86 -28.14,28.54l-159.14 228.56 -82.23 -58.46 161.41 -231.81z"/>
   <polygon class="fil0" points="1419.94,7537.64 1323,7440.31 1408.86,7074.59 1407.94,7073.7 1184.44,7301.14 1113.09,7229.5 1434.64,6902.16 1527.92,6995.84 1440.33,7370.79 1441.23,7371.69 1670.13,7138.64 1741.49,7210.31 "/>
   <polygon class="fil0" points="922.76,6994.46 861.36,6913.96 1222.82,6632.31 1284.11,6712.79 "/>
   <polygon class="fil0" points="711.12,6708.9 652.86,6609.01 853.02,6357.08 852.42,6355.96 536.53,6409.77 481.84,6315.97 970.44,6245.45 1011.35,6315.57 "/>
   <polygon class="fil0" points="368.54,6070.55 253.22,5779.67 339.3,5744.74 417.25,5941.34 496.22,5909.28 422.63,5723.62 508.71,5688.72 582.39,5874.35 668.45,5839.45 586.25,5631.98 672.42,5597.05 792,5898.93 "/>
   <path class="fil0" d="M160 5484.01l-40.91 -173.78c-5.29,-22.82 -8.23,-44.94 -8.63,-66.46 -0.52,-21.64 2.65,-41.32 9.24,-59.18 6.59,-17.87 17.55,-33.49 32.77,-46.78 15.13,-13.29 35.73,-22.96 61.63,-29.23 31.36,-7.51 59.99,-5.7 85.77,5.47 25.78,11.28 45.37,31.99 58.67,62.32l160.66 -159.25 27.82 118.57 -155.31 136.52 11.48 48.8 177.43 -42.61 23.25 98.86 -443.86 106.77zm160.46 -143.11l-13.81 -58.26c-2.01,-8.95 -4.57,-18.27 -7.51,-28.02 -2.93,-9.72 -6.99,-18.27 -11.97,-25.58 -5.09,-7.31 -11.48,-12.77 -19.48,-16.43 -7.94,-3.65 -17.98,-4.06 -30.07,-1.24 -11.25,2.76 -19.68,7.31 -25.26,13.52 -5.58,6.27 -9.35,13.38 -11.28,21.49 -1.81,8.03 -2.22,16.86 -1.32,26.41 0.92,9.64 2.45,18.87 4.49,27.71l15.22 64.65 100.99 -24.25z"/>
   <path class="fil0" d="M127.72 4622.5c-9.55,9.12 -16.14,21 -19.79,35.42 -3.65,14.53 -4.89,28.02 -3.77,40.51 0.72,7.31 2.24,14.82 4.69,22.41 2.33,7.62 5.67,14.73 9.93,21.32 4.26,6.5 9.64,11.68 16.05,15.54 6.39,3.74 13.78,5.18 22.33,4.37 13.7,-1.24 23.74,-7.42 30.04,-18.39 6.39,-11.05 11.36,-24.66 15.13,-40.91 3.65,-16.23 7.31,-33.69 10.76,-52.25 3.45,-18.59 9.24,-36.25 17.23,-52.8 7.91,-16.63 19.39,-30.84 34.32,-42.73 14.82,-11.77 35.62,-18.99 62.12,-21.32 25.26,-2.33 47.7,0.32 67.38,8.11 19.71,7.71 36.45,19.19 50.35,34.21 13.9,15.02 24.77,33 32.68,53.8 7.91,20.8 12.98,43.04 15.11,66.78 2.65,29.75 0.72,57.86 -5.98,84.16 -6.68,26.27 -19.08,51.36 -37.14,75.21l-84.85 -64.65c12.77,-11.68 22.13,-25.69 28.22,-42.04 6.07,-16.54 8.31,-33.17 6.79,-49.95 -0.72,-8.2 -2.45,-16.43 -5.18,-24.66 -2.65,-8.23 -6.19,-15.54 -10.65,-21.92 -4.49,-6.3 -9.84,-11.25 -16.26,-14.82 -6.39,-3.54 -13.58,-4.86 -21.72,-4.14 -13.7,1.29 -24.05,7.51 -30.96,18.76 -6.99,11.36 -12.49,25.29 -16.63,41.72 -4.06,16.54 -8.11,34.3 -11.97,53.28 -3.88,19.08 -9.87,37.14 -17.78,53.89 -8.03,16.86 -19.19,31.27 -33.61,43.24 -14.5,12.08 -34.3,19.19 -59.56,21.52 -24.37,2.24 -46.18,-0.6 -65.48,-8.63 -19.28,-8 -35.82,-19.59 -49.72,-34.61 -13.93,-15.02 -24.89,-32.89 -33,-53.37 -8.11,-20.6 -13.21,-42.12 -15.22,-64.56 -2.33,-25.89 -1.01,-51.27 4.06,-76.13 5.06,-24.86 15.34,-47.7 30.64,-68.71l81.42 62.32z"/>
   <polygon class="fil0" points="-0,4284.41 2.01,4182.79 458.16,4192.14 456.14,4293.73 "/>
   <polygon class="fil0" points="125.82,3810.31 108.67,3940.82 20.46,3928.85 68.16,3567.1 156.26,3579.07 139.11,3709.52 503.19,3758.64 489.89,3859.34 "/>
   <path class="fil0" d="M143.46 3105.89l-22.56 82.92 -118.94 83.96 34.81 -128.21 106.69 -38.67zm3.65 114.51l22.01 -81.02 492.48 -71.55 -29.95 110.66 -103.64 12.49 -46.9 172.83 83.15 62.84 -29.23 108.21 -387.93 -314.44zm138.22 -2.16l122.11 91.98 29.55 -108.73 -151.66 16.75z"/>
   <path class="fil0" d="M477.93 2339.85l75.41 -132.06c18.27,-31.97 39.19,-60.28 62.75,-84.96 23.54,-24.54 49.31,-43.01 77.34,-55.21 28.11,-12.17 58.35,-17.26 90.83,-15.02 32.6,2.13 66.78,13.81 102.92,34.93 31.99,18.67 56.65,41.29 74,67.79 17.35,26.38 28.43,54.81 33.2,85.16 4.66,30.35 3.65,61.6 -3.37,93.68 -6.91,32.08 -18.87,62.92 -35.82,92.67l-82.23 143.83 -395.03 -230.81zm365 95.9l26.1 -45.66c11.68,-20.4 20.4,-40.4 26.3,-60.39 5.87,-19.79 7.8,-38.87 5.58,-57.26 -2.16,-18.36 -8.83,-35.73 -20.11,-52.08 -11.28,-16.31 -28.02,-31.04 -50.35,-44.05 -19.39,-11.36 -38.27,-17.44 -56.74,-18.47 -18.56,-1.09 -36.02,1.93 -52.36,8.83 -16.46,7.02 -31.76,17.46 -45.98,31.48 -14.21,14.1 -26.58,30.24 -37.06,48.71l-29.72 51.88 234.34 137.01z"/>
   <polygon class="fil0" points="857.08,1733.03 1051.86,1489.22 1124.02,1548.2 992.48,1712.92 1058.65,1766.92 1183,1611.44 1255.16,1670.31 1130.84,1825.99 1203,1884.97 1341.96,1711.1 1414.12,1770.09 1212.03,2023.02 "/>
   <path class="fil0" d="M1853.09 1297.14c-11.65,31.68 -27.1,61.11 -46.38,88.1 -19.28,26.9 -41.4,51.76 -66.26,74.52 -26.5,24.14 -54.61,42.32 -84.36,54.29 -29.84,11.97 -59.87,17.67 -90.03,16.86 -30.24,-0.83 -59.9,-8.14 -88.82,-22.13 -28.92,-13.93 -55.73,-34.61 -80.19,-62.03 -24.46,-27.39 -42.12,-56.33 -52.88,-86.89 -10.76,-30.56 -15.02,-61.08 -12.77,-91.55 2.33,-30.44 10.85,-60.08 25.66,-88.9 14.82,-28.71 35.53,-55.21 61.92,-79.38 27.1,-24.77 55.01,-44.25 83.75,-58.46 28.71,-14.21 58.87,-21.12 90.43,-20.8l-0.72 106.17c-19.68,-1.32 -38.35,1.01 -56.02,7.31 -17.67,6.1 -36.05,17.98 -55.21,35.42 -15.94,14.53 -27.94,30.47 -35.94,47.7 -8.03,17.38 -12.2,35.13 -12.69,53.4 -0.4,18.27 2.93,36.42 10.04,54.41 7.11,18.15 17.75,35.02 31.88,50.84 14.41,16.14 30.04,28.63 46.98,37.46 16.86,8.83 34.32,14.01 52.36,15.34 18.07,1.41 35.94,-1.04 53.8,-7.31 17.78,-6.3 34.61,-16.75 50.55,-31.36 16.23,-14.82 28.63,-29.55 37.14,-43.96 8.43,-14.5 14.53,-26.9 18.07,-37.14l-49.72 -55.62 -60.71 55.5 -62.23 -69.63 132.46 -121.07 159.85 178.93z"/>
   <polygon class="fil0" points="1815.49,793.49 1899.21,737.27 2100.18,1043.6 2255.38,939.45 2306.65,1017.71 2067.61,1178 "/>
   <polygon class="fil0" points="2277.47,508.25 2366.9,461.76 2575.78,871.92 2486.36,918.39 "/>
   <path class="fil0" d="M3241.55 250.72c-10.67,-7.8 -23.36,-12.29 -38.06,-13.29 -14.82,-1.01 -28.22,0.2 -40.19,3.57 -7.11,1.93 -14.13,4.86 -21.03,8.6 -6.99,3.77 -13.38,8.34 -18.96,13.81 -5.7,5.38 -9.75,11.57 -12.29,18.59 -2.53,6.99 -2.65,14.82 -0.32,23.13 3.65,13.41 11.48,22.24 23.36,26.58 11.85,4.29 26.07,6.82 42.52,7.62 16.54,0.72 34.09,1.21 52.88,1.32 18.76,0.2 36.94,2.73 54.61,7.6 17.67,5.09 33.58,13.93 47.79,26.61 14.21,12.69 24.89,31.97 31.99,57.86 6.79,24.74 8.11,47.59 4.14,68.59 -4.06,20.92 -12.17,39.7 -24.34,56.13 -12.2,16.54 -27.74,30.67 -46.61,42.24 -18.87,11.65 -39.68,20.69 -62.52,27.1 -28.51,8 -56.22,11.05 -83.03,9.12 -26.87,-1.93 -53.57,-9.75 -80.07,-23.54l47.9 -95.92c13.61,10.56 28.94,17.46 46.09,20.51 17.15,3.02 33.69,2.33 49.92,-2.24 7.83,-2.24 15.54,-5.38 23.05,-9.55 7.62,-4.14 14.01,-9.03 19.39,-14.5 5.38,-5.58 9.24,-11.88 11.57,-18.87 2.33,-6.91 2.45,-14.41 0.2,-22.33 -3.65,-13.41 -11.65,-22.56 -23.85,-27.42 -12.29,-4.98 -26.9,-7.91 -43.65,-9.12 -16.83,-1.12 -34.9,-1.84 -54.21,-2.36 -19.28,-0.4 -37.83,-3.02 -55.7,-8 -17.87,-4.89 -33.92,-13.41 -48.22,-25.69 -14.21,-12.17 -24.77,-30.64 -31.56,-55.3 -6.59,-23.85 -7.71,-46.09 -3.37,-66.69 4.37,-20.6 12.69,-39.19 24.89,-55.73 12.17,-16.54 27.59,-30.64 46.18,-42.44 18.56,-11.77 38.67,-20.69 60.19,-26.67 24.86,-7.02 49.83,-10.16 75.01,-9.55 25.06,0.52 49.31,6.59 72.56,18.07l-46.26 92.16z"/>
   <polygon class="fil0" points="3657.96,143.48 3528.95,161.15 3516.98,72.02 3874.64,22.99 3886.53,112.12 3757.63,129.87 3806.86,497.92 3707.28,511.5 "/>
   <path class="fil0" d="M4520.77 289.82c-0.43,27.42 -4.98,52.48 -13.52,75.41 -8.52,22.84 -20.89,42.64 -37.35,59.27 -16.34,16.77 -36.63,29.66 -60.91,38.78 -24.14,9.15 -51.96,13.49 -83.32,13 -31.76,-0.52 -59.59,-5.78 -83.52,-15.74 -23.85,-9.95 -43.76,-23.45 -59.59,-40.71 -15.82,-17.26 -27.71,-37.35 -35.42,-60.48 -7.83,-23.16 -11.48,-48.42 -11.08,-75.84l4.57 -283.37 100.47 1.61 -4.46 279.54c-0.2,14.3 1.84,27.59 6.1,39.79 4.37,12.29 10.56,22.93 18.59,31.97 8,9.03 17.64,16.14 28.92,21.32 11.28,5.18 23.65,7.91 36.94,8.11 13.29,0.2 25.58,-2.13 36.86,-6.91 11.25,-4.86 21,-11.68 29.32,-20.4 8.31,-8.72 14.82,-19.19 19.48,-31.27 4.78,-12.06 7.22,-25.38 7.42,-39.68l4.46 -279.52 100.59 1.73 -4.55 283.37z"/>
   <path class="fil0" d="M4836.53 40.94l148.38 26.99c35.94,6.5 69.43,16.75 100.3,30.76 30.96,14.01 56.82,32.28 77.74,54.81 20.8,22.53 35.73,49.63 44.77,81.31 9.03,31.65 9.84,68.19 2.45,109.71 -6.5,36.74 -19.1,67.9 -37.86,93.39 -18.67,25.58 -41.43,45.66 -68.02,60.48 -26.58,14.82 -56.02,24.37 -88.21,28.74 -32.17,4.26 -65.05,3.34 -98.46,-2.65l-161.67 -29.43 80.59 -454.1zm34.7 379.7l51.36 9.35c22.84,4.14 44.57,5.67 65.08,4.46 20.49,-1.01 38.87,-5.78 55.21,-14.13 16.23,-8.2 30.15,-20.49 41.52,-36.83 11.45,-16.26 19.36,-37.14 23.94,-62.84 3.97,-22.21 3.25,-42.32 -2.01,-60.28 -5.38,-17.98 -14.01,-33.49 -26.1,-46.7 -12.08,-13.29 -26.99,-24.25 -44.97,-33.09 -17.87,-8.75 -37.14,-14.93 -57.86,-18.79l-58.35 -10.56 -47.82 269.39z"/>
   <polygon class="fil0" points="5514.94,193.72 5610.75,224.39 5473.02,664.28 5377.21,633.52 "/>
   <path class="fil0" d="M6242.23 489.12l130.45 76.62c31.56,18.47 59.47,39.68 83.84,63.53 24.25,23.85 42.41,49.95 54.38,78.37 12.08,28.43 16.98,59.07 14.73,91.95 -2.24,32.77 -13.81,67.5 -34.73,103.92 -18.56,32.28 -41,57.17 -67.18,74.72 -26.18,17.46 -54.29,28.63 -84.36,33.29 -30.04,4.78 -60.88,3.54 -92.64,-3.54 -31.68,-7.02 -62.23,-19.19 -91.55,-36.45l-142.1 -83.44 229.17 -398.98zm-95.61 368.82l45.09 26.61c20.08,11.77 39.96,20.6 59.56,26.7 19.71,5.98 38.58,7.91 56.65,5.78 18.15,-2.24 35.33,-8.95 51.56,-20.31 16.14,-11.25 30.76,-28.22 43.73,-50.75 11.16,-19.59 17.38,-38.67 18.39,-57.46 1.12,-18.67 -1.84,-36.31 -8.63,-52.97 -6.91,-16.54 -17.26,-32.08 -31.04,-46.49 -13.93,-14.3 -29.86,-26.9 -48.13,-37.66l-51.24 -30.04 -135.92 236.59z"/>
   <polygon class="fil0" points="6841.43,873.79 7082.1,1071.31 7023.64,1144.19 6861.02,1010.72 6807.42,1077.5 6961,1203.66 6902.54,1276.45 6748.95,1150.37 6690.49,1223.25 6862.14,1364.15 6803.56,1436.91 6553.88,1232.09 "/>
   <polygon class="fil0" points="7304.79,1284.39 7373.53,1358.59 7108.08,1609.8 7235.37,1747.36 7167.67,1811.4 6971.67,1599.67 "/>
   <polygon class="fil0" points="7668.26,1706.56 7726.93,1789.08 7431.76,2003.54 7540.46,2156.52 7465.05,2211.33 7297.8,1975.75 "/>
   <path class="fil0" d="M8047.19 2308.32l38.18 74.72 -314.44 389.94 -51.99 -101.88 67.81 -80.19 -81.31 -159.25 -103.32 10.65 -50.87 -99.58 495.94 -34.41zm-100.18 96.33l-151.42 15.94 51.16 100.18 100.27 -116.12z"/>
   <path class="fil0" d="M8391.47 3179.84l38.58 167.48c4.57,19.48 7.71,39.39 9.55,59.67 1.73,20.31 0.4,39.3 -4.17,56.85 -4.57,17.67 -13,32.97 -25.38,46.18 -12.49,13.21 -30.76,22.64 -55.01,28.31 -25.18,5.98 -47.62,3.77 -67.41,-6.47 -19.77,-10.27 -35.91,-26.3 -48.39,-47.82l-1.24 0.32c1.32,15.22 0.32,29.63 -2.93,43.13 -3.25,13.49 -8.63,25.66 -16.03,36.63 -7.42,10.88 -16.86,20.11 -28.34,27.71 -11.45,7.62 -24.34,13.12 -38.55,16.46 -23.45,5.47 -44.16,5.06 -62.23,-1.32 -18.07,-6.5 -33.69,-16.63 -47.1,-30.44 -13.29,-13.81 -24.34,-30.35 -33.17,-49.43 -8.83,-19.08 -15.54,-38.58 -20.11,-58.46l-42.41 -184.02 444.35 -104.76zm-338.7 184.14l20.51 88.9c1.73,7.62 4.34,15.13 7.8,22.64 3.57,7.39 8.14,13.78 13.72,19.16 5.67,5.29 12.29,9.24 19.88,11.68 7.62,2.45 16.26,2.53 25.89,0.2 10.44,-2.45 18.36,-7.11 23.65,-13.9 5.18,-6.82 8.63,-14.62 10.04,-23.45 1.52,-8.83 1.81,-18.07 0.92,-27.62 -0.83,-9.64 -2.24,-18.47 -4.06,-26.47l-17.26 -74.92 -101.1 23.77zm183.94 -43.24l16.54 71.64c1.73,7.62 4.26,14.93 7.71,22.04 3.34,6.91 7.6,12.98 12.77,17.95 5.09,5.09 11.16,8.63 18.27,10.76 7.11,2.13 15.13,2.13 23.85,0.12 9.24,-2.24 16.46,-5.98 21.52,-11.48 5.18,-5.47 8.63,-11.68 10.56,-18.87 1.81,-7.11 2.65,-14.93 2.24,-23.25 -0.43,-8.43 -1.44,-16.43 -3.25,-23.94l-15.45 -67.41 -94.77 22.44z"/>
   <path class="fil0" d="M8525.05 3961.01l6.1 83.84 -440.61 233.86 -8.23 -114.4 93.48 -46.78 -12.89 -178.76 -99.15 -31.16 -8.14 -111.75 469.44 165.15zm-129.62 48.83l-145.44 -45.49 8.23 112.47 137.21 -66.98z"/>
   <path class="fil0" d="M8411.98 4727.61c10.85,-7.51 19.28,-18.07 25.26,-31.65 6.01,-13.81 9.44,-26.9 10.36,-39.5 0.6,-7.31 0.2,-15.02 -0.92,-22.93 -1.09,-7.91 -3.22,-15.54 -6.39,-22.73 -3.14,-7.22 -7.51,-13.21 -13.18,-17.98 -5.7,-4.75 -12.8,-7.51 -21.32,-8.11 -13.81,-1.01 -24.66,3.37 -32.68,13.21 -8.03,9.84 -15.22,22.41 -21.52,37.86 -6.3,15.51 -12.69,32.05 -19.19,49.83 -6.5,17.87 -15.02,34.3 -25.66,49.43 -10.56,15.11 -24.17,27.19 -40.8,36.42 -16.66,9.24 -38.18,12.8 -64.76,10.88 -25.29,-1.93 -47.01,-8.43 -65.17,-19.39 -18.18,-10.96 -32.8,-24.97 -44.05,-42.24 -11.28,-17.15 -19.08,-36.74 -23.45,-58.67 -4.37,-21.81 -5.78,-44.65 -3.97,-68.51 2.24,-29.95 8.75,-57.26 19.59,-82.11 10.96,-24.97 27.22,-47.7 49.03,-68.22l73.08 78.06c-14.5,9.35 -26.07,21.64 -34.7,36.94 -8.75,15.13 -13.61,31.27 -14.93,48.22 -0.6,8.23 -0.2,16.54 1.01,25.18 1.32,8.63 3.65,16.46 7.02,23.45 3.34,6.99 7.91,12.77 13.61,17.35 5.67,4.57 12.57,7.11 20.8,7.71 13.7,1.04 24.86,-3.45 33.58,-13.38 8.75,-10.07 16.46,-22.84 23.25,-38.47 6.7,-15.65 13.61,-32.48 20.51,-50.75 6.91,-18.18 15.74,-34.93 26.3,-50.26 10.65,-15.31 24.05,-27.71 40.28,-37.14 16.14,-9.52 36.94,-13.18 62.23,-11.36 24.46,1.84 45.46,8.31 63.12,19.51 17.75,11.16 32.17,25.35 43.45,42.52 11.16,17.15 19.19,36.63 23.74,58.26 4.69,21.72 6.19,43.85 4.49,66.38 -1.96,25.98 -7.42,50.84 -16.46,74.6 -9.12,23.65 -22.93,44.65 -41.52,62.81l-70.03 -75.21z"/>
   <polygon class="fil0" points="8474.1,5081.44 8455.34,5181.3 8007.11,5095.25 8025.89,4995.35 "/>
   <polygon class="fil0" points="8387.99,5473.25 8358.44,5570.5 8010.99,5462.49 7956.3,5642.46 7867.59,5614.83 7951.84,5337.74 "/>
   <polygon class="fil0" points="8209.49,5990.16 8169.49,6083.44 7750.9,5899.93 7790.8,5806.66 "/>
   <path class="fil0" d="M7788.18 6554.05c15.34,-2.42 29.55,-8.31 42.32,-17.55 12.89,-9.24 24.05,-22.13 33.69,-38.58 9.55,-16.43 15.22,-33.58 17.15,-51.44 1.84,-17.78 0.12,-35.13 -5.15,-52.16 -5.29,-16.98 -14.01,-33 -26.21,-48.02 -12.17,-15.13 -27.39,-28.02 -45.46,-38.87 -18.59,-10.96 -37.14,-18.18 -55.93,-21.52 -18.79,-3.25 -36.74,-3.25 -53.89,0.09 -17.15,3.45 -32.89,10.07 -47.1,20 -14.3,9.95 -25.98,22.76 -35.13,38.47 -10.44,17.98 -16.03,36.14 -16.63,54.41 -0.6,18.27 3.05,35.85 11.16,52.8l-96.33 41c-13.49,-30.76 -18.39,-62.32 -14.41,-94.8 3.86,-32.48 13.81,-62.32 29.75,-89.74 18.07,-31.04 39.47,-56.82 64.33,-77.34 24.89,-20.49 51.88,-34.9 80.91,-43.33 29.12,-8.43 59.59,-10.36 91.23,-5.78 31.79,4.46 63.44,16.03 94.92,34.81 31.48,18.67 56.82,41 76.22,66.89 19.39,25.78 32.48,53.69 39.3,83.44 6.88,29.72 7.51,60.59 1.93,92.56 -5.7,31.97 -17.46,63.44 -35.65,94.6 -6.47,11.16 -14.3,22.33 -23.45,33.29 -9.03,10.96 -19.28,21 -30.53,30.15 -11.39,9.12 -23.88,16.95 -37.58,23.33 -13.81,6.5 -28.51,10.85 -44.25,13.09l-15.22 -99.78z"/>
   <path class="fil0" d="M7591.85 7034.51l-52.88 64.85 -478.27 -138.97 72.19 -88.39 99.55 31.56 112.87 -138.25 -50.35 -91.87 70.55 -86.46 226.35 447.51zm-126.97 -55.33l-74.09 -134.48 -70.95 86.98 145.04 47.5z"/>
   <polygon class="fil0" points="7147.87,7388.23 7243.39,7298.81 7303.79,7364.78 7039.09,7612.73 6978.58,7546.76 7074.1,7457.34 6824.51,7184.81 6898.31,7115.71 "/>
   <path class="fil0" d="M6760.15 7828.75l-67.99 48.42 -424.9 -261.88 92.79 -65.97 87.78 57.05 144.95 -103.12 -24.57 -102.11 90.66 -64.45 101.28 492.05zm-107.98 -87.29l-36.25 -149.5 -91.23 64.85 127.49 84.65z"/>
   <path class="fil0" d="M3795.78 3493.56l0 1304.56c0,397.48 -318.62,719.64 -711.72,719.64 -60.28,0 -118.74,-7.6 -174.67,-21.81 -308.58,-78.78 -537.05,-361.34 -537.05,-697.83l0 -1919.24 0.12 0 1423.33 614.68z"/>
   <path class="fil0" d="M3321.31 2638.93c0,132.58 -106.17,239.96 -237.31,239.96 -130.91,0 -237.08,-107.38 -237.08,-239.96 0,-132.44 106.17,-239.84 237.08,-239.84 131.14,0 237.31,107.4 237.31,239.84z"/>
   <path class="fil0" d="M6168.23 5038.02c0,846 -618.65,1545.84 -1423.42,1662.14 -77.54,11.28 -156.72,17.06 -237.31,17.06l-237.22 -102.31 -474.5 -205.03 -487.79 -210.61 -672.13 -290.31c138.33,57.17 289.67,88.62 448.32,88.62 19.88,0 39.68,-0.49 59.38,-1.41 244.1,-12.2 468.8,-98.97 652.22,-238.23 284.41,-215.99 469.64,-558.14 474.5,-944.34 0.12,-5.18 0.12,-10.36 0.12,-15.54 0,-5.18 0,-10.24 -0.12,-15.42l0 -2863.41 474.53 0c524.05,0 948.92,429.65 948.92,959.68 0,288.35 -125.88,547.06 -325,722.97 276.5,169.81 500.08,419.09 639.65,716.5 102.51,218 159.85,462.01 159.85,719.64z"/>
   <polygon class="fil0" points="3475.12,8198.44 3369.27,8259.64 3328.36,8185.84 3499.49,8091.75 3587.9,8110.14 3495.84,8562.11 3405,8543.12 "/>
   <path class="fil0" d="M4000.6 8464.12c-5.27,0.92 -10.44,1.73 -15.62,2.13 -5.18,0.63 -10.67,0.63 -16.14,0.23 -21.52,-1.44 -40.71,-6.62 -57.74,-15.54 -17.06,-9.03 -31.39,-20.6 -42.96,-34.93 -11.57,-14.3 -20.2,-30.84 -25.78,-49.72 -5.67,-18.9 -7.8,-38.78 -6.39,-59.59 1.52,-23.85 7.31,-45.09 17.46,-63.84 10.04,-18.67 23.13,-34.41 39.27,-47.3 16.03,-12.8 34.73,-22.33 55.82,-28.51 21.03,-6.21 43.56,-8.55 67.61,-6.91 23.54,1.61 45.46,6.91 65.77,15.82 20.28,9.03 37.55,21 51.88,35.82 14.3,14.93 25.26,32.4 32.77,52.19 7.51,19.88 10.44,41.72 8.92,65.57 -1.09,16.54 -3.65,31.45 -7.51,44.94 -3.94,13.41 -8.72,26.1 -14.41,37.86 -5.78,11.77 -12.26,23.05 -19.68,33.61 -7.39,10.65 -15.13,21.52 -23.13,32.77l-110.02 150.65 -117.65 -7.94 117.53 -157.32zm-68.51 -146.97c-1.32,20.72 4.26,38.47 16.83,53 12.69,14.62 29.86,22.61 51.79,24.05 21.81,1.52 39.99,-4.06 54.38,-16.86 14.41,-12.77 22.24,-29.52 23.65,-50.35 1.32,-20.8 -4.26,-38.47 -16.83,-53.08 -12.6,-14.62 -29.84,-22.53 -51.76,-24.05 -21.84,-1.41 -39.99,4.17 -54.32,16.95 -14.41,12.69 -22.33,29.55 -23.74,50.35z"/>
   <path class="fil0" d="M4387.38 8297.44c-1.41,-21.2 1.32,-39.99 8.23,-56.31 6.91,-16.34 16.95,-30.35 30.15,-41.83 13.29,-11.57 28.92,-20.6 46.98,-26.99 18.18,-6.5 37.66,-10.36 58.67,-11.8 21.03,-1.41 40.91,-0.2 59.7,3.77 18.76,4.06 35.3,10.76 49.83,20.51 14.41,9.64 26.18,22.13 35.3,37.43 9.24,15.25 14.53,33.52 15.94,54.72 1.64,25.06 -3.65,46.98 -16.03,65.66 -12.29,18.67 -30.44,32.48 -54.41,41.52l0.12 1.32c27.91,5.5 49.72,17.35 65.66,35.62 15.82,18.27 24.66,41.72 26.58,70.35 1.44,22.13 -1.73,41.92 -9.32,59.38 -7.71,17.46 -18.59,32.17 -32.68,44.25 -14.01,12.08 -30.47,21.52 -49.43,28.43 -18.87,6.99 -38.87,11.16 -59.9,12.57 -21,1.41 -41.29,-0.09 -61,-4.46 -19.68,-4.26 -37.26,-11.48 -52.77,-21.52 -15.54,-10.04 -28.22,-23.25 -38.06,-39.59 -9.95,-16.23 -15.62,-35.42 -17.06,-57.46 -1.93,-28.6 3.77,-52.97 17.06,-73.28 13.29,-20.28 33.49,-35.02 60.39,-44.25l-0.12 -1.21c-24.86,-5.78 -44.65,-17.06 -59.36,-33.89 -14.62,-16.86 -22.84,-37.78 -24.48,-62.95zm97.33 7.11c0.92,14.33 6.91,26.1 17.87,35.33 10.96,9.35 24.77,13.41 41.52,12.29 16.66,-1.12 29.84,-7.02 39.5,-17.67 9.64,-10.65 13.98,-23.13 12.98,-37.46 -0.92,-13.9 -6.79,-25.38 -17.75,-34.7 -10.96,-9.24 -24.77,-13.29 -41.52,-12.2 -16.66,1.12 -29.84,7.02 -39.47,17.67 -9.67,10.67 -14.01,22.96 -13.12,36.74zm4.69 188.28c1.01,16.05 7.71,29.23 20.08,39.79 12.29,10.47 28.11,15.02 47.42,13.81 19.28,-1.41 34.3,-8.03 45.17,-20.08 10.85,-12 15.71,-26.01 14.62,-42.04 -1.04,-16.43 -7.74,-29.95 -20.11,-40.51 -12.29,-10.44 -28.11,-15.02 -47.39,-13.7 -19.31,1.24 -34.32,7.91 -45.17,20 -10.88,12.08 -15.74,26.3 -14.62,42.73z"/>
   <path class="fil0" d="M4959.65 8475.13l141.5 -193.78c7.22,-9.93 14.21,-20.89 20.92,-32.97 6.79,-12.08 8.72,-24.89 5.98,-38.47 -3.14,-15.34 -11.08,-26.3 -23.77,-32.68 -12.69,-6.5 -26.38,-8.11 -41.09,-5.09 -17.78,3.65 -30.35,12.08 -37.98,25.18 -7.71,13.21 -10.44,27.91 -8.43,44.37l-96.1 12.69c-3.57,-23.65 -2.85,-44.97 2.13,-63.96 4.86,-18.96 13.09,-35.71 24.66,-50.03 11.57,-14.41 26.1,-26.38 43.65,-36.02 17.55,-9.64 37.26,-16.75 59.18,-21.32 20.2,-4.17 39.68,-5.27 58.55,-3.25 18.79,2.04 35.94,7.42 51.27,16.03 15.31,8.55 28.4,20.51 39.27,36.05 10.76,15.54 18.47,34.5 23.05,57.03 2.93,14.53 4.14,27.94 3.65,40.19 -0.6,12.29 -2.53,23.85 -5.9,34.53 -3.25,10.65 -7.71,20.8 -13.18,30.35 -5.5,9.52 -11.68,18.96 -18.59,28.4l-111.66 146.39 198.24 -41.23 17.15 84.16 -311.91 64.97 -20.6 -101.51z"/>
   <path class="fil0" d="M5755.96 8101.31c0,33.17 26.58,60.08 59.38,60.08 32.77,0 59.36,-26.9 59.36,-60.08 0,-33.2 -26.58,-60.1 -59.36,-60.1 -32.8,0 -59.38,26.9 -59.38,60.1z"/>
   <path class="fil0" d="M2671.82 8101.13c0,33.2 26.58,60.1 59.38,60.1 32.77,0 59.38,-26.9 59.38,-60.1 0,-33.17 -26.61,-59.99 -59.38,-59.99 -32.8,0 -59.38,26.82 -59.38,59.99z"/>
   <polygon class="fil0" points="9927.76,8636.51 10000.55,8636.51 10000.55,0 9927.76,0 "/>
   <path class="fil0" d="M12808.65 3805.94l-372.1 0 0 -174.47 -5.38 0c-16.14,23.65 -37.35,47.7 -63.33,72.25 -26.1,24.48 -56.65,46.81 -91.75,66.69 -35.02,20.11 -73.68,36.45 -115.92,49.14 -42.21,12.77 -85.77,19.16 -130.74,19.16 -97.02,0 -185.12,-16.83 -264.18,-50.44 -79.18,-33.61 -146.99,-80.91 -203.62,-141.79 -56.65,-60.91 -100.18,-133.18 -130.82,-216.91 -30.56,-83.44 -45.8,-175.31 -45.8,-275.26 0,-92.67 13.93,-181.4 41.83,-265.85 27.82,-84.53 67.38,-159.54 118.65,-224.91 51.24,-65.48 113.56,-117.73 187.36,-156.83 73.68,-39.07 157.24,-58.55 250.72,-58.55 84.44,0 163.19,13.09 235.98,39.47 72.76,26.38 132.46,71.35 179.25,135l5.38 0 0 -703.29 404.47 0 0 1886.58zm-372.1 -662.58c0,-99.98 -28.31,-180.89 -84.93,-242.6 -56.54,-61.8 -136.12,-92.76 -238.63,-92.76 -102.43,0 -182.01,30.96 -238.63,92.76 -56.65,61.72 -84.85,142.62 -84.85,242.6 0,100.07 28.2,180.97 84.85,242.69 56.62,61.8 136.2,92.64 238.63,92.64 102.51,0 182.1,-30.84 238.63,-92.64 56.62,-61.72 84.93,-142.62 84.93,-242.69z"/>
   <path class="fil0" d="M14065.13 3639.66l-5.38 0c-44.97,70.84 -104.73,121.7 -179.33,152.66 -74.6,30.96 -153.27,46.38 -235.9,46.38 -61.2,0 -120.06,-8.72 -176.72,-25.89 -56.54,-17.23 -106.45,-43.21 -149.5,-77.74 -43.24,-34.5 -77.45,-77.22 -102.51,-128.18 -25.18,-50.87 -37.78,-109.94 -37.78,-177.23 0,-76.33 13.93,-140.87 41.83,-193.55 27.79,-52.68 65.57,-96.33 113.16,-130.85 47.62,-34.5 102.02,-61.4 163.11,-80.47 61.23,-19.08 124.55,-33.09 190.12,-42.24 65.66,-9.03 131.23,-14.5 196.91,-16.43 65.57,-1.73 126.16,-2.65 181.98,-2.65 0,-72.68 -25.58,-130.42 -76.82,-173.15 -51.27,-42.64 -111.86,-64.16 -182.1,-64.16 -66.49,0 -127.2,14.1 -182.01,42.32 -54.81,28.22 -103.72,66.78 -146.85,115.92l-215.79 -223.61c75.5,-70.84 163.62,-124.03 264.3,-159.45 100.59,-35.53 204.94,-53.17 312.72,-53.17 118.65,0 216.19,14.9 292.64,44.94 76.22,30.07 137.41,74.12 183.3,132.15 45.78,58.26 77.65,129.62 95.81,214.18 17.87,84.44 26.9,182.18 26.9,293.04l0 673.46 -372.1 0 0 -166.27zm-99.78 -414.43c-30.56,0 -68.71,1.32 -114.6,4.06 -45.78,2.76 -89.91,10.47 -132.15,23.25 -42.21,12.69 -78.14,31.76 -107.78,57.14 -29.63,25.49 -44.57,61 -44.57,106.37 0,49.03 20.6,85.48 62.03,109.13 41.4,23.54 84.53,35.42 129.41,35.42 39.56,0 77.74,-5.5 114.57,-16.34 36.86,-10.96 69.63,-26.38 98.46,-46.38 28.83,-20 51.67,-45.37 68.82,-76.33 17.06,-30.96 25.58,-67.3 25.58,-109.1l0 -87.21 -99.78 0z"/>
   <path class="fil0" d="M14941.34 3015.35l-266.94 0 0 -327.22 266.94 0 0 -234.49c0,-72.68 6.27,-141.27 18.87,-205.83 12.57,-64.56 36.83,-121.3 72.76,-170.41 35.94,-49.03 87.7,-87.7 155.11,-115.92 67.38,-28.11 155.88,-42.21 265.62,-42.21 41.32,0 81.71,1.81 121.3,5.47 39.47,3.65 78.26,10.04 115.89,19.08l-18.87 346.24c-23.33,-9.03 -44.97,-15.85 -64.65,-20.4 -19.88,-4.57 -42.24,-6.82 -67.5,-6.82 -64.65,0 -113.16,14.13 -145.56,42.24 -32.37,28.2 -48.51,85.97 -48.51,173.15l0 209.92 299.31 0 0 327.22 -299.31 0 0 823.36 -404.47 0 0 -823.36z"/>
   <path class="fil0" d="M17149.59 3576.86c-64.74,83.75 -146.56,148.2 -245.42,193.58 -98.86,45.46 -201.26,68.3 -307.34,68.3 -100.67,0 -195.47,-16.43 -284.49,-49.11 -88.93,-32.8 -166.27,-79.58 -231.84,-140.49 -65.66,-60.88 -117.33,-133.96 -155.08,-219.53 -37.75,-85.37 -56.54,-180.77 -56.54,-286.25 0,-105.33 18.79,-200.77 56.54,-286.22 37.75,-85.45 89.42,-158.53 155.08,-219.56 65.57,-60.88 142.91,-107.69 231.84,-140.35 89.02,-32.68 183.82,-49.14 284.49,-49.14 93.48,0 178.33,16.46 254.77,49.14 76.42,32.66 141.18,79.47 194.18,140.35 52.97,61.02 93.88,134.1 122.71,219.56 28.71,85.45 43.13,180.89 43.13,286.22l0 128.21 -938.36 0c16.14,78.14 51.24,140.38 105.13,186.76 53.92,46.38 120.5,69.54 199.56,69.54 66.49,0 122.71,-15.05 168.49,-44.97 45.89,-29.95 85.88,-68.62 119.98,-115.92l283.17 209.89zm-342.44 -583.52c1.81,-68.91 -20.72,-127.98 -67.41,-177.12 -46.78,-49.11 -106.97,-73.57 -180.66,-73.57 -44.97,0 -84.44,7.31 -118.65,21.81 -34.09,14.53 -63.33,33.09 -87.61,55.82 -24.25,22.84 -43.21,49.03 -56.62,79.09 -13.49,30.04 -21.12,61.4 -22.93,93.97l533.89 0z"/>
   <polygon class="fil0" points="16844.03,6717.33 19928.21,6717.33 19928.21,6237.57 16844.03,6237.57 "/>
   <polygon class="fil0" points="19691.01,5997.61 19928.21,5997.61 19928.21,5517.82 19691.01,5517.82 "/>
   <polygon class="fil0" points="18267.6,5277.98 19928.21,5277.98 19928.21,4798.18 18267.6,4798.18 "/>
   <polygon class="fil0" points="18267.6,4558.23 19928.21,4558.23 19928.21,4078.46 18267.6,4078.46 "/>
   <polygon class="fil0" points="11388.65,5529.44 11691.53,5529.44 11691.53,5622.32 11488.14,5622.32 11488.14,5715.19 11676.22,5715.19 11676.22,5808.06 11488.14,5808.06 11488.14,5985.99 11388.65,5985.99 "/>
   <path class="fil0" d="M11762.31 5757.71c0,-36.42 6.07,-69.71 18.27,-99.35 12.06,-29.63 28.92,-54.92 50.64,-75.73 21.72,-20.8 47.39,-36.86 77.14,-48.02 29.75,-11.16 62.23,-16.75 97.54,-16.75 35.33,0 67.81,5.58 97.54,16.75 29.75,11.16 55.53,27.22 77.17,48.02 21.69,20.8 38.55,46.09 50.64,75.73 12.17,29.63 18.27,62.92 18.27,99.35 0,36.54 -6.1,69.63 -18.27,99.38 -12.08,29.63 -28.94,54.81 -50.64,75.73 -21.64,20.92 -47.42,36.83 -77.17,47.99 -29.72,11.28 -62.2,16.77 -97.54,16.77 -35.3,0 -67.79,-5.5 -97.54,-16.77 -29.75,-11.16 -55.41,-27.07 -77.14,-47.99 -21.72,-20.92 -38.58,-46.09 -50.64,-75.73 -12.2,-29.75 -18.27,-62.84 -18.27,-99.38zm103.32 0c0,21.52 3.25,41.11 9.95,58.98 6.47,17.87 15.91,33.4 28.31,46.49 12.37,12.98 27.1,23.25 44.25,30.64 17.26,7.22 36.42,10.88 57.74,10.88 21.32,0 40.51,-3.65 57.77,-10.88 17.15,-7.39 31.85,-17.67 44.25,-30.64 12.37,-13.09 21.81,-28.63 28.4,-46.49 6.62,-17.87 9.87,-37.46 9.87,-58.98 0,-21 -3.25,-40.6 -9.87,-58.67 -6.59,-18.07 -16.03,-33.69 -28.4,-46.78 -12.4,-13.09 -27.1,-23.33 -44.25,-30.56 -17.26,-7.39 -36.45,-11.05 -57.77,-11.05 -21.32,0 -40.48,3.65 -57.74,11.05 -17.15,7.22 -31.88,17.46 -44.25,30.56 -12.4,13.09 -21.84,28.71 -28.31,46.78 -6.7,18.07 -9.95,37.66 -9.95,58.67z"/>
   <path class="fil0" d="M12340.65 5529.44l174.7 0c22.93,0 44.74,2.24 65.34,6.7 20.63,4.57 38.67,12.2 54.21,22.64 15.54,10.56 27.82,24.77 37.06,42.52 9.12,17.87 13.61,40.11 13.61,66.78 0,32.28 -8.23,59.7 -24.77,82.23 -16.66,22.53 -40.91,36.83 -72.79,42.93l114.8 192.74 -119.14 0 -94.4 -182.5 -49.14 0 0 182.5 -99.46 0 0 -456.55zm99.46 189l58.67 0c8.95,0 18.39,-0.4 28.43,-1.01 9.95,-0.6 18.99,-2.65 27.02,-5.78 8.11,-3.25 14.82,-8.34 20.2,-15.13 5.18,-6.91 7.91,-16.63 7.91,-29.03 0,-11.68 -2.33,-20.92 -7.02,-27.79 -4.75,-6.82 -10.65,-12.08 -17.84,-15.74 -7.22,-3.65 -15.54,-6.1 -24.89,-7.42 -9.44,-1.32 -18.47,-1.93 -27.39,-1.93l-65.08 0 0 103.84z"/>
   <polygon class="fil0" points="12781.23,5529.44 13087.96,5529.44 13087.96,5622.32 12880.69,5622.32 12880.69,5707.39 13076.51,5707.39 13076.51,5800.27 12880.69,5800.27 12880.69,5893.11 13099.44,5893.11 13099.44,5985.99 12781.23,5985.99 "/>
   <path class="fil0" d="M13425.85 5641.02c-8.03,-10.36 -18.99,-17.98 -32.77,-22.96 -13.81,-4.86 -26.9,-7.39 -39.3,-7.39 -7.19,0 -14.62,0.92 -22.33,2.65 -7.6,1.73 -14.82,4.34 -21.61,8 -6.79,3.65 -12.37,8.55 -16.54,14.53 -4.26,5.98 -6.39,13.41 -6.39,21.92 0,13.81 5.06,24.37 15.22,31.56 10.24,7.31 23.13,13.61 38.55,18.79 15.54,5.06 32.28,10.33 50.15,15.42 17.75,5.18 34.53,12.57 50.03,21.92 15.54,9.44 28.43,22.21 38.58,38.06 10.16,15.94 15.34,37.14 15.34,63.84 0,25.38 -4.78,47.5 -14.01,66.38 -9.44,18.99 -22.04,34.61 -37.98,47.1 -15.94,12.49 -34.41,21.72 -55.5,27.71 -21.03,5.98 -43.24,9.03 -66.61,9.03 -29.32,0 -56.62,-4.46 -81.68,-13.61 -24.97,-8.92 -48.42,-23.54 -70.15,-43.73l70.84 -78.66c10.16,13.7 23.05,24.34 38.58,31.85 15.54,7.62 31.56,11.28 48.19,11.28 8.03,0 16.14,-0.92 24.48,-2.85 8.31,-1.93 15.71,-4.86 22.33,-8.72 6.59,-3.86 11.88,-8.83 15.94,-14.82 4.06,-6.1 6.07,-13.09 6.07,-21.32 0,-13.7 -5.27,-24.57 -15.62,-32.48 -10.44,-8.03 -23.45,-14.73 -39.19,-20.4 -15.74,-5.58 -32.77,-11.16 -51.04,-16.75 -18.27,-5.58 -35.33,-13.09 -51.07,-22.53 -15.71,-9.55 -28.83,-21.92 -39.16,-37.46 -10.47,-15.42 -15.65,-35.82 -15.65,-61.2 0,-24.57 4.78,-45.98 14.33,-64.45 9.64,-18.5 22.33,-34.01 38.27,-46.49 16.03,-12.4 34.3,-21.84 55.21,-28.02 20.8,-6.3 42.21,-9.32 64.33,-9.32 25.49,0 50.26,3.65 74,10.96 23.85,7.31 45.29,19.48 64.36,36.74l-68.22 75.41z"/>
   <polygon class="fil0" points="13679.65,5618.46 13550.84,5618.46 13550.84,5529.44 13907.92,5529.44 13907.92,5618.46 13779.11,5618.46 13779.11,5985.99 13679.65,5985.99 "/>
   <path class="fil0" d="M14071.83 5529.44l82.32 0 196.28 456.55 -112.24 0 -38.87 -96.73 -175.31 0 -37.66 96.73 -109.71 0 195.19 -456.55zm38.27 132.87l-54.81 141.82 110.22 0 -55.41 -141.82z"/>
   <polygon class="fil0" points="14423.16,5529.44 14522.66,5529.44 14522.66,5893.11 14706.88,5893.11 14706.88,5985.99 14423.16,5985.99 "/>
   <polygon class="fil0" points="14783.9,5986.05 14883.37,5986.05 14883.37,5529.5 14783.9,5529.5 "/>
   <polygon class="fil0" points="15009.73,5881.49 15101.57,5881.49 15044.14,6063.38 14962.52,6063.38 "/>
   <path class="fil0" d="M15570.86 5529.44l82.32 0 196.31 456.55 -112.27 0 -38.87 -96.73 -175.31 0 -37.63 96.73 -109.73 0 195.19 -456.55zm38.27 132.87l-54.81 141.82 110.22 0 -55.41 -141.82z"/>
   <polygon class="fil0" points="15922.14,5529.44 16021.6,5529.44 16021.6,5893.11 16205.82,5893.11 16205.82,5985.99 15922.14,5985.99 "/>
   <polygon class="fil0" points="16283.05,5986.05 16382.54,5986.05 16382.54,5529.5 16283.05,5529.5 "/>
   <polygon class="fil0" points="16496.59,5529.44 16647.09,5529.44 16751.05,5827.34 16752.25,5827.34 16856.9,5529.44 17006.71,5529.44 17006.71,5985.99 16907.25,5985.99 16907.25,5635.84 16905.92,5635.84 16787.38,5985.99 16711.46,5985.99 16597.38,5635.84 16596.05,5635.84 16596.05,5985.99 16496.59,5985.99 "/>
   <polygon class="fil0" points="17125.97,5529.44 17432.7,5529.44 17432.7,5622.32 17225.43,5622.32 17225.43,5707.39 17421.14,5707.39 17421.14,5800.27 17225.43,5800.27 17225.43,5893.11 17444.18,5893.11 17444.18,5985.99 17125.97,5985.99 "/>
   <polygon class="fil0" points="17547.41,5529.44 17682.61,5529.44 17874.55,5846.73 17875.87,5846.73 17875.87,5529.44 17975.25,5529.44 17975.25,5985.99 17845.11,5985.99 17648.2,5660.98 17646.88,5660.98 17646.88,5985.99 17547.41,5985.99 "/>
   <polygon class="fil0" points="18178.09,5618.46 18049.28,5618.46 18049.28,5529.44 18406.36,5529.44 18406.36,5618.46 18277.46,5618.46 18277.46,5985.99 18178.09,5985.99 "/>
   <path class="fil0" d="M18570.13 5529.44l82.32 0 196.31 456.55 -112.27 0 -38.87 -96.73 -175.28 0 -37.66 96.73 -109.71 0 195.16 -456.55zm38.18 132.87l-54.72 141.82 110.25 0 -55.53 -141.82z"/>
   <path class="fil0" d="M18917.66 5529.44l174.67 0c23.05,0 44.77,2.24 65.46,6.7 20.51,4.57 38.58,12.2 54.12,22.64 15.51,10.56 27.79,24.77 37.03,42.52 9.15,17.87 13.61,40.11 13.61,66.78 0,32.28 -8.23,59.7 -24.77,82.23 -16.63,22.53 -40.8,36.83 -72.68,42.93l114.71 192.74 -119.17 0 -94.4 -182.5 -49.11 0 0 182.5 -99.46 0 0 -456.55zm99.46 189l58.67 0c8.92,0 18.47,-0.4 28.43,-1.01 9.93,-0.6 18.96,-2.65 27.07,-5.78 8.03,-3.25 14.73,-8.34 20,-15.13 5.38,-6.91 8.03,-16.63 8.03,-29.03 0,-11.68 -2.33,-20.92 -6.99,-27.79 -4.69,-6.82 -10.67,-12.08 -17.87,-15.74 -7.22,-3.65 -15.54,-6.1 -24.86,-7.42 -9.35,-1.32 -18.5,-1.93 -27.42,-1.93l-65.05 0 0 103.84z"/>
   <polygon class="fil0" points="19353.12,5986.05 19452.58,5986.05 19452.58,5529.5 19353.12,5529.5 "/>
   <polygon class="fil0" points="11390.52,6249.16 11697.14,6249.16 11697.14,6342.04 11489.9,6342.04 11489.9,6427.09 11685.69,6427.09 11685.69,6519.96 11489.9,6519.96 11489.9,6612.84 11708.74,6612.84 11708.74,6705.71 11390.52,6705.71 "/>
   <path class="fil0" d="M12253.18 6249.16l82.32 0 196.42 456.55 -112.27 0 -38.99 -96.73 -175.28 0 -37.66 96.73 -109.62 0 195.07 -456.55zm38.27 132.87l-54.81 141.79 110.22 0 -55.41 -141.79z"/>
   <polygon class="fil0" points="12640.91,6249.16 12791.33,6249.16 12895.36,6547.06 12896.6,6547.06 13001.13,6249.16 13151.06,6249.16 13151.06,6705.71 13051.56,6705.71 13051.56,6355.53 13050.27,6355.53 12931.7,6705.71 12855.77,6705.71 12741.69,6355.53 12740.37,6355.53 12740.37,6705.71 12640.91,6705.71 "/>
   <path class="fil0" d="M13306.6 6249.16l168.29 0c19.59,0 39.16,1.44 58.95,4.26 19.79,2.76 37.58,8.34 53.28,16.75 15.74,8.34 28.43,20.11 38.27,35.13 9.75,15.02 14.73,35.02 14.73,59.99 0,25.78 -7.22,47.1 -21.41,64.13 -14.21,16.98 -33.09,29.15 -56.45,36.45l0 1.21c14.93,2.24 28.43,6.42 40.51,12.6 12.08,6.27 22.53,14.21 31.25,23.85 8.63,9.64 15.34,20.89 20.11,33.81 4.66,12.98 6.99,26.79 6.99,41.4 0,23.94 -5.06,44.14 -15.34,60.19 -10.24,16.23 -23.33,29.12 -39.56,39.07 -16.14,9.84 -34.21,16.95 -54.52,21.2 -20.2,4.37 -40.19,6.5 -60.19,6.5l-184.92 0 0 -456.55zm99.46 182.5l72.07 0c7.6,0 15.22,-0.81 22.61,-2.65 7.42,-1.73 14.13,-4.46 20,-8.31 5.98,-3.86 10.76,-9.03 14.41,-15.42 3.65,-6.5 5.38,-14.21 5.38,-23.25 0,-9.44 -1.93,-17.26 -5.98,-23.54 -4.06,-6.21 -9.24,-11.08 -15.62,-14.53 -6.39,-3.45 -13.61,-5.98 -21.72,-7.39 -8.11,-1.52 -15.94,-2.36 -23.56,-2.36l-67.58 0 0 97.45zm0 188.89l89.22 0c7.71,0 15.42,-0.89 23.33,-2.62 7.83,-1.64 15.02,-4.69 21.32,-8.95 6.39,-4.37 11.57,-9.84 15.62,-16.75 3.97,-6.79 6.1,-15.34 6.1,-25.18 0,-10.76 -2.73,-19.48 -8.03,-26.07 -5.27,-6.7 -11.97,-11.8 -20,-15.25 -8.11,-3.45 -16.83,-5.78 -26.18,-6.99 -9.32,-1.32 -18.15,-1.93 -26.18,-1.93l-75.21 0 0 103.72z"/>
   <polygon class="fil0" points="13782.19,6705.68 13881.77,6705.68 13881.77,6249.13 13782.19,6249.13 "/>
   <polygon class="fil0" points="14039.81,6249.16 14346.55,6249.16 14346.55,6342.04 14139.27,6342.04 14139.27,6427.09 14334.98,6427.09 14334.98,6519.96 14139.27,6519.96 14139.27,6612.84 14358.02,6612.84 14358.02,6705.71 14039.81,6705.71 "/>
   <polygon class="fil0" points="14501.45,6249.16 14636.65,6249.16 14828.58,6566.46 14829.91,6566.46 14829.91,6249.16 14929.28,6249.16 14929.28,6705.71 14799.27,6705.71 14602.24,6380.71 14600.91,6380.71 14600.91,6705.71 14501.45,6705.71 "/>
   <polygon class="fil0" points="15172.26,6338.18 15043.45,6338.18 15043.45,6249.16 15400.53,6249.16 15400.53,6338.18 15271.64,6338.18 15271.64,6705.71 15172.26,6705.71 "/>
   <path class="fil0" d="M15604.58 6249.16l82.23 0 196.39 456.55 -112.27 0 -38.87 -96.73 -175.28 0 -37.66 96.73 -109.73 0 195.19 -456.55zm38.27 132.87l-54.81 141.79 110.22 0 -55.41 -141.79z"/>
   <polygon class="fil0" points="15996.08,6249.16 16095.54,6249.16 16095.54,6612.84 16279.77,6612.84 16279.77,6705.71 15996.08,6705.71 "/>
   <polygon class="fil0" points="16397.15,6705.68 16496.62,6705.68 16496.62,6249.13 16397.15,6249.13 "/>
   <path class="fil0" d="M11609.85 4921.3c-8,-10.36 -18.96,-17.95 -32.77,-22.93 -13.81,-4.89 -26.9,-7.42 -39.3,-7.42 -7.19,0 -14.62,0.92 -22.33,2.65 -7.6,1.73 -14.82,4.37 -21.61,8.03 -6.79,3.65 -12.37,8.52 -16.54,14.62 -4.26,5.87 -6.39,13.29 -6.39,21.81 0,13.81 5.06,24.37 15.22,31.56 10.24,7.42 23.13,13.61 38.55,18.79 15.54,5.18 32.28,10.36 50.15,15.42 17.75,5.18 34.53,12.6 50.03,21.92 15.54,9.44 28.43,22.24 38.58,38.06 10.16,15.94 15.34,37.14 15.34,63.84 0,25.38 -4.78,47.5 -14.01,66.38 -9.44,18.99 -22.04,34.61 -37.98,47.1 -15.94,12.49 -34.41,21.72 -55.5,27.71 -21.03,5.98 -43.24,9.03 -66.61,9.03 -29.32,0 -56.62,-4.46 -81.68,-13.49 -24.97,-9.03 -48.42,-23.65 -70.15,-43.85l70.84 -78.66c10.16,13.81 23.05,24.37 38.58,31.88 15.54,7.6 31.56,11.25 48.22,11.25 8,0 16.11,-0.92 24.46,-2.85 8.31,-1.93 15.74,-4.86 22.33,-8.72 6.59,-3.86 11.88,-8.83 15.94,-14.82 4.06,-5.98 5.98,-13.09 5.98,-21.32 0,-13.7 -5.18,-24.57 -15.54,-32.48 -10.44,-8 -23.45,-14.7 -39.19,-20.4 -15.71,-5.47 -32.77,-11.16 -51.04,-16.75 -18.27,-5.58 -35.33,-13.09 -51.07,-22.53 -15.71,-9.55 -28.8,-21.92 -39.16,-37.35 -10.47,-15.54 -15.65,-35.94 -15.65,-61.31 0,-24.57 4.78,-45.98 14.33,-64.45 9.64,-18.47 22.33,-34.01 38.27,-46.49 15.94,-12.37 34.3,-21.81 55.21,-28.02 20.8,-6.27 42.21,-9.32 64.36,-9.32 25.46,0 50.24,3.65 73.97,10.96 23.85,7.31 45.29,19.48 64.36,36.74l-68.22 75.41z"/>
   <path class="fil0" d="M12111.71 4928.37c-9.84,-11.97 -21.84,-21.2 -36.02,-27.71 -14.33,-6.39 -30.76,-9.75 -49.43,-9.75 -18.7,0 -36.05,3.65 -51.99,11.08 -15.94,7.31 -29.72,17.46 -41.4,30.64 -11.77,13 -20.8,28.63 -27.51,46.7 -6.5,18.07 -9.84,37.66 -9.84,58.67 0,21.52 3.34,41.11 9.84,59.07 6.7,17.78 15.74,33.32 27.19,46.41 11.39,13.09 24.97,23.33 40.4,30.64 15.54,7.19 32.28,10.85 50.06,10.85 20.49,0 38.55,-4.26 54.29,-12.89 15.74,-8.6 28.63,-20.6 38.87,-36.02l82.83 62.52c-19.08,27.1 -43.36,47.01 -72.68,59.9 -29.23,12.98 -59.47,19.36 -90.43,19.36 -35.33,0 -67.9,-5.47 -97.65,-16.75 -29.75,-11.16 -55.53,-27.1 -77.14,-47.99 -21.72,-20.83 -38.58,-46.09 -50.75,-75.73 -12.08,-29.75 -18.07,-62.84 -18.07,-99.38 0,-36.42 5.98,-69.63 18.07,-99.26 12.17,-29.63 29.03,-54.9 50.75,-75.73 21.61,-20.89 47.39,-36.94 77.14,-48.11 29.75,-11.16 62.32,-16.75 97.65,-16.75 12.69,0 25.87,1.21 39.79,3.45 13.78,2.45 27.39,6.19 40.8,11.36 13.38,5.18 26.27,11.97 38.55,20.6 12.29,8.63 23.45,19.19 33.2,31.68l-76.53 63.12z"/>
   <polygon class="fil0" points="12315.73,5266.3 12415.19,5266.3 12415.19,4809.75 12315.73,4809.75 "/>
   <polygon class="fil0" points="12573.35,4809.75 12880,4809.75 12880,4902.71 12672.84,4902.71 12672.84,4987.67 12868.52,4987.67 12868.52,5080.55 12672.84,5080.55 12672.84,5173.42 12891.57,5173.42 12891.57,5266.3 12573.35,5266.3 "/>
   <polygon class="fil0" points="13034.96,4809.75 13170.16,4809.75 13362.1,5127.01 13363.42,5127.01 13363.42,4809.75 13462.88,4809.75 13462.88,5266.3 13332.75,5266.3 13135.75,4941.29 13134.43,4941.29 13134.43,5266.3 13034.96,5266.3 "/>
   <polygon class="fil0" points="13594.8,5173.45 13823.68,4898.71 13603.12,4898.71 13603.12,4809.78 13944.26,4809.78 13944.26,4898.71 13719.84,5173.45 13951.89,5173.45 13951.89,5266.32 13594.8,5266.32 "/>
   <polygon class="fil0" points="14087.69,4809.75 14394.42,4809.75 14394.42,4902.71 14187.18,4902.71 14187.18,4987.67 14382.85,4987.67 14382.85,5080.55 14187.18,5080.55 14187.18,5173.42 14405.9,5173.42 14405.9,5266.3 14087.69,5266.3 "/>
   <path class="fil0" d="M14950.43 4809.75l82.23 0 196.39 456.55 -112.24 0 -38.9 -96.73 -175.28 0 -37.66 96.73 -109.71 0 195.16 -456.55zm38.27 132.84l-54.81 141.82 110.25 0 -55.44 -141.82z"/>
   <path class="fil0" d="M15746.77 5234.01c-29.32,15.45 -59.87,26.61 -91.75,33.61 -31.97,6.82 -64.45,10.24 -97.62,10.24 -35.33,0 -67.7,-5.58 -97.56,-16.75 -29.72,-11.16 -55.41,-27.1 -77.14,-47.99 -21.61,-20.92 -38.55,-46.18 -50.64,-75.84 -12.08,-29.63 -18.18,-62.72 -18.18,-99.26 0,-36.54 6.1,-69.71 18.18,-99.35 12.08,-29.63 29.03,-54.92 50.64,-75.64 21.72,-20.89 47.42,-36.94 77.14,-48.11 29.86,-11.16 62.23,-16.75 97.56,-16.75 36.11,0 69.43,4.37 99.87,13.21 30.35,8.83 57.03,23.94 79.99,45.46l-70.15 77.34c-13.61,-14.18 -28.92,-24.94 -45.98,-32.17 -16.95,-7.39 -38.15,-11.05 -63.73,-11.05 -21.23,0 -40.51,3.65 -57.66,11.05 -17.15,7.22 -31.97,17.46 -44.25,30.56 -12.4,13.09 -21.84,28.71 -28.43,46.78 -6.59,18.07 -9.95,37.66 -9.95,58.67 0,21.52 3.37,41.11 9.95,58.98 6.59,17.87 16.03,33.4 28.43,46.38 12.29,13.09 27.1,23.36 44.25,30.76 17.15,7.22 36.42,10.88 57.66,10.88 21.69,0 40.48,-2.45 56.22,-7.42 15.62,-4.86 28.22,-9.95 37.55,-15.22l0 -74.09 -80.99 0 0 -92.79 176.6 0 0 238.52z"/>
   <path class="fil0" d="M15897.94 4809.75l174.7 0c23.02,0 44.74,2.22 65.46,6.68 20.51,4.57 38.58,12.2 54.09,22.64 15.54,10.56 27.82,24.77 37.06,42.52 9.12,17.87 13.61,40.11 13.61,66.81 0,32.25 -8.23,59.67 -24.77,82.2 -16.66,22.53 -40.8,36.86 -72.68,42.93l114.68 192.77 -119.14 0 -94.4 -182.5 -49.11 0 0 182.5 -99.49 0 0 -456.55zm99.49 188.97l58.67 0c8.92,0 18.47,-0.4 28.4,-1.01 9.95,-0.6 18.99,-2.65 27.1,-5.78 8.03,-3.25 14.73,-8.23 20.11,-15.13 5.27,-6.91 7.91,-16.63 7.91,-29.03 0,-11.65 -2.33,-20.89 -6.99,-27.79 -4.69,-6.82 -10.67,-12.08 -17.87,-15.74 -7.22,-3.65 -15.54,-6.1 -24.89,-7.42 -9.32,-1.29 -18.47,-1.93 -27.39,-1.93l-65.05 0 0 103.84z"/>
   <path class="fil0" d="M16523.49 4809.75l82.32 0 196.28 456.55 -112.24 0 -38.87 -96.73 -175.31 0 -37.66 96.73 -109.62 0 195.1 -456.55zm38.27 132.84l-54.81 141.82 110.22 0 -55.41 -141.82z"/>
   <path class="fil0" d="M16911.13 4809.75l174.67 0c23.05,0 44.77,2.22 65.48,6.68 20.49,4.57 38.55,12.2 54.09,22.64 15.54,10.56 27.82,24.77 37.06,42.52 9.12,17.87 13.58,40.11 13.58,66.81 0,32.25 -8.2,59.67 -24.74,82.2 -16.66,22.53 -40.83,36.86 -72.68,42.93l114.68 192.77 -119.17 0 -94.37 -182.5 -49.14 0 0 182.5 -99.46 0 0 -456.55zm99.46 188.97l58.67 0c8.95,0 18.47,-0.4 28.43,-1.01 9.95,-0.6 18.99,-2.65 27.1,-5.78 8.03,-3.25 14.7,-8.23 20.08,-15.13 5.29,-6.91 7.94,-16.63 7.94,-29.03 0,-11.65 -2.36,-20.89 -7.02,-27.79 -4.66,-6.82 -10.65,-12.08 -17.87,-15.74 -7.19,-3.65 -15.51,-6.1 -24.86,-7.42 -9.35,-1.29 -18.47,-1.93 -27.42,-1.93l-65.05 0 0 103.84z"/>
   <polygon class="fil0" points="17386.75,5266.3 17486.25,5266.3 17486.25,4809.75 17386.75,4809.75 "/>
   <polygon class="fil0" points="17644.4,4809.75 17951.14,4809.75 17951.14,4902.71 17743.9,4902.71 17743.9,4987.67 17939.57,4987.67 17939.57,5080.55 17743.9,5080.55 17743.9,5173.42 17962.62,5173.42 17962.62,5266.3 17644.4,5266.3 "/>
   <path class="fil0" d="M11386.67 4090.03l149.21 0c36.14,0 70.43,4.14 103.03,12.29 32.48,8.2 60.91,21.41 85.05,39.68 24.25,18.27 43.56,42.04 57.74,71.27 14.21,29.23 21.32,64.65 21.32,106.37 0,36.94 -6.91,69.51 -20.69,97.74 -13.81,28.11 -32.4,51.67 -55.73,70.84 -23.45,19.19 -50.44,33.72 -80.99,43.56 -30.67,9.84 -62.72,14.82 -96.33,14.82l-162.62 0 0 -456.55zm99.49 363.67l51.65 0c22.93,0 44.37,-2.33 64.05,-7.11 19.79,-4.66 36.94,-12.6 51.36,-23.56 14.53,-10.96 25.89,-25.26 34.12,-43.13 8.31,-17.87 12.49,-39.68 12.49,-65.46 0,-22.33 -4.17,-41.83 -12.49,-58.38 -8.23,-16.54 -19.39,-30.12 -33.4,-40.88 -14.1,-10.88 -30.56,-18.9 -49.54,-24.17 -18.87,-5.5 -38.76,-8.03 -59.56,-8.03l-58.67 0 0 270.71z"/>
   <polygon class="fil0" points="11933.18,4546.57 12032.65,4546.57 12032.65,4090.03 11933.18,4090.03 "/>
   <path class="fil0" d="M12186.92 4090.03l167.68 0c23.45,0 45.49,2.13 66.29,6.5 20.92,4.26 39.07,11.77 54.49,22.21 15.54,10.56 27.91,24.77 37.06,42.52 9.12,17.87 13.7,40.31 13.7,67.41 0,26.58 -4.26,49.03 -12.77,67.1 -8.43,18.07 -20.11,32.48 -35.02,43.21 -14.93,10.67 -32.48,18.27 -52.88,22.84 -20.51,4.57 -42.52,6.82 -66.38,6.82l-72.68 0 0 177.92 -99.49 0 0 -456.55zm99.49 193.46l66.26 0c8.95,0 17.58,-0.92 25.89,-2.65 8.31,-1.61 15.62,-4.57 22.33,-8.63 6.5,-4.06 11.88,-9.64 15.94,-16.75 4.06,-7.11 5.98,-16.03 5.98,-26.79 0,-11.68 -2.65,-20.92 -7.91,-28.02 -5.38,-7.11 -12.08,-12.57 -20.4,-16.54 -8.34,-3.74 -17.58,-6.3 -27.71,-7.39 -10.27,-0.92 -20,-1.52 -29.43,-1.52l-50.95 0 0 108.3z"/>
   <path class="fil0" d="M12753.78 4090.03l82.2 0 196.51 456.55 -112.24 0 -38.99 -96.73 -175.31 0 -37.63 96.73 -109.73 0 195.19 -456.55zm38.27 132.87l-54.81 141.9 110.22 0 -55.41 -141.9z"/>
   <path class="fil0" d="M13141.48 4090.03l174.67 0c22.96,0 44.77,2.33 65.37,6.79 20.6,4.46 38.67,12.08 54.21,22.64 15.54,10.44 27.82,24.66 37.06,42.44 9.12,17.84 13.58,40.19 13.58,66.78 0,32.28 -8.2,59.67 -24.74,82.2 -16.66,22.53 -40.91,36.86 -72.79,42.96l114.8 192.74 -119.14 0 -94.4 -182.5 -49.14 0 0 182.5 -99.46 0 0 -456.55zm99.46 189l58.67 0c8.95,0 18.39,-0.43 28.43,-1.04 9.95,-0.6 18.99,-2.53 26.99,-5.78 8.14,-3.25 14.85,-8.23 20.2,-15.11 5.18,-6.91 7.94,-16.66 7.94,-29.03 0,-11.68 -2.33,-20.92 -7.02,-27.82 -4.78,-6.79 -10.65,-12.08 -17.87,-15.74 -7.19,-3.65 -15.51,-6.07 -24.86,-7.39 -9.44,-1.32 -18.47,-1.93 -27.39,-1.93l-65.08 0 0 103.84z"/>
   <polygon class="fil0" points="13694.29,4179.02 13565.48,4179.02 13565.48,4090.03 13922.57,4090.03 13922.57,4179.02 13793.76,4179.02 13793.76,4546.55 13694.29,4546.55 "/>
   <polygon class="fil0" points="14035.44,4546.57 14134.93,4546.57 14134.93,4090.03 14035.44,4090.03 "/>
   <polygon class="fil0" points="14289.23,4090.03 14439.77,4090.03 14543.69,4388.01 14544.93,4388.01 14649.57,4090.03 14799.38,4090.03 14799.38,4546.57 14699.92,4546.57 14699.92,4196.48 14698.59,4196.48 14580.03,4546.57 14504.1,4546.57 14390.02,4196.48 14388.7,4196.48 14388.7,4546.57 14289.23,4546.57 "/>
   <polygon class="fil0" points="14958.78,4090.03 15265.51,4090.03 15265.51,4182.99 15058.24,4182.99 15058.24,4267.95 15253.94,4267.95 15253.94,4360.91 15058.24,4360.91 15058.24,4453.7 15276.96,4453.7 15276.96,4546.57 14958.78,4546.57 "/>
   <polygon class="fil0" points="15420.42,4090.03 15555.61,4090.03 15747.55,4407.32 15748.87,4407.32 15748.87,4090.03 15848.25,4090.03 15848.25,4546.57 15718.23,4546.57 15521.2,4221.57 15519.88,4221.57 15519.88,4546.57 15420.42,4546.57 "/>
   <polygon class="fil0" points="16091.23,4179.02 15962.42,4179.02 15962.42,4090.03 16319.5,4090.03 16319.5,4179.02 16190.69,4179.02 16190.69,4546.55 16091.23,4546.55 "/>
   <path class="fil0" d="M16409.41 4318.3c0,-36.45 6.07,-69.74 18.15,-99.38 12.08,-29.63 29.03,-54.9 50.67,-75.61 21.72,-20.92 47.39,-36.94 77.14,-48.11 29.84,-11.16 62.32,-16.75 97.54,-16.75 35.33,0 67.9,5.58 97.65,16.75 29.72,11.16 55.41,27.19 77.14,48.11 21.61,20.72 38.55,45.98 50.75,75.61 12.06,29.63 18.07,62.92 18.07,99.38 0,36.54 -6.01,69.71 -18.07,99.38 -12.2,29.63 -29.15,54.9 -50.75,75.7 -21.72,20.92 -47.42,36.86 -77.14,48.02 -29.75,11.25 -62.32,16.75 -97.65,16.75 -35.22,0 -67.7,-5.5 -97.54,-16.75 -29.75,-11.16 -55.41,-27.1 -77.14,-48.02 -21.64,-20.8 -38.58,-46.06 -50.67,-75.7 -12.08,-29.66 -18.15,-62.84 -18.15,-99.38zm103.23 0c0,21.52 3.34,41.2 9.93,59.07 6.62,17.75 16.05,33.29 28.43,46.38 12.29,13.09 27.1,23.36 44.25,30.67 17.15,7.19 36.45,10.96 57.66,10.96 21.32,0 40.48,-3.77 57.74,-10.96 17.26,-7.31 31.97,-17.58 44.37,-30.67 12.29,-13.09 21.72,-28.63 28.43,-46.38 6.47,-17.87 9.84,-37.55 9.84,-59.07 0,-21 -3.37,-40.6 -9.84,-58.67 -6.7,-18.07 -16.14,-33.69 -28.43,-46.81 -12.4,-12.98 -27.1,-23.33 -44.37,-30.53 -17.26,-7.31 -36.42,-10.96 -57.74,-10.96 -21.2,0 -40.51,3.65 -57.66,10.96 -17.15,7.19 -31.97,17.55 -44.25,30.53 -12.37,13.12 -21.81,28.74 -28.43,46.81 -6.59,18.07 -9.93,37.66 -9.93,58.67z"/>
   <path class="fil0" d="M17280.41 4090.03l149.21 0c36.11,0 70.43,4.14 103,12.29 32.48,8.2 60.79,21.41 85.05,39.68 24.28,18.27 43.56,42.04 57.77,71.27 14.21,29.23 21.32,64.65 21.32,106.37 0,36.94 -6.91,69.51 -20.72,97.74 -13.81,28.11 -32.37,51.67 -55.73,70.84 -23.45,19.19 -50.44,33.72 -80.99,43.56 -30.64,9.84 -62.72,14.82 -96.33,14.82l-162.59 0 0 -456.55zm99.46 363.67l51.67 0c22.93,0 44.25,-2.33 64.05,-7.11 19.77,-4.66 36.83,-12.6 51.36,-23.56 14.41,-10.96 25.78,-25.26 34.09,-43.13 8.31,-17.87 12.37,-39.68 12.37,-65.46 0,-22.33 -4.06,-41.83 -12.37,-58.38 -8.31,-16.54 -19.48,-30.12 -33.49,-40.88 -14.01,-10.88 -30.47,-18.9 -49.34,-24.17 -18.96,-5.5 -38.87,-8.03 -59.67,-8.03l-58.67 0 0 270.71z"/>
   <polygon class="fil0" points="17826.87,4546.57 17926.34,4546.57 17926.34,4090.03 17826.87,4090.03 "/>
  </g>
 </g>
</svg>
