<?xml version="1.0" encoding="UTF-8"?>
<!DOCTYPE svg PUBLIC "-//W3C//DTD SVG 1.1//EN" "http://www.w3.org/Graphics/SVG/1.1/DTD/svg11.dtd">
<!--Risorse grafiche UNIBAS - bit.ly/unibasbrand -->
<svg xmlns="http://www.w3.org/2000/svg" xml:space="preserve" width="40.0001mm" height="40.0003mm" version="1.1" style="shape-rendering:geometricPrecision; text-rendering:geometricPrecision; image-rendering:optimizeQuality; fill-rule:evenodd; clip-rule:evenodd"
viewBox="0 0 1001.12 1001.13"
 xmlns:xlink="http://www.w3.org/1999/xlink"
 xmlns:xodm="http://www.corel.com/coreldraw/odm/2003">
 <defs>
  <style type="text/css">
   <![CDATA[
    .fil0 {fill:black;fill-rule:nonzero}
   ]]>
  </style>
 </defs>
 <g id="Layer_x0020_1">
  <metadata id="CorelCorpID_0Corel-Layer"/>
  <g id="_1913529812000">
   <path class="fil0" d="M213.82 870.43c1.83,-2.6 3.9,-4.71 6.21,-6.34 2.32,-1.63 4.82,-2.71 7.5,-3.22 2.68,-0.52 5.48,-0.42 8.42,0.29 2.94,0.72 5.92,2.13 8.93,4.24 3.05,2.15 5.4,4.49 7.07,7.02 1.67,2.53 2.71,5.14 3.13,7.83 0.42,2.69 0.25,5.4 -0.51,8.14 -0.75,2.73 -2.04,5.39 -3.87,7.99l-18.91 26.87 -9.64 -6.78 18.66 -26.5c0.95,-1.36 1.62,-2.77 2,-4.23 0.38,-1.46 0.48,-2.89 0.28,-4.27 -0.19,-1.39 -0.66,-2.72 -1.41,-3.95 -0.76,-1.25 -1.78,-2.32 -3.06,-3.22 -1.28,-0.9 -2.61,-1.49 -4.02,-1.76 -1.4,-0.28 -2.79,-0.27 -4.17,0.02 -1.38,0.29 -2.69,0.87 -3.93,1.71 -1.25,0.85 -2.35,1.95 -3.3,3.31l-18.66 26.51 -9.63 -6.78 18.91 -26.88z"/>
   <polygon class="fil0" points="166.44,873.74 155.08,862.46 165.14,820.07 165.03,819.95 138.84,846.33 130.48,838.02 168.17,800.08 179.1,810.94 168.83,854.39 168.94,854.5 195.77,827.49 204.13,835.8 "/>
   <polygon class="fil0" points="108.17,810.78 100.97,801.44 143.33,768.79 150.53,778.12 "/>
   <polygon class="fil0" points="83.36,777.67 76.52,766.1 99.99,736.9 99.91,736.77 62.89,743 56.48,732.13 113.75,723.95 118.55,732.08 "/>
   <polygon class="fil0" points="43.2,703.68 29.68,669.95 39.77,665.91 48.91,688.69 58.16,684.99 49.54,663.46 59.63,659.41 68.26,680.94 78.36,676.89 68.71,652.84 78.82,648.8 92.84,683.78 "/>
   <path class="fil0" d="M18.75 635.69l-4.79 -20.14c-0.64,-2.64 -0.97,-5.21 -1.02,-7.72 -0.05,-2.5 0.31,-4.78 1.09,-6.85 0.78,-2.07 2.06,-3.88 3.84,-5.42 1.78,-1.54 4.19,-2.67 7.22,-3.39 3.68,-0.88 7.03,-0.66 10.06,0.64 3.03,1.3 5.33,3.7 6.88,7.21l18.83 -18.45 3.28 13.74 -18.22 15.82 1.35 5.66 20.79 -4.95 2.73 11.46 -52.03 12.38zm18.81 -16.58l-1.61 -6.76c-0.25,-1.03 -0.55,-2.11 -0.89,-3.25 -0.35,-1.13 -0.81,-2.12 -1.4,-2.97 -0.59,-0.84 -1.35,-1.47 -2.28,-1.9 -0.93,-0.43 -2.1,-0.47 -3.52,-0.13 -1.32,0.31 -2.31,0.83 -2.97,1.56 -0.65,0.72 -1.09,1.55 -1.32,2.48 -0.21,0.94 -0.27,1.95 -0.16,3.07 0.11,1.11 0.28,2.19 0.53,3.21l1.78 7.5 11.83 -2.81z"/>
   <path class="fil0" d="M14.97 535.75c-1.11,1.06 -1.89,2.44 -2.31,4.11 -0.43,1.69 -0.58,3.26 -0.44,4.71 0.07,0.86 0.26,1.72 0.54,2.6 0.28,0.89 0.67,1.71 1.18,2.47 0.49,0.77 1.12,1.37 1.87,1.8 0.75,0.44 1.62,0.61 2.62,0.52 1.61,-0.14 2.78,-0.86 3.52,-2.14 0.74,-1.28 1.33,-2.86 1.76,-4.75 0.43,-1.88 0.86,-3.9 1.26,-6.07 0.42,-2.16 1.09,-4.2 2.02,-6.14 0.94,-1.93 2.28,-3.58 4.02,-4.96 1.75,-1.37 4.18,-2.2 7.28,-2.48 2.96,-0.27 5.6,0.05 7.9,0.95 2.3,0.9 4.27,2.22 5.9,3.97 1.63,1.75 2.91,3.83 3.83,6.25 0.94,2.42 1.53,5.01 1.77,7.76 0.32,3.46 0.08,6.72 -0.7,9.77 -0.79,3.06 -2.23,5.97 -4.36,8.74l-9.94 -7.51c1.5,-1.34 2.6,-2.98 3.31,-4.88 0.71,-1.92 0.97,-3.85 0.79,-5.8 -0.09,-0.95 -0.28,-1.92 -0.6,-2.87 -0.32,-0.95 -0.73,-1.8 -1.25,-2.54 -0.53,-0.73 -1.16,-1.31 -1.91,-1.72 -0.74,-0.41 -1.59,-0.57 -2.54,-0.49 -1.61,0.15 -2.82,0.88 -3.64,2.19 -0.81,1.32 -1.46,2.93 -1.94,4.85 -0.49,1.91 -0.95,3.98 -1.4,6.2 -0.46,2.21 -1.15,4.3 -2.08,6.25 -0.94,1.96 -2.25,3.64 -3.94,5.03 -1.7,1.39 -4.03,2.23 -6.99,2.5 -2.86,0.27 -5.41,-0.07 -7.67,-1.01 -2.26,-0.93 -4.2,-2.27 -5.84,-4.02 -1.62,-1.75 -2.91,-3.81 -3.86,-6.21 -0.95,-2.39 -1.55,-4.89 -1.79,-7.5 -0.27,-3.01 -0.12,-5.96 0.49,-8.84 0.59,-2.89 1.79,-5.55 3.59,-7.99l9.54 7.25z"/>
   <polygon class="fil0" points="-0,496.63 0.24,484.85 53.71,485.94 53.47,497.72 "/>
   <polygon class="fil0" points="14.75,441.67 12.73,456.8 2.4,455.42 7.98,413.49 18.31,414.87 16.3,429.99 58.98,435.68 57.43,447.36 "/>
   <path class="fil0" d="M16.81 360.02l-2.64 9.61 -13.94 9.73 4.07 -14.87 12.51 -4.48zm0.43 13.28l2.58 -9.4 57.72 -8.29 -3.51 12.82 -12.14 1.45 -5.5 20.03 9.76 7.29 -3.44 12.53 -45.46 -36.43zm16.2 -0.26l14.31 10.66 3.45 -12.6 -17.76 1.94z"/>
   <path class="fil0" d="M56.02 271.22l8.84 -15.3c2.14,-3.71 4.59,-6.99 7.35,-9.85 2.75,-2.86 5.78,-4.99 9.07,-6.41 3.29,-1.41 6.84,-1.99 10.65,-1.74 3.81,0.26 7.83,1.61 12.06,4.04 3.75,2.17 6.64,4.79 8.68,7.86 2.04,3.07 3.33,6.36 3.88,9.88 0.56,3.52 0.42,7.14 -0.39,10.86 -0.81,3.72 -2.21,7.3 -4.2,10.75l-9.64 16.67 -46.3 -26.76zm42.78 11.12l3.06 -5.3c1.36,-2.35 2.39,-4.68 3.08,-6.98 0.7,-2.31 0.91,-4.52 0.66,-6.65 -0.26,-2.12 -1.04,-4.13 -2.37,-6.03 -1.31,-1.9 -3.28,-3.6 -5.9,-5.11 -2.27,-1.31 -4.49,-2.02 -6.66,-2.14 -2.17,-0.12 -4.21,0.22 -6.14,1.03 -1.92,0.81 -3.72,2.03 -5.39,3.65 -1.66,1.62 -3.12,3.51 -4.34,5.64l-3.48 6.01 27.46 15.88z"/>
   <polygon class="fil0" points="100.46,200.88 123.3,172.62 131.76,179.45 116.33,198.55 124.09,204.82 138.66,186.78 147.13,193.62 132.55,211.65 141.01,218.49 157.29,198.34 165.76,205.17 142.07,234.49 "/>
   <path class="fil0" d="M217.22 150.35c-1.36,3.67 -3.18,7.08 -5.44,10.21 -2.26,3.12 -4.85,6.01 -7.77,8.64 -3.1,2.81 -6.39,4.9 -9.89,6.29 -3.5,1.39 -7.01,2.05 -10.55,1.96 -3.55,-0.1 -7.02,-0.94 -10.41,-2.56 -3.39,-1.61 -6.52,-4.02 -9.4,-7.19 -2.87,-3.18 -4.94,-6.54 -6.21,-10.08 -1.26,-3.54 -1.76,-7.07 -1.49,-10.61 0.28,-3.53 1.27,-6.97 3.01,-10.29 1.74,-3.34 4.16,-6.41 7.26,-9.21 3.18,-2.87 6.44,-5.13 9.81,-6.78 3.36,-1.64 6.91,-2.45 10.61,-2.4l-0.1 12.3c-2.31,-0.15 -4.5,0.13 -6.56,0.84 -2.07,0.72 -4.23,2.09 -6.47,4.11 -1.86,1.69 -3.27,3.53 -4.21,5.54 -0.94,2 -1.44,4.06 -1.49,6.18 -0.05,2.12 0.35,4.23 1.18,6.32 0.84,2.09 2.08,4.05 3.73,5.88 1.69,1.87 3.52,3.32 5.5,4.34 1.99,1.03 4.02,1.63 6.14,1.78 2.11,0.16 4.21,-0.12 6.3,-0.86 2.08,-0.73 4.06,-1.94 5.93,-3.63 1.9,-1.72 3.35,-3.43 4.34,-5.1 1,-1.68 1.7,-3.11 2.12,-4.3l-5.82 -6.44 -7.13 6.43 -7.29 -8.07 15.53 -14.03 18.74 20.74z"/>
   <polygon class="fil0" points="212.81,91.97 222.63,85.46 246.17,120.97 264.37,108.9 270.38,117.97 242.37,136.54 "/>
   <polygon class="fil0" points="266.96,58.91 277.44,53.51 301.92,101.06 291.44,106.45 "/>
   <path class="fil0" d="M379.96 29.06c-1.24,-0.91 -2.74,-1.42 -4.47,-1.54 -1.73,-0.12 -3.3,0.02 -4.71,0.42 -0.83,0.23 -1.65,0.56 -2.47,1 -0.81,0.43 -1.55,0.97 -2.21,1.6 -0.66,0.63 -1.14,1.35 -1.44,2.16 -0.29,0.81 -0.31,1.7 -0.04,2.68 0.43,1.55 1.34,2.58 2.74,3.08 1.4,0.5 3.06,0.8 4.99,0.88 1.93,0.09 4,0.14 6.2,0.16 2.2,0.02 4.33,0.31 6.4,0.88 2.06,0.58 3.94,1.6 5.6,3.07 1.67,1.47 2.91,3.71 3.75,6.72 0.79,2.86 0.95,5.51 0.49,7.94 -0.48,2.44 -1.43,4.6 -2.86,6.52 -1.42,1.91 -3.24,3.54 -5.46,4.89 -2.21,1.34 -4.65,2.39 -7.32,3.13 -3.36,0.93 -6.59,1.28 -9.75,1.06 -3.14,-0.22 -6.27,-1.13 -9.38,-2.72l5.61 -11.12c1.6,1.23 3.4,2.02 5.4,2.38 2.01,0.36 3.95,0.28 5.85,-0.26 0.92,-0.26 1.82,-0.63 2.71,-1.1 0.88,-0.49 1.64,-1.04 2.27,-1.69 0.64,-0.64 1.09,-1.38 1.36,-2.18 0.27,-0.81 0.27,-1.68 0.02,-2.6 -0.43,-1.55 -1.37,-2.62 -2.8,-3.18 -1.44,-0.57 -3.14,-0.92 -5.11,-1.05 -1.98,-0.13 -4.1,-0.22 -6.36,-0.28 -2.26,-0.04 -4.43,-0.35 -6.52,-0.93 -2.09,-0.57 -3.98,-1.56 -5.65,-2.98 -1.68,-1.41 -2.91,-3.55 -3.71,-6.42 -0.77,-2.76 -0.9,-5.34 -0.39,-7.72 0.51,-2.39 1.48,-4.55 2.91,-6.45 1.43,-1.92 3.23,-3.56 5.41,-4.92 2.18,-1.37 4.54,-2.4 7.06,-3.1 2.91,-0.81 5.84,-1.18 8.79,-1.11 2.94,0.07 5.78,0.78 8.5,2.1l-5.42 10.68z"/>
   <polygon class="fil0" points="428.78,16.63 413.65,18.67 412.26,8.34 454.18,2.67 455.57,13 440.46,15.04 446.23,57.71 434.55,59.3 "/>
   <path class="fil0" d="M529.91 33.59c-0.05,3.17 -0.58,6.08 -1.58,8.74 -1,2.65 -2.45,4.95 -4.38,6.88 -1.92,1.93 -4.3,3.43 -7.14,4.49 -2.84,1.06 -6.09,1.56 -9.77,1.5 -3.73,-0.06 -6.98,-0.67 -9.79,-1.82 -2.8,-1.16 -5.13,-2.73 -6.99,-4.72 -1.85,-1.99 -3.24,-4.33 -4.16,-7.02 -0.91,-2.68 -1.34,-5.61 -1.29,-8.78l0.53 -32.85 11.79 0.2 -0.53 32.4c-0.03,1.66 0.21,3.2 0.72,4.62 0.51,1.42 1.23,2.65 2.16,3.7 0.94,1.05 2.07,1.87 3.4,2.47 1.32,0.6 2.77,0.91 4.33,0.94 1.56,0.03 3,-0.24 4.32,-0.8 1.32,-0.56 2.46,-1.34 3.43,-2.37 0.97,-1.02 1.74,-2.22 2.29,-3.62 0.55,-1.4 0.84,-2.94 0.87,-4.6l0.53 -32.4 11.78 0.2 -0.53 32.85z"/>
   <path class="fil0" d="M566.93 4.74l17.39 3.13c4.22,0.75 8.13,1.94 11.76,3.57 3.62,1.62 6.66,3.74 9.1,6.36 2.45,2.62 4.19,5.76 5.25,9.42 1.05,3.67 1.15,7.91 0.29,12.71 -0.77,4.26 -2.25,7.88 -4.44,10.83 -2.2,2.96 -4.86,5.29 -7.97,7.01 -3.13,1.71 -6.57,2.83 -10.35,3.32 -3.77,0.5 -7.62,0.4 -11.53,-0.3l-18.96 -3.41 9.45 -52.64zm4.07 44.01l6.02 1.09c2.68,0.48 5.22,0.65 7.62,0.52 2.4,-0.13 4.56,-0.68 6.47,-1.64 1.92,-0.96 3.54,-2.38 4.87,-4.26 1.33,-1.88 2.27,-4.31 2.8,-7.28 0.47,-2.58 0.39,-4.91 -0.24,-6.99 -0.63,-2.08 -1.64,-3.88 -3.05,-5.42 -1.41,-1.53 -3.17,-2.81 -5.26,-3.82 -2.09,-1.01 -4.35,-1.74 -6.78,-2.17l-6.84 -1.23 -5.61 31.23z"/>
   <polygon class="fil0" points="646.45,22.45 657.68,26.01 641.53,77 630.3,73.44 "/>
   <path class="fil0" d="M731.7 56.69l15.28 8.88c3.7,2.15 6.98,4.6 9.83,7.37 2.85,2.76 4.98,5.79 6.38,9.09 1.41,3.29 1.99,6.84 1.72,10.65 -0.27,3.81 -1.62,7.83 -4.07,12.05 -2.18,3.74 -4.8,6.63 -7.88,8.66 -3.07,2.03 -6.37,3.32 -9.89,3.87 -3.52,0.55 -7.14,0.41 -10.85,-0.41 -3.72,-0.82 -7.3,-2.22 -10.74,-4.22l-16.66 -9.68 26.87 -46.25zm-11.22 42.76l5.29 3.07c2.36,1.37 4.68,2.39 6.99,3.09 2.31,0.7 4.52,0.93 6.64,0.67 2.13,-0.25 4.14,-1.03 6.04,-2.34 1.9,-1.32 3.61,-3.28 5.13,-5.89 1.32,-2.27 2.03,-4.49 2.15,-6.66 0.13,-2.16 -0.21,-4.21 -1.02,-6.14 -0.8,-1.92 -2.02,-3.72 -3.64,-5.39 -1.62,-1.67 -3.5,-3.13 -5.63,-4.36l-6.01 -3.49 -15.94 27.43z"/>
   <polygon class="fil0" points="801.94,101.28 830.15,124.18 823.3,132.63 804.23,117.16 797.95,124.9 815.96,139.51 809.1,147.95 791.09,133.34 784.24,141.79 804.36,158.12 797.5,166.57 768.24,142.81 "/>
   <polygon class="fil0" points="856.25,148.88 864.31,157.48 833.2,186.6 848.12,202.53 840.17,209.97 817.21,185.42 "/>
   <polygon class="fil0" points="898.86,197.81 905.73,207.38 871.13,232.25 883.87,249.98 875.04,256.32 855.43,229.03 "/>
   <path class="fil0" d="M943.27 267.57l4.47 8.66 -36.85 45.21 -6.09 -11.81 7.96 -9.3 -9.53 -18.46 -12.11 1.24 -5.96 -11.54 58.12 -3.99zm-11.75 11.17l-17.75 1.85 5.99 11.61 11.75 -13.46z"/>
   <path class="fil0" d="M983.63 368.59l4.53 19.42c0.52,2.25 0.89,4.56 1.1,6.91 0.21,2.36 0.05,4.55 -0.48,6.59 -0.54,2.04 -1.53,3.82 -2.99,5.35 -1.46,1.53 -3.6,2.62 -6.44,3.28 -2.94,0.69 -5.57,0.43 -7.89,-0.76 -2.32,-1.19 -4.21,-3.04 -5.68,-5.54l-0.14 0.04c0.15,1.77 0.04,3.44 -0.35,5.01 -0.38,1.56 -1.01,2.98 -1.88,4.24 -0.87,1.26 -1.98,2.33 -3.32,3.21 -1.34,0.88 -2.85,1.52 -4.52,1.91 -2.75,0.64 -5.17,0.59 -7.29,-0.16 -2.11,-0.75 -3.95,-1.92 -5.51,-3.52 -1.56,-1.61 -2.86,-3.51 -3.89,-5.73 -1.03,-2.21 -1.82,-4.48 -2.36,-6.78l-4.97 -21.33 52.08 -12.14zm-39.7 21.36l2.4 10.29c0.2,0.88 0.51,1.76 0.92,2.61 0.41,0.87 0.94,1.61 1.6,2.22 0.66,0.63 1.45,1.08 2.34,1.36 0.89,0.28 1.9,0.29 3.03,0.03 1.23,-0.28 2.15,-0.82 2.77,-1.61 0.62,-0.79 1.01,-1.7 1.19,-2.73 0.18,-1.02 0.21,-2.08 0.11,-3.2 -0.11,-1.12 -0.27,-2.14 -0.49,-3.07l-2.02 -8.68 -11.84 2.77zm21.55 -5.03l1.93 8.31c0.21,0.88 0.51,1.73 0.91,2.54 0.4,0.81 0.89,1.51 1.49,2.09 0.6,0.58 1.32,1 2.15,1.24 0.83,0.25 1.76,0.25 2.79,0.01 1.09,-0.25 1.93,-0.7 2.53,-1.32 0.6,-0.64 1.02,-1.36 1.24,-2.19 0.22,-0.83 0.31,-1.72 0.27,-2.7 -0.05,-0.97 -0.18,-1.9 -0.38,-2.78l-1.82 -7.8 -11.11 2.6z"/>
   <path class="fil0" d="M999.29 459.15l0.72 9.72 -51.64 27.11 -0.97 -13.26 10.96 -5.42 -1.52 -20.71 -11.63 -3.62 -0.95 -12.96 55.02 19.15zm-15.19 5.66l-17.05 -5.27 0.95 13.03 16.1 -7.76z"/>
   <path class="fil0" d="M986.03 548.01c1.28,-0.87 2.26,-2.09 2.97,-3.68 0.7,-1.59 1.1,-3.11 1.21,-4.56 0.06,-0.86 0.03,-1.74 -0.11,-2.66 -0.13,-0.92 -0.38,-1.8 -0.75,-2.63 -0.36,-0.84 -0.88,-1.53 -1.54,-2.08 -0.67,-0.56 -1.5,-0.87 -2.51,-0.95 -1.61,-0.12 -2.88,0.39 -3.82,1.53 -0.94,1.14 -1.78,2.6 -2.53,4.4 -0.74,1.78 -1.49,3.71 -2.25,5.77 -0.76,2.06 -1.77,3.97 -3,5.72 -1.24,1.75 -2.84,3.16 -4.79,4.23 -1.95,1.07 -4.48,1.48 -7.59,1.24 -2.97,-0.22 -5.51,-0.96 -7.64,-2.23 -2.13,-1.27 -3.85,-2.9 -5.17,-4.89 -1.32,-1.99 -2.23,-4.25 -2.75,-6.8 -0.52,-2.54 -0.67,-5.19 -0.47,-7.95 0.27,-3.47 1.02,-6.65 2.31,-9.53 1.27,-2.89 3.19,-5.52 5.74,-7.9l8.56 9.05c-1.7,1.09 -3.06,2.51 -4.07,4.27 -1.01,1.77 -1.59,3.63 -1.74,5.59 -0.07,0.95 -0.03,1.93 0.13,2.93 0.15,0.99 0.42,1.9 0.82,2.71 0.39,0.81 0.92,1.48 1.59,2.01 0.66,0.53 1.47,0.83 2.44,0.9 1.6,0.12 2.91,-0.41 3.94,-1.56 1.02,-1.16 1.92,-2.65 2.72,-4.46 0.78,-1.81 1.6,-3.77 2.41,-5.88 0.81,-2.11 1.84,-4.05 3.08,-5.83 1.24,-1.77 2.82,-3.21 4.72,-4.31 1.91,-1.09 4.33,-1.53 7.3,-1.31 2.86,0.21 5.32,0.96 7.4,2.26 2.07,1.29 3.77,2.93 5.09,4.92 1.32,2 2.25,4.25 2.79,6.77 0.55,2.52 0.72,5.09 0.53,7.69 -0.23,3.02 -0.87,5.9 -1.93,8.64 -1.07,2.75 -2.68,5.17 -4.87,7.28l-8.21 -8.71z"/>
   <polygon class="fil0" points="993.32,589.02 991.12,600.6 938.57,590.63 940.77,579.05 "/>
   <polygon class="fil0" points="983.22,634.44 979.76,645.71 939.03,633.19 932.62,654.05 922.22,650.85 932.1,618.73 "/>
   <polygon class="fil0" points="962.3,694.36 957.61,705.18 908.54,683.91 913.22,673.09 "/>
   <path class="fil0" d="M912.91 759.72c1.8,-0.28 3.45,-0.96 4.96,-2.03 1.51,-1.08 2.83,-2.57 3.95,-4.48 1.12,-1.91 1.79,-3.89 2.01,-5.96 0.22,-2.06 0.02,-4.08 -0.6,-6.05 -0.63,-1.98 -1.65,-3.83 -3.08,-5.57 -1.42,-1.75 -3.2,-3.25 -5.33,-4.5 -2.16,-1.28 -4.35,-2.11 -6.55,-2.5 -2.2,-0.39 -4.3,-0.38 -6.31,0.01 -2.01,0.4 -3.86,1.17 -5.53,2.32 -1.67,1.15 -3.04,2.63 -4.1,4.46 -1.23,2.08 -1.88,4.19 -1.96,6.3 -0.07,2.12 0.36,4.16 1.32,6.12l-11.29 4.75c-1.59,-3.56 -2.15,-7.22 -1.69,-10.98 0.46,-3.76 1.62,-7.22 3.49,-10.39 2.12,-3.6 4.64,-6.6 7.55,-8.97 2.92,-2.38 6.07,-4.05 9.48,-5.03 3.41,-0.98 6.98,-1.2 10.7,-0.68 3.72,0.53 7.43,1.87 11.11,4.04 3.69,2.17 6.67,4.75 8.93,7.75 2.27,2.99 3.81,6.22 4.61,9.68 0.8,3.45 0.87,7.03 0.22,10.73 -0.66,3.7 -2.05,7.36 -4.17,10.96 -0.77,1.31 -1.69,2.59 -2.76,3.86 -1.07,1.27 -2.26,2.44 -3.58,3.5 -1.33,1.07 -2.8,1.97 -4.4,2.72 -1.61,0.75 -3.34,1.25 -5.18,1.51l-1.78 -11.57z"/>
   <path class="fil0" d="M889.9 815.42l-6.21 7.51 -56.06 -16.11 8.47 -10.25 11.67 3.66 13.23 -16.03 -5.91 -10.65 8.27 -10.02 26.53 51.87zm-14.89 -6.41l-8.68 -15.59 -8.32 10.08 17 5.51z"/>
   <polygon class="fil0" points="837.86,856.42 849.05,846.06 856.13,853.7 825.1,882.44 818.02,874.8 829.21,864.43 799.95,832.84 808.61,824.83 "/>
   <path class="fil0" d="M792.41 907.49l-7.97 5.61 -49.8 -30.36 10.87 -7.65 10.29 6.61 16.99 -11.95 -2.88 -11.83 10.63 -7.47 11.87 57.04zm-12.66 -10.12l-4.24 -17.33 -10.69 7.52 14.94 9.81z"/>
   <path class="fil0" d="M444.93 404.96l0 151.22c0,46.08 -37.35,83.43 -83.43,83.43 -7.06,0 -13.92,-0.88 -20.48,-2.54 -36.17,-9.13 -62.95,-41.87 -62.95,-80.89l0 -222.47 0.01 0 166.85 71.25z"/>
   <path class="fil0" d="M389.32 305.9c0,15.36 -12.45,27.81 -27.81,27.81 -15.35,0 -27.8,-12.45 -27.8,-27.81 0,-15.35 12.45,-27.8 27.8,-27.8 15.36,0 27.81,12.45 27.81,27.8z"/>
   <path class="fil0" d="M723.03 583.99c0,98.07 -72.51,179.2 -166.86,192.67 -9.09,1.31 -18.37,1.99 -27.81,1.99l-27.8 -11.88 -55.62 -23.76 -57.18 -24.41 -78.79 -33.66c16.22,6.62 33.97,10.28 52.56,10.28 2.33,0 4.65,-0.06 6.96,-0.17 28.61,-1.41 54.95,-11.47 76.45,-27.62 33.34,-25.03 55.06,-64.7 55.62,-109.46 0.01,-0.59 0.01,-1.19 0.01,-1.79 0,-0.6 0,-1.2 -0.01,-1.79l0 -331.92 55.61 0c61.43,0 111.23,49.81 111.23,111.24 0,33.44 -14.74,63.42 -38.09,83.82 32.41,19.69 58.61,48.58 74.98,83.04 12.02,25.28 18.74,53.57 18.74,83.43z"/>
   <polygon class="fil0" points="407.35,950.34 394.93,957.43 390.14,948.88 410.2,937.97 420.55,940.1 409.78,992.48 399.13,990.29 "/>
   <path class="fil0" d="M468.94 981.13c-0.61,0.12 -1.23,0.19 -1.84,0.26 -0.61,0.06 -1.23,0.07 -1.89,0.03 -2.52,-0.17 -4.77,-0.78 -6.77,-1.81 -2,-1.04 -3.67,-2.39 -5.03,-4.05 -1.35,-1.65 -2.36,-3.58 -3.02,-5.76 -0.66,-2.19 -0.91,-4.49 -0.75,-6.9 0.19,-2.76 0.86,-5.24 2.05,-7.4 1.17,-2.16 2.71,-4 4.6,-5.48 1.89,-1.49 4.07,-2.6 6.54,-3.31 2.47,-0.72 5.11,-0.99 7.93,-0.8 2.76,0.19 5.33,0.8 7.71,1.85 2.38,1.04 4.4,2.43 6.08,4.15 1.68,1.73 2.96,3.74 3.84,6.05 0.87,2.31 1.23,4.84 1.04,7.6 -0.12,1.91 -0.42,3.65 -0.87,5.2 -0.46,1.56 -1.02,3.03 -1.69,4.39 -0.67,1.37 -1.44,2.67 -2.31,3.89 -0.87,1.23 -1.77,2.5 -2.71,3.8l-12.9 17.46 -13.79 -0.93 13.78 -18.23zm-8.03 -17.04c-0.16,2.42 0.5,4.47 1.98,6.15 1.47,1.69 3.5,2.61 6.06,2.79 2.56,0.17 4.69,-0.49 6.37,-1.96 1.69,-1.48 2.61,-3.43 2.77,-5.84 0.17,-2.41 -0.5,-4.46 -1.97,-6.15 -1.48,-1.69 -3.5,-2.61 -6.07,-2.78 -2.56,-0.18 -4.69,0.48 -6.37,1.95 -1.69,1.48 -2.61,3.43 -2.77,5.84z"/>
   <path class="fil0" d="M514.28 961.78c-0.16,-2.46 0.16,-4.65 0.96,-6.53 0.81,-1.9 1.98,-3.51 3.54,-4.86 1.55,-1.34 3.39,-2.39 5.51,-3.13 2.12,-0.74 4.4,-1.2 6.87,-1.36 2.46,-0.17 4.8,-0.02 7,0.44 2.2,0.46 4.14,1.24 5.84,2.38 1.68,1.12 3.07,2.57 4.15,4.33 1.08,1.77 1.69,3.89 1.85,6.35 0.2,2.92 -0.43,5.46 -1.87,7.63 -1.45,2.16 -3.58,3.77 -6.38,4.81l0.01 0.15c3.28,0.64 5.85,2.02 7.7,4.14 1.85,2.13 2.9,4.85 3.12,8.16 0.18,2.57 -0.2,4.87 -1.09,6.89 -0.9,2.03 -2.17,3.74 -3.82,5.14 -1.64,1.39 -3.58,2.5 -5.79,3.3 -2.22,0.8 -4.57,1.29 -7.02,1.46 -2.46,0.16 -4.85,-0.01 -7.15,-0.51 -2.31,-0.5 -4.37,-1.34 -6.19,-2.51 -1.82,-1.17 -3.31,-2.69 -4.47,-4.58 -1.16,-1.89 -1.83,-4.11 -2,-6.67 -0.22,-3.32 0.45,-6.15 2,-8.5 1.56,-2.35 3.92,-4.06 7.08,-5.13l-0.01 -0.15c-2.92,-0.66 -5.25,-1.97 -6.97,-3.93 -1.72,-1.95 -2.68,-4.39 -2.87,-7.3zm11.41 0.83c0.12,1.66 0.81,3.03 2.09,4.1 1.29,1.08 2.91,1.55 4.87,1.42 1.96,-0.13 3.5,-0.81 4.64,-2.05 1.13,-1.24 1.63,-2.69 1.53,-4.34 -0.11,-1.61 -0.8,-2.95 -2.08,-4.03 -1.29,-1.08 -2.91,-1.54 -4.87,-1.41 -1.96,0.12 -3.51,0.81 -4.64,2.05 -1.13,1.24 -1.64,2.66 -1.54,4.26zm0.55 21.84c0.12,1.86 0.91,3.4 2.36,4.61 1.44,1.22 3.29,1.75 5.55,1.6 2.26,-0.15 4.02,-0.92 5.3,-2.31 1.27,-1.4 1.84,-3.03 1.72,-4.89 -0.13,-1.91 -0.92,-3.47 -2.36,-4.69 -1.45,-1.21 -3.3,-1.75 -5.56,-1.6 -2.26,0.15 -4.03,0.93 -5.29,2.32 -1.27,1.4 -1.85,3.05 -1.72,4.96z"/>
   <path class="fil0" d="M581.36 982.41l16.59 -22.46c0.84,-1.15 1.66,-2.43 2.45,-3.82 0.8,-1.39 1.03,-2.88 0.71,-4.46 -0.37,-1.77 -1.3,-3.04 -2.78,-3.79 -1.5,-0.75 -3.11,-0.94 -4.83,-0.59 -2.07,0.43 -3.56,1.4 -4.45,2.92 -0.9,1.53 -1.23,3.24 -0.99,5.14l-11.27 1.47c-0.41,-2.75 -0.33,-5.22 0.25,-7.42 0.57,-2.2 1.54,-4.13 2.9,-5.8 1.35,-1.67 3.06,-3.06 5.12,-4.18 2.06,-1.12 4.36,-1.94 6.93,-2.47 2.37,-0.49 4.65,-0.61 6.86,-0.37 2.21,0.24 4.21,0.86 6.01,1.85 1.8,0.99 3.34,2.39 4.6,4.18 1.27,1.8 2.17,4 2.71,6.61 0.35,1.68 0.49,3.23 0.42,4.66 -0.07,1.42 -0.3,2.75 -0.68,3.99 -0.4,1.24 -0.91,2.41 -1.55,3.52 -0.65,1.11 -1.37,2.21 -2.17,3.3l-13.09 16.96 23.23 -4.79 2.01 9.77 -36.55 7.52 -2.42 -11.76z"/>
   <path class="fil0" d="M674.7 939.08c0,3.84 3.12,6.96 6.96,6.96 3.85,0 6.97,-3.12 6.97,-6.96 0,-3.84 -3.12,-6.96 -6.97,-6.96 -3.84,0 -6.96,3.12 -6.96,6.96z"/>
   <path class="fil0" d="M313.18 939.06c0,3.84 3.12,6.96 6.96,6.96 3.85,0 6.97,-3.12 6.97,-6.96 0,-3.84 -3.12,-6.96 -6.97,-6.96 -3.84,0 -6.96,3.12 -6.96,6.96z"/>
  </g>
 </g>
</svg>
