<?xml version="1.0" encoding="UTF-8"?>
<!DOCTYPE svg PUBLIC "-//W3C//DTD SVG 1.1//EN" "http://www.w3.org/Graphics/SVG/1.1/DTD/svg11.dtd">
<!--Risorse grafiche UNIBAS - bit.ly/unibasbrand -->
<svg xmlns="http://www.w3.org/2000/svg" xml:space="preserve" width="210mm" height="90.0002mm" version="1.1" style="shape-rendering:geometricPrecision; text-rendering:geometricPrecision; image-rendering:optimizeQuality; fill-rule:evenodd; clip-rule:evenodd"
viewBox="0 0 11211.52 4804.95"
 xmlns:xlink="http://www.w3.org/1999/xlink"
 xmlns:xodm="http://www.corel.com/coreldraw/odm/2003">
 <defs>
  <style type="text/css">
   <![CDATA[
    .fil0 {fill:white;fill-rule:nonzero}
   ]]>
  </style>
 </defs>
 <g id="Layer_x0020_1">
  <metadata id="CorelCorpID_0Corel-Layer"/>
  <g id="_1913601748752">
   <path class="fil0" d="M6867.71 1597.08c-33.38,-41.42 -77.34,-62.21 -131.98,-62.21 -19.22,0 -37.93,4.56 -56.12,13.66 -18.18,9.1 -27.28,24.81 -27.28,47.07 0,18.13 9.32,31.58 28.08,40.23 18.64,8.54 42.43,16.16 71.24,22.71 28.83,6.55 59.68,13.68 92.56,21.19 32.83,7.62 63.68,19.56 92.54,35.7 28.83,16.16 52.55,38.15 71.31,66 18.71,27.8 28.03,64.98 28.03,111.47 0,47.52 -10.39,86.73 -31.07,117.53 -20.74,30.91 -47.3,55.66 -79.67,74.3 -32.39,18.76 -68.77,31.87 -109.22,39.5 -40.46,7.58 -80.4,11.36 -119.85,11.36 -51.59,0 -103.67,-7.35 -156.22,-21.97 -52.6,-14.69 -97.08,-40.68 -133.51,-78.14l138.09 -153.25c21.19,26.33 44.75,46.34 70.5,59.95 25.82,13.68 55.88,20.47 90.24,20.47 26.33,0 50.07,-3.73 71.31,-11.37 21.25,-7.56 31.87,-21.46 31.87,-41.69 0,-19.22 -9.32,-33.62 -28.08,-43.23 -18.71,-9.61 -42.44,-17.68 -71.26,-24.3 -28.81,-6.55 -59.73,-13.66 -92.54,-21.24 -32.9,-7.58 -63.75,-18.93 -92.56,-34.13 -28.81,-15.14 -52.6,-36.61 -71.24,-64.47 -18.77,-27.74 -28.09,-64.93 -28.09,-111.47 0,-43.45 8.83,-80.87 26.56,-112.28 17.63,-31.31 40.97,-57.13 69.78,-77.36 28.77,-20.23 61.94,-35.14 99.33,-44.75 37.4,-9.59 75.31,-14.4 113.8,-14.4 48.48,0 97.52,7.11 147.13,21.24 49.51,14.19 91.49,39.45 125.89,75.89l-139.57 137.98z"/>
   <path class="fil0" d="M7632.27 1597.08c-33.39,-41.42 -77.41,-62.21 -131.99,-62.21 -19.2,0 -37.91,4.56 -56.16,13.66 -18.13,9.1 -27.29,24.81 -27.29,47.07 0,18.13 9.39,31.58 28.09,40.23 18.69,8.54 42.49,16.16 71.3,22.71 28.81,6.55 59.66,13.68 92.5,21.19 32.88,7.62 63.73,19.56 92.54,35.7 28.81,16.16 52.55,38.15 71.31,66 18.77,27.8 28.09,64.98 28.09,111.47 0,47.52 -10.39,86.73 -31.14,117.53 -20.74,30.91 -47.3,55.66 -79.62,74.3 -32.37,18.76 -68.82,31.87 -109.22,39.5 -40.46,7.58 -80.4,11.36 -119.83,11.36 -51.59,0 -103.69,-7.35 -156.24,-21.97 -52.6,-14.69 -97.06,-40.68 -133.51,-78.14l138.05 -153.25c21.24,26.33 44.75,46.34 70.5,59.95 25.82,13.68 55.95,20.47 90.3,20.47 26.27,0 50.05,-3.73 71.31,-11.37 21.24,-7.56 31.86,-21.46 31.86,-41.69 0,-19.22 -9.37,-33.62 -28.08,-43.23 -18.76,-9.61 -42.49,-17.68 -71.31,-24.3 -28.81,-6.55 -59.66,-13.66 -92.55,-21.24 -32.82,-7.58 -63.67,-18.93 -92.5,-34.13 -28.81,-15.14 -52.6,-36.61 -71.31,-64.47 -18.76,-27.74 -28.08,-64.93 -28.08,-111.47 0,-43.45 8.87,-80.87 26.56,-112.28 17.68,-31.31 40.97,-57.13 69.78,-77.36 28.81,-20.23 61.92,-35.14 99.38,-44.75 37.41,-9.59 75.33,-14.4 113.74,-14.4 48.53,0 97.57,7.11 147.19,21.24 49.49,14.19 91.47,39.45 125.87,75.89l-139.55 137.98z"/>
   <path class="fil0" d="M8000.86 1067.75l227.59 0 0 391.33 2.98 0c26.28,-35.43 59.95,-60.45 100.87,-75.15 40.95,-14.62 85.19,-21.91 132.71,-21.91 52.61,0 99.62,10.84 141.15,32.55 41.42,21.75 76.56,50.85 105.37,87.23 28.81,36.39 51.08,78.1 66.72,125.15 15.71,47.02 23.51,96.34 23.51,147.93 0,55.61 -8.58,106.69 -25.77,153.18 -17.23,46.56 -41.69,86.73 -73.56,120.64 -31.87,33.84 -70.06,60.17 -114.53,78.88 -44.53,18.69 -94.02,28.01 -148.65,28.01 -26.28,0 -51.08,-3.56 -74.3,-10.62 -23.29,-7.11 -44.75,-16.16 -64.53,-27.29 -19.67,-11.07 -36.9,-23.5 -51.52,-37.17 -14.7,-13.61 -26.56,-27 -35.65,-40.17l-3.06 0 0 97.06 -209.34 0 0 -1049.64zm209.34 681.02c0,55.66 15.94,100.63 47.81,134.99 31.86,34.4 76.61,51.59 134.25,51.59 57.63,0 102.38,-17.19 134.25,-51.59 31.81,-34.36 47.75,-79.33 47.75,-134.99 0,-55.59 -15.94,-100.63 -47.75,-134.99 -31.87,-34.36 -76.62,-51.59 -134.25,-51.59 -57.64,0 -102.39,17.23 -134.25,51.59 -31.87,34.36 -47.81,79.39 -47.81,134.99z"/>
   <path class="fil0" d="M9460.13 2024.88l-3.04 0c-25.32,39.43 -58.94,67.73 -100.86,84.97 -42,17.19 -86.23,25.77 -132.79,25.77 -34.36,0 -67.46,-4.8 -99.32,-14.4 -31.87,-9.61 -59.9,-24.02 -84.2,-43.23 -24.23,-19.22 -43.45,-43 -57.63,-71.31 -14.19,-28.32 -21.25,-61.2 -21.25,-98.6 0,-42.49 7.86,-78.37 23.51,-107.76 15.65,-29.26 36.95,-53.56 63.73,-72.76 26.78,-19.22 57.4,-34.13 91.82,-44.75 34.29,-10.63 69.94,-18.43 106.89,-23.51 36.9,-5.03 73.8,-8.09 110.69,-9.1 36.97,-0.96 71.08,-1.52 102.44,-1.52 0,-40.46 -14.4,-72.55 -43.23,-96.34 -28.81,-23.74 -62.93,-35.65 -102.38,-35.65 -37.46,0 -71.59,7.85 -102.44,23.56 -30.85,15.65 -58.36,37.13 -82.66,64.42l-121.37 -124.37c42.49,-39.43 92.05,-69.05 148.66,-88.72 56.67,-19.76 115.32,-29.6 176,-29.6 66.72,0 121.6,8.36 164.59,25.03 42.96,16.66 77.36,41.18 103.18,73.56 25.77,32.37 43.68,72.04 53.85,119.1 10.06,47.01 15.15,101.37 15.15,163.06l0 374.67 -209.35 0 0 -92.54zm-56.11 -230.59c-17.23,0 -38.7,0.78 -64.47,2.31 -25.82,1.54 -50.63,5.77 -74.36,12.89 -23.72,7.06 -43.95,17.68 -60.67,31.81 -16.67,14.17 -25.03,33.95 -25.03,59.16 0,27.34 11.63,47.57 34.92,60.73 23.22,13.1 47.52,19.67 72.83,19.67 22.21,0 43.68,-3.06 64.42,-9.05 20.74,-6.1 39.16,-14.69 55.37,-25.82 16.22,-11.13 29.1,-25.26 38.71,-42.43 9.59,-17.23 14.4,-37.46 14.4,-60.75l0 -48.53 -56.11 0z"/>
   <path class="fil0" d="M1026.25 4177.7c8.76,-12.43 18.71,-22.54 29.84,-30.4 11.13,-7.85 23.11,-12.99 35.92,-15.47 12.89,-2.48 26.33,-2.03 40.46,1.41 14.13,3.44 28.43,10.28 42.83,20.39 14.64,10.3 25.99,21.54 33.95,33.62 8.02,12.16 13.01,24.7 15.04,37.57 1.97,12.94 1.12,25.99 -2.48,39.11 -3.62,13.1 -9.79,25.87 -18.53,38.36l-90.81 128.93 -46.27 -32.55 89.56 -127.19c4.56,-6.55 7.78,-13.28 9.59,-20.28 1.81,-6.95 2.32,-13.84 1.36,-20.52 -0.85,-6.71 -3.17,-12.99 -6.77,-18.98 -3.62,-5.93 -8.54,-11.07 -14.64,-15.38 -6.17,-4.34 -12.6,-7.18 -19.32,-8.52 -6.73,-1.36 -13.41,-1.3 -20,0.11 -6.61,1.41 -12.94,4.12 -18.88,8.25 -5.99,4 -11.24,9.32 -15.87,15.87l-89.5 127.14 -46.27 -32.55 90.8 -128.95z"/>
   <polygon class="fil0" points="798.84,4193.54 744.32,4139.42 792.62,3935.88 792.06,3935.43 666.4,4061.94 626.23,4022.11 807.15,3840 859.64,3892.09 810.32,4100.7 810.82,4101.22 939.59,3971.6 979.76,4011.43 "/>
   <polygon class="fil0" points="519.16,3891.35 484.63,3846.56 687.92,3689.87 722.44,3734.68 "/>
   <polygon class="fil0" points="400.08,3732.47 367.24,3676.93 479.92,3536.75 479.52,3536.12 301.88,3566.08 271.08,3513.93 545.97,3474.65 569.02,3513.64 "/>
   <polygon class="fil0" points="207.33,3377.32 142.47,3215.43 190.9,3196.05 234.74,3305.44 279.15,3287.58 237.73,3184.24 286.21,3164.86 327.63,3268.15 376.11,3248.77 329.83,3133.34 378.26,3113.9 445.61,3281.83 "/>
   <path class="fil0" d="M90.01 3050.99l-23 -96.61c-3,-12.72 -4.63,-25.1 -4.92,-37.06 -0.22,-11.98 1.54,-22.95 5.25,-32.95 3.73,-9.95 9.83,-18.6 18.42,-25.99 8.54,-7.35 20.12,-12.77 34.71,-16.27 17.62,-4.18 33.73,-3.11 48.24,3.06 14.53,6.26 25.55,17.79 32.99,34.69l90.35 -88.6 15.71 65.94 -87.4 75.99 6.44 27.12 99.83 -23.74 13.12 55.05 -249.74 59.37zm90.24 -79.6l-7.69 -32.43c-1.19,-4.98 -2.59,-10.17 -4.29,-15.59 -1.63,-5.43 -3.89,-10.17 -6.73,-14.24 -2.82,-4.07 -6.44,-7.06 -10.91,-9.1 -4.45,-2.03 -10.11,-2.26 -16.95,-0.67 -6.33,1.52 -11.07,4 -14.24,7.51 -3.17,3.44 -5.25,7.46 -6.28,11.92 -1.07,4.47 -1.3,9.38 -0.78,14.68 0.51,5.38 1.36,10.52 2.55,15.44l8.52 35.99 56.79 -13.5z"/>
   <path class="fil0" d="M71.85 2571.59c-5.37,5.08 -9.05,11.63 -11.13,19.65 -2.03,8.09 -2.77,15.55 -2.1,22.49 0.35,4.07 1.25,8.26 2.61,12.44 1.35,4.23 3.22,8.18 5.59,11.8 2.43,3.67 5.43,6.55 8.99,8.65 3.62,2.08 7.8,2.88 12.6,2.48 7.74,-0.74 13.33,-4.13 16.95,-10.28 3.56,-6.1 6.37,-13.68 8.41,-22.66 2.1,-9.03 4.13,-18.71 6.1,-29.04 1.99,-10.28 5.21,-20.05 9.67,-29.33 4.52,-9.21 10.96,-17.06 19.32,-23.67 8.36,-6.55 20.07,-10.51 34.98,-11.87 14.17,-1.3 26.84,0.22 37.91,4.52 11.08,4.29 20.52,10.68 28.3,19 7.8,8.36 13.97,18.31 18.37,29.82 4.47,11.58 7.35,23.96 8.54,37.13 1.52,16.56 0.38,32.1 -3.33,46.67 -3.8,14.64 -10.75,28.53 -20.97,41.75l-47.7 -35.83c7.18,-6.49 12.49,-14.24 15.89,-23.38 3.38,-9.16 4.68,-18.37 3.84,-27.74 -0.46,-4.53 -1.43,-9.1 -2.95,-13.68 -1.47,-4.58 -3.51,-8.58 -5.99,-12.16 -2.55,-3.49 -5.59,-6.21 -9.15,-8.18 -3.57,-1.99 -7.64,-2.77 -12.2,-2.32 -7.75,0.69 -13.52,4.18 -17.46,10.46 -3.91,6.28 -7.02,13.95 -9.34,23.16 -2.31,9.1 -4.56,19 -6.71,29.55 -2.21,10.63 -5.54,20.57 -10.01,29.9 -4.52,9.37 -10.8,17.35 -18.93,24.06 -8.14,6.61 -19.32,10.63 -33.51,11.93 -13.73,1.23 -25.98,-0.4 -36.84,-4.8 -10.84,-4.47 -20.16,-10.91 -27.96,-19.22 -7.8,-8.36 -14.01,-18.24 -18.6,-29.66 -4.52,-11.4 -7.4,-23.38 -8.52,-35.81 -1.36,-14.41 -0.58,-28.48 2.31,-42.27 2.83,-13.79 8.6,-26.51 17.23,-38.14l45.78 34.58z"/>
   <polygon class="fil0" points="-0,2383.59 1.14,2327.08 257.77,2332.22 256.63,2388.79 "/>
   <polygon class="fil0" points="70.79,2119.83 61.12,2192.44 11.52,2185.83 38.36,1984.57 87.9,1991.18 78.24,2063.72 283.12,2091.08 275.61,2147.12 "/>
   <path class="fil0" d="M80.71 1727.94l-12.67 46.16 -66.95 46.67 19.6 -71.31 60.01 -21.53zm2.08 63.73l12.38 -45.09 277.02 -39.83 -16.83 61.54 -58.3 6.95 -26.4 96.16 46.85 35.03 -16.51 60.13 -218.21 -174.88zm77.74 -1.23l68.71 51.19 16.56 -60.53 -85.27 9.34z"/>
   <path class="fil0" d="M268.88 1301.74l42.44 -73.45c10.28,-17.81 22.02,-33.57 35.32,-47.25 13.21,-13.73 27.74,-23.94 43.5,-30.74 15.76,-6.84 32.83,-9.59 51.08,-8.41 18.31,1.23 37.57,7.74 57.92,19.43 17.97,10.46 31.87,23 41.64,37.75 9.77,14.69 15.98,30.51 18.64,47.34 2.66,16.95 2.03,34.29 -1.86,52.15 -3.91,17.86 -10.63,35.03 -20.18,51.59l-46.27 80 -222.23 -128.42zm205.33 53.33l14.69 -25.43c6.57,-11.29 11.48,-22.42 14.82,-33.49 3.33,-11.08 4.34,-21.7 3.16,-31.94 -1.23,-10.17 -5.03,-19.83 -11.36,-28.93 -6.33,-9.1 -15.76,-17.28 -28.3,-24.52 -10.91,-6.33 -21.53,-9.72 -31.92,-10.28 -10.46,-0.62 -20.29,1.07 -29.5,4.92 -9.21,3.89 -17.79,9.72 -25.82,17.52 -8.02,7.78 -14.98,16.83 -20.9,27.05l-16.67 28.94 131.82 76.16z"/>
   <polygon class="fil0" points="482.19,964.13 591.81,828.52 632.38,861.29 558.37,952.93 595.6,982.99 665.55,896.44 706.12,929.26 636.17,1015.83 676.79,1048.65 754.94,951.92 795.55,984.76 681.88,1125.44 "/>
   <path class="fil0" d="M1042.54 721.62c-6.55,17.62 -15.25,33.95 -26.09,48.98 -10.86,15.04 -23.29,28.81 -37.3,41.48 -14.86,13.44 -30.67,23.56 -47.46,30.22 -16.79,6.66 -33.68,9.77 -50.69,9.32 -16.95,-0.4 -33.62,-4.52 -49.89,-12.25 -16.32,-7.75 -31.34,-19.27 -45.13,-34.47 -13.73,-15.26 -23.67,-31.42 -29.73,-48.37 -6.1,-17.01 -8.47,-34.02 -7.18,-50.96 1.3,-16.96 6.1,-33.46 14.41,-49.44 8.36,-15.98 19.94,-30.74 34.85,-44.19 15.26,-13.77 30.98,-24.57 47.07,-32.55 16.16,-7.91 33.11,-11.74 50.92,-11.52l-0.4 59.04c-11.13,-0.74 -21.64,0.56 -31.54,4.07 -9.95,3.4 -20.28,10.01 -31.07,19.72 -8.92,8.09 -15.71,16.96 -20.16,26.56 -4.53,9.61 -6.9,19.49 -7.18,29.66 -0.29,10.17 1.63,20.29 5.64,30.29 4.02,10.06 10.01,19.49 17.97,28.25 8.09,8.99 16.9,15.94 26.4,20.92 9.48,4.9 19.32,7.74 29.49,8.52 10.12,0.8 20.23,-0.62 30.24,-4.12 9.99,-3.51 19.49,-9.32 28.48,-17.41 9.15,-8.25 16.1,-16.43 20.84,-24.52 4.8,-8.02 8.2,-14.91 10.17,-20.63l-27.9 -30.96 -34.2 30.91 -35.03 -38.76 74.52 -67.35 89.95 99.56z"/>
   <polygon class="fil0" points="1021.39,441.43 1068.51,410.12 1181.52,580.53 1268.87,522.62 1297.73,566.18 1163.26,655.35 "/>
   <polygon class="fil0" points="1281.28,282.71 1331.58,256.82 1449.11,485.04 1398.81,510.93 "/>
   <path class="fil0" d="M1823.68 139.44c-5.99,-4.36 -13.12,-6.84 -21.43,-7.42 -8.36,-0.56 -15.87,0.11 -22.6,1.99 -3.96,1.07 -7.91,2.71 -11.85,4.8 -3.91,2.08 -7.46,4.63 -10.68,7.69 -3.17,2.98 -5.43,6.44 -6.9,10.33 -1.41,3.91 -1.46,8.2 -0.16,12.88 2.08,7.42 6.44,12.38 13.17,14.75 6.66,2.43 14.62,3.84 23.96,4.29 9.26,0.4 19.14,0.69 29.71,0.74 10.57,0.06 20.79,1.52 30.74,4.24 9.9,2.77 18.88,7.69 26.84,14.74 8.02,7.06 14.01,17.81 18.02,32.21 3.8,13.79 4.58,26.51 2.32,38.15 -2.26,11.69 -6.84,22.09 -13.68,31.3 -6.89,9.21 -15.58,17.01 -26.22,23.45 -10.62,6.5 -22.37,11.53 -35.14,15.09 -16.1,4.47 -31.7,6.15 -46.78,5.03 -15.09,-1.03 -30.11,-5.37 -45.04,-13.01l26.96 -53.45c7.62,5.94 16.27,9.72 25.93,11.42 9.61,1.75 19,1.3 28.09,-1.19 4.4,-1.25 8.76,-3 12.99,-5.32 4.24,-2.32 7.91,-5.03 10.91,-8.14 3.06,-3.11 5.21,-6.55 6.5,-10.46 1.3,-3.83 1.35,-8.01 0.11,-12.43 -2.03,-7.45 -6.55,-12.54 -13.45,-15.31 -6.89,-2.71 -15.09,-4.34 -24.52,-5.03 -9.5,-0.56 -19.67,-1.01 -30.51,-1.3 -10.84,-0.22 -21.3,-1.7 -31.3,-4.45 -10.06,-2.66 -19.11,-7.46 -27.13,-14.3 -8.07,-6.77 -14.01,-17.01 -17.79,-30.74 -3.67,-13.28 -4.29,-25.66 -1.86,-37.13 2.48,-11.47 7.11,-21.81 13.95,-31.02 6.89,-9.15 15.54,-16.99 25.99,-23.56 10.51,-6.55 21.75,-11.52 33.91,-14.91 13.95,-3.84 28.01,-5.65 42.14,-5.32 14.13,0.35 27.74,3.68 40.79,10.12l-25.98 51.25z"/>
   <polygon class="fil0" points="2057.94,79.79 1985.4,89.61 1978.67,40.01 2179.87,12.78 2186.55,62.34 2114,72.22 2141.74,276.99 2085.7,284.55 "/>
   <path class="fil0" d="M2543.35 161.21c-0.22,15.25 -2.77,29.21 -7.58,41.92 -4.8,12.72 -11.8,23.74 -21.01,33.06 -9.21,9.27 -20.63,16.45 -34.24,21.53 -13.61,5.09 -29.26,7.51 -46.9,7.24 -17.91,-0.29 -33.57,-3.22 -47.01,-8.76 -13.45,-5.54 -24.63,-13.05 -33.57,-22.66 -8.87,-9.55 -15.54,-20.79 -19.94,-33.67 -4.36,-12.89 -6.44,-26.89 -6.17,-42.16l2.55 -157.7 56.55 0.9 -2.53 155.55c-0.11,7.98 1.01,15.31 3.44,22.15 2.43,6.84 5.93,12.72 10.39,17.75 4.52,5.03 9.95,8.99 16.34,11.87 6.37,2.88 13.28,4.4 20.79,4.52 7.45,0.11 14.4,-1.12 20.73,-3.84 6.34,-2.66 11.82,-6.44 16.51,-11.29 4.63,-4.92 8.3,-10.68 10.96,-17.46 2.66,-6.73 4,-14.08 4.18,-22.04l2.48 -155.5 56.57 0.91 -2.55 157.7z"/>
   <path class="fil0" d="M2721 22.73l83.51 14.98c20.23,3.67 39.05,9.39 56.39,17.12 17.39,7.8 31.97,17.97 43.72,30.51 11.76,12.54 20.12,27.63 25.21,45.2 5.08,17.63 5.53,37.98 1.35,61.02 -3.67,20.45 -10.73,37.8 -21.3,51.99 -10.51,14.17 -23.27,25.37 -38.25,33.62 -14.98,8.25 -31.54,13.57 -49.67,15.94 -18.08,2.42 -36.55,1.92 -55.32,-1.43l-91.02 -16.38 45.37 -252.56zm19.54 211.21l28.88 5.21c12.88,2.31 25.03,3.16 36.61,2.48 11.53,-0.62 21.86,-3.22 31.02,-7.85 9.21,-4.64 17.01,-11.42 23.38,-20.47 6.45,-9.03 10.91,-20.73 13.45,-34.96 2.26,-12.38 1.86,-23.56 -1.14,-33.51 -3,-10.06 -7.9,-18.71 -14.69,-26.06 -6.77,-7.34 -15.2,-13.5 -25.26,-18.35 -10.06,-4.85 -20.9,-8.31 -32.55,-10.46l-32.82 -5.88 -26.91 149.85z"/>
   <polygon class="fil0" points="3102.68,107.73 3156.57,124.8 3079.05,369.52 3025.16,352.44 "/>
   <path class="fil0" d="M3511.85 272.09l73.34 42.6c17.79,10.33 33.51,22.15 47.17,35.36 13.68,13.28 23.91,27.8 30.69,43.61 6.73,15.78 9.5,32.83 8.25,51.09 -1.3,18.31 -7.8,37.57 -19.54,57.85 -10.46,17.97 -23.06,31.81 -37.81,41.58 -14.74,9.72 -30.56,15.94 -47.46,18.55 -16.9,2.59 -34.29,1.97 -52.1,-1.99 -17.84,-3.89 -35.03,-10.68 -51.52,-20.28l-79.95 -46.45 128.95 -221.94zm-53.8 205.22l25.37 14.74c11.31,6.57 22.44,11.53 33.51,14.86 11.08,3.33 21.7,4.4 31.87,3.22 10.22,-1.19 19.89,-4.97 28.99,-11.24 9.1,-6.33 17.35,-15.76 24.63,-28.3 6.26,-10.86 9.72,-21.48 10.33,-31.92 0.62,-10.41 -1.01,-20.23 -4.92,-29.44 -3.83,-9.21 -9.66,-17.86 -17.46,-25.88 -7.74,-8.02 -16.77,-14.98 -27,-20.97l-28.88 -16.72 -76.45 131.66z"/>
   <polygon class="fil0" points="3848.95,486.1 3984.38,595.99 3951.45,636.56 3859.97,562.26 3829.79,599.43 3916.25,669.62 3883.37,710.12 3796.91,640 3764.03,680.52 3860.59,758.89 3827.65,799.4 3687.18,685.44 "/>
   <polygon class="fil0" points="4109.63,714.53 4148.28,755.83 3999.01,895.56 4070.6,972.07 4032.45,1007.72 3922.22,889.92 "/>
   <polygon class="fil0" points="4314.11,949.39 4347.12,995.33 4181.05,1114.67 4242.18,1199.76 4199.82,1230.21 4105.67,1099.18 "/>
   <path class="fil0" d="M4527.31 1284.18l21.46 41.59 -176.9 216.96 -29.28 -56.71 38.2 -44.59 -45.71 -88.59 -58.14 5.93 -28.59 -55.43 278.96 -19.16zm-56.39 53.62l-85.14 8.83 28.75 55.75 56.39 -64.58z"/>
   <path class="fil0" d="M4721 1769.07l21.75 93.17c2.48,10.86 4.29,21.93 5.32,33.23 1.01,11.29 0.22,21.86 -2.32,31.63 -2.55,9.79 -7.35,18.31 -14.3,25.66 -7,7.34 -17.28,12.6 -30.96,15.76 -14.13,3.28 -26.78,2.1 -37.91,-3.62 -11.13,-5.7 -20.16,-14.57 -27.23,-26.6l-0.69 0.16c0.74,8.54 0.18,16.56 -1.63,24.02 -1.86,7.51 -4.85,14.29 -9.03,20.39 -4.18,6.05 -9.5,11.2 -16,15.42 -6.44,4.24 -13.66,7.29 -21.64,9.16 -13.21,3.04 -24.86,2.82 -35.03,-0.8 -10.12,-3.6 -18.93,-9.21 -26.44,-16.88 -7.51,-7.69 -13.73,-16.9 -18.71,-27.53 -4.97,-10.62 -8.7,-21.46 -11.29,-32.55l-23.85 -102.38 249.97 -58.25zm-190.53 102.44l11.53 49.44c0.96,4.29 2.43,8.41 4.4,12.59 1.92,4.13 4.52,7.69 7.69,10.68 3.16,3 6.89,5.14 11.18,6.5 4.29,1.35 9.16,1.41 14.57,0.16 5.88,-1.41 10.3,-4 13.28,-7.74 2.95,-3.84 4.87,-8.14 5.72,-13.05 0.85,-4.92 1.01,-10.06 0.51,-15.42 -0.51,-5.37 -1.31,-10.22 -2.32,-14.75l-9.72 -41.64 -56.84 13.23zm103.47 -24.07l9.26 39.9c1.03,4.23 2.43,8.3 4.36,12.2 1.92,3.89 4.29,7.29 7.18,10.06 2.88,2.82 6.33,4.79 10.33,5.99 4.02,1.12 8.49,1.19 13.39,0 5.21,-1.2 9.21,-3.28 12.09,-6.34 2.95,-3.04 4.92,-6.55 5.94,-10.51 1.07,-3.96 1.52,-8.3 1.3,-12.94 -0.22,-4.68 -0.85,-9.15 -1.81,-13.33l-8.76 -37.46 -53.27 12.43z"/>
   <path class="fil0" d="M4796.14 2203.67l3.4 46.67 -247.82 130.07 -4.69 -63.62 52.66 -25.99 -7.29 -99.49 -55.82 -17.35 -4.53 -62.16 264.1 91.87zm-72.89 27.13l-81.81 -25.26 4.58 62.61 77.23 -37.35z"/>
   <path class="fil0" d="M4732.53 2630.17c6.1,-4.12 10.84,-10.06 14.24,-17.62 3.33,-7.64 5.3,-14.98 5.81,-21.99 0.29,-4.07 0.11,-8.36 -0.51,-12.7 -0.61,-4.4 -1.86,-8.65 -3.6,-12.67 -1.76,-4 -4.24,-7.34 -7.4,-9.99 -3.24,-2.71 -7.24,-4.18 -12.04,-4.52 -7.74,-0.56 -13.84,1.86 -18.35,7.34 -4.53,5.49 -8.6,12.49 -12.16,21.08 -3.51,8.6 -7.11,17.86 -10.8,27.74 -3.6,9.9 -8.41,19.04 -14.4,27.47 -5.94,8.42 -13.61,15.14 -22.95,20.28 -9.37,5.09 -21.53,7.13 -36.44,5.99 -14.24,-1.01 -26.44,-4.63 -36.66,-10.73 -10.23,-6.1 -18.48,-13.9 -24.76,-23.5 -6.33,-9.56 -10.73,-20.4 -13.21,-32.61 -2.48,-12.14 -3.22,-24.86 -2.26,-38.14 1.23,-16.67 4.97,-31.87 11.07,-45.71 6.1,-13.9 15.31,-26.51 27.58,-37.98l41.07 43.45c-8.14,5.21 -14.62,12.03 -19.49,20.57 -4.92,8.42 -7.67,17.41 -8.36,26.78 -0.38,4.58 -0.16,9.27 0.58,14.08 0.72,4.74 2.03,9.1 3.94,12.99 1.87,3.89 4.42,7.13 7.64,9.66 3.16,2.55 7.06,3.96 11.63,4.36 7.75,0.56 14.01,-1.92 18.93,-7.51 4.92,-5.61 9.27,-12.72 13.05,-21.41 3.8,-8.65 7.69,-18.08 11.58,-28.2 3.91,-10.11 8.83,-19.43 14.82,-27.96 5.99,-8.54 13.5,-15.42 22.65,-20.68 9.1,-5.25 20.74,-7.35 34.98,-6.28 13.73,1.03 25.59,4.64 35.54,10.86 9.99,6.21 18.13,14.06 24.41,23.61 6.33,9.55 10.8,20.4 13.39,32.43 2.66,12.09 3.44,24.41 2.55,36.95 -1.07,14.48 -4.18,28.25 -9.27,41.48 -5.14,13.17 -12.94,24.86 -23.34,34.96l-39.43 -41.87z"/>
   <polygon class="fil0" points="4767.47,2827.03 4756.9,2882.58 4504.74,2834.72 4515.31,2779.18 "/>
   <polygon class="fil0" points="4719.03,3045.01 4702.42,3099.08 4506.97,3039.02 4476.17,3139.14 4426.23,3123.83 4473.69,2969.57 "/>
   <polygon class="fil0" points="4618.6,3332.59 4596.11,3384.46 4360.61,3282.42 4383.1,3230.55 "/>
   <path class="fil0" d="M4381.57 3646.33c8.65,-1.36 16.63,-4.63 23.85,-9.77 7.18,-5.14 13.5,-12.32 18.93,-21.48 5.37,-9.15 8.58,-18.71 9.66,-28.59 1.03,-9.88 0.06,-19.56 -2.93,-29.04 -3,-9.5 -7.91,-18.37 -14.75,-26.78 -6.84,-8.36 -15.36,-15.54 -25.59,-21.53 -10.39,-6.17 -20.9,-10.12 -31.41,-11.98 -10.57,-1.87 -20.69,-1.87 -30.35,0.05 -9.66,1.87 -18.47,5.54 -26.49,11.13 -8.02,5.48 -14.59,12.65 -19.73,21.41 -5.86,9.95 -9.03,20.07 -9.37,30.24 -0.4,10.11 1.7,19.94 6.26,29.31l-54.18 22.84c-7.62,-17.12 -10.33,-34.69 -8.14,-52.77 2.21,-18.03 7.8,-34.64 16.72,-49.84 10.17,-17.35 22.26,-31.63 36.28,-43.05 13.97,-11.42 29.17,-19.43 45.49,-24.12 16.38,-4.69 33.46,-5.77 51.36,-3.22 17.86,2.48 35.65,8.92 53.33,19.32 17.75,10.46 32.03,22.89 42.89,37.24 10.91,14.41 18.24,29.89 22.15,46.45 3.83,16.55 4.18,33.73 1.01,51.48 -3.16,17.79 -9.83,35.3 -20,52.65 -3.67,6.23 -8.07,12.38 -13.17,18.48 -5.14,6.1 -10.91,11.69 -17.23,16.83 -6.37,5.03 -13.39,9.43 -21.13,13.01 -7.74,3.56 -15.98,5.99 -24.86,7.22l-8.6 -55.48z"/>
   <path class="fil0" d="M4271.12 3913.62l-29.77 36.1 -269.06 -77.3 40.62 -49.2 56.06 17.51 63.46 -76.83 -28.32 -51.14 39.67 -48.08 127.35 248.94zm-71.47 -30.74l-41.64 -74.86 -39.95 48.37 81.59 26.49z"/>
   <polygon class="fil0" points="4021.35,4110.41 4075.08,4060.63 4109.1,4097.36 3960.1,4235.27 3926.15,4198.61 3979.88,4148.83 3839.42,3997.24 3880.95,3958.77 "/>
   <path class="fil0" d="M3803.22 4355.51l-38.25 26.96 -239.01 -145.72 52.15 -36.73 49.39 31.74 81.52 -57.34 -13.77 -56.79 51.01 -35.88 56.95 273.75zm-60.73 -48.53l-20.4 -83.24 -51.3 36.12 71.71 47.12z"/>
   <path class="fil0" d="M2135.49 1943.63l0 725.77c0,221.16 -179.24,400.42 -400.44,400.42 -33.89,0 -66.79,-4.29 -98.26,-12.2 -173.57,-43.84 -302.12,-200.97 -302.12,-388.22l0 -1067.79 0.06 0 800.76 342.02z"/>
   <path class="fil0" d="M1868.56 1468.15c0,73.74 -59.73,133.47 -133.47,133.47 -73.74,0 -133.47,-59.73 -133.47,-133.47 0,-73.68 59.73,-133.45 133.47,-133.45 73.74,0 133.47,59.77 133.47,133.45z"/>
   <path class="fil0" d="M3470.21 2802.88c0,470.67 -348.05,860.08 -800.81,924.72 -43.61,6.33 -88.14,9.55 -133.51,9.55l-133.4 -57 -266.98 -114.02 -274.49 -117.19 -378.12 -161.48c77.81,31.74 163.02,49.27 252.23,49.27 11.2,0 22.37,-0.29 33.39,-0.8 137.31,-6.77 263.76,-55.03 366.99,-132.55 159.96,-120.17 264.21,-310.52 266.98,-525.35 0,-2.88 0,-5.77 0,-8.65 0,-2.88 0,-5.7 0,-8.58l0 -1593.03 266.91 0c294.83,0 533.84,239 533.84,533.89 0,160.47 -70.74,304.31 -182.84,402.24 155.55,94.48 281.33,233.18 359.86,398.57 57.69,121.37 89.95,257.08 89.95,400.43z"/>
   <polygon class="fil0" points="1955.08,4561.19 1895.53,4595.2 1872.48,4554.18 1968.76,4501.8 2018.49,4512.04 1966.79,4763.47 1915.65,4752.96 "/>
   <path class="fil0" d="M2250.71 4708.99c-2.93,0.5 -5.88,0.96 -8.81,1.23 -2.95,0.29 -5.94,0.29 -9.1,0.11 -12.04,-0.78 -22.89,-3.73 -32.5,-8.7 -9.59,-5.03 -17.62,-11.47 -24.12,-19.44 -6.5,-7.9 -11.36,-17.11 -14.53,-27.63 -3.16,-10.51 -4.34,-21.57 -3.6,-33.15 0.9,-13.28 4.18,-25.1 9.82,-35.49 5.65,-10.39 13.05,-19.2 22.1,-26.33 9.1,-7.18 19.54,-12.43 31.41,-15.87 11.87,-3.44 24.52,-4.74 38.02,-3.84 13.28,0.85 25.59,3.84 37.08,8.81 11.4,5.03 21.13,11.64 29.15,19.96 8.07,8.3 14.17,17.95 18.42,29.04 4.24,11.07 5.93,23.22 5.03,36.44 -0.62,9.21 -2.03,17.52 -4.18,24.99 -2.21,7.51 -4.92,14.57 -8.14,21.13 -3.22,6.55 -6.95,12.77 -11.08,18.64 -4.12,5.94 -8.47,11.98 -12.99,18.26l-61.92 83.78 -66.23 -4.4 66.16 -87.51zm-38.54 -81.76c-0.74,11.53 2.43,21.41 9.5,29.49 7.11,8.09 16.79,12.56 29.1,13.41 12.32,0.83 22.49,-2.32 30.56,-9.39 8.14,-7.13 12.54,-16.45 13.34,-28.03 0.78,-11.58 -2.37,-21.41 -9.5,-29.55 -7.06,-8.07 -16.79,-12.54 -29.04,-13.33 -12.32,-0.85 -22.55,2.31 -30.62,9.37 -8.09,7.13 -12.54,16.45 -13.34,28.03z"/>
   <path class="fil0" d="M2468.33 4616.26c-0.8,-11.8 0.72,-22.26 4.63,-31.36 3.89,-9.1 9.55,-16.83 17.01,-23.27 7.4,-6.39 16.21,-11.42 26.38,-14.98 10.17,-3.62 21.19,-5.77 32.99,-6.55 11.82,-0.8 23,-0.11 33.57,2.08 10.57,2.26 19.94,5.99 28.03,11.42 8.14,5.37 14.74,12.32 19.94,20.79 5.14,8.54 8.14,18.64 8.92,30.46 0.91,13.95 -2.08,26.15 -9.03,36.55 -6.89,10.35 -17.12,18.08 -30.62,23.11l0.05 0.67c15.71,3.06 28.03,9.72 36.97,19.89 8.92,10.17 13.89,23.22 14.96,39.1 0.8,12.27 -0.94,23.29 -5.25,33.06 -4.34,9.72 -10.44,17.91 -18.35,24.63 -7.91,6.66 -17.19,11.98 -27.8,15.76 -10.68,3.91 -21.86,6.21 -33.67,7.02 -11.87,0.78 -23.29,-0.06 -34.36,-2.43 -11.08,-2.43 -20.97,-6.44 -29.66,-11.98 -8.76,-5.65 -15.89,-12.94 -21.48,-22.04 -5.59,-9.03 -8.76,-19.72 -9.61,-31.97 -1.01,-15.94 2.15,-29.5 9.67,-40.79 7.45,-11.24 18.8,-19.44 33.95,-24.59l-0.06 -0.74c-14.01,-3.16 -25.15,-9.43 -33.39,-18.82 -8.25,-9.37 -12.81,-21.01 -13.77,-35.03zm54.74 3.96c0.56,7.98 3.89,14.53 10.06,19.67 6.17,5.19 13.95,7.45 23.34,6.84 9.43,-0.62 16.83,-3.91 22.26,-9.83 5.37,-5.94 7.85,-12.88 7.29,-20.85 -0.51,-7.69 -3.84,-14.13 -9.99,-19.27 -6.17,-5.19 -13.9,-7.46 -23.34,-6.84 -9.39,0.62 -16.85,3.96 -22.21,9.83 -5.41,5.94 -7.91,12.77 -7.4,20.45zm2.66 104.76c0.56,8.92 4.34,16.27 11.29,22.09 6.9,5.88 15.82,8.42 26.68,7.69 10.84,-0.74 19.32,-4.4 25.35,-11.13 6.1,-6.66 8.87,-14.46 8.26,-23.4 -0.58,-9.15 -4.36,-16.66 -11.31,-22.49 -6.89,-5.81 -15.82,-8.41 -26.67,-7.69 -10.84,0.74 -19.33,4.47 -25.43,11.13 -6.04,6.73 -8.81,14.64 -8.18,23.8z"/>
   <path class="fil0" d="M2790.28 4715.11l79.6 -107.81c4.07,-5.48 7.98,-11.64 11.76,-18.31 3.84,-6.73 4.92,-13.9 3.4,-21.48 -1.76,-8.47 -6.21,-14.57 -13.39,-18.13 -7.13,-3.62 -14.86,-4.52 -23.18,-2.82 -9.95,2.03 -17.06,6.71 -21.35,14.01 -4.29,7.34 -5.88,15.54 -4.69,24.68l-54.07 7.06c-1.99,-13.17 -1.59,-25.08 1.19,-35.65 2.77,-10.51 7.34,-19.83 13.84,-27.8 6.5,-8.01 14.69,-14.69 24.59,-20.05 9.88,-5.37 20.97,-9.32 33.28,-11.87 11.36,-2.31 22.37,-2.93 32.93,-1.75 10.63,1.12 20.23,4.12 28.88,8.87 8.65,4.74 15.98,11.47 22.09,20.05 6.05,8.58 10.39,19.22 13.01,31.76 1.63,8.02 2.31,15.47 1.97,22.31 -0.27,6.9 -1.35,13.28 -3.22,19.22 -1.86,5.93 -4.36,11.58 -7.46,16.88 -3.11,5.32 -6.6,10.63 -10.44,15.82l-62.83 81.43 111.54 -22.94 9.59 46.83 -175.38 36.17 -11.63 -56.51z"/>
   <path class="fil0" d="M3238.27 4507.14c0,18.42 14.96,33.39 33.39,33.39 18.47,0 33.38,-14.98 33.38,-33.39 0,-18.47 -14.91,-33.39 -33.38,-33.39 -18.43,0 -33.39,14.93 -33.39,33.39z"/>
   <path class="fil0" d="M1503.14 4507.06c0,18.42 14.98,33.39 33.39,33.39 18.48,0 33.46,-14.98 33.46,-33.39 0,-18.48 -14.98,-33.39 -33.46,-33.39 -18.42,0 -33.39,14.91 -33.39,33.39z"/>
   <polygon class="fil0" points="5585.23,4804.95 5626.18,4804.95 5626.18,0.03 5585.23,0.03 "/>
   <polygon class="fil0" points="6406.54,3737.16 11211.45,3737.16 11211.45,3470.18 6406.54,3470.18 "/>
   <polygon class="fil0" points="10811.07,3336.78 11211.52,3336.78 11211.52,3069.81 10811.07,3069.81 "/>
   <polygon class="fil0" points="11077.99,2936.36 11211.45,2936.36 11211.45,2669.45 11077.99,2669.45 "/>
   <polygon class="fil0" points="8809.01,2535.92 11211.52,2535.92 11211.52,2268.96 8809.01,2268.96 "/>
   <path class="fil0" d="M6406.57 3076.29l94.71 0c11.02,0 22.04,0.78 33.17,2.37 11.12,1.47 21.13,4.63 29.93,9.32 8.87,4.63 16.05,11.13 21.53,19.49 5.54,8.42 8.25,19.49 8.25,33.39 0,14.35 -3.96,26.22 -11.98,35.72 -8.01,9.43 -18.64,16.16 -31.74,20.23l0 0.74c8.36,1.19 15.98,3.49 22.78,7 6.82,3.44 12.65,7.91 17.57,13.28 4.92,5.37 8.63,11.64 11.29,18.82 2.66,7.18 3.96,14.86 3.96,23 0,13.33 -2.88,24.57 -8.58,33.51 -5.77,8.97 -13.17,16.21 -22.26,21.69 -9.1,5.48 -19.32,9.5 -30.69,11.82 -11.36,2.42 -22.65,3.6 -33.89,3.6l-104.03 0 0 -253.97zm55.99 101.53l40.52 0c4.29,0 8.52,-0.5 12.7,-1.46 4.18,-0.96 7.98,-2.5 11.31,-4.64 3.33,-2.15 6.04,-5.03 8.07,-8.58 2.03,-3.62 3.06,-7.91 3.06,-12.94 0,-5.25 -1.14,-9.59 -3.4,-13.1 -2.31,-3.44 -5.19,-6.17 -8.81,-8.09 -3.56,-1.86 -7.69,-3.27 -12.2,-4.12 -4.52,-0.8 -8.94,-1.25 -13.28,-1.25l-37.98 0 0 54.18zm0 105.1l50.18 0c4.34,0 8.65,-0.51 13.1,-1.47 4.47,-0.9 8.42,-2.59 11.98,-4.97 3.62,-2.43 6.55,-5.48 8.83,-9.39 2.26,-3.73 3.44,-8.41 3.44,-13.95 0,-5.99 -1.54,-10.84 -4.53,-14.53 -2.98,-3.73 -6.71,-6.49 -11.29,-8.41 -4.52,-1.99 -9.43,-3.22 -14.69,-3.96 -5.25,-0.69 -10.17,-1.07 -14.7,-1.07l-42.32 0 0 57.74z"/>
   <polygon class="fil0" points="6677.07,3076.29 6849.57,3076.29 6849.57,3127.99 6733,3127.99 6733,3175.29 6843.13,3175.29 6843.13,3226.99 6733,3226.99 6733,3278.63 6856.07,3278.63 6856.07,3330.26 6677.07,3330.26 "/>
   <polygon class="fil0" points="6936.74,3076.29 7012.79,3076.29 7120.77,3252.81 7121.51,3252.81 7121.51,3076.29 7177.5,3076.29 7177.5,3330.26 7104.28,3330.26 6993.41,3149.46 6992.74,3149.46 6992.74,3330.26 6936.74,3330.26 "/>
   <polygon class="fil0" points="7264.31,3330.28 7320.31,3330.28 7320.31,3076.31 7264.31,3076.31 "/>
   <path class="fil0" d="M7632.7 3076.29l46.22 0 110.51 253.97 -63.1 0 -21.86 -53.78 -98.66 0 -21.19 53.78 -61.7 0 109.78 -253.97zm21.48 73.9l-30.8 78.95 62.05 0 -31.25 -78.95z"/>
   <path class="fil0" d="M7850.8 3076.29l98.31 0c12.94,0 25.15,1.25 36.77,3.73 11.6,2.55 21.77,6.77 30.46,12.59 8.76,5.88 15.65,13.79 20.85,23.69 5.08,9.88 7.67,22.31 7.67,37.11 0,17.97 -4.68,33.23 -14,45.71 -9.32,12.6 -22.95,20.52 -40.86,23.91l64.53 107.23 -67.08 0 -53.05 -101.53 -27.63 0 0 101.53 -55.99 0 0 -253.97zm55.99 105.1l32.99 0c5.03,0 10.33,-0.18 15.94,-0.51 5.59,-0.4 10.67,-1.47 15.25,-3.22 4.52,-1.81 8.31,-4.63 11.31,-8.42 3,-3.89 4.45,-9.26 4.45,-16.16 0,-6.49 -1.3,-11.64 -3.96,-15.47 -2.59,-3.8 -5.93,-6.73 -9.99,-8.76 -4.07,-2.03 -8.76,-3.4 -14.01,-4.13 -5.25,-0.74 -10.39,-1.07 -15.42,-1.07l-36.55 0 0 57.76z"/>
   <path class="fil0" d="M8285.28 3142.31c-5.54,-6.73 -12.32,-11.87 -20.28,-15.42 -8.02,-3.62 -17.3,-5.43 -27.8,-5.43 -10.51,0 -20.28,2.03 -29.21,6.17 -8.99,4.07 -16.72,9.71 -23.34,16.99 -6.61,7.3 -11.69,16 -15.42,25.99 -3.73,10.06 -5.59,20.97 -5.59,32.66 0,11.98 1.86,22.89 5.59,32.83 3.73,9.95 8.81,18.53 15.26,25.82 6.44,7.29 14,13.01 22.76,17.07 8.71,4.07 18.08,6.1 28.14,6.1 11.47,0 21.64,-2.43 30.51,-7.19 8.87,-4.79 16.16,-11.52 21.86,-20.1l46.62 34.8c-10.75,15.09 -24.36,26.15 -40.86,33.33 -16.5,7.18 -33.51,10.8 -50.96,10.8 -19.89,0 -38.14,-3.11 -54.92,-9.39 -16.72,-6.15 -31.18,-15.09 -43.39,-26.67 -12.16,-11.58 -21.7,-25.64 -28.48,-42.16 -6.84,-16.5 -10.23,-34.92 -10.23,-55.26 0,-20.28 3.4,-38.76 10.23,-55.26 6.77,-16.5 16.32,-30.51 28.48,-42.16 12.2,-11.58 26.67,-20.5 43.39,-26.72 16.79,-6.21 35.03,-9.32 54.92,-9.32 7.18,0 14.64,0.67 22.44,1.97 7.74,1.3 15.42,3.4 22.94,6.28 7.58,2.88 14.8,6.66 21.75,11.47 6.9,4.8 13.12,10.68 18.64,17.57l-43.05 35.2z"/>
   <polygon class="fil0" points="8400.79,3076.29 8456.78,3076.29 8456.78,3171 8565.44,3171 8565.44,3076.29 8621.43,3076.29 8621.43,3330.26 8565.44,3330.26 8565.44,3220.49 8456.78,3220.49 8456.78,3330.26 8400.79,3330.26 "/>
   <polygon class="fil0" points="8711.12,3076.29 8883.67,3076.29 8883.67,3127.99 8767.12,3127.99 8767.12,3175.29 8877.18,3175.29 8877.18,3226.99 8767.12,3226.99 8767.12,3278.63 8890.12,3278.63 8890.12,3330.26 8711.12,3330.26 "/>
   <path class="fil0" d="M8957.23 3203.29c0,-20.29 3.38,-38.76 10.22,-55.27 6.77,-16.5 16.34,-30.56 28.48,-42.14 12.2,-11.58 26.67,-20.52 43.39,-26.73 16.79,-6.21 35.04,-9.32 54.92,-9.32 19.84,0 38.15,3.11 54.87,9.32 16.72,6.21 31.25,15.15 43.39,26.73 12.2,11.58 21.7,25.64 28.59,42.14 6.79,16.51 10.17,34.98 10.17,55.27 0,20.34 -3.38,38.76 -10.17,55.26 -6.89,16.5 -16.38,30.56 -28.59,42.16 -12.14,11.58 -26.67,20.5 -43.39,26.67 -16.72,6.26 -35.03,9.37 -54.87,9.37 -19.88,0 -38.14,-3.11 -54.92,-9.37 -16.72,-6.17 -31.18,-15.09 -43.39,-26.67 -12.14,-11.6 -21.7,-25.66 -28.48,-42.16 -6.84,-16.5 -10.22,-34.92 -10.22,-55.26zm58.08 0c0,11.98 1.86,22.87 5.59,32.82 3.73,9.95 8.99,18.53 15.94,25.82 6.95,7.3 15.26,13.01 24.92,17.07 9.72,4.07 20.57,6.1 32.48,6.1 11.98,0 22.78,-2.03 32.43,-6.1 9.72,-4.07 18.03,-9.77 24.99,-17.07 6.89,-7.29 12.25,-15.87 15.98,-25.82 3.67,-9.95 5.54,-20.84 5.54,-32.82 0,-11.71 -1.87,-22.6 -5.54,-32.66 -3.73,-10.01 -9.1,-18.71 -15.98,-25.99 -6.95,-7.29 -15.26,-13.01 -24.99,-17.01 -9.66,-4.13 -20.45,-6.17 -32.43,-6.17 -11.92,0 -22.76,2.03 -32.48,6.17 -9.66,4 -17.97,9.72 -24.92,17.01 -6.95,7.29 -12.2,15.98 -15.94,25.99 -3.73,10.06 -5.59,20.95 -5.59,32.66z"/>
   <polygon class="fil0" points="9307.35,3076.29 9363.34,3076.29 9363.34,3278.63 9466.97,3278.63 9466.97,3330.26 9307.35,3330.26 "/>
   <path class="fil0" d="M9520.07 3203.29c0,-20.29 3.4,-38.76 10.23,-55.27 6.77,-16.5 16.32,-30.56 28.48,-42.14 12.2,-11.58 26.67,-20.52 43.39,-26.73 16.79,-6.21 35.03,-9.32 54.92,-9.32 19.83,0 38.14,3.11 54.86,9.32 16.79,6.21 31.25,15.15 43.4,26.73 12.25,11.58 21.75,25.64 28.59,42.14 6.77,16.51 10.17,34.98 10.17,55.27 0,20.34 -3.4,38.76 -10.17,55.26 -6.84,16.5 -16.34,30.56 -28.59,42.16 -12.16,11.58 -26.62,20.5 -43.4,26.67 -16.72,6.26 -35.03,9.37 -54.86,9.37 -19.89,0 -38.14,-3.11 -54.92,-9.37 -16.72,-6.17 -31.18,-15.09 -43.39,-26.67 -12.16,-11.6 -21.7,-25.66 -28.48,-42.16 -6.84,-16.5 -10.23,-34.92 -10.23,-55.26zm58.09 0c0,11.98 1.86,22.87 5.59,32.82 3.73,9.95 8.99,18.53 15.94,25.82 6.95,7.3 15.25,13.01 24.92,17.07 9.71,4.07 20.57,6.1 32.48,6.1 11.98,0 22.78,-2.03 32.48,-6.1 9.67,-4.07 17.97,-9.77 24.92,-17.07 6.95,-7.29 12.27,-15.87 16,-25.82 3.67,-9.95 5.53,-20.84 5.53,-32.82 0,-11.71 -1.86,-22.6 -5.53,-32.66 -3.73,-10.01 -9.05,-18.71 -16,-25.99 -6.95,-7.29 -15.25,-13.01 -24.92,-17.01 -9.71,-4.13 -20.5,-6.17 -32.48,-6.17 -11.92,0 -22.78,2.03 -32.48,6.17 -9.67,4 -17.97,9.72 -24.92,17.01 -6.95,7.29 -12.2,15.98 -15.94,25.99 -3.73,10.06 -5.59,20.95 -5.59,32.66z"/>
   <path class="fil0" d="M10097.97 3312.34c-16.5,8.58 -33.73,14.8 -51.65,18.64 -17.95,3.78 -36.21,5.77 -54.92,5.77 -19.83,0 -38.07,-3.11 -54.86,-9.39 -16.72,-6.15 -31.18,-15.09 -43.39,-26.67 -12.2,-11.63 -21.7,-25.71 -28.54,-42.2 -6.77,-16.45 -10.17,-34.87 -10.17,-55.21 0,-20.34 3.4,-38.76 10.17,-55.26 6.84,-16.5 16.34,-30.56 28.54,-42.16 12.2,-11.58 26.67,-20.5 43.39,-26.72 16.79,-6.21 35.03,-9.32 54.86,-9.32 20.34,0 39.05,2.42 56.23,7.34 17.06,4.92 32.08,13.34 44.97,25.32l-39.5 43.05c-7.62,-7.91 -16.22,-13.9 -25.82,-17.97 -9.56,-4.07 -21.48,-6.1 -35.89,-6.1 -11.92,0 -22.76,2.03 -32.42,6.1 -9.67,4.07 -17.97,9.77 -24.92,17.07 -6.95,7.29 -12.27,15.92 -16,25.98 -3.72,10.06 -5.53,20.97 -5.53,32.66 0,11.98 1.81,22.89 5.53,32.83 3.73,9.95 9.05,18.53 16,25.82 6.95,7.29 15.25,12.94 24.92,17.07 9.66,4 20.5,6.1 32.42,6.1 12.27,0 22.78,-1.43 31.65,-4.18 8.81,-2.72 15.87,-5.54 21.13,-8.42l0 -41.24 -45.53 0 0 -51.65 99.33 0 0 132.73z"/>
   <polygon class="fil0" points="10182.27,3330.28 10238.26,3330.28 10238.26,3076.31 10182.27,3076.31 "/>
   <path class="fil0" d="M10491.18 3142.31c-5.54,-6.73 -12.32,-11.87 -20.28,-15.42 -8.02,-3.62 -17.3,-5.43 -27.8,-5.43 -10.51,0 -20.29,2.03 -29.21,6.17 -8.99,4.07 -16.72,9.71 -23.34,16.99 -6.61,7.3 -11.69,16 -15.42,25.99 -3.73,10.06 -5.59,20.97 -5.59,32.66 0,11.98 1.86,22.89 5.59,32.83 3.73,9.95 8.81,18.53 15.25,25.82 6.45,7.29 14.01,13.01 22.78,17.07 8.7,4.07 18.08,6.1 28.14,6.1 11.47,0 21.64,-2.43 30.51,-7.19 8.87,-4.79 16.16,-11.52 21.86,-20.1l46.62 34.8c-10.75,15.09 -24.36,26.15 -40.86,33.33 -16.5,7.18 -33.51,10.8 -50.96,10.8 -19.83,0 -38.14,-3.11 -54.92,-9.39 -16.72,-6.15 -31.18,-15.09 -43.39,-26.67 -12.16,-11.58 -21.7,-25.64 -28.48,-42.16 -6.84,-16.5 -10.23,-34.92 -10.23,-55.26 0,-20.28 3.4,-38.76 10.23,-55.26 6.77,-16.5 16.32,-30.51 28.48,-42.16 12.2,-11.58 26.67,-20.5 43.39,-26.72 16.79,-6.21 35.09,-9.32 54.92,-9.32 7.24,0 14.64,0.67 22.44,1.97 7.74,1.3 15.42,3.4 22.94,6.28 7.58,2.88 14.8,6.66 21.75,11.47 6.89,4.8 13.1,10.68 18.64,17.57l-43.05 35.2z"/>
   <polygon class="fil0" points="10605.92,3330.28 10661.91,3330.28 10661.91,3076.31 10605.92,3076.31 "/>
   <path class="fil0" d="M6550.64 2737.92c-4.58,-5.7 -10.75,-9.95 -18.48,-12.72 -7.8,-2.71 -15.09,-4.12 -22.09,-4.12 -4.02,0 -8.25,0.45 -12.56,1.46 -4.29,0.96 -8.36,2.43 -12.2,4.47 -3.78,2.03 -6.89,4.74 -9.32,8.07 -2.37,3.35 -3.56,7.42 -3.56,12.2 0,7.64 2.83,13.52 8.58,17.59 5.77,4.07 13.01,7.51 21.77,10.39 8.7,2.82 18.07,5.77 28.12,8.58 10.06,2.88 19.38,6.95 28.14,12.2 8.7,5.25 16,12.36 21.75,21.19 5.72,8.87 8.6,20.68 8.6,35.48 0,14.13 -2.66,26.44 -7.91,36.95 -5.25,10.52 -12.38,19.27 -21.37,26.22 -8.99,6.9 -19.38,12.04 -31.18,15.42 -11.87,3.28 -24.36,4.98 -37.53,4.98 -16.5,0 -31.81,-2.48 -45.87,-7.51 -14.13,-4.98 -27.29,-13.11 -39.5,-24.36l39.83 -43.79c5.77,7.69 12.99,13.57 21.7,17.75 8.76,4.23 17.73,6.26 27.07,6.26 4.56,0 9.21,-0.5 13.84,-1.57 4.69,-1.07 8.81,-2.72 12.54,-4.87 3.73,-2.15 6.73,-4.92 8.99,-8.25 2.26,-3.33 3.4,-7.29 3.4,-11.87 0,-7.62 -2.88,-13.66 -8.83,-18.07 -5.81,-4.42 -13.17,-8.2 -22.04,-11.37 -8.86,-3.04 -18.42,-6.15 -28.7,-9.32 -10.22,-3.04 -19.83,-7.29 -28.64,-12.48 -8.87,-5.32 -16.22,-12.27 -22.1,-20.85 -5.88,-8.58 -8.81,-19.94 -8.81,-34.07 0,-13.61 2.71,-25.59 8.09,-35.88 5.37,-10.28 12.54,-18.88 21.53,-25.83 8.99,-6.89 19.32,-12.14 31.01,-15.58 11.76,-3.51 23.85,-5.21 36.23,-5.21 14.4,0 28.25,2.03 41.64,6.1 13.39,4.07 25.48,10.84 36.26,20.45l-38.41 41.93z"/>
   <path class="fil0" d="M6666.85 2675.87l94.3 0c13.23,0 25.59,1.19 37.35,3.62 11.69,2.37 21.93,6.49 30.69,12.36 8.7,5.83 15.65,13.74 20.79,23.67 5.14,9.9 7.74,22.37 7.74,37.53 0,14.75 -2.43,27.23 -7.24,37.29 -4.74,10.01 -11.29,18.08 -19.65,24.02 -8.42,5.97 -18.31,10.22 -29.77,12.7 -11.53,2.55 -23.96,3.8 -37.35,3.8l-40.86 0 0 99.04 -55.99 0 0 -254.03zm55.99 107.63l37.24 0c5.09,0 9.88,-0.5 14.57,-1.46 4.63,-0.91 8.83,-2.55 12.54,-4.8 3.68,-2.26 6.68,-5.37 8.99,-9.32 2.26,-3.96 3.4,-8.94 3.4,-14.86 0,-6.55 -1.47,-11.69 -4.47,-15.65 -3.04,-3.96 -6.84,-7.02 -11.52,-9.16 -4.64,-2.15 -9.83,-3.51 -15.55,-4.12 -5.75,-0.58 -11.24,-0.91 -16.55,-0.91l-28.65 0 0 60.29z"/>
   <polygon class="fil0" points="6930.87,2675.87 7103.43,2675.87 7103.43,2727.57 6986.86,2727.57 6986.86,2774.87 7096.97,2774.87 7096.97,2826.57 6986.86,2826.57 6986.86,2878.21 7109.87,2878.21 7109.87,2929.9 6930.87,2929.9 "/>
   <path class="fil0" d="M7356.66 2741.89c-5.48,-6.66 -12.27,-11.8 -20.29,-15.42 -7.96,-3.57 -17.28,-5.43 -27.74,-5.43 -10.57,0 -20.34,2.1 -29.26,6.17 -8.99,4.07 -16.72,9.71 -23.34,16.99 -6.55,7.3 -11.69,16 -15.38,26.06 -3.73,10.06 -5.59,20.97 -5.59,32.59 0,11.98 1.86,22.89 5.59,32.83 3.68,9.95 8.76,18.53 15.2,25.82 6.5,7.29 14.01,13.01 22.82,17.07 8.71,4.07 18.08,6.1 28.14,6.1 11.47,0 21.59,-2.43 30.51,-7.19 8.83,-4.79 16.11,-11.47 21.86,-20.1l46.62 34.8c-10.73,15.09 -24.36,26.22 -40.91,33.32 -16.5,7.24 -33.46,10.8 -50.92,10.8 -19.89,0 -38.2,-3.11 -54.92,-9.32 -16.72,-6.21 -31.18,-15.08 -43.39,-26.73 -12.2,-11.58 -21.7,-25.64 -28.54,-42.16 -6.77,-16.5 -10.22,-34.92 -10.22,-55.26 0,-20.28 3.44,-38.7 10.22,-55.19 6.84,-16.5 16.34,-30.58 28.54,-42.16 12.2,-11.64 26.67,-20.52 43.39,-26.73 16.72,-6.21 35.03,-9.37 54.92,-9.37 7.18,0 14.64,0.67 22.37,1.97 7.8,1.3 15.42,3.44 23,6.28 7.51,2.93 14.75,6.73 21.7,11.52 6.95,4.76 13.17,10.63 18.64,17.59l-43.05 35.14z"/>
   <polygon class="fil0" points="7471.43,2929.92 7527.38,2929.92 7527.38,2675.89 7471.43,2675.89 "/>
   <path class="fil0" d="M7697.81 2675.87l46.29 0 110.51 254.03 -63.17 0 -21.86 -53.84 -98.66 0 -21.19 53.84 -61.7 0 109.78 -254.03zm21.54 73.9l-30.86 78.95 62.05 0 -31.18 -78.95z"/>
   <polygon class="fil0" points="7918.1,2675.87 7974.09,2675.87 7974.09,2878.21 8077.72,2878.21 8077.72,2929.9 7918.1,2929.9 "/>
   <polygon class="fil0" points="8143.71,2929.92 8199.64,2929.92 8199.64,2675.89 8143.71,2675.89 "/>
   <polygon class="fil0" points="8273.23,2878.21 8402,2725.36 8277.86,2725.36 8277.86,2675.87 8469.8,2675.87 8469.8,2725.36 8343.53,2878.21 8474.09,2878.21 8474.09,2929.9 8273.23,2929.9 "/>
   <polygon class="fil0" points="8535.12,2878.21 8663.87,2725.36 8539.75,2725.36 8539.75,2675.87 8731.69,2675.87 8731.69,2725.36 8605.4,2878.21 8735.98,2878.21 8735.98,2929.9 8535.12,2929.9 "/>
   <path class="fil0" d="M8893.84 2675.87l46.29 0 110.45 254.03 -63.1 0 -21.86 -53.84 -98.66 0 -21.19 53.84 -61.7 0 109.78 -254.03zm21.53 73.9l-30.85 78.95 62.05 0 -31.2 -78.95z"/>
   <polygon class="fil0" points="9098.67,2878.21 9227.44,2725.36 9103.32,2725.36 9103.32,2675.87 9295.24,2675.87 9295.24,2725.36 9168.97,2878.21 9299.55,2878.21 9299.55,2929.9 9098.67,2929.9 "/>
   <polygon class="fil0" points="9373.08,2929.92 9429.08,2929.92 9429.08,2675.89 9373.08,2675.89 "/>
   <path class="fil0" d="M9502.26 2802.86c0,-20.29 3.4,-38.76 10.23,-55.27 6.77,-16.5 16.32,-30.56 28.48,-42.09 12.2,-11.63 26.67,-20.5 43.39,-26.72 16.79,-6.21 35.03,-9.39 54.92,-9.39 19.83,0 38.14,3.17 54.86,9.39 16.79,6.21 31.25,15.09 43.4,26.72 12.25,11.53 21.69,25.59 28.59,42.09 6.77,16.51 10.17,34.98 10.17,55.27 0,20.34 -3.4,38.76 -10.17,55.26 -6.9,16.5 -16.34,30.56 -28.59,42.16 -12.16,11.63 -26.62,20.5 -43.4,26.71 -16.72,6.21 -35.03,9.32 -54.86,9.32 -19.89,0 -38.14,-3.11 -54.92,-9.32 -16.72,-6.21 -31.18,-15.08 -43.39,-26.71 -12.16,-11.6 -21.7,-25.66 -28.48,-42.16 -6.84,-16.5 -10.23,-34.92 -10.23,-55.26zm58.09 0c0,11.98 1.86,22.87 5.59,32.82 3.73,9.95 8.99,18.53 15.94,25.82 6.95,7.3 15.25,13.01 24.92,17.07 9.71,4.07 20.57,6.1 32.48,6.1 11.98,0 22.78,-2.03 32.43,-6.1 9.72,-4.07 18.02,-9.77 24.97,-17.07 6.9,-7.29 12.27,-15.87 16,-25.82 3.67,-9.95 5.53,-20.84 5.53,-32.82 0,-11.71 -1.86,-22.55 -5.53,-32.61 -3.73,-10.06 -9.1,-18.76 -16,-26.04 -6.95,-7.29 -15.25,-13.01 -24.97,-17.01 -9.66,-4.07 -20.45,-6.17 -32.43,-6.17 -11.92,0 -22.78,2.1 -32.48,6.17 -9.67,4 -17.97,9.72 -24.92,17.01 -6.95,7.29 -12.2,15.98 -15.94,26.04 -3.73,10.06 -5.59,20.9 -5.59,32.61z"/>
   <polygon class="fil0" points="9850.23,2675.87 9926.27,2675.87 10034.26,2852.39 10034.98,2852.39 10034.98,2675.87 10090.92,2675.87 10090.92,2929.9 10017.74,2929.9 9906.89,2749.03 9906.22,2749.03 9906.22,2929.9 9850.23,2929.9 "/>
   <polygon class="fil0" points="10180.6,2675.87 10353.16,2675.87 10353.16,2727.57 10236.59,2727.57 10236.59,2774.87 10346.66,2774.87 10346.66,2826.57 10236.59,2826.57 10236.59,2878.21 10359.6,2878.21 10359.6,2929.9 10180.6,2929.9 "/>
   <polygon class="fil0" points="10581.67,2929.92 10637.61,2929.92 10637.61,2675.89 10581.67,2675.89 "/>
   <polygon class="fil0" points="10724.44,2675.87 10800.49,2675.87 10908.47,2852.39 10909.2,2852.39 10909.2,2675.87 10965.13,2675.87 10965.13,2929.9 10891.97,2929.9 10781.11,2749.03 10780.43,2749.03 10780.43,2929.9 10724.44,2929.9 "/>
   <path class="fil0" d="M6551.15 2337.52c-4.58,-5.77 -10.73,-9.95 -18.48,-12.72 -7.78,-2.72 -15.14,-4.13 -22.09,-4.13 -4,0 -8.25,0.46 -12.54,1.41 -4.29,0.96 -8.36,2.5 -12.2,4.53 -3.78,2.03 -6.89,4.69 -9.32,8.07 -2.37,3.28 -3.56,7.4 -3.56,12.16 0,7.67 2.82,13.55 8.58,17.57 5.77,4.07 12.99,7.58 21.75,10.44 8.7,2.83 18.08,5.72 28.14,8.6 9.99,2.88 19.38,6.95 28.14,12.2 8.7,5.25 15.98,12.32 21.75,21.19 5.7,8.86 8.58,20.68 8.58,35.48 0,14.13 -2.66,26.44 -7.91,36.95 -5.25,10.51 -12.36,19.22 -21.35,26.22 -8.99,6.89 -19.38,12.03 -31.2,15.38 -11.85,3.33 -24.35,5.03 -37.51,5.03 -16.5,0 -31.81,-2.5 -45.89,-7.53 -14.13,-5.03 -27.29,-13.1 -39.5,-24.41l39.85 -43.72c5.75,7.62 12.99,13.57 21.69,17.75 8.76,4.18 17.75,6.26 27.07,6.26 4.58,0 9.21,-0.51 13.84,-1.59 4.69,-1.12 8.83,-2.71 12.54,-4.85 3.73,-2.15 6.73,-4.92 8.99,-8.25 2.27,-3.4 3.4,-7.29 3.4,-11.87 0,-7.62 -2.88,-13.68 -8.81,-18.08 -5.83,-4.45 -13.17,-8.18 -22.04,-11.36 -8.87,-3.04 -18.42,-6.15 -28.7,-9.32 -10.28,-3.04 -19.83,-7.29 -28.65,-12.49 -8.87,-5.3 -16.21,-12.25 -22.09,-20.84 -5.88,-8.6 -8.81,-19.96 -8.81,-34.08 0,-13.66 2.71,-25.59 8.07,-35.88 5.37,-10.28 12.54,-18.87 21.53,-25.82 8.99,-6.89 19.33,-12.14 31.02,-15.6 11.76,-3.49 23.85,-5.19 36.21,-5.19 14.41,0 28.25,2.03 41.64,6.1 13.39,4.07 25.48,10.84 36.28,20.39l-38.42 42z"/>
   <path class="fil0" d="M6833.45 2341.49c-5.49,-6.73 -12.27,-11.87 -20.29,-15.44 -7.96,-3.6 -17.28,-5.41 -27.74,-5.41 -10.57,0 -20.34,2.03 -29.26,6.15 -8.99,4.07 -16.74,9.72 -23.34,17.01 -6.57,7.29 -11.71,16 -15.44,25.99 -3.67,10.06 -5.53,20.97 -5.53,32.66 0,11.98 1.86,22.89 5.53,32.83 3.73,9.95 8.83,18.53 15.26,25.82 6.5,7.29 14.01,12.99 22.82,17.06 8.7,4.07 18.08,6.1 28.14,6.1 11.47,0 21.59,-2.42 30.51,-7.18 8.81,-4.8 16.1,-11.52 21.86,-20.12l46.62 34.8c-10.75,15.09 -24.36,26.22 -40.91,33.35 -16.51,7.22 -33.46,10.8 -50.92,10.8 -19.89,0 -38.2,-3.11 -54.92,-9.32 -16.72,-6.21 -31.18,-15.15 -43.39,-26.73 -12.2,-11.58 -21.7,-25.66 -28.48,-42.16 -6.84,-16.5 -10.28,-34.92 -10.28,-55.26 0,-20.28 3.44,-38.76 10.28,-55.26 6.77,-16.5 16.27,-30.51 28.48,-42.09 12.2,-11.64 26.67,-20.57 43.39,-26.78 16.72,-6.23 35.03,-9.34 54.92,-9.34 7.13,0 14.64,0.69 22.37,1.99 7.8,1.3 15.42,3.4 23,6.26 7.51,2.88 14.75,6.68 21.7,11.48 6.94,4.79 13.15,10.67 18.64,17.62l-43.05 35.16z"/>
   <path class="fil0" d="M7163.12 2431.51c0,15.09 -2.26,28.99 -6.79,41.59 -4.56,12.72 -11.29,23.72 -20.28,33.06 -8.99,9.32 -20.12,16.61 -33.57,21.86 -13.39,5.25 -28.81,7.91 -46.27,7.91 -17.68,0 -33.22,-2.66 -46.61,-7.91 -13.39,-5.25 -24.59,-12.54 -33.57,-21.86 -8.92,-9.34 -15.71,-20.34 -20.23,-33.06 -4.56,-12.6 -6.84,-26.51 -6.84,-41.59l0 -156.05 55.95 0 0 153.9c0,7.91 1.25,15.2 3.78,21.93 2.55,6.66 6.05,12.49 10.62,17.35 4.53,4.92 9.95,8.76 16.27,11.47 6.34,2.77 13.23,4.18 20.63,4.18 7.4,0 14.24,-1.41 20.45,-4.18 6.21,-2.71 11.64,-6.55 16.16,-11.47 4.52,-4.85 8.09,-10.68 10.57,-17.35 2.48,-6.73 3.78,-14.01 3.78,-21.93l0 -153.9 55.95 0 0 156.05z"/>
   <path class="fil0" d="M7237.02 2402.45c0,-20.28 3.46,-38.76 10.23,-55.26 6.84,-16.5 16.32,-30.56 28.53,-42.09 12.2,-11.64 26.68,-20.57 43.4,-26.78 16.72,-6.21 35.03,-9.32 54.92,-9.32 19.83,0 38.14,3.11 54.86,9.32 16.72,6.21 31.25,15.14 43.4,26.78 12.2,11.53 21.69,25.59 28.53,42.09 6.84,16.5 10.23,34.98 10.23,55.26 0,20.34 -3.4,38.76 -10.23,55.27 -6.84,16.5 -16.32,30.56 -28.53,42.14 -12.15,11.58 -26.68,20.52 -43.4,26.73 -16.72,6.21 -35.03,9.32 -54.86,9.32 -19.89,0 -38.2,-3.11 -54.92,-9.32 -16.72,-6.21 -31.2,-15.15 -43.4,-26.73 -12.2,-11.58 -21.69,-25.64 -28.53,-42.14 -6.77,-16.51 -10.23,-34.93 -10.23,-55.27zm58.14 0c0,11.98 1.81,22.89 5.54,32.83 3.73,9.95 9.05,18.53 16,25.82 6.94,7.29 15.2,13.01 24.91,17.07 9.67,4.07 20.52,6.1 32.5,6.1 11.92,0 22.76,-2.03 32.43,-6.1 9.71,-4.07 17.97,-9.79 24.97,-17.07 6.89,-7.29 12.2,-15.87 15.94,-25.82 3.73,-9.95 5.54,-20.85 5.54,-32.83 0,-11.69 -1.81,-22.6 -5.54,-32.66 -3.73,-9.99 -9.05,-18.69 -15.94,-25.98 -7,-7.3 -15.26,-13.01 -24.97,-17.01 -9.67,-4.13 -20.52,-6.17 -32.43,-6.17 -11.98,0 -22.82,2.03 -32.5,6.17 -9.71,4 -17.97,9.71 -24.91,17.01 -6.95,7.29 -12.27,15.98 -16,25.98 -3.73,10.06 -5.54,20.97 -5.54,32.66z"/>
   <polygon class="fil0" points="7587.15,2275.46 7643.14,2275.46 7643.14,2477.79 7746.77,2477.79 7746.77,2529.45 7587.15,2529.45 "/>
   <path class="fil0" d="M7897.12 2275.46l46.27 0 110.47 253.99 -63.12 0 -21.86 -53.8 -98.66 0 -21.19 53.8 -61.7 0 109.79 -253.99zm21.53 73.92l-30.85 78.93 62.03 0 -31.18 -78.93z"/>
   <path class="fil0" d="M8257.25 2275.46l83.97 0c20.28,0 39.61,2.26 57.92,6.84 18.31,4.52 34.23,11.93 47.91,22.04 13.61,10.17 24.47,23.4 32.43,39.67 8.02,16.21 12.04,35.99 12.04,59.15 0,20.63 -3.91,38.71 -11.64,54.41 -7.8,15.66 -18.26,28.77 -31.42,39.38 -13.17,10.68 -28.3,18.76 -45.53,24.25 -17.23,5.48 -35.25,8.25 -54.18,8.25l-91.49 0 0 -253.99zm55.99 202.34l29.05 0c12.88,0 24.91,-1.3 36.04,-3.96 11.13,-2.59 20.74,-7 28.88,-13.1 8.14,-6.1 14.53,-14.06 19.22,-24.01 4.63,-9.95 6.94,-22.1 6.94,-36.45 0,-12.36 -2.31,-23.22 -6.94,-32.43 -4.69,-9.21 -10.97,-16.83 -18.88,-22.76 -7.91,-5.99 -17.12,-10.52 -27.79,-13.45 -10.63,-3 -21.81,-4.47 -33.57,-4.47l-32.95 0 0 150.63z"/>
   <polygon class="fil0" points="8564.65,2529.43 8620.65,2529.43 8620.65,2275.44 8564.65,2275.44 "/>
  </g>
 </g>
</svg>
