<?xml version="1.0" encoding="UTF-8"?>
<!DOCTYPE svg PUBLIC "-//W3C//DTD SVG 1.1//EN" "http://www.w3.org/Graphics/SVG/1.1/DTD/svg11.dtd">
<!-- Creator: CorelDRAW (Evaluation Version) -->
<svg xmlns="http://www.w3.org/2000/svg" xml:space="preserve" width="207.791mm" height="90.0524mm" version="1.1" style="shape-rendering:geometricPrecision; text-rendering:geometricPrecision; image-rendering:optimizeQuality; fill-rule:evenodd; clip-rule:evenodd"
viewBox="0 0 19928.32 8636.53"
 xmlns:xlink="http://www.w3.org/1999/xlink"
 xmlns:xodm="http://www.corel.com/coreldraw/odm/2003">
 <defs>
  <style type="text/css">
   <![CDATA[
    .fil0 {fill:white;fill-rule:nonzero}
   ]]>
  </style>
 </defs>
 <g id="Layer_x0020_1">
  <metadata id="CorelCorpID_0Corel-Layer"/>
  <g id="_1913875563392">
   <path class="fil0" d="M1824.15 7509.17c15.62,-22.33 33.29,-40.6 53.08,-54.72 19.79,-13.98 41,-23.33 63.84,-27.71 22.82,-4.55 46.78,-3.74 71.96,2.45 25.06,6.19 50.44,18.47 76.13,36.74 25.98,18.47 46.06,38.67 60.28,60.39 14.33,21.84 23.13,44.37 26.7,67.61 3.54,23.22 2.01,46.58 -4.37,70.23 -6.39,23.54 -17.46,46.47 -32.97,68.91l-161.38 231.73 -82.23 -58.46 159.16 -228.59c8.11,-11.77 13.78,-23.85 17.03,-36.42 3.25,-12.57 4.06,-24.86 2.45,-36.94 -1.52,-11.97 -5.58,-23.33 -12.08,-34.01 -6.5,-10.76 -15.13,-20 -26.1,-27.71 -10.85,-7.83 -22.21,-12.89 -34.18,-15.34 -12,-2.42 -23.85,-2.33 -35.65,0.2 -11.77,2.56 -22.93,7.42 -33.58,14.82 -10.56,7.22 -20,16.86 -28.14,28.54l-159.14 228.56 -82.23 -58.46 161.41 -231.81z"/>
   <polygon class="fil0" points="1419.94,7537.65 1323.01,7440.32 1408.86,7074.63 1407.94,7073.71 1184.44,7301.06 1113.09,7229.51 1434.64,6902.17 1527.92,6995.85 1440.34,7370.81 1441.23,7371.73 1670.14,7138.68 1741.49,7210.32 "/>
   <polygon class="fil0" points="922.77,6994.41 861.37,6913.94 1222.83,6632.27 1284.11,6712.86 "/>
   <polygon class="fil0" points="711.12,6708.91 652.86,6609.02 853.02,6357.12 852.42,6356 536.53,6409.77 481.84,6316.01 970.44,6245.46 1011.35,6315.6 "/>
   <polygon class="fil0" points="368.54,6070.58 253.22,5779.56 339.3,5744.66 417.25,5941.26 496.23,5909.29 422.63,5723.66 508.71,5688.64 582.4,5874.36 668.45,5839.46 586.25,5631.99 672.42,5597.09 792,5898.85 "/>
   <path class="fil0" d="M160 5483.99l-40.91 -173.69c-5.29,-22.82 -8.23,-45.06 -8.63,-66.58 -0.52,-21.61 2.65,-41.32 9.24,-59.15 6.59,-17.87 17.55,-33.52 32.77,-46.81 15.13,-13.18 35.73,-22.93 61.63,-29.23 31.36,-7.51 59.99,-5.67 85.77,5.5 25.78,11.25 45.37,31.97 58.67,62.32l160.66 -159.25 27.82 118.54 -155.31 136.52 11.48 48.91 177.43 -42.73 23.25 98.86 -443.86 106.8zm160.46 -143.14l-13.81 -58.26c-2.01,-8.92 -4.57,-18.27 -7.51,-27.99 -2.93,-9.75 -6.99,-18.27 -11.97,-25.58 -5.09,-7.31 -11.48,-12.8 -19.48,-16.46 -7.94,-3.65 -17.98,-4.06 -30.07,-1.12 -11.25,2.76 -19.68,7.22 -25.26,13.41 -5.58,6.3 -9.35,13.49 -11.28,21.52 -1.81,8.03 -2.22,16.86 -1.32,26.38 0.92,9.64 2.45,18.87 4.49,27.71l15.22 64.77 100.99 -24.37z"/>
   <path class="fil0" d="M127.72 4622.25c-9.55,9.15 -16.14,20.92 -19.79,35.45 -3.65,14.41 -4.89,27.91 -3.77,40.4 0.72,7.31 2.24,14.7 4.69,22.33 2.33,7.6 5.67,14.7 9.93,21.2 4.26,6.59 9.64,11.77 16.05,15.54 6.39,3.74 13.78,5.18 22.33,4.46 13.7,-1.32 23.74,-7.51 30.04,-18.47 6.39,-10.96 11.36,-24.57 15.13,-40.8 3.65,-16.14 7.31,-33.61 10.76,-52.08 3.45,-18.59 9.24,-36.14 17.23,-52.77 7.91,-16.54 19.39,-30.76 34.32,-42.55 14.82,-11.77 35.62,-18.87 62.12,-21.41 25.26,-2.22 47.7,0.4 67.38,8.23 19.71,7.71 36.45,19.08 50.35,34.09 13.9,15.02 24.77,32.89 32.68,53.69 7.91,20.72 12.98,42.96 15.11,66.69 2.65,29.63 0.72,57.66 -5.98,83.84 -6.68,26.3 -19.08,51.36 -37.14,75.12l-84.85 -64.45c12.77,-11.68 22.13,-25.58 28.23,-42.04 6.07,-16.43 8.32,-33.09 6.79,-49.83 -0.72,-8.23 -2.45,-16.34 -5.18,-24.57 -2.65,-8.23 -6.19,-15.54 -10.65,-21.81 -4.49,-6.42 -9.84,-11.28 -16.26,-14.82 -6.39,-3.57 -13.58,-4.89 -21.72,-4.17 -13.7,1.21 -24.05,7.51 -30.96,18.79 -6.99,11.25 -12.49,25.18 -16.63,41.6 -4.06,16.46 -8.11,34.09 -11.97,53.2 -3.88,18.96 -9.87,36.94 -17.78,53.77 -8.03,16.75 -19.19,31.16 -33.61,43.16 -14.5,11.97 -34.3,19.08 -59.56,21.41 -24.37,2.24 -46.18,-0.6 -65.48,-8.63 -19.28,-8.03 -35.82,-19.48 -49.72,-34.5 -13.93,-15.02 -24.89,-32.8 -33,-53.29 -8.11,-20.51 -13.21,-42.04 -15.22,-64.36 -2.33,-25.89 -1.01,-51.16 4.06,-76.01 5.06,-24.77 15.34,-47.62 30.64,-68.62l81.42 62.2z"/>
   <polygon class="fil0" points="-0,4284.41 2.01,4182.82 458.16,4192.14 456.15,4293.73 "/>
   <polygon class="fil0" points="125.82,3810.25 108.67,3940.79 20.46,3928.91 68.16,3567.16 156.26,3579.04 139.11,3709.47 503.19,3758.61 489.9,3859.28 "/>
   <path class="fil0" d="M143.46 3105.93l-22.56 82.92 -118.94 83.93 34.81 -128.18 106.69 -38.67zm3.65 114.48l22.01 -80.99 492.48 -71.56 -29.95 110.51 -103.64 12.49 -46.9 172.86 83.15 62.92 -29.23 108.09 -387.93 -314.32zm138.22 -2.24l122.11 92.07 29.55 -108.81 -151.66 16.75z"/>
   <path class="fil0" d="M477.93 2339.8l75.41 -132.03c18.27,-31.99 39.19,-60.31 62.75,-84.88 23.54,-24.66 49.31,-43.13 77.34,-55.3 28.11,-12.2 58.35,-17.15 90.83,-15.02 32.6,2.22 66.78,13.9 102.92,34.9 31.99,18.79 56.65,41.32 74,67.81 17.35,26.38 28.43,54.81 33.2,85.16 4.66,30.44 3.65,61.6 -3.37,93.68 -6.91,32.05 -18.87,63.01 -35.82,92.67l-82.23 143.92 -395.04 -230.92zm365 95.92l26.1 -45.69c11.68,-20.28 20.4,-40.4 26.3,-60.28 5.87,-19.88 7.8,-38.99 5.58,-57.34 -2.16,-18.27 -8.83,-35.62 -20.11,-52.08 -11.28,-16.23 -28.02,-30.96 -50.35,-44.05 -19.39,-11.28 -38.27,-17.46 -56.74,-18.47 -18.56,-1.12 -36.02,1.93 -52.36,8.83 -16.46,6.99 -31.76,17.55 -45.98,31.45 -14.21,14.13 -26.59,30.35 -37.06,48.74l-29.72 51.96 234.35 136.92z"/>
   <polygon class="fil0" points="857.08,1732.98 1051.86,1489.19 1124.02,1548.15 992.48,1712.89 1058.65,1766.98 1183.01,1611.39 1255.16,1670.37 1130.84,1825.97 1203,1884.92 1341.97,1711.05 1414.13,1770.03 1212.04,2022.97 "/>
   <path class="fil0" d="M1853.1 1297.11c-11.65,31.65 -27.1,61.08 -46.38,88.1 -19.28,26.99 -41.4,51.76 -66.26,74.6 -26.5,24.05 -54.61,42.21 -84.36,54.21 -29.84,11.97 -59.87,17.64 -90.03,16.83 -30.24,-0.81 -59.9,-8.11 -88.82,-22.13 -28.92,-13.9 -55.73,-34.61 -80.19,-62 -24.46,-27.3 -42.12,-56.33 -52.88,-86.89 -10.76,-30.56 -15.02,-61 -12.77,-91.55 2.33,-30.47 10.85,-60.1 25.66,-88.93 14.82,-28.71 35.53,-55.21 61.92,-79.35 27.1,-24.77 55.01,-44.25 83.75,-58.46 28.71,-14.21 58.87,-21.12 90.43,-20.72l-0.72 106.08c-19.68,-1.32 -38.35,1.09 -56.02,7.31 -17.67,6.19 -36.05,17.95 -55.21,35.42 -15.94,14.62 -27.94,30.44 -35.94,47.7 -8.03,17.35 -12.2,35.1 -12.69,53.37 -0.4,18.27 2.93,36.45 10.04,54.52 7.11,18.07 17.75,35.02 31.88,50.75 14.41,16.14 30.04,28.63 46.98,37.46 16.86,8.92 34.32,13.98 52.36,15.42 18.07,1.41 35.94,-1.12 53.8,-7.42 17.78,-6.3 34.61,-16.75 50.55,-31.25 16.23,-14.93 28.63,-29.63 37.14,-44.05 8.43,-14.53 14.53,-26.9 18.07,-37.17l-49.72 -55.62 -60.71 55.53 -62.23 -69.63 132.46 -121.1 159.86 178.96z"/>
   <polygon class="fil0" points="1815.49,793.47 1899.22,737.25 2100.19,1043.58 2255.38,939.42 2306.65,1017.68 2067.62,1177.94 "/>
   <polygon class="fil0" points="2277.48,508.19 2366.9,461.7 2575.78,871.87 2486.36,918.45 "/>
   <path class="fil0" d="M3241.56 250.72c-10.67,-7.91 -23.36,-12.26 -38.06,-13.29 -14.82,-1.01 -28.23,0.12 -40.19,3.45 -7.11,2.04 -14.13,4.89 -21.03,8.63 -6.99,3.77 -13.38,8.43 -18.96,13.81 -5.7,5.47 -9.75,11.68 -12.29,18.67 -2.53,6.99 -2.65,14.73 -0.32,23.13 3.65,13.32 11.48,22.24 23.36,26.5 11.85,4.37 26.07,6.91 42.52,7.71 16.54,0.72 34.09,1.24 52.88,1.32 18.76,0.12 36.94,2.73 54.61,7.62 17.67,4.98 33.58,13.78 47.79,26.47 14.21,12.69 24.89,32.08 31.99,57.97 6.79,24.77 8.11,47.59 4.14,68.51 -4.06,21 -12.17,39.79 -24.34,56.22 -12.2,16.54 -27.74,30.56 -46.61,42.24 -18.87,11.57 -39.68,20.6 -62.52,26.99 -28.51,8.03 -56.22,11.08 -83.04,9.15 -26.87,-1.93 -53.57,-9.64 -80.07,-23.45l47.9 -95.92c13.61,10.56 28.94,17.46 46.09,20.51 17.15,3.05 33.69,2.33 49.92,-2.24 7.83,-2.22 15.54,-5.38 23.05,-9.52 7.62,-4.17 14.01,-9.03 19.39,-14.62 5.38,-5.58 9.24,-11.8 11.57,-18.79 2.33,-6.99 2.45,-14.41 0.2,-22.44 -3.65,-13.38 -11.65,-22.41 -23.85,-27.39 -12.29,-4.89 -26.9,-7.83 -43.65,-9.03 -16.83,-1.12 -34.9,-1.93 -54.21,-2.33 -19.28,-0.4 -37.83,-3.05 -55.7,-8.03 -17.87,-4.86 -33.92,-13.41 -48.22,-25.69 -14.21,-12.17 -24.77,-30.64 -31.56,-55.3 -6.59,-23.85 -7.71,-46.18 -3.37,-66.78 4.37,-20.63 12.69,-39.1 24.89,-55.64 12.17,-16.54 27.59,-30.64 46.18,-42.41 18.56,-11.77 38.67,-20.72 60.19,-26.82 24.86,-6.99 49.83,-10.13 75.01,-9.52 25.06,0.6 49.31,6.7 72.56,18.15l-46.26 92.16z"/>
   <polygon class="fil0" points="3657.97,143.48 3528.96,161.15 3516.99,72.02 3874.65,23.02 3886.54,112.12 3757.64,129.79 3806.87,497.92 3707.29,511.53 "/>
   <path class="fil0" d="M4520.78 289.79c-0.43,27.39 -4.98,52.57 -13.52,75.41 -8.52,22.84 -20.89,42.64 -37.35,59.38 -16.34,16.63 -36.63,29.52 -60.91,38.67 -24.14,9.24 -51.96,13.49 -83.32,12.98 -31.76,-0.49 -59.59,-5.78 -83.52,-15.62 -23.85,-10.04 -43.76,-23.54 -59.59,-40.8 -15.82,-17.15 -27.71,-37.35 -35.42,-60.51 -7.83,-23.13 -11.48,-48.39 -11.08,-75.81l4.57 -283.37 100.47 1.61 -4.46 279.55c-0.2,14.3 1.84,27.59 6.1,39.88 4.37,12.17 10.56,22.84 18.59,31.88 8,9.03 17.64,16.14 28.92,21.32 11.28,5.18 23.65,7.91 36.94,8.11 13.29,0.2 25.58,-2.13 36.86,-6.91 11.25,-4.86 21,-11.68 29.32,-20.4 8.32,-8.75 14.82,-19.19 19.48,-31.27 4.78,-12.08 7.22,-25.38 7.42,-39.68l4.46 -279.55 100.59 1.73 -4.55 283.4z"/>
   <path class="fil0" d="M4836.55 40.94l148.38 26.9c35.94,6.59 69.43,16.83 100.3,30.76 30.96,14.1 56.82,32.37 77.74,54.9 20.8,22.53 35.73,49.63 44.77,81.31 9.03,31.68 9.84,68.22 2.45,109.62 -6.5,36.86 -19.1,68.02 -37.86,93.48 -18.67,25.49 -41.43,45.69 -68.02,60.51 -26.59,14.82 -56.02,24.34 -88.21,28.6 -32.17,4.37 -65.05,3.45 -98.46,-2.62l-161.67 -29.35 80.59 -454.1zm34.7 379.7l51.36 9.35c22.84,4.17 44.57,5.67 65.08,4.46 20.49,-1.12 38.87,-5.78 55.21,-14.1 16.23,-8.34 30.15,-20.51 41.52,-36.86 11.45,-16.23 19.36,-37.14 23.94,-62.84 3.97,-22.21 3.25,-42.32 -2.01,-60.28 -5.38,-17.95 -14.01,-33.49 -26.1,-46.78 -12.08,-13.21 -26.99,-24.25 -44.97,-33 -17.87,-8.72 -37.14,-15.02 -57.86,-18.79l-58.35 -10.53 -47.82 269.36z"/>
   <polygon class="fil0" points="5514.96,193.69 5610.77,224.45 5473.04,664.25 5377.23,633.49 "/>
   <path class="fil0" d="M6242.25 489.12l130.45 76.53c31.56,18.56 59.47,39.79 83.84,63.64 24.25,23.85 42.41,49.92 54.38,78.35 12.08,28.43 16.98,58.98 14.73,91.87 -2.24,32.89 -13.81,67.5 -34.73,104.04 -18.56,32.17 -41,57.14 -67.18,74.6 -26.18,17.55 -54.29,28.71 -84.36,33.38 -30.04,4.69 -60.88,3.57 -92.64,-3.54 -31.68,-7.11 -62.23,-19.28 -91.55,-36.45l-142.1 -83.52 229.17 -398.89zm-95.61 368.85l45.09 26.5c20.08,11.77 39.96,20.69 59.56,26.67 19.71,6.1 38.58,8.03 56.65,5.78 18.15,-2.13 35.33,-8.92 51.56,-20.2 16.14,-11.36 30.76,-28.31 43.73,-50.84 11.16,-19.48 17.38,-38.67 18.39,-57.34 1.12,-18.67 -1.84,-36.34 -8.63,-53 -6.91,-16.54 -17.26,-32.08 -31.04,-46.47 -13.93,-14.41 -29.87,-26.9 -48.14,-37.66l-51.24 -30.15 -135.92 236.7z"/>
   <polygon class="fil0" points="6841.45,873.8 7082.12,1071.31 7023.66,1144.19 6861.04,1010.72 6807.44,1077.53 6961.02,1203.58 6902.56,1276.46 6748.97,1150.41 6690.51,1223.17 6862.16,1364.15 6803.58,1436.94 6553.9,1232 "/>
   <polygon class="fil0" points="7304.81,1284.37 7373.55,1358.57 7108.1,1609.78 7235.39,1747.3 7167.69,1811.35 6971.69,1599.62 "/>
   <polygon class="fil0" points="7668.29,1706.53 7726.95,1789.05 7431.78,2003.6 7540.48,2156.47 7465.07,2211.28 7297.82,1975.81 "/>
   <path class="fil0" d="M8047.21 2308.35l38.18 74.69 -314.45 389.97 -51.99 -101.91 67.81 -80.19 -81.31 -159.25 -103.32 10.65 -50.87 -99.55 495.94 -34.41zm-100.18 96.3l-151.43 15.94 51.16 100.18 100.27 -116.12z"/>
   <path class="fil0" d="M8391.49 3179.82l38.58 167.48c4.57,19.48 7.71,39.47 9.55,59.76 1.73,20.2 0.4,39.19 -4.17,56.74 -4.57,17.67 -13,33 -25.38,46.21 -12.49,13.17 -30.76,22.6 -55.01,28.3 -25.18,5.98 -47.62,3.74 -67.41,-6.5 -19.77,-10.24 -35.91,-26.29 -48.39,-47.81l-1.24 0.32c1.32,15.22 0.32,29.63 -2.93,43.12 -3.25,13.52 -8.63,25.69 -16.03,36.66 -7.42,10.85 -16.86,20.08 -28.34,27.71 -11.45,7.62 -24.34,13.09 -38.55,16.43 -23.45,5.5 -44.16,5.09 -62.23,-1.41 -18.07,-6.39 -33.69,-16.54 -47.1,-30.35 -13.29,-13.78 -24.34,-30.35 -33.17,-49.43 -8.83,-19.07 -15.54,-38.54 -20.11,-58.45l-42.41 -184.02 444.35 -104.73zm-338.7 184.23l20.51 88.79c1.73,7.62 4.34,15.13 7.8,22.64 3.57,7.42 8.14,13.81 13.72,19.19 5.67,5.27 12.29,9.24 19.88,11.68 7.62,2.42 16.26,2.53 25.89,0.29 10.44,-2.53 18.36,-7.19 23.65,-13.9 5.18,-6.91 8.63,-14.73 10.04,-23.56 1.52,-8.8 1.81,-18.07 0.92,-27.59 -0.83,-9.64 -2.24,-18.47 -4.06,-26.5l-17.26 -74.89 -101.1 23.85zm183.94 -43.36l16.54 71.67c1.73,7.6 4.26,14.9 7.71,22.01 3.34,6.91 7.6,13 12.77,17.98 5.09,5.06 11.16,8.63 18.27,10.76 7.11,2.13 15.13,2.13 23.85,0.09 9.24,-2.13 16.46,-5.98 21.52,-11.45 5.18,-5.38 8.63,-11.68 10.56,-18.87 1.81,-7.11 2.65,-14.93 2.24,-23.25 -0.43,-8.43 -1.44,-16.34 -3.25,-23.97l-15.45 -67.3 -94.77 22.33z"/>
   <path class="fil0" d="M8525.08 3960.99l6.1 83.84 -440.61 233.86 -8.23 -114.4 93.48 -46.81 -12.89 -178.61 -99.15 -31.27 -8.14 -111.75 469.44 165.15zm-129.62 48.8l-145.44 -45.46 8.23 112.47 137.21 -67.01z"/>
   <path class="fil0" d="M8412.01 4727.64c10.85,-7.51 19.28,-18.07 25.26,-31.79 6.01,-13.7 9.44,-26.87 10.36,-39.36 0.6,-7.42 0.2,-15.05 -0.92,-22.96 -1.09,-7.91 -3.22,-15.51 -6.39,-22.73 -3.14,-7.19 -7.51,-13.21 -13.18,-17.95 -5.7,-4.78 -12.8,-7.51 -21.32,-8.14 -13.81,-1.09 -24.66,3.37 -32.68,13.21 -8.03,9.84 -15.22,22.44 -21.52,37.86 -6.3,15.42 -12.69,32.08 -19.19,49.83 -6.5,17.87 -15.02,34.3 -25.66,49.43 -10.56,15.13 -24.17,27.22 -40.8,36.45 -16.66,9.12 -38.18,12.77 -64.77,10.76 -25.29,-1.84 -47.01,-8.34 -65.17,-19.31 -18.18,-10.96 -32.8,-25.06 -44.05,-42.21 -11.28,-17.18 -19.08,-36.74 -23.45,-58.67 -4.37,-21.84 -5.78,-44.68 -3.97,-68.53 2.24,-29.92 8.75,-57.34 19.59,-82.2 10.96,-24.86 27.22,-47.62 49.03,-68.1l73.08 78.06c-14.5,9.32 -26.07,21.61 -34.7,36.83 -8.75,15.22 -13.61,31.36 -14.93,48.22 -0.6,8.23 -0.2,16.63 1.01,25.26 1.32,8.63 3.65,16.34 7.02,23.45 3.34,7.02 7.91,12.8 13.61,17.35 5.67,4.49 12.57,7.11 20.8,7.74 13.7,1.01 24.86,-3.45 33.58,-13.52 8.75,-9.93 16.46,-22.82 23.25,-38.35 6.7,-15.62 13.61,-32.6 20.51,-50.75 6.91,-18.27 15.74,-35.02 26.3,-50.35 10.65,-15.22 24.05,-27.71 40.28,-37.03 16.14,-9.55 36.94,-13.32 62.23,-11.39 24.46,1.84 45.46,8.34 63.13,19.51 17.75,11.16 32.17,25.26 43.45,42.52 11.16,17.15 19.19,36.63 23.74,58.26 4.69,21.72 6.19,43.85 4.49,66.38 -1.96,25.98 -7.42,50.84 -16.46,74.6 -9.12,23.65 -22.93,44.65 -41.52,62.84l-70.03 -75.21z"/>
   <polygon class="fil0" points="8474.12,5081.39 8455.36,5181.28 8007.13,5095.31 8025.92,4995.42 "/>
   <polygon class="fil0" points="8388.01,5473.26 8358.46,5570.39 8011.01,5462.41 7956.32,5642.46 7867.62,5614.87 7951.86,5337.66 "/>
   <polygon class="fil0" points="8209.51,5990.2 8169.52,6083.47 7750.92,5899.94 7790.82,5806.66 "/>
   <path class="fil0" d="M7788.21 6554.04c15.34,-2.45 29.55,-8.32 42.32,-17.55 12.89,-9.24 24.05,-22.13 33.69,-38.58 9.55,-16.43 15.22,-33.58 17.15,-51.36 1.84,-17.75 0.12,-35.22 -5.15,-52.16 -5.29,-17.06 -14.01,-33.09 -26.21,-48.11 -12.17,-15.13 -27.39,-28.02 -45.46,-38.78 -18.59,-11.05 -37.14,-18.15 -55.93,-21.61 -18.79,-3.25 -36.74,-3.25 -53.89,0.09 -17.15,3.45 -32.89,10.07 -47.1,20 -14.3,9.96 -25.98,22.73 -35.13,38.58 -10.44,17.87 -16.03,36.02 -16.63,54.29 -0.6,18.27 3.05,35.82 11.16,52.8l-96.33 41c-13.49,-30.76 -18.39,-62.32 -14.41,-94.8 3.86,-32.37 13.81,-62.32 29.75,-89.62 18.07,-31.16 39.47,-56.94 64.33,-77.45 24.89,-20.49 51.88,-34.9 80.91,-43.33 29.12,-8.43 59.59,-10.36 91.24,-5.78 31.79,4.46 63.44,16.14 94.92,34.81 31.48,18.67 56.82,41 76.22,66.89 19.39,25.87 32.48,53.69 39.3,83.41 6.88,29.87 7.51,60.59 1.93,92.59 -5.7,31.97 -17.46,63.44 -35.65,94.6 -6.47,11.16 -14.3,22.33 -23.45,33.29 -9.03,10.96 -19.28,21 -30.53,30.12 -11.39,9.15 -23.88,16.98 -37.58,23.45 -13.81,6.42 -28.51,10.76 -44.25,13l-15.22 -99.78z"/>
   <path class="fil0" d="M7591.87 7034.52l-52.88 64.88 -478.27 -138.97 72.19 -88.5 99.55 31.56 112.87 -138.13 -50.35 -91.98 70.55 -86.37 226.35 447.51zm-126.97 -55.3l-74.09 -134.51 -70.95 86.89 145.04 47.62z"/>
   <polygon class="fil0" points="7147.89,7388.24 7243.41,7298.82 7303.81,7364.79 7039.11,7612.75 6978.6,7546.77 7074.12,7457.26 6824.53,7184.74 6898.33,7115.72 "/>
   <path class="fil0" d="M6760.17 7828.76l-67.99 48.42 -424.9 -261.97 92.79 -65.86 87.78 57.03 144.95 -103.23 -24.57 -102 90.66 -64.45 101.28 492.05zm-107.98 -87.26l-36.25 -149.53 -91.24 64.85 127.49 84.68z"/>
   <path class="fil0" d="M3795.79 3493.57l0 1304.58c0,397.45 -318.62,719.64 -711.73,719.64 -60.28,0 -118.74,-7.62 -174.67,-21.92 -308.58,-78.66 -537.05,-361.26 -537.05,-697.71l0 -1919.26 0.12 0 1423.34 614.68z"/>
   <path class="fil0" d="M3321.32 2638.97c0,132.55 -106.17,239.93 -237.31,239.93 -130.91,0 -237.08,-107.38 -237.08,-239.93 0,-132.46 106.17,-239.87 237.08,-239.87 131.14,0 237.31,107.4 237.31,239.87z"/>
   <path class="fil0" d="M6168.25 5038.03c0,845.89 -618.65,1545.84 -1423.42,1662.17 -77.54,11.25 -156.72,17.03 -237.31,17.03l-237.22 -102.31 -474.5 -205.03 -487.8 -210.7 -672.14 -290.19c138.33,57.14 289.67,88.59 448.32,88.59 19.88,0 39.68,-0.49 59.38,-1.5 244.1,-12.2 468.81,-98.86 652.23,-238.23 284.41,-215.99 469.64,-558.14 474.5,-944.26 0.12,-5.18 0.12,-10.36 0.12,-15.54 0,-5.18 0,-10.36 -0.12,-15.54l0 -2863.29 474.53 0c524.05,0 948.92,429.65 948.92,959.68 0,288.35 -125.88,546.98 -325,722.97 276.5,169.81 500.08,419.12 639.65,716.39 102.51,218.15 159.86,462.13 159.86,719.75z"/>
   <polygon class="fil0" points="3475.13,8198.45 3369.28,8259.56 3328.37,8185.88 3499.5,8091.77 3587.91,8110.15 3495.85,8562.01 3405.01,8543.14 "/>
   <path class="fil0" d="M4000.62 8464.24c-5.27,1.01 -10.44,1.73 -15.62,2.24 -5.18,0.49 -10.67,0.6 -16.14,0.2 -21.52,-1.44 -40.71,-6.7 -57.74,-15.62 -17.06,-8.95 -31.39,-20.63 -42.96,-34.81 -11.57,-14.33 -20.2,-30.87 -25.78,-49.75 -5.67,-18.79 -7.8,-38.67 -6.39,-59.47 1.52,-23.77 7.31,-45.09 17.46,-63.76 10.04,-18.67 23.13,-34.41 39.27,-47.3 16.03,-12.77 34.73,-22.21 55.82,-28.43 21.03,-6.19 43.56,-8.52 67.61,-6.88 23.54,1.52 45.46,6.88 65.77,15.82 20.28,8.92 37.55,20.92 51.88,35.82 14.3,14.82 25.26,32.2 32.77,52.08 7.51,19.88 10.44,41.72 8.92,65.46 -1.09,16.46 -3.65,31.48 -7.51,44.88 -3.94,13.38 -8.72,26.07 -14.41,37.86 -5.78,11.77 -12.26,22.93 -19.68,33.58 -7.39,10.56 -15.13,21.52 -23.13,32.68l-110.02 150.42 -117.65 -7.91 117.53 -157.12zm-68.51 -146.76c-1.32,20.72 4.26,38.47 16.83,53 12.69,14.5 29.87,22.53 51.79,24.05 21.81,1.41 39.99,-4.29 54.38,-16.98 14.41,-12.69 22.24,-29.52 23.65,-50.24 1.32,-20.8 -4.26,-38.47 -16.83,-53.08 -12.6,-14.5 -29.84,-22.53 -51.76,-23.94 -21.84,-1.52 -39.99,4.14 -54.32,16.83 -14.41,12.8 -22.33,29.55 -23.74,50.35z"/>
   <path class="fil0" d="M4387.39 8297.28c-1.41,-21.12 1.32,-39.99 8.23,-56.22 6.91,-16.34 16.95,-30.35 30.15,-41.83 13.29,-11.57 28.92,-20.49 46.98,-26.9 18.18,-6.47 37.66,-10.36 58.67,-11.85 21.03,-1.32 40.91,-0.12 59.7,3.86 18.76,3.94 35.3,10.76 49.83,20.49 14.41,9.64 26.18,22.04 35.3,37.35 9.24,15.25 14.53,33.4 15.94,54.61 1.64,25.09 -3.65,47.01 -16.03,65.57 -12.29,18.67 -30.44,32.48 -54.41,41.52l0.12 1.32c27.91,5.5 49.72,17.35 65.66,35.62 15.82,18.27 24.66,41.72 26.59,70.26 1.44,22.01 -1.73,41.81 -9.32,59.27 -7.71,17.55 -18.59,32.28 -32.68,44.25 -14.01,12.08 -30.47,21.52 -49.43,28.43 -18.87,6.91 -38.87,11.05 -59.9,12.57 -21,1.32 -41.29,-0.09 -61,-4.46 -19.68,-4.26 -37.26,-11.48 -52.77,-21.52 -15.54,-10.04 -28.23,-23.25 -38.06,-39.47 -9.96,-16.34 -15.62,-35.45 -17.06,-57.46 -1.93,-28.63 3.77,-53 17.06,-73.28 13.29,-20.2 33.49,-34.93 60.39,-44.16l-0.12 -1.21c-24.86,-5.78 -44.65,-16.95 -59.36,-33.81 -14.62,-16.83 -22.84,-37.75 -24.48,-62.92zm97.33 7.11c0.92,14.3 6.91,26.1 17.87,35.33 10.96,9.24 24.77,13.38 41.52,12.26 16.66,-1.21 29.84,-6.99 39.5,-17.64 9.64,-10.67 13.98,-23.16 12.98,-37.46 -0.92,-13.81 -6.79,-25.38 -17.75,-34.61 -10.96,-9.24 -24.77,-13.41 -41.52,-12.17 -16.66,1.09 -29.84,6.99 -39.47,17.55 -9.67,10.65 -14.01,22.93 -13.12,36.74zm4.69 188.08c1.01,16.03 7.71,29.23 20.08,39.68 12.29,10.47 28.11,15.13 47.42,13.81 19.28,-1.32 34.3,-7.91 45.17,-20 10.85,-11.97 15.71,-25.98 14.62,-42.01 -1.04,-16.46 -7.74,-29.95 -20.11,-40.4 -12.29,-10.47 -28.11,-15.05 -47.39,-13.72 -19.31,1.24 -34.32,7.91 -45.17,19.91 -10.88,12.08 -15.74,26.27 -14.62,42.73z"/>
   <path class="fil0" d="M4959.66 8475.21l141.5 -193.66c7.22,-9.96 14.21,-20.92 20.92,-33 6.79,-12.06 8.72,-24.86 5.98,-38.47 -3.14,-15.31 -11.08,-26.18 -23.77,-32.68 -12.69,-6.39 -26.38,-8.11 -41.09,-4.98 -17.78,3.65 -30.35,12 -37.98,25.18 -7.71,13.09 -10.44,27.94 -8.43,44.25l-96.1 12.69c-3.57,-23.65 -2.85,-44.94 2.13,-63.93 4.86,-18.99 13.09,-35.62 24.66,-50.03 11.57,-14.33 26.1,-26.38 43.65,-35.94 17.55,-9.75 37.26,-16.75 59.18,-21.32 20.2,-4.17 39.68,-5.27 58.55,-3.25 18.79,2.04 35.94,7.42 51.27,15.94 15.31,8.63 28.4,20.6 39.27,36.14 10.76,15.42 18.47,34.41 23.05,56.94 2.93,14.53 4.14,27.91 3.65,40.19 -0.6,12.29 -2.53,23.85 -5.9,34.5 -3.25,10.56 -7.71,20.72 -13.18,30.27 -5.5,9.64 -11.68,19.08 -18.59,28.51l-111.66 146.28 198.24 -41.32 17.15 84.24 -311.91 64.85 -20.6 -101.39z"/>
   <path class="fil0" d="M5755.98 8101.26c0,33.2 26.59,60.1 59.38,60.1 32.77,0 59.36,-26.9 59.36,-60.1 0,-33.17 -26.59,-59.99 -59.36,-59.99 -32.8,0 -59.38,26.82 -59.38,59.99z"/>
   <path class="fil0" d="M2671.82 8101.18c0,33.17 26.59,59.99 59.38,59.99 32.77,0 59.38,-26.82 59.38,-59.99 0,-33.2 -26.61,-60.1 -59.38,-60.1 -32.8,0 -59.38,26.9 -59.38,60.1z"/>
   <polygon class="fil0" points="9927.78,8636.53 10000.58,8636.53 10000.58,0 9927.78,0 "/>
   <path class="fil0" d="M12811.24 3805.76l-372.08 0 0 -174.5 -5.38 0c-16.14,23.65 -37.37,47.62 -63.36,72.27 -26.07,24.46 -56.62,46.78 -91.75,66.69 -35.02,20.08 -73.68,36.34 -115.92,49.11 -42.21,12.69 -85.77,19.19 -130.71,19.19 -97.05,0 -185.15,-16.86 -264.21,-50.44 -79.18,-33.61 -146.97,-80.91 -203.62,-141.82 -56.62,-60.88 -100.18,-133.15 -130.82,-216.87 -30.56,-83.55 -45.78,-175.31 -45.78,-275.29 0,-92.67 13.9,-181.38 41.81,-265.82 27.82,-84.56 67.41,-159.57 118.65,-224.94 51.27,-65.46 113.59,-117.73 187.36,-156.81 73.71,-39.07 157.24,-58.58 250.72,-58.58 84.44,0 163.22,13.12 235.99,39.5 72.79,26.38 132.46,71.35 179.25,135l5.38 0 0 -703.21 404.47 0 0 1886.49zm-372.08 -662.6c0,-99.98 -28.34,-180.86 -84.96,-242.57 -56.54,-61.83 -136.12,-92.79 -238.63,-92.79 -102.43,0 -181.89,30.96 -238.63,92.79 -56.62,61.72 -84.85,142.59 -84.85,242.57 0,100.1 28.23,180.89 84.85,242.69 56.74,61.83 136.21,92.67 238.63,92.67 102.51,0 182.1,-30.84 238.63,-92.67 56.62,-61.8 84.96,-142.59 84.96,-242.69z"/>
   <path class="fil0" d="M13218.39 2156.5c0,-65.48 22.96,-121.3 68.74,-167.68 45.86,-46.38 101.19,-69.54 165.84,-69.54 64.77,0 119.98,23.16 165.84,69.54 45.78,46.38 68.74,102.2 68.74,167.68 0,65.46 -22.96,121.39 -68.74,167.68 -45.86,46.38 -101.07,69.51 -165.84,69.51 -64.65,0 -119.98,-23.13 -165.84,-69.51 -45.78,-46.29 -68.74,-102.23 -68.74,-167.68zm32.4 324.08l404.47 0 0 1325.19 -404.47 0 0 -1325.19z"/>
   <path class="fil0" d="M15318.78 3805.76l-388.22 0 0 -179.97 -5.5 0c-14.3,25.46 -32.77,50.95 -55.33,76.33 -22.41,25.46 -49.83,48.19 -82.09,68.1 -32.4,20.08 -69.34,36.34 -110.66,49.11 -41.32,12.69 -86.26,19.19 -134.8,19.19 -102.51,0 -185.52,-16.03 -249.36,-47.7 -63.84,-31.88 -113.27,-76.01 -148.4,-132.35 -34.93,-56.33 -58.35,-122.71 -70.03,-199.03 -11.68,-76.33 -17.55,-159.05 -17.55,-248.07l0 -730.8 404.47 0 0 648.97c0,38.18 1.32,77.77 4.06,118.57 2.73,40.91 10.76,78.75 24.25,113.16 13.49,34.53 34.21,62.75 62,84.56 27.94,21.84 67.93,32.68 120.09,32.68 52.08,0 94.28,-9.44 126.65,-28.51 32.4,-19.19 57.05,-44.57 74.12,-76.45 17.03,-31.76 28.31,-67.7 33.69,-107.69 5.47,-39.88 8.11,-81.8 8.11,-125.44l0 -659.85 404.47 0 0 1325.19z"/>
   <path class="fil0" d="M16456.59 2870.49c-59.27,-74.49 -137.53,-111.75 -234.58,-111.75 -34.18,0 -67.38,8.23 -99.75,24.57 -32.4,16.34 -48.54,44.57 -48.54,84.53 0,32.68 16.54,56.74 49.83,72.27 33.32,15.34 75.53,29.03 126.8,40.8 51.24,11.88 106.05,24.57 164.43,38.18 58.46,13.7 113.27,35.1 164.52,64.13 51.27,29.03 93.39,68.53 126.77,118.57 33.2,50.03 49.83,116.81 49.83,200.45 0,85.48 -18.47,155.79 -55.3,211.23 -36.86,55.5 -84.04,99.95 -141.5,133.56 -57.66,33.69 -122.31,57.34 -194.18,70.95 -71.84,13.7 -142.91,20.51 -213.03,20.51 -91.67,0 -184.23,-13.32 -277.7,-39.59 -93.48,-26.38 -172.57,-73.08 -237.31,-140.38l245.42 -275.48c37.75,47.3 79.58,83.24 125.36,107.81 45.86,24.57 99.26,36.73 160.46,36.73 46.7,0 89.02,-6.79 126.68,-20.5 37.75,-13.49 56.62,-38.47 56.62,-74.89 0,-34.53 -16.63,-60.39 -49.83,-77.65 -33.29,-17.26 -75.53,-31.76 -126.77,-43.73 -51.27,-11.8 -106.08,-24.48 -164.43,-38.06 -58.46,-13.7 -113.27,-34.21 -164.43,-61.43 -51.27,-27.19 -93.59,-65.86 -126.77,-115.89 -33.29,-49.83 -49.95,-116.73 -49.95,-200.37 0,-78.06 15.74,-145.35 47.21,-201.78 31.45,-56.33 72.76,-102.63 124.01,-139.05 51.27,-36.34 110.14,-63.15 176.63,-80.39 66.46,-17.26 133.87,-25.89 202.18,-25.89 86.37,0 173.46,12.69 261.56,38.06 88.1,25.46 162.7,70.95 223.81,136.41l-248.07 248.07z"/>
   <path class="fil0" d="M17815.56 2870.49c-59.27,-74.49 -137.53,-111.75 -234.55,-111.75 -34.21,0 -67.41,8.23 -99.78,24.57 -32.37,16.34 -48.51,44.57 -48.51,84.53 0,32.68 16.54,56.74 49.83,72.27 33.29,15.34 75.53,29.03 126.77,40.8 51.27,11.88 106.08,24.57 164.43,38.18 58.46,13.7 113.27,35.1 164.55,64.13 51.24,29.03 93.36,68.53 126.77,118.57 33.17,50.03 49.83,116.81 49.83,200.45 0,85.48 -18.47,155.79 -55.33,211.23 -36.83,55.5 -84.04,99.95 -141.47,133.56 -57.66,33.69 -122.31,57.34 -194.18,70.95 -71.87,13.7 -142.91,20.51 -213.05,20.51 -91.64,0 -184.23,-13.32 -277.7,-39.59 -93.48,-26.38 -172.54,-73.08 -237.31,-140.38l245.42 -275.48c37.78,47.3 79.58,83.24 125.36,107.81 45.89,24.57 99.26,36.73 160.49,36.73 46.67,0 88.99,-6.79 126.65,-20.5 37.78,-13.49 56.65,-38.47 56.65,-74.89 0,-34.53 -16.66,-60.39 -49.83,-77.65 -33.32,-17.26 -75.53,-31.76 -126.8,-43.73 -51.24,-11.8 -106.05,-24.48 -164.43,-38.06 -58.46,-13.7 -113.27,-34.21 -164.43,-61.43 -51.24,-27.19 -93.57,-65.86 -126.77,-115.89 -33.29,-49.83 -49.92,-116.73 -49.92,-200.37 0,-78.06 15.71,-145.35 47.19,-201.78 31.48,-56.33 72.76,-102.63 124.03,-139.05 51.24,-36.34 110.14,-63.15 176.6,-80.39 66.49,-17.26 133.87,-25.89 202.21,-25.89 86.37,0 173.46,12.69 261.56,38.06 88.1,25.46 162.7,70.95 223.79,136.41l-248.07 248.07z"/>
   <polygon class="fil0" points="16369.7,5997.62 19928.26,5997.62 19928.26,5517.82 16369.7,5517.82 "/>
   <polygon class="fil0" points="17555.81,5277.9 19928.26,5277.9 19928.26,4798.1 17555.81,4798.1 "/>
   <polygon class="fil0" points="18742.04,4558.14 19928.26,4558.14 19928.26,4078.35 18742.04,4078.35 "/>
   <path class="fil0" d="M11644.55 6360.69c-8,-10.33 -18.96,-17.95 -32.77,-22.93 -13.81,-4.86 -26.9,-7.31 -39.27,-7.31 -7.22,0 -14.62,0.81 -22.36,2.53 -7.6,1.73 -14.82,4.37 -21.61,8.14 -6.79,3.65 -12.37,8.4 -16.54,14.5 -4.26,5.9 -6.39,13.29 -6.39,21.81 0,13.81 5.06,24.37 15.22,31.59 10.24,7.39 23.13,13.58 38.55,18.76 15.54,5.18 32.28,10.36 50.15,15.42 17.78,5.18 34.53,12.6 50.03,21.92 15.54,9.47 28.43,22.24 38.58,38.06 10.16,15.94 15.34,37.17 15.34,63.84 0,25.38 -4.78,47.5 -14.01,66.41 -9.44,18.96 -22.04,34.61 -37.98,47.07 -15.91,12.49 -34.38,21.72 -55.5,27.74 -21.03,5.98 -43.24,9.01 -66.58,9.01 -29.35,0 -56.65,-4.46 -81.71,-13.49 -24.97,-9.03 -48.42,-23.65 -70.15,-43.85l70.84 -78.66c10.16,13.81 23.05,24.37 38.58,31.88 15.54,7.62 31.56,11.36 48.22,11.36 8,0 16.14,-1.01 24.46,-2.93 8.32,-1.93 15.74,-4.89 22.33,-8.75 6.59,-3.86 11.88,-8.83 15.94,-14.82 4.06,-5.98 5.98,-13.09 5.98,-21.29 0,-13.72 -5.18,-24.57 -15.54,-32.48 -10.44,-8.03 -23.45,-14.73 -39.19,-20.4 -15.71,-5.5 -32.77,-11.08 -51.04,-16.77 -18.27,-5.47 -35.33,-13.09 -51.07,-22.53 -15.71,-9.52 -28.8,-21.92 -39.16,-37.35 -10.47,-15.54 -15.65,-35.94 -15.65,-61.31 0,-24.54 4.78,-45.98 14.33,-64.45 9.64,-18.47 22.33,-34.01 38.27,-46.5 16.03,-12.37 34.3,-21.81 55.21,-27.99 20.8,-6.3 42.24,-9.35 64.36,-9.35 25.46,0 50.24,3.65 73.97,10.96 23.85,7.31 45.29,19.51 64.36,36.74l-68.22 75.41z"/>
   <path class="fil0" d="M12138.73 6367.8c-9.72,-12 -21.81,-21.23 -36.02,-27.62 -14.21,-6.5 -30.76,-9.75 -49.34,-9.75 -18.76,0 -36.11,3.65 -52.05,10.96 -15.94,7.31 -29.75,17.46 -41.43,30.67 -11.65,12.98 -20.8,28.63 -27.39,46.7 -6.59,18.07 -9.84,37.63 -9.84,58.67 0,21.52 3.25,41.09 9.84,59.07 6.59,17.75 15.62,33.29 27.1,46.38 11.45,13.09 24.97,23.33 40.48,30.64 15.54,7.31 32.2,10.96 50.06,10.96 20.4,0 38.47,-4.34 54.18,-12.89 15.74,-8.72 28.74,-20.69 38.9,-36.14l82.92 62.55c-19.19,27.1 -43.36,46.98 -72.79,59.87 -29.23,13 -59.47,19.39 -90.43,19.39 -35.33,0 -67.9,-5.5 -97.65,-16.75 -29.72,-11.16 -55.41,-27.1 -77.14,-48.02 -21.72,-20.8 -38.55,-46.09 -50.64,-75.73 -12.08,-29.63 -18.18,-62.81 -18.18,-99.35 0,-36.45 6.1,-69.63 18.18,-99.29 12.08,-29.63 28.92,-54.9 50.64,-75.7 21.72,-20.92 47.42,-36.94 77.14,-48.11 29.75,-11.16 62.32,-16.75 97.65,-16.75 12.69,0 25.98,1.21 39.79,3.42 13.81,2.45 27.39,6.21 40.91,11.39 13.38,5.15 26.18,11.97 38.55,20.6 12.29,8.63 23.36,19.16 33.09,31.65l-76.53 63.15z"/>
   <polygon class="fil0" points="12335.16,6705.69 12434.62,6705.69 12434.62,6249.14 12335.16,6249.14 "/>
   <polygon class="fil0" points="12585.1,6249.14 12891.83,6249.14 12891.83,6342.1 12684.56,6342.1 12684.56,6427.07 12880.35,6427.07 12880.35,6519.94 12684.56,6519.94 12684.56,6612.82 12903.28,6612.82 12903.28,6705.69 12585.1,6705.69 "/>
   <polygon class="fil0" points="13039.06,6249.14 13174.26,6249.14 13366.19,6566.44 13367.51,6566.44 13367.51,6249.14 13466.98,6249.14 13466.98,6705.69 13336.87,6705.69 13139.84,6380.69 13138.52,6380.69 13138.52,6705.69 13039.06,6705.69 "/>
   <polygon class="fil0" points="13702.24,6338.16 13573.43,6338.16 13573.43,6249.14 13930.52,6249.14 13930.52,6338.16 13801.71,6338.16 13801.71,6705.69 13702.24,6705.69 "/>
   <polygon class="fil0" points="14035.79,6705.69 14135.26,6705.69 14135.26,6249.14 14035.79,6249.14 "/>
   <polygon class="fil0" points="14285.68,6249.14 14588.56,6249.14 14588.56,6342.1 14385.14,6342.1 14385.14,6434.89 14573.22,6434.89 14573.22,6527.77 14385.14,6527.77 14385.14,6705.69 14285.68,6705.69 "/>
   <polygon class="fil0" points="14714.84,6705.69 14814.3,6705.69 14814.3,6249.14 14714.84,6249.14 "/>
   <path class="fil0" d="M15256.17 6367.8c-9.84,-12 -21.84,-21.23 -36.05,-27.62 -14.3,-6.5 -30.76,-9.75 -49.43,-9.75 -18.67,0 -36.02,3.65 -51.96,10.96 -15.94,7.31 -29.75,17.46 -41.52,30.67 -11.65,12.98 -20.69,28.63 -27.39,46.7 -6.62,18.07 -9.84,37.63 -9.84,58.67 0,21.52 3.22,41.09 9.84,59.07 6.7,17.75 15.74,33.29 27.1,46.38 11.45,13.09 25.06,23.33 40.48,30.64 15.54,7.31 32.2,10.96 50.03,10.96 20.51,0 38.58,-4.34 54.32,-12.89 15.74,-8.72 28.63,-20.69 38.76,-36.14l82.95 62.55c-19.1,27.1 -43.36,46.98 -72.68,59.87 -29.23,13 -59.5,19.39 -90.54,19.39 -35.33,0 -67.81,-5.5 -97.54,-16.75 -29.75,-11.16 -55.53,-27.1 -77.14,-48.02 -21.72,-20.8 -38.58,-46.09 -50.75,-75.73 -12.08,-29.63 -18.07,-62.81 -18.07,-99.35 0,-36.45 5.98,-69.63 18.07,-99.29 12.17,-29.63 29.03,-54.9 50.75,-75.7 21.61,-20.92 47.39,-36.94 77.14,-48.11 29.72,-11.16 62.2,-16.75 97.54,-16.75 12.77,0 25.98,1.21 39.88,3.42 13.81,2.45 27.42,6.21 40.83,11.39 13.38,5.15 26.27,11.97 38.55,20.6 12.29,8.63 23.33,19.16 33.2,31.65l-76.53 63.15z"/>
   <path class="fil0" d="M15602.44 6249.14l82.32 0 196.31 456.55 -112.27 0 -38.87 -96.73 -175.28 0 -37.66 96.73 -109.71 0 195.16 -456.55zm38.27 132.87l-54.81 141.9 110.25 0 -55.44 -141.9z"/>
   <polygon class="fil0" points="16231.13,6249.14 16537.87,6249.14 16537.87,6342.1 16330.6,6342.1 16330.6,6427.07 16526.3,6427.07 16526.3,6519.94 16330.6,6519.94 16330.6,6612.82 16549.35,6612.82 16549.35,6705.69 16231.13,6705.69 "/>
   <path class="fil0" d="M17155.8 6360.69c-8,-10.33 -18.96,-17.95 -32.77,-22.93 -13.81,-4.86 -26.9,-7.31 -39.19,-7.31 -7.31,0 -14.7,0.81 -22.44,2.53 -7.6,1.73 -14.82,4.37 -21.72,8.14 -6.68,3.65 -12.26,8.4 -16.54,14.5 -4.14,5.9 -6.27,13.29 -6.27,21.81 0,13.81 5.06,24.37 15.22,31.59 10.24,7.39 23.13,13.58 38.55,18.76 15.54,5.18 32.2,10.36 50.06,15.42 17.87,5.18 34.61,12.6 50.12,21.92 15.54,9.47 28.34,22.24 38.58,38.06 10.16,15.94 15.34,37.17 15.34,63.84 0,25.38 -4.78,47.5 -14.01,66.41 -9.44,18.96 -22.04,34.61 -37.98,47.07 -15.91,12.49 -34.41,21.72 -55.5,27.74 -21.12,5.98 -43.24,9.01 -66.61,9.01 -29.32,0 -56.62,-4.46 -81.6,-13.49 -25.18,-9.03 -48.51,-23.65 -70.23,-43.85l70.84 -78.66c10.16,13.81 23.05,24.37 38.58,31.88 15.54,7.62 31.45,11.36 48.11,11.36 8.11,0 16.23,-1.01 24.57,-2.93 8.32,-1.93 15.74,-4.89 22.33,-8.75 6.5,-3.86 11.88,-8.83 15.94,-14.82 4.06,-5.98 5.98,-13.09 5.98,-21.29 0,-13.72 -5.18,-24.57 -15.54,-32.48 -10.44,-8.03 -23.54,-14.73 -39.27,-20.4 -15.74,-5.5 -32.8,-11.08 -50.95,-16.77 -18.27,-5.47 -35.33,-13.09 -51.07,-22.53 -15.71,-9.52 -28.8,-21.92 -39.16,-37.35 -10.47,-15.54 -15.65,-35.94 -15.65,-61.31 0,-24.54 4.78,-45.98 14.33,-64.45 9.52,-18.47 22.33,-34.01 38.27,-46.5 16.03,-12.37 34.3,-21.81 55.21,-27.99 20.8,-6.3 42.21,-9.35 64.36,-9.35 25.46,0 50.12,3.65 73.97,10.96 23.77,7.31 45.29,19.51 64.36,36.74l-68.22 75.41z"/>
   <path class="fil0" d="M17330.53 6477.42c0,-36.42 6.07,-69.63 18.15,-99.38 12.08,-29.63 29.03,-54.9 50.64,-75.61 21.72,-20.92 47.42,-36.94 77.17,-48.11 29.84,-11.16 62.32,-16.75 97.54,-16.75 35.3,0 67.9,5.58 97.62,16.75 29.75,11.16 55.44,27.19 77.17,48.11 21.61,20.72 38.55,45.98 50.64,75.61 12.17,29.75 18.15,62.95 18.15,99.38 0,36.54 -5.98,69.74 -18.15,99.38 -12.08,29.63 -29.03,54.9 -50.64,75.7 -21.72,20.92 -47.42,36.86 -77.17,48.02 -29.72,11.28 -62.32,16.75 -97.62,16.75 -35.22,0 -67.7,-5.47 -97.54,-16.75 -29.75,-11.16 -55.44,-27.1 -77.17,-48.02 -21.61,-20.8 -38.55,-46.06 -50.64,-75.7 -12.08,-29.63 -18.15,-62.84 -18.15,-99.38zm103.2 0c0,21.52 3.37,41.11 9.96,59.07 6.59,17.78 16.03,33.29 28.43,46.38 12.29,13 27.1,23.36 44.25,30.67 17.15,7.31 36.42,10.96 57.66,10.96 21.32,0 40.48,-3.65 57.74,-10.96 17.26,-7.31 31.97,-17.67 44.37,-30.67 12.29,-13.09 21.72,-28.6 28.4,-46.38 6.5,-17.95 9.87,-37.55 9.87,-59.07 0,-21 -3.37,-40.6 -9.87,-58.67 -6.68,-18.07 -16.11,-33.69 -28.4,-46.78 -12.4,-13.09 -27.1,-23.36 -44.37,-30.56 -17.26,-7.31 -36.42,-10.96 -57.74,-10.96 -21.23,0 -40.51,3.65 -57.66,10.96 -17.15,7.19 -31.97,17.46 -44.25,30.56 -12.4,13.09 -21.84,28.71 -28.43,46.78 -6.59,18.07 -9.96,37.66 -9.96,58.67z"/>
   <path class="fil0" d="M18236.66 6367.8c-9.84,-12 -21.81,-21.23 -36.02,-27.62 -14.33,-6.5 -30.76,-9.75 -49.43,-9.75 -18.67,0 -36.05,3.65 -51.96,10.96 -15.94,7.31 -29.75,17.46 -41.52,30.67 -11.68,12.98 -20.72,28.63 -27.42,46.7 -6.59,18.07 -9.84,37.63 -9.84,58.67 0,21.52 3.25,41.09 9.84,59.07 6.7,17.75 15.74,33.29 27.22,46.38 11.36,13.09 24.95,23.33 40.48,30.64 15.42,7.31 32.08,10.96 49.95,10.96 20.51,0 38.55,-4.34 54.29,-12.89 15.74,-8.72 28.63,-20.69 38.78,-36.14l82.92 62.55c-19.08,27.1 -43.33,46.98 -72.56,59.87 -29.35,13 -59.59,19.39 -90.66,19.39 -35.3,0 -67.79,-5.5 -97.54,-16.75 -29.72,-11.16 -55.41,-27.1 -77.14,-48.02 -21.61,-20.8 -38.55,-46.09 -50.75,-75.73 -12.08,-29.63 -18.07,-62.81 -18.07,-99.35 0,-36.45 5.98,-69.63 18.07,-99.29 12.2,-29.63 29.15,-54.9 50.75,-75.7 21.72,-20.92 47.42,-36.94 77.14,-48.11 29.75,-11.16 62.23,-16.75 97.54,-16.75 12.8,0 26.1,1.21 39.91,3.42 13.81,2.45 27.39,6.21 40.8,11.39 13.41,5.15 26.3,11.97 38.58,20.6 12.26,8.63 23.33,19.16 33.17,31.65l-76.53 63.15z"/>
   <polygon class="fil0" points="18432.97,6705.69 18532.43,6705.69 18532.43,6249.14 18432.97,6249.14 "/>
   <path class="fil0" d="M18827.78 6249.14l82.32 0 196.31 456.55 -112.27 0 -38.87 -96.73 -175.31 0 -37.63 96.73 -109.62 0 195.07 -456.55zm38.15 132.87l-54.69 141.9 110.22 0 -55.53 -141.9z"/>
   <polygon class="fil0" points="19211.56,6249.14 19311.05,6249.14 19311.05,6612.82 19495.28,6612.82 19495.28,6705.69 19211.56,6705.69 "/>
   <polygon class="fil0" points="19610.11,6249.14 19916.84,6249.14 19916.84,6342.1 19709.57,6342.1 19709.57,6427.07 19905.28,6427.07 19905.28,6519.94 19709.57,6519.94 19709.57,6612.82 19928.32,6612.82 19928.32,6705.69 19610.11,6705.69 "/>
   <path class="fil0" d="M11768.24 5809.94c0,27.1 -4.06,52.05 -12.08,74.81 -8.11,22.73 -20.08,42.52 -36.02,59.36 -15.94,16.75 -35.82,29.87 -59.67,39.3 -23.77,9.44 -51.16,14.18 -82.23,14.18 -31.45,0 -59.07,-4.75 -82.92,-14.18 -23.74,-9.44 -43.65,-22.56 -59.59,-39.3 -15.94,-16.83 -27.91,-36.63 -36.02,-59.36 -8.03,-22.76 -12.08,-47.7 -12.08,-74.81l0 -280.55 99.46 0 0 276.7c0,14.18 2.24,27.3 6.7,39.36 4.37,12 10.67,22.44 18.79,31.16 8,8.95 17.67,15.74 29.03,20.72 11.25,4.98 23.45,7.42 36.63,7.42 13.21,0 25.29,-2.45 36.34,-7.42 11.08,-4.98 20.6,-11.77 28.74,-20.72 8,-8.72 14.3,-19.16 18.76,-31.16 4.46,-12.06 6.7,-25.18 6.7,-39.36l0 -276.7 99.46 0 0 280.55z"/>
   <polygon class="fil0" points="11923.81,5529.42 12074.34,5529.42 12178.27,5827.41 12179.5,5827.41 12284.15,5529.42 12433.96,5529.42 12433.96,5985.97 12334.5,5985.97 12334.5,5635.9 12333.26,5635.9 12214.6,5985.97 12138.71,5985.97 12024.6,5635.9 12023.27,5635.9 12023.27,5985.97 11923.81,5985.97 "/>
   <path class="fil0" d="M12738.11 5529.42l82.2 0 196.51 456.55 -112.27 0 -38.96 -96.73 -175.31 0 -37.66 96.73 -109.71 0 195.19 -456.55zm38.27 132.87l-54.81 141.9 110.22 0 -55.41 -141.9z"/>
   <polygon class="fil0" points="13125.8,5529.42 13260.92,5529.42 13452.85,5846.71 13454.18,5846.71 13454.18,5529.42 13553.64,5529.42 13553.64,5985.97 13423.62,5985.97 13226.59,5660.96 13225.27,5660.96 13225.27,5985.97 13125.8,5985.97 "/>
   <polygon class="fil0" points="13707.94,5985.94 13807.41,5985.94 13807.41,5529.42 13707.94,5529.42 "/>
   <path class="fil0" d="M14184.92 5641c-8.03,-10.36 -18.99,-17.87 -32.8,-22.96 -13.81,-4.86 -26.9,-7.31 -39.27,-7.31 -7.22,0 -14.62,0.83 -22.33,2.56 -7.62,1.73 -14.82,4.46 -21.72,8.11 -6.7,3.65 -12.29,8.43 -16.54,14.5 -4.17,5.9 -6.3,13.29 -6.3,21.84 0,13.81 5.06,24.34 15.22,31.65 10.24,7.31 23.13,13.52 38.58,18.7 15.51,5.15 32.17,10.33 50.03,15.42 17.87,5.18 34.61,12.57 50.15,21.92 15.51,9.52 28.31,22.21 38.55,38.15 10.16,15.85 15.34,37.14 15.34,63.76 0,25.38 -4.78,47.5 -14.01,66.38 -9.44,18.96 -22.01,34.61 -37.95,47.1 -15.94,12.49 -34.41,21.72 -55.53,27.71 -21.12,5.98 -43.24,9.03 -66.58,9.03 -29.35,0 -56.65,-4.46 -81.71,-13.49 -25.06,-9.03 -48.42,-23.65 -70.15,-43.85l70.86 -78.66c10.13,13.78 23.02,24.46 38.55,31.85 15.54,7.62 31.48,11.36 48.11,11.36 8.14,0 16.26,-1.01 24.57,-2.93 8.32,-1.93 15.74,-4.86 22.33,-8.72 6.5,-3.86 11.88,-8.83 15.94,-14.82 4.06,-6.01 5.98,-13.09 5.98,-21.32 0,-13.7 -5.18,-24.57 -15.54,-32.48 -10.44,-8.03 -23.54,-14.73 -39.27,-20.4 -15.74,-5.5 -32.77,-11.08 -50.95,-16.75 -18.27,-5.5 -35.3,-13.09 -51.04,-22.53 -15.74,-9.55 -28.83,-21.92 -39.19,-37.37 -10.44,-15.51 -15.62,-35.94 -15.62,-61.28 0,-24.57 4.78,-46.01 14.3,-64.48 9.55,-18.47 22.33,-33.98 38.27,-46.47 16.03,-12.4 34.3,-21.84 55.21,-28.02 20.8,-6.3 42.24,-9.35 64.36,-9.35 25.46,0 50.15,3.65 74,10.96 23.74,7.31 45.26,19.51 64.33,36.77l-68.19 75.41z"/>
   <polygon class="fil0" points="14478.88,5618.5 14350.1,5618.5 14350.1,5529.48 14707.15,5529.48 14707.15,5618.5 14578.37,5618.5 14578.37,5986.03 14478.88,5986.03 "/>
   <polygon class="fil0" points="14819.97,5985.94 14919.46,5985.94 14919.46,5529.42 14819.97,5529.42 "/>
   <path class="fil0" d="M15369.05 5648.13c-9.87,-12.08 -21.84,-21.32 -36.05,-27.71 -14.3,-6.5 -30.76,-9.75 -49.43,-9.75 -18.67,0 -36.02,3.65 -51.96,11.05 -15.94,7.22 -29.75,17.46 -41.52,30.56 -11.68,13.09 -20.72,28.74 -27.39,46.81 -6.62,18.07 -9.87,37.63 -9.87,58.67 0,21.52 3.25,41.09 9.87,58.95 6.68,17.87 15.71,33.29 27.19,46.38 11.36,13.21 24.97,23.36 40.4,30.67 15.54,7.31 32.17,10.96 50.03,10.96 20.51,0 38.58,-4.37 54.32,-12.89 15.74,-8.63 28.63,-20.6 38.76,-36.14l82.95 62.64c-19.1,27.1 -43.36,46.98 -72.68,59.87 -29.23,12.89 -59.5,19.39 -90.54,19.39 -35.33,0 -67.81,-5.58 -97.54,-16.75 -29.75,-11.16 -55.53,-27.22 -77.14,-48.02 -21.72,-20.92 -38.58,-46.18 -50.75,-75.81 -12.08,-29.63 -18.07,-62.72 -18.07,-99.26 0,-36.54 5.98,-69.63 18.07,-99.38 12.17,-29.63 29.03,-54.93 50.75,-75.73 21.61,-20.8 47.39,-36.83 77.14,-47.99 29.72,-11.16 62.2,-16.75 97.54,-16.75 12.77,0 25.98,1.21 39.88,3.42 13.81,2.36 27.42,6.21 40.8,11.39 13.41,5.15 26.3,11.97 38.58,20.6 12.29,8.52 23.33,19.08 33.2,31.56l-76.53 63.24z"/>
   <path class="fil0" d="M15722.94 5529.42l82.32 0 196.31 456.55 -112.27 0 -38.87 -96.73 -175.31 0 -37.63 96.73 -109.62 0 195.07 -456.55zm38.27 132.87l-54.81 141.9 110.22 0 -55.41 -141.9z"/>
   <polygon class="fil0" points="11387.59,4809.75 11487.06,4809.75 11487.06,5173.43 11671.28,5173.43 11671.28,5266.3 11387.59,5266.3 "/>
   <polygon class="fil0" points="11710.24,4991.59 11628.64,4991.59 11675.86,4809.69 11767.61,4809.69 "/>
   <polygon class="fil0" points="11900.94,5266.33 12000.4,5266.33 12000.4,4809.78 11900.94,4809.78 "/>
   <polygon class="fil0" points="12154.67,4809.75 12289.79,4809.75 12481.72,5127.05 12483.04,5127.05 12483.04,4809.75 12582.51,4809.75 12582.51,5266.3 12452.49,5266.3 12255.46,4941.3 12254.14,4941.3 12254.14,5266.3 12154.67,5266.3 "/>
   <polygon class="fil0" points="12738.11,4809.75 12873.3,4809.75 13065.24,5127.05 13066.56,5127.05 13066.56,4809.75 13166.03,4809.75 13166.03,5266.3 13035.89,5266.3 12838.89,4941.3 12837.57,4941.3 12837.57,5266.3 12738.11,5266.3 "/>
   <path class="fil0" d="M13297.34 5038.03c0,-36.45 6.07,-69.63 18.15,-99.38 12.17,-29.63 29.03,-54.9 50.75,-75.61 21.72,-20.92 47.39,-36.94 77.14,-48.11 29.75,-11.16 62.23,-16.75 97.54,-16.75 35.33,0 67.81,5.58 97.54,16.75 29.75,11.16 55.53,27.19 77.14,48.11 21.72,20.72 38.58,45.98 50.75,75.61 12.08,29.75 18.18,62.92 18.18,99.38 0,36.54 -6.1,69.63 -18.18,99.38 -12.17,29.63 -29.03,54.9 -50.75,75.7 -21.61,20.92 -47.39,36.86 -77.14,48.02 -29.72,11.28 -62.2,16.75 -97.54,16.75 -35.3,0 -67.79,-5.47 -97.54,-16.75 -29.75,-11.16 -55.41,-27.1 -77.14,-48.02 -21.72,-20.8 -38.58,-46.06 -50.75,-75.7 -12.08,-29.75 -18.15,-62.84 -18.15,-99.38zm103.32 0c0,21.52 3.25,41.2 9.84,59.07 6.59,17.75 16.03,33.29 28.43,46.38 12.37,13.09 27.1,23.36 44.25,30.67 17.26,7.19 36.42,10.85 57.74,10.85 21.32,0 40.51,-3.65 57.74,-10.85 17.18,-7.31 31.88,-17.58 44.28,-30.67 12.37,-13.09 21.81,-28.63 28.31,-46.38 6.7,-17.87 9.96,-37.55 9.96,-59.07 0,-21 -3.25,-40.6 -9.96,-58.67 -6.5,-18.07 -15.94,-33.69 -28.31,-46.78 -12.4,-13 -27.1,-23.36 -44.28,-30.56 -17.23,-7.31 -36.42,-11.08 -57.74,-11.08 -21.32,0 -40.48,3.77 -57.74,11.08 -17.15,7.19 -31.88,17.55 -44.25,30.56 -12.4,13.09 -21.84,28.71 -28.43,46.78 -6.59,18.07 -9.84,37.66 -9.84,58.67z"/>
   <polygon class="fil0" points="13871.28,4809.75 13984.75,4809.75 14096.39,5108.98 14097.63,5108.98 14211.19,4809.75 14317.67,4809.75 14131.4,5266.3 14051.73,5266.3 "/>
   <path class="fil0" d="M14542 4809.75l82.23 0 196.4 456.55 -112.27 0 -38.87 -96.73 -175.28 0 -37.66 96.73 -109.74 0 195.19 -456.55zm38.27 132.87l-54.81 141.79 110.22 0 -55.41 -141.79z"/>
   <polygon class="fil0" points="14906.08,5173.48 15134.99,4898.71 14914.31,4898.71 14914.31,4809.81 15255.57,4809.81 15255.57,4898.71 15031.04,5173.48 15263.17,5173.48 15263.17,5266.36 14906.08,5266.36 "/>
   <polygon class="fil0" points="15393.88,5266.33 15493.34,5266.33 15493.34,4809.78 15393.88,4809.78 "/>
   <path class="fil0" d="M15623.44 5038.03c0,-36.45 6.1,-69.63 18.15,-99.38 12.08,-29.63 29.03,-54.9 50.67,-75.61 21.72,-20.92 47.39,-36.94 77.14,-48.11 29.84,-11.16 62.32,-16.75 97.54,-16.75 35.33,0 67.9,5.58 97.65,16.75 29.75,11.16 55.41,27.19 77.14,48.11 21.61,20.72 38.58,45.98 50.64,75.61 12.2,29.75 18.18,62.92 18.18,99.38 0,36.54 -5.98,69.63 -18.18,99.38 -12.06,29.63 -29.03,54.9 -50.64,75.7 -21.72,20.92 -47.39,36.86 -77.14,48.02 -29.75,11.28 -62.32,16.75 -97.65,16.75 -35.22,0 -67.7,-5.47 -97.54,-16.75 -29.75,-11.16 -55.41,-27.1 -77.14,-48.02 -21.64,-20.8 -38.58,-46.06 -50.67,-75.7 -12.06,-29.75 -18.15,-62.84 -18.15,-99.38zm103.23 0c0,21.52 3.34,41.2 9.93,59.07 6.62,17.75 16.05,33.29 28.43,46.38 12.29,13.09 27.1,23.36 44.25,30.67 17.18,7.19 36.45,10.85 57.66,10.85 21.32,0 40.51,-3.65 57.74,-10.85 17.26,-7.31 31.99,-17.58 44.37,-30.67 12.29,-13.09 21.72,-28.63 28.43,-46.38 6.5,-17.87 9.84,-37.55 9.84,-59.07 0,-21 -3.34,-40.6 -9.84,-58.67 -6.7,-18.07 -16.14,-33.69 -28.43,-46.78 -12.37,-13 -27.1,-23.36 -44.37,-30.56 -17.23,-7.31 -36.42,-11.08 -57.74,-11.08 -21.2,0 -40.48,3.77 -57.66,11.08 -17.15,7.19 -31.97,17.55 -44.25,30.56 -12.37,13.09 -21.81,28.71 -28.43,46.78 -6.59,18.07 -9.93,37.66 -9.93,58.67z"/>
   <polygon class="fil0" points="16241.95,4809.75 16377.15,4809.75 16569.08,5127.05 16570.41,5127.05 16570.41,4809.75 16669.78,4809.75 16669.78,5266.3 16539.77,5266.3 16342.74,4941.3 16341.41,4941.3 16341.41,5266.3 16241.95,5266.3 "/>
   <polygon class="fil0" points="16829.21,4809.75 17135.94,4809.75 17135.94,4902.71 16928.67,4902.71 16928.67,4987.68 17124.38,4987.68 17124.38,5080.67 16928.67,5080.67 16928.67,5173.43 17147.39,5173.43 17147.39,5266.3 16829.21,5266.3 "/>
   <path class="fil0" d="M11387.59 4090.03l149.21 0c36.11,0 70.43,4.17 103,12.4 32.48,8.11 60.91,21.29 85.05,39.56 24.37,18.27 43.56,42.04 57.77,71.27 14.21,29.23 21.32,64.65 21.32,106.37 0,36.94 -6.91,69.51 -20.72,97.74 -13.81,28.11 -32.37,51.67 -55.73,70.86 -23.45,19.16 -50.44,33.69 -80.99,43.53 -30.64,9.84 -62.72,14.82 -96.33,14.82l-162.59 0 0 -456.55zm99.46 363.67l51.67 0c22.93,0 44.34,-2.33 64.05,-7.11 19.77,-4.66 36.94,-12.57 51.36,-23.54 14.5,-10.96 25.87,-25.29 34.09,-43.16 8.32,-17.84 12.49,-39.68 12.49,-65.46 0,-22.33 -4.17,-41.72 -12.49,-58.35 -8.23,-16.46 -19.39,-30.15 -33.4,-40.91 -14.1,-10.76 -30.56,-18.87 -49.52,-24.17 -18.87,-5.47 -38.78,-8 -59.59,-8l-58.67 0 0 270.68z"/>
   <polygon class="fil0" points="11934.02,4546.58 12033.49,4546.58 12033.49,4090.14 11934.02,4090.14 "/>
   <path class="fil0" d="M12187.85 4090.03l167.68 0c23.45,0 45.46,2.13 66.29,6.5 20.89,4.26 39.07,11.77 54.49,22.21 15.54,10.56 27.91,24.77 37.06,42.55 9.12,17.87 13.7,40.28 13.7,67.38 0,26.59 -4.26,49.03 -12.8,67.1 -8.4,18.07 -20.08,32.48 -35.02,43.24 -14.9,10.65 -32.48,18.27 -52.97,22.84 -20.4,4.55 -42.44,6.79 -66.29,6.79l-72.68 0 0 177.92 -99.46 0 0 -456.55zm99.46 193.46l66.29 0c8.92,0 17.55,-0.92 25.78,-2.65 8.32,-1.61 15.74,-4.55 22.44,-8.63 6.47,-4.06 11.85,-9.64 15.91,-16.75 4.09,-7.11 6.01,-16.03 6.01,-26.79 0,-11.68 -2.65,-20.92 -7.94,-28.02 -5.38,-7.11 -12.06,-12.57 -20.49,-16.54 -8.23,-3.74 -17.46,-6.27 -27.62,-7.39 -10.24,-0.92 -20,-1.52 -29.43,-1.52l-50.95 0 0 108.3z"/>
   <path class="fil0" d="M12754.68 4090.03l82.32 0 196.4 456.55 -112.24 0 -38.99 -96.73 -175.31 0 -37.63 96.73 -109.62 0 195.07 -456.55zm38.27 132.87l-54.81 141.9 110.22 0 -55.41 -141.9z"/>
   <path class="fil0" d="M13142.38 4090.03l174.7 0c22.93,0 44.74,2.33 65.37,6.79 20.6,4.49 38.67,12.08 54.18,22.64 15.54,10.47 27.82,24.66 37.06,42.44 9.15,17.87 13.61,40.19 13.61,66.78 0,32.28 -8.23,59.67 -24.77,82.23 -16.66,22.53 -40.91,36.83 -72.76,42.93l114.77 192.74 -119.14 0 -94.4 -182.5 -49.11 0 0 182.5 -99.49 0 0 -456.55zm99.49 189l58.67 0c8.92,0 18.36,-0.4 28.4,-1.01 9.96,-0.63 18.99,-2.56 27.02,-5.81 8.11,-3.22 14.82,-8.2 20.2,-15.11 5.18,-6.91 7.91,-16.54 7.91,-29.03 0,-11.68 -2.33,-20.92 -6.99,-27.82 -4.78,-6.79 -10.67,-12.08 -17.87,-15.74 -7.22,-3.65 -15.54,-6.07 -24.89,-7.39 -9.44,-1.32 -18.47,-1.93 -27.39,-1.93l-65.05 0 0 103.84z"/>
   <polygon class="fil0" points="13695.2,4179.05 13566.41,4179.05 13566.41,4090.03 13923.47,4090.03 13923.47,4179.05 13794.69,4179.05 13794.69,4546.58 13695.2,4546.58 "/>
   <polygon class="fil0" points="14036.4,4546.58 14135.86,4546.58 14135.86,4090.14 14036.4,4090.14 "/>
   <polygon class="fil0" points="14290.17,4090.03 14440.7,4090.03 14544.62,4388.05 14545.83,4388.05 14650.47,4090.03 14800.29,4090.03 14800.29,4546.58 14700.82,4546.58 14700.82,4196.51 14699.5,4196.51 14580.96,4546.58 14505.03,4546.58 14390.95,4196.51 14389.63,4196.51 14389.63,4546.58 14290.17,4546.58 "/>
   <polygon class="fil0" points="14959.68,4090.03 15266.42,4090.03 15266.42,4183.02 15059.15,4183.02 15059.15,4267.95 15254.85,4267.95 15254.85,4360.94 15059.15,4360.94 15059.15,4453.7 15277.9,4453.7 15277.9,4546.58 14959.68,4546.58 "/>
   <polygon class="fil0" points="15421.32,4090.03 15556.52,4090.03 15748.49,4407.32 15749.78,4407.32 15749.78,4090.03 15849.16,4090.03 15849.16,4546.58 15719.14,4546.58 15522.14,4221.57 15520.82,4221.57 15520.82,4546.58 15421.32,4546.58 "/>
   <polygon class="fil0" points="16092.16,4179.05 15963.35,4179.05 15963.35,4090.03 16320.44,4090.03 16320.44,4179.05 16191.51,4179.05 16191.51,4546.58 16092.16,4546.58 "/>
   <path class="fil0" d="M16410.32 4318.3c0,-36.42 6.1,-69.71 18.18,-99.38 12.06,-29.63 29.03,-54.81 50.64,-75.61 21.72,-20.92 47.39,-36.94 77.14,-48.11 29.84,-11.16 62.32,-16.75 97.54,-16.75 35.33,0 67.9,5.58 97.65,16.75 29.75,11.16 55.41,27.19 77.14,48.11 21.61,20.8 38.58,45.98 50.75,75.61 12.08,29.66 18.07,62.95 18.07,99.38 0,36.54 -5.98,69.74 -18.07,99.38 -12.17,29.63 -29.15,54.9 -50.75,75.73 -21.72,20.89 -47.39,36.83 -77.14,47.99 -29.75,11.28 -62.32,16.75 -97.65,16.75 -35.22,0 -67.7,-5.47 -97.54,-16.75 -29.75,-11.16 -55.41,-27.1 -77.14,-47.99 -21.61,-20.83 -38.58,-46.09 -50.64,-75.73 -12.08,-29.63 -18.18,-62.84 -18.18,-99.38zm103.23 0c0,21.52 3.34,41.2 9.96,59.07 6.59,17.78 16.03,33.29 28.4,46.38 12.29,13.12 27.1,23.36 44.25,30.67 17.18,7.19 36.45,10.96 57.66,10.96 21.32,0 40.51,-3.77 57.77,-10.96 17.23,-7.31 31.97,-17.55 44.34,-30.67 12.29,-13.09 21.72,-28.6 28.43,-46.38 6.5,-17.87 9.84,-37.55 9.84,-59.07 0,-21 -3.34,-40.6 -9.84,-58.67 -6.7,-18.07 -16.14,-33.69 -28.43,-46.78 -12.37,-13 -27.1,-23.25 -44.34,-30.56 -17.26,-7.31 -36.45,-10.96 -57.77,-10.96 -21.2,0 -40.48,3.65 -57.66,10.96 -17.15,7.31 -31.97,17.55 -44.25,30.56 -12.37,13.09 -21.81,28.71 -28.4,46.78 -6.62,18.07 -9.96,37.66 -9.96,58.67z"/>
   <path class="fil0" d="M17281.33 4090.03l167.8 0c23.25,0 45.46,2.13 66.17,6.5 20.92,4.26 39.07,11.77 54.61,22.21 15.54,10.56 27.79,24.77 36.94,42.55 9.12,17.87 13.7,40.28 13.7,67.38 0,26.59 -4.26,49.03 -12.69,67.1 -8.52,18.07 -20.2,32.48 -35.1,43.24 -14.82,10.65 -32.48,18.27 -53,22.84 -20.4,4.55 -42.41,6.79 -66.29,6.79l-72.65 0 0 177.92 -99.49 0 0 -456.55zm99.49 193.46l66.38 0c8.83,0 17.46,-0.92 25.78,-2.65 8.23,-1.61 15.74,-4.55 22.33,-8.63 6.59,-4.06 11.88,-9.64 15.94,-16.75 4.06,-7.11 5.98,-16.03 5.98,-26.79 0,-11.68 -2.65,-20.92 -7.91,-28.02 -5.29,-7.11 -12.2,-12.57 -20.4,-16.54 -8.34,-3.74 -17.58,-6.27 -27.71,-7.39 -10.27,-0.92 -20,-1.52 -29.35,-1.52l-51.04 0 0 108.3z"/>
   <polygon class="fil0" points="17750.68,4090.03 18057.41,4090.03 18057.41,4183.02 17850.14,4183.02 17850.14,4267.95 18045.85,4267.95 18045.85,4360.94 17850.14,4360.94 17850.14,4453.7 18068.87,4453.7 18068.87,4546.58 17750.68,4546.58 "/>
   <path class="fil0" d="M18212.32 4090.03l174.67 0c23.05,0 44.77,2.33 65.48,6.79 20.49,4.49 38.55,12.08 54.09,22.64 15.54,10.47 27.82,24.66 37.06,42.44 9.12,17.87 13.58,40.19 13.58,66.78 0,32.28 -8.2,59.67 -24.77,82.23 -16.63,22.53 -40.8,36.83 -72.65,42.93l114.68 192.74 -119.17 0 -94.37 -182.5 -49.14 0 0 182.5 -99.46 0 0 -456.55zm99.46 189l58.67 0c8.95,0 18.47,-0.4 28.43,-1.01 9.96,-0.63 18.99,-2.56 27.1,-5.81 8.03,-3.22 14.7,-8.2 20.08,-15.11 5.29,-6.91 7.94,-16.54 7.94,-29.03 0,-11.68 -2.36,-20.92 -7.02,-27.82 -4.66,-6.79 -10.65,-12.08 -17.87,-15.74 -7.19,-3.65 -15.54,-6.07 -24.86,-7.39 -9.35,-1.32 -18.47,-1.93 -27.42,-1.93l-65.05 0 0 103.84z"/>
  </g>
 </g>
</svg>
