<?xml version="1.0" encoding="UTF-8"?>
<!DOCTYPE svg PUBLIC "-//W3C//DTD SVG 1.1//EN" "http://www.w3.org/Graphics/SVG/1.1/DTD/svg11.dtd">
<!-- Creator: CorelDRAW (Evaluation Version) -->
<svg xmlns="http://www.w3.org/2000/svg" xml:space="preserve" width="125mm" height="65mm" version="1.1" style="shape-rendering:geometricPrecision; text-rendering:geometricPrecision; image-rendering:optimizeQuality; fill-rule:evenodd; clip-rule:evenodd"
viewBox="0 0 37583.04 19543.18"
 xmlns:xlink="http://www.w3.org/1999/xlink"
 xmlns:xodm="http://www.corel.com/coreldraw/odm/2003">
 <defs>
  <style type="text/css">
   <![CDATA[
    .fil0 {fill:#FEFEFE}
    .fil2 {fill:#FEFEFE;fill-rule:nonzero}
    .fil3 {fill:#51B17A;fill-rule:nonzero}
    .fil5 {fill:#369AA6;fill-rule:nonzero}
    .fil1 {fill:#299C5C;fill-rule:nonzero}
    .fil4 {fill:#158591;fill-rule:nonzero}
   ]]>
  </style>
 </defs>
 <g id="Layer_x0020_1">
  <metadata id="CorelCorpID_0Corel-Layer"/>
  <rect class="fil0" x="-0.03" width="37583.04" height="19543.18" rx="757.09" ry="751.65"/>
  <g id="_1881802611584">
   <polygon class="fil1" points="16912.31,17288.2 1879.15,17288.2 1879.15,6278.26 16912.31,6278.26 "/>
   <path class="fil2" d="M2875.91 12742.22c-10.61,-13.11 -23.69,-24.26 -39.03,-32.89 -15.33,-8.93 -34.04,-13.38 -56.31,-13.38 -20.93,0 -39.33,4.45 -54.63,13.38 -15.33,8.63 -23.15,21.74 -23.15,38.76 0,13.65 4.45,24.8 13.11,33.43 8.9,8.66 19.51,15.33 31.48,20.63 12.27,5.32 25.38,9.2 39.03,11.73 13.68,2.5 25.65,5.02 35.42,6.98 18.94,4.72 36.8,10.31 53.52,16.72 16.72,6.4 31.24,15.06 43.21,25.65 12.27,10.31 21.74,23.12 28.71,38.18 6.98,15.06 10.31,33.46 10.31,55.2 0,26.19 -5.56,48.77 -16.72,67.47 -11.15,18.67 -25.65,33.7 -43.48,45.7 -17.59,11.7 -37.91,20.08 -60.49,25.38 -22.58,5.29 -45.16,7.79 -68.31,7.79 -38.76,0 -72.49,-5.83 -101.74,-17.56 -29.28,-11.97 -55.2,-33.43 -78.05,-64.94l66.9 -55.2c14.22,14.49 30.4,27.33 47.96,38.49 17.83,11.15 39.57,16.72 64.94,16.72 11.15,0 22.58,-1.11 34.01,-3.34 11.43,-2.53 21.74,-6.13 30.4,-10.88 8.93,-5.02 16.18,-11.15 21.74,-18.67 5.56,-7.52 8.36,-16.45 8.36,-26.22 0,-13.08 -4.18,-23.69 -12.27,-32.32 -8.09,-8.63 -18.1,-15.33 -29.56,-20.08 -11.43,-5.02 -23.69,-8.9 -36.5,-11.97 -12.54,-3.07 -23.99,-5.29 -33.73,-7.25 -18.97,-4.75 -37.07,-9.77 -54.09,-15.63 -16.99,-5.83 -32.32,-13.92 -45.43,-23.69 -13.11,-9.74 -23.42,-22.28 -31.51,-37.34 -7.79,-15.33 -11.7,-34.01 -11.7,-56.04 0,-24.23 5.02,-45.43 15.33,-63.56 10.31,-18.1 23.69,-32.89 40.41,-44.59 16.75,-12 35.69,-20.9 56.89,-26.76 21.47,-5.86 42.9,-8.93 64.37,-8.93 31.51,0 61.91,5.86 90.62,17.86 28.71,11.7 51.83,31.48 68.85,59.08l-68.85 52.14zm211.28 -347.33l244.77 0c44.59,0 81.39,6.13 110.1,18.37 28.98,12 51.83,27.6 68.58,46.3 16.72,18.67 28.41,39.57 34.85,62.72 6.4,23.12 9.74,45.7 9.74,67.44 0,22.31 -3.91,43.78 -11.7,64.4 -7.82,20.63 -19.24,39.3 -34.01,56.04 -14.79,16.72 -32.62,30.94 -54.09,42.36 -21.2,11.43 -44.89,18.4 -71.38,21.2l197.93 317.5 -118.19 0 -177 -306.92 -105.11 0 0 306.92 -94.5 0 0 -696.34zm94.5 306.92l123.78 0c18.4,0 36.5,-1.41 54.63,-4.48 18.13,-3.07 34.01,-8.36 48.23,-16.18 14.22,-7.79 25.38,-18.94 33.73,-33.7 8.63,-14.79 12.81,-34.04 12.81,-57.73 0,-23.69 -4.18,-42.63 -12.81,-57.43 -8.36,-14.76 -19.51,-26.19 -33.73,-34.01 -14.22,-8.09 -30.1,-13.38 -48.23,-16.15 -18.13,-3.07 -36.23,-4.48 -54.63,-4.48l-123.78 0 0 224.15zm1099.17 0l0 343.15c-17.02,10.58 -36.23,19.78 -58,27.6 -21.47,7.79 -44.05,14.49 -67.44,20.05 -23.15,5.59 -46.84,9.77 -70.81,12.27 -23.69,2.8 -46.27,4.18 -67.2,4.18 -59.08,0 -111.79,-9.74 -158.06,-29.53 -46,-19.81 -85.03,-46.27 -116.81,-79.74 -31.78,-33.46 -56.01,-72.19 -72.73,-116.54 -16.75,-44.32 -25.11,-90.86 -25.11,-140.2 0,-51.86 8.93,-100.09 27.03,-144.41 18.13,-44.59 42.93,-83.34 74.72,-115.97 31.78,-32.89 69.96,-58.54 114.58,-77.21 44.59,-18.67 93.39,-28.17 146.63,-28.17 64.1,0 116.51,8.09 157.22,24.26 40.71,15.91 74.72,37.91 102.32,66.06l-66.93 71.95c-28.71,-27.6 -59.35,-46.57 -91.43,-57.43 -32.05,-10.88 -65.79,-16.45 -101.17,-16.45 -40.14,0 -76.4,7.52 -108.45,22.28 -32.05,14.79 -59.38,34.58 -82.5,59.38 -22.88,24.8 -40.44,54.36 -52.98,88.09 -12.54,33.73 -18.67,69.69 -18.67,107.61 0,39.3 6.98,76.1 20.63,109.83 13.65,33.73 32.62,62.99 56.86,87.79 24.26,24.83 52.98,44.35 85.6,58.54 32.89,14.22 68.58,21.2 107.31,21.2 33.46,0 64.97,-3.07 94.8,-9.2 29.83,-6.4 55.47,-15.33 76.37,-27.33l0 -193.72 -154.42 0 0 -88.37 248.65 0zm172.28 -306.92l241.97 0c30.1,0 57.97,3.61 83.92,10.85 25.92,7.25 48.23,17.86 66.9,32.05 18.67,14.22 33.43,32.08 44.32,54.09 10.88,22.04 16.18,47.69 16.18,77.21 0,39.87 -11.15,72.49 -33.46,97.87 -22.31,25.35 -50.99,43.75 -86.41,55.47l0 1.95c20.9,1.38 40.71,6.67 58.81,16.15 18.4,9.5 34.31,22.04 47.69,37.37 13.65,15.33 24.23,33.43 32.05,53.79 8.09,20.35 12,42.09 12,65.79 0,31.51 -6.43,59.11 -19.24,83.07 -12.84,23.99 -30.4,44.05 -52.68,60.49 -22.31,16.45 -48.23,28.71 -77.78,37.37 -29.28,8.63 -61.06,12.81 -95.34,12.81l-238.91 0 0 -696.34zm94.5 289.06l128.8 0c17.56,0 34.28,-1.65 49.88,-5.29 15.91,-3.61 29.56,-9.47 41.28,-18.13 11.97,-8.63 21.17,-19.21 28.14,-32.32 6.98,-13.11 10.58,-29.28 10.58,-48.23 0,-27.6 -8.9,-51.56 -26.76,-71.92 -17.56,-20.35 -45.43,-30.4 -83.61,-30.4l-148.32 0 0 206.29zm0 324.78l138.55 0c14.49,0 30.4,-1.41 47.69,-4.48 17.56,-3.07 33.73,-8.9 48.77,-17.56 15.06,-8.93 27.87,-20.9 38.18,-35.96 10.61,-15.33 15.91,-35.39 15.91,-60.22 0,-41.25 -13.38,-72.19 -40.41,-92.82 -26.79,-20.63 -63.02,-30.94 -109.02,-30.94l-139.66 0 0 241.97zm572.31 -259.83c-17.56,0 -32.89,-6.4 -45.7,-18.94 -12.57,-12.81 -18.97,-28.14 -18.97,-46 0,-17.56 6.4,-32.89 18.97,-45.43 12.81,-12.84 28.14,-19.24 45.7,-19.24 17.83,0 33.16,6.4 45.73,19.24 12.81,12.54 19.21,27.87 19.21,45.43 0,17.86 -6.4,33.19 -19.21,46 -12.57,12.54 -27.9,18.94 -45.73,18.94zm-64.67 283.23c0,-17.56 6.4,-32.89 18.97,-45.7 12.81,-12.84 28.14,-19.24 45.7,-19.24 17.83,0 33.16,6.4 45.73,19.24 12.81,12.81 19.21,28.14 19.21,45.7 0,17.86 -6.4,33.19 -19.21,46 -12.57,12.54 -27.9,18.97 -45.73,18.97 -17.56,0 -32.89,-6.43 -45.7,-18.97 -12.57,-12.81 -18.97,-28.14 -18.97,-46zm508.45 -289.06c0,-25.38 1.38,-51.86 3.88,-79.47 2.53,-27.6 7.25,-54.9 14.22,-81.39 6.98,-26.49 16.18,-51.83 27.6,-76.1 11.43,-24.26 26.22,-45.43 44.32,-63.56 18.13,-18.13 39.33,-32.35 63.86,-43.21 24.5,-10.88 53.22,-16.18 86.11,-16.18 32.62,0 61.34,5.29 85.87,16.18 24.8,10.85 46,25.08 64.13,43.21 18.1,18.13 32.59,39.3 44.02,63.56 11.46,24.26 20.66,49.61 27.6,76.1 6.98,26.49 11.73,53.79 14.22,81.39 2.8,27.6 4.18,54.09 4.18,79.47 0,36.8 -3.34,76.1 -10.01,118.19 -6.43,41.82 -18.7,80.85 -36.53,116.81 -17.56,35.96 -42.09,65.79 -73.33,89.48 -30.94,23.69 -71.08,35.39 -120.15,35.39 -49.34,0 -89.48,-11.7 -120.69,-35.39 -30.94,-23.69 -55.47,-53.52 -73.03,-89.48 -17.56,-35.96 -29.83,-74.99 -36.53,-116.81 -6.4,-42.09 -9.74,-81.39 -9.74,-118.19zm94.5 0c0,23.12 1.38,50.18 4.18,81.66 3.07,31.51 9.47,61.61 19.21,90.89 9.77,29.25 24.53,54.09 43.78,74.41 19.24,20.35 45.43,30.4 78.32,30.4 32.62,0 58.84,-10.04 78.05,-30.4 19.24,-20.32 34.04,-45.16 43.78,-74.41 9.77,-29.28 16.18,-59.38 19.24,-90.89 3.07,-31.48 4.45,-58.54 4.45,-81.66 0,-15.91 -0.54,-33.73 -1.65,-53.52 -0.84,-20.08 -3.37,-40.44 -6.98,-61.06 -3.64,-20.63 -8.66,-40.71 -15.06,-59.92 -6.4,-19.24 -15.33,-36.8 -26.19,-52.14 -10.88,-15.33 -23.99,-27.6 -39.87,-36.8 -15.6,-9.2 -34.31,-13.92 -55.77,-13.92 -21.74,0 -40.41,4.72 -56.28,13.92 -15.63,9.2 -28.71,21.47 -39.6,36.8 -10.88,15.33 -19.51,32.89 -26.22,52.14 -6.4,19.21 -11.7,39.3 -15.3,59.92 -3.64,20.63 -5.86,40.98 -6.7,61.06 -0.84,19.78 -1.38,37.61 -1.38,53.52zm546.67 478.09l-80.85 0 68.01 -241.97 95.34 0 -82.5 241.97zm411.16 -718.11l-127.96 118.19 -55.2 -66.06 193.75 -160.28 83.64 0 0 696.34 -94.23 0 0 -588.19zm326.16 487.83l279.32 -277.36c9.77,-9.2 19.24,-18.94 28.44,-29.83 9.2,-10.88 17.56,-22.04 24.53,-33.73 7.25,-12 13.11,-24.53 17.29,-37.64 4.18,-13.08 6.4,-27.03 6.4,-41.25 0,-16.99 -3.07,-32.62 -9.47,-46.27 -6.13,-13.65 -14.52,-25.38 -25.38,-34.85 -10.88,-9.47 -23.69,-16.72 -38.49,-22.01 -14.76,-5.29 -30.1,-8.09 -46.54,-8.09 -34.01,0 -62.18,9.47 -84.46,28.71 -22.31,18.94 -36.53,45.16 -42.39,78.59l-102.29 -8.9c4.72,-30.94 13.65,-57.43 27.03,-80.01 13.38,-22.58 30.1,-41.55 50.18,-56.59 20.08,-15.33 42.93,-26.49 68.85,-33.46 25.92,-7.25 53.82,-10.88 83.92,-10.88 30.37,0 58.81,4.21 85.3,12.27 26.49,8.09 49.91,20.35 69.69,36.53 20.05,15.88 35.69,35.96 47.11,59.92 11.43,23.69 17.29,51.86 17.29,83.92 0,23.15 -3.37,44.62 -10.31,64.67 -6.98,19.78 -15.91,38.76 -27.06,56.31 -11.15,17.56 -23.96,34.28 -38.45,50.18 -14.22,15.88 -29.28,31.21 -45.16,46.27l-229.17 221.35 350.15 0 0 82.5 -456.35 0 0 -100.36zm831.85 -169.21l-3.91 0c-21.47,10.61 -47.11,15.91 -76.67,15.91 -24.8,0 -50.18,-4.18 -75.83,-12.84 -25.35,-8.63 -48.5,-21.74 -69.12,-39.84 -20.63,-18.13 -37.64,-40.98 -50.72,-68.88 -13.11,-27.87 -19.81,-60.76 -19.81,-98.68 0,-38.18 6.43,-71.65 19.24,-100.9 12.84,-29.28 30.1,-53.52 51.56,-73.3 21.77,-19.81 47.11,-34.58 75.83,-44.62 28.71,-10.31 59.65,-15.33 92.54,-15.33 32.62,0 63.56,5.29 92.27,15.91 29.01,10.31 54.36,25.35 75.83,45.16 21.47,19.78 38.76,43.21 51.56,70.81 12.84,27.57 19.24,58.24 19.24,92.27 0,21.74 -1.65,41.52 -5.02,59.08 -3.07,17.56 -7.79,34.58 -14.22,50.75 -6.13,15.88 -13.38,31.75 -22.01,47.66 -8.63,15.6 -18.13,31.78 -28.44,48.23l-176.16 278.2 -111.25 0 175.08 -269.58zm87.52 -211.31c0,-20.9 -3.34,-40.41 -10.31,-57.97 -6.98,-17.56 -16.72,-32.89 -29.56,-45.73 -12.54,-12.81 -27.87,-22.85 -45.7,-30.1 -17.56,-7.25 -37.37,-10.85 -58.84,-10.85 -21.74,0 -41.52,3.61 -59.08,10.85 -17.56,7.25 -32.89,17.29 -45.73,30.1 -12.81,12.84 -22.58,28.17 -29.53,45.73 -6.98,17.56 -10.34,37.07 -10.34,57.97 0,20.93 3.37,40.44 10.34,58 6.95,17.56 16.72,32.89 29.53,45.73 12.84,12.81 28.17,22.85 45.73,30.1 17.56,6.98 37.34,10.58 59.08,10.58 21.47,0 41.28,-3.61 58.84,-10.58 17.83,-7.25 33.16,-17.29 45.7,-30.1 12.84,-12.84 22.58,-28.17 29.56,-45.73 6.98,-17.56 10.31,-37.07 10.31,-58zm256.77 610.8l-80.85 0 68.01 -241.97 95.34 0 -82.5 241.97zm411.13 -718.11l-127.96 118.19 -55.2 -66.06 193.75 -160.28 83.64 0 0 696.34 -94.23 0 0 -588.19zm611.34 434.88l-296.88 0 0 -96.45 277.36 -446.58 114.01 0 0 460.23 98.41 0 0 82.8 -98.41 0 0 153.31 -94.5 0 0 -153.31zm0 -430.97l-1.95 0 -212.42 348.17 214.37 0 0 -348.17zm361.01 414.23c11.15,33.46 25.92,58.27 44.59,74.72 18.7,16.45 46.57,24.53 83.07,24.53 18.4,0 35.69,-3.07 51.59,-9.2 16.15,-6.4 30.37,-14.76 42.9,-25.65 12.57,-10.88 22.31,-23.96 29.56,-39.3 7.25,-15.33 10.88,-32.62 10.88,-51.86 0,-28.71 -6.13,-51.83 -18.4,-69.12 -12,-17.56 -27.6,-30.67 -46.84,-39.3 -18.94,-8.93 -39.87,-14.79 -62.99,-17.29 -22.85,-2.53 -45.43,-3.91 -67.74,-3.91l0 -82.8c36.23,0 65.79,-2.5 88.64,-7.25 22.88,-4.72 40.98,-11.7 54.09,-20.9 13.11,-9.2 22.31,-20.93 27.6,-34.58 5.29,-13.65 7.79,-29.25 7.79,-46.27 0,-37.34 -11.12,-65.51 -33.43,-84.46 -22.31,-19.24 -50.18,-28.71 -83.64,-28.71 -25.35,0 -48.5,7.52 -69.39,22.31 -20.63,14.76 -36.26,34.01 -46.57,58.24l-96.45 -32.32c18.4,-44.62 46.57,-77.51 84.19,-98.68 37.64,-21.47 79.74,-32.08 126.28,-32.08 28.17,0 55.2,3.91 81.12,11.46 25.95,7.52 48.8,18.94 68.31,34.85 19.78,15.6 35.42,35.39 46.84,59.35 11.43,23.99 17.26,52.14 17.26,84.19 0,36.53 -11.12,69.42 -33.16,98.41 -22.01,28.71 -50.45,48.53 -85.84,58.84l0 1.92c21.44,3.91 40.95,11.15 57.97,21.77 17.02,10.31 31.51,23.39 43.21,39.3 12,15.88 20.63,33.46 26.49,52.68 5.86,19.24 8.93,39.87 8.93,61.34 0,33.46 -6.43,62.72 -19.24,88.09 -12.54,25.38 -29.56,46.27 -51.02,62.99 -21.47,16.75 -46,29.28 -73.87,37.91 -27.87,8.36 -57.13,12.54 -87.79,12.54 -53.25,0 -99.82,-11.97 -140.23,-36.23 -40.41,-24.26 -68.31,-62.72 -84.19,-115.12l99.52 -30.4z"/>
   <path class="fil2" d="M2650.66 13575l94.5 0 0 289.06 360.74 0 0 -289.06 94.5 0 0 696.34 -94.5 0 0 -318.61 -360.74 0 0 318.61 -94.5 0 0 -696.34zm728.69 0l449.37 0 0 88.64 -354.87 0 0 207.4 330.34 0 0 88.64 -330.34 0 0 223.03 372.7 0 0 88.64 -467.2 0 0 -696.34zm762.12 330.61l-234.16 -330.61 120.99 0 180.91 267.59 178.99 -267.59 117.92 0 -231.93 329.5 255.62 366.84 -123.78 0 -199.88 -301.9 -200.42 301.9 -117.08 0 252.83 -365.73zm522.98 23.39c-17.56,0 -32.89,-6.4 -45.7,-18.94 -12.57,-12.81 -18.97,-28.14 -18.97,-46 0,-17.56 6.4,-32.89 18.97,-45.43 12.81,-12.84 28.14,-19.24 45.7,-19.24 17.83,0 33.16,6.4 45.73,19.24 12.81,12.54 19.21,27.87 19.21,45.43 0,17.86 -6.4,33.19 -19.21,46 -12.57,12.54 -27.9,18.94 -45.73,18.94zm-64.67 283.23c0,-17.56 6.4,-32.89 18.97,-45.7 12.81,-12.84 28.14,-19.24 45.7,-19.24 17.83,0 33.16,6.4 45.73,19.24 12.81,12.81 19.21,28.14 19.21,45.7 0,17.86 -6.4,33.19 -19.21,46 -12.57,12.54 -27.9,18.97 -45.73,18.97 -17.56,0 -32.89,-6.43 -45.7,-18.97 -12.57,-12.81 -18.97,-28.14 -18.97,-46zm592.91 -141.61l-93.39 0 0 -76.64 104.24 0 19.81 -141.61 -93.39 0 0 -76.67 104.24 0 27.33 -200.69 77.78 0 -27.6 200.69 114.01 0 27.6 -200.69 77.78 0 -27.6 200.69 93.39 0 0 76.67 -104.27 0 -19.51 141.61 93.39 0 0 76.64 -104.24 0 -27.6 200.72 -77.78 0 27.6 -200.72 -114.01 0 -27.6 200.72 -77.51 0 27.33 -200.72zm108.15 -218.25l-19.51 141.61 114.01 0 19.81 -141.61 -114.31 0zm365.76 318.61l279.32 -277.36c9.77,-9.2 19.24,-18.94 28.44,-29.83 9.2,-10.88 17.56,-22.04 24.53,-33.73 7.25,-12 13.11,-24.53 17.29,-37.64 4.18,-13.08 6.4,-27.03 6.4,-41.25 0,-16.99 -3.07,-32.62 -9.47,-46.27 -6.13,-13.65 -14.52,-25.38 -25.38,-34.85 -10.88,-9.47 -23.69,-16.72 -38.49,-22.01 -14.76,-5.29 -30.1,-8.09 -46.54,-8.09 -34.01,0 -62.18,9.47 -84.46,28.71 -22.31,18.94 -36.53,45.16 -42.39,78.59l-102.29 -8.9c4.72,-30.94 13.65,-57.43 27.03,-80.01 13.38,-22.58 30.1,-41.55 50.18,-56.59 20.08,-15.33 42.93,-26.49 68.85,-33.46 25.92,-7.25 53.82,-10.88 83.92,-10.88 30.37,0 58.81,4.21 85.3,12.27 26.49,8.09 49.91,20.35 69.69,36.53 20.05,15.88 35.69,35.96 47.11,59.92 11.43,23.69 17.29,51.86 17.29,83.92 0,23.15 -3.37,44.62 -10.31,64.67 -6.98,19.78 -15.91,38.76 -27.06,56.31 -11.15,17.56 -23.96,34.28 -38.45,50.18 -14.22,15.88 -29.28,31.21 -45.16,46.27l-229.17 221.35 350.15 0 0 82.5 -456.35 0 0 -100.36zm767.18 -487.83l-127.96 118.19 -55.2 -66.06 193.75 -160.28 83.64 0 0 696.34 -94.23 0 0 -588.19zm611.34 318.61l-3.91 0c-21.47,10.61 -47.11,15.91 -76.67,15.91 -24.8,0 -50.18,-4.18 -75.83,-12.84 -25.35,-8.63 -48.5,-21.74 -69.12,-39.84 -20.63,-18.13 -37.64,-40.98 -50.72,-68.88 -13.11,-27.87 -19.81,-60.76 -19.81,-98.68 0,-38.18 6.43,-71.65 19.24,-100.9 12.84,-29.28 30.1,-53.52 51.56,-73.3 21.77,-19.81 47.11,-34.58 75.83,-44.62 28.71,-10.31 59.65,-15.33 92.54,-15.33 32.62,0 63.56,5.29 92.27,15.91 29.01,10.31 54.36,25.35 75.83,45.16 21.47,19.78 38.76,43.21 51.56,70.81 12.84,27.57 19.24,58.24 19.24,92.27 0,21.74 -1.65,41.52 -5.02,59.08 -3.07,17.56 -7.79,34.58 -14.22,50.75 -6.13,15.88 -13.38,31.75 -22.01,47.66 -8.63,15.6 -18.13,31.78 -28.44,48.23l-176.16 278.2 -111.25 0 175.08 -269.58zm87.52 -211.31c0,-20.9 -3.34,-40.41 -10.31,-57.97 -6.98,-17.56 -16.72,-32.89 -29.56,-45.73 -12.54,-12.81 -27.87,-22.85 -45.7,-30.1 -17.56,-7.25 -37.37,-10.85 -58.84,-10.85 -21.74,0 -41.52,3.61 -59.08,10.85 -17.56,7.25 -32.89,17.29 -45.73,30.1 -12.81,12.84 -22.58,28.17 -29.53,45.73 -6.98,17.56 -10.34,37.07 -10.34,57.97 0,20.93 3.37,40.44 10.34,58 6.95,17.56 16.72,32.89 29.53,45.73 12.84,12.81 28.17,22.85 45.73,30.1 17.56,6.98 37.34,10.58 59.08,10.58 21.47,0 41.28,-3.61 58.84,-10.58 17.83,-7.25 33.16,-17.29 45.7,-30.1 12.84,-12.84 22.58,-28.17 29.56,-45.73 6.98,-17.56 10.31,-37.07 10.31,-58zm218.28 -215.46l241.97 0c30.1,0 57.97,3.61 83.92,10.85 25.92,7.25 48.23,17.86 66.9,32.05 18.67,14.22 33.43,32.08 44.32,54.09 10.88,22.04 16.18,47.69 16.18,77.21 0,39.87 -11.15,72.49 -33.46,97.87 -22.31,25.35 -50.99,43.75 -86.41,55.47l0 1.95c20.9,1.38 40.71,6.67 58.81,16.15 18.4,9.5 34.31,22.04 47.69,37.37 13.65,15.33 24.23,33.43 32.05,53.79 8.09,20.35 12,42.09 12,65.79 0,31.51 -6.43,59.11 -19.24,83.07 -12.84,23.99 -30.4,44.05 -52.68,60.49 -22.31,16.45 -48.23,28.71 -77.78,37.37 -29.28,8.63 -61.06,12.81 -95.34,12.81l-238.91 0 0 -696.34zm94.5 289.06l128.8 0c17.56,0 34.28,-1.65 49.88,-5.29 15.91,-3.61 29.56,-9.47 41.28,-18.13 11.97,-8.63 21.17,-19.21 28.14,-32.32 6.98,-13.11 10.58,-29.28 10.58,-48.23 0,-27.6 -8.9,-51.56 -26.76,-71.92 -17.56,-20.35 -45.43,-30.4 -83.61,-30.4l-148.32 0 0 206.29zm0 324.78l138.55 0c14.49,0 30.4,-1.41 47.69,-4.48 17.56,-3.07 33.73,-8.9 48.77,-17.56 15.06,-8.93 27.87,-20.9 38.18,-35.96 10.61,-15.33 15.91,-35.39 15.91,-60.22 0,-41.25 -13.38,-72.19 -40.41,-92.82 -26.79,-20.63 -63.02,-30.94 -109.02,-30.94l-139.66 0 0 241.97zm898.99 -525.2l-282.35 0 -2.77 173.93c4.45,-1.95 10.85,-3.88 19.51,-5.83 8.63,-1.95 17.26,-3.64 25.92,-5.02 8.93,-1.41 17.56,-2.22 26.19,-2.8 8.66,-0.84 15.91,-1.11 21.77,-1.11 32.59,0 62.42,5.56 88.88,16.72 26.49,11.15 49.34,27.06 68.31,47.38 18.94,20.35 33.43,44.62 43.75,72.76 10.31,28.17 15.33,59.11 15.33,93.39 0,34.85 -6.4,66.36 -19.21,94.5 -12.84,28.17 -30.4,52.41 -52.71,72.76 -22.31,20.35 -48.23,35.69 -77.75,46.57 -29.25,10.85 -61.03,16.15 -95.31,16.15 -47.11,0 -89.78,-11.97 -127.96,-36.23 -37.91,-24.26 -64.94,-59.08 -81.39,-104.24l95.31 -32.62c12.57,32.05 29.28,55.2 50.18,69.39 20.93,14.22 47.11,21.2 78.62,21.2 18.4,0 35.96,-3.34 52.68,-9.74 16.75,-6.7 31.24,-16.18 43.18,-28.17 12.27,-12 22.04,-27.03 29.01,-44.59 7.25,-17.86 10.85,-37.91 10.85,-60.22 0,-51.02 -15.6,-89.21 -46.78,-114.28 -30.97,-25.38 -71.38,-37.91 -121.29,-37.91 -17.56,0 -40.14,3.07 -67.44,9.47 -27.06,6.13 -52.41,15.06 -76.1,26.76l7.79 -366.84 373.79 0 0 88.64zm356.83 619.4c-31.48,0 -61.31,-4.72 -89.18,-14.19 -27.6,-9.5 -51.86,-23.42 -72.22,-41.82 -20.35,-18.4 -36.23,-40.71 -48.23,-66.9 -11.7,-26.22 -17.56,-55.77 -17.56,-88.37 0,-21.77 3.34,-41.82 10.31,-59.95 6.98,-18.4 16.18,-34.85 27.87,-49.61 12,-14.79 25.95,-27.33 41.82,-37.37 16.18,-10.31 33.73,-17.83 52.68,-23.12l0 -3.07c-13.08,-3.34 -26.19,-9.2 -39.3,-17.56 -13.11,-8.66 -24.8,-19.51 -35.12,-32.62 -10.04,-13.11 -18.4,-28.98 -25.11,-47.66 -6.4,-18.7 -9.74,-40.17 -9.74,-64.4 0,-26.22 5.29,-49.91 16.18,-71.38 10.85,-21.47 25.65,-39.57 44.32,-54.63 18.67,-15.06 40.41,-26.76 64.94,-34.85 24.8,-8.09 50.75,-12.27 78.32,-12.27 27.6,0 53.55,4.18 78.05,12.27 24.53,8.09 46.3,19.78 64.97,34.85 18.67,15.06 33.43,33.16 44.32,54.63 10.88,21.47 16.18,45.16 16.18,71.38 0,24.23 -3.37,45.7 -10.04,64.4 -6.4,18.67 -14.76,34.55 -25.11,47.66 -10.01,13.11 -21.74,23.96 -34.82,32.62 -13.11,8.36 -26.22,14.22 -39.33,17.56l0 3.07c19.24,5.29 36.8,12.81 52.71,23.12 16.15,10.04 30.1,22.58 41.79,37.37 12,14.76 21.2,31.21 28.17,49.61 6.98,18.13 10.31,38.18 10.31,59.95 0,32.59 -5.86,62.15 -17.86,88.37 -11.7,26.19 -27.87,48.5 -48.23,66.9 -20.32,18.4 -44.32,32.32 -72.19,41.82 -27.87,9.47 -57.43,14.19 -88.94,14.19zm-109.26 -532.99c0,13.65 2.5,27.33 7.25,40.41 5.02,13.11 12,24.53 21.2,34.85 9.2,10.31 20.63,18.7 34.01,25.11 13.38,6.4 28.98,9.74 46.81,9.74 18.4,0 34.31,-3.07 47.69,-9.2 13.38,-6.4 24.53,-14.49 33.73,-24.5 9.2,-10.34 16.15,-21.77 20.63,-34.85 4.72,-13.11 6.98,-27.06 6.98,-41.55 0,-32.05 -10.04,-58.54 -30.13,-79.16 -19.78,-20.63 -46.27,-30.94 -78.89,-30.94 -30.37,0 -56.01,10.31 -77.48,30.67 -21.2,20.35 -31.78,46.81 -31.78,79.44zm109.26 450.49c39.33,0 71.11,-12 95.64,-35.96 24.8,-23.96 37.07,-54.93 37.07,-92.82 0,-20.93 -3.37,-39.6 -10.31,-55.5 -6.98,-16.15 -16.45,-29.53 -28.71,-40.41 -12,-10.85 -26.22,-18.94 -42.09,-24.53 -15.91,-5.56 -33.19,-8.36 -51.59,-8.36 -38.73,0.57 -70.51,12.84 -95.61,36.8 -24.8,23.96 -37.34,54.63 -37.34,92 0,20.32 3.61,38.45 10.85,54.63 7.28,15.88 17.02,29.25 29.01,40.14 12.27,10.85 26.49,19.24 42.36,25.08 15.88,5.86 32.89,8.93 50.72,8.93z"/>
   <path class="fil2" d="M3135.42 14905.59c-19.78,-25.65 -44.59,-45.43 -74.69,-59.08 -30.13,-13.68 -61.34,-20.63 -93.39,-20.63 -39.33,0 -74.99,7.52 -106.77,22.28 -31.78,14.79 -59.11,34.85 -81.69,60.49 -22.58,25.38 -39.87,55.47 -52.41,90.05 -12.54,34.28 -18.67,71.08 -18.67,110.37 0,36.8 5.86,71.65 17.56,104.54 12,32.62 28.98,61.61 51.29,86.44 22.31,24.8 49.34,44.59 81.39,59.08 32.05,14.22 68.58,21.47 109.29,21.47 39.87,0 74.99,-8.09 105.08,-24.53 30.4,-16.45 56.04,-39.3 76.94,-68.85l79.44 59.92c-5.29,7.25 -14.49,17.59 -27.57,30.97 -13.11,13.38 -30.4,26.76 -52.14,40.41 -21.47,13.38 -47.69,25.08 -78.05,35.39 -30.4,10.31 -65.79,15.33 -105.65,15.33 -54.93,0 -104.81,-10.58 -149.13,-31.48 -44.35,-20.93 -81.96,-48.53 -113.2,-82.53 -30.94,-34.28 -54.63,-72.76 -71.08,-115.67 -16.45,-42.93 -24.53,-86.44 -24.53,-130.49 0,-53.79 8.93,-103.4 26.49,-148.86 17.56,-45.43 42.36,-84.73 74.14,-117.89 32.05,-33.19 70.27,-59.11 114.58,-77.24 44.59,-18.4 93.93,-27.6 147.75,-27.6 46,0 90.86,8.93 135.18,26.49 44.35,17.56 80.31,44.89 108.45,81.69l-78.62 59.92zm200.72 -150.51l140.8 0 221.32 527.12 3.91 0 219.09 -527.12 140.8 0 0 696.34 -94.5 0 0 -572.31 -1.95 0 -235 572.31 -63.02 0 -235 -572.31 -1.95 0 0 572.31 -94.5 0 0 -696.34zm1062.1 399.46l-263.44 -399.46 120.99 0 189.84 305.78 195.7 -305.78 114.85 0 -263.44 399.46 0 296.88 -94.5 0 0 -296.88zm437.65 -399.46l94.5 0 0 301.06 7.82 0 307.76 -301.06 131.84 0 -336.47 321.68 359.05 374.66 -137.7 0 -324.48 -348.17 -7.82 0 0 348.17 -94.5 0 0 -696.34zm684.37 354c-17.56,0 -32.89,-6.4 -45.7,-18.94 -12.57,-12.81 -18.97,-28.14 -18.97,-46 0,-17.56 6.4,-32.89 18.97,-45.43 12.81,-12.84 28.14,-19.24 45.7,-19.24 17.83,0 33.16,6.4 45.73,19.24 12.81,12.54 19.21,27.87 19.21,45.43 0,17.86 -6.4,33.19 -19.21,46 -12.57,12.54 -27.9,18.94 -45.73,18.94zm-64.67 283.23c0,-17.56 6.4,-32.89 18.97,-45.7 12.81,-12.84 28.14,-19.24 45.7,-19.24 17.83,0 33.16,6.4 45.73,19.24 12.81,12.81 19.21,28.14 19.21,45.7 0,17.86 -6.4,33.19 -19.21,46 -12.57,12.54 -27.9,18.97 -45.73,18.97 -17.56,0 -32.89,-6.43 -45.7,-18.97 -12.57,-12.81 -18.97,-28.14 -18.97,-46zm748.44 70.81c-31.48,0 -61.31,-4.72 -89.18,-14.19 -27.6,-9.5 -51.86,-23.42 -72.22,-41.82 -20.35,-18.4 -36.23,-40.71 -48.23,-66.9 -11.7,-26.22 -17.56,-55.77 -17.56,-88.37 0,-21.77 3.34,-41.82 10.31,-59.95 6.98,-18.4 16.18,-34.85 27.87,-49.61 12,-14.79 25.95,-27.33 41.82,-37.37 16.18,-10.31 33.73,-17.83 52.68,-23.12l0 -3.07c-13.08,-3.34 -26.19,-9.2 -39.3,-17.56 -13.11,-8.66 -24.8,-19.51 -35.12,-32.62 -10.04,-13.11 -18.4,-28.98 -25.11,-47.66 -6.4,-18.7 -9.74,-40.17 -9.74,-64.4 0,-26.22 5.29,-49.91 16.18,-71.38 10.85,-21.47 25.65,-39.57 44.32,-54.63 18.67,-15.06 40.41,-26.76 64.94,-34.85 24.8,-8.09 50.75,-12.27 78.32,-12.27 27.6,0 53.55,4.18 78.05,12.27 24.53,8.09 46.3,19.78 64.97,34.85 18.67,15.06 33.43,33.16 44.32,54.63 10.88,21.47 16.18,45.16 16.18,71.38 0,24.23 -3.37,45.7 -10.04,64.4 -6.4,18.67 -14.76,34.55 -25.11,47.66 -10.01,13.11 -21.74,23.96 -34.82,32.62 -13.11,8.36 -26.22,14.22 -39.33,17.56l0 3.07c19.24,5.29 36.8,12.81 52.71,23.12 16.15,10.04 30.1,22.58 41.79,37.37 12,14.76 21.2,31.21 28.17,49.61 6.98,18.13 10.31,38.18 10.31,59.95 0,32.59 -5.86,62.15 -17.86,88.37 -11.7,26.19 -27.87,48.5 -48.23,66.9 -20.32,18.4 -44.32,32.32 -72.19,41.82 -27.87,9.47 -57.43,14.19 -88.94,14.19zm-109.26 -532.99c0,13.65 2.5,27.33 7.25,40.41 5.02,13.11 12,24.53 21.2,34.85 9.2,10.31 20.63,18.7 34.01,25.11 13.38,6.4 28.98,9.74 46.81,9.74 18.4,0 34.31,-3.07 47.69,-9.2 13.38,-6.4 24.53,-14.49 33.73,-24.5 9.2,-10.34 16.15,-21.77 20.63,-34.85 4.72,-13.11 6.98,-27.06 6.98,-41.55 0,-32.05 -10.04,-58.54 -30.13,-79.16 -19.78,-20.63 -46.27,-30.94 -78.89,-30.94 -30.37,0 -56.01,10.31 -77.48,30.67 -21.2,20.35 -31.78,46.81 -31.78,79.44zm109.26 450.49c39.33,0 71.11,-12 95.64,-35.96 24.8,-23.96 37.07,-54.93 37.07,-92.82 0,-20.93 -3.37,-39.6 -10.31,-55.5 -6.98,-16.15 -16.45,-29.53 -28.71,-40.41 -12,-10.85 -26.22,-18.94 -42.09,-24.53 -15.91,-5.56 -33.19,-8.36 -51.59,-8.36 -38.73,0.57 -70.51,12.84 -95.61,36.8 -24.8,23.96 -37.34,54.63 -37.34,92 0,20.32 3.61,38.45 10.85,54.63 7.28,15.88 17.02,29.25 29.01,40.14 12.27,10.85 26.49,19.24 42.36,25.08 15.88,5.86 32.89,8.93 50.72,8.93zm417.89 -99.25c11.15,33.46 25.92,58.27 44.59,74.72 18.7,16.45 46.57,24.53 83.07,24.53 18.4,0 35.69,-3.07 51.59,-9.2 16.15,-6.4 30.37,-14.76 42.9,-25.65 12.57,-10.88 22.31,-23.96 29.56,-39.3 7.25,-15.33 10.88,-32.62 10.88,-51.86 0,-28.71 -6.13,-51.83 -18.4,-69.12 -12,-17.56 -27.6,-30.67 -46.84,-39.3 -18.94,-8.93 -39.87,-14.79 -62.99,-17.29 -22.85,-2.53 -45.43,-3.91 -67.74,-3.91l0 -82.8c36.23,0 65.79,-2.5 88.64,-7.25 22.88,-4.72 40.98,-11.7 54.09,-20.9 13.11,-9.2 22.31,-20.93 27.6,-34.58 5.29,-13.65 7.79,-29.25 7.79,-46.27 0,-37.34 -11.12,-65.51 -33.43,-84.46 -22.31,-19.24 -50.18,-28.71 -83.64,-28.71 -25.35,0 -48.5,7.52 -69.39,22.31 -20.63,14.76 -36.26,34.01 -46.57,58.24l-96.45 -32.32c18.4,-44.62 46.57,-77.51 84.19,-98.68 37.64,-21.47 79.74,-32.08 126.28,-32.08 28.17,0 55.2,3.91 81.12,11.46 25.95,7.52 48.8,18.94 68.31,34.85 19.78,15.6 35.42,35.39 46.84,59.35 11.43,23.99 17.26,52.14 17.26,84.19 0,36.53 -11.12,69.42 -33.16,98.41 -22.01,28.71 -50.45,48.53 -85.84,58.84l0 1.92c21.44,3.91 40.95,11.15 57.97,21.77 17.02,10.31 31.51,23.39 43.21,39.3 12,15.88 20.63,33.46 26.49,52.68 5.86,19.24 8.93,39.87 8.93,61.34 0,33.46 -6.43,62.72 -19.24,88.09 -12.54,25.38 -29.56,46.27 -51.02,62.99 -21.47,16.75 -46,29.28 -73.87,37.91 -27.87,8.36 -57.13,12.54 -87.79,12.54 -53.25,0 -99.82,-11.97 -140.23,-36.23 -40.41,-24.26 -68.31,-62.72 -84.19,-115.12l99.52 -30.4zm633.08 200.45l-59.08 -30.4 437.65 -727.85 59.11 30.67 -437.68 727.58zm-194.56 -570.36c0,-24.26 4.45,-46.84 13.65,-67.74 9.2,-20.9 21.47,-39.3 37.34,-54.93 15.91,-15.88 34.01,-28.14 54.93,-37.34 20.9,-9.2 43.75,-13.95 68.01,-13.95 24.26,0 46.84,4.75 67.74,13.95 20.9,9.2 39.3,21.47 55.2,37.34 15.88,15.63 28.14,34.04 37.34,54.93 9.2,20.9 13.68,43.48 13.68,67.74 0,24.26 -4.48,47.11 -13.68,68.01 -9.2,20.93 -21.47,39.3 -37.34,55.2 -15.91,15.6 -34.31,28.14 -55.2,37.34 -20.9,9.2 -43.48,13.68 -67.74,13.68 -24.26,0 -47.11,-4.48 -68.01,-13.68 -20.93,-9.2 -39.03,-21.74 -54.93,-37.34 -15.88,-15.91 -28.14,-34.28 -37.34,-55.2 -9.2,-20.9 -13.65,-43.75 -13.65,-68.01zm76.64 0c0,27.6 9.2,50.72 27.87,69.42 18.7,18.67 41.82,27.87 69.42,27.87 27.6,0 50.45,-9.2 69.12,-27.87 18.7,-18.7 28.17,-41.82 28.17,-69.42 0,-27.6 -9.47,-50.45 -28.17,-69.12 -18.67,-18.7 -41.52,-28.17 -69.12,-28.17 -27.6,0 -50.72,9.47 -69.42,28.17 -18.67,18.67 -27.87,41.52 -27.87,69.12zm340.11 383.59c0,-24.26 4.45,-46.84 13.65,-67.74 9.2,-20.93 21.74,-39.33 37.34,-55.2 15.91,-15.91 34.31,-28.17 55.2,-37.37 20.9,-9.2 43.78,-13.65 68.01,-13.65 24.26,0 46.84,4.45 67.74,13.65 20.93,9.2 39.33,21.47 54.93,37.37 15.88,15.88 28.14,34.28 37.34,55.2 9.2,20.9 13.95,43.48 13.95,67.74 0,24.23 -4.75,47.11 -13.95,68.01 -9.2,20.9 -21.47,39.03 -37.34,54.9 -15.6,15.91 -34.01,28.17 -54.93,37.37 -20.9,9.2 -43.48,13.92 -67.74,13.92 -24.23,0 -47.11,-4.72 -68.01,-13.92 -20.9,-9.2 -39.3,-21.47 -55.2,-37.37 -15.6,-15.88 -28.14,-34.01 -37.34,-54.9 -9.2,-20.9 -13.65,-43.78 -13.65,-68.01zm76.64 0c0,27.6 9.5,50.72 28.17,69.39 18.67,18.67 41.79,27.87 69.39,27.87 27.6,0 50.48,-9.2 69.15,-27.87 18.67,-18.67 28.14,-41.79 28.14,-69.39 0,-27.6 -9.47,-50.48 -28.14,-69.15 -18.67,-18.67 -41.55,-28.14 -69.15,-28.14 -27.6,0 -50.72,9.47 -69.39,28.14 -18.67,18.67 -28.17,41.55 -28.17,69.15zm435.99 286.29l-80.85 0 68.01 -241.97 95.34 0 -82.5 241.97zm464.08 -230.28l279.32 -277.36c9.77,-9.2 19.24,-18.94 28.44,-29.83 9.2,-10.88 17.56,-22.04 24.53,-33.73 7.25,-12 13.11,-24.53 17.29,-37.64 4.18,-13.08 6.4,-27.03 6.4,-41.25 0,-16.99 -3.07,-32.62 -9.47,-46.27 -6.13,-13.65 -14.52,-25.38 -25.38,-34.85 -10.88,-9.47 -23.69,-16.72 -38.49,-22.01 -14.76,-5.29 -30.1,-8.09 -46.54,-8.09 -34.01,0 -62.18,9.47 -84.46,28.71 -22.31,18.94 -36.53,45.16 -42.39,78.59l-102.29 -8.9c4.72,-30.94 13.65,-57.43 27.03,-80.01 13.38,-22.58 30.1,-41.55 50.18,-56.59 20.08,-15.33 42.93,-26.49 68.85,-33.46 25.92,-7.25 53.82,-10.88 83.92,-10.88 30.37,0 58.81,4.21 85.3,12.27 26.49,8.09 49.91,20.35 69.69,36.53 20.05,15.88 35.69,35.96 47.11,59.92 11.43,23.69 17.29,51.86 17.29,83.92 0,23.15 -3.37,44.62 -10.31,64.67 -6.98,19.78 -15.91,38.76 -27.06,56.31 -11.15,17.56 -23.96,34.28 -38.45,50.18 -14.22,15.88 -29.28,31.21 -45.16,46.27l-229.17 221.35 350.15 0 0 82.5 -456.35 0 0 -100.36zm774.96 112.06c-31.48,0 -61.31,-4.72 -89.18,-14.19 -27.6,-9.5 -51.86,-23.42 -72.22,-41.82 -20.35,-18.4 -36.23,-40.71 -48.23,-66.9 -11.7,-26.22 -17.56,-55.77 -17.56,-88.37 0,-21.77 3.34,-41.82 10.31,-59.95 6.98,-18.4 16.18,-34.85 27.87,-49.61 12,-14.79 25.95,-27.33 41.82,-37.37 16.18,-10.31 33.73,-17.83 52.68,-23.12l0 -3.07c-13.08,-3.34 -26.19,-9.2 -39.3,-17.56 -13.11,-8.66 -24.8,-19.51 -35.12,-32.62 -10.04,-13.11 -18.4,-28.98 -25.11,-47.66 -6.4,-18.7 -9.74,-40.17 -9.74,-64.4 0,-26.22 5.29,-49.91 16.18,-71.38 10.85,-21.47 25.65,-39.57 44.32,-54.63 18.67,-15.06 40.41,-26.76 64.94,-34.85 24.8,-8.09 50.75,-12.27 78.32,-12.27 27.6,0 53.55,4.18 78.05,12.27 24.53,8.09 46.3,19.78 64.97,34.85 18.67,15.06 33.43,33.16 44.32,54.63 10.88,21.47 16.18,45.16 16.18,71.38 0,24.23 -3.37,45.7 -10.04,64.4 -6.4,18.67 -14.76,34.55 -25.11,47.66 -10.01,13.11 -21.74,23.96 -34.82,32.62 -13.11,8.36 -26.22,14.22 -39.33,17.56l0 3.07c19.24,5.29 36.8,12.81 52.71,23.12 16.15,10.04 30.1,22.58 41.79,37.37 12,14.76 21.2,31.21 28.17,49.61 6.98,18.13 10.31,38.18 10.31,59.95 0,32.59 -5.86,62.15 -17.86,88.37 -11.7,26.19 -27.87,48.5 -48.23,66.9 -20.32,18.4 -44.32,32.32 -72.19,41.82 -27.87,9.47 -57.43,14.19 -88.94,14.19zm-109.26 -532.99c0,13.65 2.5,27.33 7.25,40.41 5.02,13.11 12,24.53 21.2,34.85 9.2,10.31 20.63,18.7 34.01,25.11 13.38,6.4 28.98,9.74 46.81,9.74 18.4,0 34.31,-3.07 47.69,-9.2 13.38,-6.4 24.53,-14.49 33.73,-24.5 9.2,-10.34 16.15,-21.77 20.63,-34.85 4.72,-13.11 6.98,-27.06 6.98,-41.55 0,-32.05 -10.04,-58.54 -30.13,-79.16 -19.78,-20.63 -46.27,-30.94 -78.89,-30.94 -30.37,0 -56.01,10.31 -77.48,30.67 -21.2,20.35 -31.78,46.81 -31.78,79.44zm109.26 450.49c39.33,0 71.11,-12 95.64,-35.96 24.8,-23.96 37.07,-54.93 37.07,-92.82 0,-20.93 -3.37,-39.6 -10.31,-55.5 -6.98,-16.15 -16.45,-29.53 -28.71,-40.41 -12,-10.85 -26.22,-18.94 -42.09,-24.53 -15.91,-5.56 -33.19,-8.36 -51.59,-8.36 -38.73,0.57 -70.51,12.84 -95.61,36.8 -24.8,23.96 -37.34,54.63 -37.34,92 0,20.32 3.61,38.45 10.85,54.63 7.28,15.88 17.02,29.25 29.01,40.14 12.27,10.85 26.49,19.24 42.36,25.08 15.88,5.86 32.89,8.93 50.72,8.93zm504.3 101.2l-59.08 -30.4 437.65 -727.85 59.11 30.67 -437.68 727.58zm-194.56 -570.36c0,-24.26 4.45,-46.84 13.65,-67.74 9.2,-20.9 21.47,-39.3 37.34,-54.93 15.91,-15.88 34.01,-28.14 54.93,-37.34 20.9,-9.2 43.75,-13.95 68.01,-13.95 24.26,0 46.84,4.75 67.74,13.95 20.9,9.2 39.3,21.47 55.2,37.34 15.88,15.63 28.14,34.04 37.34,54.93 9.2,20.9 13.68,43.48 13.68,67.74 0,24.26 -4.48,47.11 -13.68,68.01 -9.2,20.93 -21.47,39.3 -37.34,55.2 -15.91,15.6 -34.31,28.14 -55.2,37.34 -20.9,9.2 -43.48,13.68 -67.74,13.68 -24.26,0 -47.11,-4.48 -68.01,-13.68 -20.93,-9.2 -39.03,-21.74 -54.93,-37.34 -15.88,-15.91 -28.14,-34.28 -37.34,-55.2 -9.2,-20.9 -13.65,-43.75 -13.65,-68.01zm76.64 0c0,27.6 9.2,50.72 27.87,69.42 18.7,18.67 41.82,27.87 69.42,27.87 27.6,0 50.45,-9.2 69.12,-27.87 18.7,-18.7 28.17,-41.82 28.17,-69.42 0,-27.6 -9.47,-50.45 -28.17,-69.12 -18.67,-18.7 -41.52,-28.17 -69.12,-28.17 -27.6,0 -50.72,9.47 -69.42,28.17 -18.67,18.67 -27.87,41.52 -27.87,69.12zm340.11 383.59c0,-24.26 4.45,-46.84 13.65,-67.74 9.2,-20.93 21.74,-39.33 37.34,-55.2 15.91,-15.91 34.31,-28.17 55.2,-37.37 20.9,-9.2 43.78,-13.65 68.01,-13.65 24.26,0 46.84,4.45 67.74,13.65 20.93,9.2 39.33,21.47 54.93,37.37 15.88,15.88 28.14,34.28 37.34,55.2 9.2,20.9 13.95,43.48 13.95,67.74 0,24.23 -4.75,47.11 -13.95,68.01 -9.2,20.9 -21.47,39.03 -37.34,54.9 -15.6,15.91 -34.01,28.17 -54.93,37.37 -20.9,9.2 -43.48,13.92 -67.74,13.92 -24.23,0 -47.11,-4.72 -68.01,-13.92 -20.9,-9.2 -39.3,-21.47 -55.2,-37.37 -15.6,-15.88 -28.14,-34.01 -37.34,-54.9 -9.2,-20.9 -13.65,-43.78 -13.65,-68.01zm76.64 0c0,27.6 9.5,50.72 28.17,69.39 18.67,18.67 41.79,27.87 69.39,27.87 27.6,0 50.48,-9.2 69.15,-27.87 18.67,-18.67 28.14,-41.79 28.14,-69.39 0,-27.6 -9.47,-50.48 -28.14,-69.15 -18.67,-18.67 -41.55,-28.14 -69.15,-28.14 -27.6,0 -50.72,9.47 -69.39,28.14 -18.67,18.67 -28.17,41.55 -28.17,69.15zm435.99 286.29l-80.85 0 68.01 -241.97 95.34 0 -82.5 241.97zm563.63 -299.97c11.15,33.46 25.92,58.27 44.59,74.72 18.7,16.45 46.57,24.53 83.07,24.53 18.4,0 35.69,-3.07 51.59,-9.2 16.15,-6.4 30.37,-14.76 42.9,-25.65 12.57,-10.88 22.31,-23.96 29.56,-39.3 7.25,-15.33 10.88,-32.62 10.88,-51.86 0,-28.71 -6.13,-51.83 -18.4,-69.12 -12,-17.56 -27.6,-30.67 -46.84,-39.3 -18.94,-8.93 -39.87,-14.79 -62.99,-17.29 -22.85,-2.53 -45.43,-3.91 -67.74,-3.91l0 -82.8c36.23,0 65.79,-2.5 88.64,-7.25 22.88,-4.72 40.98,-11.7 54.09,-20.9 13.11,-9.2 22.31,-20.93 27.6,-34.58 5.29,-13.65 7.79,-29.25 7.79,-46.27 0,-37.34 -11.12,-65.51 -33.43,-84.46 -22.31,-19.24 -50.18,-28.71 -83.64,-28.71 -25.35,0 -48.5,7.52 -69.39,22.31 -20.63,14.76 -36.26,34.01 -46.57,58.24l-96.45 -32.32c18.4,-44.62 46.57,-77.51 84.19,-98.68 37.64,-21.47 79.74,-32.08 126.28,-32.08 28.17,0 55.2,3.91 81.12,11.46 25.95,7.52 48.8,18.94 68.31,34.85 19.78,15.6 35.42,35.39 46.84,59.35 11.43,23.99 17.26,52.14 17.26,84.19 0,36.53 -11.12,69.42 -33.16,98.41 -22.01,28.71 -50.45,48.53 -85.84,58.84l0 1.92c21.44,3.91 40.95,11.15 57.97,21.77 17.02,10.31 31.51,23.39 43.21,39.3 12,15.88 20.63,33.46 26.49,52.68 5.86,19.24 8.93,39.87 8.93,61.34 0,33.46 -6.43,62.72 -19.24,88.09 -12.54,25.38 -29.56,46.27 -51.02,62.99 -21.47,16.75 -46,29.28 -73.87,37.91 -27.87,8.36 -57.13,12.54 -87.79,12.54 -53.25,0 -99.82,-11.97 -140.23,-36.23 -40.41,-24.26 -68.31,-62.72 -84.19,-115.12l99.52 -30.4zm779.71 -443.51l-336.47 0 0 -82.77 437.68 0 0 80.82 -277.39 615.52 -106.19 0 282.38 -613.57zm400.03 643.96l-59.08 -30.4 437.65 -727.85 59.11 30.67 -437.68 727.58zm-194.56 -570.36c0,-24.26 4.45,-46.84 13.65,-67.74 9.2,-20.9 21.47,-39.3 37.34,-54.93 15.91,-15.88 34.01,-28.14 54.93,-37.34 20.9,-9.2 43.75,-13.95 68.01,-13.95 24.26,0 46.84,4.75 67.74,13.95 20.9,9.2 39.3,21.47 55.2,37.34 15.88,15.63 28.14,34.04 37.34,54.93 9.2,20.9 13.68,43.48 13.68,67.74 0,24.26 -4.48,47.11 -13.68,68.01 -9.2,20.93 -21.47,39.3 -37.34,55.2 -15.91,15.6 -34.31,28.14 -55.2,37.34 -20.9,9.2 -43.48,13.68 -67.74,13.68 -24.26,0 -47.11,-4.48 -68.01,-13.68 -20.93,-9.2 -39.03,-21.74 -54.93,-37.34 -15.88,-15.91 -28.14,-34.28 -37.34,-55.2 -9.2,-20.9 -13.65,-43.75 -13.65,-68.01zm76.64 0c0,27.6 9.2,50.72 27.87,69.42 18.7,18.67 41.82,27.87 69.42,27.87 27.6,0 50.45,-9.2 69.12,-27.87 18.7,-18.7 28.17,-41.82 28.17,-69.42 0,-27.6 -9.47,-50.45 -28.17,-69.12 -18.67,-18.7 -41.52,-28.17 -69.12,-28.17 -27.6,0 -50.72,9.47 -69.42,28.17 -18.67,18.67 -27.87,41.52 -27.87,69.12zm340.11 383.59c0,-24.26 4.45,-46.84 13.65,-67.74 9.2,-20.93 21.74,-39.33 37.34,-55.2 15.91,-15.91 34.31,-28.17 55.2,-37.37 20.9,-9.2 43.78,-13.65 68.01,-13.65 24.26,0 46.84,4.45 67.74,13.65 20.93,9.2 39.33,21.47 54.93,37.37 15.88,15.88 28.14,34.28 37.34,55.2 9.2,20.9 13.95,43.48 13.95,67.74 0,24.23 -4.75,47.11 -13.95,68.01 -9.2,20.9 -21.47,39.03 -37.34,54.9 -15.6,15.91 -34.01,28.17 -54.93,37.37 -20.9,9.2 -43.48,13.92 -67.74,13.92 -24.23,0 -47.11,-4.72 -68.01,-13.92 -20.9,-9.2 -39.3,-21.47 -55.2,-37.37 -15.6,-15.88 -28.14,-34.01 -37.34,-54.9 -9.2,-20.9 -13.65,-43.78 -13.65,-68.01zm76.64 0c0,27.6 9.5,50.72 28.17,69.39 18.67,18.67 41.79,27.87 69.39,27.87 27.6,0 50.48,-9.2 69.15,-27.87 18.67,-18.67 28.14,-41.79 28.14,-69.39 0,-27.6 -9.47,-50.48 -28.14,-69.15 -18.67,-18.67 -41.55,-28.14 -69.15,-28.14 -27.6,0 -50.72,9.47 -69.39,28.14 -18.67,18.67 -28.17,41.55 -28.17,69.15zm435.99 286.29l-80.85 0 68.01 -241.97 95.34 0 -82.5 241.97zm684.61 -718.11l-127.96 118.19 -55.2 -66.06 193.75 -160.28 83.64 0 0 696.34 -94.23 0 0 -588.19zm546.67 0l-127.96 118.19 -55.2 -66.06 193.75 -160.28 83.64 0 0 696.34 -94.23 0 0 -588.19zm512.09 618.59l-59.08 -30.4 437.65 -727.85 59.11 30.67 -437.68 727.58zm-194.56 -570.36c0,-24.26 4.45,-46.84 13.65,-67.74 9.2,-20.9 21.47,-39.3 37.34,-54.93 15.91,-15.88 34.01,-28.14 54.93,-37.34 20.9,-9.2 43.75,-13.95 68.01,-13.95 24.26,0 46.84,4.75 67.74,13.95 20.9,9.2 39.3,21.47 55.2,37.34 15.88,15.63 28.14,34.04 37.34,54.93 9.2,20.9 13.68,43.48 13.68,67.74 0,24.26 -4.48,47.11 -13.68,68.01 -9.2,20.93 -21.47,39.3 -37.34,55.2 -15.91,15.6 -34.31,28.14 -55.2,37.34 -20.9,9.2 -43.48,13.68 -67.74,13.68 -24.26,0 -47.11,-4.48 -68.01,-13.68 -20.93,-9.2 -39.03,-21.74 -54.93,-37.34 -15.88,-15.91 -28.14,-34.28 -37.34,-55.2 -9.2,-20.9 -13.65,-43.75 -13.65,-68.01zm76.64 0c0,27.6 9.2,50.72 27.87,69.42 18.7,18.67 41.82,27.87 69.42,27.87 27.6,0 50.45,-9.2 69.12,-27.87 18.7,-18.7 28.17,-41.82 28.17,-69.42 0,-27.6 -9.47,-50.45 -28.17,-69.12 -18.67,-18.7 -41.52,-28.17 -69.12,-28.17 -27.6,0 -50.72,9.47 -69.42,28.17 -18.67,18.67 -27.87,41.52 -27.87,69.12zm340.11 383.59c0,-24.26 4.45,-46.84 13.65,-67.74 9.2,-20.93 21.74,-39.33 37.34,-55.2 15.91,-15.91 34.31,-28.17 55.2,-37.37 20.9,-9.2 43.78,-13.65 68.01,-13.65 24.26,0 46.84,4.45 67.74,13.65 20.93,9.2 39.33,21.47 54.93,37.37 15.88,15.88 28.14,34.28 37.34,55.2 9.2,20.9 13.95,43.48 13.95,67.74 0,24.23 -4.75,47.11 -13.95,68.01 -9.2,20.9 -21.47,39.03 -37.34,54.9 -15.6,15.91 -34.01,28.17 -54.93,37.37 -20.9,9.2 -43.48,13.92 -67.74,13.92 -24.23,0 -47.11,-4.72 -68.01,-13.92 -20.9,-9.2 -39.3,-21.47 -55.2,-37.37 -15.6,-15.88 -28.14,-34.01 -37.34,-54.9 -9.2,-20.9 -13.65,-43.78 -13.65,-68.01zm76.64 0c0,27.6 9.5,50.72 28.17,69.39 18.67,18.67 41.79,27.87 69.39,27.87 27.6,0 50.48,-9.2 69.15,-27.87 18.67,-18.67 28.14,-41.79 28.14,-69.39 0,-27.6 -9.47,-50.48 -28.14,-69.15 -18.67,-18.67 -41.55,-28.14 -69.15,-28.14 -27.6,0 -50.72,9.47 -69.39,28.14 -18.67,18.67 -28.17,41.55 -28.17,69.15z"/>
   <polygon class="fil3" points="16912.34,2254.98 1879.18,2254.98 1879.18,6278.23 16912.34,6278.23 16912.34,6303.7 "/>
   <polygon class="fil1" points="1879.24,6303.73 16912.4,6303.73 16912.4,6278.26 1879.24,6278.26 "/>
   <path class="fil2" d="M2699.73 3262.51c0,23.69 3.64,45.43 10.88,65.51 7.25,19.78 17.26,36.8 30.37,50.99 13.11,14.22 29.28,25.38 48.23,33.46 19.24,8.09 40.44,12.27 64.13,12.27 23.69,0 44.86,-4.18 63.83,-12.27 18.94,-8.09 34.85,-19.24 47.96,-33.46 13.08,-14.19 23.39,-31.21 30.64,-50.99 7.25,-20.08 10.88,-41.82 10.88,-65.51 0,-23.69 -3.64,-45.43 -10.88,-65.24 -7.25,-20.05 -17.56,-37.07 -30.64,-51.29 -13.11,-14.19 -29.01,-25.35 -47.96,-33.43 -18.97,-8.09 -40.14,-12.27 -63.83,-12.27 -23.69,0 -44.89,4.18 -64.13,12.27 -18.94,8.09 -35.12,19.24 -48.23,33.43 -13.11,14.22 -23.12,31.24 -30.37,51.29 -7.25,19.81 -10.88,41.55 -10.88,65.24zm-94.23 0c0,-34.28 6.4,-66.06 18.97,-95.34 12.81,-29.56 30.37,-55.47 52.68,-77.78 22.31,-22.28 48.5,-39.87 78.62,-52.68 30.37,-12.84 62.72,-19.24 97.57,-19.24 34.85,0 67.17,6.4 97.26,19.24 30.13,12.81 56.31,30.4 78.62,52.68 22.31,22.31 39.87,48.23 52.68,77.78 12.84,29.28 19.24,61.06 19.24,95.34 0,34.01 -6.4,66.06 -19.24,95.88 -12.81,29.83 -30.37,55.77 -52.68,77.78 -22.31,22.04 -48.5,39.3 -78.62,52.14 -30.1,12.54 -62.42,18.94 -97.26,18.94 -34.85,0 -67.2,-6.4 -97.57,-18.94 -30.13,-12.84 -56.31,-30.1 -78.62,-52.14 -22.31,-22.01 -39.87,-47.96 -52.68,-77.78 -12.57,-29.83 -18.97,-61.88 -18.97,-95.88zm606.86 -233.04l88.37 0 0 66.9 1.95 0c17.02,-24.8 40.44,-44.32 70.27,-57.97 29.83,-13.95 60.76,-20.93 92.27,-20.93 35.96,0 68.55,6.4 97.84,18.97 29.25,12.54 54.09,29.83 74.72,52.11 20.63,22.04 36.5,48.23 47.66,78.08 11.15,29.83 16.72,61.61 16.72,95.88 0,34.85 -5.56,67.17 -16.72,96.99 -11.15,29.86 -27.03,55.5 -47.66,77.51 -20.63,22.01 -45.46,39.03 -74.72,51.56 -29.28,12.54 -61.88,18.67 -97.84,18.67 -33.46,0 -64.97,-6.95 -94.53,-20.9 -29.53,-14.22 -52.11,-33.46 -68.01,-57.7l-1.95 0 0 344.26 -88.37 0 0 -743.45zm241.97 70.81c-23.69,0 -44.89,4.18 -64.13,12.27 -18.94,8.09 -35.12,19.24 -48.23,33.43 -13.08,14.22 -23.12,31.24 -30.37,51.29 -7.25,19.81 -10.88,41.55 -10.88,65.24 0,23.69 3.64,45.43 10.88,65.51 7.25,19.78 17.29,36.8 30.37,50.99 13.11,14.22 29.28,25.38 48.23,33.46 19.24,8.09 40.44,12.27 64.13,12.27 23.69,0 44.89,-4.18 63.83,-12.27 18.97,-8.09 34.85,-19.24 47.96,-33.46 13.11,-14.19 23.42,-31.21 30.67,-50.99 7.25,-20.08 10.85,-41.82 10.85,-65.51 0,-23.69 -3.61,-45.43 -10.85,-65.24 -7.25,-20.05 -17.56,-37.07 -30.67,-51.29 -13.11,-14.19 -28.98,-25.35 -47.96,-33.43 -18.94,-8.09 -40.14,-12.27 -63.83,-12.27zm360.71 -13.95c24.8,-22.85 53.82,-40.14 86.41,-51.56 32.89,-11.43 65.79,-17.29 98.41,-17.29 34.31,0 63.56,4.18 88.09,12.84 24.53,8.63 44.59,20.05 60.49,34.55 15.88,14.22 27.33,30.97 34.85,49.64 7.52,18.67 11.43,38.18 11.43,58.54l0 238.07c0,16.45 0.27,31.48 0.84,45.16 0.84,13.65 1.65,26.76 3.07,39.3l-78.62 0c-1.95,-23.69 -3.07,-47.11 -3.07,-70.81l-1.95 0c-19.78,30.1 -42.9,51.29 -69.96,63.83 -26.76,12.54 -57.97,18.67 -93.39,18.67 -21.47,0 -42.09,-3.07 -61.88,-8.9 -19.78,-5.86 -37.07,-14.49 -51.86,-26.22 -14.76,-11.97 -26.19,-26.49 -34.85,-43.75 -8.36,-17.59 -12.54,-37.64 -12.54,-60.79 0,-30.1 6.7,-55.17 20.08,-75.53 13.38,-20.35 31.78,-37.07 54.9,-49.64 23.42,-12.81 50.75,-22.01 81.69,-27.6 31.21,-5.56 64.67,-8.36 100.06,-8.36l64.67 0 0 -19.78c0,-11.7 -2.22,-23.42 -6.95,-35.12 -4.48,-12 -11.46,-22.58 -20.66,-32.05 -9.2,-9.77 -20.63,-17.29 -34.28,-22.88 -13.65,-5.56 -30.1,-8.36 -49.07,-8.36 -16.99,0 -32.05,1.68 -44.86,5.02 -12.84,3.34 -24.53,7.52 -34.85,12.54 -10.31,4.75 -19.81,10.61 -28.44,17.02 -8.66,6.4 -16.72,12.81 -24.8,18.67l-52.98 -55.2zm249.76 185.12c-20.9,0 -42.36,1.11 -64.37,3.34 -22.04,2.22 -41.82,6.67 -59.95,13.38 -18.1,6.4 -32.89,15.6 -44.32,27.6 -11.43,11.7 -17.29,26.76 -17.29,45.16 0,26.76 8.93,46 27.06,57.97 18.1,11.73 42.36,17.56 73.3,17.56 24.26,0 44.89,-4.18 61.88,-12.27 17.02,-8.06 30.97,-18.67 41.28,-31.75 10.58,-13.11 18.1,-27.9 22.58,-43.78 4.72,-16.18 6.95,-32.05 6.95,-47.96l0 -29.25 -47.11 0zm592.1 -118.22c-16.45,-16.99 -33.46,-29.83 -51.56,-38.73 -18.13,-8.93 -39.6,-13.38 -64.4,-13.38 -24.26,0 -45.43,4.45 -63.56,13.38 -18.13,8.9 -33.16,21.17 -45.43,36.5 -12,15.33 -21.2,32.89 -27.6,52.98 -6.13,20.05 -9.2,40.98 -9.2,62.45 0,21.47 3.64,42.09 10.88,61.61 7.25,19.24 17.26,36.23 30.37,50.72 13.11,14.22 28.98,25.65 47.38,33.73 18.4,8.09 39.03,12.27 61.91,12.27 24.8,0 46.27,-4.45 63.83,-13.11 17.83,-8.9 34.28,-22.01 49.34,-39.03l62.99 63.02c-23.12,25.35 -49.88,43.75 -80.28,54.9 -30.4,11.15 -62.72,16.72 -96.72,16.72 -35.96,0 -69.15,-5.83 -98.98,-17.56 -29.83,-11.97 -55.47,-28.41 -77.21,-49.61 -21.47,-21.47 -38.18,-46.84 -50.18,-76.67 -11.7,-29.83 -17.56,-62.99 -17.56,-98.95 0,-35.96 5.86,-69.15 17.56,-99.25 12,-30.37 28.44,-56.31 49.64,-77.78 21.47,-21.47 46.81,-38.45 76.64,-50.45 29.83,-12.27 63.29,-18.4 100.09,-18.4 34.01,0 66.63,6.13 97.57,18.4 31.21,12 58.27,30.67 81.39,55.47l-66.9 60.76zm147.48 -123.75l88.37 0 0 466.09 -88.37 0 0 -466.09zm-20.63 -167.26c0,-17.56 6.4,-32.89 18.94,-45.73 12.84,-12.81 28.17,-19.21 45.73,-19.21 17.83,0 33.16,6.4 45.7,19.21 12.84,12.84 19.24,28.17 19.24,45.73 0,17.56 -6.4,32.89 -19.24,45.7 -12.54,12.84 -27.87,19.24 -45.7,19.24 -17.56,0 -32.89,-6.4 -45.73,-19.24 -12.54,-12.81 -18.94,-28.14 -18.94,-45.7zm499.55 243.93l-126.85 0 0 211.28c0,13.11 0.27,26.22 0.84,39.03 0.84,12.84 3.34,24.26 7.52,34.58 4.18,10.04 10.88,18.13 19.51,24.53 8.93,6.13 22.04,9.2 39.03,9.2 10.31,0 21.2,-0.84 32.35,-2.8 11.15,-1.95 21.47,-5.56 30.67,-10.85l0 80.55c-10.61,5.86 -24.26,10.04 -40.98,12.27 -16.75,2.22 -29.56,3.34 -38.76,3.34 -34.31,0 -60.76,-4.72 -79.47,-14.19 -18.67,-9.5 -32.32,-21.77 -41.25,-36.8 -8.63,-15.06 -13.92,-31.78 -15.6,-50.45 -1.68,-18.7 -2.5,-37.64 -2.5,-56.89l0 -242.79 -102.32 0 0 -76.67 102.32 0 0 -130.73 88.64 0 0 130.73 126.85 0 0 76.67zm115.94 -19.81c24.8,-22.85 53.82,-40.14 86.41,-51.56 32.89,-11.43 65.79,-17.29 98.41,-17.29 34.31,0 63.56,4.18 88.09,12.84 24.53,8.63 44.59,20.05 60.49,34.55 15.88,14.22 27.33,30.97 34.85,49.64 7.52,18.67 11.43,38.18 11.43,58.54l0 238.07c0,16.45 0.27,31.48 0.84,45.16 0.84,13.65 1.65,26.76 3.07,39.3l-78.62 0c-1.95,-23.69 -3.07,-47.11 -3.07,-70.81l-1.95 0c-19.78,30.1 -42.9,51.29 -69.96,63.83 -26.76,12.54 -57.97,18.67 -93.39,18.67 -21.47,0 -42.09,-3.07 -61.88,-8.9 -19.78,-5.86 -37.07,-14.49 -51.86,-26.22 -14.76,-11.97 -26.19,-26.49 -34.85,-43.75 -8.36,-17.59 -12.54,-37.64 -12.54,-60.79 0,-30.1 6.7,-55.17 20.08,-75.53 13.38,-20.35 31.78,-37.07 54.9,-49.64 23.42,-12.81 50.75,-22.01 81.69,-27.6 31.21,-5.56 64.67,-8.36 100.06,-8.36l64.67 0 0 -19.78c0,-11.7 -2.22,-23.42 -6.95,-35.12 -4.48,-12 -11.46,-22.58 -20.66,-32.05 -9.2,-9.77 -20.63,-17.29 -34.28,-22.88 -13.65,-5.56 -30.1,-8.36 -49.07,-8.36 -16.99,0 -32.05,1.68 -44.86,5.02 -12.84,3.34 -24.53,7.52 -34.85,12.54 -10.31,4.75 -19.81,10.61 -28.44,17.02 -8.66,6.4 -16.72,12.81 -24.8,18.67l-52.98 -55.2zm249.76 185.12c-20.9,0 -42.36,1.11 -64.37,3.34 -22.04,2.22 -41.82,6.67 -59.95,13.38 -18.1,6.4 -32.89,15.6 -44.32,27.6 -11.43,11.7 -17.29,26.76 -17.29,45.16 0,26.76 8.93,46 27.06,57.97 18.1,11.73 42.36,17.56 73.3,17.56 24.26,0 44.89,-4.18 61.88,-12.27 17.02,-8.06 30.97,-18.67 41.28,-31.75 10.58,-13.11 18.1,-27.9 22.58,-43.78 4.72,-16.18 6.95,-32.05 6.95,-47.96l0 -29.25 -47.11 0zm1.95 -330.61l-81.66 0 -146.36 -141.61 125.74 0 102.29 141.61zm736.75 566.42c-31.48,0 -61.31,-4.72 -89.18,-14.19 -27.6,-9.5 -51.86,-23.42 -72.22,-41.82 -20.35,-18.4 -36.23,-40.71 -48.23,-66.9 -11.7,-26.22 -17.56,-55.77 -17.56,-88.37 0,-21.77 3.34,-41.82 10.31,-59.95 6.98,-18.4 16.18,-34.85 27.87,-49.61 12,-14.79 25.95,-27.33 41.82,-37.37 16.18,-10.31 33.73,-17.83 52.68,-23.12l0 -3.07c-13.08,-3.34 -26.19,-9.2 -39.3,-17.56 -13.11,-8.66 -24.8,-19.51 -35.12,-32.62 -10.04,-13.11 -18.4,-28.98 -25.11,-47.66 -6.4,-18.7 -9.74,-40.17 -9.74,-64.4 0,-26.22 5.29,-49.91 16.18,-71.38 10.85,-21.47 25.65,-39.57 44.32,-54.63 18.67,-15.06 40.41,-26.76 64.94,-34.85 24.8,-8.09 50.75,-12.27 78.32,-12.27 27.6,0 53.55,4.18 78.05,12.27 24.53,8.09 46.3,19.78 64.97,34.85 18.67,15.06 33.43,33.16 44.32,54.63 10.88,21.47 16.18,45.16 16.18,71.38 0,24.23 -3.37,45.7 -10.04,64.4 -6.4,18.67 -14.76,34.55 -25.11,47.66 -10.01,13.11 -21.74,23.96 -34.82,32.62 -13.11,8.36 -26.22,14.22 -39.33,17.56l0 3.07c19.24,5.29 36.8,12.81 52.71,23.12 16.15,10.04 30.1,22.58 41.79,37.37 12,14.76 21.2,31.21 28.17,49.61 6.98,18.13 10.31,38.18 10.31,59.95 0,32.59 -5.86,62.15 -17.86,88.37 -11.7,26.19 -27.87,48.5 -48.23,66.9 -20.32,18.4 -44.32,32.32 -72.19,41.82 -27.87,9.47 -57.43,14.19 -88.94,14.19zm-109.26 -532.99c0,13.65 2.5,27.33 7.25,40.41 5.02,13.11 12,24.53 21.2,34.85 9.2,10.31 20.63,18.7 34.01,25.11 13.38,6.4 28.98,9.74 46.81,9.74 18.4,0 34.31,-3.07 47.69,-9.2 13.38,-6.4 24.53,-14.49 33.73,-24.5 9.2,-10.34 16.15,-21.77 20.63,-34.85 4.72,-13.11 6.98,-27.06 6.98,-41.55 0,-32.05 -10.04,-58.54 -30.13,-79.16 -19.78,-20.63 -46.27,-30.94 -78.89,-30.94 -30.37,0 -56.01,10.31 -77.48,30.67 -21.2,20.35 -31.78,46.81 -31.78,79.44zm109.26 450.49c39.33,0 71.11,-12 95.64,-35.96 24.8,-23.96 37.07,-54.93 37.07,-92.82 0,-20.93 -3.37,-39.6 -10.31,-55.5 -6.98,-16.15 -16.45,-29.53 -28.71,-40.41 -12,-10.85 -26.22,-18.94 -42.09,-24.53 -15.91,-5.56 -33.19,-8.36 -51.59,-8.36 -38.73,0.57 -70.51,12.84 -95.61,36.8 -24.8,23.96 -37.34,54.63 -37.34,92 0,20.32 3.61,38.45 10.85,54.63 7.28,15.88 17.02,29.25 29.01,40.14 12.27,10.85 26.49,19.24 42.36,25.08 15.88,5.86 32.89,8.93 50.72,8.93zm306.68 -277.36c0,-25.38 1.38,-51.86 3.88,-79.47 2.53,-27.6 7.25,-54.9 14.22,-81.39 6.98,-26.49 16.18,-51.83 27.6,-76.1 11.43,-24.26 26.22,-45.43 44.32,-63.56 18.13,-18.13 39.33,-32.35 63.86,-43.21 24.5,-10.88 53.22,-16.18 86.11,-16.18 32.62,0 61.34,5.29 85.87,16.18 24.8,10.85 46,25.08 64.13,43.21 18.1,18.13 32.59,39.3 44.02,63.56 11.46,24.26 20.66,49.61 27.6,76.1 6.98,26.49 11.73,53.79 14.22,81.39 2.8,27.6 4.18,54.09 4.18,79.47 0,36.8 -3.34,76.1 -10.01,118.19 -6.43,41.82 -18.7,80.85 -36.53,116.81 -17.56,35.96 -42.09,65.79 -73.33,89.48 -30.94,23.69 -71.08,35.39 -120.15,35.39 -49.34,0 -89.48,-11.7 -120.69,-35.39 -30.94,-23.69 -55.47,-53.52 -73.03,-89.48 -17.56,-35.96 -29.83,-74.99 -36.53,-116.81 -6.4,-42.09 -9.74,-81.39 -9.74,-118.19zm94.5 0c0,23.12 1.38,50.18 4.18,81.66 3.07,31.51 9.47,61.61 19.21,90.89 9.77,29.25 24.53,54.09 43.78,74.41 19.24,20.35 45.43,30.4 78.32,30.4 32.62,0 58.84,-10.04 78.05,-30.4 19.24,-20.32 34.04,-45.16 43.78,-74.41 9.77,-29.28 16.18,-59.38 19.24,-90.89 3.07,-31.48 4.45,-58.54 4.45,-81.66 0,-15.91 -0.54,-33.73 -1.65,-53.52 -0.84,-20.08 -3.37,-40.44 -6.98,-61.06 -3.64,-20.63 -8.66,-40.71 -15.06,-59.92 -6.4,-19.24 -15.33,-36.8 -26.19,-52.14 -10.88,-15.33 -23.99,-27.6 -39.87,-36.8 -15.6,-9.2 -34.31,-13.92 -55.77,-13.92 -21.74,0 -40.41,4.72 -56.28,13.92 -15.63,9.2 -28.71,21.47 -39.6,36.8 -10.88,15.33 -19.51,32.89 -26.22,52.14 -6.4,19.21 -11.7,39.3 -15.3,59.92 -3.64,20.63 -5.86,40.98 -6.7,61.06 -0.84,19.78 -1.38,37.61 -1.38,53.52zm649.8 378.57l-59.08 -30.4 437.65 -727.85 59.11 30.67 -437.68 727.58zm-194.56 -570.36c0,-24.26 4.45,-46.84 13.65,-67.74 9.2,-20.9 21.47,-39.3 37.34,-54.93 15.91,-15.88 34.01,-28.14 54.93,-37.34 20.9,-9.2 43.75,-13.95 68.01,-13.95 24.26,0 46.84,4.75 67.74,13.95 20.9,9.2 39.3,21.47 55.2,37.34 15.88,15.63 28.14,34.04 37.34,54.93 9.2,20.9 13.68,43.48 13.68,67.74 0,24.26 -4.48,47.11 -13.68,68.01 -9.2,20.93 -21.47,39.3 -37.34,55.2 -15.91,15.6 -34.31,28.14 -55.2,37.34 -20.9,9.2 -43.48,13.68 -67.74,13.68 -24.26,0 -47.11,-4.48 -68.01,-13.68 -20.93,-9.2 -39.03,-21.74 -54.93,-37.34 -15.88,-15.91 -28.14,-34.28 -37.34,-55.2 -9.2,-20.9 -13.65,-43.75 -13.65,-68.01zm76.64 0c0,27.6 9.2,50.72 27.87,69.42 18.7,18.67 41.82,27.87 69.42,27.87 27.6,0 50.45,-9.2 69.12,-27.87 18.7,-18.7 28.17,-41.82 28.17,-69.42 0,-27.6 -9.47,-50.45 -28.17,-69.12 -18.67,-18.7 -41.52,-28.17 -69.12,-28.17 -27.6,0 -50.72,9.47 -69.42,28.17 -18.67,18.67 -27.87,41.52 -27.87,69.12zm340.11 383.59c0,-24.26 4.45,-46.84 13.65,-67.74 9.2,-20.93 21.74,-39.33 37.34,-55.2 15.91,-15.91 34.31,-28.17 55.2,-37.37 20.9,-9.2 43.78,-13.65 68.01,-13.65 24.26,0 46.84,4.45 67.74,13.65 20.93,9.2 39.33,21.47 54.93,37.37 15.88,15.88 28.14,34.28 37.34,55.2 9.2,20.9 13.95,43.48 13.95,67.74 0,24.23 -4.75,47.11 -13.95,68.01 -9.2,20.9 -21.47,39.03 -37.34,54.9 -15.6,15.91 -34.01,28.17 -54.93,37.37 -20.9,9.2 -43.48,13.92 -67.74,13.92 -24.23,0 -47.11,-4.72 -68.01,-13.92 -20.9,-9.2 -39.3,-21.47 -55.2,-37.37 -15.6,-15.88 -28.14,-34.01 -37.34,-54.9 -9.2,-20.9 -13.65,-43.78 -13.65,-68.01zm76.64 0c0,27.6 9.5,50.72 28.17,69.39 18.67,18.67 41.79,27.87 69.39,27.87 27.6,0 50.48,-9.2 69.15,-27.87 18.67,-18.67 28.14,-41.79 28.14,-69.39 0,-27.6 -9.47,-50.48 -28.14,-69.15 -18.67,-18.67 -41.55,-28.14 -69.15,-28.14 -27.6,0 -50.72,9.47 -69.39,28.14 -18.67,18.67 -28.17,41.55 -28.17,69.15z"/>
   <polygon class="fil4" points="35703.89,17288.2 20670.61,17288.2 20670.61,6278.26 35703.89,6278.26 "/>
   <path class="fil2" d="M21667.38 12742.19c-10.61,-13.11 -23.69,-24.26 -39.03,-32.89 -15.33,-8.93 -34.04,-13.38 -56.31,-13.38 -20.93,0 -39.33,4.45 -54.63,13.38 -15.33,8.63 -23.15,21.74 -23.15,38.76 0,13.65 4.45,24.8 13.11,33.43 8.9,8.66 19.51,15.33 31.48,20.63 12.27,5.32 25.38,9.2 39.03,11.73 13.68,2.5 25.65,5.02 35.42,6.98 18.94,4.72 36.8,10.31 53.52,16.72 16.72,6.4 31.24,15.06 43.21,25.65 12.27,10.31 21.74,23.12 28.71,38.18 6.98,15.06 10.31,33.46 10.31,55.2 0,26.19 -5.56,48.77 -16.72,67.47 -11.15,18.67 -25.65,33.7 -43.48,45.7 -17.59,11.7 -37.91,20.08 -60.49,25.38 -22.58,5.29 -45.16,7.79 -68.31,7.79 -38.76,0 -72.49,-5.83 -101.74,-17.56 -29.28,-11.97 -55.2,-33.43 -78.05,-64.94l66.9 -55.2c14.22,14.49 30.4,27.33 47.96,38.49 17.83,11.15 39.57,16.72 64.94,16.72 11.15,0 22.58,-1.11 34.01,-3.34 11.43,-2.53 21.74,-6.13 30.4,-10.88 8.93,-5.02 16.18,-11.15 21.74,-18.67 5.56,-7.52 8.36,-16.45 8.36,-26.22 0,-13.08 -4.18,-23.69 -12.27,-32.32 -8.09,-8.63 -18.1,-15.33 -29.56,-20.08 -11.43,-5.02 -23.69,-8.9 -36.5,-11.97 -12.54,-3.07 -23.99,-5.29 -33.73,-7.25 -18.97,-4.75 -37.07,-9.77 -54.09,-15.63 -16.99,-5.83 -32.32,-13.92 -45.43,-23.69 -13.11,-9.74 -23.42,-22.28 -31.51,-37.34 -7.79,-15.33 -11.7,-34.01 -11.7,-56.04 0,-24.23 5.02,-45.43 15.33,-63.56 10.31,-18.1 23.69,-32.89 40.41,-44.59 16.75,-12 35.69,-20.9 56.89,-26.76 21.47,-5.86 42.9,-8.93 64.37,-8.93 31.51,0 61.91,5.86 90.62,17.86 28.71,11.7 51.83,31.48 68.85,59.08l-68.85 52.14zm211.28 -347.33l244.77 0c44.59,0 81.39,6.13 110.1,18.37 28.98,12 51.83,27.6 68.58,46.3 16.72,18.67 28.41,39.57 34.85,62.72 6.4,23.12 9.74,45.7 9.74,67.44 0,22.31 -3.91,43.78 -11.7,64.4 -7.82,20.63 -19.24,39.3 -34.01,56.04 -14.79,16.72 -32.62,30.94 -54.09,42.36 -21.2,11.43 -44.89,18.4 -71.38,21.2l197.93 317.5 -118.19 0 -177 -306.92 -105.11 0 0 306.92 -94.5 0 0 -696.34zm94.5 306.92l123.78 0c18.4,0 36.5,-1.41 54.63,-4.48 18.13,-3.07 34.01,-8.36 48.23,-16.18 14.22,-7.79 25.38,-18.94 33.73,-33.7 8.63,-14.79 12.81,-34.04 12.81,-57.73 0,-23.69 -4.18,-42.63 -12.81,-57.43 -8.36,-14.76 -19.51,-26.19 -33.73,-34.01 -14.22,-8.09 -30.1,-13.38 -48.23,-16.15 -18.13,-3.07 -36.23,-4.48 -54.63,-4.48l-123.78 0 0 224.15zm1099.17 0l0 343.15c-17.02,10.58 -36.23,19.78 -58,27.6 -21.47,7.79 -44.05,14.49 -67.44,20.05 -23.15,5.59 -46.84,9.77 -70.81,12.27 -23.69,2.8 -46.27,4.18 -67.2,4.18 -59.08,0 -111.79,-9.74 -158.06,-29.53 -46,-19.81 -85.03,-46.27 -116.81,-79.74 -31.78,-33.46 -56.01,-72.19 -72.73,-116.54 -16.75,-44.32 -25.11,-90.86 -25.11,-140.2 0,-51.86 8.93,-100.09 27.03,-144.41 18.13,-44.59 42.93,-83.34 74.72,-115.97 31.78,-32.89 69.96,-58.54 114.58,-77.21 44.59,-18.67 93.39,-28.17 146.63,-28.17 64.1,0 116.51,8.09 157.22,24.26 40.71,15.91 74.72,37.91 102.32,66.06l-66.93 71.95c-28.71,-27.6 -59.35,-46.57 -91.43,-57.43 -32.05,-10.88 -65.79,-16.45 -101.17,-16.45 -40.14,0 -76.4,7.52 -108.45,22.28 -32.05,14.79 -59.38,34.58 -82.5,59.38 -22.88,24.8 -40.44,54.36 -52.98,88.09 -12.54,33.73 -18.67,69.69 -18.67,107.61 0,39.3 6.98,76.1 20.63,109.83 13.65,33.73 32.62,62.99 56.86,87.79 24.26,24.83 52.98,44.35 85.6,58.54 32.89,14.22 68.58,21.2 107.31,21.2 33.46,0 64.97,-3.07 94.8,-9.2 29.83,-6.4 55.47,-15.33 76.37,-27.33l0 -193.72 -154.42 0 0 -88.37 248.65 0zm172.28 -306.92l241.97 0c30.1,0 57.97,3.61 83.92,10.85 25.92,7.25 48.23,17.86 66.9,32.05 18.67,14.22 33.43,32.08 44.32,54.09 10.88,22.04 16.18,47.69 16.18,77.21 0,39.87 -11.15,72.49 -33.46,97.87 -22.31,25.35 -50.99,43.75 -86.41,55.47l0 1.95c20.9,1.38 40.71,6.67 58.81,16.15 18.4,9.5 34.31,22.04 47.69,37.37 13.65,15.33 24.23,33.43 32.05,53.79 8.09,20.35 12,42.09 12,65.79 0,31.51 -6.43,59.11 -19.24,83.07 -12.84,23.99 -30.4,44.05 -52.68,60.49 -22.31,16.45 -48.23,28.71 -77.78,37.37 -29.28,8.63 -61.06,12.81 -95.34,12.81l-238.91 0 0 -696.34zm94.5 289.06l128.8 0c17.56,0 34.28,-1.65 49.88,-5.29 15.91,-3.61 29.56,-9.47 41.28,-18.13 11.97,-8.63 21.17,-19.21 28.14,-32.32 6.98,-13.11 10.58,-29.28 10.58,-48.23 0,-27.6 -8.9,-51.56 -26.76,-71.92 -17.56,-20.35 -45.43,-30.4 -83.61,-30.4l-148.32 0 0 206.29zm0 324.78l138.55 0c14.49,0 30.4,-1.41 47.69,-4.48 17.56,-3.07 33.73,-8.9 48.77,-17.56 15.06,-8.93 27.87,-20.9 38.18,-35.96 10.61,-15.33 15.91,-35.39 15.91,-60.22 0,-41.25 -13.38,-72.19 -40.41,-92.82 -26.79,-20.63 -63.02,-30.94 -109.02,-30.94l-139.66 0 0 241.97zm572.31 -259.83c-17.56,0 -32.89,-6.4 -45.7,-18.94 -12.57,-12.81 -18.97,-28.14 -18.97,-46 0,-17.56 6.4,-32.89 18.97,-45.43 12.81,-12.84 28.14,-19.24 45.7,-19.24 17.83,0 33.16,6.4 45.73,19.24 12.81,12.54 19.21,27.87 19.21,45.43 0,17.86 -6.4,33.19 -19.21,46 -12.57,12.54 -27.9,18.94 -45.73,18.94zm-64.67 283.23c0,-17.56 6.4,-32.89 18.97,-45.7 12.81,-12.84 28.14,-19.24 45.7,-19.24 17.83,0 33.16,6.4 45.73,19.24 12.81,12.81 19.21,28.14 19.21,45.7 0,17.86 -6.4,33.19 -19.21,46 -12.57,12.54 -27.9,18.97 -45.73,18.97 -17.56,0 -32.89,-6.43 -45.7,-18.97 -12.57,-12.81 -18.97,-28.14 -18.97,-46zm508.45 -289.06c0,-25.38 1.38,-51.86 3.88,-79.47 2.53,-27.6 7.25,-54.9 14.22,-81.39 6.98,-26.49 16.18,-51.83 27.6,-76.1 11.43,-24.26 26.22,-45.43 44.32,-63.56 18.13,-18.13 39.33,-32.35 63.86,-43.21 24.5,-10.88 53.22,-16.18 86.11,-16.18 32.62,0 61.34,5.29 85.87,16.18 24.8,10.85 46,25.08 64.13,43.21 18.1,18.13 32.59,39.3 44.02,63.56 11.46,24.26 20.66,49.61 27.6,76.1 6.98,26.49 11.73,53.79 14.22,81.39 2.8,27.6 4.18,54.09 4.18,79.47 0,36.8 -3.34,76.1 -10.01,118.19 -6.43,41.82 -18.7,80.85 -36.53,116.81 -17.56,35.96 -42.09,65.79 -73.33,89.48 -30.94,23.69 -71.08,35.39 -120.15,35.39 -49.34,0 -89.48,-11.7 -120.69,-35.39 -30.94,-23.69 -55.47,-53.52 -73.03,-89.48 -17.56,-35.96 -29.83,-74.99 -36.53,-116.81 -6.4,-42.09 -9.74,-81.39 -9.74,-118.19zm94.5 0c0,23.12 1.38,50.18 4.18,81.66 3.07,31.51 9.47,61.61 19.21,90.89 9.77,29.25 24.53,54.09 43.78,74.41 19.24,20.35 45.43,30.4 78.32,30.4 32.62,0 58.84,-10.04 78.05,-30.4 19.24,-20.32 34.04,-45.16 43.78,-74.41 9.77,-29.28 16.18,-59.38 19.24,-90.89 3.07,-31.48 4.45,-58.54 4.45,-81.66 0,-15.91 -0.54,-33.73 -1.65,-53.52 -0.84,-20.08 -3.37,-40.44 -6.98,-61.06 -3.64,-20.63 -8.66,-40.71 -15.06,-59.92 -6.4,-19.24 -15.33,-36.8 -26.19,-52.14 -10.88,-15.33 -23.99,-27.6 -39.87,-36.8 -15.6,-9.2 -34.31,-13.92 -55.77,-13.92 -21.74,0 -40.41,4.72 -56.28,13.92 -15.63,9.2 -28.71,21.47 -39.6,36.8 -10.88,15.33 -19.51,32.89 -26.22,52.14 -6.4,19.21 -11.7,39.3 -15.3,59.92 -3.64,20.63 -5.86,40.98 -6.7,61.06 -0.84,19.78 -1.38,37.61 -1.38,53.52zm546.67 478.09l-80.85 0 68.01 -241.97 95.34 0 -82.5 241.97zm411.16 -718.11l-127.96 118.19 -55.2 -66.06 193.75 -160.28 83.64 0 0 696.34 -94.23 0 0 -588.19zm326.16 487.83l279.32 -277.36c9.77,-9.2 19.24,-18.94 28.44,-29.83 9.2,-10.88 17.56,-22.04 24.53,-33.73 7.25,-12 13.11,-24.53 17.29,-37.64 4.18,-13.08 6.4,-27.03 6.4,-41.25 0,-16.99 -3.07,-32.62 -9.47,-46.27 -6.13,-13.65 -14.52,-25.38 -25.38,-34.85 -10.88,-9.47 -23.69,-16.72 -38.49,-22.01 -14.76,-5.29 -30.1,-8.09 -46.54,-8.09 -34.01,0 -62.18,9.47 -84.46,28.71 -22.31,18.94 -36.53,45.16 -42.39,78.59l-102.29 -8.9c4.72,-30.94 13.65,-57.43 27.03,-80.01 13.38,-22.58 30.1,-41.55 50.18,-56.59 20.08,-15.33 42.93,-26.49 68.85,-33.46 25.92,-7.25 53.82,-10.88 83.92,-10.88 30.37,0 58.81,4.21 85.3,12.27 26.49,8.09 49.91,20.35 69.69,36.53 20.05,15.88 35.69,35.96 47.11,59.92 11.43,23.69 17.29,51.86 17.29,83.92 0,23.15 -3.37,44.62 -10.31,64.67 -6.98,19.78 -15.91,38.76 -27.06,56.31 -11.15,17.56 -23.96,34.28 -38.45,50.18 -14.22,15.88 -29.28,31.21 -45.16,46.27l-229.17 221.35 350.15 0 0 82.5 -456.35 0 0 -100.36zm831.85 -169.21l-3.91 0c-21.47,10.61 -47.11,15.91 -76.67,15.91 -24.8,0 -50.18,-4.18 -75.83,-12.84 -25.35,-8.63 -48.5,-21.74 -69.12,-39.84 -20.63,-18.13 -37.64,-40.98 -50.72,-68.88 -13.11,-27.87 -19.81,-60.76 -19.81,-98.68 0,-38.18 6.43,-71.65 19.24,-100.9 12.84,-29.28 30.1,-53.52 51.56,-73.3 21.77,-19.81 47.11,-34.58 75.83,-44.62 28.71,-10.31 59.65,-15.33 92.54,-15.33 32.62,0 63.56,5.29 92.27,15.91 29.01,10.31 54.36,25.35 75.83,45.16 21.47,19.78 38.76,43.21 51.56,70.81 12.84,27.57 19.24,58.24 19.24,92.27 0,21.74 -1.65,41.52 -5.02,59.08 -3.07,17.56 -7.79,34.58 -14.22,50.75 -6.13,15.88 -13.38,31.75 -22.01,47.66 -8.63,15.6 -18.13,31.78 -28.44,48.23l-176.16 278.2 -111.25 0 175.08 -269.58zm87.52 -211.31c0,-20.9 -3.34,-40.41 -10.31,-57.97 -6.98,-17.56 -16.72,-32.89 -29.56,-45.73 -12.54,-12.81 -27.87,-22.85 -45.7,-30.1 -17.56,-7.25 -37.37,-10.85 -58.84,-10.85 -21.74,0 -41.52,3.61 -59.08,10.85 -17.56,7.25 -32.89,17.29 -45.73,30.1 -12.81,12.84 -22.58,28.17 -29.53,45.73 -6.98,17.56 -10.34,37.07 -10.34,57.97 0,20.93 3.37,40.44 10.34,58 6.95,17.56 16.72,32.89 29.53,45.73 12.84,12.81 28.17,22.85 45.73,30.1 17.56,6.98 37.34,10.58 59.08,10.58 21.47,0 41.28,-3.61 58.84,-10.58 17.83,-7.25 33.16,-17.29 45.7,-30.1 12.84,-12.84 22.58,-28.17 29.56,-45.73 6.98,-17.56 10.31,-37.07 10.31,-58zm256.77 610.8l-80.85 0 68.01 -241.97 95.34 0 -82.5 241.97zm411.16 -718.11l-127.96 118.19 -55.2 -66.06 193.75 -160.28 83.64 0 0 696.34 -94.23 0 0 -588.19zm611.34 434.88l-296.88 0 0 -96.45 277.36 -446.58 114.01 0 0 460.23 98.41 0 0 82.8 -98.41 0 0 153.31 -94.5 0 0 -153.31zm0 -430.97l-1.95 0 -212.42 348.17 214.37 0 0 -348.17zm361.01 414.23c11.15,33.46 25.92,58.27 44.59,74.72 18.7,16.45 46.57,24.53 83.07,24.53 18.4,0 35.69,-3.07 51.59,-9.2 16.15,-6.4 30.37,-14.76 42.9,-25.65 12.57,-10.88 22.31,-23.96 29.56,-39.3 7.25,-15.33 10.88,-32.62 10.88,-51.86 0,-28.71 -6.13,-51.83 -18.4,-69.12 -12,-17.56 -27.6,-30.67 -46.84,-39.3 -18.94,-8.93 -39.87,-14.79 -62.99,-17.29 -22.85,-2.53 -45.43,-3.91 -67.74,-3.91l0 -82.8c36.23,0 65.79,-2.5 88.64,-7.25 22.88,-4.72 40.98,-11.7 54.09,-20.9 13.11,-9.2 22.31,-20.93 27.6,-34.58 5.29,-13.65 7.79,-29.25 7.79,-46.27 0,-37.34 -11.12,-65.51 -33.43,-84.46 -22.31,-19.24 -50.18,-28.71 -83.64,-28.71 -25.35,0 -48.5,7.52 -69.39,22.31 -20.63,14.76 -36.26,34.01 -46.57,58.24l-96.45 -32.32c18.4,-44.62 46.57,-77.51 84.19,-98.68 37.64,-21.47 79.74,-32.08 126.28,-32.08 28.17,0 55.2,3.91 81.12,11.46 25.95,7.52 48.8,18.94 68.31,34.85 19.78,15.6 35.42,35.39 46.84,59.35 11.43,23.99 17.26,52.14 17.26,84.19 0,36.53 -11.12,69.42 -33.16,98.41 -22.01,28.71 -50.45,48.53 -85.84,58.84l0 1.92c21.44,3.91 40.95,11.15 57.97,21.77 17.02,10.31 31.51,23.39 43.21,39.3 12,15.88 20.63,33.46 26.49,52.68 5.86,19.24 8.93,39.87 8.93,61.34 0,33.46 -6.43,62.72 -19.24,88.09 -12.54,25.38 -29.56,46.27 -51.02,62.99 -21.47,16.75 -46,29.28 -73.87,37.91 -27.87,8.36 -57.13,12.54 -87.79,12.54 -53.25,0 -99.82,-11.97 -140.23,-36.23 -40.41,-24.26 -68.31,-62.72 -84.19,-115.12l99.52 -30.4z"/>
   <path class="fil2" d="M21442.12 13574.97l94.5 0 0 289.06 360.74 0 0 -289.06 94.5 0 0 696.34 -94.5 0 0 -318.61 -360.74 0 0 318.61 -94.5 0 0 -696.34zm728.69 0l449.37 0 0 88.64 -354.87 0 0 207.4 330.34 0 0 88.64 -330.34 0 0 223.03 372.7 0 0 88.64 -467.2 0 0 -696.34zm762.12 330.61l-234.16 -330.61 120.99 0 180.91 267.59 178.99 -267.59 117.92 0 -231.93 329.5 255.62 366.84 -123.78 0 -199.88 -301.9 -200.42 301.9 -117.08 0 252.83 -365.73zm522.98 23.39c-17.56,0 -32.89,-6.4 -45.7,-18.94 -12.57,-12.81 -18.97,-28.14 -18.97,-46 0,-17.56 6.4,-32.89 18.97,-45.43 12.81,-12.84 28.14,-19.24 45.7,-19.24 17.83,0 33.16,6.4 45.73,19.24 12.81,12.54 19.21,27.87 19.21,45.43 0,17.86 -6.4,33.19 -19.21,46 -12.57,12.54 -27.9,18.94 -45.73,18.94zm-64.67 283.23c0,-17.56 6.4,-32.89 18.97,-45.7 12.81,-12.84 28.14,-19.24 45.7,-19.24 17.83,0 33.16,6.4 45.73,19.24 12.81,12.81 19.21,28.14 19.21,45.7 0,17.86 -6.4,33.19 -19.21,46 -12.57,12.54 -27.9,18.97 -45.73,18.97 -17.56,0 -32.89,-6.43 -45.7,-18.97 -12.57,-12.81 -18.97,-28.14 -18.97,-46zm592.91 -141.61l-93.39 0 0 -76.64 104.24 0 19.81 -141.61 -93.39 0 0 -76.67 104.24 0 27.33 -200.69 77.78 0 -27.6 200.69 114.01 0 27.6 -200.69 77.78 0 -27.6 200.69 93.39 0 0 76.67 -104.27 0 -19.51 141.61 93.39 0 0 76.64 -104.24 0 -27.6 200.72 -77.78 0 27.6 -200.72 -114.01 0 -27.6 200.72 -77.51 0 27.33 -200.72zm108.15 -218.25l-19.51 141.61 114.01 0 19.81 -141.61 -114.31 0zm354.06 70.81c0,-25.38 1.38,-51.86 3.88,-79.47 2.53,-27.6 7.25,-54.9 14.22,-81.39 6.98,-26.49 16.18,-51.83 27.6,-76.1 11.43,-24.26 26.22,-45.43 44.32,-63.56 18.13,-18.13 39.33,-32.35 63.86,-43.21 24.5,-10.88 53.22,-16.18 86.11,-16.18 32.62,0 61.34,5.29 85.87,16.18 24.8,10.85 46,25.08 64.13,43.21 18.1,18.13 32.59,39.3 44.02,63.56 11.46,24.26 20.66,49.61 27.6,76.1 6.98,26.49 11.73,53.79 14.22,81.39 2.8,27.6 4.18,54.09 4.18,79.47 0,36.8 -3.34,76.1 -10.01,118.19 -6.43,41.82 -18.7,80.85 -36.53,116.81 -17.56,35.96 -42.09,65.79 -73.33,89.48 -30.94,23.69 -71.08,35.39 -120.15,35.39 -49.34,0 -89.48,-11.7 -120.69,-35.39 -30.94,-23.69 -55.47,-53.52 -73.03,-89.48 -17.56,-35.96 -29.83,-74.99 -36.53,-116.81 -6.4,-42.09 -9.74,-81.39 -9.74,-118.19zm94.5 0c0,23.12 1.38,50.18 4.18,81.66 3.07,31.51 9.47,61.61 19.21,90.89 9.77,29.25 24.53,54.09 43.78,74.41 19.24,20.35 45.43,30.4 78.32,30.4 32.62,0 58.84,-10.04 78.05,-30.4 19.24,-20.32 34.04,-45.16 43.78,-74.41 9.77,-29.28 16.18,-59.38 19.24,-90.89 3.07,-31.48 4.45,-58.54 4.45,-81.66 0,-15.91 -0.54,-33.73 -1.65,-53.52 -0.84,-20.08 -3.37,-40.44 -6.98,-61.06 -3.64,-20.63 -8.66,-40.71 -15.06,-59.92 -6.4,-19.24 -15.33,-36.8 -26.19,-52.14 -10.88,-15.33 -23.99,-27.6 -39.87,-36.8 -15.6,-9.2 -34.31,-13.92 -55.77,-13.92 -21.74,0 -40.41,4.72 -56.28,13.92 -15.63,9.2 -28.71,21.47 -39.6,36.8 -10.88,15.33 -19.51,32.89 -26.22,52.14 -6.4,19.21 -11.7,39.3 -15.3,59.92 -3.64,20.63 -5.86,40.98 -6.7,61.06 -0.84,19.78 -1.38,37.61 -1.38,53.52zm452.17 0c0,-25.38 1.38,-51.86 3.88,-79.47 2.53,-27.6 7.25,-54.9 14.22,-81.39 6.98,-26.49 16.18,-51.83 27.6,-76.1 11.43,-24.26 26.22,-45.43 44.32,-63.56 18.13,-18.13 39.33,-32.35 63.86,-43.21 24.5,-10.88 53.22,-16.18 86.11,-16.18 32.62,0 61.34,5.29 85.87,16.18 24.8,10.85 46,25.08 64.13,43.21 18.1,18.13 32.59,39.3 44.02,63.56 11.46,24.26 20.66,49.61 27.6,76.1 6.98,26.49 11.73,53.79 14.22,81.39 2.8,27.6 4.18,54.09 4.18,79.47 0,36.8 -3.34,76.1 -10.01,118.19 -6.43,41.82 -18.7,80.85 -36.53,116.81 -17.56,35.96 -42.09,65.79 -73.33,89.48 -30.94,23.69 -71.08,35.39 -120.15,35.39 -49.34,0 -89.48,-11.7 -120.69,-35.39 -30.94,-23.69 -55.47,-53.52 -73.03,-89.48 -17.56,-35.96 -29.83,-74.99 -36.53,-116.81 -6.4,-42.09 -9.74,-81.39 -9.74,-118.19zm94.5 0c0,23.12 1.38,50.18 4.18,81.66 3.07,31.51 9.47,61.61 19.21,90.89 9.77,29.25 24.53,54.09 43.78,74.41 19.24,20.35 45.43,30.4 78.32,30.4 32.62,0 58.84,-10.04 78.05,-30.4 19.24,-20.32 34.04,-45.16 43.78,-74.41 9.77,-29.28 16.18,-59.38 19.24,-90.89 3.07,-31.48 4.45,-58.54 4.45,-81.66 0,-15.91 -0.54,-33.73 -1.65,-53.52 -0.84,-20.08 -3.37,-40.44 -6.98,-61.06 -3.64,-20.63 -8.66,-40.71 -15.06,-59.92 -6.4,-19.24 -15.33,-36.8 -26.19,-52.14 -10.88,-15.33 -23.99,-27.6 -39.87,-36.8 -15.6,-9.2 -34.31,-13.92 -55.77,-13.92 -21.74,0 -40.41,4.72 -56.28,13.92 -15.63,9.2 -28.71,21.47 -39.6,36.8 -10.88,15.33 -19.51,32.89 -26.22,52.14 -6.4,19.21 -11.7,39.3 -15.3,59.92 -3.64,20.63 -5.86,40.98 -6.7,61.06 -0.84,19.78 -1.38,37.61 -1.38,53.52zm692.16 359.87c-31.48,0 -61.31,-4.72 -89.18,-14.19 -27.6,-9.5 -51.86,-23.42 -72.22,-41.82 -20.35,-18.4 -36.23,-40.71 -48.23,-66.9 -11.7,-26.22 -17.56,-55.77 -17.56,-88.37 0,-21.77 3.34,-41.82 10.31,-59.95 6.98,-18.4 16.18,-34.85 27.87,-49.61 12,-14.79 25.95,-27.33 41.82,-37.37 16.18,-10.31 33.73,-17.83 52.68,-23.12l0 -3.07c-13.08,-3.34 -26.19,-9.2 -39.3,-17.56 -13.11,-8.66 -24.8,-19.51 -35.12,-32.62 -10.04,-13.11 -18.4,-28.98 -25.11,-47.66 -6.4,-18.7 -9.74,-40.17 -9.74,-64.4 0,-26.22 5.29,-49.91 16.18,-71.38 10.85,-21.47 25.65,-39.57 44.32,-54.63 18.67,-15.06 40.41,-26.76 64.94,-34.85 24.8,-8.09 50.75,-12.27 78.32,-12.27 27.6,0 53.55,4.18 78.05,12.27 24.53,8.09 46.3,19.78 64.97,34.85 18.67,15.06 33.43,33.16 44.32,54.63 10.88,21.47 16.18,45.16 16.18,71.38 0,24.23 -3.37,45.7 -10.04,64.4 -6.4,18.67 -14.76,34.55 -25.11,47.66 -10.01,13.11 -21.74,23.96 -34.82,32.62 -13.11,8.36 -26.22,14.22 -39.33,17.56l0 3.07c19.24,5.29 36.8,12.81 52.71,23.12 16.15,10.04 30.1,22.58 41.79,37.37 12,14.76 21.2,31.21 28.17,49.61 6.98,18.13 10.31,38.18 10.31,59.95 0,32.59 -5.86,62.15 -17.86,88.37 -11.7,26.19 -27.87,48.5 -48.23,66.9 -20.32,18.4 -44.32,32.32 -72.19,41.82 -27.87,9.47 -57.43,14.19 -88.94,14.19zm-109.26 -532.99c0,13.65 2.5,27.33 7.25,40.41 5.02,13.11 12,24.53 21.2,34.85 9.2,10.31 20.63,18.7 34.01,25.11 13.38,6.4 28.98,9.74 46.81,9.74 18.4,0 34.31,-3.07 47.69,-9.2 13.38,-6.4 24.53,-14.49 33.73,-24.5 9.2,-10.34 16.15,-21.77 20.63,-34.85 4.72,-13.11 6.98,-27.06 6.98,-41.55 0,-32.05 -10.04,-58.54 -30.13,-79.16 -19.78,-20.63 -46.27,-30.94 -78.89,-30.94 -30.37,0 -56.01,10.31 -77.48,30.67 -21.2,20.35 -31.78,46.81 -31.78,79.44zm109.26 450.49c39.33,0 71.11,-12 95.64,-35.96 24.8,-23.96 37.07,-54.93 37.07,-92.82 0,-20.93 -3.37,-39.6 -10.31,-55.5 -6.98,-16.15 -16.45,-29.53 -28.71,-40.41 -12,-10.85 -26.22,-18.94 -42.09,-24.53 -15.91,-5.56 -33.19,-8.36 -51.59,-8.36 -38.73,0.57 -70.51,12.84 -95.61,36.8 -24.8,23.96 -37.34,54.63 -37.34,92 0,20.32 3.61,38.45 10.85,54.63 7.28,15.88 17.02,29.25 29.01,40.14 12.27,10.85 26.49,19.24 42.36,25.08 15.88,5.86 32.89,8.93 50.72,8.93zm538.88 -517.38l-127.96 118.19 -55.2 -66.06 193.75 -160.28 83.64 0 0 696.34 -94.23 0 0 -588.19zm554.46 599.89c-31.48,0 -61.31,-4.72 -89.18,-14.19 -27.6,-9.5 -51.86,-23.42 -72.22,-41.82 -20.35,-18.4 -36.23,-40.71 -48.23,-66.9 -11.7,-26.22 -17.56,-55.77 -17.56,-88.37 0,-21.77 3.34,-41.82 10.31,-59.95 6.98,-18.4 16.18,-34.85 27.87,-49.61 12,-14.79 25.95,-27.33 41.82,-37.37 16.18,-10.31 33.73,-17.83 52.68,-23.12l0 -3.07c-13.08,-3.34 -26.19,-9.2 -39.3,-17.56 -13.11,-8.66 -24.8,-19.51 -35.12,-32.62 -10.04,-13.11 -18.4,-28.98 -25.11,-47.66 -6.4,-18.7 -9.74,-40.17 -9.74,-64.4 0,-26.22 5.29,-49.91 16.18,-71.38 10.85,-21.47 25.65,-39.57 44.32,-54.63 18.67,-15.06 40.41,-26.76 64.94,-34.85 24.8,-8.09 50.75,-12.27 78.32,-12.27 27.6,0 53.55,4.18 78.05,12.27 24.53,8.09 46.3,19.78 64.97,34.85 18.67,15.06 33.43,33.16 44.32,54.63 10.88,21.47 16.18,45.16 16.18,71.38 0,24.23 -3.37,45.7 -10.04,64.4 -6.4,18.67 -14.76,34.55 -25.11,47.66 -10.01,13.11 -21.74,23.96 -34.82,32.62 -13.11,8.36 -26.22,14.22 -39.33,17.56l0 3.07c19.24,5.29 36.8,12.81 52.71,23.12 16.15,10.04 30.1,22.58 41.79,37.37 12,14.76 21.2,31.21 28.17,49.61 6.98,18.13 10.31,38.18 10.31,59.95 0,32.59 -5.86,62.15 -17.86,88.37 -11.7,26.19 -27.87,48.5 -48.23,66.9 -20.32,18.4 -44.32,32.32 -72.19,41.82 -27.87,9.47 -57.43,14.19 -88.94,14.19zm-109.26 -532.99c0,13.65 2.5,27.33 7.25,40.41 5.02,13.11 12,24.53 21.2,34.85 9.2,10.31 20.63,18.7 34.01,25.11 13.38,6.4 28.98,9.74 46.81,9.74 18.4,0 34.31,-3.07 47.69,-9.2 13.38,-6.4 24.53,-14.49 33.73,-24.5 9.2,-10.34 16.15,-21.77 20.63,-34.85 4.72,-13.11 6.98,-27.06 6.98,-41.55 0,-32.05 -10.04,-58.54 -30.13,-79.16 -19.78,-20.63 -46.27,-30.94 -78.89,-30.94 -30.37,0 -56.01,10.31 -77.48,30.67 -21.2,20.35 -31.78,46.81 -31.78,79.44zm109.26 450.49c39.33,0 71.11,-12 95.64,-35.96 24.8,-23.96 37.07,-54.93 37.07,-92.82 0,-20.93 -3.37,-39.6 -10.31,-55.5 -6.98,-16.15 -16.45,-29.53 -28.71,-40.41 -12,-10.85 -26.22,-18.94 -42.09,-24.53 -15.91,-5.56 -33.19,-8.36 -51.59,-8.36 -38.73,0.57 -70.51,12.84 -95.61,36.8 -24.8,23.96 -37.34,54.63 -37.34,92 0,20.32 3.61,38.45 10.85,54.63 7.28,15.88 17.02,29.25 29.01,40.14 12.27,10.85 26.49,19.24 42.36,25.08 15.88,5.86 32.89,8.93 50.72,8.93zm362.69 -625.53l437.68 0 0 88.64 -343.18 0 0 218.28 319.49 0 0 88.37 -319.49 0 0 301.06 -94.5 0 0 -696.34z"/>
   <path class="fil2" d="M21926.88 14905.56c-19.78,-25.65 -44.59,-45.43 -74.69,-59.08 -30.13,-13.68 -61.34,-20.63 -93.39,-20.63 -39.33,0 -74.99,7.52 -106.77,22.28 -31.78,14.79 -59.11,34.85 -81.69,60.49 -22.58,25.38 -39.87,55.47 -52.41,90.05 -12.54,34.28 -18.67,71.08 -18.67,110.37 0,36.8 5.86,71.65 17.56,104.54 12,32.62 28.98,61.61 51.29,86.44 22.31,24.8 49.34,44.59 81.39,59.08 32.05,14.22 68.58,21.47 109.29,21.47 39.87,0 74.99,-8.09 105.08,-24.53 30.4,-16.45 56.04,-39.3 76.94,-68.85l79.44 59.92c-5.29,7.25 -14.49,17.59 -27.57,30.97 -13.11,13.38 -30.4,26.76 -52.14,40.41 -21.47,13.38 -47.69,25.08 -78.05,35.39 -30.4,10.31 -65.79,15.33 -105.65,15.33 -54.93,0 -104.81,-10.58 -149.13,-31.48 -44.35,-20.93 -81.96,-48.53 -113.2,-82.53 -30.94,-34.28 -54.63,-72.76 -71.08,-115.67 -16.45,-42.93 -24.53,-86.44 -24.53,-130.49 0,-53.79 8.93,-103.4 26.49,-148.86 17.56,-45.43 42.36,-84.73 74.14,-117.89 32.05,-33.19 70.27,-59.11 114.58,-77.24 44.59,-18.4 93.93,-27.6 147.75,-27.6 46,0 90.86,8.93 135.18,26.49 44.35,17.56 80.31,44.89 108.45,81.69l-78.62 59.92zm200.72 -150.51l140.8 0 221.32 527.12 3.91 0 219.09 -527.12 140.8 0 0 696.34 -94.5 0 0 -572.31 -1.95 0 -235 572.31 -63.02 0 -235 -572.31 -1.95 0 0 572.31 -94.5 0 0 -696.34zm1062.1 399.46l-263.44 -399.46 120.99 0 189.84 305.78 195.7 -305.78 114.85 0 -263.44 399.46 0 296.88 -94.5 0 0 -296.88zm437.65 -399.46l94.5 0 0 301.06 7.82 0 307.76 -301.06 131.84 0 -336.47 321.68 359.05 374.66 -137.7 0 -324.48 -348.17 -7.82 0 0 348.17 -94.5 0 0 -696.34zm684.37 354c-17.56,0 -32.89,-6.4 -45.7,-18.94 -12.57,-12.81 -18.97,-28.14 -18.97,-46 0,-17.56 6.4,-32.89 18.97,-45.43 12.81,-12.84 28.14,-19.24 45.7,-19.24 17.83,0 33.16,6.4 45.73,19.24 12.81,12.54 19.21,27.87 19.21,45.43 0,17.86 -6.4,33.19 -19.21,46 -12.57,12.54 -27.9,18.94 -45.73,18.94zm-64.67 283.23c0,-17.56 6.4,-32.89 18.97,-45.7 12.81,-12.84 28.14,-19.24 45.7,-19.24 17.83,0 33.16,6.4 45.73,19.24 12.81,12.81 19.21,28.14 19.21,45.7 0,17.86 -6.4,33.19 -19.21,46 -12.57,12.54 -27.9,18.97 -45.73,18.97 -17.56,0 -32.89,-6.43 -45.7,-18.97 -12.57,-12.81 -18.97,-28.14 -18.97,-46zm748.44 70.81c-31.48,0 -61.31,-4.72 -89.18,-14.19 -27.6,-9.5 -51.86,-23.42 -72.22,-41.82 -20.35,-18.4 -36.23,-40.71 -48.23,-66.9 -11.7,-26.22 -17.56,-55.77 -17.56,-88.37 0,-21.77 3.34,-41.82 10.31,-59.95 6.98,-18.4 16.18,-34.85 27.87,-49.61 12,-14.79 25.95,-27.33 41.82,-37.37 16.18,-10.31 33.73,-17.83 52.68,-23.12l0 -3.07c-13.08,-3.34 -26.19,-9.2 -39.3,-17.56 -13.11,-8.66 -24.8,-19.51 -35.12,-32.62 -10.04,-13.11 -18.4,-28.98 -25.11,-47.66 -6.4,-18.7 -9.74,-40.17 -9.74,-64.4 0,-26.22 5.29,-49.91 16.18,-71.38 10.85,-21.47 25.65,-39.57 44.32,-54.63 18.67,-15.06 40.41,-26.76 64.94,-34.85 24.8,-8.09 50.75,-12.27 78.32,-12.27 27.6,0 53.55,4.18 78.05,12.27 24.53,8.09 46.3,19.78 64.97,34.85 18.67,15.06 33.43,33.16 44.32,54.63 10.88,21.47 16.18,45.16 16.18,71.38 0,24.23 -3.37,45.7 -10.04,64.4 -6.4,18.67 -14.76,34.55 -25.11,47.66 -10.01,13.11 -21.74,23.96 -34.82,32.62 -13.11,8.36 -26.22,14.22 -39.33,17.56l0 3.07c19.24,5.29 36.8,12.81 52.71,23.12 16.15,10.04 30.1,22.58 41.79,37.37 12,14.76 21.2,31.21 28.17,49.61 6.98,18.13 10.31,38.18 10.31,59.95 0,32.59 -5.86,62.15 -17.86,88.37 -11.7,26.19 -27.87,48.5 -48.23,66.9 -20.32,18.4 -44.32,32.32 -72.19,41.82 -27.87,9.47 -57.43,14.19 -88.94,14.19zm-109.26 -532.99c0,13.65 2.5,27.33 7.25,40.41 5.02,13.11 12,24.53 21.2,34.85 9.2,10.31 20.63,18.7 34.01,25.11 13.38,6.4 28.98,9.74 46.81,9.74 18.4,0 34.31,-3.07 47.69,-9.2 13.38,-6.4 24.53,-14.49 33.73,-24.5 9.2,-10.34 16.15,-21.77 20.63,-34.85 4.72,-13.11 6.98,-27.06 6.98,-41.55 0,-32.05 -10.04,-58.54 -30.13,-79.16 -19.78,-20.63 -46.27,-30.94 -78.89,-30.94 -30.37,0 -56.01,10.31 -77.48,30.67 -21.2,20.35 -31.78,46.81 -31.78,79.44zm109.26 450.49c39.33,0 71.11,-12 95.64,-35.96 24.8,-23.96 37.07,-54.93 37.07,-92.82 0,-20.93 -3.37,-39.6 -10.31,-55.5 -6.98,-16.15 -16.45,-29.53 -28.71,-40.41 -12,-10.85 -26.22,-18.94 -42.09,-24.53 -15.91,-5.56 -33.19,-8.36 -51.59,-8.36 -38.73,0.57 -70.51,12.84 -95.61,36.8 -24.8,23.96 -37.34,54.63 -37.34,92 0,20.32 3.61,38.45 10.85,54.63 7.28,15.88 17.02,29.25 29.01,40.14 12.27,10.85 26.49,19.24 42.36,25.08 15.88,5.86 32.89,8.93 50.72,8.93zm417.89 -99.25c11.15,33.46 25.92,58.27 44.59,74.72 18.7,16.45 46.57,24.53 83.07,24.53 18.4,0 35.69,-3.07 51.59,-9.2 16.15,-6.4 30.37,-14.76 42.9,-25.65 12.57,-10.88 22.31,-23.96 29.56,-39.3 7.25,-15.33 10.88,-32.62 10.88,-51.86 0,-28.71 -6.13,-51.83 -18.4,-69.12 -12,-17.56 -27.6,-30.67 -46.84,-39.3 -18.94,-8.93 -39.87,-14.79 -62.99,-17.29 -22.85,-2.53 -45.43,-3.91 -67.74,-3.91l0 -82.8c36.23,0 65.79,-2.5 88.64,-7.25 22.88,-4.72 40.98,-11.7 54.09,-20.9 13.11,-9.2 22.31,-20.93 27.6,-34.58 5.29,-13.65 7.79,-29.25 7.79,-46.27 0,-37.34 -11.12,-65.51 -33.43,-84.46 -22.31,-19.24 -50.18,-28.71 -83.64,-28.71 -25.35,0 -48.5,7.52 -69.39,22.31 -20.63,14.76 -36.26,34.01 -46.57,58.24l-96.45 -32.32c18.4,-44.62 46.57,-77.51 84.19,-98.68 37.64,-21.47 79.74,-32.08 126.28,-32.08 28.17,0 55.2,3.91 81.12,11.46 25.95,7.52 48.8,18.94 68.31,34.85 19.78,15.6 35.42,35.39 46.84,59.35 11.43,23.99 17.26,52.14 17.26,84.19 0,36.53 -11.12,69.42 -33.16,98.41 -22.01,28.71 -50.45,48.53 -85.84,58.84l0 1.92c21.44,3.91 40.95,11.15 57.97,21.77 17.02,10.31 31.51,23.39 43.21,39.3 12,15.88 20.63,33.46 26.49,52.68 5.86,19.24 8.93,39.87 8.93,61.34 0,33.46 -6.43,62.72 -19.24,88.09 -12.54,25.38 -29.56,46.27 -51.02,62.99 -21.47,16.75 -46,29.28 -73.87,37.91 -27.87,8.36 -57.13,12.54 -87.79,12.54 -53.25,0 -99.82,-11.97 -140.23,-36.23 -40.41,-24.26 -68.31,-62.72 -84.19,-115.12l99.52 -30.4zm633.08 200.45l-59.08 -30.4 437.65 -727.85 59.11 30.67 -437.68 727.58zm-194.56 -570.36c0,-24.26 4.45,-46.84 13.65,-67.74 9.2,-20.9 21.47,-39.3 37.34,-54.93 15.91,-15.88 34.01,-28.14 54.93,-37.34 20.9,-9.2 43.75,-13.95 68.01,-13.95 24.26,0 46.84,4.75 67.74,13.95 20.9,9.2 39.3,21.47 55.2,37.34 15.88,15.63 28.14,34.04 37.34,54.93 9.2,20.9 13.68,43.48 13.68,67.74 0,24.26 -4.48,47.11 -13.68,68.01 -9.2,20.93 -21.47,39.3 -37.34,55.2 -15.91,15.6 -34.31,28.14 -55.2,37.34 -20.9,9.2 -43.48,13.68 -67.74,13.68 -24.26,0 -47.11,-4.48 -68.01,-13.68 -20.93,-9.2 -39.03,-21.74 -54.93,-37.34 -15.88,-15.91 -28.14,-34.28 -37.34,-55.2 -9.2,-20.9 -13.65,-43.75 -13.65,-68.01zm76.64 0c0,27.6 9.2,50.72 27.87,69.42 18.7,18.67 41.82,27.87 69.42,27.87 27.6,0 50.45,-9.2 69.12,-27.87 18.7,-18.7 28.17,-41.82 28.17,-69.42 0,-27.6 -9.47,-50.45 -28.17,-69.12 -18.67,-18.7 -41.52,-28.17 -69.12,-28.17 -27.6,0 -50.72,9.47 -69.42,28.17 -18.67,18.67 -27.87,41.52 -27.87,69.12zm340.11 383.59c0,-24.26 4.45,-46.84 13.65,-67.74 9.2,-20.93 21.74,-39.33 37.34,-55.2 15.91,-15.91 34.31,-28.17 55.2,-37.37 20.9,-9.2 43.78,-13.65 68.01,-13.65 24.26,0 46.84,4.45 67.74,13.65 20.93,9.2 39.33,21.47 54.93,37.37 15.88,15.88 28.14,34.28 37.34,55.2 9.2,20.9 13.95,43.48 13.95,67.74 0,24.23 -4.75,47.11 -13.95,68.01 -9.2,20.9 -21.47,39.03 -37.34,54.9 -15.6,15.91 -34.01,28.17 -54.93,37.37 -20.9,9.2 -43.48,13.92 -67.74,13.92 -24.23,0 -47.11,-4.72 -68.01,-13.92 -20.9,-9.2 -39.3,-21.47 -55.2,-37.37 -15.6,-15.88 -28.14,-34.01 -37.34,-54.9 -9.2,-20.9 -13.65,-43.78 -13.65,-68.01zm76.64 0c0,27.6 9.5,50.72 28.17,69.39 18.67,18.67 41.79,27.87 69.39,27.87 27.6,0 50.48,-9.2 69.15,-27.87 18.67,-18.67 28.14,-41.79 28.14,-69.39 0,-27.6 -9.47,-50.48 -28.14,-69.15 -18.67,-18.67 -41.55,-28.14 -69.15,-28.14 -27.6,0 -50.72,9.47 -69.39,28.14 -18.67,18.67 -28.17,41.55 -28.17,69.15zm435.99 286.29l-80.85 0 68.01 -241.97 95.34 0 -82.5 241.97zm464.11 -230.28l279.32 -277.36c9.77,-9.2 19.24,-18.94 28.44,-29.83 9.2,-10.88 17.56,-22.04 24.53,-33.73 7.25,-12 13.11,-24.53 17.29,-37.64 4.18,-13.08 6.4,-27.03 6.4,-41.25 0,-16.99 -3.07,-32.62 -9.47,-46.27 -6.13,-13.65 -14.52,-25.38 -25.38,-34.85 -10.88,-9.47 -23.69,-16.72 -38.49,-22.01 -14.76,-5.29 -30.1,-8.09 -46.54,-8.09 -34.01,0 -62.18,9.47 -84.46,28.71 -22.31,18.94 -36.53,45.16 -42.39,78.59l-102.29 -8.9c4.72,-30.94 13.65,-57.43 27.03,-80.01 13.38,-22.58 30.1,-41.55 50.18,-56.59 20.08,-15.33 42.93,-26.49 68.85,-33.46 25.92,-7.25 53.82,-10.88 83.92,-10.88 30.37,0 58.81,4.21 85.3,12.27 26.49,8.09 49.91,20.35 69.69,36.53 20.05,15.88 35.69,35.96 47.11,59.92 11.43,23.69 17.29,51.86 17.29,83.92 0,23.15 -3.37,44.62 -10.31,64.67 -6.98,19.78 -15.91,38.76 -27.06,56.31 -11.15,17.56 -23.96,34.28 -38.45,50.18 -14.22,15.88 -29.28,31.21 -45.16,46.27l-229.17 221.35 350.15 0 0 82.5 -456.35 0 0 -100.36zm774.96 112.06c-31.48,0 -61.31,-4.72 -89.18,-14.19 -27.6,-9.5 -51.86,-23.42 -72.22,-41.82 -20.35,-18.4 -36.23,-40.71 -48.23,-66.9 -11.7,-26.22 -17.56,-55.77 -17.56,-88.37 0,-21.77 3.34,-41.82 10.31,-59.95 6.98,-18.4 16.18,-34.85 27.87,-49.61 12,-14.79 25.95,-27.33 41.82,-37.37 16.18,-10.31 33.73,-17.83 52.68,-23.12l0 -3.07c-13.08,-3.34 -26.19,-9.2 -39.3,-17.56 -13.11,-8.66 -24.8,-19.51 -35.12,-32.62 -10.04,-13.11 -18.4,-28.98 -25.11,-47.66 -6.4,-18.7 -9.74,-40.17 -9.74,-64.4 0,-26.22 5.29,-49.91 16.18,-71.38 10.85,-21.47 25.65,-39.57 44.32,-54.63 18.67,-15.06 40.41,-26.76 64.94,-34.85 24.8,-8.09 50.75,-12.27 78.32,-12.27 27.6,0 53.55,4.18 78.05,12.27 24.53,8.09 46.3,19.78 64.97,34.85 18.67,15.06 33.43,33.16 44.32,54.63 10.88,21.47 16.18,45.16 16.18,71.38 0,24.23 -3.37,45.7 -10.04,64.4 -6.4,18.67 -14.76,34.55 -25.11,47.66 -10.01,13.11 -21.74,23.96 -34.82,32.62 -13.11,8.36 -26.22,14.22 -39.33,17.56l0 3.07c19.24,5.29 36.8,12.81 52.71,23.12 16.15,10.04 30.1,22.58 41.79,37.37 12,14.76 21.2,31.21 28.17,49.61 6.98,18.13 10.31,38.18 10.31,59.95 0,32.59 -5.86,62.15 -17.86,88.37 -11.7,26.19 -27.87,48.5 -48.23,66.9 -20.32,18.4 -44.32,32.32 -72.19,41.82 -27.87,9.47 -57.43,14.19 -88.94,14.19zm-109.26 -532.99c0,13.65 2.5,27.33 7.25,40.41 5.02,13.11 12,24.53 21.2,34.85 9.2,10.31 20.63,18.7 34.01,25.11 13.38,6.4 28.98,9.74 46.81,9.74 18.4,0 34.31,-3.07 47.69,-9.2 13.38,-6.4 24.53,-14.49 33.73,-24.5 9.2,-10.34 16.15,-21.77 20.63,-34.85 4.72,-13.11 6.98,-27.06 6.98,-41.55 0,-32.05 -10.04,-58.54 -30.13,-79.16 -19.78,-20.63 -46.27,-30.94 -78.89,-30.94 -30.37,0 -56.01,10.31 -77.48,30.67 -21.2,20.35 -31.78,46.81 -31.78,79.44zm109.26 450.49c39.33,0 71.11,-12 95.64,-35.96 24.8,-23.96 37.07,-54.93 37.07,-92.82 0,-20.93 -3.37,-39.6 -10.31,-55.5 -6.98,-16.15 -16.45,-29.53 -28.71,-40.41 -12,-10.85 -26.22,-18.94 -42.09,-24.53 -15.91,-5.56 -33.19,-8.36 -51.59,-8.36 -38.73,0.57 -70.51,12.84 -95.61,36.8 -24.8,23.96 -37.34,54.63 -37.34,92 0,20.32 3.61,38.45 10.85,54.63 7.28,15.88 17.02,29.25 29.01,40.14 12.27,10.85 26.49,19.24 42.36,25.08 15.88,5.86 32.89,8.93 50.72,8.93zm504.3 101.2l-59.08 -30.4 437.65 -727.85 59.11 30.67 -437.68 727.58zm-194.56 -570.36c0,-24.26 4.45,-46.84 13.65,-67.74 9.2,-20.9 21.47,-39.3 37.34,-54.93 15.91,-15.88 34.01,-28.14 54.93,-37.34 20.9,-9.2 43.75,-13.95 68.01,-13.95 24.26,0 46.84,4.75 67.74,13.95 20.9,9.2 39.3,21.47 55.2,37.34 15.88,15.63 28.14,34.04 37.34,54.93 9.2,20.9 13.68,43.48 13.68,67.74 0,24.26 -4.48,47.11 -13.68,68.01 -9.2,20.93 -21.47,39.3 -37.34,55.2 -15.91,15.6 -34.31,28.14 -55.2,37.34 -20.9,9.2 -43.48,13.68 -67.74,13.68 -24.26,0 -47.11,-4.48 -68.01,-13.68 -20.93,-9.2 -39.03,-21.74 -54.93,-37.34 -15.88,-15.91 -28.14,-34.28 -37.34,-55.2 -9.2,-20.9 -13.65,-43.75 -13.65,-68.01zm76.64 0c0,27.6 9.2,50.72 27.87,69.42 18.7,18.67 41.82,27.87 69.42,27.87 27.6,0 50.45,-9.2 69.12,-27.87 18.7,-18.7 28.17,-41.82 28.17,-69.42 0,-27.6 -9.47,-50.45 -28.17,-69.12 -18.67,-18.7 -41.52,-28.17 -69.12,-28.17 -27.6,0 -50.72,9.47 -69.42,28.17 -18.67,18.67 -27.87,41.52 -27.87,69.12zm340.11 383.59c0,-24.26 4.45,-46.84 13.65,-67.74 9.2,-20.93 21.74,-39.33 37.34,-55.2 15.91,-15.91 34.31,-28.17 55.2,-37.37 20.9,-9.2 43.78,-13.65 68.01,-13.65 24.26,0 46.84,4.45 67.74,13.65 20.93,9.2 39.33,21.47 54.93,37.37 15.88,15.88 28.14,34.28 37.34,55.2 9.2,20.9 13.95,43.48 13.95,67.74 0,24.23 -4.75,47.11 -13.95,68.01 -9.2,20.9 -21.47,39.03 -37.34,54.9 -15.6,15.91 -34.01,28.17 -54.93,37.37 -20.9,9.2 -43.48,13.92 -67.74,13.92 -24.23,0 -47.11,-4.72 -68.01,-13.92 -20.9,-9.2 -39.3,-21.47 -55.2,-37.37 -15.6,-15.88 -28.14,-34.01 -37.34,-54.9 -9.2,-20.9 -13.65,-43.78 -13.65,-68.01zm76.64 0c0,27.6 9.5,50.72 28.17,69.39 18.67,18.67 41.79,27.87 69.39,27.87 27.6,0 50.48,-9.2 69.15,-27.87 18.67,-18.67 28.14,-41.79 28.14,-69.39 0,-27.6 -9.47,-50.48 -28.14,-69.15 -18.67,-18.67 -41.55,-28.14 -69.15,-28.14 -27.6,0 -50.72,9.47 -69.39,28.14 -18.67,18.67 -28.17,41.55 -28.17,69.15zm435.99 286.29l-80.85 0 68.01 -241.97 95.34 0 -82.5 241.97zm563.63 -299.97c11.15,33.46 25.92,58.27 44.59,74.72 18.7,16.45 46.57,24.53 83.07,24.53 18.4,0 35.69,-3.07 51.59,-9.2 16.15,-6.4 30.37,-14.76 42.9,-25.65 12.57,-10.88 22.31,-23.96 29.56,-39.3 7.25,-15.33 10.88,-32.62 10.88,-51.86 0,-28.71 -6.13,-51.83 -18.4,-69.12 -12,-17.56 -27.6,-30.67 -46.84,-39.3 -18.94,-8.93 -39.87,-14.79 -62.99,-17.29 -22.85,-2.53 -45.43,-3.91 -67.74,-3.91l0 -82.8c36.23,0 65.79,-2.5 88.64,-7.25 22.88,-4.72 40.98,-11.7 54.09,-20.9 13.11,-9.2 22.31,-20.93 27.6,-34.58 5.29,-13.65 7.79,-29.25 7.79,-46.27 0,-37.34 -11.12,-65.51 -33.43,-84.46 -22.31,-19.24 -50.18,-28.71 -83.64,-28.71 -25.35,0 -48.5,7.52 -69.39,22.31 -20.63,14.76 -36.26,34.01 -46.57,58.24l-96.45 -32.32c18.4,-44.62 46.57,-77.51 84.19,-98.68 37.64,-21.47 79.74,-32.08 126.28,-32.08 28.17,0 55.2,3.91 81.12,11.46 25.95,7.52 48.8,18.94 68.31,34.85 19.78,15.6 35.42,35.39 46.84,59.35 11.43,23.99 17.26,52.14 17.26,84.19 0,36.53 -11.12,69.42 -33.16,98.41 -22.01,28.71 -50.45,48.53 -85.84,58.84l0 1.92c21.44,3.91 40.95,11.15 57.97,21.77 17.02,10.31 31.51,23.39 43.21,39.3 12,15.88 20.63,33.46 26.49,52.68 5.86,19.24 8.93,39.87 8.93,61.34 0,33.46 -6.43,62.72 -19.24,88.09 -12.54,25.38 -29.56,46.27 -51.02,62.99 -21.47,16.75 -46,29.28 -73.87,37.91 -27.87,8.36 -57.13,12.54 -87.79,12.54 -53.25,0 -99.82,-11.97 -140.23,-36.23 -40.41,-24.26 -68.31,-62.72 -84.19,-115.12l99.52 -30.4zm779.71 -443.51l-336.47 0 0 -82.77 437.68 0 0 80.82 -277.39 615.52 -106.19 0 282.38 -613.57zm400.03 643.96l-59.08 -30.4 437.65 -727.85 59.11 30.67 -437.68 727.58zm-194.56 -570.36c0,-24.26 4.45,-46.84 13.65,-67.74 9.2,-20.9 21.47,-39.3 37.34,-54.93 15.91,-15.88 34.01,-28.14 54.93,-37.34 20.9,-9.2 43.75,-13.95 68.01,-13.95 24.26,0 46.84,4.75 67.74,13.95 20.9,9.2 39.3,21.47 55.2,37.34 15.88,15.63 28.14,34.04 37.34,54.93 9.2,20.9 13.68,43.48 13.68,67.74 0,24.26 -4.48,47.11 -13.68,68.01 -9.2,20.93 -21.47,39.3 -37.34,55.2 -15.91,15.6 -34.31,28.14 -55.2,37.34 -20.9,9.2 -43.48,13.68 -67.74,13.68 -24.26,0 -47.11,-4.48 -68.01,-13.68 -20.93,-9.2 -39.03,-21.74 -54.93,-37.34 -15.88,-15.91 -28.14,-34.28 -37.34,-55.2 -9.2,-20.9 -13.65,-43.75 -13.65,-68.01zm76.64 0c0,27.6 9.2,50.72 27.87,69.42 18.7,18.67 41.82,27.87 69.42,27.87 27.6,0 50.45,-9.2 69.12,-27.87 18.7,-18.7 28.17,-41.82 28.17,-69.42 0,-27.6 -9.47,-50.45 -28.17,-69.12 -18.67,-18.7 -41.52,-28.17 -69.12,-28.17 -27.6,0 -50.72,9.47 -69.42,28.17 -18.67,18.67 -27.87,41.52 -27.87,69.12zm340.11 383.59c0,-24.26 4.45,-46.84 13.65,-67.74 9.2,-20.93 21.74,-39.33 37.34,-55.2 15.91,-15.91 34.31,-28.17 55.2,-37.37 20.9,-9.2 43.78,-13.65 68.01,-13.65 24.26,0 46.84,4.45 67.74,13.65 20.93,9.2 39.33,21.47 54.93,37.37 15.88,15.88 28.14,34.28 37.34,55.2 9.2,20.9 13.95,43.48 13.95,67.74 0,24.23 -4.75,47.11 -13.95,68.01 -9.2,20.9 -21.47,39.03 -37.34,54.9 -15.6,15.91 -34.01,28.17 -54.93,37.37 -20.9,9.2 -43.48,13.92 -67.74,13.92 -24.23,0 -47.11,-4.72 -68.01,-13.92 -20.9,-9.2 -39.3,-21.47 -55.2,-37.37 -15.6,-15.88 -28.14,-34.01 -37.34,-54.9 -9.2,-20.9 -13.65,-43.78 -13.65,-68.01zm76.64 0c0,27.6 9.5,50.72 28.17,69.39 18.67,18.67 41.79,27.87 69.39,27.87 27.6,0 50.48,-9.2 69.15,-27.87 18.67,-18.67 28.14,-41.79 28.14,-69.39 0,-27.6 -9.47,-50.48 -28.14,-69.15 -18.67,-18.67 -41.55,-28.14 -69.15,-28.14 -27.6,0 -50.72,9.47 -69.39,28.14 -18.67,18.67 -28.17,41.55 -28.17,69.15zm435.99 286.29l-80.85 0 68.01 -241.97 95.34 0 -82.5 241.97zm684.61 -718.11l-127.96 118.19 -55.2 -66.06 193.75 -160.28 83.64 0 0 696.34 -94.23 0 0 -588.19zm546.67 0l-127.96 118.19 -55.2 -66.06 193.75 -160.28 83.64 0 0 696.34 -94.23 0 0 -588.19zm512.09 618.59l-59.08 -30.4 437.65 -727.85 59.11 30.67 -437.68 727.58zm-194.56 -570.36c0,-24.26 4.45,-46.84 13.65,-67.74 9.2,-20.9 21.47,-39.3 37.34,-54.93 15.91,-15.88 34.01,-28.14 54.93,-37.34 20.9,-9.2 43.75,-13.95 68.01,-13.95 24.26,0 46.84,4.75 67.74,13.95 20.9,9.2 39.3,21.47 55.2,37.34 15.88,15.63 28.14,34.04 37.34,54.93 9.2,20.9 13.68,43.48 13.68,67.74 0,24.26 -4.48,47.11 -13.68,68.01 -9.2,20.93 -21.47,39.3 -37.34,55.2 -15.91,15.6 -34.31,28.14 -55.2,37.34 -20.9,9.2 -43.48,13.68 -67.74,13.68 -24.26,0 -47.11,-4.48 -68.01,-13.68 -20.93,-9.2 -39.03,-21.74 -54.93,-37.34 -15.88,-15.91 -28.14,-34.28 -37.34,-55.2 -9.2,-20.9 -13.65,-43.75 -13.65,-68.01zm76.64 0c0,27.6 9.2,50.72 27.87,69.42 18.7,18.67 41.82,27.87 69.42,27.87 27.6,0 50.45,-9.2 69.12,-27.87 18.7,-18.7 28.17,-41.82 28.17,-69.42 0,-27.6 -9.47,-50.45 -28.17,-69.12 -18.67,-18.7 -41.52,-28.17 -69.12,-28.17 -27.6,0 -50.72,9.47 -69.42,28.17 -18.67,18.67 -27.87,41.52 -27.87,69.12zm340.11 383.59c0,-24.26 4.45,-46.84 13.65,-67.74 9.2,-20.93 21.74,-39.33 37.34,-55.2 15.91,-15.91 34.31,-28.17 55.2,-37.37 20.9,-9.2 43.78,-13.65 68.01,-13.65 24.26,0 46.84,4.45 67.74,13.65 20.93,9.2 39.33,21.47 54.93,37.37 15.88,15.88 28.14,34.28 37.34,55.2 9.2,20.9 13.95,43.48 13.95,67.74 0,24.23 -4.75,47.11 -13.95,68.01 -9.2,20.9 -21.47,39.03 -37.34,54.9 -15.6,15.91 -34.01,28.17 -54.93,37.37 -20.9,9.2 -43.48,13.92 -67.74,13.92 -24.23,0 -47.11,-4.72 -68.01,-13.92 -20.9,-9.2 -39.3,-21.47 -55.2,-37.37 -15.6,-15.88 -28.14,-34.01 -37.34,-54.9 -9.2,-20.9 -13.65,-43.78 -13.65,-68.01zm76.64 0c0,27.6 9.5,50.72 28.17,69.39 18.67,18.67 41.79,27.87 69.39,27.87 27.6,0 50.48,-9.2 69.15,-27.87 18.67,-18.67 28.14,-41.79 28.14,-69.39 0,-27.6 -9.47,-50.48 -28.14,-69.15 -18.67,-18.67 -41.55,-28.14 -69.15,-28.14 -27.6,0 -50.72,9.47 -69.39,28.14 -18.67,18.67 -28.17,41.55 -28.17,69.15z"/>
   <polygon class="fil5" points="35703.86,2254.98 20670.58,2254.98 20670.58,6278.23 35703.86,6278.23 35703.86,6303.7 "/>
   <polygon class="fil4" points="20670.61,6303.73 35703.8,6303.73 35703.8,6278.26 20670.61,6278.26 "/>
   <path class="fil2" d="M21491.19 3262.45c0,23.69 3.64,45.43 10.88,65.51 7.25,19.78 17.26,36.8 30.37,50.99 13.11,14.22 29.28,25.38 48.23,33.46 19.24,8.09 40.44,12.27 64.13,12.27 23.69,0 44.86,-4.18 63.83,-12.27 18.94,-8.09 34.85,-19.24 47.96,-33.46 13.08,-14.19 23.39,-31.21 30.64,-50.99 7.25,-20.08 10.88,-41.82 10.88,-65.51 0,-23.69 -3.64,-45.43 -10.88,-65.24 -7.25,-20.05 -17.56,-37.07 -30.64,-51.29 -13.11,-14.19 -29.01,-25.35 -47.96,-33.43 -18.97,-8.09 -40.14,-12.27 -63.83,-12.27 -23.69,0 -44.89,4.18 -64.13,12.27 -18.94,8.09 -35.12,19.24 -48.23,33.43 -13.11,14.22 -23.12,31.24 -30.37,51.29 -7.25,19.81 -10.88,41.55 -10.88,65.24zm-94.23 0c0,-34.28 6.4,-66.06 18.97,-95.34 12.81,-29.56 30.37,-55.47 52.68,-77.78 22.31,-22.28 48.5,-39.87 78.62,-52.68 30.37,-12.84 62.72,-19.24 97.57,-19.24 34.85,0 67.17,6.4 97.26,19.24 30.13,12.81 56.31,30.4 78.62,52.68 22.31,22.31 39.87,48.23 52.68,77.78 12.84,29.28 19.24,61.06 19.24,95.34 0,34.01 -6.4,66.06 -19.24,95.88 -12.81,29.83 -30.37,55.77 -52.68,77.78 -22.31,22.04 -48.5,39.3 -78.62,52.14 -30.1,12.54 -62.42,18.94 -97.26,18.94 -34.85,0 -67.2,-6.4 -97.57,-18.94 -30.13,-12.84 -56.31,-30.1 -78.62,-52.14 -22.31,-22.01 -39.87,-47.96 -52.68,-77.78 -12.57,-29.83 -18.97,-61.88 -18.97,-95.88zm606.86 -233.04l88.37 0 0 66.9 1.95 0c17.02,-24.8 40.44,-44.32 70.27,-57.97 29.83,-13.95 60.76,-20.93 92.27,-20.93 35.96,0 68.55,6.4 97.84,18.97 29.25,12.54 54.09,29.83 74.72,52.11 20.63,22.04 36.5,48.23 47.66,78.08 11.15,29.83 16.72,61.61 16.72,95.88 0,34.85 -5.56,67.17 -16.72,96.99 -11.15,29.86 -27.03,55.5 -47.66,77.51 -20.63,22.01 -45.46,39.03 -74.72,51.56 -29.28,12.54 -61.88,18.67 -97.84,18.67 -33.46,0 -64.97,-6.95 -94.53,-20.9 -29.53,-14.22 -52.11,-33.46 -68.01,-57.7l-1.95 0 0 344.26 -88.37 0 0 -743.45zm241.97 70.81c-23.69,0 -44.89,4.18 -64.13,12.27 -18.94,8.09 -35.12,19.24 -48.23,33.43 -13.08,14.22 -23.12,31.24 -30.37,51.29 -7.25,19.81 -10.88,41.55 -10.88,65.24 0,23.69 3.64,45.43 10.88,65.51 7.25,19.78 17.29,36.8 30.37,50.99 13.11,14.22 29.28,25.38 48.23,33.46 19.24,8.09 40.44,12.27 64.13,12.27 23.69,0 44.89,-4.18 63.83,-12.27 18.97,-8.09 34.85,-19.24 47.96,-33.46 13.11,-14.19 23.42,-31.21 30.67,-50.99 7.25,-20.08 10.85,-41.82 10.85,-65.51 0,-23.69 -3.61,-45.43 -10.85,-65.24 -7.25,-20.05 -17.56,-37.07 -30.67,-51.29 -13.11,-14.19 -28.98,-25.35 -47.96,-33.43 -18.94,-8.09 -40.14,-12.27 -63.83,-12.27zm360.71 -13.95c24.8,-22.85 53.82,-40.14 86.41,-51.56 32.89,-11.43 65.79,-17.29 98.41,-17.29 34.31,0 63.56,4.18 88.09,12.84 24.53,8.63 44.59,20.05 60.49,34.55 15.88,14.22 27.33,30.97 34.85,49.64 7.52,18.67 11.43,38.18 11.43,58.54l0 238.07c0,16.45 0.27,31.48 0.84,45.16 0.84,13.65 1.65,26.76 3.07,39.3l-78.62 0c-1.95,-23.69 -3.07,-47.11 -3.07,-70.81l-1.95 0c-19.78,30.1 -42.9,51.29 -69.96,63.83 -26.76,12.54 -57.97,18.67 -93.39,18.67 -21.47,0 -42.09,-3.07 -61.88,-8.9 -19.78,-5.86 -37.07,-14.49 -51.86,-26.22 -14.76,-11.97 -26.19,-26.49 -34.85,-43.75 -8.36,-17.59 -12.54,-37.64 -12.54,-60.79 0,-30.1 6.7,-55.17 20.08,-75.53 13.38,-20.35 31.78,-37.07 54.9,-49.64 23.42,-12.81 50.75,-22.01 81.69,-27.6 31.21,-5.56 64.67,-8.36 100.06,-8.36l64.67 0 0 -19.78c0,-11.7 -2.22,-23.42 -6.95,-35.12 -4.48,-12 -11.46,-22.58 -20.66,-32.05 -9.2,-9.77 -20.63,-17.29 -34.28,-22.88 -13.65,-5.56 -30.1,-8.36 -49.07,-8.36 -16.99,0 -32.05,1.68 -44.86,5.02 -12.84,3.34 -24.53,7.52 -34.85,12.54 -10.31,4.75 -19.81,10.61 -28.44,17.02 -8.66,6.4 -16.72,12.81 -24.8,18.67l-52.98 -55.2zm249.76 185.12c-20.9,0 -42.36,1.11 -64.37,3.34 -22.04,2.22 -41.82,6.67 -59.95,13.38 -18.1,6.4 -32.89,15.6 -44.32,27.6 -11.43,11.7 -17.29,26.76 -17.29,45.16 0,26.76 8.93,46 27.06,57.97 18.1,11.73 42.36,17.56 73.3,17.56 24.26,0 44.89,-4.18 61.88,-12.27 17.02,-8.06 30.97,-18.67 41.28,-31.75 10.58,-13.11 18.1,-27.9 22.58,-43.78 4.72,-16.18 6.95,-32.05 6.95,-47.96l0 -29.25 -47.11 0zm592.1 -118.22c-16.45,-16.99 -33.46,-29.83 -51.56,-38.73 -18.13,-8.93 -39.6,-13.38 -64.4,-13.38 -24.26,0 -45.43,4.45 -63.56,13.38 -18.13,8.9 -33.16,21.17 -45.43,36.5 -12,15.33 -21.2,32.89 -27.6,52.98 -6.13,20.05 -9.2,40.98 -9.2,62.45 0,21.47 3.64,42.09 10.88,61.61 7.25,19.24 17.26,36.23 30.37,50.72 13.11,14.22 28.98,25.65 47.38,33.73 18.4,8.09 39.03,12.27 61.91,12.27 24.8,0 46.27,-4.45 63.83,-13.11 17.83,-8.9 34.28,-22.01 49.34,-39.03l62.99 63.02c-23.12,25.35 -49.88,43.75 -80.28,54.9 -30.4,11.15 -62.72,16.72 -96.72,16.72 -35.96,0 -69.15,-5.83 -98.98,-17.56 -29.83,-11.97 -55.47,-28.41 -77.21,-49.61 -21.47,-21.47 -38.18,-46.84 -50.18,-76.67 -11.7,-29.83 -17.56,-62.99 -17.56,-98.95 0,-35.96 5.86,-69.15 17.56,-99.25 12,-30.37 28.44,-56.31 49.64,-77.78 21.47,-21.47 46.81,-38.45 76.64,-50.45 29.83,-12.27 63.29,-18.4 100.09,-18.4 34.01,0 66.63,6.13 97.57,18.4 31.21,12 58.27,30.67 81.39,55.47l-66.9 60.76zm147.48 -123.75l88.37 0 0 466.09 -88.37 0 0 -466.09zm-20.63 -167.26c0,-17.56 6.4,-32.89 18.94,-45.73 12.84,-12.81 28.17,-19.21 45.73,-19.21 17.83,0 33.16,6.4 45.7,19.21 12.84,12.84 19.24,28.17 19.24,45.73 0,17.56 -6.4,32.89 -19.24,45.7 -12.54,12.84 -27.87,19.24 -45.7,19.24 -17.56,0 -32.89,-6.4 -45.73,-19.24 -12.54,-12.81 -18.94,-28.14 -18.94,-45.7zm499.55 243.93l-126.85 0 0 211.28c0,13.11 0.27,26.22 0.84,39.03 0.84,12.84 3.34,24.26 7.52,34.58 4.18,10.04 10.88,18.13 19.51,24.53 8.93,6.13 22.04,9.2 39.03,9.2 10.31,0 21.2,-0.84 32.35,-2.8 11.15,-1.95 21.47,-5.56 30.67,-10.85l0 80.55c-10.61,5.86 -24.26,10.04 -40.98,12.27 -16.75,2.22 -29.56,3.34 -38.76,3.34 -34.31,0 -60.76,-4.72 -79.47,-14.19 -18.67,-9.5 -32.32,-21.77 -41.25,-36.8 -8.63,-15.06 -13.92,-31.78 -15.6,-50.45 -1.68,-18.7 -2.5,-37.64 -2.5,-56.89l0 -242.79 -102.32 0 0 -76.67 102.32 0 0 -130.73 88.64 0 0 130.73 126.85 0 0 76.67zm115.94 -19.81c24.8,-22.85 53.82,-40.14 86.41,-51.56 32.89,-11.43 65.79,-17.29 98.41,-17.29 34.31,0 63.56,4.18 88.09,12.84 24.53,8.63 44.59,20.05 60.49,34.55 15.88,14.22 27.33,30.97 34.85,49.64 7.52,18.67 11.43,38.18 11.43,58.54l0 238.07c0,16.45 0.27,31.48 0.84,45.16 0.84,13.65 1.65,26.76 3.07,39.3l-78.62 0c-1.95,-23.69 -3.07,-47.11 -3.07,-70.81l-1.95 0c-19.78,30.1 -42.9,51.29 -69.96,63.83 -26.76,12.54 -57.97,18.67 -93.39,18.67 -21.47,0 -42.09,-3.07 -61.88,-8.9 -19.78,-5.86 -37.07,-14.49 -51.86,-26.22 -14.76,-11.97 -26.19,-26.49 -34.85,-43.75 -8.36,-17.59 -12.54,-37.64 -12.54,-60.79 0,-30.1 6.7,-55.17 20.08,-75.53 13.38,-20.35 31.78,-37.07 54.9,-49.64 23.42,-12.81 50.75,-22.01 81.69,-27.6 31.21,-5.56 64.67,-8.36 100.06,-8.36l64.67 0 0 -19.78c0,-11.7 -2.22,-23.42 -6.95,-35.12 -4.48,-12 -11.46,-22.58 -20.66,-32.05 -9.2,-9.77 -20.63,-17.29 -34.28,-22.88 -13.65,-5.56 -30.1,-8.36 -49.07,-8.36 -16.99,0 -32.05,1.68 -44.86,5.02 -12.84,3.34 -24.53,7.52 -34.85,12.54 -10.31,4.75 -19.81,10.61 -28.44,17.02 -8.66,6.4 -16.72,12.81 -24.8,18.67l-52.98 -55.2zm249.76 185.12c-20.9,0 -42.36,1.11 -64.37,3.34 -22.04,2.22 -41.82,6.67 -59.95,13.38 -18.1,6.4 -32.89,15.6 -44.32,27.6 -11.43,11.7 -17.29,26.76 -17.29,45.16 0,26.76 8.93,46 27.06,57.97 18.1,11.73 42.36,17.56 73.3,17.56 24.26,0 44.89,-4.18 61.88,-12.27 17.02,-8.06 30.97,-18.67 41.28,-31.75 10.58,-13.11 18.1,-27.9 22.58,-43.78 4.72,-16.18 6.95,-32.05 6.95,-47.96l0 -29.25 -47.11 0zm1.95 -330.61l-81.66 0 -146.36 -141.61 125.74 0 102.29 141.61zm736.75 566.42c-31.48,0 -61.31,-4.72 -89.18,-14.19 -27.6,-9.5 -51.86,-23.42 -72.22,-41.82 -20.35,-18.4 -36.23,-40.71 -48.23,-66.9 -11.7,-26.22 -17.56,-55.77 -17.56,-88.37 0,-21.77 3.34,-41.82 10.31,-59.95 6.98,-18.4 16.18,-34.85 27.87,-49.61 12,-14.79 25.95,-27.33 41.82,-37.37 16.18,-10.31 33.73,-17.83 52.68,-23.12l0 -3.07c-13.08,-3.34 -26.19,-9.2 -39.3,-17.56 -13.11,-8.66 -24.8,-19.51 -35.12,-32.62 -10.04,-13.11 -18.4,-28.98 -25.11,-47.66 -6.4,-18.7 -9.74,-40.17 -9.74,-64.4 0,-26.22 5.29,-49.91 16.18,-71.38 10.85,-21.47 25.65,-39.57 44.32,-54.63 18.67,-15.06 40.41,-26.76 64.94,-34.85 24.8,-8.09 50.75,-12.27 78.32,-12.27 27.6,0 53.55,4.18 78.05,12.27 24.53,8.09 46.3,19.78 64.97,34.85 18.67,15.06 33.43,33.16 44.32,54.63 10.88,21.47 16.18,45.16 16.18,71.38 0,24.23 -3.37,45.7 -10.04,64.4 -6.4,18.67 -14.76,34.55 -25.11,47.66 -10.01,13.11 -21.74,23.96 -34.82,32.62 -13.11,8.36 -26.22,14.22 -39.33,17.56l0 3.07c19.24,5.29 36.8,12.81 52.71,23.12 16.15,10.04 30.1,22.58 41.79,37.37 12,14.76 21.2,31.21 28.17,49.61 6.98,18.13 10.31,38.18 10.31,59.95 0,32.59 -5.86,62.15 -17.86,88.37 -11.7,26.19 -27.87,48.5 -48.23,66.9 -20.32,18.4 -44.32,32.32 -72.19,41.82 -27.87,9.47 -57.43,14.19 -88.94,14.19zm-109.26 -532.99c0,13.65 2.5,27.33 7.25,40.41 5.02,13.11 12,24.53 21.2,34.85 9.2,10.31 20.63,18.7 34.01,25.11 13.38,6.4 28.98,9.74 46.81,9.74 18.4,0 34.31,-3.07 47.69,-9.2 13.38,-6.4 24.53,-14.49 33.73,-24.5 9.2,-10.34 16.15,-21.77 20.63,-34.85 4.72,-13.11 6.98,-27.06 6.98,-41.55 0,-32.05 -10.04,-58.54 -30.13,-79.16 -19.78,-20.63 -46.27,-30.94 -78.89,-30.94 -30.37,0 -56.01,10.31 -77.48,30.67 -21.2,20.35 -31.78,46.81 -31.78,79.44zm109.26 450.49c39.33,0 71.11,-12 95.64,-35.96 24.8,-23.96 37.07,-54.93 37.07,-92.82 0,-20.93 -3.37,-39.6 -10.31,-55.5 -6.98,-16.15 -16.45,-29.53 -28.71,-40.41 -12,-10.85 -26.22,-18.94 -42.09,-24.53 -15.91,-5.56 -33.19,-8.36 -51.59,-8.36 -38.73,0.57 -70.51,12.84 -95.61,36.8 -24.8,23.96 -37.34,54.63 -37.34,92 0,20.32 3.61,38.45 10.85,54.63 7.28,15.88 17.02,29.25 29.01,40.14 12.27,10.85 26.49,19.24 42.36,25.08 15.88,5.86 32.89,8.93 50.72,8.93zm306.68 -277.36c0,-25.38 1.38,-51.86 3.88,-79.47 2.53,-27.6 7.25,-54.9 14.22,-81.39 6.98,-26.49 16.18,-51.83 27.6,-76.1 11.43,-24.26 26.22,-45.43 44.32,-63.56 18.13,-18.13 39.33,-32.35 63.86,-43.21 24.5,-10.88 53.22,-16.18 86.11,-16.18 32.62,0 61.34,5.29 85.87,16.18 24.8,10.85 46,25.08 64.13,43.21 18.1,18.13 32.59,39.3 44.02,63.56 11.46,24.26 20.66,49.61 27.6,76.1 6.98,26.49 11.73,53.79 14.22,81.39 2.8,27.6 4.18,54.09 4.18,79.47 0,36.8 -3.34,76.1 -10.01,118.19 -6.43,41.82 -18.7,80.85 -36.53,116.81 -17.56,35.96 -42.09,65.79 -73.33,89.48 -30.94,23.69 -71.08,35.39 -120.15,35.39 -49.34,0 -89.48,-11.7 -120.69,-35.39 -30.94,-23.69 -55.47,-53.52 -73.03,-89.48 -17.56,-35.96 -29.83,-74.99 -36.53,-116.81 -6.4,-42.09 -9.74,-81.39 -9.74,-118.19zm94.5 0c0,23.12 1.38,50.18 4.18,81.66 3.07,31.51 9.47,61.61 19.21,90.89 9.77,29.25 24.53,54.09 43.78,74.41 19.24,20.35 45.43,30.4 78.32,30.4 32.62,0 58.84,-10.04 78.05,-30.4 19.24,-20.32 34.04,-45.16 43.78,-74.41 9.77,-29.28 16.18,-59.38 19.24,-90.89 3.07,-31.48 4.45,-58.54 4.45,-81.66 0,-15.91 -0.54,-33.73 -1.65,-53.52 -0.84,-20.08 -3.37,-40.44 -6.98,-61.06 -3.64,-20.63 -8.66,-40.71 -15.06,-59.92 -6.4,-19.24 -15.33,-36.8 -26.19,-52.14 -10.88,-15.33 -23.99,-27.6 -39.87,-36.8 -15.6,-9.2 -34.31,-13.92 -55.77,-13.92 -21.74,0 -40.41,4.72 -56.28,13.92 -15.63,9.2 -28.71,21.47 -39.6,36.8 -10.88,15.33 -19.51,32.89 -26.22,52.14 -6.4,19.21 -11.7,39.3 -15.3,59.92 -3.64,20.63 -5.86,40.98 -6.7,61.06 -0.84,19.78 -1.38,37.61 -1.38,53.52zm649.8 378.57l-59.08 -30.4 437.65 -727.85 59.11 30.67 -437.68 727.58zm-194.56 -570.36c0,-24.26 4.45,-46.84 13.65,-67.74 9.2,-20.9 21.47,-39.3 37.34,-54.93 15.91,-15.88 34.01,-28.14 54.93,-37.34 20.9,-9.2 43.75,-13.95 68.01,-13.95 24.26,0 46.84,4.75 67.74,13.95 20.9,9.2 39.3,21.47 55.2,37.34 15.88,15.63 28.14,34.04 37.34,54.93 9.2,20.9 13.68,43.48 13.68,67.74 0,24.26 -4.48,47.11 -13.68,68.01 -9.2,20.93 -21.47,39.3 -37.34,55.2 -15.91,15.6 -34.31,28.14 -55.2,37.34 -20.9,9.2 -43.48,13.68 -67.74,13.68 -24.26,0 -47.11,-4.48 -68.01,-13.68 -20.93,-9.2 -39.03,-21.74 -54.93,-37.34 -15.88,-15.91 -28.14,-34.28 -37.34,-55.2 -9.2,-20.9 -13.65,-43.75 -13.65,-68.01zm76.64 0c0,27.6 9.2,50.72 27.87,69.42 18.7,18.67 41.82,27.87 69.42,27.87 27.6,0 50.45,-9.2 69.12,-27.87 18.7,-18.7 28.17,-41.82 28.17,-69.42 0,-27.6 -9.47,-50.45 -28.17,-69.12 -18.67,-18.7 -41.52,-28.17 -69.12,-28.17 -27.6,0 -50.72,9.47 -69.42,28.17 -18.67,18.67 -27.87,41.52 -27.87,69.12zm340.11 383.59c0,-24.26 4.45,-46.84 13.65,-67.74 9.2,-20.93 21.74,-39.33 37.34,-55.2 15.91,-15.91 34.31,-28.17 55.2,-37.37 20.9,-9.2 43.78,-13.65 68.01,-13.65 24.26,0 46.84,4.45 67.74,13.65 20.93,9.2 39.33,21.47 54.93,37.37 15.88,15.88 28.14,34.28 37.34,55.2 9.2,20.9 13.95,43.48 13.95,67.74 0,24.23 -4.75,47.11 -13.95,68.01 -9.2,20.9 -21.47,39.03 -37.34,54.9 -15.6,15.91 -34.01,28.17 -54.93,37.37 -20.9,9.2 -43.48,13.92 -67.74,13.92 -24.23,0 -47.11,-4.72 -68.01,-13.92 -20.9,-9.2 -39.3,-21.47 -55.2,-37.37 -15.6,-15.88 -28.14,-34.01 -37.34,-54.9 -9.2,-20.9 -13.65,-43.78 -13.65,-68.01zm76.64 0c0,27.6 9.5,50.72 28.17,69.39 18.67,18.67 41.79,27.87 69.39,27.87 27.6,0 50.48,-9.2 69.15,-27.87 18.67,-18.67 28.14,-41.79 28.14,-69.39 0,-27.6 -9.47,-50.48 -28.14,-69.15 -18.67,-18.67 -41.55,-28.14 -69.15,-28.14 -27.6,0 -50.72,9.47 -69.39,28.14 -18.67,18.67 -28.17,41.55 -28.17,69.15z"/>
  </g>
 </g>
</svg>
