<?xml version="1.0" encoding="UTF-8"?>
<!DOCTYPE svg PUBLIC "-//W3C//DTD SVG 1.1//EN" "http://www.w3.org/Graphics/SVG/1.1/DTD/svg11.dtd">
<!-- Creator: CorelDRAW (Evaluation Version) -->
<svg xmlns="http://www.w3.org/2000/svg" xml:space="preserve" width="65mm" height="65mm" version="1.1" style="shape-rendering:geometricPrecision; text-rendering:geometricPrecision; image-rendering:optimizeQuality; fill-rule:evenodd; clip-rule:evenodd"
viewBox="0 0 30422.82 30422.82"
 xmlns:xlink="http://www.w3.org/1999/xlink"
 xmlns:xodm="http://www.corel.com/coreldraw/odm/2003">
 <defs>
  <style type="text/css">
   <![CDATA[
    .fil0 {fill:#FEFEFE}
    .fil2 {fill:#FEFEFE;fill-rule:nonzero}
    .fil3 {fill:#3A5E80;fill-rule:nonzero}
    .fil1 {fill:#293B5B;fill-rule:nonzero}
   ]]>
  </style>
 </defs>
 <g id="Layer_x0020_1">
  <metadata id="CorelCorpID_0Corel-Layer"/>
  <rect class="fil0" x="-0.02" width="30422.82" height="30422.82" rx="612.85" ry="1170.09"/>
  <g id="_1881805888272">
   <polygon class="fil1" points="26912.5,26912.54 3510.37,26912.54 3510.37,9773.21 26912.5,9773.21 "/>
   <path class="fil2" d="M5062.12 19835.68c-16.52,-20.41 -36.88,-37.77 -60.75,-51.2 -23.87,-13.9 -52.98,-20.83 -87.66,-20.83 -32.58,0 -61.22,6.93 -85.04,20.83 -23.87,13.43 -36.04,33.84 -36.04,60.33 0,21.25 6.93,38.61 20.41,52.05 13.85,13.48 30.38,23.87 49,32.11 19.1,8.28 39.5,14.32 60.75,18.25 21.3,3.88 39.92,7.82 55.14,10.86 29.49,7.35 57.29,16.05 83.31,26.02 26.02,9.97 48.63,23.45 67.26,39.92 19.1,16.05 33.84,35.99 44.7,59.44 10.86,23.45 16.05,52.09 16.05,85.93 0,40.77 -8.66,75.92 -26.02,105.03 -17.36,29.07 -39.92,52.47 -67.68,71.14 -27.38,18.21 -59.02,31.27 -94.17,39.5 -35.15,8.24 -70.3,12.12 -106.34,12.12 -60.33,0 -112.85,-9.08 -158.39,-27.33 -45.59,-18.63 -85.93,-52.05 -121.5,-101.1l104.14 -85.93c22.14,22.56 47.32,42.55 74.65,59.91 27.75,17.36 61.59,26.02 101.1,26.02 17.36,0 35.15,-1.73 52.94,-5.2 17.79,-3.93 33.84,-9.55 47.32,-16.94 13.9,-7.82 25.18,-17.36 33.84,-29.07 8.66,-11.7 13.01,-25.6 13.01,-40.81 0,-20.36 -6.51,-36.88 -19.1,-50.31 -12.59,-13.43 -28.18,-23.87 -46.01,-31.27 -17.79,-7.82 -36.88,-13.85 -56.82,-18.63 -19.52,-4.77 -37.35,-8.24 -52.51,-11.28 -29.53,-7.4 -57.71,-15.21 -84.2,-24.34 -26.44,-9.08 -50.31,-21.67 -70.72,-36.88 -20.41,-15.16 -36.46,-34.68 -49.05,-58.13 -12.12,-23.87 -18.21,-52.94 -18.21,-87.24 0,-37.72 7.82,-70.72 23.87,-98.94 16.05,-28.18 36.88,-51.2 62.91,-69.41 26.07,-18.67 55.56,-32.53 88.55,-41.66 33.42,-9.13 66.79,-13.9 100.21,-13.9 49.05,0 96.37,9.13 141.07,27.8 44.7,18.21 80.69,49 107.18,91.97l-107.18 81.16zm328.89 -540.68l381.03 0c69.41,0 126.7,9.55 171.4,28.6 45.12,18.67 80.69,42.97 106.76,72.08 26.02,29.07 44.23,61.59 54.25,97.63 9.97,35.99 15.16,71.14 15.16,104.98 0,34.73 -6.08,68.15 -18.21,100.25 -12.17,32.11 -29.95,61.17 -52.94,87.24 -23.03,26.02 -50.78,48.16 -84.2,65.95 -33,17.79 -69.88,28.64 -111.11,33l308.11 494.25 -183.99 0 -275.54 -477.78 -163.63 0 0 477.78 -147.11 0 0 -1083.99zm147.11 477.78l192.69 0c28.64,0 56.82,-2.2 85.04,-6.97 28.22,-4.77 52.94,-13.01 75.07,-25.18 22.14,-12.12 39.5,-29.49 52.51,-52.47 13.43,-23.03 19.94,-52.98 19.94,-89.86 0,-36.88 -6.51,-66.37 -19.94,-89.4 -13.01,-22.98 -30.38,-40.77 -52.51,-52.94 -22.14,-12.59 -46.85,-20.83 -75.07,-25.13 -28.22,-4.77 -56.4,-6.97 -85.04,-6.97l-192.69 0 0 348.93zm1711.07 0l0 534.18c-26.49,16.48 -56.4,30.8 -90.29,42.97 -33.42,12.12 -68.57,22.56 -104.98,31.22 -36.04,8.71 -72.92,15.21 -110.22,19.1 -36.88,4.35 -72.03,6.51 -104.61,6.51 -91.97,0 -174.02,-15.16 -246.05,-45.96 -71.61,-30.84 -132.36,-72.03 -181.83,-124.13 -49.47,-52.09 -87.2,-112.38 -113.22,-181.41 -26.07,-68.99 -39.08,-141.44 -39.08,-218.25 0,-80.74 13.9,-155.81 42.08,-224.8 28.22,-69.41 66.84,-129.74 116.31,-180.52 49.47,-51.2 108.91,-91.13 178.37,-120.19 69.41,-29.07 145.37,-43.86 228.26,-43.86 99.79,0 181.37,12.59 244.74,37.77 63.37,24.76 116.31,59.02 159.28,102.83l-104.19 112c-44.7,-42.97 -92.39,-72.5 -142.33,-89.4 -49.89,-16.94 -102.41,-25.6 -157.5,-25.6 -62.48,0 -118.93,11.7 -168.82,34.68 -49.89,23.03 -92.44,53.82 -128.43,92.44 -35.62,38.61 -62.95,84.62 -82.47,137.14 -19.52,52.51 -29.07,108.49 -29.07,167.51 0,61.17 10.86,118.46 32.11,170.98 21.25,52.51 50.78,98.06 88.51,136.67 37.77,38.66 82.47,69.04 133.25,91.13 51.2,22.14 106.76,33 167.04,33 52.09,0 101.14,-4.77 147.57,-14.32 46.43,-9.97 86.35,-23.87 118.88,-42.55l0 -301.56 -240.39 0 0 -137.56 387.07 0zm268.19 -477.78l376.68 0c46.85,0 90.24,5.62 130.63,16.9 40.35,11.28 75.07,27.8 104.14,49.89 29.07,22.14 52.05,49.94 68.99,84.2 16.94,34.31 25.18,74.23 25.18,120.19 0,62.06 -17.36,112.85 -52.09,152.35 -34.73,39.46 -79.38,68.1 -134.52,86.35l0 3.04c32.53,2.15 63.37,10.39 91.55,25.13 28.64,14.79 53.4,34.31 74.23,58.18 21.25,23.87 37.72,52.05 49.89,83.73 12.59,31.69 18.67,65.53 18.67,102.41 0,49.05 -10.02,92.02 -29.95,129.32 -19.99,37.35 -47.32,68.57 -82,94.17 -34.73,25.6 -75.07,44.7 -121.08,58.18 -45.59,13.43 -95.06,19.94 -148.42,19.94l-371.91 0 0 -1083.99zm147.11 449.98l200.51 0c27.33,0 53.36,-2.57 77.65,-8.24 24.76,-5.62 46.01,-14.74 64.26,-28.22 18.63,-13.43 32.95,-29.91 43.81,-50.31 10.86,-20.41 16.48,-45.59 16.48,-75.07 0,-42.97 -13.85,-80.27 -41.66,-111.96 -27.33,-31.69 -70.72,-47.32 -130.16,-47.32l-230.89 0 0 321.12zm0 505.58l215.67 0c22.56,0 47.32,-2.2 74.23,-6.97 27.33,-4.77 52.51,-13.85 75.92,-27.33 23.45,-13.9 43.39,-32.53 59.44,-55.98 16.52,-23.87 24.76,-55.09 24.76,-93.75 0,-64.22 -20.83,-112.38 -62.91,-144.49 -41.7,-32.11 -98.1,-48.16 -169.71,-48.16l-217.41 0 0 376.68zm890.92 -404.48c-27.33,0 -51.2,-9.97 -71.14,-29.49 -19.56,-19.94 -29.53,-43.81 -29.53,-71.61 0,-27.33 9.97,-51.2 29.53,-70.72 19.94,-19.99 43.81,-29.95 71.14,-29.95 27.75,0 51.63,9.97 71.19,29.95 19.94,19.52 29.91,43.39 29.91,70.72 0,27.8 -9.97,51.67 -29.91,71.61 -19.56,19.52 -43.43,29.49 -71.19,29.49zm-100.68 440.9c0,-27.33 9.97,-51.2 29.53,-71.14 19.94,-19.99 43.81,-29.95 71.14,-29.95 27.75,0 51.63,9.97 71.19,29.95 19.94,19.94 29.91,43.81 29.91,71.14 0,27.8 -9.97,51.67 -29.91,71.61 -19.56,19.52 -43.43,29.53 -71.19,29.53 -27.33,0 -51.2,-10.02 -71.14,-29.53 -19.56,-19.94 -29.53,-43.81 -29.53,-71.61zm791.51 -449.98c0,-39.5 2.15,-80.74 6.04,-123.7 3.93,-42.97 11.28,-85.46 22.14,-126.7 10.86,-41.23 25.18,-80.69 42.97,-118.46 17.79,-37.77 40.81,-70.72 68.99,-98.94 28.22,-28.22 61.22,-50.36 99.41,-67.26 38.15,-16.94 82.84,-25.18 134.05,-25.18 50.78,0 95.48,8.24 133.67,25.18 38.61,16.9 71.61,39.03 99.83,67.26 28.18,28.22 50.74,61.17 68.52,98.94 17.83,37.77 32.15,77.23 42.97,118.46 10.86,41.23 18.25,83.73 22.14,126.7 4.35,42.97 6.51,84.2 6.51,123.7 0,57.29 -5.2,118.46 -15.59,183.99 -10.02,65.1 -29.11,125.86 -56.87,181.83 -27.33,55.98 -65.53,102.41 -114.16,139.29 -48.16,36.88 -110.65,55.09 -187.03,55.09 -76.81,0 -139.29,-18.21 -187.87,-55.09 -48.16,-36.88 -86.35,-83.31 -113.69,-139.29 -27.33,-55.98 -46.43,-116.73 -56.87,-181.83 -9.97,-65.53 -15.16,-126.7 -15.16,-183.99zm147.11 0c0,35.99 2.15,78.12 6.51,127.12 4.77,49.05 14.74,95.9 29.91,141.49 15.21,45.54 38.19,84.2 68.15,115.84 29.95,31.69 70.72,47.32 121.93,47.32 50.78,0 91.6,-15.63 121.5,-47.32 29.95,-31.64 52.98,-70.3 68.15,-115.84 15.21,-45.59 25.18,-92.44 29.95,-141.49 4.77,-49 6.93,-91.13 6.93,-127.12 0,-24.76 -0.84,-52.51 -2.57,-83.31 -1.31,-31.27 -5.24,-62.95 -10.86,-95.06 -5.66,-32.11 -13.48,-63.37 -23.45,-93.28 -9.97,-29.95 -23.87,-57.29 -40.77,-81.16 -16.94,-23.87 -37.35,-42.97 -62.06,-57.29 -24.29,-14.32 -53.4,-21.67 -86.82,-21.67 -33.84,0 -62.91,7.35 -87.62,21.67 -24.34,14.32 -44.7,33.42 -61.64,57.29 -16.94,23.87 -30.38,51.2 -40.81,81.16 -9.97,29.91 -18.21,61.17 -23.82,93.28 -5.66,32.11 -9.13,63.79 -10.44,95.06 -1.31,30.8 -2.15,58.55 -2.15,83.31zm851 744.24l-125.86 0 105.87 -376.68 148.42 0 -128.43 376.68zm1166.41 -440.9l-462.15 0 0 -150.15 431.77 -695.18 177.48 0 0 716.43 153.19 0 0 128.9 -153.19 0 0 238.66 -147.11 0 0 -238.66zm0 -670.89l-3.04 0 -330.67 541.99 333.71 0 0 -541.99zm673.51 245.16l6.08 0c33.84,-16.48 73.76,-24.71 119.3,-24.71 38.61,0 78.12,6.51 118.04,19.94 39.92,13.48 75.96,33.84 108.07,62.06 32.11,28.22 58.13,63.79 78.54,107.18 20.41,43.39 30.8,94.59 30.8,154.08 0,60.28 -9.97,112.8 -29.95,158.39 -19.94,45.54 -46.85,83.31 -80.27,114.11 -33.42,30.38 -72.87,53.4 -118.04,68.57 -44.7,15.21 -92.86,22.98 -143.64,22.98 -51.2,0 -99.37,-8.24 -144.06,-24.29 -44.7,-16.48 -84.15,-39.92 -118.04,-70.3 -33.42,-30.8 -60.28,-67.26 -80.27,-110.22 -19.94,-42.97 -29.95,-91.13 -29.95,-144.06 0,-33.42 2.62,-64.22 7.82,-91.55 5.24,-27.8 12.59,-54.25 22.14,-79.01 9.97,-25.13 21.25,-49.89 34.73,-73.76 13.43,-23.87 28.22,-49.05 44.28,-75.5l273.81 -433.5 173.13 0 -272.49 419.6zm-136.29 328.94c0,32.53 5.24,62.91 16.1,90.71 10.81,27.33 26.02,51.2 45.96,71.14 19.99,19.56 43.86,35.15 71.19,46.43 27.33,11.28 58.13,16.94 91.97,16.94 33.42,0 64.26,-5.66 91.6,-16.94 27.75,-11.28 51.63,-26.87 71.14,-46.43 19.99,-19.94 35.15,-43.81 46.01,-71.14 10.86,-27.8 16.05,-58.18 16.05,-90.71 0,-32.53 -5.2,-62.48 -16.05,-89.82 -10.86,-27.8 -26.02,-51.63 -46.01,-71.61 -19.52,-19.94 -43.39,-35.57 -71.14,-46.43 -27.33,-11.28 -58.18,-16.94 -91.6,-16.94 -33.84,0 -64.64,5.66 -91.97,16.94 -27.33,10.86 -51.2,26.49 -71.19,46.43 -19.94,19.99 -35.15,43.81 -45.96,71.61 -10.86,27.33 -16.1,57.29 -16.1,89.82zm849.73 537.69l-125.86 0 105.87 -376.68 148.42 0 -128.43 376.68zm1166.41 -621.89l-6.08 0c-33.42,16.52 -73.34,24.76 -119.35,24.76 -38.61,0 -78.12,-6.51 -118.04,-19.99 -39.46,-13.43 -75.5,-33.84 -107.6,-62.02 -32.11,-28.22 -58.6,-63.79 -78.96,-107.23 -20.41,-43.39 -30.84,-94.59 -30.84,-153.61 0,-59.44 10.02,-111.53 29.95,-157.08 19.99,-45.59 46.85,-83.31 80.27,-114.11 33.89,-30.84 73.34,-53.82 118.04,-69.46 44.7,-16.05 92.86,-23.87 144.06,-23.87 50.78,0 98.94,8.24 143.64,24.76 45.17,16.05 84.62,39.46 118.04,70.3 33.42,30.8 60.33,67.26 80.27,110.22 19.99,42.92 29.95,90.66 29.95,143.64 0,33.84 -2.57,64.64 -7.82,91.97 -4.77,27.33 -12.12,53.82 -22.14,79.01 -9.55,24.71 -20.83,49.43 -34.26,74.18 -13.43,24.29 -28.22,49.47 -44.28,75.07l-274.23 433.08 -173.18 0 272.54 -419.65zm136.25 -328.94c0,-32.53 -5.2,-62.91 -16.05,-90.24 -10.86,-27.33 -26.02,-51.2 -46.01,-71.19 -19.52,-19.94 -43.39,-35.57 -71.14,-46.85 -27.33,-11.28 -58.18,-16.9 -91.6,-16.9 -33.84,0 -64.64,5.62 -91.97,16.9 -27.33,11.28 -51.2,26.91 -71.19,46.85 -19.94,19.99 -35.15,43.86 -45.96,71.19 -10.86,27.33 -16.1,57.71 -16.1,90.24 0,32.58 5.24,62.95 16.1,90.29 10.81,27.33 26.02,51.2 45.96,71.19 19.99,19.94 43.86,35.57 71.19,46.85 27.33,10.86 58.13,16.48 91.97,16.48 33.42,0 64.26,-5.62 91.6,-16.48 27.75,-11.28 51.63,-26.91 71.14,-46.85 19.99,-19.99 35.15,-43.86 46.01,-71.19 10.86,-27.33 16.05,-57.71 16.05,-90.29zm425.73 483.86c17.36,52.09 40.35,90.71 69.41,116.31 29.11,25.6 72.5,38.19 129.32,38.19 28.64,0 55.56,-4.77 80.32,-14.32 25.13,-9.97 47.27,-22.98 66.79,-39.92 19.56,-16.94 34.73,-37.3 46.01,-61.17 11.28,-23.87 16.94,-50.78 16.94,-80.74 0,-44.7 -9.55,-80.69 -28.64,-107.6 -18.67,-27.33 -42.97,-47.74 -72.92,-61.17 -29.49,-13.9 -62.06,-23.03 -98.06,-26.91 -35.57,-3.93 -70.72,-6.08 -105.45,-6.08l0 -128.9c56.4,0 102.41,-3.88 137.98,-11.28 35.62,-7.35 63.79,-18.21 84.2,-32.53 20.41,-14.32 34.73,-32.58 42.97,-53.82 8.24,-21.25 12.12,-45.54 12.12,-72.03 0,-58.13 -17.32,-101.99 -52.05,-131.47 -34.73,-29.95 -78.12,-44.7 -130.21,-44.7 -39.46,0 -75.5,11.7 -108.02,34.73 -32.11,22.98 -56.45,52.94 -72.5,90.66l-150.15 -50.31c28.64,-69.46 72.5,-120.66 131.05,-153.61 58.6,-33.42 124.13,-49.94 196.58,-49.94 43.86,0 85.93,6.08 126.28,17.83 40.39,11.7 75.96,29.49 106.34,54.25 30.8,24.29 55.14,55.09 72.92,92.39 17.79,37.35 26.87,81.16 26.87,131.05 0,56.87 -17.32,108.07 -51.63,153.19 -34.26,44.7 -78.54,75.54 -133.63,91.6l0 3c33.37,6.08 63.75,17.36 90.24,33.89 26.49,16.05 49.05,36.41 67.26,61.17 18.67,24.71 32.11,52.09 41.23,82 9.13,29.95 13.9,62.06 13.9,95.48 0,52.09 -10.02,97.63 -29.95,137.14 -19.52,39.5 -46.01,72.03 -79.43,98.06 -33.42,26.07 -71.61,45.59 -115,59.02 -43.39,13.01 -88.93,19.52 -136.67,19.52 -82.89,0 -155.39,-18.63 -218.3,-56.4 -62.91,-37.77 -106.34,-97.63 -131.05,-179.21l154.92 -47.32z"/>
   <path class="fil2" d="M4711.47 21132.07l147.11 0 0 449.98 561.56 0 0 -449.98 147.11 0 0 1083.99 -147.11 0 0 -495.99 -561.56 0 0 495.99 -147.11 0 0 -1083.99zm1134.35 0l699.54 0 0 137.98 -552.43 0 0 322.86 514.24 0 0 137.98 -514.24 0 0 347.19 580.19 0 0 137.98 -727.29 0 0 -1083.99zm1186.4 514.66l-364.51 -514.66 188.34 0 281.62 416.56 278.63 -416.56 183.57 0 -361.05 512.93 397.93 571.06 -192.69 0 -311.16 -469.96 -312 469.96 -182.26 0 393.58 -569.33zm814.11 36.41c-27.33,0 -51.2,-9.97 -71.14,-29.49 -19.56,-19.94 -29.53,-43.81 -29.53,-71.61 0,-27.33 9.97,-51.2 29.53,-70.72 19.94,-19.99 43.81,-29.95 71.14,-29.95 27.75,0 51.63,9.97 71.19,29.95 19.94,19.52 29.91,43.39 29.91,70.72 0,27.8 -9.97,51.67 -29.91,71.61 -19.56,19.52 -43.43,29.49 -71.19,29.49zm-100.68 440.9c0,-27.33 9.97,-51.2 29.53,-71.14 19.94,-19.99 43.81,-29.95 71.14,-29.95 27.75,0 51.63,9.97 71.19,29.95 19.94,19.94 29.91,43.81 29.91,71.14 0,27.8 -9.97,51.67 -29.91,71.61 -19.56,19.52 -43.43,29.53 -71.19,29.53 -27.33,0 -51.2,-10.02 -71.14,-29.53 -19.56,-19.94 -29.53,-43.81 -29.53,-71.61zm922.98 -220.45l-145.37 0 0 -119.3 162.27 0 30.84 -220.45 -145.37 0 0 -119.35 162.27 0 42.55 -312.42 121.08 0 -42.97 312.42 177.48 0 42.97 -312.42 121.08 0 -42.97 312.42 145.37 0 0 119.35 -162.32 0 -30.38 220.45 145.37 0 0 119.3 -162.27 0 -42.97 312.47 -121.08 0 42.97 -312.47 -177.48 0 -42.97 312.47 -120.66 0 42.55 -312.47zm168.36 -339.75l-30.38 220.45 177.48 0 30.84 -220.45 -177.95 0zm638.36 -431.77l376.68 0c46.85,0 90.24,5.62 130.63,16.9 40.35,11.28 75.07,27.8 104.14,49.89 29.07,22.14 52.05,49.94 68.99,84.2 16.94,34.31 25.18,74.23 25.18,120.19 0,62.06 -17.36,112.85 -52.09,152.35 -34.73,39.46 -79.38,68.1 -134.52,86.35l0 3.04c32.53,2.15 63.37,10.39 91.55,25.13 28.64,14.79 53.4,34.31 74.23,58.18 21.25,23.87 37.72,52.05 49.89,83.73 12.59,31.69 18.67,65.53 18.67,102.41 0,49.05 -10.02,92.02 -29.95,129.32 -19.99,37.35 -47.32,68.57 -82,94.17 -34.73,25.6 -75.07,44.7 -121.08,58.18 -45.59,13.43 -95.06,19.94 -148.42,19.94l-371.91 0 0 -1083.99zm147.11 449.98l200.51 0c27.33,0 53.36,-2.57 77.65,-8.24 24.76,-5.62 46.01,-14.74 64.26,-28.22 18.63,-13.43 32.95,-29.91 43.81,-50.31 10.86,-20.41 16.48,-45.59 16.48,-75.07 0,-42.97 -13.85,-80.27 -41.66,-111.96 -27.33,-31.69 -70.72,-47.32 -130.16,-47.32l-230.89 0 0 321.12zm0 505.58l215.67 0c22.56,0 47.32,-2.2 74.23,-6.97 27.33,-4.77 52.51,-13.85 75.92,-27.33 23.45,-13.9 43.39,-32.53 59.44,-55.98 16.52,-23.87 24.76,-55.09 24.76,-93.75 0,-64.22 -20.83,-112.38 -62.91,-144.49 -41.7,-32.11 -98.1,-48.16 -169.71,-48.16l-217.41 0 0 376.68zm817.58 -955.56l376.68 0c46.85,0 90.24,5.62 130.63,16.9 40.35,11.28 75.07,27.8 104.14,49.89 29.07,22.14 52.05,49.94 68.99,84.2 16.94,34.31 25.18,74.23 25.18,120.19 0,62.06 -17.36,112.85 -52.09,152.35 -34.73,39.46 -79.38,68.1 -134.52,86.35l0 3.04c32.53,2.15 63.37,10.39 91.55,25.13 28.64,14.79 53.4,34.31 74.23,58.18 21.25,23.87 37.72,52.05 49.89,83.73 12.59,31.69 18.67,65.53 18.67,102.41 0,49.05 -10.02,92.02 -29.95,129.32 -19.99,37.35 -47.32,68.57 -82,94.17 -34.73,25.6 -75.07,44.7 -121.08,58.18 -45.59,13.43 -95.06,19.94 -148.42,19.94l-371.91 0 0 -1083.99zm147.11 449.98l200.51 0c27.33,0 53.36,-2.57 77.65,-8.24 24.76,-5.62 46.01,-14.74 64.26,-28.22 18.63,-13.43 32.95,-29.91 43.81,-50.31 10.86,-20.41 16.48,-45.59 16.48,-75.07 0,-42.97 -13.85,-80.27 -41.66,-111.96 -27.33,-31.69 -70.72,-47.32 -130.16,-47.32l-230.89 0 0 321.12zm0 505.58l215.67 0c22.56,0 47.32,-2.2 74.23,-6.97 27.33,-4.77 52.51,-13.85 75.92,-27.33 23.45,-13.9 43.39,-32.53 59.44,-55.98 16.52,-23.87 24.76,-55.09 24.76,-93.75 0,-64.22 -20.83,-112.38 -62.91,-144.49 -41.7,-32.11 -98.1,-48.16 -169.71,-48.16l-217.41 0 0 376.68zm817.58 -955.56l376.68 0c46.85,0 90.24,5.62 130.63,16.9 40.35,11.28 75.07,27.8 104.14,49.89 29.07,22.14 52.05,49.94 68.99,84.2 16.94,34.31 25.18,74.23 25.18,120.19 0,62.06 -17.36,112.85 -52.09,152.35 -34.73,39.46 -79.38,68.1 -134.52,86.35l0 3.04c32.53,2.15 63.37,10.39 91.55,25.13 28.64,14.79 53.4,34.31 74.23,58.18 21.25,23.87 37.72,52.05 49.89,83.73 12.59,31.69 18.67,65.53 18.67,102.41 0,49.05 -10.02,92.02 -29.95,129.32 -19.99,37.35 -47.32,68.57 -82,94.17 -34.73,25.6 -75.07,44.7 -121.08,58.18 -45.59,13.43 -95.06,19.94 -148.42,19.94l-371.91 0 0 -1083.99zm147.11 449.98l200.51 0c27.33,0 53.36,-2.57 77.65,-8.24 24.76,-5.62 46.01,-14.74 64.26,-28.22 18.63,-13.43 32.95,-29.91 43.81,-50.31 10.86,-20.41 16.48,-45.59 16.48,-75.07 0,-42.97 -13.85,-80.27 -41.66,-111.96 -27.33,-31.69 -70.72,-47.32 -130.16,-47.32l-230.89 0 0 321.12zm0 505.58l215.67 0c22.56,0 47.32,-2.2 74.23,-6.97 27.33,-4.77 52.51,-13.85 75.92,-27.33 23.45,-13.9 43.39,-32.53 59.44,-55.98 16.52,-23.87 24.76,-55.09 24.76,-93.75 0,-64.22 -20.83,-112.38 -62.91,-144.49 -41.7,-32.11 -98.1,-48.16 -169.71,-48.16l-217.41 0 0 376.68zm1572.2 -721.25c-30.8,-39.92 -69.41,-70.72 -116.26,-91.97 -46.9,-21.3 -95.48,-32.11 -145.37,-32.11 -61.22,0 -116.73,11.7 -166.2,34.68 -49.47,23.03 -92.02,54.25 -127.17,94.17 -35.15,39.5 -62.06,86.35 -81.58,140.18 -19.52,53.36 -29.07,110.65 -29.07,171.82 0,57.29 9.13,111.53 27.33,162.74 18.67,50.78 45.12,95.9 79.85,134.56 34.73,38.61 76.81,69.41 126.7,91.97 49.89,22.14 106.76,33.42 170.13,33.42 62.06,0 116.73,-12.59 163.58,-38.19 47.32,-25.6 87.24,-61.17 119.77,-107.18l123.66 93.28c-8.24,11.28 -22.56,27.38 -42.92,48.21 -20.41,20.83 -47.32,41.66 -81.16,62.91 -33.42,20.83 -74.23,39.03 -121.5,55.09 -47.32,16.05 -102.41,23.87 -164.47,23.87 -85.51,0 -163.16,-16.48 -232.15,-49 -69.04,-32.58 -127.59,-75.54 -176.22,-128.48 -48.16,-53.36 -85.04,-113.27 -110.65,-180.06 -25.6,-66.84 -38.19,-134.56 -38.19,-203.13 0,-83.73 13.9,-160.96 41.23,-231.73 27.33,-70.72 65.95,-131.89 115.42,-183.52 49.89,-51.67 109.38,-92.02 178.37,-120.24 69.41,-28.64 146.22,-42.97 230,-42.97 71.61,0 141.44,13.9 210.43,41.23 69.04,27.33 125.01,69.88 168.82,127.17l-122.39 93.28zm323.32 -234.3l376.68 0c46.85,0 90.24,5.62 130.63,16.9 40.35,11.28 75.07,27.8 104.14,49.89 29.07,22.14 52.05,49.94 68.99,84.2 16.94,34.31 25.18,74.23 25.18,120.19 0,62.06 -17.36,112.85 -52.09,152.35 -34.73,39.46 -79.38,68.1 -134.52,86.35l0 3.04c32.53,2.15 63.37,10.39 91.55,25.13 28.64,14.79 53.4,34.31 74.23,58.18 21.25,23.87 37.72,52.05 49.89,83.73 12.59,31.69 18.67,65.53 18.67,102.41 0,49.05 -10.02,92.02 -29.95,129.32 -19.99,37.35 -47.32,68.57 -82,94.17 -34.73,25.6 -75.07,44.7 -121.08,58.18 -45.59,13.43 -95.06,19.94 -148.42,19.94l-371.91 0 0 -1083.99zm147.11 449.98l200.51 0c27.33,0 53.36,-2.57 77.65,-8.24 24.76,-5.62 46.01,-14.74 64.26,-28.22 18.63,-13.43 32.95,-29.91 43.81,-50.31 10.86,-20.41 16.48,-45.59 16.48,-75.07 0,-42.97 -13.85,-80.27 -41.66,-111.96 -27.33,-31.69 -70.72,-47.32 -130.16,-47.32l-230.89 0 0 321.12zm0 505.58l215.67 0c22.56,0 47.32,-2.2 74.23,-6.97 27.33,-4.77 52.51,-13.85 75.92,-27.33 23.45,-13.9 43.39,-32.53 59.44,-55.98 16.52,-23.87 24.76,-55.09 24.76,-93.75 0,-64.22 -20.83,-112.38 -62.91,-144.49 -41.7,-32.11 -98.1,-48.16 -169.71,-48.16l-217.41 0 0 376.68zm1572.2 -721.25c-30.8,-39.92 -69.41,-70.72 -116.26,-91.97 -46.9,-21.3 -95.48,-32.11 -145.37,-32.11 -61.22,0 -116.73,11.7 -166.2,34.68 -49.47,23.03 -92.02,54.25 -127.17,94.17 -35.15,39.5 -62.06,86.35 -81.58,140.18 -19.52,53.36 -29.07,110.65 -29.07,171.82 0,57.29 9.13,111.53 27.33,162.74 18.67,50.78 45.12,95.9 79.85,134.56 34.73,38.61 76.81,69.41 126.7,91.97 49.89,22.14 106.76,33.42 170.13,33.42 62.06,0 116.73,-12.59 163.58,-38.19 47.32,-25.6 87.24,-61.17 119.77,-107.18l123.66 93.28c-8.24,11.28 -22.56,27.38 -42.92,48.21 -20.41,20.83 -47.32,41.66 -81.16,62.91 -33.42,20.83 -74.23,39.03 -121.5,55.09 -47.32,16.05 -102.41,23.87 -164.47,23.87 -85.51,0 -163.16,-16.48 -232.15,-49 -69.04,-32.58 -127.59,-75.54 -176.22,-128.48 -48.16,-53.36 -85.04,-113.27 -110.65,-180.06 -25.6,-66.84 -38.19,-134.56 -38.19,-203.13 0,-83.73 13.9,-160.96 41.23,-231.73 27.33,-70.72 65.95,-131.89 115.42,-183.52 49.89,-51.67 109.38,-92.02 178.37,-120.24 69.41,-28.64 146.22,-42.97 230,-42.97 71.61,0 141.44,13.9 210.43,41.23 69.04,27.33 125.01,69.88 168.82,127.17l-122.39 93.28z"/>
   <path class="fil2" d="M5466.09 23203.44c-30.8,-39.92 -69.41,-70.72 -116.26,-91.97 -46.9,-21.3 -95.48,-32.11 -145.37,-32.11 -61.22,0 -116.73,11.7 -166.2,34.68 -49.47,23.03 -92.02,54.25 -127.17,94.17 -35.15,39.5 -62.06,86.35 -81.58,140.18 -19.52,53.36 -29.07,110.65 -29.07,171.82 0,57.29 9.13,111.53 27.33,162.74 18.67,50.78 45.12,95.9 79.85,134.56 34.73,38.61 76.81,69.41 126.7,91.97 49.89,22.14 106.76,33.42 170.13,33.42 62.06,0 116.73,-12.59 163.58,-38.19 47.32,-25.6 87.24,-61.17 119.77,-107.18l123.66 93.28c-8.24,11.28 -22.56,27.38 -42.92,48.21 -20.41,20.83 -47.32,41.66 -81.16,62.91 -33.42,20.83 -74.23,39.03 -121.5,55.09 -47.32,16.05 -102.41,23.87 -164.47,23.87 -85.51,0 -163.16,-16.48 -232.15,-49 -69.04,-32.58 -127.59,-75.54 -176.22,-128.48 -48.16,-53.36 -85.04,-113.27 -110.65,-180.06 -25.6,-66.84 -38.19,-134.56 -38.19,-203.13 0,-83.73 13.9,-160.96 41.23,-231.73 27.33,-70.72 65.95,-131.89 115.42,-183.52 49.89,-51.67 109.38,-92.02 178.37,-120.24 69.41,-28.64 146.22,-42.97 230,-42.97 71.61,0 141.44,13.9 210.43,41.23 69.04,27.33 125.01,69.88 168.82,127.17l-122.39 93.28zm312.47 -234.3l219.18 0 344.53 820.57 6.08 0 341.06 -820.57 219.18 0 0 1083.99 -147.11 0 0 -890.92 -3.04 0 -365.82 890.92 -98.1 0 -365.82 -890.92 -3.04 0 0 890.92 -147.11 0 0 -1083.99zm1653.36 621.84l-410.1 -621.84 188.34 0 295.52 476 304.65 -476 178.79 0 -410.1 621.84 0 462.15 -147.11 0 0 -462.15zm681.28 -621.84l147.11 0 0 468.65 12.17 0 479.09 -468.65 205.24 0 -523.79 500.76 558.94 583.23 -214.36 0 -505.11 -541.99 -12.17 0 0 541.99 -147.11 0 0 -1083.99zm1065.36 551.07c-27.33,0 -51.2,-9.97 -71.14,-29.49 -19.56,-19.94 -29.53,-43.81 -29.53,-71.61 0,-27.33 9.97,-51.2 29.53,-70.72 19.94,-19.99 43.81,-29.95 71.14,-29.95 27.75,0 51.63,9.97 71.19,29.95 19.94,19.52 29.91,43.39 29.91,70.72 0,27.8 -9.97,51.67 -29.91,71.61 -19.56,19.52 -43.43,29.49 -71.19,29.49zm-100.68 440.9c0,-27.33 9.97,-51.2 29.53,-71.14 19.94,-19.99 43.81,-29.95 71.14,-29.95 27.75,0 51.63,9.97 71.19,29.95 19.94,19.94 29.91,43.81 29.91,71.14 0,27.8 -9.97,51.67 -29.91,71.61 -19.56,19.52 -43.43,29.53 -71.19,29.53 -27.33,0 -51.2,-10.02 -71.14,-29.53 -19.56,-19.94 -29.53,-43.81 -29.53,-71.61zm1152.98 -823.62l-199.2 183.99 -85.93 -102.83 301.61 -249.51 130.21 0 0 1083.99 -146.68 0 0 -915.63zm507.73 759.4l434.81 -431.77c15.21,-14.32 29.95,-29.49 44.28,-46.43 14.32,-16.94 27.33,-34.31 38.19,-52.51 11.28,-18.67 20.41,-38.19 26.91,-58.6 6.51,-20.36 9.97,-42.08 9.97,-64.22 0,-26.44 -4.77,-50.78 -14.74,-72.03 -9.55,-21.25 -22.61,-39.5 -39.5,-54.25 -16.94,-14.74 -36.88,-26.02 -59.91,-34.26 -22.98,-8.24 -46.85,-12.59 -72.45,-12.59 -52.94,0 -96.79,14.74 -131.47,44.7 -34.73,29.49 -56.87,70.3 -65.99,122.35l-159.23 -13.85c7.35,-48.16 21.25,-89.4 42.08,-124.55 20.83,-35.15 46.85,-64.68 78.12,-88.09 31.27,-23.87 66.84,-41.23 107.18,-52.09 40.35,-11.28 83.78,-16.94 130.63,-16.94 47.27,0 91.55,6.55 132.78,19.1 41.23,12.59 77.7,31.69 108.49,56.87 31.22,24.71 55.56,55.98 73.34,93.28 17.79,36.88 26.91,80.74 26.91,130.63 0,36.04 -5.24,69.46 -16.05,100.68 -10.86,30.8 -24.76,60.33 -42.12,87.66 -17.36,27.33 -37.3,53.36 -59.86,78.12 -22.14,24.71 -45.59,48.58 -70.3,72.03l-356.74 344.57 545.08 0 0 128.43 -710.4 0 0 -156.23zm1140.43 203.55l-91.97 -47.32 681.28 -1133.04 92.02 47.74 -681.33 1132.62zm-302.87 -887.88c0,-37.77 6.93,-72.92 21.25,-105.45 14.32,-32.53 33.42,-61.17 58.13,-85.51 24.76,-24.71 52.94,-43.81 85.51,-58.13 32.53,-14.32 68.1,-21.72 105.87,-21.72 37.77,0 72.92,7.4 105.45,21.72 32.53,14.32 61.17,33.42 85.93,58.13 24.71,24.34 43.81,52.98 58.13,85.51 14.32,32.53 21.3,67.68 21.3,105.45 0,37.77 -6.97,73.34 -21.3,105.87 -14.32,32.58 -33.42,61.17 -58.13,85.93 -24.76,24.29 -53.4,43.81 -85.93,58.13 -32.53,14.32 -67.68,21.3 -105.45,21.3 -37.77,0 -73.34,-6.97 -105.87,-21.3 -32.58,-14.32 -60.75,-33.84 -85.51,-58.13 -24.71,-24.76 -43.81,-53.36 -58.13,-85.93 -14.32,-32.53 -21.25,-68.1 -21.25,-105.87zm119.3 0c0,42.97 14.32,78.96 43.39,108.07 29.11,29.07 65.1,43.39 108.07,43.39 42.97,0 78.54,-14.32 107.6,-43.39 29.11,-29.11 43.86,-65.1 43.86,-108.07 0,-42.97 -14.74,-78.54 -43.86,-107.6 -29.07,-29.11 -64.64,-43.86 -107.6,-43.86 -42.97,0 -78.96,14.74 -108.07,43.86 -29.07,29.07 -43.39,64.64 -43.39,107.6zm529.45 597.13c0,-37.77 6.93,-72.92 21.25,-105.45 14.32,-32.58 33.84,-61.22 58.13,-85.93 24.76,-24.76 53.4,-43.86 85.93,-58.18 32.53,-14.32 68.15,-21.25 105.87,-21.25 37.77,0 72.92,6.93 105.45,21.25 32.58,14.32 61.22,33.42 85.51,58.18 24.71,24.71 43.81,53.36 58.13,85.93 14.32,32.53 21.72,67.68 21.72,105.45 0,37.72 -7.4,73.34 -21.72,105.87 -14.32,32.53 -33.42,60.75 -58.13,85.46 -24.29,24.76 -52.94,43.86 -85.51,58.18 -32.53,14.32 -67.68,21.67 -105.45,21.67 -37.72,0 -73.34,-7.35 -105.87,-21.67 -32.53,-14.32 -61.17,-33.42 -85.93,-58.18 -24.29,-24.71 -43.81,-52.94 -58.13,-85.46 -14.32,-32.53 -21.25,-68.15 -21.25,-105.87zm119.3 0c0,42.97 14.79,78.96 43.86,108.02 29.07,29.07 65.06,43.39 108.02,43.39 42.97,0 78.58,-14.32 107.65,-43.39 29.07,-29.07 43.81,-65.06 43.81,-108.02 0,-42.97 -14.74,-78.58 -43.81,-107.65 -29.07,-29.07 -64.68,-43.81 -107.65,-43.81 -42.97,0 -78.96,14.74 -108.02,43.81 -29.07,29.07 -43.86,64.68 -43.86,107.65zm678.71 445.67l-125.86 0 105.87 -376.68 148.42 0 -128.43 376.68zm1077.86 -184.03c-49,0 -95.43,-7.35 -138.82,-22.09 -42.97,-14.79 -80.74,-36.46 -112.42,-65.1 -31.69,-28.64 -56.4,-63.37 -75.07,-104.14 -18.21,-40.81 -27.33,-86.82 -27.33,-137.56 0,-33.89 5.2,-65.1 16.05,-93.33 10.86,-28.64 25.18,-54.25 43.39,-77.23 18.67,-23.03 40.39,-42.55 65.1,-58.18 25.18,-16.05 52.51,-27.75 82,-35.99l0 -4.77c-20.36,-5.2 -40.77,-14.32 -61.17,-27.33 -20.41,-13.48 -38.61,-30.38 -54.67,-50.78 -15.63,-20.41 -28.64,-45.12 -39.08,-74.18 -9.97,-29.11 -15.16,-62.53 -15.16,-100.25 0,-40.81 8.24,-77.7 25.18,-111.11 16.9,-33.42 39.92,-61.59 68.99,-85.04 29.07,-23.45 62.91,-41.66 101.1,-54.25 38.61,-12.59 79.01,-19.1 121.93,-19.1 42.97,0 83.36,6.51 121.5,19.1 38.19,12.59 72.08,30.8 101.14,54.25 29.07,23.45 52.05,51.63 68.99,85.04 16.94,33.42 25.18,70.3 25.18,111.11 0,37.72 -5.24,71.14 -15.63,100.25 -9.97,29.07 -22.98,53.78 -39.08,74.18 -15.59,20.41 -33.84,37.3 -54.2,50.78 -20.41,13.01 -40.81,22.14 -61.22,27.33l0 4.77c29.95,8.24 57.29,19.94 82.05,35.99 25.13,15.63 46.85,35.15 65.06,58.18 18.67,22.98 33,48.58 43.86,77.23 10.86,28.22 16.05,59.44 16.05,93.33 0,50.74 -9.13,96.74 -27.8,137.56 -18.21,40.77 -43.39,75.5 -75.07,104.14 -31.64,28.64 -68.99,50.31 -112.38,65.1 -43.39,14.74 -89.4,22.09 -138.45,22.09zm-170.09 -829.7c0,21.25 3.88,42.55 11.28,62.91 7.82,20.41 18.67,38.19 33,54.25 14.32,16.05 32.11,29.11 52.94,39.08 20.83,9.97 45.12,15.16 72.87,15.16 28.64,0 53.4,-4.77 74.23,-14.32 20.83,-9.97 38.19,-22.56 52.51,-38.15 14.32,-16.1 25.13,-33.89 32.11,-54.25 7.35,-20.41 10.86,-42.12 10.86,-64.68 0,-49.89 -15.63,-91.13 -46.9,-123.24 -30.8,-32.11 -72.03,-48.16 -122.81,-48.16 -47.27,0 -87.2,16.05 -120.61,47.74 -33,31.69 -49.47,72.87 -49.47,123.66zm170.09 701.27c61.22,0 110.69,-18.67 148.88,-55.98 38.61,-37.3 57.71,-85.51 57.71,-144.49 0,-32.58 -5.24,-61.64 -16.05,-86.4 -10.86,-25.13 -25.6,-45.96 -44.7,-62.91 -18.67,-16.9 -40.81,-29.49 -65.53,-38.19 -24.76,-8.66 -51.67,-13.01 -80.32,-13.01 -60.28,0.89 -109.76,19.99 -148.84,57.29 -38.61,37.3 -58.13,85.04 -58.13,143.22 0,31.64 5.62,59.86 16.9,85.04 11.33,24.71 26.49,45.54 45.17,62.48 19.1,16.9 41.23,29.95 65.95,39.03 24.71,9.13 51.2,13.9 78.96,13.9zm785.05 157.54l-91.97 -47.32 681.28 -1133.04 92.02 47.74 -681.33 1132.62zm-302.87 -887.88c0,-37.77 6.93,-72.92 21.25,-105.45 14.32,-32.53 33.42,-61.17 58.13,-85.51 24.76,-24.71 52.94,-43.81 85.51,-58.13 32.53,-14.32 68.1,-21.72 105.87,-21.72 37.77,0 72.92,7.4 105.45,21.72 32.53,14.32 61.17,33.42 85.93,58.13 24.71,24.34 43.81,52.98 58.13,85.51 14.32,32.53 21.3,67.68 21.3,105.45 0,37.77 -6.97,73.34 -21.3,105.87 -14.32,32.58 -33.42,61.17 -58.13,85.93 -24.76,24.29 -53.4,43.81 -85.93,58.13 -32.53,14.32 -67.68,21.3 -105.45,21.3 -37.77,0 -73.34,-6.97 -105.87,-21.3 -32.58,-14.32 -60.75,-33.84 -85.51,-58.13 -24.71,-24.76 -43.81,-53.36 -58.13,-85.93 -14.32,-32.53 -21.25,-68.1 -21.25,-105.87zm119.3 0c0,42.97 14.32,78.96 43.39,108.07 29.11,29.07 65.1,43.39 108.07,43.39 42.97,0 78.54,-14.32 107.6,-43.39 29.11,-29.11 43.86,-65.1 43.86,-108.07 0,-42.97 -14.74,-78.54 -43.86,-107.6 -29.07,-29.11 -64.64,-43.86 -107.6,-43.86 -42.97,0 -78.96,14.74 -108.07,43.86 -29.07,29.07 -43.39,64.64 -43.39,107.6zm529.45 597.13c0,-37.77 6.93,-72.92 21.25,-105.45 14.32,-32.58 33.84,-61.22 58.13,-85.93 24.76,-24.76 53.4,-43.86 85.93,-58.18 32.53,-14.32 68.15,-21.25 105.87,-21.25 37.77,0 72.92,6.93 105.45,21.25 32.58,14.32 61.22,33.42 85.51,58.18 24.71,24.71 43.81,53.36 58.13,85.93 14.32,32.53 21.72,67.68 21.72,105.45 0,37.72 -7.4,73.34 -21.72,105.87 -14.32,32.53 -33.42,60.75 -58.13,85.46 -24.29,24.76 -52.94,43.86 -85.51,58.18 -32.53,14.32 -67.68,21.67 -105.45,21.67 -37.72,0 -73.34,-7.35 -105.87,-21.67 -32.53,-14.32 -61.17,-33.42 -85.93,-58.18 -24.29,-24.71 -43.81,-52.94 -58.13,-85.46 -14.32,-32.53 -21.25,-68.15 -21.25,-105.87zm119.3 0c0,42.97 14.79,78.96 43.86,108.02 29.07,29.07 65.06,43.39 108.02,43.39 42.97,0 78.58,-14.32 107.65,-43.39 29.07,-29.07 43.81,-65.06 43.81,-108.02 0,-42.97 -14.74,-78.58 -43.81,-107.65 -29.07,-29.07 -64.68,-43.81 -107.65,-43.81 -42.97,0 -78.96,14.74 -108.02,43.81 -29.07,29.07 -43.86,64.68 -43.86,107.65zm678.71 445.67l-125.86 0 105.87 -376.68 148.42 0 -128.43 376.68zm1166.41 -621.89l-6.08 0c-33.42,16.52 -73.34,24.76 -119.35,24.76 -38.61,0 -78.12,-6.51 -118.04,-19.99 -39.46,-13.43 -75.5,-33.84 -107.6,-62.02 -32.11,-28.22 -58.6,-63.79 -78.96,-107.23 -20.41,-43.39 -30.84,-94.59 -30.84,-153.61 0,-59.44 10.02,-111.53 29.95,-157.08 19.99,-45.59 46.85,-83.31 80.27,-114.11 33.89,-30.84 73.34,-53.82 118.04,-69.46 44.7,-16.05 92.86,-23.87 144.06,-23.87 50.78,0 98.94,8.24 143.64,24.76 45.17,16.05 84.62,39.46 118.04,70.3 33.42,30.8 60.33,67.26 80.27,110.22 19.99,42.92 29.95,90.66 29.95,143.64 0,33.84 -2.57,64.64 -7.82,91.97 -4.77,27.33 -12.12,53.82 -22.14,79.01 -9.55,24.71 -20.83,49.43 -34.26,74.18 -13.43,24.29 -28.22,49.47 -44.28,75.07l-274.23 433.08 -173.18 0 272.54 -419.65zm136.25 -328.94c0,-32.53 -5.2,-62.91 -16.05,-90.24 -10.86,-27.33 -26.02,-51.2 -46.01,-71.19 -19.52,-19.94 -43.39,-35.57 -71.14,-46.85 -27.33,-11.28 -58.18,-16.9 -91.6,-16.9 -33.84,0 -64.64,5.62 -91.97,16.9 -27.33,11.28 -51.2,26.91 -71.19,46.85 -19.94,19.99 -35.15,43.86 -45.96,71.19 -10.86,27.33 -16.1,57.71 -16.1,90.24 0,32.58 5.24,62.95 16.1,90.29 10.81,27.33 26.02,51.2 45.96,71.19 19.99,19.94 43.86,35.57 71.19,46.85 27.33,10.86 58.13,16.48 91.97,16.48 33.42,0 64.26,-5.62 91.6,-16.48 27.75,-11.28 51.63,-26.91 71.14,-46.85 19.99,-19.99 35.15,-43.86 46.01,-71.19 10.86,-27.33 16.05,-57.71 16.05,-90.29zm560.25 795.91l-91.97 -47.32 681.28 -1133.04 92.02 47.74 -681.33 1132.62zm-302.87 -887.88c0,-37.77 6.93,-72.92 21.25,-105.45 14.32,-32.53 33.42,-61.17 58.13,-85.51 24.76,-24.71 52.94,-43.81 85.51,-58.13 32.53,-14.32 68.1,-21.72 105.87,-21.72 37.77,0 72.92,7.4 105.45,21.72 32.53,14.32 61.17,33.42 85.93,58.13 24.71,24.34 43.81,52.98 58.13,85.51 14.32,32.53 21.3,67.68 21.3,105.45 0,37.77 -6.97,73.34 -21.3,105.87 -14.32,32.58 -33.42,61.17 -58.13,85.93 -24.76,24.29 -53.4,43.81 -85.93,58.13 -32.53,14.32 -67.68,21.3 -105.45,21.3 -37.77,0 -73.34,-6.97 -105.87,-21.3 -32.58,-14.32 -60.75,-33.84 -85.51,-58.13 -24.71,-24.76 -43.81,-53.36 -58.13,-85.93 -14.32,-32.53 -21.25,-68.1 -21.25,-105.87zm119.3 0c0,42.97 14.32,78.96 43.39,108.07 29.11,29.07 65.1,43.39 108.07,43.39 42.97,0 78.54,-14.32 107.6,-43.39 29.11,-29.11 43.86,-65.1 43.86,-108.07 0,-42.97 -14.74,-78.54 -43.86,-107.6 -29.07,-29.11 -64.64,-43.86 -107.6,-43.86 -42.97,0 -78.96,14.74 -108.07,43.86 -29.07,29.07 -43.39,64.64 -43.39,107.6zm529.45 597.13c0,-37.77 6.93,-72.92 21.25,-105.45 14.32,-32.58 33.84,-61.22 58.13,-85.93 24.76,-24.76 53.4,-43.86 85.93,-58.18 32.53,-14.32 68.15,-21.25 105.87,-21.25 37.77,0 72.92,6.93 105.45,21.25 32.58,14.32 61.22,33.42 85.51,58.18 24.71,24.71 43.81,53.36 58.13,85.93 14.32,32.53 21.72,67.68 21.72,105.45 0,37.72 -7.4,73.34 -21.72,105.87 -14.32,32.53 -33.42,60.75 -58.13,85.46 -24.29,24.76 -52.94,43.86 -85.51,58.18 -32.53,14.32 -67.68,21.67 -105.45,21.67 -37.72,0 -73.34,-7.35 -105.87,-21.67 -32.53,-14.32 -61.17,-33.42 -85.93,-58.18 -24.29,-24.71 -43.81,-52.94 -58.13,-85.46 -14.32,-32.53 -21.25,-68.15 -21.25,-105.87zm119.3 0c0,42.97 14.79,78.96 43.86,108.02 29.07,29.07 65.06,43.39 108.02,43.39 42.97,0 78.58,-14.32 107.65,-43.39 29.07,-29.07 43.81,-65.06 43.81,-108.02 0,-42.97 -14.74,-78.58 -43.81,-107.65 -29.07,-29.07 -64.68,-43.81 -107.65,-43.81 -42.97,0 -78.96,14.74 -108.02,43.81 -29.07,29.07 -43.86,64.68 -43.86,107.65zm678.71 445.67l-125.86 0 105.87 -376.68 148.42 0 -128.43 376.68zm722.47 -358.47l434.81 -431.77c15.21,-14.32 29.95,-29.49 44.28,-46.43 14.32,-16.94 27.33,-34.31 38.19,-52.51 11.28,-18.67 20.41,-38.19 26.91,-58.6 6.51,-20.36 9.97,-42.08 9.97,-64.22 0,-26.44 -4.77,-50.78 -14.74,-72.03 -9.55,-21.25 -22.61,-39.5 -39.5,-54.25 -16.94,-14.74 -36.88,-26.02 -59.91,-34.26 -22.98,-8.24 -46.85,-12.59 -72.45,-12.59 -52.94,0 -96.79,14.74 -131.47,44.7 -34.73,29.49 -56.87,70.3 -65.99,122.35l-159.23 -13.85c7.35,-48.16 21.25,-89.4 42.08,-124.55 20.83,-35.15 46.85,-64.68 78.12,-88.09 31.27,-23.87 66.84,-41.23 107.18,-52.09 40.35,-11.28 83.78,-16.94 130.63,-16.94 47.27,0 91.55,6.55 132.78,19.1 41.23,12.59 77.7,31.69 108.49,56.87 31.22,24.71 55.56,55.98 73.34,93.28 17.79,36.88 26.91,80.74 26.91,130.63 0,36.04 -5.24,69.46 -16.05,100.68 -10.86,30.8 -24.76,60.33 -42.12,87.66 -17.36,27.33 -37.3,53.36 -59.86,78.12 -22.14,24.71 -45.59,48.58 -70.3,72.03l-356.74 344.57 545.08 0 0 128.43 -710.4 0 0 -156.23zm1005.92 -108.49c17.36,52.09 40.35,90.71 69.41,116.31 29.11,25.6 72.5,38.19 129.32,38.19 28.64,0 55.56,-4.77 80.32,-14.32 25.13,-9.97 47.27,-22.98 66.79,-39.92 19.56,-16.94 34.73,-37.3 46.01,-61.17 11.28,-23.87 16.94,-50.78 16.94,-80.74 0,-44.7 -9.55,-80.69 -28.64,-107.6 -18.67,-27.33 -42.97,-47.74 -72.92,-61.17 -29.49,-13.9 -62.06,-23.03 -98.06,-26.91 -35.57,-3.93 -70.72,-6.08 -105.45,-6.08l0 -128.9c56.4,0 102.41,-3.88 137.98,-11.28 35.62,-7.35 63.79,-18.21 84.2,-32.53 20.41,-14.32 34.73,-32.58 42.97,-53.82 8.24,-21.25 12.12,-45.54 12.12,-72.03 0,-58.13 -17.32,-101.99 -52.05,-131.47 -34.73,-29.95 -78.12,-44.7 -130.21,-44.7 -39.46,0 -75.5,11.7 -108.02,34.73 -32.11,22.98 -56.45,52.94 -72.5,90.66l-150.15 -50.31c28.64,-69.46 72.5,-120.66 131.05,-153.61 58.6,-33.42 124.13,-49.94 196.58,-49.94 43.86,0 85.93,6.08 126.28,17.83 40.39,11.7 75.96,29.49 106.34,54.25 30.8,24.29 55.14,55.09 72.92,92.39 17.79,37.35 26.87,81.16 26.87,131.05 0,56.87 -17.32,108.07 -51.63,153.19 -34.26,44.7 -78.54,75.54 -133.63,91.6l0 3c33.37,6.08 63.75,17.36 90.24,33.89 26.49,16.05 49.05,36.41 67.26,61.17 18.67,24.71 32.11,52.09 41.23,82 9.13,29.95 13.9,62.06 13.9,95.48 0,52.09 -10.02,97.63 -29.95,137.14 -19.52,39.5 -46.01,72.03 -79.43,98.06 -33.42,26.07 -71.61,45.59 -115,59.02 -43.39,13.01 -88.93,19.52 -136.67,19.52 -82.89,0 -155.39,-18.63 -218.3,-56.4 -62.91,-37.77 -106.34,-97.63 -131.05,-179.21l154.92 -47.32zm985.51 312.04l-91.97 -47.32 681.28 -1133.04 92.02 47.74 -681.33 1132.62zm-302.87 -887.88c0,-37.77 6.93,-72.92 21.25,-105.45 14.32,-32.53 33.42,-61.17 58.13,-85.51 24.76,-24.71 52.94,-43.81 85.51,-58.13 32.53,-14.32 68.1,-21.72 105.87,-21.72 37.77,0 72.92,7.4 105.45,21.72 32.53,14.32 61.17,33.42 85.93,58.13 24.71,24.34 43.81,52.98 58.13,85.51 14.32,32.53 21.3,67.68 21.3,105.45 0,37.77 -6.97,73.34 -21.3,105.87 -14.32,32.58 -33.42,61.17 -58.13,85.93 -24.76,24.29 -53.4,43.81 -85.93,58.13 -32.53,14.32 -67.68,21.3 -105.45,21.3 -37.77,0 -73.34,-6.97 -105.87,-21.3 -32.58,-14.32 -60.75,-33.84 -85.51,-58.13 -24.71,-24.76 -43.81,-53.36 -58.13,-85.93 -14.32,-32.53 -21.25,-68.1 -21.25,-105.87zm119.3 0c0,42.97 14.32,78.96 43.39,108.07 29.11,29.07 65.1,43.39 108.07,43.39 42.97,0 78.54,-14.32 107.6,-43.39 29.11,-29.11 43.86,-65.1 43.86,-108.07 0,-42.97 -14.74,-78.54 -43.86,-107.6 -29.07,-29.11 -64.64,-43.86 -107.6,-43.86 -42.97,0 -78.96,14.74 -108.07,43.86 -29.07,29.07 -43.39,64.64 -43.39,107.6zm529.45 597.13c0,-37.77 6.93,-72.92 21.25,-105.45 14.32,-32.58 33.84,-61.22 58.13,-85.93 24.76,-24.76 53.4,-43.86 85.93,-58.18 32.53,-14.32 68.15,-21.25 105.87,-21.25 37.77,0 72.92,6.93 105.45,21.25 32.58,14.32 61.22,33.42 85.51,58.18 24.71,24.71 43.81,53.36 58.13,85.93 14.32,32.53 21.72,67.68 21.72,105.45 0,37.72 -7.4,73.34 -21.72,105.87 -14.32,32.53 -33.42,60.75 -58.13,85.46 -24.29,24.76 -52.94,43.86 -85.51,58.18 -32.53,14.32 -67.68,21.67 -105.45,21.67 -37.72,0 -73.34,-7.35 -105.87,-21.67 -32.53,-14.32 -61.17,-33.42 -85.93,-58.18 -24.29,-24.71 -43.81,-52.94 -58.13,-85.46 -14.32,-32.53 -21.25,-68.15 -21.25,-105.87zm119.3 0c0,42.97 14.79,78.96 43.86,108.02 29.07,29.07 65.06,43.39 108.02,43.39 42.97,0 78.58,-14.32 107.65,-43.39 29.07,-29.07 43.81,-65.06 43.81,-108.02 0,-42.97 -14.74,-78.58 -43.81,-107.65 -29.07,-29.07 -64.68,-43.81 -107.65,-43.81 -42.97,0 -78.96,14.74 -108.02,43.81 -29.07,29.07 -43.86,64.68 -43.86,107.65z"/>
   <path class="fil2" d="M4711.47 15314.71l381.03 0c69.41,0 126.7,9.55 171.4,28.6 45.12,18.67 80.69,42.97 106.76,72.08 26.02,29.07 44.23,61.59 54.25,97.63 9.97,35.99 15.16,71.14 15.16,104.98 0,33.42 -5.2,68.57 -15.16,105.03 -10.02,36.04 -28.22,68.99 -54.25,98.1 -26.07,29.07 -61.64,52.94 -106.76,71.56 -44.7,18.67 -101.99,28.22 -171.4,28.22l-233.93 0 0 477.78 -147.11 0 0 -1083.99zm147.11 477.78l192.69 0c28.64,0 56.82,-2.2 85.04,-6.97 28.22,-4.77 52.94,-13.01 75.07,-25.18 22.14,-12.12 39.5,-29.49 52.51,-52.47 13.43,-23.03 19.94,-52.98 19.94,-89.86 0,-36.88 -6.51,-66.37 -19.94,-89.4 -13.01,-22.98 -30.38,-40.77 -52.51,-52.94 -22.14,-12.59 -46.85,-20.83 -75.07,-25.13 -28.22,-4.77 -56.4,-6.97 -85.04,-6.97l-192.69 0 0 348.93zm987.24 -477.78l133.21 0 463.92 1083.99 -171.44 0 -108.91 -267.77 -515.55 0 -107.18 267.77 -171.4 0 477.36 -1083.99zm263.41 687.37l-202.24 -497.3 -3.04 0 -204.82 497.3 410.1 0zm474.74 -687.37l193.11 0 596.66 890.87 3.04 0 0 -890.87 147.11 0 0 1083.99 -186.56 0 -603.21 -890.92 -3.04 0 0 890.92 -147.11 0 0 -1083.99zm1445.08 137.98l-348.88 0 0 -137.98 844.87 0 0 137.98 -348.88 0 0 946.01 -147.11 0 0 -946.01zm1149.98 973.76c-82.89,0 -158.85,-14.74 -228.26,-43.81 -69.46,-29.07 -128.9,-69.46 -178.37,-120.19 -49.47,-50.78 -88.09,-111.11 -116.31,-180.52 -28.18,-69.46 -42.08,-144.53 -42.08,-225.22 0,-80.74 13.9,-155.81 42.08,-224.8 28.22,-69.41 66.84,-129.74 116.31,-180.52 49.47,-51.2 108.91,-91.13 178.37,-120.19 69.41,-29.07 145.37,-43.86 228.26,-43.86 82.42,0 158.39,14.79 227.8,43.86 69.46,29.07 128.9,68.99 178.37,120.19 49.47,50.78 88.09,111.11 116.31,180.52 28.18,68.99 42.08,144.06 42.08,224.8 0,80.69 -13.9,155.76 -42.08,225.22 -28.22,69.41 -66.84,129.74 -116.31,180.52 -49.47,50.74 -108.91,91.13 -178.37,120.19 -69.41,29.07 -145.37,43.81 -227.8,43.81zm0 -137.98c62.06,0 118.04,-11.28 167.93,-34.26 49.89,-23.03 92.86,-54.25 128.43,-92.91 36.04,-38.61 63.37,-84.15 82.89,-136.67 19.52,-52.51 29.07,-108.49 29.07,-167.93 0,-59.02 -9.55,-115 -29.07,-167.51 -19.52,-52.51 -46.85,-98.52 -82.89,-137.14 -35.57,-38.61 -78.54,-69.41 -128.43,-92.44 -49.89,-22.98 -105.87,-34.68 -167.93,-34.68 -62.48,0 -118.93,11.7 -168.82,34.68 -49.89,23.03 -92.44,53.82 -128.43,92.44 -35.62,38.61 -62.95,84.62 -82.47,137.14 -19.52,52.51 -29.07,108.49 -29.07,167.51 0,59.44 9.55,115.42 29.07,167.93 19.52,52.51 46.85,98.06 82.47,136.67 35.99,38.66 78.54,69.88 128.43,92.91 49.89,22.98 106.34,34.26 168.82,34.26zm775.88 -973.76l193.11 0 596.66 890.87 3.04 0 0 -890.87 147.11 0 0 1083.99 -186.56 0 -603.21 -890.92 -3.04 0 0 890.92 -147.11 0 0 -1083.99zm1218.55 0l699.54 0 0 137.98 -552.43 0 0 322.86 514.24 0 0 137.98 -514.24 0 0 347.19 580.19 0 0 137.98 -727.29 0 0 -1083.99zm1558.3 419.6l6.08 0c33.84,-16.48 73.76,-24.71 119.3,-24.71 38.61,0 78.12,6.51 118.04,19.94 39.92,13.48 75.96,33.84 108.07,62.06 32.11,28.22 58.13,63.79 78.54,107.18 20.41,43.39 30.8,94.59 30.8,154.08 0,60.28 -9.97,112.8 -29.95,158.39 -19.94,45.54 -46.85,83.31 -80.27,114.11 -33.42,30.38 -72.87,53.4 -118.04,68.57 -44.7,15.21 -92.86,22.98 -143.64,22.98 -51.2,0 -99.37,-8.24 -144.06,-24.29 -44.7,-16.48 -84.15,-39.92 -118.04,-70.3 -33.42,-30.8 -60.28,-67.26 -80.27,-110.22 -19.94,-42.97 -29.95,-91.13 -29.95,-144.06 0,-33.42 2.62,-64.22 7.82,-91.55 5.24,-27.8 12.59,-54.25 22.14,-79.01 9.97,-25.13 21.25,-49.89 34.73,-73.76 13.43,-23.87 28.22,-49.05 44.28,-75.5l273.81 -433.5 173.13 0 -272.49 419.6zm-136.29 328.94c0,32.53 5.24,62.91 16.1,90.71 10.81,27.33 26.02,51.2 45.96,71.14 19.99,19.56 43.86,35.15 71.19,46.43 27.33,11.28 58.13,16.94 91.97,16.94 33.42,0 64.26,-5.66 91.6,-16.94 27.75,-11.28 51.63,-26.87 71.14,-46.43 19.99,-19.94 35.15,-43.81 46.01,-71.14 10.86,-27.8 16.05,-58.18 16.05,-90.71 0,-32.53 -5.2,-62.48 -16.05,-89.82 -10.86,-27.8 -26.02,-51.63 -46.01,-71.61 -19.52,-19.94 -43.39,-35.57 -71.14,-46.43 -27.33,-11.28 -58.18,-16.94 -91.6,-16.94 -33.84,0 -64.64,5.66 -91.97,16.94 -27.33,10.86 -51.2,26.49 -71.19,46.43 -19.94,19.99 -35.15,43.81 -45.96,71.61 -10.86,27.33 -16.1,57.29 -16.1,89.82zm1164.77 96.79l-462.15 0 0 -150.15 431.77 -695.18 177.48 0 0 716.43 153.19 0 0 128.9 -153.19 0 0 238.66 -147.11 0 0 -238.66zm0 -670.89l-3.04 0 -330.67 541.99 333.71 0 0 -541.99zm762.44 927.76c-49,0 -95.43,-7.35 -138.82,-22.09 -42.97,-14.79 -80.74,-36.46 -112.42,-65.1 -31.69,-28.64 -56.4,-63.37 -75.07,-104.14 -18.21,-40.81 -27.33,-86.82 -27.33,-137.56 0,-33.89 5.2,-65.1 16.05,-93.33 10.86,-28.64 25.18,-54.25 43.39,-77.23 18.67,-23.03 40.39,-42.55 65.1,-58.18 25.18,-16.05 52.51,-27.75 82,-35.99l0 -4.77c-20.36,-5.2 -40.77,-14.32 -61.17,-27.33 -20.41,-13.48 -38.61,-30.38 -54.67,-50.78 -15.63,-20.41 -28.64,-45.12 -39.08,-74.18 -9.97,-29.11 -15.16,-62.53 -15.16,-100.25 0,-40.81 8.24,-77.7 25.18,-111.11 16.9,-33.42 39.92,-61.59 68.99,-85.04 29.07,-23.45 62.91,-41.66 101.1,-54.25 38.61,-12.59 79.01,-19.1 121.93,-19.1 42.97,0 83.36,6.51 121.5,19.1 38.19,12.59 72.08,30.8 101.14,54.25 29.07,23.45 52.05,51.63 68.99,85.04 16.94,33.42 25.18,70.3 25.18,111.11 0,37.72 -5.24,71.14 -15.63,100.25 -9.97,29.07 -22.98,53.78 -39.08,74.18 -15.59,20.41 -33.84,37.3 -54.2,50.78 -20.41,13.01 -40.81,22.14 -61.22,27.33l0 4.77c29.95,8.24 57.29,19.94 82.05,35.99 25.13,15.63 46.85,35.15 65.06,58.18 18.67,22.98 33,48.58 43.86,77.23 10.86,28.22 16.05,59.44 16.05,93.33 0,50.74 -9.13,96.74 -27.8,137.56 -18.21,40.77 -43.39,75.5 -75.07,104.14 -31.64,28.64 -68.99,50.31 -112.38,65.1 -43.39,14.74 -89.4,22.09 -138.45,22.09zm-170.09 -829.7c0,21.25 3.88,42.55 11.28,62.91 7.82,20.41 18.67,38.19 33,54.25 14.32,16.05 32.11,29.11 52.94,39.08 20.83,9.97 45.12,15.16 72.87,15.16 28.64,0 53.4,-4.77 74.23,-14.32 20.83,-9.97 38.19,-22.56 52.51,-38.15 14.32,-16.1 25.13,-33.89 32.11,-54.25 7.35,-20.41 10.86,-42.12 10.86,-64.68 0,-49.89 -15.63,-91.13 -46.9,-123.24 -30.8,-32.11 -72.03,-48.16 -122.81,-48.16 -47.27,0 -87.2,16.05 -120.61,47.74 -33,31.69 -49.47,72.87 -49.47,123.66zm170.09 701.27c61.22,0 110.69,-18.67 148.88,-55.98 38.61,-37.3 57.71,-85.51 57.71,-144.49 0,-32.58 -5.24,-61.64 -16.05,-86.4 -10.86,-25.13 -25.6,-45.96 -44.7,-62.91 -18.67,-16.9 -40.81,-29.49 -65.53,-38.19 -24.76,-8.66 -51.67,-13.01 -80.32,-13.01 -60.28,0.89 -109.76,19.99 -148.84,57.29 -38.61,37.3 -58.13,85.04 -58.13,143.22 0,31.64 5.62,59.86 16.9,85.04 11.33,24.71 26.49,45.54 45.17,62.48 19.1,16.9 41.23,29.95 65.95,39.03 24.71,9.13 51.2,13.9 78.96,13.9zm1744.91 -739.46c-30.8,-39.92 -69.41,-70.72 -116.26,-91.97 -46.9,-21.3 -95.48,-32.11 -145.37,-32.11 -61.22,0 -116.73,11.7 -166.2,34.68 -49.47,23.03 -92.02,54.25 -127.17,94.17 -35.15,39.5 -62.06,86.35 -81.58,140.18 -19.52,53.36 -29.07,110.65 -29.07,171.82 0,57.29 9.13,111.53 27.33,162.74 18.67,50.78 45.12,95.9 79.85,134.56 34.73,38.61 76.81,69.41 126.7,91.97 49.89,22.14 106.76,33.42 170.13,33.42 62.06,0 116.73,-12.59 163.58,-38.19 47.32,-25.6 87.24,-61.17 119.77,-107.18l123.66 93.28c-8.24,11.28 -22.56,27.38 -42.92,48.21 -20.41,20.83 -47.32,41.66 -81.16,62.91 -33.42,20.83 -74.23,39.03 -121.5,55.09 -47.32,16.05 -102.41,23.87 -164.47,23.87 -85.51,0 -163.16,-16.48 -232.15,-49 -69.04,-32.58 -127.59,-75.54 -176.22,-128.48 -48.16,-53.36 -85.04,-113.27 -110.65,-180.06 -25.6,-66.84 -38.19,-134.56 -38.19,-203.13 0,-83.73 13.9,-160.96 41.23,-231.73 27.33,-70.72 65.95,-131.89 115.42,-183.52 49.89,-51.67 109.38,-92.02 178.37,-120.24 69.41,-28.64 146.22,-42.97 230,-42.97 71.61,0 141.44,13.9 210.43,41.23 69.04,27.33 125.01,69.88 168.82,127.17l-122.39 93.28z"/>
   <polygon class="fil3" points="26912.5,3510.28 3510.37,3510.28 3510.37,9773.26 26912.5,9773.26 26912.5,9812.91 "/>
   <polygon class="fil1" points="3510.37,9812.86 26912.31,9812.86 26912.31,9773.21 3510.37,9773.21 "/>
   <path class="fil2" d="M4787.85 5078.65c0,36.88 5.66,70.72 16.94,101.99 11.28,30.8 26.87,57.29 47.27,79.38 20.41,22.14 45.59,39.5 75.07,52.09 29.95,12.59 62.95,19.1 99.83,19.1 36.88,0 69.83,-6.51 99.37,-19.1 29.49,-12.59 54.25,-29.95 74.65,-52.09 20.36,-22.09 36.41,-48.58 47.69,-79.38 11.28,-31.27 16.94,-65.1 16.94,-101.99 0,-36.88 -5.66,-70.72 -16.94,-101.57 -11.28,-31.22 -27.33,-57.71 -47.69,-79.85 -20.41,-22.09 -45.17,-39.46 -74.65,-52.05 -29.53,-12.59 -62.48,-19.1 -99.37,-19.1 -36.88,0 -69.88,6.51 -99.83,19.1 -29.49,12.59 -54.67,29.95 -75.07,52.05 -20.41,22.14 -35.99,48.63 -47.27,79.85 -11.28,30.84 -16.94,64.68 -16.94,101.57zm-146.68 0c0,-53.36 9.97,-102.83 29.53,-148.42 19.94,-46.01 47.27,-86.35 82,-121.08 34.73,-34.68 75.5,-62.06 122.39,-82 47.27,-19.99 97.63,-29.95 151.88,-29.95 54.25,0 104.56,9.97 151.41,29.95 46.9,19.94 87.66,47.32 122.39,82 34.73,34.73 62.06,75.07 82,121.08 19.99,45.59 29.95,95.06 29.95,148.42 0,52.94 -9.97,102.83 -29.95,149.26 -19.94,46.43 -47.27,86.82 -82,121.08 -34.73,34.31 -75.5,61.17 -122.39,81.16 -46.85,19.52 -97.17,29.49 -151.41,29.49 -54.25,0 -104.61,-9.97 -151.88,-29.49 -46.9,-19.99 -87.66,-46.85 -122.39,-81.16 -34.73,-34.26 -62.06,-74.65 -82,-121.08 -19.56,-46.43 -29.53,-96.32 -29.53,-149.26zm944.7 -362.78l137.56 0 0 104.14 3.04 0c26.49,-38.61 62.95,-68.99 109.38,-90.24 46.43,-21.72 94.59,-32.58 143.64,-32.58 55.98,0 106.71,9.97 152.3,29.53 45.54,19.52 84.2,46.43 116.31,81.11 32.11,34.31 56.82,75.07 74.18,121.55 17.36,46.43 26.02,95.9 26.02,149.26 0,54.25 -8.66,104.56 -26.02,150.99 -17.36,46.48 -42.08,86.4 -74.18,120.66 -32.11,34.26 -70.77,60.75 -116.31,80.27 -45.59,19.52 -96.32,29.07 -152.3,29.07 -52.09,0 -101.14,-10.81 -147.15,-32.53 -45.96,-22.14 -81.11,-52.09 -105.87,-89.82l-3.04 0 0 535.91 -137.56 0 0 -1157.33zm376.68 110.22c-36.88,0 -69.88,6.51 -99.83,19.1 -29.49,12.59 -54.67,29.95 -75.07,52.05 -20.36,22.14 -35.99,48.63 -47.27,79.85 -11.28,30.84 -16.94,64.68 -16.94,101.57 0,36.88 5.66,70.72 16.94,101.99 11.28,30.8 26.91,57.29 47.27,79.38 20.41,22.14 45.59,39.5 75.07,52.09 29.95,12.59 62.95,19.1 99.83,19.1 36.88,0 69.88,-6.51 99.37,-19.1 29.53,-12.59 54.25,-29.95 74.65,-52.09 20.41,-22.09 36.46,-48.58 47.74,-79.38 11.28,-31.27 16.9,-65.1 16.9,-101.99 0,-36.88 -5.62,-70.72 -16.9,-101.57 -11.28,-31.22 -27.33,-57.71 -47.74,-79.85 -20.41,-22.09 -45.12,-39.46 -74.65,-52.05 -29.49,-12.59 -62.48,-19.1 -99.37,-19.1zm561.51 -21.72c38.61,-35.57 83.78,-62.48 134.52,-80.27 51.2,-17.79 102.41,-26.91 153.19,-26.91 53.4,0 98.94,6.51 137.14,19.99 38.19,13.43 69.41,31.22 94.17,53.78 24.71,22.14 42.55,48.21 54.25,77.27 11.7,29.07 17.79,59.44 17.79,91.13l0 370.6c0,25.6 0.42,49 1.31,70.3 1.31,21.25 2.57,41.66 4.77,61.17l-122.39 0c-3.04,-36.88 -4.77,-73.34 -4.77,-110.22l-3.04 0c-30.8,46.85 -66.79,79.85 -108.91,99.37 -41.66,19.52 -90.24,29.07 -145.37,29.07 -33.42,0 -65.53,-4.77 -96.32,-13.85 -30.8,-9.13 -57.71,-22.56 -80.74,-40.81 -22.98,-18.63 -40.77,-41.23 -54.25,-68.1 -13.01,-27.38 -19.52,-58.6 -19.52,-94.64 0,-46.85 10.44,-85.89 31.27,-117.57 20.83,-31.69 49.47,-57.71 85.46,-77.27 36.46,-19.94 79.01,-34.26 127.17,-42.97 48.58,-8.66 100.68,-13.01 155.76,-13.01l100.68 0 0 -30.8c0,-18.21 -3.46,-36.46 -10.81,-54.67 -6.97,-18.67 -17.83,-35.15 -32.15,-49.89 -14.32,-15.21 -32.11,-26.91 -53.36,-35.62 -21.25,-8.66 -46.85,-13.01 -76.38,-13.01 -26.44,0 -49.89,2.62 -69.83,7.82 -19.99,5.2 -38.19,11.7 -54.25,19.52 -16.05,7.4 -30.84,16.52 -44.28,26.49 -13.48,9.97 -26.02,19.94 -38.61,29.07l-82.47 -85.93zm388.8 288.17c-32.53,0 -65.95,1.73 -100.21,5.2 -34.31,3.46 -65.1,10.39 -93.33,20.83 -28.18,9.97 -51.2,24.29 -68.99,42.97 -17.79,18.21 -26.91,41.66 -26.91,70.3 0,41.66 13.9,71.61 42.12,90.24 28.18,18.25 65.95,27.33 114.11,27.33 37.77,0 69.88,-6.51 96.32,-19.1 26.49,-12.54 48.21,-29.07 64.26,-49.43 16.48,-20.41 28.18,-43.43 35.15,-68.15 7.35,-25.18 10.81,-49.89 10.81,-74.65l0 -45.54 -73.34 0zm921.72 -184.03c-25.6,-26.44 -52.09,-46.43 -80.27,-60.28 -28.22,-13.9 -61.64,-20.83 -100.25,-20.83 -37.77,0 -70.72,6.93 -98.94,20.83 -28.22,13.85 -51.63,32.95 -70.72,56.82 -18.67,23.87 -33,51.2 -42.97,82.47 -9.55,31.22 -14.32,63.79 -14.32,97.21 0,33.42 5.66,65.53 16.94,95.9 11.28,29.95 26.87,56.4 47.27,78.96 20.41,22.14 45.12,39.92 73.76,52.51 28.64,12.59 60.75,19.1 96.37,19.1 38.61,0 72.03,-6.93 99.37,-20.41 27.75,-13.85 53.36,-34.26 76.81,-60.75l98.06 98.1c-35.99,39.46 -77.65,68.1 -124.97,85.46 -47.32,17.36 -97.63,26.02 -150.57,26.02 -55.98,0 -107.65,-9.08 -154.08,-27.33 -46.43,-18.63 -86.35,-44.23 -120.19,-77.23 -33.42,-33.42 -59.44,-72.92 -78.12,-119.35 -18.21,-46.43 -27.33,-98.06 -27.33,-154.03 0,-55.98 9.13,-107.65 27.33,-154.5 18.67,-47.27 44.28,-87.66 77.27,-121.08 33.42,-33.42 72.87,-59.86 119.3,-78.54 46.43,-19.1 98.52,-28.64 155.81,-28.64 52.94,0 103.72,9.55 151.88,28.64 48.58,18.67 90.71,47.74 126.7,86.35l-104.14 94.59zm229.58 -192.65l137.56 0 0 725.56 -137.56 0 0 -725.56zm-32.11 -260.37c0,-27.33 9.97,-51.2 29.49,-71.19 19.99,-19.94 43.86,-29.91 71.19,-29.91 27.75,0 51.63,9.97 71.14,29.91 19.99,19.99 29.95,43.86 29.95,71.19 0,27.33 -9.97,51.2 -29.95,71.14 -19.52,19.99 -43.39,29.95 -71.14,29.95 -27.33,0 -51.2,-9.97 -71.19,-29.95 -19.52,-19.94 -29.49,-43.81 -29.49,-71.14zm777.65 379.72l-197.47 0 0 328.89c0,20.41 0.42,40.81 1.31,60.75 1.31,19.99 5.2,37.77 11.7,53.82 6.51,15.63 16.94,28.22 30.38,38.19 13.9,9.55 34.31,14.32 60.75,14.32 16.05,0 33,-1.31 50.36,-4.35 17.36,-3.04 33.42,-8.66 47.74,-16.9l0 125.39c-16.52,9.13 -37.77,15.63 -63.79,19.1 -26.07,3.46 -46.01,5.2 -60.33,5.2 -53.4,0 -94.59,-7.35 -123.7,-22.09 -29.07,-14.79 -50.31,-33.89 -64.22,-57.29 -13.43,-23.45 -21.67,-49.47 -24.29,-78.54 -2.62,-29.11 -3.88,-58.6 -3.88,-88.55l0 -377.95 -159.28 0 0 -119.35 159.28 0 0 -203.51 137.98 0 0 203.51 197.47 0 0 119.35zm180.48 -30.84c38.61,-35.57 83.78,-62.48 134.52,-80.27 51.2,-17.79 102.41,-26.91 153.19,-26.91 53.4,0 98.94,6.51 137.14,19.99 38.19,13.43 69.41,31.22 94.17,53.78 24.71,22.14 42.55,48.21 54.25,77.27 11.7,29.07 17.79,59.44 17.79,91.13l0 370.6c0,25.6 0.42,49 1.31,70.3 1.31,21.25 2.57,41.66 4.77,61.17l-122.39 0c-3.04,-36.88 -4.77,-73.34 -4.77,-110.22l-3.04 0c-30.8,46.85 -66.79,79.85 -108.91,99.37 -41.66,19.52 -90.24,29.07 -145.37,29.07 -33.42,0 -65.53,-4.77 -96.32,-13.85 -30.8,-9.13 -57.71,-22.56 -80.74,-40.81 -22.98,-18.63 -40.77,-41.23 -54.25,-68.1 -13.01,-27.38 -19.52,-58.6 -19.52,-94.64 0,-46.85 10.44,-85.89 31.27,-117.57 20.83,-31.69 49.47,-57.71 85.46,-77.27 36.46,-19.94 79.01,-34.26 127.17,-42.97 48.58,-8.66 100.68,-13.01 155.76,-13.01l100.68 0 0 -30.8c0,-18.21 -3.46,-36.46 -10.81,-54.67 -6.97,-18.67 -17.83,-35.15 -32.15,-49.89 -14.32,-15.21 -32.11,-26.91 -53.36,-35.62 -21.25,-8.66 -46.85,-13.01 -76.38,-13.01 -26.44,0 -49.89,2.62 -69.83,7.82 -19.99,5.2 -38.19,11.7 -54.25,19.52 -16.05,7.4 -30.84,16.52 -44.28,26.49 -13.48,9.97 -26.02,19.94 -38.61,29.07l-82.47 -85.93zm388.8 288.17c-32.53,0 -65.95,1.73 -100.21,5.2 -34.31,3.46 -65.1,10.39 -93.33,20.83 -28.18,9.97 -51.2,24.29 -68.99,42.97 -17.79,18.21 -26.91,41.66 -26.91,70.3 0,41.66 13.9,71.61 42.12,90.24 28.18,18.25 65.95,27.33 114.11,27.33 37.77,0 69.88,-6.51 96.32,-19.1 26.49,-12.54 48.21,-29.07 64.26,-49.43 16.48,-20.41 28.18,-43.43 35.15,-68.15 7.35,-25.18 10.81,-49.89 10.81,-74.65l0 -45.54 -73.34 0zm3.04 -514.66l-127.12 0 -227.84 -220.45 195.74 0 159.23 220.45zm1146.89 881.75c-49,0 -95.43,-7.35 -138.82,-22.09 -42.97,-14.79 -80.74,-36.46 -112.42,-65.1 -31.69,-28.64 -56.4,-63.37 -75.07,-104.14 -18.21,-40.81 -27.33,-86.82 -27.33,-137.56 0,-33.89 5.2,-65.1 16.05,-93.33 10.86,-28.64 25.18,-54.25 43.39,-77.23 18.67,-23.03 40.39,-42.55 65.1,-58.18 25.18,-16.05 52.51,-27.75 82,-35.99l0 -4.77c-20.36,-5.2 -40.77,-14.32 -61.17,-27.33 -20.41,-13.48 -38.61,-30.38 -54.67,-50.78 -15.63,-20.41 -28.64,-45.12 -39.08,-74.18 -9.97,-29.11 -15.16,-62.53 -15.16,-100.25 0,-40.81 8.24,-77.7 25.18,-111.11 16.9,-33.42 39.92,-61.59 68.99,-85.04 29.07,-23.45 62.91,-41.66 101.1,-54.25 38.61,-12.59 79.01,-19.1 121.93,-19.1 42.97,0 83.36,6.51 121.5,19.1 38.19,12.59 72.08,30.8 101.14,54.25 29.07,23.45 52.05,51.63 68.99,85.04 16.94,33.42 25.18,70.3 25.18,111.11 0,37.72 -5.24,71.14 -15.63,100.25 -9.97,29.07 -22.98,53.78 -39.08,74.18 -15.59,20.41 -33.84,37.3 -54.2,50.78 -20.41,13.01 -40.81,22.14 -61.22,27.33l0 4.77c29.95,8.24 57.29,19.94 82.05,35.99 25.13,15.63 46.85,35.15 65.06,58.18 18.67,22.98 33,48.58 43.86,77.23 10.86,28.22 16.05,59.44 16.05,93.33 0,50.74 -9.13,96.74 -27.8,137.56 -18.21,40.77 -43.39,75.5 -75.07,104.14 -31.64,28.64 -68.99,50.31 -112.38,65.1 -43.39,14.74 -89.4,22.09 -138.45,22.09zm-170.09 -829.7c0,21.25 3.88,42.55 11.28,62.91 7.82,20.41 18.67,38.19 33,54.25 14.32,16.05 32.11,29.11 52.94,39.08 20.83,9.97 45.12,15.16 72.87,15.16 28.64,0 53.4,-4.77 74.23,-14.32 20.83,-9.97 38.19,-22.56 52.51,-38.15 14.32,-16.1 25.13,-33.89 32.11,-54.25 7.35,-20.41 10.86,-42.12 10.86,-64.68 0,-49.89 -15.63,-91.13 -46.9,-123.24 -30.8,-32.11 -72.03,-48.16 -122.81,-48.16 -47.27,0 -87.2,16.05 -120.61,47.74 -33,31.69 -49.47,72.87 -49.47,123.66zm170.09 701.27c61.22,0 110.69,-18.67 148.88,-55.98 38.61,-37.3 57.71,-85.51 57.71,-144.49 0,-32.58 -5.24,-61.64 -16.05,-86.4 -10.86,-25.13 -25.6,-45.96 -44.7,-62.91 -18.67,-16.9 -40.81,-29.49 -65.53,-38.19 -24.76,-8.66 -51.67,-13.01 -80.32,-13.01 -60.28,0.89 -109.76,19.99 -148.84,57.29 -38.61,37.3 -58.13,85.04 -58.13,143.22 0,31.64 5.62,59.86 16.9,85.04 11.33,24.71 26.49,45.54 45.17,62.48 19.1,16.9 41.23,29.95 65.95,39.03 24.71,9.13 51.2,13.9 78.96,13.9zm477.4 -431.77c0,-39.5 2.15,-80.74 6.04,-123.7 3.93,-42.97 11.28,-85.46 22.14,-126.7 10.86,-41.23 25.18,-80.69 42.97,-118.46 17.79,-37.77 40.81,-70.72 68.99,-98.94 28.22,-28.22 61.22,-50.36 99.41,-67.26 38.15,-16.94 82.84,-25.18 134.05,-25.18 50.78,0 95.48,8.24 133.67,25.18 38.61,16.9 71.61,39.03 99.83,67.26 28.18,28.22 50.74,61.17 68.52,98.94 17.83,37.77 32.15,77.23 42.97,118.46 10.86,41.23 18.25,83.73 22.14,126.7 4.35,42.97 6.51,84.2 6.51,123.7 0,57.29 -5.2,118.46 -15.59,183.99 -10.02,65.1 -29.11,125.86 -56.87,181.83 -27.33,55.98 -65.53,102.41 -114.16,139.29 -48.16,36.88 -110.65,55.09 -187.03,55.09 -76.81,0 -139.29,-18.21 -187.87,-55.09 -48.16,-36.88 -86.35,-83.31 -113.69,-139.29 -27.33,-55.98 -46.43,-116.73 -56.87,-181.83 -9.97,-65.53 -15.16,-126.7 -15.16,-183.99zm147.11 0c0,35.99 2.15,78.12 6.51,127.12 4.77,49.05 14.74,95.9 29.91,141.49 15.21,45.54 38.19,84.2 68.15,115.84 29.95,31.69 70.72,47.32 121.93,47.32 50.78,0 91.6,-15.63 121.5,-47.32 29.95,-31.64 52.98,-70.3 68.15,-115.84 15.21,-45.59 25.18,-92.44 29.95,-141.49 4.77,-49 6.93,-91.13 6.93,-127.12 0,-24.76 -0.84,-52.51 -2.57,-83.31 -1.31,-31.27 -5.24,-62.95 -10.86,-95.06 -5.66,-32.11 -13.48,-63.37 -23.45,-93.28 -9.97,-29.95 -23.87,-57.29 -40.77,-81.16 -16.94,-23.87 -37.35,-42.97 -62.06,-57.29 -24.29,-14.32 -53.4,-21.67 -86.82,-21.67 -33.84,0 -62.91,7.35 -87.62,21.67 -24.34,14.32 -44.7,33.42 -61.64,57.29 -16.94,23.87 -30.38,51.2 -40.81,81.16 -9.97,29.91 -18.21,61.17 -23.82,93.28 -5.66,32.11 -9.13,63.79 -10.44,95.06 -1.31,30.8 -2.15,58.55 -2.15,83.31zm1011.54 589.31l-91.97 -47.32 681.28 -1133.04 92.02 47.74 -681.33 1132.62zm-302.87 -887.88c0,-37.77 6.93,-72.92 21.25,-105.45 14.32,-32.53 33.42,-61.17 58.13,-85.51 24.76,-24.71 52.94,-43.81 85.51,-58.13 32.53,-14.32 68.1,-21.72 105.87,-21.72 37.77,0 72.92,7.4 105.45,21.72 32.53,14.32 61.17,33.42 85.93,58.13 24.71,24.34 43.81,52.98 58.13,85.51 14.32,32.53 21.3,67.68 21.3,105.45 0,37.77 -6.97,73.34 -21.3,105.87 -14.32,32.58 -33.42,61.17 -58.13,85.93 -24.76,24.29 -53.4,43.81 -85.93,58.13 -32.53,14.32 -67.68,21.3 -105.45,21.3 -37.77,0 -73.34,-6.97 -105.87,-21.3 -32.58,-14.32 -60.75,-33.84 -85.51,-58.13 -24.71,-24.76 -43.81,-53.36 -58.13,-85.93 -14.32,-32.53 -21.25,-68.1 -21.25,-105.87zm119.3 0c0,42.97 14.32,78.96 43.39,108.07 29.11,29.07 65.1,43.39 108.07,43.39 42.97,0 78.54,-14.32 107.6,-43.39 29.11,-29.11 43.86,-65.1 43.86,-108.07 0,-42.97 -14.74,-78.54 -43.86,-107.6 -29.07,-29.11 -64.64,-43.86 -107.6,-43.86 -42.97,0 -78.96,14.74 -108.07,43.86 -29.07,29.07 -43.39,64.64 -43.39,107.6zm529.45 597.13c0,-37.77 6.93,-72.92 21.25,-105.45 14.32,-32.58 33.84,-61.22 58.13,-85.93 24.76,-24.76 53.4,-43.86 85.93,-58.18 32.53,-14.32 68.15,-21.25 105.87,-21.25 37.77,0 72.92,6.93 105.45,21.25 32.58,14.32 61.22,33.42 85.51,58.18 24.71,24.71 43.81,53.36 58.13,85.93 14.32,32.53 21.72,67.68 21.72,105.45 0,37.72 -7.4,73.34 -21.72,105.87 -14.32,32.53 -33.42,60.75 -58.13,85.46 -24.29,24.76 -52.94,43.86 -85.51,58.18 -32.53,14.32 -67.68,21.67 -105.45,21.67 -37.72,0 -73.34,-7.35 -105.87,-21.67 -32.53,-14.32 -61.17,-33.42 -85.93,-58.18 -24.29,-24.71 -43.81,-52.94 -58.13,-85.46 -14.32,-32.53 -21.25,-68.15 -21.25,-105.87zm119.3 0c0,42.97 14.79,78.96 43.86,108.02 29.07,29.07 65.06,43.39 108.02,43.39 42.97,0 78.58,-14.32 107.65,-43.39 29.07,-29.07 43.81,-65.06 43.81,-108.02 0,-42.97 -14.74,-78.58 -43.81,-107.65 -29.07,-29.07 -64.68,-43.81 -107.65,-43.81 -42.97,0 -78.96,14.74 -108.02,43.81 -29.07,29.07 -43.86,64.68 -43.86,107.65z"/>
  </g>
 </g>
</svg>
