<?xml version="1.0" encoding="UTF-8"?>
<!DOCTYPE svg PUBLIC "-//W3C//DTD SVG 1.1//EN" "http://www.w3.org/Graphics/SVG/1.1/DTD/svg11.dtd">
<!-- Creator: CorelDRAW (Evaluation Version) -->
<svg xmlns="http://www.w3.org/2000/svg" xml:space="preserve" width="84.6668mm" height="42.3333mm" version="1.1" style="shape-rendering:geometricPrecision; text-rendering:geometricPrecision; image-rendering:optimizeQuality; fill-rule:evenodd; clip-rule:evenodd"
viewBox="0 0 5070.92 2535.45"
 xmlns:xlink="http://www.w3.org/1999/xlink"
 xmlns:xodm="http://www.corel.com/coreldraw/odm/2003">
 <defs>
  <style type="text/css">
   <![CDATA[
    .fil0 {fill:none}
    .fil1 {fill:#FEFEFE;fill-rule:nonzero}
   ]]>
  </style>
 </defs>
 <g id="Layer_x0020_1">
  <metadata id="CorelCorpID_0Corel-Layer"/>
  <rect class="fil0" x="0" y="0" width="5070.92" height="2535.45"/>
  <path class="fil1" d="M1331.86 878.43l85.43 0 325.5 765.63 -105.97 0 -77.86 -188.16 -382.81 0 -78.94 188.16 -102.73 0 337.39 -765.63zm41.1 116.79l-2.17 0 -158.96 376.32 312.52 0 -151.39 -376.32z"/>
  <polygon id="_1" class="fil1" points="2040.18,1644.05 1947.18,1644.05 1740.64,1137.96 1839.04,1137.96 1996.92,1534.83 1999.09,1534.83 2149.4,1137.96 2240.24,1137.96 "/>
  <path id="_2" class="fil1" d="M2783.1 1552.14c-30.28,38.93 -63.44,66.15 -99.49,81.65 -36.04,15.5 -77.86,23.25 -125.44,23.25 -39.65,0 -75.34,-7.03 -107.06,-21.09 -31.73,-14.06 -58.58,-32.98 -80.57,-56.77 -21.99,-23.8 -38.93,-51.91 -50.82,-84.35 -11.89,-32.44 -17.84,-67.04 -17.84,-103.81 0,-38.93 6.49,-74.79 19.47,-107.6 12.98,-32.8 31,-60.92 54.07,-84.35 23.07,-23.43 50.47,-41.64 82.18,-54.61 31.72,-12.98 66.33,-19.47 103.81,-19.47 35.32,0 67.77,5.95 97.33,17.84 29.56,11.89 54.97,29.2 76.24,51.9 21.27,22.71 37.67,50.47 49.21,83.27 11.54,32.8 17.3,70.11 17.3,111.93l0 27.03 -408.76 0c1.44,21.63 6.67,42.36 15.68,62.18 9.01,19.83 20.72,37.13 35.15,51.91 14.42,14.78 31.36,26.5 50.82,35.15 19.47,8.65 40.73,12.98 63.8,12.98 36.76,0 67.76,-6.49 93,-19.47 25.23,-12.98 47.94,-32.08 68.13,-57.32l63.8 49.75zm-72.45 -206.55c-1.44,-43.25 -15.5,-77.86 -42.18,-103.81 -26.67,-25.96 -63.44,-38.93 -110.3,-38.93 -46.86,0 -84.71,12.97 -113.55,38.93 -28.83,25.95 -46.14,60.56 -51.9,103.81l317.93 0z"/>
  <path id="_3" class="fil1" d="M2932.33 1258c0,-23.07 -0.72,-44.7 -2.16,-64.88 -1.44,-20.19 -2.16,-38.57 -2.16,-55.16l80.02 0c0,13.7 0.36,27.39 1.08,41.09 0.72,13.7 1.08,27.76 1.08,42.18l2.16 0c5.77,-12.25 13.88,-24.15 24.33,-35.68 10.45,-11.54 22.88,-21.81 37.31,-30.82 14.42,-9.01 30.64,-16.22 48.66,-21.63 18.02,-5.41 37.49,-8.11 58.4,-8.11 33.16,0 61.82,5.04 85.97,15.13 24.15,10.1 44.16,24.15 60.02,42.18 15.86,18.02 27.57,39.83 35.15,65.43 7.57,25.59 11.36,53.53 11.36,83.81l0 312.52 -84.35 0 0 -303.87c0,-42.54 -9.37,-76.06 -28.11,-100.57 -18.75,-24.51 -47.94,-36.76 -87.59,-36.76 -27.39,0 -51,4.68 -70.84,14.06 -19.82,9.37 -36.04,22.71 -48.66,40.01 -12.62,17.3 -21.99,37.85 -28.12,61.64 -6.13,23.79 -9.19,50.11 -9.19,78.94l0 246.56 -84.35 0 0 -386.06z"/>
  <path id="_4" class="fil1" d="M3541.16 1137.96l84.35 0 0 506.09 -84.35 0 0 -506.09zm-19.47 -197.89c0,-16.58 5.95,-31 17.84,-43.26 11.89,-12.25 26.5,-18.38 43.8,-18.38 17.3,0 31.9,6.13 43.79,18.38 11.89,12.26 17.84,26.68 17.84,43.26 0,18.02 -5.77,32.8 -17.3,44.33 -11.54,11.54 -26.31,17.3 -44.33,17.3 -18.03,0 -32.8,-5.77 -44.34,-17.3 -11.54,-11.53 -17.3,-26.31 -17.3,-44.33z"/>
  <path id="_5" class="fil1" d="M3793.12 1258c0,-23.07 -0.72,-44.7 -2.16,-64.88 -1.44,-20.19 -2.16,-38.57 -2.16,-55.16l80.02 0c0,13.7 0.36,27.39 1.08,41.09 0.72,13.7 1.08,27.76 1.08,42.18l2.16 0c5.77,-12.25 13.88,-24.15 24.33,-35.68 10.45,-11.54 22.88,-21.81 37.31,-30.82 14.42,-9.01 30.64,-16.22 48.66,-21.63 18.02,-5.41 37.49,-8.11 58.4,-8.11 5.77,0 11.54,0.36 17.3,1.08 5.77,0.72 11.54,2.16 17.3,4.32l-5.4 85.43c-14.42,-4.32 -29.56,-6.49 -45.42,-6.49 -51.9,0 -89.58,16.76 -113.01,50.29 -23.43,33.52 -35.15,79.48 -35.15,137.87l0 246.56 -84.35 0 0 -386.06z"/>
 </g>
</svg>
