<?xml version="1.0" encoding="UTF-8"?>
<!DOCTYPE svg PUBLIC "-//W3C//DTD SVG 1.1//EN" "http://www.w3.org/Graphics/SVG/1.1/DTD/svg11.dtd">
<!-- Creator: CorelDRAW (Evaluation Version) -->
<svg xmlns="http://www.w3.org/2000/svg" xml:space="preserve" width="84.6668mm" height="42.3333mm" version="1.1" style="shape-rendering:geometricPrecision; text-rendering:geometricPrecision; image-rendering:optimizeQuality; fill-rule:evenodd; clip-rule:evenodd"
viewBox="0 0 4972.64 2486.31"
 xmlns:xlink="http://www.w3.org/1999/xlink"
 xmlns:xodm="http://www.corel.com/coreldraw/odm/2003">
 <defs>
  <style type="text/css">
   <![CDATA[
    .fil0 {fill:none}
    .fil1 {fill:#FEFEFE;fill-rule:nonzero}
   ]]>
  </style>
 </defs>
 <g id="Layer_x0020_1">
  <metadata id="CorelCorpID_0Corel-Layer"/>
  <rect class="fil0" x="0" y="0" width="4972.63" height="2486.31"/>
  <path class="fil1" d="M825.46 935.25l6.21 83.64c2.26,25.24 3.39,42.57 3.39,51.62l-15.83 2.83c-24.67,-55.76 -55.19,-97.58 -91.93,-125.46 -36.55,-27.88 -81.38,-41.82 -134.31,-41.82 -64.8,0 -115.29,7.91 -151.27,23.73 -52.18,22.42 -97.02,61.6 -134.13,117.18 -37.11,55.57 -55.76,122.63 -55.76,201 0,45.4 6.78,86.09 20.34,122.07 13.75,36.17 32.97,69.7 57.64,100.78 24.87,31.08 54.26,58.21 88.16,81 22.04,15.07 48.42,26.56 78.94,34.28 17.14,3.96 42.95,6.03 77.23,6.03 22.04,0 46.53,-3.21 73.28,-9.42 26.94,-6.22 47.1,-14.69 60.85,-25.06 13.57,-10.55 22.79,-22.42 27.69,-35.79 5.09,-13.19 7.54,-39 7.54,-77.43 0,-63.67 -4.14,-100.78 -12.62,-111.33 -8.48,-10.55 -35.23,-17.52 -80.25,-20.72l-22.04 -1.7 -14.88 0.56c-2.26,-0.38 -5.09,-0.94 -8.86,-1.69l-8.29 -13.38c0,-1.88 1.32,-4.14 3.96,-7.16 19.02,-2.83 60.66,-4.33 124.89,-4.33 14.32,0 37.68,0.38 70.08,1.13l56.89 2.26 51.43 -0.56c9.98,0 21.85,0.38 35.98,0.94 2.45,0.38 4.15,1.13 4.9,2.07 0.75,0.75 1.13,2.45 1.13,4.52 0,3.95 -0.95,9.04 -2.83,15.26 -15.45,3.2 -27.5,4.9 -35.98,4.9l-35.98 -0.56c-12.06,0 -21.85,4.33 -29.39,12.62 -3.58,4.14 -5.46,17.9 -5.46,41.44l0.56 72.34c0,49.54 -2.07,81.19 -6.03,94.94 -2.26,8.1 -6.78,15.26 -13.94,21.67 -6.97,6.6 -21.66,14.13 -44.08,22.98 -32.03,12.81 -61.03,21.48 -87.03,25.99 -48.6,8.48 -95.5,12.62 -140.72,12.62 -72.9,0 -132.62,-9.23 -179.15,-27.88 -46.53,-18.65 -86.47,-44.45 -120.19,-77.61 -33.72,-33.16 -57.65,-66.5 -71.96,-100.41 -21.67,-49.73 -32.59,-100.22 -32.59,-151.83 0,-64.43 16.95,-127.35 51.05,-189.13 34.09,-61.6 88.91,-111.71 164.83,-150.33 53.31,-27.32 125.84,-40.88 217.39,-40.88 63.3,0 115.1,5.46 155.42,16.57 40.31,10.93 72.15,23.55 95.7,37.49z"/>
  <path id="_1" class="fil1" d="M1409.25 1531.09c2.26,4.71 3.39,8.29 3.39,10.55 0,5.46 -4.52,15.07 -13.37,29.2 -11.31,18.27 -24.12,31.65 -38.05,40.13 -8.86,5.46 -21.1,8.29 -36.55,8.29 -26.56,0 -46.53,-8.1 -59.9,-24.49 -8.1,-9.61 -13.76,-26.75 -17.14,-51.62l-61.79 42.95c-21.66,12.43 -38.24,20.34 -49.73,23.74 -18.47,4.71 -40.5,7.15 -66.31,7.15 -18.65,0 -33.53,-5.65 -44.45,-16.76 -10.74,-11.31 -16.2,-25.62 -16.2,-43.33 0,-25.43 15.63,-55.57 46.72,-90.99 31.27,-35.23 73.66,-64.05 127.15,-86.47 37.68,-15.82 60.66,-25.99 69.14,-30.33 0.75,-12.25 1.13,-25.81 1.13,-40.31 0,-47.28 -6.6,-79.31 -19.78,-96.07 -13,-16.76 -31.83,-25.24 -56.14,-25.24 -25.62,0 -49.36,10.17 -71.58,30.33 -13.76,12.62 -24.12,36.55 -31.09,71.78 -2.26,9.61 -6.4,20.16 -12.62,31.46 -15.82,10.36 -28.44,15.63 -37.86,15.63 -8.1,0 -15.45,-2.45 -22.04,-7.15 -3.58,-2.64 -5.47,-5.66 -5.47,-9.04 0,-9.61 10.17,-31.46 30.71,-65.37 20.34,-33.91 46.15,-59.34 77.23,-76.29 31.08,-16.77 58.21,-25.24 81.38,-25.24 31.46,0 55.01,2.83 70.45,8.66 15.45,5.65 29.2,15.63 40.88,30.14 11.86,14.51 19.02,30.14 21.47,47.1 1.51,8.1 2.26,37.11 2.26,87.03l-1.7 88.16 0.56 64.43c0,8.48 -0.19,15.63 -0.56,21.66 -0.38,10.55 -0.56,18.65 -0.56,23.74 0,12.25 3.58,22.04 10.55,29.38 6.97,7.35 15.45,11.12 25.06,11.12 13.94,0 25.99,-6.97 35.98,-21.1l6.78 -8.86c1.7,-1.13 5.84,-2.45 12.06,-3.96zm-160.5 -16.76c2.64,-46.72 3.96,-79.69 3.96,-98.9 0,-9.98 -0.56,-23.36 -1.7,-40.31 -25.06,8.85 -51.43,22.22 -79.49,40.31 -27.88,18.08 -50.11,38.99 -66.5,62.54 -11.86,16.96 -17.9,32.97 -17.9,48.04 0,14.32 4.9,26.38 14.88,35.99 9.8,9.6 22.23,14.31 37.11,14.31 11.68,0 25.62,-4.14 42.01,-12.25 21.67,-10.55 44.08,-27.12 67.63,-49.73z"/>
  <path id="_2" class="fil1" d="M1442.41 1610.22l-2.26 -7.35c0,-2.64 1.7,-6.6 5.09,-11.87l32.59 -6.59 46.15 -8.48c3.77,-1.89 6.22,-4.33 7.72,-7.72 2.26,-4.9 3.39,-19.02 3.39,-42.76 0,-126.03 -0.76,-198.74 -2.26,-218.33 -1.32,-19.41 -4.71,-31.65 -9.8,-36.92 -5.09,-5.09 -18.46,-9.23 -39.56,-12.25 -12.62,-1.7 -22.42,-4.14 -29.77,-7.16l2.26 -16.39c38.43,-15.82 64.43,-29.39 77.61,-40.69 18.27,-16.58 33.91,-38.24 46.72,-64.99l18.27 0.56c2.07,18.27 3.2,58.97 3.2,121.88l-0.56 9.42c0,2.26 0.38,5.65 1.13,10.36 14.13,-25.24 31.65,-48.6 52.75,-70.07l12.81 -12.62c5.09,-5.84 10.17,-10.37 15.07,-13.76 25.81,-15.45 45.02,-23.17 57.65,-23.17 16.39,0 29.58,5.46 39.94,16.39 10.36,10.74 15.63,24.12 15.63,39.94 0,12.62 -3.76,22.23 -11.11,29.39 -9.98,9.23 -21.48,13.75 -34.48,13.75 -5.84,0 -17.52,-3.2 -34.85,-9.6 -17.52,-6.41 -29.01,-9.61 -34.47,-9.61 -10.36,0 -17.52,1.69 -21.67,5.09 -10.36,8.1 -22.98,24.68 -37.68,49.92 -11.49,18.84 -17.33,36.17 -17.33,52.18l2.83 91.75 1.13 110.39c1.13,12.62 2.64,20.73 4.33,24.49 1.5,2.64 5.27,5.65 11.11,9.42 39.75,3.39 63.3,5.84 70.64,7.35 5.09,0.38 8.85,0.75 11.49,1.13 15.83,0.19 26.75,2.45 33.16,6.6 3.2,1.88 4.9,4.52 4.9,8.29 0,2.07 -1.51,5.09 -4.33,8.66l-61.41 -1.13 -23.18 -0.56 -33.53 0.56 -56.32 0 -30.33 2.26 -92.68 2.26z"/>
  <path id="_3" class="fil1" d="M2245.47 1531.09c2.26,4.71 3.39,8.29 3.39,10.55 0,5.46 -4.52,15.07 -13.37,29.2 -11.31,18.27 -24.12,31.65 -38.05,40.13 -8.86,5.46 -21.1,8.29 -36.55,8.29 -26.56,0 -46.53,-8.1 -59.9,-24.49 -8.1,-9.61 -13.76,-26.75 -17.14,-51.62l-61.79 42.95c-21.66,12.43 -38.24,20.34 -49.73,23.74 -18.47,4.71 -40.5,7.15 -66.31,7.15 -18.65,0 -33.53,-5.65 -44.45,-16.76 -10.74,-11.31 -16.2,-25.62 -16.2,-43.33 0,-25.43 15.63,-55.57 46.72,-90.99 31.27,-35.23 73.66,-64.05 127.15,-86.47 37.68,-15.82 60.66,-25.99 69.14,-30.33 0.75,-12.25 1.13,-25.81 1.13,-40.31 0,-47.28 -6.6,-79.31 -19.78,-96.07 -13,-16.76 -31.83,-25.24 -56.14,-25.24 -25.62,0 -49.36,10.17 -71.58,30.33 -13.76,12.62 -24.12,36.55 -31.09,71.78 -2.26,9.61 -6.4,20.16 -12.62,31.46 -15.82,10.36 -28.44,15.63 -37.86,15.63 -8.1,0 -15.45,-2.45 -22.04,-7.15 -3.58,-2.64 -5.47,-5.66 -5.47,-9.04 0,-9.61 10.17,-31.46 30.71,-65.37 20.34,-33.91 46.15,-59.34 77.23,-76.29 31.08,-16.77 58.21,-25.24 81.38,-25.24 31.46,0 55.01,2.83 70.45,8.66 15.45,5.65 29.2,15.63 40.88,30.14 11.86,14.51 19.02,30.14 21.47,47.1 1.51,8.1 2.26,37.11 2.26,87.03l-1.7 88.16 0.56 64.43c0,8.48 -0.19,15.63 -0.56,21.66 -0.38,10.55 -0.56,18.65 -0.56,23.74 0,12.25 3.58,22.04 10.55,29.38 6.97,7.35 15.45,11.12 25.06,11.12 13.94,0 25.99,-6.97 35.98,-21.1l6.78 -8.86c1.7,-1.13 5.84,-2.45 12.06,-3.96zm-160.5 -16.76c2.64,-46.72 3.96,-79.69 3.96,-98.9 0,-9.98 -0.56,-23.36 -1.7,-40.31 -25.06,8.85 -51.43,22.22 -79.49,40.31 -27.88,18.08 -50.11,38.99 -66.5,62.54 -11.86,16.96 -17.9,32.97 -17.9,48.04 0,14.32 4.9,26.38 14.88,35.99 9.8,9.6 22.23,14.31 37.11,14.31 11.68,0 25.62,-4.14 42.01,-12.25 21.67,-10.55 44.08,-27.12 67.63,-49.73z"/>
  <path id="_4" class="fil1" d="M2277.5 1587.05c5.84,-4.15 13.94,-6.97 24.3,-8.48 14.69,-1.88 26.19,-4.71 34.29,-8.85 6.59,-5.46 11.11,-13.38 13.19,-23.74 2.64,-13.19 3.96,-59.71 3.96,-139.78 0,-78.37 -2.45,-129.04 -7.16,-151.83 -8.29,-5.27 -18.84,-9.23 -31.65,-12.25 -4.14,-0.75 -12.62,-2.64 -25.62,-6.03l0 -18.65c22.23,-6.21 40.13,-14.32 53.69,-24.3 13.76,-9.79 32.78,-29.57 57.08,-59.34l3.39 0c2.26,0 5.84,-0.19 10.74,-0.56 3.02,0.38 5.47,1.32 7.35,2.83l-0.56 62.92c0,13 0.38,26.75 1.13,41.44 38.99,-35.6 74.22,-60.47 105.3,-74.78 21.1,-9.61 45.02,-14.32 71.78,-14.32 31.83,0 56.89,6.03 75.54,18.08 18.65,12.25 36.36,33.91 53.31,65.56 32.59,-32.4 62.36,-54.82 88.91,-67.82 26.56,-12.81 53.5,-19.21 80.63,-19.21 41.25,0 74.98,13.37 101.54,40.31 26,27.12 39.37,67.06 40.13,119.62l0 45.78 0.56 50.3 -0.56 129.04c-0.38,15.07 3.01,26.56 9.98,34.29 2.83,0.94 14.13,4.33 33.53,9.8 12.25,3.39 19.41,6.03 21.48,7.72 2.26,1.88 3.39,4.52 3.39,7.72 0,4.14 -1.13,8.85 -3.39,14.31l-3.76 0 -55.58 -2.83c-6.59,-0.38 -16.95,-0.56 -31.27,-0.56 -17.52,0 -42.2,0.75 -73.66,2.26l-28.07 0c-3.96,0 -11.87,0.19 -23.55,0.56 -0.38,-3.39 -0.56,-6.21 -0.56,-8.85 0,-2.83 1.32,-6.6 3.96,-10.93 9.8,-4.33 23.36,-7.91 40.69,-10.74 17.14,-2.83 27.88,-7.72 32.03,-14.88 4.33,-7.16 6.4,-35.6 6.4,-85.71 0,-108.13 -1.32,-171.05 -3.95,-188.19 -4.33,-27.5 -16.02,-49.17 -35.04,-64.8 -18.84,-15.63 -42.76,-23.36 -71.4,-23.36 -22.04,0 -43.7,5.65 -64.61,17.14 -20.91,11.3 -41.64,28.44 -61.79,51.24l-0.56 13.19 0 84.77 -2.26 65.93c0,67.25 0.75,105.49 2.07,114.72 1.13,9.23 4.33,16.02 9.23,20.34 5.09,4.15 19.4,7.91 43.33,11.31 10.55,1.5 18.84,3.01 24.68,4.52 4.33,3.58 6.59,8.48 6.59,14.31 0,4.9 -1.69,8.1 -4.9,9.98l-9.41 0 -27.69 -0.56 -160.69 0 -44.27 0.56c-0.75,-5.46 -1.13,-9.61 -1.13,-12.25l0.56 -6.59c8.1,-4.33 23.36,-8.67 45.59,-12.62 11.31,-1.89 23.17,-5.09 35.42,-9.42 2.26,-1.89 3.96,-4.33 5.09,-7.35 1.7,-5.09 3.01,-19.97 3.77,-44.27l2.83 -64.24 -1.13 -72.72 0.57 -40.5c0,-45.4 -9.23,-78.55 -27.5,-99.46 -18.47,-20.91 -41.45,-31.27 -69.52,-31.27 -25.99,0 -52.18,6.41 -78.37,19.41 -26.37,13 -48.04,30.33 -65.37,52 -0.38,10.36 -0.56,19.59 -0.56,28.07l2.26 184.24c0.38,40.13 2.64,63.11 6.97,68.76 4.14,5.65 13.56,9.61 28.26,11.87 23.55,3.2 38.8,7.35 45.78,12.06 3.2,2.45 4.9,6.03 4.9,10.92 0,3.39 -0.19,7.16 -0.56,11.68 -42.01,-3.02 -70.27,-4.52 -84.59,-4.52 -14.69,0 -28.07,0.19 -39.75,0.56l-27.69 1.7 -17.14 0 -61.98 2.07c-0.75,-2.44 -1.13,-4.7 -1.13,-6.4 0,-1.7 0.75,-5.27 2.26,-10.92z"/>
  <path id="_5" class="fil1" d="M3168.16 1383.97c0,-25.06 5.27,-51.8 15.63,-80.25 10.55,-28.44 26.38,-54.06 47.85,-76.48 21.29,-22.61 43.9,-39.56 67.63,-50.49 33.53,-15.45 74.41,-23.17 122.45,-23.17 68.76,0 126.21,23.55 172.37,70.45 46.15,47.09 69.13,103.61 69.13,169.92 0,58.77 -24.11,111.14 -72.52,157.3 -48.23,46.16 -109.45,69.14 -183.3,69.14 -45.59,0 -88.54,-11.87 -129.04,-35.79 -30.14,-18.09 -55.95,-44.65 -77.61,-79.88 -21.67,-35.42 -32.59,-75.54 -32.59,-120.75zm243.95 214.94c28.07,0 55.01,-7.54 81,-22.61 25.99,-15.07 46.72,-39.18 62.17,-72.52 15.45,-33.16 23.17,-71.78 23.17,-115.48 0,-28.64 -6.03,-61.79 -17.9,-99.66 -12.06,-37.86 -30.52,-66.31 -55.38,-85.14 -24.87,-19.03 -54.07,-28.45 -87.6,-28.45 -24.3,0 -48.98,5.66 -74.22,17.14 -25.24,11.31 -46.72,33.15 -64.24,65.56 -17.52,32.4 -26.18,78.18 -26.18,137.71 0,66.87 15.26,117.55 45.59,151.83 30.33,34.48 68.19,51.61 113.59,51.61z"/>
  <path id="_6" class="fil1" d="M3725.77 1587.61c9.23,-2.64 19.78,-4.9 31.83,-6.6 23.17,-3.39 36.92,-7.35 41.64,-11.68 4.52,-4.52 6.78,-14.51 6.78,-30.33l1.13 -19.97c0.38,-7.35 0.56,-16.77 0.56,-28.26l-1.13 -169.73c0,-22.79 -3.02,-37.49 -8.86,-44.27 -9.8,-10.17 -28.26,-17.52 -55.01,-21.48l0 -19.78c26.38,-7.35 46.72,-16.76 60.85,-28.63 20.73,-16.39 38.05,-38.62 52.18,-66.88l19.22 0.57c1.13,17.52 1.69,29.95 1.69,37.29l0 36.92 0.57 9.98c4.33,-2.83 9.6,-6.6 15.45,-10.92 22.22,-16.77 44.83,-30.33 68.19,-40.69 23.36,-10.55 43.89,-17.9 62.16,-21.85 11.31,-3.01 24.3,-4.52 38.81,-4.52 30.14,0 56.32,8.1 77.99,24.3 21.85,16.2 35.98,35.42 42.38,57.26 6.6,22.04 9.8,65.56 9.8,130.93l0 83.45c0,2.26 -0.38,9.61 -0.94,22.04 -0.56,12.62 -0.75,26.94 -0.75,43.14 0,25.81 1.13,42.2 3.39,49.36 1.7,4.71 6.6,9.61 14.13,14.31 35.23,4.71 55.76,10.55 61.6,17.14l0 4.33c0,3.76 -1.13,8.29 -3.39,13.75l-10.55 0 -73.09 -1.13 -72.15 1.7c-26.56,0.75 -51.24,0.56 -73.66,-0.57l-3.39 -12.81c0,-2.45 1.32,-5.65 3.77,-9.8 9.98,-4.33 23.92,-7.34 42.01,-8.85 10.55,-0.75 17.9,-1.7 22.04,-3.2 3.96,-1.51 9.04,-4.52 14.88,-8.86 4.33,-8.85 6.6,-16.2 6.6,-22.04 0,-2.64 -0.38,-7.72 -1.13,-15.45 -1.13,-16.76 -1.88,-58.77 -2.26,-126.03l0 -28.63 1.13 -44.08c0,-47.29 -9.61,-79.88 -28.63,-97.96 -19.03,-17.9 -44.65,-26.94 -76.67,-26.94 -24.49,0 -48.6,5.46 -72.15,16.39 -23.55,10.74 -46.35,27.12 -68.39,48.79 -0.75,17.71 -1.13,32.78 -1.13,45.21l1.7 121.69c0,63.67 0.94,102.48 2.83,116.79 0.75,5.84 1.89,9.98 3.76,12.25 3.01,2.83 8.86,5.27 17.71,7.16 8.86,1.7 19.03,4.33 30.52,7.72 11.68,3.2 19.22,5.27 22.98,6.03 7.35,1.89 12.25,5.66 14.88,11.31l-0.56 11.3 -57.65 0 -118.3 -1.13c-27.5,0 -44.83,0 -52.18,0l-13.76 0 -1.13 -7.16c0,-2.64 0.56,-6.21 1.7,-10.92z"/>
  <path id="_7" class="fil1" d="M4684.62 1204.82l0.56 -16.01 -0.56 -64.62 0.56 -122.07c0,-33.91 -3.76,-55.38 -11.11,-64.62 -7.54,-9.23 -29.2,-18.65 -65.37,-28.07 -2.64,-0.75 -6.6,-1.89 -12.25,-3.39l0 -6.03c0,-3.58 0.38,-7.72 1.13,-12.05 49.73,-5.09 92.68,-13.76 128.66,-26l28.07 -0.56c1.32,25.06 2.07,52.94 2.07,83.64l-2.07 211.93 3.76 238.87 -1.7 127.15c0,26 1.89,40.69 5.66,44.08 7.35,7.35 23.55,11.11 48.6,11.49 5.09,0 12.06,0.38 20.91,1.13l0 10.17c0,2.64 -0.19,5.46 -0.56,8.48 -11.49,2.64 -23.17,5.09 -35.42,7.35l-80.44 15.82c-11.87,2.26 -21.28,3.39 -28.26,3.39l0 -52.37c-6.22,1.89 -16.02,5.46 -29.01,11.11 -57.26,24.49 -109.82,36.74 -157.67,36.74 -29.01,0 -58.4,-9.42 -88.35,-28.44 -30.14,-18.84 -53.12,-45.4 -69.33,-79.12 -16.01,-33.91 -24.11,-68.57 -24.11,-103.8 0,-31.64 5.27,-61.98 16.01,-90.8 10.74,-28.82 24.68,-52.94 42.01,-71.96 11.11,-12.62 26.75,-25.06 46.9,-37.3 20.34,-12.43 37.11,-20.16 50.3,-23.55 32.78,-8.48 54.63,-12.62 65.74,-12.62 49.73,0 90.61,7.35 122.64,22.04 9.98,4.9 17.52,8.1 22.61,9.98zm-1.13 340.59c1.51,-24.49 2.26,-75.35 2.26,-152.02 0,-64.99 -3.01,-106.06 -9.04,-123.2 -6.03,-17.14 -21.1,-33.34 -45.21,-48.6 -24.12,-15.26 -51.05,-22.79 -81,-22.79 -42.01,0 -77.61,16.39 -106.82,48.98 -29.2,32.78 -43.89,81 -43.89,145.06 0,56.14 15.82,100.97 47.47,134.5 31.46,33.34 70.83,50.11 117.93,50.11 27.12,0 51.8,-3.77 74.03,-11.12 22.23,-7.35 37.11,-14.31 44.27,-20.91z"/>
 </g>
</svg>
