<?xml version="1.0" encoding="UTF-8"?>
<!DOCTYPE svg PUBLIC "-//W3C//DTD SVG 1.1//EN" "http://www.w3.org/Graphics/SVG/1.1/DTD/svg11.dtd">
<!-- Creator: CorelDRAW -->
<svg xmlns="http://www.w3.org/2000/svg" xml:space="preserve" width="52.945mm" height="52.9452mm" version="1.1" style="shape-rendering:geometricPrecision; text-rendering:geometricPrecision; image-rendering:optimizeQuality; fill-rule:evenodd; clip-rule:evenodd"
viewBox="0 0 716.63 716.64"
 xmlns:xlink="http://www.w3.org/1999/xlink"
 xmlns:xodm="http://www.corel.com/coreldraw/odm/2003">
 <defs>
  <style type="text/css">
   <![CDATA[
    .fil0 {fill:#FEFEFE}
   ]]>
  </style>
 </defs>
 <g id="Livello_x0020_1">
  <metadata id="CorelCorpID_0Corel-Layer"/>
  <path class="fil0" d="M60.17 716.64l596.3 0c33.09,0 60.17,-27.08 60.17,-60.17l0 -596.29c0,-33.09 -27.08,-60.17 -60.17,-60.17l-596.3 0c-33.09,0 -60.17,27.08 -60.17,60.17l0 596.29c0,33.09 27.08,60.17 60.17,60.17zm300.21 -560.54c78.65,0 187.31,73.99 187.31,205.73 0,118.97 -90.23,198.7 -197.71,198.7l-24.27 0 0 -80.83 24.27 0c61.31,0 112.13,-60.12 112.13,-118.51 0,-80.29 -57.2,-124.17 -124.81,-124.17l-35.85 0 0 87.58 46.99 0 0 85.49 -46.99 0 0 150.45 -85.49 0 0 -150.45 -46.89 0 0 -85.49 46.89 0 0 -168.51 144.42 0 0 0 0 0z"/>
 </g>
</svg>
