<?xml version="1.0" encoding="UTF-8"?>
<!DOCTYPE svg PUBLIC "-//W3C//DTD SVG 1.1//EN" "http://www.w3.org/Graphics/SVG/1.1/DTD/svg11.dtd">
<!-- Creator: CorelDRAW (Evaluation Version) -->
<svg xmlns="http://www.w3.org/2000/svg" xml:space="preserve" width="149.999mm" height="14.6859mm" version="1.1" style="shape-rendering:geometricPrecision; text-rendering:geometricPrecision; image-rendering:optimizeQuality; fill-rule:evenodd; clip-rule:evenodd"
viewBox="0 0 14588.65 1428.32"
 xmlns:xlink="http://www.w3.org/1999/xlink"
 xmlns:xodm="http://www.corel.com/coreldraw/odm/2003">
 <defs>
  <style type="text/css">
   <![CDATA[
    .fil0 {fill:#FEFEFE;fill-rule:nonzero}
   ]]>
  </style>
 </defs>
 <g id="Layer_x0020_1">
  <metadata id="CorelCorpID_0Corel-Layer"/>
  <path class="fil0" d="M547.61 464.78c-112.73,0 -209.42,40.78 -289.38,122.05 -79.99,81.25 -119.82,179.54 -119.82,294.84 0,114.67 39.84,212.96 119.82,294.23 79.97,81.25 176.65,121.72 289.38,121.72 113.05,0 209.1,-40.47 289.07,-121.72 79.66,-81.27 119.48,-179.56 119.48,-294.23 0,-115.3 -39.82,-213.59 -119.48,-294.84 -79.97,-81.27 -176.02,-122.05 -289.07,-122.05zm410.17 776.29c-8.02,9.64 -16.37,18.63 -25.36,27.3 -106.64,106.63 -235.44,159.95 -386.71,159.95 -150.32,0 -279.12,-53.32 -385.75,-159.95 -106.63,-106.61 -159.95,-235.42 -159.95,-386.71 0,-151.27 53.32,-280.06 159.95,-387.02 106.63,-106.96 235.43,-160.6 385.75,-160.6 151.27,0 280.06,53.32 386.71,159.95 9,9.32 17.34,18.63 25.36,27.3l0 -521.28 134.59 0 0 1391.7 -134.59 0 0 -150.64zm599.01 -654.25c-79.99,81.25 -119.8,179.54 -119.8,294.84 0,114.67 39.82,212.96 119.8,294.23 79.97,81.25 176.65,121.72 289.4,121.72 113.05,0 209.41,-40.47 289.07,-121.72 79.63,-81.27 119.47,-179.56 119.47,-294.23 0,-115.3 -39.84,-213.59 -119.47,-294.84 -79.66,-81.27 -176.02,-122.05 -289.07,-122.05 -112.75,0 -209.44,40.78 -289.4,122.05zm697.94 804.89l0 -147.75c-7.7,8.03 -15.41,16.38 -23.44,24.41 -106.63,106.63 -235.75,159.95 -386.73,159.95 -150.62,0 -279.41,-53.32 -386.05,-159.95 -106.65,-106.61 -159.97,-235.42 -159.97,-386.71 0,-151.27 53.32,-280.06 159.97,-387.02 106.63,-106.96 235.42,-160.6 386.05,-160.6 150.97,0 280.09,53.64 386.73,160.6 106.63,106.95 159.95,235.75 159.95,387.02l0 510.05 -136.51 0zm1034.22 -566.57c0,-115.32 -28.91,-204.28 -87.05,-266.58 -58.15,-62.63 -127.52,-93.79 -208.45,-93.79 -75.8,0 -142.6,28.25 -200.42,84.15 -57.82,56.21 -86.72,141.96 -86.72,257.59l0 585.2 -136.2 0 0 -585.2c0,-151.28 42.08,-267.87 126.88,-349.77 84.79,-81.9 182.75,-122.7 294.54,-122.7 121.09,0 223.85,44 308.64,131.69 21.85,23.13 41.13,48.83 57.5,76.11 16.7,-27.28 36.3,-52.99 58.15,-76.11 84.79,-87.69 187.55,-131.69 308.64,-131.69 111.77,0 210.06,40.8 294.53,122.7 84.8,81.9 127.2,198.48 127.2,349.77l0 585.2 -136.52 0 0 -585.2c0,-115.63 -28.91,-201.38 -86.38,-257.59 -57.82,-55.89 -124.64,-84.15 -200.42,-84.15 -80.94,0 -150.64,31.15 -208.46,93.79 -58.13,62.3 -87.04,151.27 -87.04,266.58l0 566.57 -138.44 0 0 -566.57 0.02 0zm1285.7 -238.33c-79.98,81.25 -119.8,179.54 -119.8,294.84 0,114.67 39.83,212.96 119.8,294.23 79.99,81.25 176.67,121.72 289.4,121.72 113.05,0 209.42,-40.47 289.07,-121.72 79.64,-81.27 119.48,-179.56 119.48,-294.23 0,-115.3 -39.84,-213.59 -119.48,-294.84 -79.65,-81.27 -176.02,-122.05 -289.07,-122.05 -112.73,0 -209.42,40.78 -289.4,122.05zm697.95 804.89l0 -147.75c-7.71,8.03 -15.42,16.38 -23.45,24.41 -106.63,106.63 -235.75,159.95 -386.72,159.95 -150.63,0 -279.42,-53.32 -386.06,-159.95 -106.63,-106.61 -159.95,-235.42 -159.95,-386.71 0,-151.27 53.32,-280.06 159.95,-387.02 106.63,-106.96 235.42,-160.6 386.06,-160.6 150.96,0 280.08,53.64 386.72,160.6 106.63,106.95 159.95,235.75 159.95,387.02l0 510.05 -136.5 0zm1208.31 0l0 -548.58c0,-133.61 -33.42,-229.99 -100.21,-289.4 -66.81,-59.08 -150.32,-88.95 -250.87,-88.95 -100.2,0 -184.34,31.15 -252.12,93.79 -67.77,62.3 -101.49,150.95 -101.49,265.62l0 567.53 -136.5 0 0 -567.53c0,-150.95 47.2,-270.46 141.97,-358.45 94.74,-87.69 211.33,-131.69 350.08,-131.69 138.1,0 253.74,42.4 347.2,127.2 93.47,84.45 140.35,211.98 140.35,381.88l0 548.58 -138.42 0 0.01 0zm604.14 -345.27c0,75.78 22.5,131.69 67.78,167.98 45.28,35.96 99.25,53.94 161.88,53.94l0 123.34c-106.62,0 -193.99,-29.56 -262.07,-88.97 -68.12,-59.08 -102.15,-138.76 -102.15,-238.64l0 -582.3 -173.12 0 0 -111.14 173.12 0 0 -299.02 134.57 0 0 299.02 231.59 0 0 111.14 -231.59 0 0 564.65zm391.54 345.27l0 -1021.05 132.65 0 0 1021.05 -132.65 0zm66.8 -1391.7c25.06,0 46.59,9 64.25,27.29 18,18.32 26.99,40.16 26.99,65.85 0,26.34 -8.99,48.5 -26.99,66.81 -17.66,18.29 -39.19,27.3 -64.25,27.3 -25.05,0 -46.55,-9.01 -64.55,-27.3 -17.98,-18.3 -26.67,-40.47 -26.67,-66.81 0,-25.7 8.69,-47.53 26.67,-65.85 18,-18.29 39.5,-27.29 64.55,-27.29zm842.16 334.03c150.64,0 279.11,53.64 385.75,160.6 106.63,106.95 159.95,235.75 159.95,387.02 0,151.28 -53.32,280.09 -159.95,386.71 -106.63,106.63 -235.1,159.95 -385.75,159.95 -150.95,0 -280.06,-53.32 -386.71,-159.95 -106.63,-106.61 -159.95,-235.42 -159.95,-386.71 0,-151.27 53.32,-280.06 159.95,-387.02 106.64,-106.96 235.75,-160.6 386.71,-160.6zm-1.92 130.72c-112.75,0 -209.09,40.78 -288.75,122.05 -79.65,81.25 -119.49,179.54 -119.49,294.84 0,114.67 39.84,212.96 119.49,294.23 79.66,81.25 176,121.72 288.75,121.72 113.05,0 209.41,-40.47 289.37,-121.72 79.99,-81.27 120.12,-179.56 120.12,-294.23 0,-115.3 -40.14,-213.59 -120.12,-294.84 -79.97,-81.27 -176.32,-122.05 -289.37,-122.05zm1003.7 926.94l-357.49 -1021.38 145.82 0 299.37 896.11 272.67 -896.11 172.48 0 288.76 896.11 285.22 -896.11 142.92 0 -351.06 1021.38 -158.02 0 -292.62 -910.26 -286.17 910.26 -161.88 0zm1902.08 -1057.67c150.63,0 279.1,53.64 385.75,160.6 106.63,106.95 159.95,235.75 159.95,387.02 0,151.28 -53.32,280.09 -159.95,386.71 -106.65,106.63 -235.12,159.95 -385.75,159.95 -150.95,0 -280.07,-53.32 -386.7,-159.95 -106.63,-106.61 -159.95,-235.42 -159.95,-386.71 0,-151.27 53.32,-280.06 159.95,-387.02 106.62,-106.96 235.74,-160.6 386.7,-160.6zm-1.94 130.72c-112.73,0 -209.09,40.78 -288.74,122.05 -79.63,81.25 -119.47,179.54 -119.47,294.84 0,114.67 39.84,212.96 119.47,294.23 79.65,81.25 176.01,121.72 288.74,121.72 113.06,0 209.42,-40.47 289.4,-121.72 79.97,-81.27 120.12,-179.56 120.12,-294.23 0,-115.3 -40.16,-213.59 -120.12,-294.84 -79.99,-81.27 -176.34,-122.05 -289.4,-122.05zm1276.08 16.05c-35.01,-10.6 -72.26,-16.05 -111.78,-16.05 -107.28,0 -189.83,29.87 -247.64,88.95 -57.49,59.41 -86.38,146.8 -86.38,262.1l0 575.88 -136.52 0 0 -575.88c0,-151.28 42.4,-269.15 126.87,-354.27 84.8,-85.11 198.81,-127.52 341.74,-127.52 39.52,0 77.42,3.85 113.71,11.25l0 135.53zm209.42 910.89l0 -1391.39 134.92 0 0 845.38 588.4 -475.36 198.81 0 -465.4 375.47 541.53 645.9 -178.92 0 -472.45 -561.1 -211.98 173.12 0 387.98 -134.92 0zm1733.77 -857.25c-77.4,-45.93 -165.09,-68.73 -263.69,-68.73 -85.76,0 -149.68,15.42 -190.78,45.59 -41.45,30.52 -62.32,69.06 -62.32,115.32 0,84.8 99.89,151.28 299.36,200.1 199.47,48.5 299.33,147.12 299.33,295.83 0,90.9 -40.13,164.76 -119.78,221.29 -79.66,56.2 -184.36,84.46 -314.13,84.46 -123.65,0 -234.78,-26.65 -333.07,-79.97l60.07 -119.5c88.65,47.22 178.59,70.67 270.11,70.67 90.89,0 163.81,-17.66 218.4,-53.32 54.6,-35.3 81.9,-77.71 81.9,-127.51 0,-79 -100.2,-144.2 -300.63,-195.59 -200.42,-51.4 -300.62,-147.75 -300.62,-288.77 0,-86.07 34.03,-157.7 102.45,-214.55 68.41,-57.17 162.85,-85.75 283.28,-85.75 125.9,0 233.19,23.45 321.84,70.67l-51.72 129.75z"/>
 </g>
</svg>
