<?xml version="1.0" encoding="UTF-8"?>
<!DOCTYPE svg PUBLIC "-//W3C//DTD SVG 1.1//EN" "http://www.w3.org/Graphics/SVG/1.1/DTD/svg11.dtd">
<!-- Creator: CorelDRAW -->
<svg xmlns="http://www.w3.org/2000/svg" xml:space="preserve" width="52.945mm" height="52.9452mm" version="1.1" style="shape-rendering:geometricPrecision; text-rendering:geometricPrecision; image-rendering:optimizeQuality; fill-rule:evenodd; clip-rule:evenodd"
viewBox="0 0 2047.19 2047.2"
 xmlns:xlink="http://www.w3.org/1999/xlink"
 xmlns:xodm="http://www.corel.com/coreldraw/odm/2003">
 <defs>
  <style type="text/css">
   <![CDATA[
    .fil0 {fill:black}
   ]]>
  </style>
 </defs>
 <g id="Livello_x0020_1">
  <metadata id="CorelCorpID_0Corel-Layer"/>
  <path class="fil0" d="M171.88 2047.2l1703.42 0c94.54,0 171.89,-77.35 171.89,-171.89l0 -1703.41c0,-94.54 -77.35,-171.89 -171.89,-171.89l-1703.42 0c-94.54,0 -171.88,77.35 -171.88,171.89l0 1703.41c0,94.54 77.35,171.89 171.88,171.89zm857.6 -1601.27c224.66,0 535.07,211.36 535.07,587.71 0,339.85 -257.77,567.63 -564.78,567.63l-69.32 0 0 -230.91 69.32 0c175.14,0 320.3,-171.76 320.3,-338.55 0,-229.35 -163.41,-354.71 -356.53,-354.71l-102.42 0 0 250.2 134.23 0 0 244.2 -134.23 0 0 429.78 -244.21 0 0 -429.78 -133.96 0 0 -244.2 133.96 0 0 -481.37 412.57 0 0 0 0 0z"/>
 </g>
</svg>
