<?xml version="1.0" encoding="UTF-8"?>
<!DOCTYPE svg PUBLIC "-//W3C//DTD SVG 1.1//EN" "http://www.w3.org/Graphics/SVG/1.1/DTD/svg11.dtd">
<!-- Creator: CorelDRAW (Evaluation Version) -->
<svg xmlns="http://www.w3.org/2000/svg" xml:space="preserve" width="149.999mm" height="14.6858mm" version="1.1" style="shape-rendering:geometricPrecision; text-rendering:geometricPrecision; image-rendering:optimizeQuality; fill-rule:evenodd; clip-rule:evenodd"
viewBox="0 0 10548.57 1032.77"
 xmlns:xlink="http://www.w3.org/1999/xlink"
 xmlns:xodm="http://www.corel.com/coreldraw/odm/2003">
 <defs>
  <style type="text/css">
   <![CDATA[
    .fil0 {fill:black;fill-rule:nonzero}
   ]]>
  </style>
 </defs>
 <g id="Layer_x0020_1">
  <metadata id="CorelCorpID_0Corel-Layer"/>
  <g id="_1531989552768">
   <path class="fil0" d="M395.95 336.07c-81.51,0 -151.42,29.49 -209.24,88.25 -57.83,58.75 -86.64,129.82 -86.64,213.19 0,82.91 28.8,153.98 86.64,212.75 57.82,58.75 127.73,88.01 209.24,88.01 81.75,0 151.19,-29.26 209.02,-88.01 57.6,-58.76 86.39,-129.83 86.39,-212.75 0,-83.37 -28.79,-154.44 -86.39,-213.19 -57.82,-58.76 -127.27,-88.25 -209.02,-88.25zm296.58 561.31c-5.8,6.97 -11.84,13.47 -18.33,19.74 -77.11,77.1 -170.24,115.66 -279.62,115.66 -108.69,0 -201.82,-38.55 -278.92,-115.66 -77.1,-77.09 -115.66,-170.23 -115.66,-279.62 0,-109.38 38.55,-202.5 115.66,-279.84 77.1,-77.34 170.23,-116.13 278.92,-116.13 109.38,0 202.5,38.55 279.62,115.66 6.51,6.74 12.54,13.47 18.33,19.74l0 -376.92 97.32 0 0 1006.29 -97.32 0 0 -108.93zm433.13 -473.07c-57.83,58.75 -86.63,129.82 -86.63,213.19 0,82.91 28.79,153.98 86.63,212.75 57.82,58.75 127.73,88.01 209.26,88.01 81.75,0 151.42,-29.26 209.02,-88.01 57.57,-58.76 86.39,-129.83 86.39,-212.75 0,-83.37 -28.8,-154.44 -86.39,-213.19 -57.6,-58.76 -127.27,-88.25 -209.02,-88.25 -81.53,0 -151.44,29.49 -209.26,88.25zm504.66 581.99l0 -106.84c-5.57,5.81 -11.14,11.84 -16.95,17.65 -77.1,77.1 -170.47,115.66 -279.63,115.66 -108.91,0 -202.04,-38.55 -279.14,-115.66 -77.12,-77.09 -115.67,-170.23 -115.67,-279.62 0,-109.38 38.55,-202.5 115.67,-279.84 77.1,-77.34 170.23,-116.13 279.14,-116.13 109.16,0 202.53,38.78 279.63,116.13 77.1,77.33 115.66,170.47 115.66,279.84l0 368.8 -98.71 0zm747.81 -409.67c0,-83.38 -20.9,-147.71 -62.94,-192.75 -42.05,-45.29 -92.2,-67.81 -150.73,-67.81 -54.81,0 -103.11,20.43 -144.92,60.84 -41.81,40.64 -62.7,102.65 -62.7,186.25l0 423.14 -98.48 0 0 -423.14c0,-109.38 30.43,-193.69 91.75,-252.91 61.31,-59.22 132.14,-88.72 212.97,-88.72 87.55,0 161.86,31.81 223.17,95.22 15.8,16.72 29.74,35.31 41.58,55.04 12.07,-19.73 26.25,-38.31 42.05,-55.04 61.31,-63.4 135.61,-95.22 223.17,-95.22 80.82,0 151.89,29.5 212.96,88.72 61.32,59.22 91.98,143.52 91.98,252.91l0 423.14 -98.71 0 0 -423.14c0,-83.61 -20.9,-145.61 -62.46,-186.25 -41.81,-40.42 -90.12,-60.84 -144.92,-60.84 -58.52,0 -108.93,22.52 -150.73,67.81 -42.03,45.05 -62.93,109.38 -62.93,192.75l0 409.67 -100.1 0 0 -409.67 0.01 0zm929.65 -172.33c-57.83,58.75 -86.63,129.82 -86.63,213.19 0,82.91 28.8,153.98 86.63,212.75 57.83,58.75 127.74,88.01 209.26,88.01 81.75,0 151.42,-29.26 209.02,-88.01 57.59,-58.76 86.39,-129.83 86.39,-212.75 0,-83.37 -28.8,-154.44 -86.39,-213.19 -57.6,-58.76 -127.27,-88.25 -209.02,-88.25 -81.51,0 -151.42,29.49 -209.26,88.25zm504.66 581.99l0 -106.84c-5.58,5.81 -11.15,11.84 -16.96,17.65 -77.1,77.1 -170.47,115.66 -279.62,115.66 -108.92,0 -202.04,-38.55 -279.15,-115.66 -77.1,-77.09 -115.66,-170.23 -115.66,-279.62 0,-109.38 38.55,-202.5 115.66,-279.84 77.1,-77.34 170.23,-116.13 279.15,-116.13 109.16,0 202.52,38.78 279.62,116.13 77.1,77.33 115.66,170.47 115.66,279.84l0 368.8 -98.7 0zm873.69 0l0 -396.66c0,-96.61 -24.16,-166.3 -72.46,-209.26 -48.31,-42.72 -108.69,-64.32 -181.39,-64.32 -72.45,0 -133.29,22.52 -182.3,67.81 -49,45.05 -73.38,109.15 -73.38,192.06l0 410.36 -98.7 0 0 -410.36c0,-109.15 34.13,-195.56 102.65,-259.18 68.5,-63.4 152.81,-95.22 253.13,-95.22 99.85,0 183.47,30.66 251.05,91.98 67.58,61.06 101.49,153.28 101.49,276.13l0 396.66 -100.09 0 0.01 0 -0.01 -0.01zm436.84 -249.65c0,54.8 16.27,95.22 49.01,121.46 32.74,26 71.77,39 117.05,39l0 89.19c-77.1,0 -140.27,-21.37 -189.5,-64.33 -49.26,-42.72 -73.86,-100.33 -73.86,-172.56l0 -421.04 -125.18 0 0 -80.36 125.18 0 0 -216.21 97.3 0 0 216.21 167.46 0 0 80.36 -167.46 0 0 408.28 0 -0.01zm283.1 249.65l0 -738.29 95.92 0 0 738.29 -95.92 0zm48.31 -1006.29c18.12,0 33.69,6.51 46.46,19.73 13.02,13.25 19.52,29.04 19.52,47.62 0,19.04 -6.5,35.07 -19.52,48.31 -12.77,13.23 -28.33,19.74 -46.46,19.74 -18.12,0 -33.66,-6.51 -46.67,-19.74 -13,-13.24 -19.28,-29.26 -19.28,-48.31 0,-18.58 6.28,-34.37 19.28,-47.62 13.02,-13.23 28.56,-19.73 46.67,-19.73zm608.94 241.52c108.93,0 201.82,38.78 278.92,116.13 77.1,77.33 115.66,170.47 115.66,279.84 0,109.38 -38.55,202.53 -115.66,279.62 -77.1,77.1 -170,115.66 -278.92,115.66 -109.15,0 -202.5,-38.55 -279.62,-115.66 -77.1,-77.09 -115.66,-170.23 -115.66,-279.62 0,-109.38 38.55,-202.5 115.66,-279.84 77.11,-77.34 170.47,-116.13 279.62,-116.13zm-1.39 94.52c-81.53,0 -151.18,29.49 -208.79,88.25 -57.6,58.75 -86.4,129.82 -86.4,213.19 0,82.91 28.8,153.98 86.4,212.75 57.6,58.75 127.26,88.01 208.79,88.01 81.75,0 151.42,-29.26 209.24,-88.01 57.83,-58.76 86.86,-129.83 86.86,-212.75 0,-83.37 -29.02,-154.44 -86.86,-213.19 -57.82,-58.76 -127.49,-88.25 -209.24,-88.25zm725.75 670.24l-258.49 -738.53 105.44 0 216.47 647.95 197.16 -647.95 124.71 0 208.79 647.95 206.23 -647.95 103.34 0 -253.84 738.53 -114.26 0 -211.59 -658.18 -206.92 658.18 -117.05 0zm1375.33 -764.77c108.92,0 201.81,38.78 278.92,116.13 77.1,77.33 115.66,170.47 115.66,279.84 0,109.38 -38.55,202.53 -115.66,279.62 -77.12,77.1 -170.01,115.66 -278.92,115.66 -109.15,0 -202.51,-38.55 -279.61,-115.66 -77.1,-77.09 -115.66,-170.23 -115.66,-279.62 0,-109.38 38.55,-202.5 115.66,-279.84 77.1,-77.34 170.46,-116.13 279.61,-116.13zm-1.4 94.52c-81.51,0 -151.18,29.49 -208.78,88.25 -57.57,58.75 -86.39,129.82 -86.39,213.19 0,82.91 28.8,153.98 86.39,212.75 57.6,58.75 127.27,88.01 208.78,88.01 81.75,0 151.42,-29.26 209.26,-88.01 57.82,-58.76 86.86,-129.83 86.86,-212.75 0,-83.37 -29.04,-154.44 -86.86,-213.19 -57.83,-58.76 -127.51,-88.25 -209.26,-88.25zm922.69 11.6c-25.32,-7.67 -52.25,-11.6 -80.82,-11.6 -77.57,0 -137.26,21.6 -179.06,64.32 -41.57,42.95 -62.46,106.15 -62.46,189.52l0 416.4 -98.71 0 0 -416.4c0,-109.38 30.66,-194.62 91.74,-256.16 61.32,-61.54 143.75,-92.2 247.1,-92.2 28.57,0 55.98,2.78 82.22,8.14l0 98zm151.43 658.64l0 -1006.07 97.55 0 0 611.27 425.46 -343.72 143.75 0 -336.52 271.49 391.57 467.03 -129.37 0 -341.62 -405.72 -153.28 125.18 0 280.54 -97.55 0 0.01 0zm1253.63 -619.85c-55.96,-33.21 -119.37,-49.7 -190.66,-49.7 -62.01,0 -108.23,11.15 -137.95,32.97 -29.97,22.07 -45.06,49.94 -45.06,83.38 0,61.32 72.23,109.38 216.46,144.69 144.23,35.07 216.44,106.38 216.44,213.91 0,65.73 -29.02,119.13 -86.61,160.01 -57.6,40.63 -133.31,61.07 -227.14,61.07 -89.41,0 -169.76,-19.27 -240.83,-57.82l43.43 -86.41c64.1,34.14 129.13,51.1 195.31,51.1 65.72,0 118.45,-12.77 157.92,-38.55 39.48,-25.53 59.22,-56.19 59.22,-92.2 0,-57.12 -72.45,-104.26 -217.37,-141.42 -144.92,-37.17 -217.37,-106.84 -217.37,-208.8 0,-62.24 24.61,-114.03 74.08,-155.14 49.47,-41.34 117.75,-62.01 204.83,-62.01 91.04,0 168.61,16.96 232.71,51.1l-37.4 93.82z"/>
  </g>
 </g>
</svg>
