<?xml version="1.0" encoding="UTF-8"?>
<!DOCTYPE svg PUBLIC "-//W3C//DTD SVG 1.1//EN" "http://www.w3.org/Graphics/SVG/1.1/DTD/svg11.dtd">
<!-- Creator: CorelDRAW -->
<svg xmlns="http://www.w3.org/2000/svg" xml:space="preserve" width="31.9344mm" height="34.1181mm" version="1.1" style="shape-rendering:geometricPrecision; text-rendering:geometricPrecision; image-rendering:optimizeQuality; fill-rule:evenodd; clip-rule:evenodd"
viewBox="0 0 274.7 293.49"
 xmlns:xlink="http://www.w3.org/1999/xlink"
 xmlns:xodm="http://www.corel.com/coreldraw/odm/2003">
 <defs>
  <style type="text/css">
   <![CDATA[
    .fil0 {fill:black}
   ]]>
  </style>
 </defs>
 <g id="Livello_x0020_1">
  <metadata id="CorelCorpID_0Corel-Layer"/>
  <path class="fil0" d="M138.86 0c57.03,0 135.84,53.67 135.84,149.25 0,86.37 -65.41,144.23 -143.39,144.23l-17.61 0 0 -58.7 17.61 0c44.45,0 81.34,-43.6 81.34,-85.95 0,-58.28 -41.51,-90.14 -90.56,-90.14l-26 0 0 63.54 34.05 0 0 62.05 -34.05 0 0 109.19 -62.05 0 0 -109.19 -34.04 0 0 -62.05 34.04 0 0 -122.24 104.81 0z"/>
 </g>
</svg>
