<?xml version="1.0" encoding="UTF-8"?>
<!DOCTYPE svg PUBLIC "-//W3C//DTD SVG 1.1//EN" "http://www.w3.org/Graphics/SVG/1.1/DTD/svg11.dtd">
<!-- Creator: CorelDRAW (Evaluation Version) -->
<svg xmlns="http://www.w3.org/2000/svg" xml:space="preserve" width="150mm" height="25.0506mm" version="1.1" style="shape-rendering:geometricPrecision; text-rendering:geometricPrecision; image-rendering:optimizeQuality; fill-rule:evenodd; clip-rule:evenodd"
viewBox="0 0 14985.75 2502.68"
 xmlns:xlink="http://www.w3.org/1999/xlink"
 xmlns:xodm="http://www.corel.com/coreldraw/odm/2003">
 <defs>
  <style type="text/css">
   <![CDATA[
    .fil0 {fill:#FEFEFE;fill-rule:nonzero}
   ]]>
  </style>
 </defs>
 <g id="Layer_x0020_1">
  <metadata id="CorelCorpID_0Corel-Layer"/>
  <g id="_2436661880144">
   <path class="fil0" d="M562.53 477.42c-115.8,0 -215.12,41.89 -297.26,125.37 -82.16,83.46 -123.08,184.42 -123.08,302.86 0,117.79 40.92,218.75 123.08,302.23 82.14,83.47 181.46,125.04 297.26,125.04 116.13,0 214.8,-41.57 296.94,-125.04 81.83,-83.48 122.73,-184.44 122.73,-302.23 0,-118.44 -40.9,-219.4 -122.73,-302.86 -82.14,-83.48 -180.81,-125.37 -296.94,-125.37zm421.32 797.43c-8.24,9.9 -16.81,19.14 -26.06,28.04 -109.55,109.54 -241.85,164.3 -397.23,164.3 -154.41,0 -286.72,-54.77 -396.25,-164.3 -109.54,-109.53 -164.3,-241.84 -164.3,-397.24 0,-155.38 54.77,-287.69 164.3,-397.55 109.54,-109.88 241.84,-164.97 396.25,-164.97 155.38,0 287.69,54.77 397.23,164.3 9.24,9.57 17.81,19.14 26.06,28.04l0 -535.47 138.25 0 0 1429.59 -138.25 0 0 -154.74zm615.33 -672.06c-82.16,83.46 -123.06,184.42 -123.06,302.86 0,117.79 40.9,218.75 123.06,302.23 82.14,83.47 181.46,125.04 297.28,125.04 116.13,0 215.11,-41.57 296.94,-125.04 81.8,-83.48 122.72,-184.44 122.72,-302.23 0,-118.44 -40.92,-219.4 -122.72,-302.86 -81.83,-83.48 -180.81,-125.37 -296.94,-125.37 -115.82,0 -215.14,41.89 -297.28,125.37zm716.94 826.8l0 -151.78c-7.91,8.25 -15.82,16.82 -24.08,25.08 -109.54,109.54 -242.17,164.3 -397.25,164.3 -154.72,0 -287.02,-54.77 -396.55,-164.3 -109.56,-109.53 -164.32,-241.84 -164.32,-397.24 0,-155.38 54.77,-287.69 164.32,-397.55 109.54,-109.88 241.83,-164.97 396.55,-164.97 155.08,0 287.72,55.1 397.25,164.97 109.54,109.87 164.3,242.17 164.3,397.55l0 523.94 -140.23 0zm1062.37 -582c0,-118.46 -29.69,-209.84 -89.41,-273.84 -59.73,-64.34 -130.99,-96.34 -214.13,-96.34 -77.87,0 -146.48,29.02 -205.87,86.44 -59.39,57.74 -89.08,145.82 -89.08,264.6l0 601.14 -139.91 0 0 -601.14c0,-155.4 43.23,-275.16 130.34,-359.29 87.1,-84.13 187.72,-126.04 302.55,-126.04 124.38,0 229.94,45.2 317.04,135.27 22.45,23.76 42.25,50.16 59.06,78.19 17.15,-28.02 37.28,-54.43 59.73,-78.19 87.1,-90.07 192.66,-135.27 317.05,-135.27 114.81,0 215.77,41.91 302.54,126.04 87.11,84.13 130.67,203.89 130.67,359.29l0 601.14 -140.24 0 0 -601.14c0,-118.78 -29.69,-206.86 -88.74,-264.6 -59.39,-57.42 -128.03,-86.44 -205.87,-86.44 -83.15,0 -154.75,32 -214.15,96.34 -59.71,64 -89.4,155.38 -89.4,273.84l0 582 -142.2 0 0 -582zm1320.7 -244.81c-82.15,83.46 -123.06,184.42 -123.06,302.86 0,117.79 40.91,218.75 123.06,302.23 82.16,83.47 181.48,125.04 297.28,125.04 116.13,0 215.12,-41.57 296.94,-125.04 81.81,-83.48 122.73,-184.44 122.73,-302.23 0,-118.44 -40.92,-219.4 -122.73,-302.86 -81.82,-83.48 -180.81,-125.37 -296.94,-125.37 -115.8,0 -215.12,41.89 -297.28,125.37zm716.95 826.8l0 -151.78c-7.92,8.25 -15.83,16.82 -24.09,25.08 -109.54,109.54 -242.17,164.3 -397.24,164.3 -154.73,0 -287.03,-54.77 -396.56,-164.3 -109.54,-109.53 -164.3,-241.84 -164.3,-397.24 0,-155.38 54.77,-287.69 164.3,-397.55 109.54,-109.88 241.83,-164.97 396.56,-164.97 155.07,0 287.71,55.1 397.24,164.97 109.54,109.87 164.3,242.17 164.3,397.55l0 523.94 -140.22 0zm1241.2 0l0 -563.52c0,-137.25 -34.33,-236.25 -102.94,-297.28 -68.62,-60.69 -154.41,-91.37 -257.69,-91.37 -102.93,0 -189.37,32 -258.99,96.34 -69.61,64 -104.25,155.06 -104.25,272.85l0 582.99 -140.22 0 0 -582.99c0,-155.06 48.48,-277.82 145.83,-368.21 97.32,-90.07 217.08,-135.27 359.62,-135.27 141.86,0 260.64,43.56 356.65,130.67 96.01,86.75 144.17,217.75 144.17,392.28l0 563.52 -142.18 0zm620.58 -354.67c0,77.85 23.11,135.27 69.62,172.56 46.52,36.94 101.95,55.42 166.28,55.42l0 126.7c-109.53,0 -199.27,-30.36 -269.2,-91.39 -69.97,-60.69 -104.93,-142.54 -104.93,-245.15l0 -598.15 -177.83 0 0 -114.16 177.83 0 0 -307.16 138.23 0 0 307.16 237.89 0 0 114.16 -237.89 0 0 580.02zm402.2 354.67l0 -1048.85 136.26 0 0 1048.85 -136.26 0zm68.61 -1429.59c25.75,0 47.85,9.24 66,28.03 18.49,18.82 27.72,41.25 27.72,67.65 0,27.05 -9.23,49.82 -27.72,68.62 -18.14,18.79 -40.25,28.04 -66,28.04 -25.74,0 -47.81,-9.25 -66.31,-28.04 -18.47,-18.8 -27.39,-41.57 -27.39,-68.62 0,-26.39 8.92,-48.82 27.39,-67.65 18.49,-18.79 40.57,-28.03 66.31,-28.03zm865.08 343.12c154.75,0 286.72,55.1 396.25,164.97 109.54,109.87 164.3,242.17 164.3,397.55 0,155.4 -54.77,287.72 -164.3,397.24 -109.54,109.54 -241.5,164.3 -396.25,164.3 -155.06,0 -287.69,-54.77 -397.23,-164.3 -109.54,-109.53 -164.3,-241.84 -164.3,-397.24 0,-155.38 54.77,-287.69 164.3,-397.55 109.55,-109.88 242.17,-164.97 397.23,-164.97zm-1.97 134.29c-115.82,0 -214.78,41.89 -296.61,125.37 -81.82,83.46 -122.74,184.42 -122.74,302.86 0,117.79 40.92,218.75 122.74,302.23 81.83,83.47 180.79,125.04 296.61,125.04 116.13,0 215.12,-41.57 297.26,-125.04 82.16,-83.48 123.39,-184.44 123.39,-302.23 0,-118.44 -41.23,-219.4 -123.39,-302.86 -82.14,-83.48 -181.13,-125.37 -297.26,-125.37zm1031.03 952.17l-367.22 -1049.18 149.79 0 307.52 920.5 280.09 -920.5 177.17 0 296.62 920.5 292.98 -920.5 146.81 0 -360.62 1049.18 -162.32 0 -300.58 -935.04 -293.96 935.04 -166.28 0zm1953.85 -1086.47c154.73,0 286.7,55.1 396.25,164.97 109.54,109.87 164.3,242.17 164.3,397.55 0,155.4 -54.77,287.72 -164.3,397.24 -109.56,109.54 -241.52,164.3 -396.25,164.3 -155.06,0 -287.7,-54.77 -397.23,-164.3 -109.54,-109.53 -164.3,-241.84 -164.3,-397.24 0,-155.38 54.77,-287.69 164.3,-397.55 109.54,-109.88 242.17,-164.97 397.23,-164.97zm-1.99 134.29c-115.8,0 -214.78,41.89 -296.6,125.37 -81.81,83.46 -122.73,184.42 -122.73,302.86 0,117.79 40.92,218.75 122.73,302.23 81.82,83.47 180.8,125.04 296.6,125.04 116.14,0 215.12,-41.57 297.28,-125.04 82.14,-83.48 123.39,-184.44 123.39,-302.23 0,-118.44 -41.25,-219.4 -123.39,-302.86 -82.16,-83.48 -181.14,-125.37 -297.28,-125.37zm1310.82 16.48c-35.97,-10.89 -74.23,-16.48 -114.82,-16.48 -110.2,0 -194.99,30.68 -254.38,91.37 -59.05,61.03 -88.74,150.8 -88.74,269.23l0 591.57 -140.24 0 0 -591.57c0,-155.4 43.56,-276.48 130.33,-363.91 87.11,-87.43 204.23,-130.99 351.04,-130.99 40.59,0 79.52,3.96 116.81,11.56l0 139.22zm215.11 935.69l0 -1429.27 138.59 0 0 868.38 604.43 -488.3 204.23 0 -478.08 385.69 556.28 663.49 -183.79 0 -485.32 -576.38 -217.75 177.83 0 398.55 -138.59 0zm1780.97 -880.59c-79.5,-47.19 -169.58,-70.6 -270.86,-70.6 -88.1,0 -153.75,15.83 -195.97,46.84 -42.58,31.35 -64.02,70.94 -64.02,118.46 0,87.11 102.61,155.4 307.51,205.54 204.9,49.82 307.48,151.13 307.48,303.88 0,93.37 -41.22,169.25 -123.04,227.32 -81.83,57.73 -189.38,86.76 -322.68,86.76 -127.02,0 -241.17,-27.37 -342.13,-82.14l61.7 -122.75c91.06,48.5 183.45,72.59 277.47,72.59 93.36,0 168.27,-18.14 224.35,-54.77 56.09,-36.28 84.13,-79.83 84.13,-130.99 0,-81.15 -102.92,-148.13 -308.82,-200.91 -205.87,-52.8 -308.8,-151.78 -308.8,-296.63 0,-88.42 34.96,-162 105.24,-220.39 70.27,-58.72 167.28,-88.09 290.99,-88.09 129.33,0 239.53,24.09 330.6,72.59l-53.13 133.28z"/>
   <path class="fil0" d="M8322.29 2318.14c-22.77,0 -41.96,-7.8 -57.57,-23.41 -15.62,-15.61 -23.43,-34.81 -23.43,-57.58 0,-22.79 7.81,-41.97 23.43,-57.59 15.61,-15.61 34.8,-23.4 57.57,-23.4 21.95,0 40.7,7.79 56.32,23.4 15.61,15.62 23.43,34.8 23.43,57.59 0,22.77 -7.82,41.97 -23.43,57.58 -15.62,15.61 -34.37,23.41 -56.32,23.41zm1884.74 176.59l76.32 0 0 -275.07 190.01 -305.28 -85.07 0 -143.09 231.34 -143.1 -231.34 -85.07 0 190.01 305.28 0 275.07zm-457.13 0l321.97 0 0 -73.94 -245.66 0 0 -506.41 -76.32 0 0 580.35zm-324.37 -474.62l98.59 267.93 -197.16 0 98.58 -267.93zm-255.19 474.62l81.09 0 48.49 -132.76 251.21 0 49.29 132.76 80.3 0 -214.66 -580.35 -80.29 0 -215.45 580.35zm-193.19 0l76.32 0 0 -508 168.54 0 0 -72.35 -413.4 0 0 72.35 168.54 0 0 508zm-330.74 0l77.12 0 0 -580.35 -77.12 0 0 580.35zm-872.12 -474.62l98.59 267.93 -197.16 0 98.58 -267.93zm-255.19 474.62l81.09 0 48.49 -132.76 251.21 0 49.29 132.76 80.3 0 -214.66 -580.35 -80.3 0 -215.44 580.35zm-445.21 0l384.78 0 0 -73.94 -294.15 0 293.35 -436.45 0 -69.96 -374.44 0 0 73.14 283.81 0 -293.35 436.47 0 70.74zm-564.45 0l76.32 0 0 -462.69 318 462.69 81.89 0 0 -580.35 -76.33 0 0 456.34 -312.43 -456.34 -87.45 0 0 580.35zm-437.25 0l349.8 0 0 -73.94 -273.48 0 0 -180.46 273.48 0 0 -73.14 -273.48 0 0 -179.67 273.48 0 0 -73.14 -349.8 0 0 580.35zm-322.77 0l76.33 0 0 -508 168.54 0 0 -72.35 -413.41 0 0 72.35 168.54 0 0 508zm-469.05 -66.79c-123.23,0 -219.42,-100.95 -219.42,-223.39 0,-123.23 96.19,-223.39 219.42,-223.39 124.02,0 221.01,100.15 221.01,223.39 0,122.43 -96.99,223.39 -221.01,223.39zm0 74.74c165.36,0 298.12,-133.55 298.12,-298.13 0,-164.57 -132.75,-298.13 -298.12,-298.13 -164.56,0 -297.33,133.55 -297.33,298.13 0,164.57 132.76,298.13 297.33,298.13zm-585.91 -517.54c85.85,0 138.33,57.23 138.33,131.17 0,72.34 -52.48,130.39 -138.33,130.39l-105.74 0 0 -261.55 105.74 0zm-182.06 509.59l76.32 0 0 -175.69 110.51 0c124.8,0 211.46,-88.25 211.46,-202.73 0,-113.69 -86.66,-201.93 -210.67,-201.93l-187.62 0 0 580.35z"/>
  </g>
 </g>
</svg>
