<?xml version="1.0" encoding="utf-8"?>
<!-- Generator: Adobe Illustrator 27.6.1, SVG Export Plug-In . SVG Version: 6.00 Build 0)  -->
<svg version="1.1" id="Livello_1" xmlns:xodm="http://www.corel.com/coreldraw/odm/2003"
	 xmlns="http://www.w3.org/2000/svg" xmlns:xlink="http://www.w3.org/1999/xlink" x="0px" y="0px" viewBox="0 0 393.1 175.8"
	 style="enable-background:new 0 0 393.1 175.8;" xml:space="preserve">
<style type="text/css">
	.st0{fill-rule:evenodd;clip-rule:evenodd;fill:#3E6179;}
	.st1{fill:#3E6179;}
	.st2{fill:#2B353C;}
	.st3{fill:#FFFFFF;}
	.st4{fill:#D53233;}
	.st5{fill-rule:evenodd;clip-rule:evenodd;fill:#FFFFFF;}
</style>
<path class="st0" d="M166.7,16.9c-0.1,2.1-0.5,1-5.3,3.7c-2.4,1.4-3.4,2.3-6.4,2.5c-4.1,0.3-14.4,0.7-18.2,0.1l-1.3-9.3
	c3.3-1.1,19.6,1.2,24.4,1.5l-6.3-2.4c-2.2-0.7-4.3-1.6-6.7-2.3c-4.1-1.2-10.1-3-13.2-4.6c-2,0.9-14.8,13.4-18.1,16.3
	c-3.7,3.2-7,4.5-10.4,7c-1.8,1.3-7.5,7.4-8.4,9l-3.6-1l2,1.9c-3,2.5-8,5.6-11.1,7.3l-2.2-9.3l9.8,0.1c-1.8-1.6-8.8-6.2-10.7-6.9
	c-3.9,2.4-33,28-36.6,30.2c-3.3,2.1-8.9,2.5-13,3.8c-4.4,1.4-7.3,3.7-10.9,5.7l-16,9.1c-2.1,1.2-4,1.6-4.3,3.7l44.2,1.7
	c12.6,0.2,32.2-8,38.6-7.8c5.4,0.2,28.8,9,36.4,10.2c3.6,0.6,15.6-1.9,20.3-2.4l15.2-2c2.2-0.2,3.4,0.4,5.2-1.3l-3.2,0.4
	c-0.8-5.3-5.3-16.5-7.2-22.3c-6-19-6.6-13.3-2.9-20.7c16.2-0.4,11.3,2.1,20.1-9.8c2.7-3.6,3.5-5.5,8.8-7.6
	c2.7,0.1,12.9,9.3,17.4,10.3l-3.3-11.3l15,10.8c-1.9-5.3-5.1-10.5-7.6-15.6c-2.6-5.3,2.2-7.4,4.5-15.7c-4,0.8-13.2,6.6-16.9,8.6
	c-3.2,1.7-5.6,2.7-8.6,4.3C173,14.5,170.6,16.5,166.7,16.9L166.7,16.9L166.7,16.9z M170.1,79.8c5-0.4,21.6,4.2,27.3,5.5
	c13.6,3.3,12.6,4.4,27.1,0.9c11.9-2.8,17.6-4.8,27.9-3.2c9.7,1.5,18.9,3.1,28.4,5c5.5,1.1,24.3,4.3,29,3.9c8-0.8,19-6.7,27-5.8
	c19.3,2.2,10.5,2,28.7-1.6c5.1-1,9.2-1.8,13.9-2.9c2.9-0.7,11.3-2.2,13.4-3.1l-21.2-7.6c-12.9-4.6-23.8-13.2-31.1-11.8
	c-1.9,0.4-3.9,1-6.2,1c-5.3,0.1-13.3-8.3-18.1-11.7c-1.4-1-2.6-2.4-4.4-3.3l-1.9,3.3C305.2,46,295.8,38,290.5,34
	c-6.5-4.9-9.7-5.6-16.8-8.1c-2.3-0.8-3.9-1.7-6.8-2.1c2.4,3.1,8,6.6,10.8,9.5c3.2,3.3,6.4,10.8,7.6,12.3l16.2,13.5
	c1.8,1.5,3.2,2.4,5,4.2c-3.3,0.6-8.2-0.3-10.5-2.5c-2.6-2.4-0.7-2-5.3-2.1c-2.2,0-4.2,0-6.5-0.1c-3.5-2.9-3.8-7.1-8.7-8.3
	c-3.7-0.9-11.3-2.1-15.3-2.5c1.4,2.8,2.5,2.3,5,5.2c2.1,2.4,13,11.2,14,13.6l-10.5-0.5c-0.4,1-0.3,1.1-0.6,2l-0.6,1.5
	c-4-0.5-8-1.2-12.1-1.7c-6-0.8-7.1-0.1-12.8,0.5c0.8-11.7,0.2-10.7-4.9-18.7c-3.2-5-5.4-9.4-8.3-14.9c-3.5-6.7-5.6-15.6-6.5-16.7
	c-1.3-1.6-11.7-7.7-14.9-8.8c1.2,5.1,3.6,10.3,5.2,15.2c1.3,3.9,1.3,13,1.7,17.7c1.8-0.6,2.4-2.7,3.6-4.3c2,3.2,2.5,12.8,3.2,17.4
	c0.8,4.9-1.1,11.6-3.2,15.9c-1.3-1.6-6.3-8.5-7.8-9.5l-1.2,4.7L199.7,56c-8.2-9.7-5.4-4.7-3-11.7c-1.6-2-10.3-7.5-13.2-8.9
	c1,12.2-0.1,7.4,6.7,19.7c2.5,4.5,7.4,11.6,8.9,15.9c-4.1-1.5-7.7-8.3-12-8.1c-4.1,0.1-3.9,2-9.1,0.1c-2.8-1-5.2-2.4-8.3-2.7
	l11.5,10.5C177.2,77.7,171.6,78.9,170.1,79.8L170.1,79.8L170.1,79.8z M248.8,16.3c-2.1-2.6-11.9-4.2-15.9-5.4
	c-5.6-1.5-11.3-3.1-17.3-4.9l8.9,5.6c3.4,1.8,6.6,3.9,9.7,5c0.6,9.3,0.5,6.9,10.4,14.3c9.8,7.3,9.2,1.4,13.5,5.1
	c0.1,0.1,0.2,0.2,0.3,0.3l3.6,2.9l-3.5-6.1c-1.6-2-2.3-3.4-3.7-5.4c-1.9-2.7-5.7-9.2-7.9-10.7C248.1,15.7,246.5,15.9,248.8,16.3
	L248.8,16.3L248.8,16.3z"/>
<path class="st0" d="M42.2,130.2h39.1c0.2,0.9,0.4,2,0.6,3.2c0.1,1.3,0.2,2.5,0.2,3.8c0,5.1-0.8,10-2.3,14.5
	c-1.6,4.5-4,8.6-7.4,12.2c-3.6,3.8-7.8,6.7-12.8,8.8s-10.7,3.1-17.1,3.1c-5.8,0-11.3-1-16.4-3.1s-9.6-5-13.4-8.7s-6.8-8.1-9-13.2
	c-2.2-5.1-3.3-10.6-3.3-16.7c0-6,1.1-11.6,3.3-16.7s5.2-9.5,9-13.2s8.2-6.6,13.4-8.7c5.1-2.1,10.6-3.1,16.4-3.1
	c6.5,0,12.2,1.1,17.3,3.3C65,98,69.3,101.1,73,105l-10.4,10.1c-2.6-2.7-5.5-4.8-8.7-6.3c-3.2-1.4-7-2.2-11.5-2.2
	c-3.6,0-7.1,0.7-10.4,2s-6.1,3.1-8.6,5.5s-4.4,5.3-5.9,8.6c-1.4,3.4-2.2,7.2-2.2,11.3c0,4.2,0.7,7.9,2.2,11.3
	c1.4,3.4,3.4,6.3,5.9,8.6c2.5,2.4,5.4,4.2,8.6,5.5c3.3,1.3,6.8,2,10.5,2c4.2,0,7.8-0.6,10.8-1.8c2.9-1.2,5.4-2.8,7.5-4.7
	c1.5-1.3,2.8-3,3.8-5.1c1.1-2,1.9-4.3,2.5-6.9H42.2V130.2L42.2,130.2L42.2,130.2z"/>
<g>
	<path class="st1" d="M143.1,134.9c-1.2-3.5-2.9-6.5-5.2-9.1s-5.2-4.6-8.6-6c-3.4-1.4-7.3-2.2-11.7-2.2c-4.2,0-8,0.8-11.4,2.3
		c-3.5,1.6-6.4,3.7-9,6.3c-2.5,2.6-4.5,5.7-5.9,9.3c-1.4,3.5-2.1,7.3-2.1,11.2c0,4.2,0.7,8.1,2.2,11.6c1.4,3.5,3.5,6.6,6.1,9.2
		c2.6,2.6,5.7,4.6,9.2,6.1c3.5,1.4,7.4,2.2,11.5,2.2c6.2,0,11.4-1.4,15.7-4.1c4.3-2.7,7.7-6.4,10.2-10.8l0,0l-12.1-6
		c-1.3,2.3-3,4.2-5.2,5.7s-5,2.3-8.3,2.3c-1.7,0-3.4-0.2-5-0.7s-3.1-1.3-4.5-2.3c-1.4-1.1-2.5-2.4-3.5-4c-0.9-1.6-1.5-3.5-1.8-5.7
		h41.1c0-0.4,0-0.9,0.1-1.2c0-0.4,0-0.8,0.1-1.2c0-0.4,0-0.8,0-1.3C144.9,142.2,144.3,138.4,143.1,134.9z M130.7,139.7h-26.4
		c1-3.2,2.6-5.7,5-7.5s5.1-2.7,8.2-2.7c2.2,0,4.1,0.3,5.7,1s2.9,1.5,4,2.6c1.1,1,1.9,2.2,2.5,3.3
		C130.3,137.7,130.6,138.7,130.7,139.7L130.7,139.7L130.7,139.7z"/>
	<path class="st1" d="M144,160.9L144,160.9L144,160.9z"/>
</g>
<g>
	<path class="st1" d="M220.8,94.2L220.8,94.2L220.8,94.2z"/>
	<path class="st1" d="M275.6,140.1c-2.5-3.2-5.8-5.5-9.9-7v-0.9c3-1.5,5.6-3.7,7.6-6.5c2-2.9,3.1-6.4,3.1-10.6
		c0-2.9-0.6-5.6-1.9-8.1s-3-4.7-5.2-6.6s-4.8-3.4-7.7-4.5c-3-1.1-6.2-1.6-9.6-1.6h-31.2V174h32.3c3.6,0,7-0.5,10.2-1.6
		c3.2-1,5.9-2.5,8.3-4.5c2.4-1.9,4.3-4.3,5.6-7c1.4-2.7,2.1-5.8,2.1-9.2C279.3,147.2,278.1,143.2,275.6,140.1z M235.8,107.7h15.5
		c3.3,0,5.8,0.9,7.7,2.8s2.8,4.1,2.8,6.7s-0.9,4.8-2.8,6.7c-1.9,1.9-4.6,2.8-8.1,2.8l0,0h-15L235.8,107.7L235.8,107.7z M261.2,157.4
		c-2,1.9-4.9,2.8-8.7,2.8l0,0l0,0h-16.7v-20.5h16.3c4,0,7,1,9.1,3c2,2,3.1,4.4,3.1,7.4S263.3,155.5,261.2,157.4z"/>
</g>
<path class="st0" d="M330.5,123.6c-4.5-4-10.9-6-19.4-6c-10,0-17.9,3.6-23.7,10.9l10.6,7.2c3.5-4.2,7.8-6.4,12.8-6.4
	c3.4,0,6.3,0.9,8.6,2.8c2.3,1.9,3.5,4.3,3.5,7.2v1.7c-1.5-0.6-3.4-1.2-5.7-1.7c-2.3-0.6-5.2-0.8-8.8-0.8c-3.2,0-6.1,0.4-8.9,1.3
	c-2.7,0.9-5.1,2.1-7.1,3.7c-2,1.6-3.6,3.6-4.7,5.9c-1.1,2.3-1.7,4.8-1.7,7.6c0,2.7,0.5,5.3,1.6,7.6c1,2.3,2.5,4.3,4.3,5.9
	c1.9,1.6,4,2.9,6.5,3.8c2.5,0.9,5.1,1.4,8,1.4c3.8,0,6.9-0.7,9.3-2.2s4.5-3.3,6.2-5.4h0.9l0,0l0,0v5.8h14.4v-32.8
	C337.2,133.5,334.9,127.6,330.5,123.6z M321.8,156.6c-0.6,1.5-1.5,2.9-2.7,4c-1.2,1.2-2.5,2.1-4.2,2.8c-1.6,0.7-3.4,1.1-5.4,1.1
	c-2.4,0-4.5-0.7-6.3-2s-2.7-3.1-2.7-5.4c0-2.2,0.9-4.1,2.8-5.6s4.6-2.3,8.1-2.3c2.2,0,4.1,0.2,6,0.7c1.8,0.5,3.6,1.1,5.3,2
	C322.8,153.5,322.5,155.1,321.8,156.6z"/>
<path class="st0" d="M369.8,175.8c-3.6,0-6.7-0.4-9.5-1.3c-2.8-0.9-5.2-2.1-7.2-3.5s-3.8-3.1-5.2-5c-1.4-1.9-2.5-3.8-3.2-5.7l13-5.6
	c1.3,2.8,3,4.9,5.1,6.3c2.1,1.4,4.5,2.1,7.1,2.1c2.7,0,4.8-0.5,6.4-1.4c1.6-1,2.3-2.1,2.3-3.5c0-1.5-0.7-2.7-2-3.6
	c-1.3-0.9-3.5-1.8-6.7-2.5l-7.7-1.7c-1.7-0.4-3.5-1-5.3-1.8s-3.5-1.9-5-3.1c-1.5-1.3-2.7-2.8-3.7-4.6s-1.4-3.9-1.4-6.2
	c0-2.7,0.6-5.1,1.7-7.1c1.2-2.1,2.7-3.8,4.7-5.3c2-1.4,4.4-2.6,7.1-3.3c2.7-0.8,5.6-1.2,8.8-1.2c5.2,0,9.8,1,13.9,3.1
	c4.1,2,7.1,5.3,9,9.8l-12.6,5.1c-1-2.2-2.6-3.7-4.6-4.7s-4-1.4-6-1.4c-2.1,0-3.9,0.4-5.5,1.3c-1.6,0.9-2.3,2-2.3,3.3s0.7,2.3,2,3
	s3.1,1.4,5.3,2l8.4,2c5.6,1.3,9.7,3.5,12.4,6.4c2.7,2.9,4.1,6.4,4.1,10.4c0,2.4-0.6,4.6-1.7,6.8s-2.7,4.1-4.7,5.7
	c-2,1.7-4.5,3-7.4,4S373.3,175.8,369.8,175.8L369.8,175.8L369.8,175.8z"/>
<path class="st0" d="M180.7,117.6c-16,0-29,13-29,29.1s13,29.1,29,29.1s29-13,29-29.1C209.6,130.7,196.7,117.6,180.7,117.6z
	 M204.9,147.7H200c-0.1,0-0.2,0-0.3,0c-0.5,9.8-8.3,17.7-18.1,18.1c0,0.1,0,0.2,0,0.3v4.9c0,0.5-0.4,1-1,1c-0.5,0-1-0.4-1-1v-4.9
	c0-0.1,0-0.2,0-0.3c-9.8-0.5-17.7-8.3-18.1-18.1c-0.1,0-0.2,0-0.3,0h-4.9c-0.5,0-1-0.4-1-1c0-0.5,0.4-1,1-1h4.9c0.1,0,0.2,0,0.3,0
	c0.5-9.8,8.3-17.7,18.1-18.1c0-0.1,0-0.2,0-0.3v-4.9c0-0.5,0.4-1,1-1c0.5,0,1,0.4,1,1v4.9c0,0.1,0,0.2,0,0.3l0,0
	c9.8,0.5,17.7,8.3,18.1,18.1c0.1,0,0.2,0,0.3,0h4.9c0.5,0,1,0.4,1,1S205.4,147.7,204.9,147.7z"/>
<g>
	<path class="st2" d="M177.8,165c0.1-0.1,0.2-0.3,0.3-0.4l7-16.6l0,0v-0.1v-0.1v-0.1v-0.1l0,0l-0.4-18.1c0-0.5-0.3-0.9-0.7-1
		s-0.8,0.2-1,0.6l-7,16.6l0,0v0.1v0.1v0.1v0.1l0,0l0.4,18.1c0,0.5,0.3,0.9,0.7,1C177.4,165.2,177.6,165.1,177.8,165L177.8,165
		L177.8,165L177.8,165z"/>
	<polygon class="st3" points="177,146.6 184,148 177.4,163.9 	"/>
	<polygon class="st4" points="184,129.2 184.3,146.5 177.3,145.1 	"/>
</g>
<path class="st5" d="M159.8,81.4l10.3-1.6c1.5-0.9,7.1-2.1,11-9l-11.5-10.5c3.2,0.4,5.5,1.7,8.3,2.7c5.3,1.9,5,0.1,9.1-0.1
	c4.3-0.1,7.9,6.6,12,8.1c-1.4-4.2-6.4-11.4-8.9-15.9c-6.8-12.3-5.7-7.5-6.7-19.7c2.9,1.4,11.6,6.8,13.2,8.9c-2.4,7-5.2,2,3,11.7
	l9.8,10.4l1.2-4.7c1.5,1,6.5,7.9,7.8,9.5c2.2-4.4,4.1-11,3.2-15.9c-0.8-4.6-1.3-14.2-3.2-17.4c-1.2,1.7-1.8,3.8-3.6,4.3
	c-0.4-4.7-0.4-13.9-1.7-17.7c-1.6-4.9-4.1-10.1-5.2-15.2c3.2,1.1,13.5,7.2,14.9,8.8c0.9,1.1,3,10,6.5,16.7c2.9,5.5,5.1,9.9,8.3,14.9
	c5.1,8,5.7,7,4.9,18.7c5.8-0.6,6.8-1.3,12.8-0.5c4,0.5,8,1.1,12.1,1.7l0.6-1.5c0.3-0.9,0.3-1.1,0.6-2l10.5,0.5
	c-1-2.4-11.9-11.2-14-13.6c-2.5-2.9-3.6-2.4-5-5.2c4,0.4,11.6,1.6,15.3,2.5c4.9,1.2,5.2,5.4,8.7,8.3c2.3,0.2,4.3,0.1,6.5,0.1
	c4.6,0.1,2.7-0.3,5.3,2.1c2.3,2.1,7.2,3.1,10.5,2.5c-1.7-1.7-3.1-2.6-5-4.2l-16.2-13.5c-1.2-1.5-4.4-9-7.6-12.3
	c-2.8-2.9-8.4-6.4-10.8-9.5l-18.3-7.6c-2.3-0.4-0.6-0.7-1.9,0.5c2.2,1.6,6,8,7.9,10.7c1.4,2,2.1,3.4,3.7,5.4l3.5,6.1l-3.6-2.9
	c-0.1-0.1-0.2-0.2-0.3-0.3c-4.3-3.7-3.7,2.2-13.5-5.1c-9.9-7.3-9.7-4.9-10.4-14.3c-3.1-1.1-6.3-3.2-9.7-5L215.5,6
	c-4.5-0.5-9.7-5.6-13.9-6c-2.3,8.4-7.1,10.4-4.5,15.7c2.5,5.1,5.7,10.3,7.6,15.6l-15-10.8l3.3,11.3c-4.5-1-14.7-10.2-17.4-10.3
	c-5.3,2.1-6.1,3.9-8.8,7.6c-8.9,11.9-4,9.4-20.1,9.8c-3.7,7.3-3.1,1.6,2.9,20.7c1.8,5.8,6.3,17,7.2,22.3L159.8,81.4L159.8,81.4
	L159.8,81.4z M166.7,16.9l-6.9-1.5c-4.8-0.4-21.1-2.6-24.4-1.5l1.3,9.3c3.8,0.6,14,0.2,18.2-0.1c3.1-0.2,4-1.1,6.4-2.5
	C166.2,17.8,166.6,18.9,166.7,16.9L166.7,16.9L166.7,16.9z M93.1,37.3h-1.5l-9.8-0.1l2.2,9.3c3.1-1.7,8.2-4.8,11.1-7.3L93.1,37.3
	L93.1,37.3z"/>
<path class="st0" d="M37.7,24.2"/>
</svg>
